<svg width="500" height="500" viewBox="0 0 500 500" fill="none" xmlns="http://www.w3.org/2000/svg">
<path fill-rule="evenodd" clip-rule="evenodd" d="M260.546 490.635C188.234 495.918 106.858 520.358 55.5921 460.1C0.171837 394.959 -14.519 287.203 14.706 201.674C40.6076 125.87 121.908 117.171 184.684 82.3017C246.339 48.0548 303.124 -19.7874 367.816 5.53472C438.47 33.1906 482.721 118.204 496.462 204.34C509.596 286.669 485.448 372.185 435.899 432.316C391.407 486.308 324.327 485.975 260.546 490.635Z" fill="#EDF1FE"/>
<path d="M131.29 260.71C171.03 242.91 202.54 218.28 254.23 217.72C305.92 217.16 383.72 242.95 397.71 256.92C411.7 270.89 131.29 260.7 131.29 260.7V260.71Z" fill="#6A90FF"/>
<path d="M334.71 254.29C334.51 254.29 334.32 254.17 334.24 253.97C334.22 253.92 332.17 248.76 325.74 239.78C325.58 239.56 325.63 239.24 325.86 239.08C326.08 238.92 326.4 238.97 326.56 239.2C333.07 248.3 335.1 253.39 335.18 253.61C335.28 253.87 335.15 254.16 334.9 254.26C334.84 254.28 334.78 254.29 334.72 254.29H334.71Z" fill="#0C41E2"/>
<path d="M186.9 258.38C186.9 258.38 186.82 258.38 186.78 258.37C186.51 258.3 186.35 258.04 186.41 257.77C186.49 257.42 188.49 249.26 192.34 245.19C192.53 244.99 192.85 244.98 193.05 245.17C193.25 245.36 193.26 245.68 193.07 245.88C189.41 249.76 187.41 257.93 187.39 258.01C187.33 258.24 187.13 258.39 186.9 258.39V258.38Z" fill="#0C41E2"/>
<path d="M239.19 208.49C239.3 213.76 239.08 218.49 238.76 222.28C238.28 228.09 242.48 233.27 248.28 233.88C249.7 234.03 251.2 234.13 252.72 234.14C259 234.2 264.01 228.88 263.56 222.62C263.22 217.79 263.07 212.01 263.8 207.75C265.31 198.96 239.19 208.49 239.19 208.49Z" fill="#EDF1FE"/>
<path d="M252.81 234.64H252.71C251.29 234.63 249.78 234.54 248.23 234.38C242.23 233.75 237.76 228.31 238.27 222.24C238.65 217.66 238.79 213.04 238.69 208.5C238.69 208.29 238.82 208.09 239.02 208.02C239.82 207.73 258.74 200.89 263.31 204.69C264.2 205.43 264.53 206.48 264.3 207.83C263.71 211.3 263.62 216.4 264.07 222.58C264.29 225.7 263.19 228.8 261.04 231.08C258.91 233.34 255.92 234.63 252.82 234.63L252.81 234.64ZM239.69 208.83C239.77 213.29 239.63 217.82 239.25 222.31C238.79 227.84 242.86 232.8 248.32 233.37C249.84 233.53 251.32 233.62 252.71 233.63H252.8C255.63 233.63 258.35 232.45 260.29 230.39C262.27 228.28 263.25 225.53 263.05 222.64C262.6 216.29 262.68 211.24 263.3 207.65C263.47 206.67 263.26 205.95 262.66 205.45C259.31 202.65 245.26 206.83 239.69 208.83Z" fill="#0C41E2"/>
<path d="M284.48 189.71C284.48 189.71 281.58 207.45 263.31 213.11C259.77 214.21 255.65 214.85 250.86 214.83C246.52 214.81 242.65 214.21 239.2 213.21C218.73 207.27 213.17 187.04 213.17 187.04C213.17 187.04 204.52 191.42 200.4 186.32C197.17 182.33 197.33 172.42 204.45 171.74C206.41 171.56 208.91 172.07 212.02 173.62C212.02 173.62 215.43 178.76 216.18 176.79C216.93 174.82 216.18 158.3 216.18 158.3C216.18 158.3 220.75 152.63 223.38 145.04C224.07 143.08 224.61 140.98 224.92 138.83C224.92 138.83 227.68 140.6 232.87 142.64C238.37 144.8 246.58 147.28 257.11 148.31C267.81 149.35 275.82 148.82 281.02 148.09C282.29 155.53 286.36 159.93 286.36 159.93C286.35 166.36 285.89 173.26 285.89 173.26C285.89 173.26 289.09 167.47 294.8 168.78C295.53 168.95 296.31 169.24 297.12 169.67C304.27 173.46 299.07 197.17 284.47 189.69L284.48 189.71Z" fill="#EDF1FE"/>
<path d="M251.1 215.33C251.02 215.33 250.95 215.33 250.87 215.33C246.74 215.31 242.77 214.76 239.07 213.69C220.49 208.3 213.98 191.08 212.87 187.74C210.86 188.63 203.79 191.3 200.02 186.64C197.84 183.95 197.24 178.96 198.68 175.53C199.43 173.76 201.02 171.57 204.4 171.25C206.61 171.05 209.26 171.69 212.24 173.18C212.32 173.22 212.38 173.28 212.43 173.35C213.65 175.18 215.24 176.86 215.64 176.74C215.64 176.74 215.67 176.71 215.71 176.61C216.23 175.24 215.98 164.92 215.68 158.32C215.68 158.2 215.71 158.08 215.79 157.98C215.83 157.92 220.34 152.28 222.91 144.87C223.63 142.81 224.14 140.76 224.43 138.76C224.45 138.59 224.56 138.45 224.72 138.38C224.88 138.31 225.05 138.32 225.2 138.41C225.23 138.43 227.99 140.18 233.07 142.18C238.15 144.18 246.45 146.77 257.17 147.82C268.08 148.88 276.13 148.28 280.96 147.6C281.22 147.57 281.48 147.74 281.52 148.01C282.75 155.22 286.69 159.55 286.73 159.59C286.82 159.68 286.86 159.8 286.86 159.93C286.86 164.39 286.63 169.11 286.49 171.57C287.93 169.86 290.83 167.35 294.91 168.29C295.72 168.48 296.54 168.79 297.35 169.22C301.72 171.53 301.69 179.88 298.75 185.51C295.75 191.27 290.57 193.08 284.82 190.41C284.06 193.7 279.8 208.49 263.44 213.56C259.71 214.72 255.56 215.31 251.08 215.31L251.1 215.33ZM213.17 186.55C213.24 186.55 213.31 186.56 213.37 186.59C213.51 186.65 213.61 186.77 213.65 186.91C213.7 187.11 219.38 206.94 239.33 212.73C242.94 213.77 246.82 214.31 250.86 214.33C255.31 214.31 259.46 213.78 263.15 212.63C280.9 207.13 283.94 189.8 283.97 189.62C284 189.46 284.09 189.33 284.24 189.25C284.38 189.18 284.55 189.18 284.69 189.25C292.51 193.26 296.51 187.65 297.86 185.06C300.83 179.36 300.35 171.95 296.88 170.11C296.14 169.72 295.4 169.44 294.68 169.27C289.41 168.07 286.35 173.45 286.32 173.51C286.21 173.71 285.97 173.81 285.74 173.75C285.52 173.68 285.37 173.47 285.38 173.24C285.38 173.17 285.83 166.42 285.85 160.13C285.13 159.3 281.85 155.21 280.6 148.67C275.67 149.34 267.71 149.87 257.05 148.83C246.21 147.77 237.81 145.14 232.68 143.13C228.88 141.63 226.39 140.3 225.29 139.66C224.98 141.49 224.49 143.36 223.84 145.22C221.45 152.12 217.42 157.52 216.67 158.48C216.78 160.87 217.37 175.04 216.63 176.99C216.4 177.59 215.97 177.73 215.74 177.76C214.43 177.9 212.5 175.29 211.66 174.04C208.9 172.68 206.48 172.08 204.48 172.27C201.59 172.54 200.22 174.42 199.58 175.94C198.27 179.07 198.8 183.6 200.77 186.03C204.59 190.75 212.84 186.66 212.92 186.61C212.99 186.57 213.07 186.56 213.15 186.56L213.17 186.55Z" fill="#0C41E2"/>
<path d="M275.09 162.49C269.53 161.57 264.09 161.57 258.6 162.69C256.72 162.21 261.9 160.36 262.43 160.34C263.86 159.97 265.35 159.81 266.83 159.82C268.31 159.83 269.78 159.98 271.21 160.32C271.74 160.38 277.07 161.97 275.09 162.49Z" fill="#0C41E2"/>
<path d="M228.89 162.03C234.01 159.24 240.76 158.93 245.86 161.89C246.18 162.07 246 162.59 245.64 162.53C240.12 161.53 234.68 161.61 229.15 162.66C228.78 162.76 228.55 162.21 228.89 162.02V162.03Z" fill="#0C41E2"/>
<path d="M260.81 189.13C257.96 189.13 254.76 187.3 254.36 184.21C254.32 183.94 254.52 183.69 254.79 183.65C255.07 183.61 255.31 183.81 255.35 184.08C255.68 186.63 258.55 188.26 261.03 188.13C262.05 188.09 264.44 187.67 264.58 184.74C264.62 183.79 264.34 183.04 263.72 182.45C261.8 180.62 257.39 181.02 257.34 181.03C257.09 181.04 256.87 180.89 256.81 180.65C256.73 180.31 254.8 172.32 254.46 168.26C254.44 167.98 254.64 167.74 254.92 167.72C255.18 167.7 255.44 167.9 255.46 168.18C255.75 171.65 257.29 178.3 257.69 180.01C258.94 179.95 262.54 179.95 264.41 181.73C265.24 182.52 265.63 183.55 265.58 184.8C265.46 187.37 263.73 189.03 261.07 189.14C260.98 189.14 260.89 189.14 260.8 189.14L260.81 189.13Z" fill="#0C41E2"/>
<path d="M265.38 173.51C264.87 175.89 265.92 178.08 267.71 178.42C269.52 178.76 271.37 177.12 271.88 174.73C272.03 174.02 272.04 173.31 271.92 172.67L268.5 173.61L270.71 170.41C270.37 170.11 269.99 169.93 269.54 169.84C267.75 169.5 265.88 171.14 265.37 173.51H265.38Z" fill="#0C41E2"/>
<path d="M234 172.84C233.49 175.22 234.54 177.41 236.33 177.75C238.12 178.09 239.99 176.45 240.5 174.06C240.65 173.35 240.66 172.64 240.54 172L237.12 172.94L239.33 169.74C238.99 169.44 238.61 169.26 238.16 169.17C236.37 168.83 234.5 170.47 233.99 172.84H234Z" fill="#0C41E2"/>
<path d="M254.6 195.95C254.6 195.95 254.56 195.95 254.54 195.95C245.4 194.95 242.47 190.72 242.35 190.54C242.2 190.31 242.26 190 242.49 189.85C242.72 189.69 243.03 189.76 243.18 189.98C243.21 190.02 246.02 194.01 254.65 194.95C254.92 194.98 255.12 195.23 255.09 195.5C255.06 195.76 254.84 195.95 254.59 195.95H254.6Z" fill="#0C41E2"/>
<path d="M297.89 151.18C297.53 155.9 296.12 162.94 294.81 168.8C289.09 167.49 285.9 173.28 285.9 173.28C285.9 173.28 286.36 166.38 286.37 159.95C286.37 159.95 282.3 155.55 281.03 148.11C275.83 148.85 267.82 149.37 257.12 148.33C246.59 147.3 238.38 144.82 232.88 142.66C227.69 140.62 224.93 138.85 224.93 138.85C224.62 141 224.07 143.1 223.39 145.06C220.76 152.65 216.19 158.32 216.19 158.32C216.19 158.32 216.94 174.84 216.19 176.81C215.44 178.78 212.03 173.64 212.03 173.64C208.93 172.09 206.42 171.57 204.46 171.76C199.9 159.76 189.26 127.06 209.92 130.12C209.92 130.12 230.79 107.09 259.98 113.33C289.17 119.57 291.07 137.13 291.07 137.13C291.07 137.13 298.61 141.74 297.9 151.18H297.89Z" fill="#EDF1FE"/>
<path d="M215.65 177.76C214.34 177.76 212.5 175.25 211.68 174.03C208.92 172.67 206.501 172.07 204.501 172.26C204.281 172.28 204.071 172.15 203.991 171.94C200.541 162.86 193.221 140.84 199.831 132.64C201.941 130.01 205.281 128.99 209.731 129.6C211.881 127.36 232.39 106.94 260.08 112.85C275.31 116.1 283.05 122.49 286.86 127.27C290.53 131.87 291.371 135.85 291.531 136.85C292.751 137.69 299.061 142.48 298.391 151.23C298.011 156.17 296.5 163.57 295.3 168.92C295.27 169.05 295.19 169.16 295.08 169.23C294.97 169.3 294.831 169.33 294.701 169.29C289.421 168.09 286.46 173.31 286.33 173.53C286.22 173.74 285.981 173.83 285.751 173.77C285.521 173.71 285.381 173.49 285.391 173.26C285.391 173.19 285.84 166.44 285.86 160.15C285.14 159.32 281.86 155.23 280.61 148.69C275.68 149.36 267.721 149.89 257.061 148.85C246.221 147.79 237.821 145.16 232.691 143.15C228.891 141.65 226.401 140.32 225.301 139.68C224.991 141.51 224.501 143.38 223.851 145.24C221.461 152.14 217.43 157.54 216.68 158.5C216.79 160.89 217.381 175.06 216.641 177.01C216.411 177.61 215.981 177.75 215.751 177.78C215.711 177.78 215.681 177.78 215.641 177.78L215.65 177.76ZM205.231 171.22C207.271 171.22 209.621 171.88 212.241 173.19C212.321 173.23 212.38 173.29 212.43 173.36C213.65 175.19 215.241 176.87 215.641 176.75C215.641 176.75 215.671 176.72 215.711 176.62C216.231 175.25 215.98 164.93 215.68 158.33C215.68 158.21 215.71 158.09 215.79 157.99C215.83 157.93 220.341 152.29 222.911 144.88C223.631 142.82 224.14 140.77 224.43 138.77C224.45 138.6 224.561 138.46 224.721 138.39C224.881 138.32 225.051 138.33 225.201 138.42C225.231 138.44 227.991 140.19 233.071 142.19C238.151 144.19 246.451 146.78 257.171 147.83C268.081 148.89 276.13 148.29 280.96 147.61C281.22 147.58 281.48 147.75 281.52 148.02C282.75 155.21 286.691 159.56 286.731 159.6C286.821 159.69 286.86 159.81 286.86 159.94C286.86 164.4 286.63 169.12 286.49 171.58C287.87 169.94 290.601 167.57 294.421 168.2C295.591 162.93 297.021 155.87 297.391 151.13C298.071 142.12 290.87 137.59 290.8 137.54C290.67 137.46 290.581 137.32 290.561 137.17C290.541 137 288.32 119.88 259.86 113.8C231.28 107.69 210.481 130.21 210.271 130.44C210.161 130.56 209.991 130.63 209.831 130.6C205.621 129.98 202.511 130.87 200.591 133.25C194.391 140.96 201.341 162.1 204.781 171.23C204.931 171.23 205.071 171.22 205.221 171.22H205.231Z" fill="#0C41E2"/>
<path d="M209.91 177.3C206.1 174.2 202.42 175.7 201.4 179.35Z" fill="#EDF1FE"/>
<path d="M201.4 179.85C201.4 179.85 201.31 179.85 201.27 179.83C201 179.76 200.85 179.48 200.92 179.21C201.46 177.28 202.71 175.87 204.36 175.35C206.19 174.77 208.27 175.32 210.23 176.91C210.44 177.08 210.48 177.4 210.3 177.61C210.12 177.82 209.81 177.86 209.6 177.68C207.91 176.31 206.16 175.82 204.66 176.29C203.34 176.71 202.33 177.87 201.88 179.47C201.82 179.69 201.62 179.84 201.4 179.84V179.85Z" fill="#0C41E2"/>
<path d="M206.17 184.09C202.46 182.16 203.9 176.08 203.9 176.08Z" fill="#EDF1FE"/>
<path d="M206.17 184.59C206.09 184.59 206.01 184.57 205.94 184.53C201.93 182.44 203.35 176.22 203.41 175.96C203.47 175.69 203.74 175.53 204.01 175.59C204.28 175.65 204.44 175.92 204.38 176.19C204.37 176.25 203.08 181.91 206.4 183.64C206.64 183.77 206.74 184.07 206.61 184.31C206.52 184.48 206.35 184.58 206.17 184.58V184.59Z" fill="#0C41E2"/>
<path d="M288.18 176.81C290.59 172.03 296.26 172.92 297.89 175.54Z" fill="#EDF1FE"/>
<path d="M288.18 177.31C288.1 177.31 288.03 177.29 287.95 177.26C287.7 177.14 287.61 176.84 287.73 176.59C288.86 174.36 290.84 173.01 293.18 172.91C295.3 172.83 297.37 173.77 298.31 175.28C298.46 175.51 298.38 175.82 298.15 175.97C297.92 176.12 297.61 176.04 297.46 175.81C296.72 174.61 294.99 173.82 293.22 173.91C292.07 173.96 289.93 174.44 288.62 177.04C288.53 177.21 288.36 177.31 288.17 177.31H288.18Z" fill="#0C41E2"/>
<path d="M291.06 186.27C295.3 185.42 296.74 177.61 294.5 173.49Z" fill="#EDF1FE"/>
<path d="M291.06 186.77C290.83 186.77 290.62 186.61 290.57 186.37C290.52 186.1 290.69 185.84 290.96 185.78C292.57 185.46 293.54 184.04 294.07 182.9C295.38 180.09 295.38 176.14 294.07 173.72C293.94 173.48 294.03 173.17 294.27 173.04C294.51 172.91 294.82 173 294.95 173.24C296.43 175.96 296.44 180.2 294.98 183.32C294.08 185.24 292.76 186.43 291.17 186.75C291.14 186.75 291.1 186.75 291.07 186.75L291.06 186.77Z" fill="#0C41E2"/>
<path d="M100.29 257.38C100.29 257.38 311.59 261.72 418.34 245.97L437.81 242.92L439.36 341.2C439.46 347.24 435.23 352.5 429.31 353.69C402.75 359.06 327.13 372.55 235.47 373.11C151.22 373.62 102.07 368.13 81.9698 365.18C75.8198 364.28 71.2598 358.99 71.2598 352.77V264.71L80.1698 255.72L100.3 257.38H100.29Z" fill="#EDF1FE"/>
<path d="M224.4 373.65C148.08 373.65 102.63 368.72 81.8998 365.69C75.5498 364.76 70.7598 359.21 70.7598 352.78V264.72C70.7598 264.59 70.8098 264.46 70.8998 264.37L79.8098 255.38C79.9098 255.27 80.0598 255.23 80.2098 255.23L100.32 256.88C101.46 256.9 154.27 257.95 219.28 257.08C279.64 256.27 363.15 253.61 418.26 245.47L437.72 242.42C437.86 242.4 438.01 242.44 438.12 242.53C438.23 242.62 438.3 242.76 438.3 242.91L439.85 341.19C439.95 347.47 435.56 352.94 429.4 354.18C401.42 359.84 326.5 373.06 235.46 373.61C231.7 373.63 228.01 373.64 224.38 373.64L224.4 373.65ZM71.7598 264.93V352.79C71.7598 358.73 76.1798 363.85 82.0398 364.71C103.73 367.88 152.49 373.13 235.47 372.63C326.42 372.08 401.26 358.87 429.22 353.22C434.9 352.07 438.96 347.03 438.86 341.23L437.32 243.52L418.42 246.48C363.25 254.62 279.68 257.29 219.3 258.1C153.88 258.98 100.82 257.91 100.29 257.9C100.29 257.9 100.27 257.9 100.26 257.9L80.3698 256.26L71.7698 264.94L71.7598 264.93Z" fill="#0C41E2"/>
<path d="M145.27 335.79L147.22 296.72L139.74 296.35L140.04 290.26L161.48 291.33L161.18 297.42L153.7 297.05L151.75 336.12L145.28 335.8L145.27 335.79Z" fill="#6A90FF"/>
<path d="M151.74 336.62H151.72L145.25 336.3C145.12 336.3 144.99 336.23 144.9 336.14C144.81 336.04 144.77 335.91 144.77 335.78L146.7 297.21L139.72 296.86C139.59 296.86 139.46 296.79 139.37 296.7C139.28 296.6 139.24 296.47 139.24 296.34L139.54 290.25C139.55 289.98 139.76 289.74 140.06 289.78L161.5 290.85C161.78 290.86 161.99 291.1 161.97 291.37L161.67 297.46C161.67 297.59 161.6 297.72 161.51 297.81C161.41 297.9 161.28 297.95 161.15 297.94L154.17 297.59L152.24 336.16C152.23 336.43 152.01 336.63 151.74 336.63V336.62ZM145.79 335.32L151.26 335.59L153.19 297.02C153.19 296.89 153.26 296.76 153.35 296.67C153.45 296.58 153.56 296.52 153.71 296.54L160.69 296.89L160.94 291.8L140.5 290.78L140.25 295.87L147.23 296.22C147.36 296.22 147.49 296.29 147.58 296.38C147.67 296.48 147.71 296.61 147.71 296.74L145.78 335.31L145.79 335.32Z" fill="#0C41E2"/>
<path d="M161.91 336.6L163.51 291.42L169.98 291.65L169.3 311.01L177.3 311.29L177.98 291.93L184.45 292.16L182.85 337.34L176.38 337.11L177.09 316.99L169.09 316.71L168.38 336.83L161.91 336.6Z" fill="#6A90FF"/>
<path d="M182.849 337.84H182.829L176.359 337.61C176.079 337.61 175.869 337.37 175.879 337.09L176.569 317.47L169.569 317.22L168.879 336.84C168.879 336.97 168.819 337.1 168.719 337.19C168.619 337.28 168.489 337.33 168.359 337.32L161.889 337.09C161.759 337.09 161.629 337.03 161.539 336.93C161.449 336.83 161.399 336.7 161.409 336.57L163.009 291.39C163.019 291.11 163.259 290.92 163.529 290.91L169.999 291.14C170.129 291.14 170.259 291.2 170.349 291.3C170.439 291.4 170.489 291.53 170.479 291.66L169.809 310.52L176.809 310.77L177.479 291.91C177.479 291.78 177.539 291.65 177.639 291.56C177.739 291.47 177.859 291.43 177.999 291.43L184.469 291.66C184.749 291.66 184.959 291.9 184.949 292.18L183.349 337.36C183.349 337.63 183.119 337.84 182.849 337.84ZM176.889 336.63L182.359 336.82L183.919 292.64L178.449 292.45L177.779 311.31C177.779 311.59 177.529 311.79 177.259 311.79L169.259 311.51C169.129 311.51 168.999 311.45 168.909 311.35C168.819 311.25 168.769 311.12 168.779 310.99L169.449 292.13L163.979 291.94L162.419 336.12L167.889 336.31L168.579 316.69C168.579 316.56 168.639 316.43 168.739 316.34C168.839 316.25 168.969 316.21 169.099 316.21L177.099 316.49C177.379 316.49 177.589 316.73 177.579 317.01L176.889 336.63Z" fill="#0C41E2"/>
<path d="M185.87 337.44L196.86 292.44L202.26 292.55L211.46 337.95L204.98 337.82L203.27 328.07L194.45 327.9L192.35 337.58L185.87 337.45V337.44ZM202.18 321.95L199.33 305.51H199.2L195.7 321.82L202.18 321.95Z" fill="#6A90FF"/>
<path d="M211.46 338.45L204.99 338.32C204.75 338.32 204.55 338.14 204.51 337.91L202.87 328.56L194.87 328.4L192.86 337.67C192.81 337.9 192.57 338.09 192.36 338.06L185.88 337.93C185.73 337.93 185.59 337.85 185.49 337.73C185.39 337.61 185.369 337.45 185.399 337.31L196.39 292.31C196.44 292.09 196.64 291.93 196.88 291.93L202.28 292.04C202.51 292.04 202.71 292.21 202.76 292.44L211.96 337.84C211.99 337.99 211.96 338.14 211.85 338.26C211.76 338.37 211.61 338.44 211.47 338.44L211.46 338.45ZM205.399 337.33L210.84 337.44L201.84 293.04L197.24 292.95L186.49 336.96L191.929 337.07L193.94 327.8C193.99 327.57 194.19 327.39 194.44 327.41L203.26 327.58C203.5 327.58 203.7 327.76 203.74 327.99L205.38 337.34L205.399 337.33ZM202.179 322.45L195.7 322.32C195.55 322.32 195.41 322.25 195.32 322.13C195.23 322.01 195.19 321.86 195.22 321.71L198.72 305.39C198.77 305.15 198.99 304.98 199.22 304.99H199.35C199.59 304.99 199.79 305.17 199.83 305.41L202.679 321.85C202.709 322 202.66 322.15 202.57 322.26C202.48 322.37 202.34 322.43 202.19 322.43L202.179 322.45ZM196.33 321.33L201.59 321.43L199.23 307.8L196.33 321.32V321.33Z" fill="#0C41E2"/>
<path d="M214.19 337.97L214.36 292.76L220.58 292.78L230.26 320.06H230.39L230.49 292.82L236.97 292.84L236.8 338.05L230.7 338.03L220.89 310.82H220.76L220.66 338L214.18 337.98L214.19 337.97Z" fill="#6A90FF"/>
<path d="M236.79 338.55L230.69 338.53C230.48 338.53 230.29 338.4 230.22 338.2L221.25 313.3L221.16 337.99C221.16 338.27 220.94 338.49 220.66 338.49L214.18 338.47C214.05 338.47 213.92 338.42 213.83 338.32C213.74 338.23 213.68 338.1 213.68 337.97L213.85 292.76C213.85 292.48 214.07 292.26 214.35 292.26L220.57 292.28C220.78 292.28 220.97 292.41 221.04 292.61L229.88 317.53L229.97 292.81C229.97 292.53 230.19 292.31 230.47 292.31L236.95 292.33C237.08 292.33 237.21 292.38 237.3 292.48C237.39 292.57 237.45 292.7 237.45 292.83L237.28 338.04C237.28 338.32 237.06 338.54 236.78 338.54L236.79 338.55ZM231.05 337.53L236.3 337.55L236.46 293.34L230.98 293.32L230.88 320.06C230.88 320.19 230.83 320.32 230.73 320.41C230.64 320.5 230.51 320.55 230.38 320.55H230.25C230.04 320.55 229.85 320.41 229.78 320.22L220.22 293.28L214.85 293.26L214.69 337.47L220.17 337.49L220.27 310.81C220.27 310.53 220.49 310.31 220.77 310.31H220.9C221.11 310.31 221.3 310.44 221.37 310.64L231.06 337.52L231.05 337.53Z" fill="#0C41E2"/>
<path d="M242.44 338.02L241.83 292.81L248.31 292.72L248.59 313.36H248.72L257.9 292.6L264.38 292.51L255.8 310.72L266.64 337.69L259.78 337.78L252.14 317.82L248.74 324.41L248.92 337.93L242.44 338.02Z" fill="#6A90FF"/>
<path d="M242.44 338.52C242.31 338.52 242.19 338.47 242.09 338.38C242 338.29 241.94 338.16 241.94 338.03L241.33 292.82C241.33 292.54 241.55 292.32 241.82 292.31L248.3 292.22C248.44 292.18 248.56 292.27 248.66 292.36C248.76 292.45 248.81 292.58 248.81 292.71L249.06 311.33L257.44 292.38C257.52 292.2 257.69 292.09 257.89 292.08L264.37 291.99C264.54 291.97 264.7 292.07 264.8 292.22C264.89 292.36 264.91 292.55 264.83 292.7L256.34 310.72L267.1 337.49C267.16 337.64 267.14 337.82 267.05 337.95C266.96 338.09 266.81 338.17 266.64 338.17L259.78 338.26C259.53 338.26 259.38 338.13 259.31 337.94L252.07 319.02L249.24 324.5L249.42 337.9C249.42 338.18 249.2 338.4 248.93 338.41L242.45 338.5L242.44 338.52ZM242.33 293.31L242.93 337.52L248.41 337.45L248.23 324.43C248.23 324.35 248.25 324.27 248.29 324.19L251.69 317.6C251.78 317.43 251.95 317.3 252.16 317.33C252.36 317.34 252.53 317.47 252.6 317.65L260.11 337.29L265.89 337.21L255.32 310.92C255.27 310.79 255.27 310.65 255.33 310.52L263.57 293.03L258.21 293.1L249.16 313.57C249.08 313.75 248.91 313.86 248.71 313.87H248.58C248.48 313.89 248.32 313.82 248.22 313.73C248.13 313.64 248.07 313.51 248.07 313.38L247.8 293.25L242.32 293.32L242.33 293.31Z" fill="#0C41E2"/>
<path d="M287.06 337.03L286.31 317.93L276.41 292.2L283.26 291.93L289.16 309.68H289.29L293.79 291.52L300.64 291.25L292.78 317.67L293.53 336.77L287.06 337.02V337.03Z" fill="#6A90FF"/>
<path d="M287.059 337.53C286.929 337.53 286.809 337.48 286.719 337.4C286.619 337.31 286.569 337.19 286.559 337.05L285.819 318.04L275.949 292.39C275.889 292.24 275.909 292.07 275.999 291.93C276.089 291.8 276.239 291.71 276.399 291.71L283.249 291.44C283.469 291.44 283.669 291.57 283.739 291.78L289.169 308.11L293.309 291.41C293.359 291.19 293.549 291.04 293.779 291.03L300.629 290.76C300.799 290.77 300.949 290.83 301.039 290.95C301.139 291.08 301.169 291.24 301.119 291.4L293.279 317.74L294.019 336.75C294.029 337.03 293.819 337.26 293.539 337.27L287.069 337.52H287.049L287.059 337.53ZM277.139 292.67L286.789 317.75C286.809 317.8 286.819 317.86 286.819 317.91L287.549 336.51L293.019 336.3L292.289 317.7C292.289 317.65 292.289 317.59 292.309 317.54L299.979 291.79L294.199 292.02L289.789 309.81C289.739 310.03 289.539 310.18 289.319 310.19H289.189C288.969 310.19 288.769 310.06 288.699 309.85L282.909 292.45L277.129 292.68L277.139 292.67Z" fill="#0C41E2"/>
<path d="M303.05 301.81C302.94 299.99 303.17 298.37 303.72 296.94C304.27 295.51 305.05 294.3 306.05 293.31C307.01 292.36 308.12 291.62 309.39 291.08C310.65 290.54 311.94 290.23 313.25 290.16C314.56 290.08 315.87 290.24 317.19 290.63C318.51 291.02 319.72 291.63 320.83 292.45C321.9 293.32 322.79 294.43 323.51 295.79C324.22 297.15 324.64 298.74 324.74 300.55L326.13 324.38C326.24 326.28 326.02 327.93 325.46 329.32C324.91 330.71 324.15 331.88 323.18 332.82C322.18 333.81 321.05 334.58 319.78 335.12C318.52 335.66 317.23 335.97 315.92 336.04C314.61 336.12 313.3 335.96 311.98 335.57C310.66 335.18 309.47 334.55 308.4 333.68C307.29 332.85 306.38 331.79 305.67 330.47C304.96 329.16 304.54 327.55 304.43 325.64L303.04 301.81H303.05ZM310.91 325.27C311 326.83 311.5 327.96 312.41 328.65C313.32 329.34 314.37 329.65 315.55 329.58C316.73 329.51 317.74 329.08 318.56 328.29C319.38 327.5 319.75 326.32 319.66 324.76L318.27 300.93C318.18 299.37 317.68 298.24 316.77 297.55C315.86 296.86 314.81 296.55 313.63 296.62C312.45 296.69 311.44 297.12 310.62 297.91C309.8 298.7 309.43 299.88 309.52 301.44L310.91 325.27Z" fill="#6A90FF"/>
<path d="M315.29 336.56C314.14 336.56 312.99 336.39 311.85 336.05C310.47 335.64 309.21 334.97 308.1 334.07C306.95 333.22 305.99 332.08 305.24 330.71C304.49 329.34 304.06 327.64 303.94 325.68L302.55 301.85C302.44 299.97 302.67 298.26 303.25 296.77C303.83 295.28 304.65 294 305.7 292.96C306.7 291.97 307.88 291.19 309.19 290.63C310.5 290.07 311.85 289.75 313.22 289.67C314.58 289.59 315.96 289.76 317.33 290.16C318.7 290.57 319.97 291.21 321.12 292.06C322.25 292.98 323.2 294.16 323.94 295.57C324.68 296.98 325.12 298.65 325.23 300.54L326.62 324.37C326.73 326.34 326.5 328.07 325.92 329.52C325.34 330.97 324.54 332.2 323.53 333.2C322.49 334.23 321.29 335.04 319.98 335.6C318.67 336.16 317.31 336.48 315.96 336.56C315.74 336.57 315.52 336.58 315.29 336.58V336.56ZM313.88 290.63C313.68 290.63 313.48 290.63 313.27 290.65C312.02 290.72 310.78 291.02 309.58 291.54C308.38 292.05 307.31 292.77 306.4 293.67C305.45 294.6 304.71 295.77 304.18 297.13C303.66 298.49 303.44 300.06 303.54 301.79L304.93 325.62C305.04 327.44 305.43 328.99 306.11 330.24C306.78 331.49 307.66 332.51 308.7 333.29C309.73 334.13 310.87 334.73 312.12 335.1C313.37 335.47 314.64 335.62 315.89 335.55C317.13 335.48 318.37 335.18 319.58 334.66C320.78 334.15 321.87 333.41 322.82 332.47C323.73 331.57 324.46 330.45 324.98 329.14C325.51 327.83 325.72 326.24 325.61 324.42L324.22 300.59C324.12 298.85 323.72 297.32 323.05 296.03C322.37 294.74 321.51 293.66 320.5 292.84C319.46 292.07 318.29 291.48 317.04 291.11C315.99 290.8 314.93 290.64 313.88 290.64V290.63ZM315.23 330.08C314.07 330.08 313.02 329.73 312.11 329.04C311.08 328.26 310.51 327 310.41 325.29L309.02 301.46C308.92 299.75 309.34 298.43 310.27 297.54C311.18 296.67 312.3 296.19 313.6 296.11C314.88 296.04 316.06 296.38 317.07 297.14C318.1 297.92 318.67 299.18 318.77 300.89L320.16 324.72C320.26 326.43 319.84 327.75 318.91 328.64C318 329.51 316.88 329.99 315.58 330.07C315.46 330.07 315.35 330.08 315.23 330.08ZM313.95 297.1C313.85 297.1 313.75 297.1 313.65 297.1C312.58 297.16 311.7 297.54 310.96 298.25C310.24 298.94 309.93 299.97 310.02 301.39L311.41 325.22C311.49 326.62 311.93 327.64 312.71 328.23C313.53 328.85 314.45 329.12 315.52 329.06C316.59 329 317.47 328.62 318.21 327.91C318.92 327.23 319.24 326.17 319.16 324.77L317.77 300.94C317.69 299.54 317.25 298.52 316.47 297.93C315.73 297.37 314.9 297.09 313.96 297.09L313.95 297.1Z" fill="#0C41E2"/>
<path d="M349.45 287.89L352.28 322.83C352.4 324.31 352.25 325.69 351.82 326.98C351.39 328.27 350.73 329.44 349.84 330.48C348.95 331.53 347.89 332.38 346.67 333.03C345.45 333.68 344.12 334.06 342.69 334.18C341.26 334.3 339.89 334.13 338.6 333.68C337.31 333.23 336.14 332.56 335.09 331.67C334.04 330.78 333.19 329.73 332.54 328.53C331.89 327.33 331.51 325.99 331.39 324.51L328.56 289.57L335.02 289.05L337.8 323.35C337.93 324.95 338.41 326.1 339.23 326.8C340.05 327.5 341.03 327.8 342.17 327.71C343.31 327.62 344.23 327.16 344.93 326.34C345.63 325.52 345.91 324.31 345.78 322.7L343 288.4L349.46 287.88L349.45 287.89Z" fill="#6A90FF"/>
<path d="M341.81 334.71C340.64 334.71 339.5 334.52 338.43 334.15C337.09 333.68 335.85 332.98 334.76 332.05C333.67 331.12 332.77 330.02 332.1 328.77C331.42 327.52 331.01 326.1 330.89 324.56L328.06 289.62C328.05 289.49 328.09 289.36 328.18 289.26C328.27 289.16 328.39 289.1 328.52 289.09L334.98 288.57C335.26 288.57 335.5 288.75 335.52 289.03L338.3 323.33C338.42 324.79 338.84 325.83 339.55 326.44C340.27 327.05 341.11 327.31 342.13 327.23C343.14 327.15 343.93 326.76 344.55 326.03C345.16 325.32 345.4 324.22 345.29 322.76L342.51 288.46C342.5 288.33 342.54 288.2 342.63 288.1C342.72 288 342.84 287.94 342.97 287.93L349.43 287.41C349.71 287.39 349.95 287.59 349.97 287.87L352.8 322.81C352.92 324.34 352.76 325.8 352.32 327.15C351.87 328.49 351.18 329.73 350.25 330.82C349.32 331.91 348.21 332.81 346.93 333.49C345.65 334.17 344.25 334.58 342.75 334.7C342.44 334.73 342.14 334.74 341.84 334.74L341.81 334.71ZM329.1 290.04L331.89 324.48C332 325.88 332.37 327.16 332.98 328.3C333.6 329.44 334.41 330.45 335.41 331.3C336.4 332.15 337.53 332.79 338.76 333.22C339.98 333.64 341.28 333.8 342.64 333.69C344 333.58 345.27 333.21 346.43 332.6C347.59 331.98 348.61 331.16 349.45 330.17C350.3 329.18 350.93 328.05 351.33 326.83C351.73 325.61 351.88 324.28 351.77 322.88L348.98 288.44L343.52 288.88L346.26 322.69C346.4 324.42 346.07 325.77 345.29 326.69C344.51 327.61 343.46 328.13 342.19 328.23C340.92 328.33 339.81 327.99 338.89 327.2C337.97 326.42 337.43 325.14 337.29 323.41L334.55 289.61L329.09 290.05L329.1 290.04Z" fill="#0C41E2"/>
<path d="M361.239 320.91L355.359 287.3L363.449 286.48L364.399 320.59L361.239 320.91ZM360.719 332.19L360.069 325.75L366.509 325.1L367.159 331.54L360.719 332.19Z" fill="#6A90FF"/>
<path d="M360.719 332.69C360.469 332.69 360.249 332.5 360.219 332.24L359.569 325.8C359.539 325.53 359.739 325.28 360.019 325.25L366.459 324.6C366.709 324.57 366.979 324.77 367.009 325.05L367.659 331.49C367.689 331.76 367.489 332.01 367.209 332.04L360.769 332.69C360.769 332.69 360.739 332.69 360.719 332.69ZM360.619 326.2L361.169 331.65L366.619 331.1L366.069 325.65L360.619 326.2ZM361.239 321.41C360.999 321.41 360.789 321.24 360.749 321L354.869 287.39C354.849 287.25 354.869 287.11 354.959 287C355.039 286.89 355.169 286.82 355.309 286.8L363.399 285.98C363.539 285.96 363.679 286.01 363.779 286.1C363.879 286.19 363.949 286.32 363.949 286.46L364.899 320.57C364.899 320.83 364.709 321.06 364.449 321.08L361.289 321.4C361.289 321.4 361.259 321.4 361.239 321.4V321.41ZM355.949 287.74L361.659 320.37L363.889 320.14L362.959 287.03L355.939 287.74H355.949Z" fill="#0C41E2"/>
<path d="M452.229 248.15C455.679 249.57 456.989 255.45 452.229 260.31C447.469 265.17 441.589 268.52 439.969 266.7C438.349 264.88 440.879 260.21 440.879 260.21L452.229 248.15Z" fill="#EDF1FE"/>
<path d="M441.31 267.71C441.31 267.71 441.26 267.71 441.23 267.71C440.53 267.69 439.98 267.47 439.6 267.04C437.8 265.01 440.17 260.49 440.45 259.98C440.47 259.94 440.5 259.91 440.53 259.88L451.88 247.82C452.02 247.67 452.25 247.62 452.43 247.7C454.06 248.37 455.27 249.96 455.68 251.95C456.28 254.88 455.16 258.06 452.59 260.67C448.51 264.83 443.89 267.71 441.31 267.71ZM441.29 260.51C440.62 261.77 439.22 265.11 440.34 266.37C440.53 266.59 440.83 266.7 441.25 266.71C441.27 266.71 441.29 266.71 441.31 266.71C443.57 266.71 448.09 263.83 451.87 259.97C454.2 257.59 455.22 254.74 454.69 252.15C454.38 250.62 453.51 249.38 452.34 248.77L441.28 260.52L441.29 260.51Z" fill="#0C41E2"/>
<path d="M447.72 241.83C451.33 240.85 455.54 244.26 453.74 249.38C451.94 254.5 442.31 264.72 439.2 263.72C436.09 262.72 436.69 258.13 436.69 258.13L447.72 241.84V241.83Z" fill="#EDF1FE"/>
<path d="M439.63 264.28C439.42 264.28 439.23 264.25 439.05 264.19C435.59 263.07 436.17 258.26 436.2 258.06C436.21 257.98 436.24 257.91 436.28 257.85L447.31 241.56C447.38 241.46 447.48 241.39 447.59 241.36C449.55 240.83 451.72 241.48 453.14 243C454.7 244.68 455.09 247.07 454.21 249.55C452.5 254.38 443.58 264.28 439.63 264.28ZM437.17 258.3C437.11 258.97 436.92 262.46 439.35 263.24C441.9 264.06 451.4 254.49 453.26 249.21C454.01 247.09 453.7 245.07 452.4 243.67C451.28 242.46 449.58 241.92 448.02 242.27L437.17 258.3Z" fill="#0C41E2"/>
<path d="M442.5 236.45C446.61 235.45 450.92 238.25 449.32 244.07C447.72 249.89 440.1 260.71 435.88 260.71C431.66 260.71 433.59 254.29 433.59 254.29L442.5 236.44V236.45Z" fill="#EDF1FE"/>
<path d="M435.89 261.21C434.8 261.21 433.97 260.83 433.41 260.08C431.95 258.12 433.07 254.31 433.12 254.15L442.06 236.22C442.13 236.09 442.25 235.99 442.39 235.96C444.72 235.39 447.1 235.98 448.58 237.51C450.12 239.1 450.55 241.47 449.8 244.2C448.16 250.15 440.37 261.21 435.88 261.21H435.89ZM442.85 236.88L434.04 254.51C433.78 255.4 433.25 258.19 434.21 259.48C434.57 259.97 435.12 260.2 435.89 260.2C439.54 260.2 447.18 249.96 448.84 243.92C449.49 241.55 449.15 239.52 447.86 238.2C446.67 236.97 444.76 236.47 442.84 236.87L442.85 236.88Z" fill="#0C41E2"/>
<path d="M418.34 245.97C418.34 245.97 428.76 234.2 436.86 233.05C444.96 231.89 445.93 237.87 442.65 245.97C439.37 254.07 432.23 260.05 429.34 257.54C426.45 255.03 431.38 245.51 431.38 245.51L418.35 245.97H418.34Z" fill="#EDF1FE"/>
<path d="M430.99 258.62C430.22 258.62 429.55 258.38 429.01 257.92C426.31 255.58 429.37 248.5 430.55 246.04L418.36 246.47C418.17 246.48 417.98 246.36 417.89 246.18C417.81 246 417.84 245.79 417.97 245.64C418.4 245.15 428.6 233.72 436.79 232.55C440.05 232.08 442.37 232.71 443.7 234.41C445.5 236.7 445.29 240.77 443.11 246.16C440.68 252.16 435.81 257.58 432.03 258.49C431.67 258.58 431.32 258.62 430.99 258.62ZM431.38 245.02C431.55 245.02 431.71 245.11 431.8 245.25C431.89 245.4 431.9 245.59 431.82 245.75C430.5 248.3 427.54 255.33 429.67 257.17C430.19 257.62 430.9 257.74 431.8 257.52C434.87 256.78 439.6 252.19 442.19 245.79C444.2 240.82 444.46 237 442.92 235.03C441.83 233.63 439.82 233.13 436.94 233.55C430.39 234.49 422.12 242.71 419.53 245.44L431.36 245.02H431.38Z" fill="#0C41E2"/>
<path d="M431.38 246.02C431.31 246.02 431.24 246.01 431.17 245.98C430.92 245.87 430.81 245.57 430.92 245.32C432.22 242.46 433.39 239 433.05 238.41C432.91 238.17 432.99 237.87 433.23 237.73C433.47 237.59 433.77 237.67 433.91 237.91C434.68 239.23 432.51 244.23 431.83 245.73C431.75 245.91 431.56 246.02 431.37 246.02H431.38Z" fill="#0C41E2"/>
<path d="M66.4008 259.56C62.9508 260.98 61.6408 266.86 66.4008 271.72C71.1608 276.58 77.0408 279.93 78.6608 278.11C80.2808 276.29 77.7508 271.62 77.7508 271.62L66.4008 259.56Z" fill="#EDF1FE"/>
<path d="M77.3304 279.12C74.7404 279.12 70.1204 276.24 66.0504 272.08C63.4904 269.46 62.3604 266.28 62.9604 263.36C63.3704 261.37 64.5804 259.78 66.2104 259.11C66.4004 259.03 66.6204 259.08 66.7604 259.23L78.1104 271.29C78.1104 271.29 78.1604 271.36 78.1904 271.39C78.4704 271.9 80.8404 276.42 79.0404 278.45C78.6604 278.88 78.1104 279.11 77.4104 279.12C77.3804 279.12 77.3604 279.12 77.3304 279.12ZM66.2904 260.17C65.1204 260.78 64.2604 262.02 63.9404 263.55C63.4104 266.15 64.4404 269 66.7604 271.37C70.5404 275.23 75.0604 278.11 77.3204 278.11C77.3404 278.11 77.3604 278.11 77.3804 278.11C77.8004 278.11 78.0904 277.99 78.2904 277.77C79.4104 276.51 78.0104 273.17 77.3404 271.91L66.2804 260.16L66.2904 260.17Z" fill="#0C41E2"/>
<path d="M70.9205 253.24C67.3105 252.26 63.1005 255.67 64.9005 260.79C66.7005 265.91 76.3305 276.13 79.4405 275.13C82.5505 274.13 81.9505 269.54 81.9505 269.54L70.9205 253.25V253.24Z" fill="#EDF1FE"/>
<path d="M79.0103 275.69C75.0603 275.69 66.1403 265.79 64.4303 260.96C63.5503 258.48 63.9403 256.09 65.5003 254.41C66.9203 252.88 69.0903 252.24 71.0503 252.76C71.1703 252.79 71.2703 252.86 71.3303 252.96L82.3603 269.25C82.4003 269.31 82.4303 269.39 82.4403 269.46C82.4703 269.67 83.0603 274.48 79.5903 275.59C79.4103 275.65 79.2103 275.68 79.0103 275.68V275.69ZM69.6703 253.58C68.4103 253.58 67.1403 254.12 66.2403 255.09C64.9403 256.49 64.6303 258.51 65.3803 260.63C67.2503 265.91 76.7503 275.47 79.2903 274.66C81.7103 273.88 81.5303 270.39 81.4703 269.72L70.6203 253.69C70.3103 253.62 69.9903 253.59 69.6703 253.59V253.58Z" fill="#0C41E2"/>
<path d="M76.1306 247.86C72.0206 246.86 67.7106 249.66 69.3106 255.48C70.9106 261.3 78.5306 272.12 82.7506 272.12C86.9706 272.12 85.0406 265.7 85.0406 265.7L76.1306 247.85V247.86Z" fill="#EDF1FE"/>
<path d="M82.7505 272.62C78.2705 272.62 70.4705 261.56 68.8305 255.61C68.0805 252.89 68.5105 250.51 70.0505 248.92C71.5305 247.39 73.9105 246.8 76.2405 247.37C76.3805 247.4 76.5005 247.5 76.5705 247.63L85.4805 265.48C85.5605 265.72 86.6805 269.54 85.2205 271.49C84.6605 272.24 83.8305 272.62 82.7405 272.62H82.7505ZM74.5005 248.16C73.0505 248.16 71.7005 248.67 70.7805 249.62C69.5005 250.94 69.1505 252.98 69.8005 255.34C71.4705 261.38 79.1005 271.62 82.7505 271.62C83.5205 271.62 84.0705 271.38 84.4305 270.9C85.3905 269.61 84.8505 266.82 84.5705 265.85L75.8005 248.3C75.3705 248.21 74.9305 248.17 74.5005 248.17V248.16Z" fill="#0C41E2"/>
<path d="M100.291 257.38C100.291 257.38 89.8706 245.61 81.7706 244.46C73.6706 243.3 72.7007 249.28 75.9807 257.38C79.2607 265.48 86.4007 271.46 89.2907 268.95C92.1807 266.44 87.2506 256.92 87.2506 256.92L100.281 257.38H100.291Z" fill="#EDF1FE"/>
<path d="M87.6501 270.04C87.3201 270.04 86.9701 270 86.6101 269.91C82.8301 269 77.9601 263.58 75.5301 257.58C73.3501 252.19 73.1401 248.13 74.9401 245.83C76.2701 244.13 78.5901 243.51 81.8501 243.97C90.0401 245.14 100.24 256.57 100.67 257.06C100.8 257.21 100.83 257.42 100.75 257.6C100.67 257.78 100.48 257.91 100.28 257.89L88.0901 257.46C89.2701 259.92 92.3301 267 89.6301 269.34C89.0901 269.8 88.4201 270.04 87.6501 270.04ZM79.8901 244.82C77.9701 244.82 76.5701 245.36 75.7301 246.44C74.1901 248.41 74.4501 252.23 76.4601 257.2C79.0501 263.6 83.7801 268.2 86.8501 268.93C87.7501 269.15 88.4601 269.03 88.9801 268.58C91.1101 266.74 88.1501 259.71 86.8301 257.16C86.7501 257 86.7601 256.81 86.8501 256.66C86.9401 256.51 87.1101 256.43 87.2901 256.43L99.1201 256.85C96.5301 254.12 88.2601 245.9 81.7101 244.96C81.0601 244.87 80.4501 244.82 79.8901 244.82Z" fill="#0C41E2"/>
<path d="M87.2607 257.43C87.0707 257.43 86.8907 257.32 86.8007 257.14C86.1207 255.64 83.9507 250.64 84.7207 249.32C84.8607 249.08 85.1707 249 85.4007 249.14C85.6407 249.28 85.7207 249.59 85.5807 249.82C85.2407 250.41 86.4107 253.86 87.7107 256.73C87.8207 256.98 87.7107 257.28 87.4607 257.39C87.3907 257.42 87.3207 257.43 87.2507 257.43H87.2607Z" fill="#0C41E2"/>
</svg>
