<svg width="500" height="500" viewBox="0 0 500 500" fill="none" xmlns="http://www.w3.org/2000/svg">
<path fill-rule="evenodd" clip-rule="evenodd" d="M247.013 3.17956C295.87 -5.17142 347.072 2.60034 389.586 30.3833C434.66 59.8398 470.018 105.969 487.521 160.353C505.32 215.661 503.218 276.289 486.675 332.067C470.149 387.79 440.502 439.985 395.361 471.089C351.85 501.069 298.033 503.439 247.013 497.202C200.368 491.501 160.644 464.856 120.818 437.529C77.6482 407.908 23.9711 384.965 6.68933 332.304C-10.7169 279.263 8.61406 219.435 32.9627 169.815C54.5213 125.881 96.3132 103.014 133.352 74.1802C169.81 45.7978 202.885 10.7221 247.013 3.17956Z" fill="#EDF1FE"/>
<path d="M297.7 127.6H437.7C443.1 127.6 447.4 132 447.4 137.3V267.4C447.4 272.8 443 277.1 437.7 277.1H297.7C292.3 277.1 288 272.7 288 267.4V137.3C288 131.9 292.3 127.6 297.7 127.6Z" fill="#EDF1FE"/>
<path d="M437.7 277.7H297.7C292.1 277.7 287.5 273.1 287.5 267.5V137.3C287.5 131.7 292.1 127.1 297.7 127.1H437.7C443.3 127.1 447.9 131.7 447.9 137.3V267.5C447.9 273.1 443.3 277.7 437.7 277.7ZM297.7 128.1C292.6 128.1 288.5 132.2 288.5 137.3V267.5C288.5 272.6 292.6 276.7 297.7 276.7H437.7C442.8 276.7 446.9 272.6 446.9 267.5V137.3C446.9 132.2 442.8 128.1 437.7 128.1H297.7Z" fill="#282828"/>
<path d="M335.6 186.7H312V266.2H335.6V186.7Z" fill="#6A90FF"/>
<path d="M335.6 266.7H312C311.7 266.7 311.5 266.5 311.5 266.2V186.7C311.5 186.4 311.7 186.2 312 186.2H335.6C335.9 186.2 336.1 186.4 336.1 186.7V266.2C336.1 266.5 335.9 266.7 335.6 266.7ZM312.5 265.7H335.1V187.2H312.5V265.7Z" fill="#282828"/>
<path d="M379.5 159.1H355.9V266.2H379.5V159.1Z" fill="#282828"/>
<path d="M379.5 266.7H355.9C355.6 266.7 355.4 266.5 355.4 266.2V159.1C355.4 158.8 355.6 158.6 355.9 158.6H379.5C379.8 158.6 380 158.8 380 159.1V266.2C380 266.5 379.7 266.7 379.5 266.7ZM356.4 265.7H379V159.6H356.4V265.7Z" fill="#282828"/>
<path d="M423.4 138.5H399.8V266.2H423.4V138.5Z" fill="#6A90FF"/>
<path d="M423.4 266.7H399.8C399.5 266.7 399.3 266.5 399.3 266.2V138.5C399.3 138.2 399.5 138 399.8 138H423.4C423.7 138 423.9 138.2 423.9 138.5V266.2C423.9 266.5 423.6 266.7 423.4 266.7ZM400.3 265.7H422.9V139H400.3V265.7Z" fill="#282828"/>
<path d="M166.4 216.3C120.3 218.9 101.5 235.8 83.6002 267.8C65.7002 299.8 40.7002 337.3 65.6002 350.8C90.5002 364.3 108.9 347.1 108.9 347.1L107.9 385.1C107.8 390.4 111.9 394.8 117.2 394.9C117.3 394.9 117.4 394.9 117.5 394.9H235.4C240.7 394.9 245 390.6 245 385.3V353.6C245 353.6 269.5 357.7 278.5 326.6C287.5 295.5 257.9 254 227.5 231.1C206.1 215.2 170.4 216.3 166.4 216.3Z" fill="#6A90FF"/>
<path d="M220.101 253.9L231.201 242L222.601 234.6L212.601 245.1L214.001 250.8L220.101 253.9Z" fill="#6A90FF"/>
<path d="M220.1 254.4C220 254.4 219.9 254.4 219.9 254.3L213.9 251.1C213.8 251 213.7 250.9 213.7 250.8L212.3 245.2C212.3 245 212.3 244.9 212.4 244.7L222.4 234.2C222.6 234 222.9 234 223.1 234.2L231.7 241.6C231.9 241.8 231.9 242.1 231.7 242.3L220.6 254.3C220.3 254.4 220.2 254.5 220.1 254.4ZM214.5 250.4L220 253.3L230.5 241.9L222.7 235.2L213.3 245.2L214.5 250.4Z" fill="#282828"/>
<path d="M202.701 249.2C202.701 249.2 208.801 242.2 212.601 245.1C216.401 248 220.001 253.9 220.001 253.9L222.501 260L194.701 288L141.201 338.5C136.301 343.1 128.701 343 124.001 338.2C119.201 333.4 119.301 325.6 124.101 320.8C124.201 320.7 124.301 320.6 124.401 320.5L182.601 266.9L202.701 249.2Z" fill="#EDF1FE"/>
<path d="M132.8 342.4C125.7 342.4 120 336.7 120 329.6C120 326 121.5 322.6 124.1 320.1L182.3 266.5L202.4 248.9C202.9 248.3 208.9 241.7 213 244.7C216.9 247.6 220.4 253.4 220.6 253.7L223.2 259.8C223.3 260 223.2 260.2 223.1 260.3L195.3 288.2L141.8 338.8C139.3 341.1 136.1 342.4 132.8 342.4ZM210.5 244.9C207.2 244.9 203.2 249.5 203.1 249.5H203L183 267.3L124.8 320.9C120 325.3 119.7 332.8 124.1 337.6C124.2 337.7 124.3 337.8 124.4 337.9C128.9 342.4 136.3 342.6 140.9 338.2L194.4 287.7L221.9 260L219.5 254.2C219.5 254.2 215.9 248.4 212.2 245.6C211.8 245.1 211.1 244.9 210.5 244.9Z" fill="#282828"/>
<path d="M126.4 290.1C151.5 286.4 162.8 273.2 170.5 269.9C178.2 266.6 181.4 268.1 181.4 268.1L169.7 279C169.7 279 179.7 279.4 182.3 285.5C184.9 291.6 186.2 307 176.9 303.6C176.9 303.6 178.5 309.2 172 308.5C172 308.5 171.2 316 166.3 314.8C166.3 314.8 164.9 320.7 161 320C161 320 159.8 312.8 155.3 308.1C152.3 305.2 148.4 303.6 144.3 303.5L130.3 315.1C126.2 313.4 123.4 309.7 122.6 305.4C121.4 298.1 126.4 290.1 126.4 290.1Z" fill="#EDF1FE"/>
<path d="M161.7 320.7C161.5 320.7 161.2 320.7 161 320.6C160.8 320.6 160.6 320.4 160.6 320.2C160.6 320.1 159.4 313.1 155 308.6C152.2 305.9 148.5 304.3 144.6 304.1L130.7 315.6C130.6 315.7 130.4 315.7 130.2 315.7C126 313.9 122.9 310.1 122.2 305.6C121 298.1 125.8 290.2 126 289.9C126.1 289.8 126.2 289.7 126.3 289.7C144.4 287 155.4 279.3 162.8 274.2C165.1 272.4 167.7 270.9 170.3 269.6C178 266.3 181.4 267.8 181.6 267.8C181.7 267.9 181.9 268 181.9 268.2C181.9 268.4 181.9 268.5 181.8 268.6L171 278.7C173.8 279 180.7 280.3 183 285.5C184.8 289.7 186.4 299.6 182.9 303.4C181.6 304.7 179.6 305.2 177.8 304.6C178 305.8 177.7 307 176.9 308C176 309 174.6 309.5 172.7 309.4C172.5 310.6 171.8 313.7 169.8 315.1C169 315.7 167.9 315.9 166.9 315.7C166.4 316.9 164.9 320.7 161.7 320.7ZM161.5 319.7C164.7 319.9 165.9 314.9 165.9 314.8C165.9 314.7 166 314.6 166.1 314.5C166.2 314.4 166.4 314.4 166.5 314.4C167.4 314.7 168.3 314.5 169.1 314C171.2 312.5 171.7 308.6 171.7 308.5C171.7 308.2 172 308 172.2 308.1C174 308.3 175.3 308 176 307.1C177.1 305.9 176.5 303.8 176.5 303.7C176.5 303.5 176.5 303.3 176.6 303.2C176.7 303.1 176.9 303 177.1 303.1C179.2 303.8 180.8 303.6 181.9 302.4C184.8 299.2 183.8 290.2 181.8 285.6C179.3 279.8 169.7 279.4 169.6 279.4C169.4 279.4 169.2 279.3 169.2 279.1C169.1 278.9 169.2 278.7 169.3 278.6L180.2 268.3C178.9 268.1 175.8 268 170.5 270.3C167.9 271.6 165.5 273.1 163.2 274.8C155.8 279.9 144.7 287.7 126.5 290.4C125.8 291.7 121.9 298.8 123 305.2C123.7 309.3 126.3 312.7 130.1 314.4L144 303C144.1 302.9 144.2 302.9 144.3 302.9C148.5 303 152.6 304.8 155.6 307.7C159.7 312 161.2 318.1 161.5 319.7Z" fill="#282828"/>
<path d="M177 304.2C176.7 304.2 176.5 303.9 176.6 303.7C177 300.2 176.5 293.6 173.5 289.8C172.2 288.1 170.3 287 168.1 286.8C167.8 286.8 167.6 286.5 167.7 286.2C167.7 285.9 168 285.7 168.3 285.8C170.7 286 172.8 287.2 174.3 289.1C177.8 293.5 178 300.6 177.7 303.8C177.5 304 177.3 304.2 177 304.2Z" fill="#282828"/>
<path d="M172.2 309.1H172C171.7 309 171.6 308.8 171.6 308.5C172.5 305.2 171.4 295.4 163.7 293C163.4 292.9 163.3 292.6 163.4 292.4C163.5 292.1 163.8 292 164 292.1C172.4 294.7 173.6 305.2 172.6 308.8C172.6 309 172.4 309.1 172.2 309.1Z" fill="#282828"/>
<path d="M166.401 315.4C166.101 315.4 165.901 315.2 165.901 314.9C165.901 314.8 166.301 300.7 159.401 299.7C159.101 299.7 158.901 299.4 159.001 299.1C159.001 298.8 159.301 298.6 159.601 298.7C167.401 299.8 167.001 314.3 167.001 314.9C166.901 315.2 166.701 315.4 166.401 315.4Z" fill="#282828"/>
<path d="M233.3 287.5C223.7 272.6 224.4 267.1 224.9 262.2C225.4 257.3 227.8 253.1 224.7 249.2L220.1 253.9C220.1 253.9 221.5 260.7 217.8 261C214.1 261.3 209.4 250.1 202.7 249.2C199 248.5 195.2 250.3 193.3 253.6C193.3 253.6 189.4 255.2 188.9 258.3C188.9 258.3 185.1 259.3 184.3 262C184.3 262 181.3 262.6 182.6 266.9C182.6 266.9 185 265.1 188.9 272.3C192.8 279.5 193.9 291.3 198 292.6C202.1 293.9 207.8 292.6 207.8 292.6L211.8 299.3C211.8 299.1 221.5 300.1 233.3 287.5Z" fill="#EDF1FE"/>
<path d="M212.3 299.7C212.1 299.7 211.9 299.7 211.7 299.7C211.5 299.7 211.4 299.6 211.3 299.5L207.5 293.1C206.2 293.4 201.4 294.1 197.8 293C195.1 292.2 193.8 287.6 192.2 282.4C191.3 279 190 275.7 188.5 272.5C186.3 268.4 184.6 267.5 183.8 267.3C183.5 267.2 183.2 267.2 182.9 267.4C182.8 267.5 182.6 267.5 182.5 267.4C182.3 267.4 182.2 267.2 182.2 267.1C181.7 265.8 181.7 264.4 182.3 263.1C182.7 262.5 183.2 262 183.9 261.7C184.8 259.3 187.6 258.3 188.5 258C189.1 255.2 192.2 253.6 192.9 253.3C195 249.9 198.8 248.2 202.7 248.8C206.5 249.4 209.6 253 212.3 256.2C214.3 258.6 216.2 260.8 217.6 260.7C218.1 260.7 218.6 260.4 219 259.9C220.3 258.1 219.5 254.2 219.4 254.1C219.4 253.9 219.4 253.8 219.5 253.7L224.1 249C224.2 248.9 224.3 248.8 224.5 248.9C224.6 248.9 224.8 249 224.9 249.1C227.3 252.1 226.7 255.3 225.9 258.6C225.6 259.9 225.4 261.1 225.2 262.4V262.5C224.7 267.3 224.2 272.7 233.6 287.3C233.7 287.5 233.7 287.7 233.5 287.9C223.3 298.9 214.6 299.7 212.3 299.7ZM212.1 298.7C213.6 298.7 222.4 298.3 232.7 287.4C223.3 272.7 223.9 267.2 224.4 262.3V262.2C224.6 260.9 224.8 259.6 225.1 258.3C225.8 255.2 226.3 252.6 224.6 250.1L220.6 254.2C220.8 255.2 221.3 258.7 219.9 260.5C219.4 261.2 218.6 261.6 217.8 261.6C215.9 261.8 213.9 259.5 211.6 256.8C209 253.7 206 250.3 202.6 249.8C199.1 249.2 195.5 250.8 193.7 253.9C193.6 254 193.6 254.1 193.5 254.1C193.5 254.1 189.9 255.7 189.4 258.4C189.4 258.6 189.2 258.8 189 258.8C189 258.8 185.5 259.7 184.7 262.2C184.6 262.4 184.5 262.5 184.3 262.5C183.8 262.7 183.3 263 183 263.5C182.6 264.4 182.5 265.3 182.8 266.2C183.1 266.1 183.5 266.1 183.8 266.2C185.5 266.6 187.3 268.5 189.2 271.9C190.8 275.1 192.1 278.5 193 282C194.5 286.8 195.8 291.3 198 292C201.9 293.2 207.5 292 207.5 292C207.7 292 207.9 292.1 208 292.2L212.1 298.7Z" fill="#282828"/>
<path d="M195.8 276.5C195.6 276.5 195.4 276.4 195.3 276.1C192 265.7 187.5 262.2 184.4 262.5C184.1 262.5 183.9 262.3 183.9 262C183.9 261.7 184.1 261.5 184.4 261.5C189 261.1 193.4 266.4 196.4 275.8C196.5 276.1 196.3 276.3 196.1 276.4C195.9 276.5 195.8 276.5 195.8 276.5Z" fill="#282828"/>
<path d="M200.601 270.8C200.401 270.8 200.201 270.7 200.101 270.5C197.501 262.9 188.801 258.9 188.701 258.8C188.401 258.7 188.301 258.4 188.501 258.1C188.601 257.9 188.901 257.7 189.101 257.9C189.501 258.1 198.201 262.1 201.001 270.2C201.101 270.5 200.901 270.8 200.701 270.8C200.701 270.8 200.701 270.8 200.601 270.8Z" fill="#282828"/>
<path d="M206.1 264.6C205.9 264.6 205.7 264.5 205.7 264.3C201.6 256.3 193.3 254.1 193.2 254C192.9 253.9 192.8 253.7 192.8 253.4C192.8 253.1 193.1 253 193.4 253C199 254.7 203.7 258.6 206.5 263.8C206.6 264 206.5 264.3 206.3 264.5C206.3 264.6 206.2 264.6 206.1 264.6Z" fill="#282828"/>
<path d="M266.2 139.2C233.8 139.2 207.5 165.5 207.5 197.9C207.5 230.3 233.8 256.6 266.2 256.6C298.6 256.6 324.9 230.3 324.9 197.9C324.9 165.5 298.7 139.3 266.2 139.2C266.3 139.2 266.3 139.2 266.2 139.2ZM266.2 243.7C240.9 243.7 220.4 223.2 220.4 197.9C220.4 172.6 240.9 152.1 266.2 152.1C291.5 152.1 312 172.6 312 197.9C312 223.2 291.5 243.7 266.2 243.7C266.3 243.7 266.3 243.7 266.2 243.7Z" fill="#EDF1FE"/>
<path d="M266.2 257.1C233.5 257.1 207 230.6 207 197.9C207 165.2 233.5 138.7 266.2 138.7C298.9 138.7 325.4 165.2 325.4 197.9C325.4 230.6 298.9 257.1 266.2 257.1ZM266.2 139.8C234.1 139.8 208 165.9 208 198C208 230.1 234.1 256.2 266.2 256.2C298.3 256.2 324.4 230.1 324.4 198C324.4 165.8 298.4 139.8 266.2 139.8ZM266.2 244.2C240.7 244.2 220 223.5 220 197.9C220 172.3 240.7 151.7 266.3 151.7C291.8 151.7 312.5 172.4 312.5 197.9C312.5 223.5 291.8 244.2 266.2 244.2ZM266.2 152.7C241.2 152.7 221 173 221 198C221 223 241.3 243.2 266.3 243.2C291.3 243.2 311.5 222.9 311.5 198C311.5 173 291.2 152.7 266.2 152.7Z" fill="#282828"/>
<path d="M86.6006 306.1C86.3006 306.1 86.1006 305.9 86.1006 305.6C86.1006 305.4 86.2006 305.3 86.3006 305.2C86.5006 305.1 101.701 295.8 110.201 290.2C119.401 284.1 126.901 281.2 133.801 286.4C134.001 286.6 134.101 286.9 133.901 287.1C133.701 287.3 133.401 287.4 133.201 287.2C126.801 282.3 119.601 285.2 110.801 291.1C102.301 296.8 87.0006 306 86.9006 306.1C86.8006 306 86.7006 306.1 86.6006 306.1Z" fill="#282828"/>
<path d="M116.6 287.4C116.3 287.4 116.1 287.1 116.2 286.9C116.2 286.7 118.4 263.8 116.9 249.2C116.9 248.9 117.1 248.7 117.3 248.7C117.6 248.7 117.8 248.9 117.9 249.1C119.4 263.8 117.2 286.8 117.2 287C117.2 287.2 116.9 287.4 116.6 287.4Z" fill="#282828"/>
<path d="M108.9 347.6C108.6 347.6 108.4 347.4 108.4 347.1C108.4 346.9 108.5 346.8 108.6 346.7C117 340.8 120.2 338.5 120.2 338.5C120.4 338.3 120.7 338.4 120.9 338.6C121.1 338.8 121 339.1 120.8 339.3C120.8 339.3 117.6 341.6 109.2 347.5C109.1 347.6 109 347.6 108.9 347.6Z" fill="#282828"/>
<path d="M233.3 288C233.2 288 233 287.9 232.9 287.9C232.7 287.7 232.7 287.4 232.9 287.2C235.2 285 235.5 282.5 234.7 281.2C233.9 279.9 232.4 279.7 230.3 280.5C230 280.6 229.8 280.4 229.7 280.2C229.6 279.9 229.8 279.7 230 279.6C233.6 278.4 235.1 280 235.6 280.8C236.8 282.8 236 285.8 233.6 288.1C233.6 288 233.5 288 233.3 288Z" fill="#282828"/>
<path d="M209.8 299.8C207.7 299.8 206.5 299.4 206.2 298.5C205.9 297.6 206.6 296.3 207.5 295.5C207.7 295.3 208 295.3 208.2 295.5C208.4 295.7 208.4 296 208.2 296.2L208.1 296.3C207.4 296.9 206.9 297.7 207.1 298.1C207.2 298.3 207.8 299.1 211.7 298.7C212 298.7 212.2 298.9 212.2 299.1C212.2 299.4 212 299.6 211.8 299.6C211.1 299.8 210.4 299.8 209.8 299.8Z" fill="#282828"/>
<path d="M241.7 351.6C241.6 351.6 241.6 351.6 241.5 351.6C241.4 351.6 229.4 346.2 219.2 331.6C208.7 316.5 204.1 304.2 204.2 299.2C204.2 298.9 204.4 298.7 204.7 298.7C205 298.7 205.2 298.9 205.2 299.2C205 303.9 209.6 315.9 220 330.9C230 345.4 241.7 350.5 241.8 350.6C242.1 350.7 242.2 351 242.1 351.3C242.1 351.5 241.9 351.6 241.7 351.6Z" fill="#282828"/>
<path d="M254.3 307.5C254.1 307.5 253.9 307.4 253.9 307.2C253.9 307.1 248.4 296.1 244.5 290.2C243.8 289.2 243.2 288.2 242.6 287.1C239.3 281.8 236.2 276.7 230.5 278C230.2 278.1 230 277.9 229.9 277.6C229.8 277.3 230 277.1 230.3 277C236.7 275.6 240.2 281.2 243.5 286.6C244.1 287.6 244.8 288.6 245.4 289.6C249.4 295.6 254.8 306.6 254.9 306.8C255 307 254.9 307.3 254.7 307.5C254.5 307.5 254.4 307.6 254.3 307.5Z" fill="#282828"/>
<path d="M154.601 207.1C155.301 214.7 155.301 222.4 154.601 230C154.601 230 169.901 234.1 178.801 228.2C178.801 228.2 175.801 213.4 176.701 204.6C177.601 195.8 154.601 207.1 154.601 207.1Z" fill="#EDF1FE"/>
<path d="M166.001 232C162.101 232 158.301 231.5 154.501 230.5C154.301 230.4 154.101 230.2 154.101 230C154.801 222.4 154.801 214.8 154.101 207.2C154.101 207 154.201 206.8 154.401 206.7C155.101 206.4 171.401 198.5 176.001 201.7C177.001 202.4 177.501 203.6 177.201 204.8C176.401 213.4 179.301 228.1 179.301 228.2C179.301 228.4 179.301 228.6 179.101 228.7C175.301 231.2 170.401 232 166.001 232ZM155.201 229.7C157.601 230.3 170.501 233 178.401 228.1C178.001 225.8 175.601 212.7 176.301 204.7C176.501 203.9 176.201 203 175.501 202.5C172.201 200.2 160.001 205.1 155.201 207.5C155.801 214.9 155.801 222.3 155.201 229.7Z" fill="#282828"/>
<path d="M132.801 130.8C118.301 133 111.101 145.5 113.001 154.4C113.001 154.4 106.201 163.7 107.901 170.2C109.601 176.7 100.201 187.6 116.401 196.3C132.601 205 196.001 168.3 196.001 168.3C196.001 168.3 196.401 150.9 188.901 147C188.901 147 181.501 131.5 170.001 132C158.501 132.5 154.801 115.5 132.801 130.8Z" fill="#EDF1FE"/>
<path d="M123 198.1C120.7 198.2 118.3 197.7 116.2 196.7C104.4 190.4 105.9 182.8 107 176.7C107.4 174.3 107.9 172.1 107.4 170.3C105.8 164.1 111.5 155.7 112.5 154.3C111.6 149.9 112.8 144.9 115.8 140.5C119.7 134.9 125.8 131.2 132.6 130.3C147.4 120.1 154.2 124.2 160.3 127.9C163.4 129.8 166.3 131.5 170 131.4C174.9 131.2 179.7 133.8 184.1 138.9C186.1 141.2 187.8 143.8 189.2 146.5C196.7 150.6 196.4 167.4 196.4 168.2C196.4 168.4 196.3 168.5 196.2 168.6C193.9 170 145.1 198.1 123 198.1ZM148.9 124.9C144.9 124.9 139.9 126.5 133.1 131.2C133 131.2 133 131.3 132.9 131.3C126.4 132.1 120.5 135.7 116.7 141.1C113.8 145.3 112.7 150.2 113.6 154.3C113.6 154.4 113.6 154.6 113.5 154.7C113.4 154.8 106.8 163.9 108.5 170C109 172 108.6 174.3 108.1 176.8C106.9 182.9 105.6 189.8 116.7 195.8C118.7 196.7 120.9 197.2 123 197.1C144 197.1 191.6 170.1 195.5 167.9C195.5 165.7 195.3 150.8 188.7 147.3C188.6 147.2 188.5 147.2 188.5 147.1C188.4 147 181.1 131.9 170.1 132.4C166.1 132.6 163 130.7 159.8 128.8C156.6 126.9 153.3 124.9 148.9 124.9Z" fill="#282828"/>
<path d="M187.8 167C187.8 167 188.7 158.9 196.1 160.1C203.5 161.3 207.1 184.9 192.2 182.6C192.2 182.6 196.8 204.7 172.3 216.5C147.8 228.3 131 202.9 131 202.9C131 202.9 125.2 209.7 120 206.3C114.8 202.9 111 188.8 125.5 190.9L127.9 194.2C129 189.5 128.9 184.6 127.7 180C127.7 180 130.2 176.4 130.7 167.3C130.7 167.3 138.4 165.7 144.1 150.2C144.1 150.2 156.7 161 179.9 156.8C179.9 156.7 187.1 169.6 187.8 167Z" fill="#EDF1FE"/>
<path d="M159.501 220.1C143.801 220.1 133.101 206.5 131.001 203.7C129.501 205.2 124.401 209.8 119.801 206.7C116.501 204.6 113.801 198.6 115.401 194.3C116.301 192 118.801 189.4 125.701 190.3C125.801 190.3 125.901 190.4 126.001 190.5L127.801 192.9C128.601 188.6 128.401 184.2 127.301 180C127.301 179.9 127.301 179.7 127.401 179.6C127.401 179.6 129.801 175.9 130.301 167.1C130.301 166.9 130.501 166.7 130.701 166.6C130.801 166.6 138.201 164.8 143.701 149.9C143.801 149.7 143.901 149.6 144.101 149.6C144.301 149.6 144.401 149.6 144.501 149.7C144.601 149.8 157.201 160.3 179.901 156.2C180.101 156.2 180.301 156.3 180.401 156.4C183.001 161.1 186.401 166.2 187.501 166.7C187.601 166 188.201 162.6 190.801 160.7C192.401 159.5 194.401 159.1 196.401 159.5C201.101 160.3 204.001 168.9 203.001 175.1C202.101 180.8 198.501 183.7 193.001 183.1C193.501 187 194.901 206.3 172.801 216.9C168.501 219 164.001 220 159.501 220.1ZM131.101 202.4C131.301 202.4 131.401 202.5 131.501 202.6C131.701 202.8 148.301 227.5 172.101 216.1C184.601 210.1 189.201 201.4 190.901 195.1C192.001 191.1 192.301 186.9 191.701 182.7C191.701 182.5 191.701 182.4 191.801 182.3C191.901 182.2 192.101 182.1 192.201 182.2C199.301 183.3 201.201 178.2 201.701 175.1C202.701 168.8 199.701 161.3 195.901 160.6C194.201 160.2 192.501 160.6 191.101 161.6C188.701 163.5 188.201 167 188.201 167.1C188.201 167.2 188.201 167.2 188.201 167.2C188.101 167.6 187.801 167.9 187.401 167.9C185.701 168.1 181.801 161.5 179.401 157.3C167.501 159.4 158.401 157.5 152.901 155.5C149.801 154.4 146.801 152.9 144.101 151C139.001 164.2 132.601 167.1 131.001 167.6C130.501 175.4 128.601 179.2 128.101 180C129.301 184.7 129.401 189.6 128.301 194.3C128.201 194.5 128.101 194.6 127.901 194.7C127.701 194.7 127.501 194.7 127.401 194.5L125.101 191.4C120.301 190.8 117.201 191.9 116.101 194.8C114.701 198.5 117.201 204 120.101 206C124.901 209.1 130.401 202.8 130.501 202.7C130.701 202.4 130.901 202.3 131.101 202.4Z" fill="#282828"/>
<path d="M175 160.6C172.6 161.3 170.2 162 168 162.9C166.9 163.3 165.8 163.8 164.7 164.3C163.6 164.8 162.6 165.4 161.3 166C161 166.1 160.7 166 160.6 165.7C160.5 165.5 160.5 165.4 160.6 165.2C161.3 164 162.2 162.9 163.3 162.1C163.8 161.7 164.4 161.3 165 161C165.6 160.7 166.2 160.4 166.9 160.2C168.2 159.7 169.5 159.4 170.9 159.3C172.3 159.2 173.7 159.3 175 159.6C175.3 159.7 175.4 160 175.4 160.2C175.4 160.4 175.2 160.5 175 160.6Z" fill="#282828"/>
<path d="M135.7 174.6C136.4 173.4 137.4 172.4 138.5 171.6C140.1 170.4 142 169.4 144 168.9C144.7 168.7 145.4 168.6 146.1 168.6C147.5 168.5 148.9 168.6 150.2 169C150.5 169.1 150.6 169.4 150.5 169.6C150.5 169.8 150.3 169.9 150.2 169.9C148.9 170.3 147.8 170.6 146.6 170.9C145.4 171.2 144.3 171.7 143.2 172.1C141 173 138.8 174.1 136.5 175.2C136.2 175.3 135.9 175.2 135.8 175C135.7 174.9 135.7 174.8 135.7 174.6Z" fill="#282828"/>
<path d="M169.9 190C167.8 190.1 165.9 189 164.9 187.1C164.8 186.9 164.9 186.6 165.1 186.4C165.3 186.3 165.6 186.4 165.8 186.6C166.9 188.9 169.8 189.4 171.9 188.6C173.6 188 174.4 186.2 173.8 184.5C173.8 184.4 173.8 184.4 173.7 184.3C173.5 183.4 172.9 182.7 172.1 182.4C169.9 181.5 166.5 183.2 166.4 183.2C166.2 183.3 165.9 183.2 165.7 183C165.7 183 164.3 180.7 162.7 177.1C162.6 176.8 162.7 176.5 162.9 176.4C163.2 176.3 163.4 176.4 163.6 176.6C164.8 179.3 165.9 181.3 166.4 182.1C167.5 181.6 170.3 180.6 172.5 181.5C173.6 182 174.4 182.9 174.7 184C175.6 186.1 174.5 188.6 172.4 189.4C172.3 189.4 172.3 189.4 172.2 189.5C171.5 189.9 170.7 190 169.9 190Z" fill="#282828"/>
<path d="M162 174.6C161.8 174.6 161.6 174.5 161.5 174.3C160.9 172.8 160.3 171.3 159.8 169.8C159.7 169.6 159.8 169.3 160 169.1C160.2 169 160.5 169.1 160.7 169.3V169.4C161.2 170.9 161.8 172.4 162.4 173.9C162.5 174.2 162.4 174.4 162.1 174.6C162.1 174.6 162.1 174.6 162 174.6Z" fill="#282828"/>
<path d="M172.901 172.7C173.301 175.1 174.901 176.8 176.501 176.5C178.101 176.2 179.101 174.1 178.801 171.8C178.701 171.1 178.501 170.5 178.101 169.9L175.501 171.9L176.301 168.2C175.901 168 175.501 168 175.101 168.1C173.501 168.3 172.501 170.4 172.901 172.7Z" fill="#282828"/>
<path d="M147.2 181.6C147.6 184 149.2 185.6 150.8 185.4C152.4 185.2 153.4 183 153.1 180.7C153 180 152.8 179.4 152.4 178.8L149.8 180.8L150.6 177.1C150.2 176.9 149.8 176.9 149.4 176.9C147.9 177.1 146.8 179.3 147.2 181.6Z" fill="#282828"/>
<path d="M155.6 176.8C155.4 176.8 155.2 176.7 155.1 176.5C155 176.2 155.2 176 155.4 175.9L166.9 172C167.2 171.9 167.4 172.1 167.5 172.3C167.6 172.6 167.5 172.8 167.2 172.9L155.7 176.8C155.8 176.8 155.7 176.8 155.6 176.8Z" fill="#282828"/>
<path d="M144.601 194.6C140.201 194.6 138.001 188.5 137.001 185.5L136.801 185C135.701 182 134.801 179.3 139.401 177.1C142.501 175.6 148.501 173.5 151.801 172.3C153.001 171.9 154.301 172.5 154.801 173.6C155.801 176 157.601 180.5 157.901 183.7C158.401 188.6 151.201 192.7 146.301 194.3C145.701 194.5 145.201 194.6 144.601 194.6ZM152.101 173.3C148.801 174.4 142.901 176.5 139.801 178C136.001 179.8 136.701 181.6 137.801 184.6L138.001 185.1C139.101 188.2 141.401 194.8 146.101 193.3C151.701 191.6 157.401 187.7 157.001 183.8C156.701 180.8 155.001 176.4 154.001 174C153.601 173.4 152.801 173.1 152.101 173.3Z" fill="#282828"/>
<path d="M174.1 184.7C173.9 184.7 173.7 184.6 173.6 184.4C173.5 184.1 173.6 183.9 173.9 183.8C177.8 182.3 183.3 179.5 183.5 178.1C183.6 177 182.1 172.7 179.4 166.6C178.9 165.6 177.7 165.1 176.7 165.5L165.7 169.8C165.3 169.9 165.1 170.2 164.9 170.6C164.8 170.9 164.8 171.3 164.9 171.7L169.1 181.7C169.2 181.9 169.1 182.2 168.9 182.4C168.7 182.5 168.4 182.4 168.2 182.2V182.1L164 172.1C163.7 171.5 163.7 170.8 164 170.2C164.2 169.6 164.7 169.1 165.3 168.9L176.3 164.6C177.9 164 179.6 164.7 180.3 166.2C182.3 170.7 184.7 176.5 184.5 178.2C184.2 180.7 175.9 184.1 174.3 184.7C174.3 184.7 174.2 184.7 174.1 184.7Z" fill="#282828"/>
<path d="M163.8 198.6C159.3 198.6 157 196.9 156.9 196.8C156.7 196.6 156.6 196.3 156.8 196.1C157 195.9 157.3 195.8 157.5 196C157.5 196 161.2 198.8 168.8 196.9C169.1 196.8 169.3 197 169.4 197.3C169.5 197.6 169.3 197.8 169 197.9C167.3 198.3 165.6 198.6 163.8 198.6Z" fill="#282828"/>
<path d="M125 194.9C120.7 193.3 118.1 195.8 118.5 199.5L125 194.9Z" fill="#EDF1FE"/>
<path d="M118.501 200C118.201 200 118.001 199.8 118.001 199.6C117.701 197.8 118.401 196 119.701 194.8C121.101 193.8 123.001 193.6 125.101 194.5C125.401 194.6 125.501 194.9 125.401 195.1C125.301 195.4 125.001 195.5 124.801 195.4C123.001 194.7 121.401 194.8 120.301 195.6C119.201 196.6 118.701 198 119.001 199.5C119.101 199.7 118.901 200 118.501 200C118.601 200 118.601 200 118.501 200Z" fill="#282828"/>
<path d="M124.201 202.4C120.401 201.8 119.601 195.7 119.601 195.7L124.201 202.4Z" fill="#EDF1FE"/>
<path d="M124.201 202.9C120.001 202.3 119.101 196.1 119.101 195.8C119.101 195.5 119.301 195.3 119.501 195.2C119.801 195.2 120.001 195.4 120.101 195.6C120.101 195.7 120.901 201.3 124.301 201.8C124.601 201.8 124.801 202.1 124.801 202.3C124.701 202.7 124.501 202.9 124.201 202.9Z" fill="#282828"/>
<path d="M191 169.5C191.4 164.3 196.5 163.3 198.8 165.2L191 169.5Z" fill="#EDF1FE"/>
<path d="M191 170C190.7 170 190.5 169.7 190.5 169.5C190.5 167.2 191.9 165.2 193.9 164.3C195.6 163.5 197.6 163.8 199 164.9C199.2 165.1 199.2 165.4 199.1 165.6C198.9 165.8 198.6 165.8 198.4 165.7C197.2 164.8 195.6 164.7 194.3 165.3C192.6 166.1 191.5 167.8 191.4 169.7C191.5 169.8 191.3 170 191 170Z" fill="#282828"/>
<path d="M196.6 177.3C199.9 175.2 198.5 167.5 195.2 164.4L196.6 177.3Z" fill="#EDF1FE"/>
<path d="M196.6 177.8C196.4 177.8 196.3 177.7 196.2 177.6C196.1 177.4 196.1 177.1 196.3 176.9C197.3 176.1 197.9 174.9 197.9 173.6C198.1 170.4 197 167.2 194.8 164.8C194.6 164.6 194.5 164.3 194.7 164.1C194.9 163.9 195.2 163.8 195.4 164L195.5 164.1C197.9 166.7 199.2 170.2 198.9 173.7C198.9 175.3 198.1 176.8 196.8 177.8C196.8 177.8 196.7 177.8 196.6 177.8Z" fill="#282828"/>
<path d="M273.8 176.4L290.2 172.4L284.5 187.6L273.8 176.4Z" fill="#6A90FF"/>
<path d="M284.501 188.1C284.401 188.1 284.201 188 284.101 187.9L273.301 176.6C273.201 176.5 273.101 176.3 273.201 176.1C273.201 175.9 273.401 175.8 273.601 175.7L290.001 171.7C290.201 171.7 290.401 171.7 290.501 171.8C290.601 171.9 290.701 172.1 290.601 172.3L284.901 187.6C284.901 188 284.801 188.1 284.501 188.1ZM274.701 176.7L284.301 186.8L289.301 173.2L274.701 176.7Z" fill="#6A90FF"/>
<path d="M233.301 213.4C233.201 213.4 233.101 213.4 233.001 213.3C232.801 213.1 232.801 212.8 233.001 212.6L248.201 195.6C249.701 193.9 252.301 193.8 253.901 195.3C254.201 195.6 254.401 195.9 254.601 196.2L256.401 199.1C257.301 200.5 259.201 201 260.601 200.1C260.801 200 261.101 199.8 261.201 199.6L278.201 181.1C278.401 180.9 278.701 180.9 278.901 181C279.101 181.1 279.101 181.5 279.001 181.7C279.001 181.7 279.001 181.7 279.001 181.8L262.001 200.3C260.501 202 257.901 202.1 256.201 200.5C255.901 200.3 255.701 200 255.501 199.7L253.701 196.8C253.201 196 252.301 195.4 251.401 195.4C250.401 195.3 249.501 195.7 248.801 196.4L233.601 213.4C233.601 213.3 233.501 213.4 233.301 213.4Z" fill="#6A90FF"/>
</svg>
