<svg width="500" height="506" viewBox="0 0 500 506" fill="none" xmlns="http://www.w3.org/2000/svg">
<path fill-rule="evenodd" clip-rule="evenodd" d="M208.293 6.90157C149.132 19.3283 112.849 71.9041 73.9085 118.143C39.8279 158.612 6.37974 199.852 1.43762 252.528C-4.00826 310.573 5.00112 373.372 46.0813 414.74C87.2568 456.203 150.801 450.373 208.293 460.831C288.68 475.454 376.42 534.737 442.64 486.875C510.171 438.066 501.878 335.677 496.496 252.528C491.532 175.86 472.617 96.5118 414.144 46.6771C358.85 -0.448183 279.393 -8.03287 208.293 6.90157Z" fill="#EDF1FE"/>
<path d="M291.73 342.35V345.89C291.73 346.76 292.3 347.53 293.14 347.78L333.57 359.66C333.62 359.67 333.66 359.69 333.71 359.7C334.16 359.82 334.62 359.88 335.09 359.89C340.54 359.94 371.76 354.85 375.97 352.28C380.57 349.47 374.44 326.73 361.52 298.37L357.08 298.1L311.34 295.37L323.67 330.79C324.17 332.24 323.13 333.76 321.6 333.83L293.61 340.38C293.35 340.39 293.11 340.45 292.88 340.56H292.87C292.2 340.88 291.73 341.56 291.73 342.35Z" fill="white"/>
<path d="M335.17 360.39H335.09C334.56 360.38 334.06 360.31 333.59 360.18C333.58 360.18 333.5 360.15 333.49 360.15L293.01 348.26C291.95 347.95 291.24 346.99 291.24 345.89V342.35C291.24 341.4 291.8 340.52 292.66 340.11C292.68 340.1 292.7 340.09 292.73 340.08C293.01 339.96 293.29 339.89 293.6 339.88L321.5 333.34C322.16 333.3 322.68 333.01 323 332.54C323.32 332.07 323.4 331.49 323.21 330.95L310.88 295.53C310.82 295.37 310.85 295.2 310.95 295.06C311.05 294.93 311.21 294.84 311.38 294.86L361.56 297.86C361.74 297.87 361.91 297.98 361.98 298.15C372.84 321.98 381.93 349.22 376.24 352.69C371.79 355.41 340.66 360.38 335.17 360.38V360.39ZM293.04 341.03C292.55 341.29 292.23 341.8 292.23 342.35V345.89C292.23 346.55 292.65 347.11 293.28 347.3L333.71 359.18L333.68 359.69L333.82 359.21C334.24 359.32 334.65 359.38 335.1 359.39C335.13 359.39 335.16 359.39 335.19 359.39C341.25 359.39 371.78 354.24 375.71 351.85C379.35 349.63 375.49 330.3 361.19 298.85L357.05 298.6L312.06 295.92L324.14 330.63C324.43 331.47 324.31 332.37 323.81 333.11C323.31 333.85 322.51 334.29 321.62 334.33L293.72 340.87C293.44 340.89 293.26 340.93 293.09 341.01C293.07 341.01 293.05 341.03 293.03 341.03H293.04Z" fill="#282828"/>
<path d="M291.73 342.35V345.89C291.73 346.76 292.3 347.53 293.14 347.78L333.57 359.66C333.62 359.67 333.66 359.69 333.71 359.7L334.22 353.34C334.22 353.34 305.32 344.64 292.88 340.56H292.87C292.2 340.88 291.73 341.56 291.73 342.35Z" fill="#282828"/>
<path d="M333.71 360.2C333.71 360.2 333.65 360.2 333.61 360.2C333.59 360.2 333.5 360.17 333.48 360.16L293 348.27C291.94 347.96 291.23 347 291.23 345.9V342.36C291.23 341.41 291.79 340.53 292.65 340.12C292.76 340.06 292.91 340.06 293.03 340.1C305.32 344.13 334.07 352.79 334.36 352.88C334.59 352.95 334.73 353.16 334.71 353.4L334.2 359.76C334.19 359.9 334.12 360.03 334 360.12C333.91 360.19 333.81 360.22 333.7 360.22L333.71 360.2ZM292.93 341.1C292.5 341.37 292.24 341.84 292.24 342.35V345.89C292.24 346.55 292.66 347.11 293.29 347.3L333.27 359.05L333.7 353.7C330.24 352.66 304.56 344.9 292.93 341.1Z" fill="#282828"/>
<path d="M333.57 359.66C333.62 359.67 333.66 359.69 333.71 359.7C334.16 359.82 334.62 359.88 335.09 359.89C340.54 359.94 371.53 354.43 375.97 352.28C384.42 348.19 374.44 326.73 361.52 298.37L357.08 298.1C357.08 298.1 373.53 340.37 373.16 343.59C372.79 346.81 369.86 347.97 361.56 349.37C352.8 350.84 334.22 353.35 334.22 353.35L333.57 359.67V359.66Z" fill="#6A90FF"/>
<path d="M335.171 360.39H335.091C334.561 360.38 334.061 360.31 333.591 360.18C333.581 360.18 333.501 360.15 333.491 360.15C333.241 360.1 333.061 359.86 333.081 359.61L333.731 353.29C333.751 353.06 333.931 352.88 334.161 352.85C334.351 352.82 352.841 350.33 361.491 348.88C369.951 347.46 372.351 346.31 372.671 343.54C372.931 341.27 363.211 315.23 356.621 298.29C356.561 298.13 356.581 297.95 356.681 297.81C356.781 297.67 356.941 297.6 357.111 297.61L361.551 297.88C361.731 297.89 361.901 298 361.971 298.17L362.721 299.81C375.601 328.08 384.911 348.51 376.191 352.74C371.681 354.93 340.951 360.4 335.171 360.4V360.39ZM334.121 359.28C334.451 359.35 334.771 359.38 335.111 359.39H335.181C340.701 359.39 371.471 353.9 375.761 351.83C383.611 348.03 373.991 326.93 361.821 300.21L361.201 298.85L357.841 298.65C360.471 305.43 374.031 340.54 373.671 343.65C373.251 347.33 369.781 348.5 361.661 349.86C353.701 351.2 337.421 353.42 334.691 353.78L334.121 359.28Z" fill="#282828"/>
<path d="M367.971 343.59C367.971 343.59 367.891 343.59 367.851 343.58L323.611 332.58C323.341 332.51 323.181 332.24 323.251 331.97C323.321 331.7 323.591 331.54 323.861 331.61L368.101 342.61C368.371 342.68 368.531 342.95 368.461 343.22C368.401 343.45 368.201 343.6 367.981 343.6L367.971 343.59Z" fill="#282828"/>
<path d="M227.51 286.76L229.83 285.51C229.83 285.01 229.87 284.52 229.94 284.02L250.04 149.85C250.85 144.44 255.58 140.36 261.05 140.36C261.54 140.36 262.04 140.39 262.53 140.46L451.03 165.54C451.49 165.6 451.94 165.7 452.38 165.81L454.27 164.79L458.46 169.88C460.27 172.29 461.02 175.25 460.57 178.23L440.47 312.4C439.66 317.81 434.93 321.89 429.46 321.89C428.97 321.89 428.47 321.86 427.98 321.79L239.48 296.71C236.5 296.31 233.86 294.77 232.05 292.36C232.02 292.32 231.99 292.27 231.96 292.23L227.5 286.76H227.51Z" fill="#6A90FF"/>
<path d="M429.471 322.39C428.961 322.39 428.441 322.36 427.931 322.29L239.431 297.21C236.311 296.79 233.551 295.18 231.661 292.67C231.661 292.67 231.601 292.58 231.591 292.57L227.121 287.08C227.031 286.96 226.991 286.81 227.021 286.67C227.051 286.52 227.141 286.4 227.271 286.33L229.341 285.22C229.361 284.75 229.391 284.34 229.451 283.96L249.551 149.79C250.401 144.14 255.341 139.87 261.051 139.87C261.561 139.87 262.081 139.9 262.591 139.97L451.091 165.05C451.471 165.1 451.871 165.18 452.311 165.29L454.031 164.36C454.241 164.25 454.501 164.3 454.651 164.48L458.841 169.57C460.741 172.1 461.531 175.2 461.061 178.31L440.961 312.48C440.111 318.13 435.171 322.4 429.461 322.4L429.471 322.39ZM228.281 286.92L232.361 291.92C232.361 291.92 232.431 292.01 232.441 292.03C234.191 294.37 236.721 295.84 239.561 296.22L428.061 321.3C428.531 321.36 429.001 321.39 429.471 321.39C434.691 321.39 439.211 317.49 439.991 312.32L460.091 178.15C460.521 175.31 459.801 172.48 458.071 170.18L454.161 165.42L452.631 166.25C452.521 166.31 452.391 166.33 452.271 166.29C451.791 166.16 451.371 166.08 450.981 166.03L262.481 140.95C262.011 140.89 261.541 140.86 261.071 140.86C255.851 140.86 251.331 144.76 250.561 149.92L230.461 284.09C230.401 284.51 230.361 284.97 230.351 285.52C230.351 285.7 230.251 285.87 230.091 285.95L228.301 286.91L228.281 286.92Z" fill="#282828"/>
<path d="M424.92 316.29C430.39 316.29 435.12 312.21 435.93 306.8L456.03 172.63C456.48 169.65 455.72 166.69 453.92 164.28C452.11 161.87 449.47 160.33 446.49 159.93L257.99 134.85C257.5 134.78 257 134.75 256.51 134.75C251.04 134.75 246.31 138.83 245.5 144.24L225.4 278.41C224.95 281.39 225.71 284.35 227.51 286.76C229.32 289.17 231.96 290.71 234.94 291.11L423.44 316.19C423.93 316.26 424.43 316.29 424.92 316.29Z" fill="white"/>
<path d="M424.92 316.79C424.41 316.79 423.89 316.76 423.38 316.69L234.88 291.61C231.76 291.19 229 289.58 227.11 287.07C225.22 284.56 224.43 281.46 224.9 278.35L245 144.18C245.85 138.53 250.79 134.26 256.5 134.26C257.01 134.26 257.53 134.29 258.04 134.36L446.54 159.44C449.66 159.86 452.42 161.47 454.31 163.98C456.2 166.49 456.99 169.59 456.52 172.7L436.42 306.87C435.57 312.52 430.63 316.79 424.92 316.79ZM256.51 135.25C251.29 135.25 246.77 139.15 246 144.31L225.9 278.48C225.47 281.32 226.19 284.15 227.92 286.45C229.65 288.75 232.17 290.22 235.02 290.6L423.52 315.68C423.99 315.74 424.46 315.77 424.93 315.77C430.15 315.77 434.67 311.87 435.45 306.7L455.55 172.53C455.98 169.69 455.26 166.86 453.53 164.56C451.8 162.26 449.28 160.79 446.43 160.41L257.93 135.33C257.46 135.27 256.99 135.24 256.52 135.24L256.51 135.25Z" fill="#282828"/>
<path d="M257.461 138.82L445.961 163.9C449.911 164.43 452.671 168.09 452.081 172.04L431.981 306.21C431.401 310.06 427.841 312.74 423.981 312.23L235.481 287.15C231.531 286.62 228.771 282.96 229.361 279.01L249.461 144.84C250.041 140.99 253.601 138.31 257.461 138.82Z" fill="#282828"/>
<path d="M424.9 312.78C424.57 312.78 424.24 312.76 423.9 312.71L235.4 287.63C233.35 287.36 231.54 286.3 230.3 284.65C229.06 283 228.54 280.97 228.85 278.92L248.95 144.75C249.56 140.65 253.4 137.77 257.51 138.31L446.01 163.39C448.06 163.66 449.87 164.72 451.11 166.37C452.35 168.02 452.87 170.05 452.56 172.09L432.46 306.26C431.9 310.02 428.61 312.77 424.9 312.77V312.78ZM256.52 139.25C253.29 139.25 250.44 141.63 249.95 144.91L229.85 279.08C229.58 280.86 230.03 282.62 231.11 284.06C232.19 285.49 233.76 286.41 235.54 286.65L424.04 311.73C427.61 312.21 430.95 309.69 431.48 306.13L451.58 171.96C451.85 170.19 451.4 168.42 450.32 166.98C449.24 165.55 447.67 164.63 445.89 164.39L257.39 139.31C257.1 139.27 256.81 139.25 256.52 139.25Z" fill="#282828"/>
<path d="M337.05 377.62C338.41 375.26 337.11 372.24 334.53 371.35L244.77 340.55C244.77 340.55 241.44 338.31 232.04 343.08C225.15 346.57 203.43 357.74 192.29 363.47C189.61 364.85 189.75 368.72 192.53 369.9L272.29 403.88C274.09 404.65 276.14 404.55 277.86 403.62C288.06 398.09 323.61 378.84 326.37 377.69C328.95 376.62 334.68 381.73 337.06 377.62H337.05Z" fill="white"/>
<path d="M274.8 404.9C273.88 404.9 272.96 404.71 272.09 404.34L192.33 370.36C190.87 369.74 189.92 368.36 189.86 366.78C189.8 365.19 190.64 363.76 192.06 363.03C204.02 356.88 225.08 346.06 231.82 342.64C240.78 338.09 244.45 339.79 244.99 340.1L334.7 370.88C336.14 371.37 337.26 372.47 337.8 373.9C338.3 375.23 338.19 376.68 337.49 377.87C335.83 380.74 332.73 379.66 330.25 378.8C328.78 378.29 327.39 377.8 326.57 378.15C323.86 379.28 288.79 398.27 278.11 404.06C277.08 404.62 275.95 404.9 274.82 404.9H274.8ZM242.12 340.54C240.21 340.54 237.05 341.11 232.27 343.54C225.54 346.96 204.47 357.78 192.52 363.93C191.46 364.48 190.82 365.56 190.87 366.76C190.91 367.96 191.63 368.99 192.73 369.46L272.49 403.44C274.16 404.15 276.03 404.06 277.63 403.2C288.32 397.4 323.43 378.39 326.18 377.24C327.36 376.75 328.92 377.29 330.58 377.87C333.48 378.88 335.47 379.39 336.63 377.39C337.18 376.44 337.26 375.33 336.87 374.27C336.44 373.13 335.54 372.24 334.39 371.85L244.63 341.05C244.63 341.05 244.55 341.02 244.51 340.99C244.5 340.99 243.79 340.56 242.14 340.56L242.12 340.54Z" fill="#282828"/>
<path d="M264.21 392.87C264.03 392.87 263.85 392.77 263.76 392.6C263.63 392.35 263.73 392.05 263.98 391.93L311.26 367.61C311.5 367.48 311.81 367.58 311.93 367.83C312.06 368.08 311.96 368.38 311.71 368.5L264.43 392.82C264.36 392.86 264.28 392.88 264.2 392.88L264.21 392.87Z" fill="#282828"/>
<path d="M253.101 388.7C252.921 388.7 252.741 388.6 252.651 388.43C252.521 388.18 252.621 387.88 252.871 387.76L300.151 363.44C300.401 363.31 300.701 363.41 300.821 363.66C300.951 363.91 300.851 364.21 300.601 364.33L253.321 388.65C253.251 388.69 253.171 388.71 253.091 388.71L253.101 388.7Z" fill="#282828"/>
<path d="M241.99 384.54C241.81 384.54 241.63 384.44 241.54 384.27C241.41 384.02 241.51 383.72 241.76 383.6L289.04 359.28C289.29 359.15 289.59 359.25 289.71 359.5C289.84 359.75 289.74 360.05 289.49 360.17L242.21 384.49C242.14 384.53 242.06 384.55 241.98 384.55L241.99 384.54Z" fill="#282828"/>
<path d="M230.87 380.37C230.69 380.37 230.51 380.27 230.42 380.1C230.29 379.85 230.39 379.55 230.64 379.43L277.92 355.11C278.17 354.98 278.47 355.08 278.59 355.33C278.72 355.58 278.62 355.88 278.37 356L231.09 380.32C231.02 380.36 230.94 380.38 230.86 380.38L230.87 380.37Z" fill="#282828"/>
<path d="M219.76 376.2C219.58 376.2 219.4 376.1 219.31 375.93C219.18 375.68 219.28 375.38 219.53 375.26L266.81 350.94C267.06 350.81 267.36 350.91 267.48 351.16C267.61 351.41 267.51 351.71 267.26 351.83L219.98 376.15C219.91 376.19 219.83 376.21 219.75 376.21L219.76 376.2Z" fill="#282828"/>
<path d="M208.651 372.04C208.471 372.04 208.291 371.94 208.201 371.77C208.071 371.52 208.171 371.22 208.421 371.1L255.701 346.78C255.951 346.65 256.251 346.75 256.371 347C256.501 347.25 256.401 347.55 256.151 347.67L208.871 371.99C208.801 372.03 208.721 372.05 208.641 372.05L208.651 372.04Z" fill="#282828"/>
<path d="M275.321 397.04C275.261 397.04 275.201 397.03 275.141 397.01L197.361 367.84C197.171 367.77 197.051 367.6 197.041 367.4C197.031 367.2 197.131 367.02 197.311 366.93L244.591 342.61C244.721 342.55 244.861 342.54 244.991 342.59L322.771 371.76C322.961 371.83 323.081 372 323.091 372.2C323.101 372.4 323.001 372.58 322.821 372.67L275.541 396.99C275.471 397.03 275.391 397.05 275.311 397.05L275.321 397.04ZM198.771 367.3L275.291 395.99L321.371 372.28L244.851 343.58L198.771 367.29V367.3Z" fill="#282828"/>
<path d="M318.6 374.77C318.54 374.77 318.49 374.77 318.43 374.74L239.3 346.26C239.04 346.17 238.91 345.88 239 345.62C239.09 345.36 239.38 345.23 239.64 345.32L318.77 373.8C319.03 373.89 319.16 374.18 319.07 374.44C319 374.64 318.8 374.77 318.6 374.77Z" fill="#282828"/>
<path d="M311.491 378.28C311.431 378.28 311.381 378.28 311.321 378.25L232.491 349.88C232.231 349.79 232.101 349.5 232.191 349.24C232.281 348.98 232.571 348.85 232.831 348.94L311.661 377.31C311.921 377.4 312.051 377.69 311.961 377.95C311.891 378.15 311.691 378.28 311.491 378.28Z" fill="#282828"/>
<path d="M304.38 381.79C304.32 381.79 304.27 381.79 304.21 381.76L225.43 353.41C225.17 353.32 225.04 353.03 225.13 352.77C225.22 352.51 225.51 352.38 225.77 352.47L304.55 380.82C304.81 380.91 304.94 381.2 304.85 381.46C304.78 381.66 304.58 381.79 304.38 381.79Z" fill="#282828"/>
<path d="M297.271 385.29C297.211 385.29 297.161 385.29 297.101 385.26L218.611 357.01C218.351 356.92 218.221 356.63 218.311 356.37C218.401 356.11 218.691 355.98 218.951 356.07L297.441 384.32C297.701 384.41 297.831 384.7 297.741 384.96C297.671 385.16 297.471 385.29 297.271 385.29Z" fill="#282828"/>
<path d="M290.161 388.8C290.101 388.8 290.051 388.8 289.991 388.77L211.371 360.63C211.111 360.54 210.971 360.25 211.071 359.99C211.171 359.73 211.451 359.6 211.711 359.69L290.33 387.83C290.59 387.92 290.731 388.21 290.631 388.47C290.561 388.67 290.361 388.8 290.161 388.8Z" fill="#282828"/>
<path d="M283.051 392.31C282.991 392.31 282.941 392.31 282.881 392.28L204.601 364.11C204.341 364.02 204.211 363.73 204.301 363.47C204.391 363.21 204.681 363.08 204.941 363.17L283.221 391.34C283.481 391.43 283.611 391.72 283.521 391.98C283.451 392.18 283.251 392.31 283.051 392.31Z" fill="#282828"/>
<path d="M334.901 407.1C340.871 413.14 362.421 409.02 374.801 404.09C380.771 401.7 384.991 399.18 387.751 397.2C390.601 395.16 390.911 391.03 388.371 388.61C383.161 383.69 373.981 380.94 361.041 384.74C349.061 388.23 337.921 394.98 334.591 400.76C333.221 403.14 333.171 405.35 334.901 407.1Z" fill="white"/>
<path d="M346.16 410.62C341.03 410.62 336.77 409.71 334.54 407.45C332.72 405.61 332.59 403.21 334.15 400.51C337.55 394.62 348.79 387.79 360.9 384.26C372.34 380.9 382.47 382.35 388.71 388.25C390.02 389.5 390.71 391.25 390.58 393.06C390.45 394.89 389.53 396.54 388.04 397.61C385.56 399.39 381.29 402.04 374.99 404.56C366.71 407.86 355.1 410.63 346.16 410.63V410.62ZM335.25 406.75C340.98 412.55 362.16 408.58 374.61 403.63C380.82 401.15 385.02 398.54 387.45 396.8C388.7 395.91 389.47 394.52 389.58 392.99C389.68 391.48 389.12 390.02 388.02 388.98C382.05 383.34 372.27 381.97 361.18 385.23C349.3 388.69 338.3 395.33 335.02 401.02C333.69 403.32 333.77 405.26 335.25 406.76V406.75Z" fill="#282828"/>
<path d="M334.901 407.1C340.871 413.14 362.421 409.02 374.801 404.09C380.771 401.7 384.991 399.18 387.751 397.2C390.601 395.16 390.911 391.03 388.371 388.61C388.371 388.61 388.011 392.9 372.771 396.54C357.541 400.17 351.371 397.15 343.131 402.12C334.901 407.1 334.611 400.75 334.611 400.75H334.591C333.221 403.14 333.171 405.35 334.901 407.1Z" fill="#282828"/>
<path d="M346.16 410.62C341.03 410.62 336.77 409.71 334.54 407.45C332.72 405.61 332.59 403.21 334.15 400.51C334.2 400.42 334.27 400.35 334.36 400.31C334.51 400.24 334.7 400.24 334.85 400.32C335 400.4 335.1 400.55 335.11 400.72C335.11 400.74 335.22 402.52 336.54 403.22C337.86 403.92 340.05 403.39 342.86 401.69C347.62 398.82 351.78 398.55 357.06 398.21C361.07 397.95 366.05 397.63 372.64 396.05C387.11 392.59 387.85 388.59 387.86 388.55C387.89 388.37 388.02 388.2 388.19 388.14C388.37 388.08 388.56 388.11 388.7 388.24C390.01 389.49 390.69 391.24 390.57 393.05C390.44 394.88 389.52 396.53 388.03 397.6C385.55 399.38 381.28 402.03 374.98 404.55C366.7 407.85 355.09 410.62 346.15 410.62H346.16ZM335.25 406.75C340.98 412.55 362.16 408.58 374.61 403.63C380.82 401.15 385.02 398.54 387.45 396.8C388.7 395.91 389.47 394.52 389.58 392.99C389.67 391.74 389.29 390.52 388.54 389.55C387.67 391.09 384.5 394.25 372.88 397.03C366.2 398.62 361.17 398.95 357.13 399.21C351.79 399.56 347.93 399.81 343.38 402.55C340.2 404.48 337.73 405 336.06 404.1C335.19 403.63 334.7 402.88 334.44 402.2C333.76 403.98 334.03 405.51 335.25 406.75Z" fill="#282828"/>
<path d="M372.171 389.11C371.971 389.11 371.781 388.99 371.701 388.79C371.601 388.53 371.731 388.24 371.981 388.14C378.011 385.78 384.521 385.49 384.801 385.48C385.071 385.48 385.311 385.68 385.321 385.96C385.331 386.24 385.121 386.47 384.841 386.48C384.771 386.48 378.211 386.77 372.351 389.07C372.291 389.09 372.231 389.1 372.171 389.1V389.11Z" fill="#282828"/>
<path d="M242.3 360.69C249.77 355.35 256.71 354.55 260.31 354.55C263.91 354.55 270.18 354.49 272.05 355.85C273.92 357.21 274.05 360.95 262.58 360.68C262.58 360.68 265.11 361.61 269.65 364.02C274.19 366.43 278.59 368.42 278.86 369.76C279.13 371.1 277.39 372.83 273.39 371.76C269.39 370.69 267.92 370.16 267.92 370.16C267.92 370.16 274.06 375.63 274.86 378.3C275.66 380.97 272.19 379.5 268.86 377.5C265.53 375.5 263.92 374.7 263.92 374.7C263.92 374.7 269.79 380.57 266.86 383.24C263.93 385.91 262.59 379.9 259.92 378.44C257.25 376.98 252.32 380.57 248.71 377.91C245.1 375.25 242.31 360.7 242.31 360.7L242.3 360.69Z" fill="white"/>
<path d="M265.41 384.41C265.34 384.41 265.259 384.41 265.189 384.4C263.929 384.25 263.019 382.94 262.059 381.55C261.319 380.47 260.55 379.36 259.66 378.88C258.66 378.33 257.139 378.64 255.529 378.96C253.219 379.42 250.609 379.95 248.389 378.31C244.669 375.56 241.909 361.39 241.789 360.79C241.749 360.6 241.83 360.4 241.99 360.29C249.58 354.87 256.71 354.06 260.29 354.06H260.739C264.589 354.06 270.399 354.06 272.329 355.46C273.289 356.16 273.699 357.23 273.369 358.19C272.919 359.5 271.07 361.01 265.01 361.2C266.2 361.74 267.829 362.52 269.859 363.6C270.689 364.04 271.529 364.47 272.329 364.88C276.629 367.1 279.069 368.41 279.329 369.68C279.469 370.38 279.21 371.09 278.63 371.64C277.54 372.66 275.579 372.89 273.239 372.26C271.799 371.88 270.69 371.56 269.85 371.31C271.76 373.16 274.75 376.27 275.32 378.17C275.58 379.02 275.469 379.64 275.019 379.99C274.689 380.24 273.699 381.01 268.579 377.94C267.579 377.34 266.73 376.84 266.04 376.45C267.09 377.86 268.2 379.76 268.16 381.43C268.14 382.31 267.809 383.05 267.179 383.62C266.589 384.16 266 384.42 265.41 384.42V384.41ZM258.249 377.57C258.939 377.57 259.579 377.69 260.149 378C261.239 378.6 262.08 379.81 262.89 380.98C263.68 382.13 264.499 383.32 265.309 383.41C265.669 383.45 266.07 383.28 266.51 382.87C266.94 382.48 267.15 382 267.17 381.39C267.23 378.76 263.599 375.09 263.559 375.05C263.389 374.88 263.36 374.6 263.51 374.4C263.65 374.2 263.92 374.13 264.14 374.24C264.21 374.27 265.799 375.07 269.109 377.06C272.699 379.21 274.15 379.39 274.42 379.18C274.47 379.14 274.53 378.93 274.38 378.44C273.76 376.36 269.269 372.03 267.589 370.53C267.409 370.37 267.369 370.11 267.489 369.9C267.609 369.69 267.869 369.6 268.089 369.69C268.099 369.69 269.589 370.23 273.519 371.28C275.489 371.81 277.149 371.66 277.969 370.89C278.299 370.58 278.439 370.21 278.369 369.86C278.199 369.01 274.849 367.28 271.899 365.76C271.099 365.34 270.26 364.92 269.42 364.47C264.97 362.11 262.43 361.17 262.41 361.16C262.18 361.08 262.049 360.84 262.089 360.6C262.139 360.36 262.359 360.2 262.589 360.19C270.919 360.38 272.239 358.45 272.439 357.86C272.659 357.21 272.21 356.59 271.76 356.26C270.1 355.05 264.25 355.05 260.76 355.05H260.309C256.889 355.05 250.11 355.82 242.85 360.91C243.28 363.03 245.879 375.19 248.999 377.5C250.859 378.88 253.139 378.42 255.339 377.97C256.359 377.76 257.349 377.57 258.249 377.57Z" fill="#282828"/>
<path d="M267.91 370.66C267.81 370.66 267.71 370.63 267.63 370.57C267.6 370.55 264.61 368.49 261.69 367.98C261.42 367.93 261.24 367.67 261.28 367.4C261.32 367.13 261.59 366.94 261.86 366.99C265 367.54 268.07 369.65 268.2 369.74C268.43 369.9 268.48 370.21 268.32 370.44C268.22 370.58 268.07 370.65 267.91 370.65V370.66Z" fill="#282828"/>
<path d="M263.91 375.2C263.74 375.2 263.57 375.11 263.48 374.95C263.45 374.9 262.65 373.62 260.62 373.73C260.34 373.75 260.11 373.53 260.09 373.26C260.07 372.98 260.29 372.75 260.56 372.73C263.23 372.58 264.3 374.37 264.34 374.44C264.48 374.68 264.4 374.98 264.16 375.12C264.08 375.17 263.99 375.19 263.91 375.19V375.2Z" fill="#282828"/>
<path d="M68.3297 307.02C54.6997 330.39 43.0097 353.37 45.7397 368.95C48.4697 384.53 68.3297 385.31 68.3297 385.31V307.02Z" fill="#6A90FF"/>
<path d="M134.819 285.49C157.529 290.28 174.299 312.31 181.309 333.73C188.319 355.15 187.909 423.88 187.909 423.88C187.909 423.88 101.829 434.01 61.3193 412.19C61.3193 412.19 62.8793 325.72 68.3293 307.02C73.7793 288.32 134.819 285.49 134.819 285.49Z" fill="#6A90FF"/>
<path d="M149.57 234.83C152.77 233.24 157.66 224.99 148.19 217.66C138.72 210.33 132.23 206.04 117.73 211.06C103.22 216.09 96.9695 229.2 87.5895 236.28C78.2095 243.36 71.4595 250.35 71.9895 259.37C72.5195 268.39 74.5995 275.75 70.1995 282.74C65.7995 289.73 65.1195 305.64 70.9895 315.17C76.8595 324.7 70.6095 332.5 71.9895 342.88C73.3695 353.26 131.28 361.91 139.35 339.52C147.42 317.13 135.05 314.27 140.32 307.17C145.59 300.07 147.22 291.44 143.38 286.29C139.54 281.14 149.57 234.84 149.57 234.84V234.83Z" fill="white"/>
<path d="M106.7 354.05C103.48 354.05 100.28 353.87 97.24 353.54C84.97 352.22 72.19 348.16 71.5 342.94C70.95 338.78 71.59 335.06 72.22 331.46C73.15 326.1 74.03 321.04 70.57 315.42C64.57 305.67 65.22 289.7 69.78 282.46C73.17 277.08 72.61 271.43 71.96 264.88C71.79 263.11 71.61 261.29 71.49 259.39C70.92 249.64 78.74 242.32 87.29 235.87C90.58 233.39 93.47 230.16 96.54 226.75C102.22 220.42 108.09 213.87 117.57 210.58C132.23 205.5 138.87 209.81 148.5 217.25C153.68 221.26 154.45 225.36 154.18 228.08C153.85 231.37 151.83 234.11 150.02 235.14C147.22 248.13 140.77 281.91 143.79 285.96C147.59 291.06 146.34 299.9 140.73 307.44C138.73 310.14 139.47 312.15 140.59 315.21C142.21 319.62 144.65 326.29 139.83 339.67C135.97 350.38 121.12 354.04 106.71 354.04L106.7 354.05ZM128.95 209.36C125.79 209.36 122.21 210.03 117.89 211.53C108.66 214.73 102.87 221.18 97.28 227.42C94.18 230.87 91.26 234.13 87.89 236.68C79.57 242.96 71.94 250.05 72.49 259.34C72.6 261.22 72.78 263.04 72.95 264.79C73.62 271.52 74.19 277.33 70.62 283C66.3 289.85 65.69 305.61 71.42 314.9C75.08 320.84 74.17 326.08 73.2 331.63C72.59 335.15 71.96 338.8 72.49 342.81C73.03 346.9 83.72 351.08 97.35 352.55C113.68 354.3 134.36 351.9 138.89 339.35C143.59 326.32 141.31 320.11 139.65 315.58C138.51 312.46 137.61 310 139.93 306.87C145.27 299.68 146.53 291.34 142.99 286.58C139.06 281.31 148.68 236.62 149.09 234.72C149.12 234.57 149.22 234.44 149.36 234.38C150.99 233.57 152.88 231.06 153.19 228C153.44 225.52 152.72 221.78 147.9 218.05C141.19 212.86 136.18 209.36 128.97 209.36H128.95Z" fill="#282828"/>
<path d="M161.34 257.04C161.63 260.97 157.4 261.71 154.86 259.98C155.01 269.34 154.24 280.59 143.37 286.27C143.37 286.27 132.02 272.8 132.1 263C132.18 253.18 140.58 249.55 141.69 246.57C142.8 243.61 139.58 234.79 139.58 234.79L149.54 228.59C149.54 228.59 151.49 235.49 152.34 241.54C153.03 248.73 154.71 254.13 154.71 254.13C154.71 254.13 161 252.65 161.33 257.03L161.34 257.04Z" fill="white"/>
<path d="M143.38 286.78C143.24 286.78 143.1 286.72 143 286.6C142.53 286.04 131.53 272.88 131.62 263C131.68 255.99 135.92 251.97 138.72 249.31C139.91 248.18 140.93 247.21 141.23 246.4C142.09 244.11 140 237.37 139.12 234.97C139.04 234.75 139.12 234.5 139.33 234.37L149.29 228.17C149.42 228.09 149.59 228.07 149.73 228.13C149.88 228.19 149.99 228.31 150.03 228.46C150.05 228.53 152 235.46 152.84 241.48C153.41 247.41 154.67 252.15 155.07 253.56C156.14 253.38 158.77 253.1 160.43 254.31C161.27 254.93 161.74 255.83 161.83 256.99C161.95 258.69 161.31 260.03 160.03 260.77C158.71 261.53 156.9 261.53 155.37 260.83C155.45 271.15 153.93 281.31 143.61 286.71C143.54 286.75 143.46 286.77 143.38 286.77V286.78ZM140.2 235.01C140.82 236.78 143.21 243.98 142.17 246.75C141.79 247.77 140.74 248.77 139.41 250.03C136.57 252.73 132.67 256.42 132.62 263.01C132.55 271.7 141.84 283.58 143.51 285.65C153.31 280.3 154.53 270.17 154.37 260C154.37 259.81 154.47 259.64 154.63 259.55C154.79 259.46 154.99 259.47 155.15 259.58C156.48 260.48 158.32 260.63 159.54 259.93C160.49 259.38 160.94 258.4 160.85 257.09C160.79 256.22 160.46 255.58 159.85 255.14C158.14 253.89 154.87 254.64 154.84 254.64C154.58 254.7 154.33 254.55 154.25 254.3C154.23 254.25 152.54 248.76 151.86 241.61C151.18 236.74 149.75 231.24 149.25 229.39L140.2 235.02V235.01Z" fill="#282828"/>
<path d="M148.94 241.14C147.05 239.82 144.75 238.9 143.31 240.94C142.84 241.52 142.49 242.29 142.11 243.05C141.98 243.3 141.68 243.4 141.43 243.27C141.23 243.17 141.13 242.96 141.16 242.75C141.36 240.84 142.32 238.65 144.47 238.15C146.58 237.73 148.46 238.88 149.67 240.46C150.03 240.92 149.37 241.53 148.94 241.14Z" fill="#282828"/>
<path d="M144.03 248.97C144.37 251.04 145.82 252.51 147.24 252.27C148.68 252.03 149.55 250.18 149.2 248.11C149.1 247.5 148.89 246.92 148.61 246.43L146.38 248.16L147.04 244.94C146.7 244.8 146.36 244.75 146.01 244.81C144.59 245.05 143.7 246.9 144.04 248.96L144.03 248.97Z" fill="#282828"/>
<path d="M154.86 260.49C154.76 260.49 154.67 260.46 154.58 260.41C153.57 259.73 152.9 258.78 152.64 257.65C152.58 257.38 152.74 257.11 153.01 257.05C153.28 256.99 153.55 257.16 153.61 257.42C153.87 258.53 154.58 259.21 155.13 259.58C155.36 259.74 155.42 260.05 155.27 260.27C155.17 260.41 155.02 260.49 154.85 260.49H154.86Z" fill="#282828"/>
<path d="M145.09 269.06C144.72 269.06 144.35 269.02 143.98 268.94C141.73 268.46 139.79 266.48 138.91 263.78C138.82 263.52 138.97 263.24 139.23 263.15C139.49 263.07 139.77 263.21 139.86 263.47C140.63 265.83 142.29 267.55 144.19 267.96C146.04 268.36 147.94 267.55 149.69 265.63C149.88 265.43 150.19 265.41 150.4 265.6C150.6 265.79 150.62 266.1 150.43 266.31C148.79 268.11 146.93 269.06 145.09 269.06Z" fill="#282828"/>
<path d="M81.1396 241.59C81.1396 241.59 92.2696 247.87 111.39 237.84C130.51 227.81 126.64 209 126.64 209C126.64 209 104.44 214.17 81.1396 241.59Z" fill="#0C41E2"/>
<path d="M90.8996 244.06C84.6296 244.06 81.1496 242.17 80.8896 242.02C80.7596 241.95 80.6696 241.82 80.6396 241.67C80.6096 241.52 80.6496 241.37 80.7496 241.26C103.89 214.03 126.29 208.56 126.52 208.51C126.65 208.48 126.79 208.51 126.9 208.58C127.01 208.65 127.09 208.77 127.12 208.9C127.16 209.09 130.85 228.2 111.61 238.28C103 242.79 96.0196 244.06 90.8896 244.06H90.8996ZM81.9396 241.41C84.4096 242.46 94.8896 245.92 111.15 237.39C120.84 232.31 124.4 224.9 125.68 219.58C126.8 214.92 126.42 211 126.23 209.62C122.79 210.6 102.75 217.15 81.9396 241.41Z" fill="#282828"/>
<path d="M80.4497 204.69C97.5197 195.84 110.32 190.69 119.99 199.79C129.66 208.9 118.44 229.87 104.44 236.29C90.4397 242.71 73.6997 240.1 70.8297 231.08C67.9497 222.06 68.8197 210.3 80.4497 204.69Z" fill="white"/>
<path d="M88.3094 240.33C84.2894 240.33 80.5094 239.65 77.3894 238.28C73.7394 236.67 71.2994 234.23 70.3494 231.24C67.3794 221.93 68.4194 209.95 80.2294 204.25C96.7494 195.68 110.199 189.89 120.329 199.44C123.489 202.42 124.709 206.79 123.839 212.07C122.229 221.86 113.979 232.48 104.649 236.76C99.4894 239.13 93.6894 240.34 88.3094 240.34V240.33ZM107.849 195.52C100.109 195.52 91.0094 199.78 80.6794 205.14C80.6794 205.14 80.6794 205.14 80.6694 205.14C69.4294 210.56 68.4594 222.02 71.3094 230.93C72.1694 233.64 74.4194 235.87 77.7994 237.36C84.8394 240.47 95.4594 239.86 104.229 235.84C113.139 231.75 121.319 221.23 122.849 211.89C123.419 208.45 123.319 203.61 119.639 200.15C116.149 196.87 112.219 195.51 107.849 195.51V195.52Z" fill="#282828"/>
<path d="M164.84 304.38C164.84 304.38 145.4 326.5 158.28 362.33C171.16 398.16 186.13 412.58 208.25 407.12C226.06 402.73 244 387.23 250.32 381.36C251.97 379.83 252.8 377.64 252.63 375.4C252.17 369.32 249.66 357.68 237.29 356.04C235.87 355.85 234.44 356.15 233.17 356.81L204.89 371.31C204.89 371.31 175.6 311.45 164.84 304.38Z" fill="#6A90FF"/>
<path d="M187.76 406.14C187.71 406.14 187.66 406.14 187.61 406.12C187.25 406 178.75 403.07 167.08 383.84C155.45 364.67 153.39 341.1 153.37 340.87C153.35 340.59 153.55 340.35 153.83 340.33C154.1 340.3 154.35 340.51 154.37 340.79C154.39 341.02 156.44 364.37 167.94 383.33C179.37 402.17 187.84 405.15 187.92 405.18C188.18 405.27 188.32 405.55 188.24 405.81C188.17 406.02 187.98 406.15 187.77 406.15L187.76 406.14Z" fill="#282828"/>
<path d="M62.2201 381.11H62.2001C61.9201 381.11 61.7101 380.87 61.7201 380.6L62.7101 347.69C62.7101 347.41 62.9501 347.2 63.2301 347.2C63.5101 347.2 63.7201 347.44 63.7101 347.71L62.7201 380.62C62.7201 380.89 62.4901 381.11 62.2201 381.11Z" fill="#282828"/>
<path d="M380.14 304.54H368.56L267.35 290.12C271.45 257.96 278.25 206.03 280.33 198.74C283.38 188.07 304.83 176.49 326.92 177.87C345.21 179.02 368.42 182.44 372.62 201.11C375.92 215.84 378.99 278.7 380.14 304.54Z" fill="#6A90FF"/>
<path d="M296.07 183.99C278.65 192.77 266.94 209.73 256.84 235.18L243.89 186.71C243.22 184.21 240.73 182.64 238.19 183.13L213.69 187.79C210.94 188.31 209.17 190.99 209.78 193.72C213.4 209.94 225.48 260.84 236.64 272.34C249.97 286.07 270.23 267.75 270.23 267.75L296.06 184L296.07 183.99Z" fill="#6A90FF"/>
<path d="M361.75 186.24C349.33 194.79 352.97 228.31 363.47 240.03C373.97 251.74 400.63 275.17 400.63 275.17V225.49C400.63 225.49 374.98 196.67 361.75 186.24Z" fill="#6A90FF"/>
<path d="M337.65 157.66C338.9 169.9 338.92 178.96 338.81 183.52C338.76 185.6 337.28 187.38 335.25 187.8C331.9 188.5 326.62 188.93 321.84 186.43C320.25 185.6 319.27 183.91 319.39 182.12L320.05 172.04L337.66 157.66H337.65Z" fill="white"/>
<path d="M330.15 188.84C327.43 188.84 324.44 188.35 321.6 186.87C319.82 185.94 318.76 184.06 318.89 182.08L319.55 172C319.55 171.86 319.63 171.73 319.73 171.65L337.34 157.27C337.48 157.15 337.68 157.12 337.85 157.2C338.02 157.27 338.14 157.43 338.16 157.61C339.42 170 339.43 179.17 339.32 183.53C339.26 185.86 337.63 187.81 335.36 188.29C333.87 188.6 332.08 188.85 330.16 188.85L330.15 188.84ZM320.53 172.29L319.88 182.15C319.78 183.73 320.63 185.24 322.06 185.98C326.64 188.38 331.7 188.02 335.14 187.31C336.96 186.93 338.26 185.37 338.3 183.51C338.41 179.28 338.4 170.51 337.24 158.64L320.52 172.29H320.53Z" fill="#282828"/>
<path d="M354.48 157.08C350.26 159.67 345.16 157.56 345.16 157.56C333.27 180.78 309.14 182.63 298.4 171.52C290.44 163.28 291.95 146.74 294.03 136.03C294.03 136.03 293.59 134.68 293.4 132.32C293.12 129.03 293.33 123.77 295.87 117.47C296.27 116.46 296.81 115.41 297.47 114.35C300.28 109.81 304.83 106.58 309.98 105.19C311.55 104.77 313.15 104.47 314.77 104.33C333.04 102.78 338.85 107.62 338.85 107.62C338.85 107.62 360.5 112.57 354.46 143.52C357.81 146.6 357.71 155.09 354.48 157.08Z" fill="white"/>
<path d="M315.11 178.61C308.42 178.61 302.24 176.21 298.03 171.87C290.16 163.73 291.22 147.93 293.51 136.06C293.4 135.66 293.06 134.37 292.9 132.36C292.62 129.01 292.82 123.68 295.4 117.28C295.82 116.24 296.37 115.16 297.04 114.08C299.88 109.5 304.43 106.17 309.85 104.7C311.49 104.26 313.13 103.96 314.73 103.83C331.99 102.37 338.23 106.52 339.07 107.16C340.78 107.62 360.66 113.68 355 143.35C357.02 145.41 357.65 149.14 357.37 152.01C357.12 154.63 356.16 156.63 354.74 157.5C351.03 159.78 346.76 158.64 345.4 158.18C339.54 169.38 330.06 176.7 319.35 178.29C317.93 178.5 316.51 178.61 315.12 178.61H315.11ZM321.58 104.53C319.54 104.53 317.29 104.62 314.81 104.83C313.27 104.96 311.69 105.24 310.11 105.67C304.94 107.07 300.6 110.24 297.89 114.61C297.25 115.64 296.73 116.66 296.33 117.65C293.82 123.87 293.62 129.03 293.9 132.27C294.09 134.53 294.5 135.86 294.51 135.87C294.54 135.95 294.54 136.04 294.52 136.12C292.67 145.66 290.76 162.89 298.75 171.17C303.6 176.19 311.25 178.49 319.19 177.31C329.71 175.75 339.01 168.47 344.71 157.34C344.83 157.11 345.11 157.01 345.35 157.1C345.4 157.12 350.28 159.07 354.22 156.65C355.35 155.95 356.16 154.18 356.38 151.91C356.64 149.19 356.05 145.66 354.12 143.89C353.99 143.77 353.93 143.6 353.97 143.43C359.84 113.34 339.6 108.31 338.74 108.11C338.66 108.09 338.59 108.06 338.53 108.01C338.48 107.97 334.12 104.54 321.58 104.54V104.53Z" fill="#282828"/>
<path d="M320.21 142.85C323.25 140.09 329.52 138.8 331.21 143.64C331.31 143.9 331.19 144.19 330.93 144.29C330.72 144.37 330.5 144.31 330.36 144.15C329.77 143.43 329.14 142.81 328.41 142.47C325.92 141.5 323.13 142.71 320.77 143.68C320.26 143.96 319.76 143.21 320.21 142.85Z" fill="#282828"/>
<path d="M297.54 138.45C300.16 136.17 304.43 136.5 306.69 139.1C307 139.61 308.04 140.33 307.39 140.9C307.19 141.04 306.94 141 306.77 140.86C305.54 139.89 304.21 138.96 302.65 138.69C301.13 138.37 299.47 138.71 298.04 139.3C297.53 139.53 297.1 138.79 297.53 138.45H297.54Z" fill="#282828"/>
<path d="M304.92 157.79C303.45 157.79 301.83 156.98 301.58 154.68C301.47 153.69 301.73 152.85 302.35 152.2C303.52 150.96 305.68 150.76 306.64 150.74C306.76 149.44 307.06 145.42 306.66 140.58C306.64 140.3 306.84 140.06 307.12 140.04C307.4 140.02 307.64 140.22 307.66 140.5C308.16 146.49 307.6 151.26 307.6 151.3C307.57 151.56 307.33 151.76 307.08 151.74C307.05 151.74 304.28 151.62 303.09 152.88C302.68 153.32 302.51 153.87 302.59 154.57C302.81 156.63 304.37 156.82 305.02 156.79C306.58 156.75 308.32 155.58 308.42 153.76C308.44 153.48 308.68 153.26 308.95 153.29C309.23 153.3 309.44 153.54 309.42 153.82C309.29 156.21 307.05 157.74 305.05 157.8C305.01 157.8 304.98 157.8 304.94 157.8L304.92 157.79Z" fill="#282828"/>
<path d="M326.08 148.84C325.77 150.59 324.53 151.82 323.32 151.61C322.11 151.4 321.38 149.81 321.7 148.06C321.79 147.54 321.98 147.05 322.22 146.64L324.1 148.13L323.57 145.4C323.86 145.28 324.15 145.25 324.45 145.3C325.65 145.52 326.39 147.1 326.07 148.84H326.08Z" fill="#282828"/>
<path d="M302.05 146.51C301.74 148.26 300.5 149.49 299.29 149.28C298.08 149.07 297.35 147.48 297.67 145.73C297.76 145.21 297.95 144.72 298.19 144.31L300.07 145.8L299.54 143.07C299.83 142.95 300.12 142.92 300.42 142.97C301.62 143.19 302.36 144.77 302.04 146.51H302.05Z" fill="#282828"/>
<path d="M312.55 166.15C311.51 166.15 310.43 165.6 309.45 164.56C309.26 164.36 309.27 164.04 309.47 163.85C309.67 163.66 309.99 163.67 310.18 163.87C311.08 164.83 312.04 165.27 312.89 165.11C313.62 164.98 314.24 164.4 314.61 163.53C314.72 163.27 315.01 163.16 315.26 163.26C315.51 163.37 315.63 163.66 315.53 163.91C315.03 165.1 314.13 165.9 313.07 166.09C312.9 166.12 312.73 166.14 312.56 166.14L312.55 166.15Z" fill="#282828"/>
<path d="M353.69 153.68C353.69 153.68 353.6 153.68 353.55 153.66C353.28 153.59 353.13 153.31 353.2 153.04C353.75 151.09 353.95 147.53 351.25 146.56C350.99 146.47 350.86 146.18 350.95 145.92C351.04 145.66 351.33 145.53 351.59 145.62C354.98 146.84 354.81 151.03 354.17 153.31C354.11 153.53 353.91 153.68 353.69 153.68Z" fill="#282828"/>
<path d="M354.46 143.53C350.25 140.17 345.88 146.37 344.65 150.14C344.65 150.14 344.19 141.87 343.72 136.14C343.5 133.4 345.11 126.48 341.43 122.68C338.92 120.09 334.78 119.93 331.86 122.04C328.88 124.19 323.17 127.47 315.07 128.49C303.33 129.98 295.13 123.96 294.36 123.02C294.33 122.98 294.28 123 294.27 123.04C294.01 124.01 292.81 128.85 293.4 132.32C293.4 132.32 289.12 130.74 289.64 122.35C290.16 113.97 292.41 108.04 297.82 105.07C303.23 102.1 319.86 97.2 329.64 95.97C339.42 94.75 342.67 107.99 342.67 107.99C342.67 107.99 357.92 108.03 357.75 120.26C357.58 132.49 354.45 143.53 354.45 143.53H354.46Z" fill="#282828"/>
<path d="M344.65 150.63C344.65 150.63 344.61 150.63 344.59 150.63C344.35 150.6 344.17 150.4 344.16 150.16C344.16 150.08 343.69 141.83 343.23 136.17C343.17 135.49 343.23 134.58 343.29 133.54C343.48 130.26 343.73 125.76 341.08 123.01C338.8 120.65 334.97 120.41 332.16 122.43C329.4 124.42 323.52 127.91 315.14 128.98C304.53 130.33 296.81 125.67 294.58 123.88C294.18 125.57 293.42 129.39 293.9 132.24C293.93 132.42 293.86 132.59 293.73 132.71C293.59 132.83 293.4 132.86 293.24 132.79C293.05 132.72 288.61 130.98 289.15 122.32C289.73 113.09 292.41 107.47 297.59 104.63C302.9 101.72 319.38 96.7502 329.59 95.4802C338.74 94.3402 342.42 105.32 343.06 107.5C344.71 107.57 351.22 108.08 355.19 112.12C357.27 114.24 358.3 116.97 358.25 120.26C358.08 132.41 354.97 143.55 354.93 143.66C354.88 143.82 354.76 143.95 354.6 144C354.44 144.05 354.27 144.02 354.14 143.92C353.12 143.11 352.07 142.87 350.94 143.21C348.25 144.02 345.92 147.83 345.12 150.29C345.05 150.5 344.86 150.64 344.64 150.64L344.65 150.63ZM336.35 120.07C338.37 120.07 340.35 120.83 341.79 122.32C344.75 125.38 344.47 130.32 344.28 133.6C344.22 134.61 344.17 135.48 344.22 136.09C344.54 139.99 344.85 145.11 345.02 147.96C346.2 145.64 348.21 142.98 350.65 142.25C351.87 141.88 353.04 142.04 354.15 142.71C354.82 140.12 357.1 130.55 357.25 120.25C357.29 117.24 356.36 114.74 354.48 112.83C350.3 108.57 342.75 108.5 342.67 108.5C342.44 108.5 342.24 108.34 342.19 108.12C342.16 107.99 338.93 95.3402 329.71 96.4802C319.78 97.7202 303.2 102.7 298.07 105.52C293.22 108.18 290.7 113.54 290.14 122.39C289.79 128.07 291.66 130.46 292.78 131.36C292.52 127.92 293.55 123.78 293.78 122.91C293.83 122.73 294.02 122.55 294.2 122.51C294.38 122.47 294.63 122.56 294.74 122.71C295.42 123.55 303.54 129.46 314.99 128C323.15 126.96 328.87 123.57 331.55 121.64C333 120.6 334.68 120.09 336.34 120.09L336.35 120.07Z" fill="#282828"/>
<path d="M313.21 168.79H309.97C309.109 168.79 308.41 169.488 308.41 170.35V170.86C308.41 171.722 309.109 172.42 309.97 172.42H313.21C314.072 172.42 314.77 171.722 314.77 170.86V170.35C314.77 169.488 314.072 168.79 313.21 168.79Z" fill="#282828"/>
<path d="M313.21 172.93H309.98C308.84 172.93 307.92 172.01 307.92 170.87V170.36C307.92 169.22 308.85 168.3 309.98 168.3H313.21C314.35 168.3 315.27 169.22 315.27 170.36V170.87C315.27 172.01 314.34 172.93 313.21 172.93ZM309.98 169.29C309.39 169.29 308.92 169.77 308.92 170.35V170.86C308.92 171.45 309.4 171.92 309.98 171.92H313.21C313.8 171.92 314.27 171.44 314.27 170.86V170.35C314.27 169.76 313.79 169.29 313.21 169.29H309.98Z" fill="#282828"/>
<path d="M315.02 171.11H311.59C311.31 171.11 311.09 170.89 311.09 170.61C311.09 170.33 311.31 170.11 311.59 170.11H315.02C322.88 170.11 330.46 167.78 336.96 163.37L345.97 157.25C346.2 157.1 346.51 157.15 346.66 157.38C346.82 157.61 346.76 157.92 346.53 158.07L337.52 164.19C330.86 168.71 323.07 171.1 315.02 171.1V171.11Z" fill="#282828"/>
<path d="M357.185 151.954C357.708 143.819 353.302 136.914 347.345 136.531C341.387 136.147 336.133 142.431 335.609 150.566C335.086 158.701 339.492 165.607 345.45 165.99C351.408 166.373 356.662 160.089 357.185 151.954Z" fill="#6A90FF"/>
<path d="M345.97 166.51C345.79 166.51 345.61 166.51 345.43 166.49C339.2 166.09 334.58 158.93 335.12 150.54C335.66 142.14 341.16 135.66 347.39 136.04C353.62 136.44 358.24 143.6 357.7 151.99C357.18 160.14 351.97 166.51 345.98 166.51H345.97ZM346.83 137.02C341.36 137.02 336.6 142.98 336.11 150.6C335.61 158.45 339.81 165.13 345.49 165.49C351.16 165.86 356.19 159.77 356.7 151.92C357.2 144.07 353 137.39 347.32 137.03C347.16 137.02 347 137.01 346.84 137.01L346.83 137.02Z" fill="#282828"/>
<path d="M357.851 152.489C358.232 146.564 355.024 141.535 350.687 141.256C346.349 140.977 342.524 145.554 342.143 151.479C341.762 157.404 344.969 162.433 349.307 162.712C353.644 162.991 357.47 158.414 357.851 152.489Z" fill="#6A90FF"/>
<path d="M349.69 163.22C349.56 163.22 349.42 163.22 349.29 163.21C344.68 162.91 341.26 157.64 341.66 151.45C341.85 148.48 342.88 145.74 344.56 143.73C346.28 141.68 348.48 140.62 350.73 140.77C352.99 140.92 355.03 142.24 356.47 144.5C357.88 146.71 358.55 149.56 358.36 152.53C357.97 158.53 354.13 163.23 349.69 163.23V163.22ZM350.32 141.75C348.51 141.75 346.74 142.67 345.32 144.37C343.77 146.22 342.82 148.76 342.65 151.52C342.29 157.16 345.29 161.96 349.35 162.22C353.42 162.51 357 158.11 357.36 152.47C357.54 149.71 356.92 147.07 355.62 145.04C354.35 143.06 352.59 141.9 350.66 141.77C350.54 141.77 350.43 141.76 350.31 141.76L350.32 141.75Z" fill="#282828"/>
<path d="M269.54 273.62C269.54 273.62 269.51 273.62 269.49 273.62C269.22 273.59 269.01 273.35 269.04 273.07C273.2 231.61 275.54 209.87 275.56 209.65C275.59 209.38 275.82 209.17 276.11 209.21C276.38 209.24 276.58 209.49 276.55 209.76C276.53 209.97 274.19 231.72 270.03 273.17C270 273.43 269.79 273.62 269.53 273.62H269.54Z" fill="#282828"/>
<path d="M260.2 247.23C259.98 247.23 259.78 247.09 259.72 246.87L256.36 235.32C256.28 235.06 256.44 234.78 256.7 234.7C256.96 234.62 257.24 234.78 257.32 235.04L260.68 246.59C260.76 246.85 260.6 247.13 260.34 247.21C260.29 247.22 260.25 247.23 260.2 247.23Z" fill="#282828"/>
<path d="M236.97 186.62C236.97 186.62 233.54 172.74 228.97 166.96C224.4 161.17 214.46 161.43 209.76 159.18C205.05 156.93 200.83 157.86 206.14 164C206.14 164 196.05 161.24 193.97 154.1C193.04 150.88 187.83 152.16 188.78 157.77C188.78 157.77 182.64 154.63 185.2 162.87C185.2 162.87 180.45 167.6 188.68 174.08C188.68 174.08 190.75 183.93 202.86 183.82C202.86 183.82 214.49 184.13 216.27 184.73C218.05 185.33 218.61 191.83 218.61 191.83C218.61 191.83 229.47 192.85 236.97 186.63V186.62Z" fill="white"/>
<path d="M220.47 192.39C219.37 192.39 218.67 192.33 218.56 192.32C218.32 192.3 218.13 192.11 218.11 191.86C217.9 189.37 217.11 185.53 216.11 185.19C214.71 184.72 206.06 184.4 202.85 184.31C202.78 184.31 202.72 184.31 202.65 184.31C191.38 184.31 188.61 175.73 188.24 174.36C185.14 171.88 183.49 169.35 183.35 166.83C183.23 164.73 184.2 163.28 184.64 162.74C183.79 159.89 183.89 158.08 184.94 157.2C185.88 156.41 187.29 156.69 188.18 156.99C187.98 154.04 189.49 152.32 191.11 151.94C192.63 151.59 194 152.42 194.44 153.96C195.92 159.06 201.8 161.88 204.67 162.98C203.16 160.91 202.78 159.37 203.53 158.39C204.46 157.17 206.99 157.3 209.97 158.73C211.5 159.46 213.67 159.93 215.97 160.43C220.77 161.48 226.21 162.66 229.36 166.65C233.95 172.46 237.31 185.93 237.45 186.5C237.5 186.69 237.43 186.88 237.28 187C231.52 191.77 223.95 192.38 220.46 192.38L220.47 192.39ZM219.07 191.35C221.08 191.45 229.99 191.57 236.41 186.43C235.88 184.36 232.66 172.43 228.58 167.26C225.65 163.56 220.4 162.41 215.76 161.4C213.4 160.89 211.18 160.4 209.54 159.62C206.83 158.33 204.83 158.33 204.33 158.99C204.13 159.26 203.68 160.39 206.51 163.67C206.65 163.84 206.67 164.08 206.55 164.26C206.43 164.45 206.2 164.53 206 164.48C205.58 164.36 195.61 161.56 193.49 154.23C193.15 153.06 192.16 152.72 191.34 152.91C190.01 153.22 188.79 154.84 189.27 157.68C189.3 157.87 189.23 158.06 189.07 158.17C188.92 158.28 188.72 158.3 188.55 158.21C187.98 157.92 186.34 157.32 185.58 157.96C184.87 158.56 184.91 160.24 185.67 162.71C185.72 162.89 185.67 163.08 185.55 163.21C185.54 163.22 184.21 164.6 184.34 166.79C184.48 169.04 186.04 171.36 188.99 173.67C189.08 173.74 189.15 173.84 189.17 173.96C189.25 174.34 191.29 183.3 202.67 183.3C202.73 183.3 202.8 183.3 202.87 183.3C204.09 183.33 214.65 183.63 216.44 184.23C218.24 184.84 218.9 189.6 219.08 191.33L219.07 191.35Z" fill="#282828"/>
<path d="M218.23 184.04C218.04 184.04 217.86 183.93 217.77 183.74C217.66 183.49 217.77 183.19 218.02 183.08C218.09 183.05 224.83 179.97 224.56 174.85C224.55 174.57 224.76 174.34 225.03 174.32C225.32 174.28 225.54 174.52 225.56 174.79C225.86 180.59 218.73 183.85 218.43 183.98C218.36 184.01 218.29 184.02 218.23 184.02V184.04Z" fill="#282828"/>
<path d="M201.24 167.49C201.18 167.49 201.11 167.48 201.05 167.45C200.7 167.31 192.45 163.88 188.37 158.04C188.21 157.81 188.27 157.5 188.49 157.34C188.72 157.18 189.03 157.24 189.19 157.46C193.1 163.05 201.35 166.48 201.43 166.51C201.69 166.61 201.81 166.91 201.7 167.16C201.62 167.35 201.43 167.47 201.24 167.47V167.49Z" fill="#282828"/>
<path d="M199.65 178.97C199.58 178.97 199.51 178.96 199.45 178.93C195.24 177.06 193.88 173.44 192.88 170.8C192.48 169.73 191.46 169.07 190.56 169.32C189.58 169.58 188.7 170.94 189.17 174.01C189.21 174.28 189.02 174.54 188.75 174.58C188.48 174.62 188.22 174.43 188.18 174.16C187.61 170.44 188.9 168.72 190.3 168.35C191.71 167.98 193.22 168.88 193.81 170.45C195.02 173.66 196.31 176.45 199.85 178.02C200.1 178.13 200.22 178.43 200.1 178.68C200.02 178.87 199.83 178.98 199.64 178.98L199.65 178.97Z" fill="#282828"/>
<path d="M199.34 172.52C199.28 172.52 199.23 172.52 199.17 172.49C197.37 171.85 188.11 167.15 184.81 163.18C184.63 162.97 184.66 162.65 184.88 162.48C185.09 162.3 185.41 162.33 185.58 162.55C188.75 166.37 197.96 171.01 199.51 171.56C199.77 171.65 199.91 171.94 199.81 172.2C199.74 172.4 199.54 172.53 199.34 172.53V172.52Z" fill="#282828"/>
<path d="M219.65 166.69H219.63C219.57 166.69 213.19 166.46 207.7 165.15C207.43 165.09 207.27 164.82 207.33 164.55C207.39 164.28 207.67 164.11 207.93 164.18C213.32 165.47 219.6 165.69 219.66 165.69C219.94 165.69 220.15 165.93 220.14 166.21C220.14 166.48 219.91 166.69 219.64 166.69H219.65Z" fill="#282828"/>
<path d="M377.56 253.1C377.46 253.1 377.35 253.07 377.27 253C377.08 252.86 358.1 238.76 353.42 217.98C348.71 197.08 357.94 189.25 358.33 188.93C358.54 188.76 358.86 188.79 359.03 189C359.2 189.21 359.17 189.53 358.96 189.7C358.87 189.78 349.82 197.51 354.39 217.76C358.99 238.17 377.67 252.06 377.86 252.2C378.08 252.36 378.13 252.68 377.97 252.9C377.87 253.03 377.72 253.1 377.57 253.1H377.56Z" fill="#282828"/>
<path d="M390.57 266.17L352.59 277.05L359.68 302.52C360.47 305.35 363.04 307.3 365.98 307.3H380.26C380.26 307.3 421.03 306.09 424.6 283.36C428.17 260.63 400.62 225.48 400.62 225.48L390.56 266.16L390.57 266.17Z" fill="#6A90FF"/>
<path d="M360.94 282.81C349.74 283.8 350.19 281.97 345.08 280.09C339.97 278.21 338.41 277.13 336.95 279.25C335.49 281.37 340.87 285.24 340.87 285.24C340.87 285.24 332.69 285.19 327.62 287.77C322.55 290.36 308.98 301.7 308.98 301.7C308.98 301.7 309.13 304.6 312.64 303.26C316.15 301.91 325.54 297.19 325.54 297.19C325.54 297.19 316.36 308.63 315.38 310.53C314.4 312.43 317.87 315.04 320.72 311.52C323.58 308 331.91 301.69 331.91 301.69C331.91 301.69 326.18 311.41 324.8 314.34C323.42 317.27 326.35 320.36 328.94 316.76C331.53 313.16 335.81 308.04 335.81 308.04L333.95 321.83C333.95 321.83 336.76 324.31 338.69 318.86C340.62 313.41 342.05 310.09 342.05 310.09C342.05 310.09 348.78 311.56 355.37 306.54C361.96 301.52 363.17 300.47 363.17 300.47C363.17 300.47 365.46 297.31 364.4 291.2C363.34 285.09 360.94 282.81 360.94 282.81Z" fill="white"/>
<path d="M335.48 322.9C334.43 322.9 333.67 322.25 333.63 322.21C333.5 322.1 333.44 321.93 333.46 321.77L335.09 309.72C333.64 311.48 331.1 314.64 329.35 317.06C327.91 319.06 326.34 319.16 325.34 318.58C324.15 317.88 323.46 316.03 324.35 314.13C325.32 312.06 328.38 306.75 330.16 303.69C327.51 305.79 323.02 309.48 321.1 311.84C319.33 314.02 317.21 314.12 315.89 313.25C314.81 312.54 314.41 311.3 314.93 310.3C315.7 308.82 321.11 301.95 323.74 298.65C320.77 300.12 315.34 302.76 312.82 303.73C311.47 304.25 310.38 304.25 309.59 303.73C308.56 303.06 308.48 301.78 308.48 301.73C308.48 301.57 308.54 301.42 308.66 301.32C309.22 300.86 322.34 289.91 327.4 287.33C331.3 285.34 336.88 284.88 339.47 284.77C337.85 283.41 335.27 280.8 336.54 278.96C338 276.84 339.62 277.46 343.18 278.83C343.8 279.07 344.49 279.33 345.26 279.62C346.51 280.08 347.44 280.54 348.26 280.95C350.83 282.22 352.53 283.06 360.91 282.32C361.05 282.31 361.19 282.36 361.3 282.45C361.4 282.55 363.84 284.91 364.91 291.12C365.99 297.37 363.69 300.64 363.6 300.77C363.58 300.8 363.55 300.83 363.52 300.86C363.47 300.9 362.21 301.98 355.7 306.95C349.87 311.4 343.98 310.9 342.39 310.66C341.97 311.66 340.74 314.68 339.2 319.04C338.43 321.23 337.4 322.5 336.14 322.83C335.92 322.89 335.71 322.91 335.5 322.91L335.48 322.9ZM334.5 321.6C334.77 321.77 335.29 322 335.87 321.84C336.77 321.6 337.59 320.51 338.23 318.69C340.14 313.28 341.58 309.92 341.6 309.89C341.69 309.67 341.93 309.55 342.17 309.6C342.23 309.61 348.77 310.96 355.08 306.14C360.88 301.72 362.52 300.37 362.81 300.13C363.07 299.73 364.86 296.7 363.92 291.28C363.06 286.3 361.27 283.93 360.75 283.32C352.3 284.05 350.42 283.11 347.82 281.83C347.02 281.44 346.12 280.99 344.92 280.55C344.15 280.26 343.45 280 342.83 279.76C339.24 278.38 338.35 278.11 337.37 279.53C336.41 280.93 339.88 283.9 341.17 284.83C341.35 284.96 341.42 285.18 341.35 285.39C341.28 285.6 341.07 285.74 340.87 285.73C340.8 285.73 332.75 285.71 327.85 288.21C323.24 290.56 311.27 300.44 309.52 301.9C309.58 302.17 309.74 302.63 310.15 302.89C310.65 303.21 311.45 303.18 312.47 302.79C315.92 301.47 325.23 296.79 325.33 296.74C325.54 296.64 325.8 296.69 325.94 296.87C326.09 297.05 326.09 297.31 325.94 297.5C322.78 301.44 316.59 309.29 315.83 310.76C315.5 311.4 315.92 312.06 316.45 312.41C317.33 312.99 318.87 313.02 320.34 311.21C323.2 307.68 331.28 301.55 331.62 301.3C331.81 301.15 332.08 301.17 332.25 301.33C332.43 301.49 332.47 301.75 332.35 301.96C332.29 302.06 326.61 311.69 325.27 314.57C324.63 315.93 325.08 317.27 325.87 317.73C326.66 318.19 327.66 317.73 328.56 316.49C331.13 312.92 335.41 307.79 335.45 307.74C335.59 307.57 335.83 307.51 336.03 307.6C336.23 307.69 336.35 307.9 336.32 308.12L334.5 321.61V321.6Z" fill="#282828"/>
<path d="M325.55 297.69C325.44 297.69 325.32 297.65 325.23 297.58C325.02 297.4 324.99 297.09 325.16 296.88L328.39 292.97C328.57 292.76 328.88 292.73 329.09 292.9C329.3 293.08 329.33 293.39 329.16 293.6L325.93 297.51C325.83 297.63 325.69 297.69 325.54 297.69H325.55Z" fill="#282828"/>
<path d="M331.92 302.19C331.83 302.19 331.74 302.17 331.66 302.12C331.42 301.98 331.35 301.67 331.49 301.43L333.21 298.63C333.35 298.39 333.66 298.32 333.9 298.46C334.14 298.6 334.21 298.91 334.07 299.15L332.35 301.95C332.26 302.1 332.09 302.19 331.92 302.19Z" fill="#282828"/>
<path d="M335.83 308.55C335.83 308.55 335.76 308.55 335.73 308.54C335.46 308.48 335.29 308.22 335.34 307.95L336.08 304.37C336.14 304.1 336.4 303.92 336.67 303.98C336.94 304.04 337.11 304.3 337.06 304.57L336.32 308.15C336.27 308.39 336.06 308.55 335.83 308.55Z" fill="#282828"/>
<path d="M340.87 285.74C340.61 285.74 340.39 285.54 340.37 285.28C340.35 285 340.56 284.76 340.83 284.74C348.37 284.19 350.08 283.8 350.1 283.79C350.37 283.73 350.64 283.89 350.7 284.16C350.76 284.43 350.6 284.7 350.33 284.76C350.26 284.78 348.58 285.17 340.9 285.73C340.89 285.73 340.88 285.73 340.86 285.73L340.87 285.74Z" fill="#282828"/>
<path d="M354.26 283.56C354 283.56 353.78 283.36 353.76 283.09C353.75 282.88 353.45 277.87 356.06 276.4C358.45 275.06 381.28 268.32 382.25 268.03C382.52 267.95 382.79 268.1 382.87 268.37C382.95 268.63 382.8 268.91 382.53 268.99C374.34 271.41 358.38 276.24 356.54 277.27C354.83 278.23 354.67 281.75 354.75 283.02C354.77 283.3 354.56 283.53 354.28 283.55C354.27 283.55 354.26 283.55 354.25 283.55L354.26 283.56Z" fill="#282828"/>
<path d="M365.91 307.81C361.5 307.81 359.48 303.51 359.39 303.33C359.27 303.08 359.39 302.78 359.63 302.67C359.88 302.55 360.18 302.67 360.29 302.92C360.31 302.96 362.14 306.82 365.9 306.82C369.97 306.82 387.85 305.78 388.03 305.77C388.3 305.74 388.54 305.96 388.56 306.24C388.58 306.52 388.37 306.75 388.09 306.77C387.91 306.78 370.01 307.82 365.9 307.82L365.91 307.81Z" fill="#282828"/>
<path d="M305.36 213.18L303.59 240.65L279.38 239.09L281.15 211.62L289.63 212.17C289.63 212.06 289.63 211.94 289.63 211.82C289.76 209.8 291.5 208.28 293.51 208.41C295.52 208.54 297.05 210.27 296.92 212.29C296.92 212.41 296.89 212.53 296.88 212.64L305.36 213.19V213.18Z" fill="white"/>
<path d="M303.59 241.15C303.59 241.15 303.57 241.15 303.56 241.15L279.35 239.59C279.07 239.57 278.87 239.33 278.88 239.06L280.65 211.59C280.65 211.46 280.72 211.33 280.82 211.25C280.92 211.16 281.05 211.11 281.18 211.13L289.15 211.64C289.25 210.59 289.75 209.64 290.54 208.94C291.37 208.21 292.44 207.85 293.54 207.92C295.77 208.06 297.49 209.96 297.42 212.18L305.39 212.69C305.67 212.71 305.87 212.95 305.86 213.22L304.09 240.69C304.09 240.82 304.02 240.95 303.92 241.03C303.83 241.11 303.71 241.15 303.59 241.15ZM279.91 238.63L303.12 240.12L304.82 213.64L296.84 213.13C296.7 213.13 296.57 213.05 296.48 212.94C296.39 212.83 296.35 212.69 296.38 212.55C296.4 212.46 296.41 212.35 296.42 212.25C296.53 210.52 295.21 209.02 293.48 208.91C292.65 208.85 291.83 209.13 291.2 209.69C290.57 210.25 290.19 211.01 290.13 211.86C290.13 211.97 290.13 212.07 290.13 212.17C290.13 212.31 290.08 212.44 289.98 212.54C289.88 212.64 289.74 212.69 289.6 212.68L281.62 212.17L279.92 238.65L279.91 238.63Z" fill="#282828"/>
<path d="M301.687 216.123L284.423 215.012L283.063 236.149L300.328 237.259L301.687 216.123Z" fill="white"/>
<path d="M300.33 237.76C300.33 237.76 300.31 237.76 300.3 237.76L283.03 236.65C282.75 236.63 282.55 236.39 282.56 236.12L283.92 214.98C283.92 214.85 283.99 214.72 284.09 214.64C284.19 214.55 284.32 214.5 284.45 214.52L301.72 215.63C302 215.65 302.2 215.89 302.19 216.16L300.83 237.3C300.83 237.43 300.76 237.56 300.66 237.64C300.57 237.72 300.45 237.76 300.33 237.76ZM283.59 235.68L299.86 236.73L301.15 216.59L284.88 215.54L283.58 235.68H283.59Z" fill="#282828"/>
<path d="M292.366 226.144C295.56 226.349 297.987 229.111 297.782 232.304L297.474 237.084L285.898 236.34L286.206 231.56C286.411 228.366 289.173 225.938 292.366 226.144Z" fill="#6A90FF"/>
<path d="M297.48 237.58C297.48 237.58 297.46 237.58 297.45 237.58L285.88 236.84C285.75 236.84 285.62 236.77 285.54 236.67C285.46 236.57 285.41 236.44 285.42 236.31L285.73 231.53C285.95 228.07 288.94 225.43 292.42 225.65C295.89 225.87 298.52 228.87 298.3 232.34L297.99 237.12C297.97 237.38 297.75 237.59 297.49 237.59L297.48 237.58ZM286.44 235.87L297.01 236.55L297.29 232.27C297.48 229.35 295.26 226.83 292.34 226.64C289.41 226.43 286.9 228.67 286.71 231.59L286.43 235.87H286.44Z" fill="#282828"/>
<path d="M292.68 224.98C294.657 224.98 296.26 223.377 296.26 221.4C296.26 219.423 294.657 217.82 292.68 217.82C290.702 217.82 289.1 219.423 289.1 221.4C289.1 223.377 290.702 224.98 292.68 224.98Z" fill="#6A90FF"/>
<path d="M292.68 225.48C292.59 225.48 292.5 225.48 292.42 225.48C290.18 225.34 288.47 223.39 288.61 221.15C288.68 220.06 289.17 219.07 289.99 218.35C290.81 217.63 291.86 217.27 292.95 217.34C294.04 217.41 295.03 217.9 295.75 218.72C296.47 219.54 296.83 220.59 296.76 221.67C296.62 223.83 294.82 225.49 292.69 225.49L292.68 225.48ZM292.67 218.32C291.92 218.32 291.21 218.59 290.64 219.09C290.02 219.63 289.65 220.38 289.6 221.21C289.49 222.9 290.78 224.37 292.47 224.48C293.29 224.54 294.08 224.26 294.7 223.72C295.32 223.18 295.69 222.43 295.74 221.6C295.79 220.78 295.52 219.99 294.98 219.37C294.44 218.75 293.69 218.38 292.87 218.33C292.8 218.33 292.74 218.33 292.67 218.33V218.32Z" fill="#282828"/>
<path d="M293.51 210.32C294.564 210.32 295.42 209.465 295.42 208.41C295.42 207.355 294.564 206.5 293.51 206.5C292.455 206.5 291.6 207.355 291.6 208.41C291.6 209.465 292.455 210.32 293.51 210.32Z" fill="#282828"/>
<path d="M293.51 210.82C292.18 210.82 291.1 209.74 291.1 208.4C291.1 207.06 292.18 205.99 293.51 205.99C294.84 205.99 295.92 207.07 295.92 208.4C295.92 209.73 294.84 210.82 293.51 210.82ZM293.51 206.99C292.73 206.99 292.1 207.62 292.1 208.4C292.1 209.18 292.73 209.82 293.51 209.82C294.29 209.82 294.92 209.19 294.92 208.4C294.92 207.61 294.29 206.99 293.51 206.99Z" fill="#282828"/>
</svg>
