<svg width="500" height="500" viewBox="0 0 500 500" fill="none" xmlns="http://www.w3.org/2000/svg">
<path fill-rule="evenodd" clip-rule="evenodd" d="M277.633 0.000116871C344.69 -0.0891299 398.483 50.9505 441.395 101.859C479.956 147.604 501.875 204.152 499.874 263.651C497.94 321.153 470.508 372.895 430.864 415.039C389.424 459.09 338.464 497.718 277.633 499.899C215.034 502.143 160.327 466.826 112.865 426.438C60.4273 381.817 -0.30419 332.024 0.00114668 263.651C0.305924 195.403 64.5092 149.589 114.312 102.294C162.623 56.4164 210.625 0.0893004 277.633 0.000116871Z" fill="#EDF1FE"/>
<path d="M82.7995 134.1C70.2995 161.2 88.1995 186.7 118 178.8C156.8 168.5 188.8 116 188.8 116C188.8 116 196.3 66.6001 165.6 74.7001C161.2 75.9001 95.1995 107 82.7995 134.1Z" fill="white"/>
<path d="M211.1 78.1001C211.1 78.1001 224.5 80.4001 240.3 91.9001C245.1 95.4001 247.2 105.7 247.6 106.8C253.8 120.8 222.8 107.1 222.8 107.1L211.1 78.1001Z" fill="white"/>
<path d="M243.8 114C236.4 114 224.2 108.7 222.5 108C222.3 107.9 222.1 107.7 222 107.5L210.3 78.5001C210.1 78.0001 210.3 77.4001 210.9 77.2001C211.1 77.1001 211.3 77.1001 211.4 77.1001C212 77.2001 225.2 79.5001 241 91.0001C245.3 94.1001 247.4 101.8 248.3 105.1C248.4 105.6 248.6 106.2 248.7 106.3C249.9 109.1 249.9 111.2 248.6 112.6C247.5 113.7 245.8 114 243.8 114ZM223.6 106.3C231.4 109.7 244.3 113.9 247 111.2C247.9 110.3 247.3 108.5 246.7 107.1C246.5 106.6 246.4 106.1 246.2 105.6C245.3 102.5 243.3 95.3001 239.7 92.6001C231.6 86.6001 222.4 82.1001 212.7 79.4001L223.6 106.3Z" fill="#0C41E2"/>
<path d="M348 101.3H124.5V399.1H348V101.3Z" fill="white"/>
<path d="M347.9 400.1H124.5C123.9 400.1 123.5 399.7 123.5 399.1V101.3C123.5 100.7 123.9 100.3 124.5 100.3H348C348.6 100.3 349 100.7 349 101.3V399.1C348.9 399.7 348.5 400.1 347.9 400.1ZM125.5 398.1H347V102.3H125.5V398.1Z" fill="#0C41E2"/>
<path d="M355.8 101.3H132.3V405.3H355.8V101.3Z" fill="white"/>
<path d="M355.8 406.4H132.3C131.7 406.4 131.3 406 131.3 405.4V101.4C131.3 100.8 131.7 100.4 132.3 100.4H355.8C356.4 100.4 356.8 100.8 356.8 101.4V405.4C356.8 405.9 356.3 406.4 355.8 406.4ZM133.3 404.4H354.8V102.4H133.3V404.4Z" fill="#0C41E2"/>
<path d="M211.4 165.9C207.5 165.9 203.7 164.6 200.6 162.2L187.4 152C184.2 149.5 177.8 153 172.6 155.7C171 156.6 169.5 157.4 168.1 158C168 158 167.9 158 167.9 158.1L153.7 160.5C153.1 160.6 152.6 160.2 152.5 159.7C152.4 159.2 152.8 158.6 153.3 158.5L167.3 156.1C168.5 155.6 170 154.8 171.5 154C177.2 151 184.2 147.1 188.4 150.4L201.5 160.6C206.7 164.6 213.8 165 219.4 161.5L233.9 152.4C238.7 149.4 244.6 148.9 249.8 151L262.9 156.2C267.8 158.2 273.4 157.5 277.7 154.5C281.2 152 285.5 150.9 289.7 151.4L311.3 153.7L336.9 155.2C337.5 155.2 337.9 155.6 337.9 156.2C337.9 156.2 337.9 156.2 337.9 156.3C337.9 156.9 337.4 157.3 336.8 157.2L311.2 155.7L289.5 153.4C285.7 153 282 154 278.9 156.2C274 159.7 267.8 160.4 262.2 158.2L249.1 153C244.5 151.2 239.2 151.6 235 154.3L220.5 163.4C217.9 165 214.7 165.9 211.4 165.9Z" fill="#0C41E2"/>
<path d="M214.599 201.7C207.199 201.7 199.899 200.5 190.399 196.7C172.999 189.6 154.799 198.5 154.599 198.6C154.099 198.8 153.499 198.6 153.299 198.1C153.099 197.6 153.299 197.1 153.699 196.8C154.499 196.4 172.899 187.4 191.199 194.8C206.899 201.2 216.599 200 231.299 198.4C233.299 198.2 235.399 197.9 237.599 197.7C254.799 195.9 268.999 197 285.299 198.3L289.499 198.6C307.799 200 332.099 199.1 332.399 199.1C332.999 199.1 333.399 199.5 333.399 200.1C333.399 200.7 332.999 201.1 332.399 201.1C332.199 201.1 307.699 202.1 289.299 200.6L285.099 200.3C268.799 199 254.799 197.9 237.699 199.7L231.399 200.4C225.899 201.1 220.199 201.5 214.599 201.7Z" fill="#0C41E2"/>
<path d="M332 235.3C331.6 235.3 289 234.1 269.5 234.8C268.9 234.8 268.5 234.4 268.5 233.8C268.5 233.2 268.9 232.8 269.5 232.8C289 232.1 331.7 233.3 332.1 233.3C332.7 233.3 333.1 233.7 333.1 234.3C333.1 234.9 332.6 235.3 332 235.3Z" fill="#0C41E2"/>
<path d="M170.5 238C166.1 238 161.8 237.7 157.4 237.2C156.9 237.1 156.5 236.6 156.5 236.1C156.6 235.6 157.1 235.2 157.6 235.2C157.8 235.2 173.2 237.1 183.6 234.7C193.4 232.5 209.4 230.6 222.6 232.7C229.6 233.8 239.7 234.4 251.3 234.3C251.9 234.3 252.3 234.7 252.3 235.3C252.3 235.9 251.9 236.3 251.3 236.3C239.7 236.4 229.4 235.8 222.3 234.7C209.4 232.6 193.7 234.5 184.1 236.6C179.6 237.6 175.1 238.1 170.5 238Z" fill="#0C41E2"/>
<path d="M203.4 276.3C199.8 276.3 196.2 276.2 192.6 275.8C176.2 273.9 153.4 273.8 153.1 273.8C152.5 273.8 152.1 273.4 152.1 272.8C152.1 272.2 152.5 271.8 153.1 271.8C153.3 271.8 176.3 271.8 192.8 273.8C201.8 274.9 219.9 273.9 239 272.8C254.6 271.9 270.7 271.1 282.6 271.3C308.6 271.8 321.5 270.8 321.6 270.8C322.2 270.8 322.6 271.2 322.7 271.7C322.7 272.3 322.3 272.7 321.8 272.8C321.7 272.8 308.8 273.8 282.6 273.3C270.7 273.1 254.7 273.9 239.2 274.8C225.9 275.6 213.1 276.3 203.4 276.3Z" fill="#0C41E2"/>
<path d="M151.199 312.5C150.599 312.5 150.199 312.1 150.199 311.5C150.199 310.9 150.599 310.5 151.199 310.5C152.699 310.4 187.599 308.1 200.199 309C212.799 309.9 260.699 310.5 261.199 310.5C261.799 310.5 262.199 310.9 262.199 311.5C262.199 312.1 261.799 312.5 261.199 312.5C260.699 312.5 212.599 312 200.099 311C187.599 310 151.599 312.5 151.199 312.5Z" fill="#0C41E2"/>
<path d="M138 101.4C138 101.4 140.1 76.2004 178.6 72.8004C203.5 70.6004 225 80.6004 231.4 95.3004C232.8 98.7004 234.9 108.9 236.8 120.1C237.1 122.1 237.3 124.2 237.3 126.2C237.2 142.1 236.9 157.2 233.1 164.7C223.1 184.3 221.3 134.8 220 111.9C220 111.9 221.5 129.9 221.7 147.8C221.9 169.3 219.7 178.4 215.3 178.1C210.9 177.8 207.5 165.4 206.7 148.9C205.9 131.2 205.2 112.7 205.2 112.7C205.2 112.7 207.3 169.4 197.5 170C191.5 170.4 190.7 149.5 190.1 133.7C189.7 123.6 188.9 116.1 188.9 116.1C188.9 116.1 190.4 165.1 179.3 163.2C173 162.1 174.1 149.4 173.8 135.7C173.5 128 172.7 120.3 171.4 112.7C171.4 112.7 159.9 106.4 157.2 101.5L138 101.4Z" fill="white"/>
<path d="M107.3 181.3C98.0996 181.3 90.0996 177.9 84.5996 171.3C76.5996 161.8 75.5996 147.4 81.7996 133.7C86.6996 123 99.9996 110.8 121.2 97.2001C134.3 88.8001 148 81.4001 162.2 75.0001C164 74.2001 165.8 73.7001 167.7 73.4001L178.3 71.8001C202.8 69.6001 225.5 79.4001 232.1 95.0001C233.5 98.1001 235.5 107.5 237.5 120C237.8 122.1 238 124.2 238 126.3C237.9 141.6 237.7 157.4 233.7 165.2C232.5 167.6 230.6 170.7 228.1 170.2C225.6 169.7 223.7 165.1 222.4 156.7C222.1 168.6 220.6 175.5 218 178C217.2 178.8 216.1 179.2 215 179.1C209.4 178.7 206.2 163.6 205.5 148.9V147.9C204.5 160.1 202.2 170.6 197.4 170.9C196.4 171 195.4 170.6 194.7 169.9C190.9 166.5 189.8 153.9 189.1 139.3C188.3 149.4 186.5 159.7 182.7 162.9C181.7 163.9 180.2 164.3 178.8 164C172.7 162.9 172.6 153.6 172.5 141.8C172.5 139.8 172.5 137.7 172.4 135.5C172.1 128 171.3 120.5 170 113.2C167.9 112 159.1 106.9 156.2 102.3H138C137.4 102.3 137 101.9 137 101.3C137 100.7 137.4 100.3 138 100.3H157.1C157.5 100.3 157.8 100.5 158 100.8C160.5 105.5 171.6 111.6 171.8 111.6C172.1 111.7 172.2 112 172.3 112.3C173.6 119.9 174.4 127.7 174.8 135.4C174.9 137.5 174.9 139.7 174.9 141.7C175 152.1 175 161.2 179.5 161.9C180.3 162 181.1 161.8 181.7 161.2C187.8 155.9 188.3 126.7 187.9 115.8C187.9 115.2 188.3 114.8 188.8 114.7C189.4 114.7 189.8 115.1 189.9 115.6C189.9 115.7 190.8 123.3 191.1 133.3C191.5 145 192.2 164.6 196.2 168.2C196.5 168.5 197 168.7 197.4 168.7C199 168.6 202.8 165.7 204 140.8C204.7 126.7 204.2 112.6 204.2 112.5C204.2 111.9 204.6 111.5 205.2 111.5C205.8 111.5 206.2 111.9 206.2 112.5C206.2 112.7 206.9 131.2 207.7 148.7C208.5 166.2 212.2 176.8 215.3 177C215.8 177 216.4 176.8 216.8 176.4C218.7 174.6 220.9 168.2 220.6 147.7C220.6 143.2 220.4 138.6 220.2 134.3C219.8 129.2 219.5 123.6 219.2 117.5C219.1 115.5 219 113.6 218.9 111.9C218.9 111.4 219.3 110.9 219.8 110.8C220.3 110.8 220.8 111.2 220.9 111.7C220.9 111.8 221.8 122.3 222.3 135.1C222.7 140.3 223.1 145.4 223.7 150.1C225.6 165.8 227.8 167.9 228.7 168.1C229.3 168.2 230.5 167.3 232.1 164.2C235.9 156.8 236.1 141.2 236.2 126.2C236.2 124.2 236.1 122.2 235.8 120.2C233.8 107.8 231.8 98.7001 230.5 95.7001C224.1 80.9001 202.4 71.7001 178.7 73.7001L168.1 75.3001C166.4 75.6001 164.7 76.0001 163.1 76.7001C149.1 82.8001 94.6996 110.4 83.6996 134.4C77.6996 147.4 78.6996 161 86.1996 169.9C93.2996 178.3 104.8 181.2 117.8 177.7C118.3 177.6 118.9 177.9 119 178.4C119.1 178.9 118.8 179.5 118.3 179.6C114.7 180.8 111 181.3 107.3 181.3Z" fill="#0C41E2"/>
<path d="M283.97 367.688C286.695 350.897 275.292 335.076 258.501 332.351C241.711 329.626 225.89 341.029 223.165 357.819C220.44 374.61 231.842 390.431 248.633 393.156C265.424 395.881 281.245 384.479 283.97 367.688Z" fill="#6A90FF"/>
<path d="M252.5 373.2C252.1 373.2 251.8 373 251.6 372.7C247.9 366.5 242.5 361.5 236.1 358.1C235.6 357.9 235.4 357.3 235.6 356.8C235.8 356.3 236.4 356.1 236.9 356.3C243.3 359.6 248.7 364.5 252.6 370.5C256.8 365.7 274.8 345.9 288.6 340.9C289.1 340.7 289.7 341 289.9 341.5C290.1 342 289.8 342.6 289.3 342.8C274.4 348.2 253.4 372.6 253.2 372.8C253.1 373.1 252.8 373.2 252.5 373.2Z" fill="#0C41E2"/>
<path d="M317.2 282.4L290.5 298L320.8 362.4L347.1 353.1L317.2 282.4Z" fill="#0C41E2"/>
<path d="M384.2 251C384.2 251 325.7 278.7 344.4 306.5C363.1 334.3 402 299 402 299L384.2 251Z" fill="white"/>
<path d="M329 299.9C329 299.9 326.6 316.2 342 332.5L436.1 306.5C442 304.8 445.9 299.8 447.7 293.9C451.9 280.8 446.5 265.9 432.4 260.5C423.5 257.1 417.2 253.9 391.7 266.9C362.5 281.8 329 299.9 329 299.9Z" fill="#0C41E2"/>
<path d="M402 334.5C409.1 339.7 419.1 333.6 418 324.9C415.8 307.2 405.5 274.5 392.8 276.7C385 278 384.1 294.8 391 311.9C394.5 320.3 396 330 402 334.5Z" fill="white"/>
<path d="M383.4 335.7C392.7 347.3 401.2 342.8 399.1 327.5C397 311.9 383.6 287.8 374.4 291.1C370 292.7 368.6 304.6 375.2 319.8C378.5 327.1 378.9 330.1 383.4 335.7Z" fill="white"/>
<path d="M371.1 342.9C377.2 346.2 382.1 339.1 380.4 331.2C377.6 318.1 369.5 299.7 363.6 301.7C357.7 303.7 355.8 317.6 360.3 327C363.4 333.2 365.9 340.1 371.1 342.9Z" fill="white"/>
<path d="M417.6 321C418.6 322.5 419.8 323.9 421.3 325C428.2 330 437.7 324.1 436.6 315.7C434.4 298.7 423.3 274.5 414.7 277C411.1 278.1 407.8 281.7 407.5 288.3" fill="white"/>
<path d="M407.4 288.3C407.2 292.3 408.1 297.3 410.6 303.4C413.1 309.5 414.6 316.2 417.6 321" fill="white"/>
<path d="M408 242.5C412.5 241.5 417.2 242.5 420.9 245.2C427 249.8 437.8 256.4 448.1 256.4C468.9 256.4 472.3 281.1 433.1 276.2C418.2 273.8 409.5 266 409.5 266C409.5 266 389.5 274.8 380.6 265.8C368.3 253.4 394.4 245.6 408 242.5Z" fill="white"/>
<path d="M325.2 270.5L293.4 289.1L329.5 365.8L360.9 354.7L325.2 270.5Z" fill="#6A90FF"/>
<path d="M341.3 291.1H341.1C340.6 291 340.2 290.4 340.4 289.9C342.5 281.3 349.8 272.4 362 263.3C368.7 258.4 375.8 254 383.2 250.3C389.9 246.1 400.3 243.2 407.9 241.5C412.7 240.4 417.6 241.5 421.6 244.4C427.1 248.5 438 255.4 448.2 255.4C455.3 255.4 461.1 258.2 463.5 262.7C464.9 265.3 464.7 268.6 463 271C459 276.8 448.1 279 433.1 277.2C424.5 275.9 416.3 272.5 409.4 267.1C407.2 268 399 271.1 391.3 270.8C390.7 270.8 390.3 270.4 390.3 269.8C390.3 269.2 390.7 268.8 391.3 268.8C399.8 269.1 409 265.1 409.1 265.1C409.5 264.9 409.9 265 410.2 265.3C410.3 265.4 418.9 273 433.3 275.3C447.3 277 457.7 275.1 461.3 270C462.6 268.2 462.8 265.7 461.7 263.7C459.7 259.9 454.4 257.5 448.2 257.5C438 257.5 427.4 251.3 420.4 246.1C417 243.6 412.6 242.6 408.4 243.6C401 245.3 390.8 248.1 384.3 252.2H384C380.2 254.1 347.1 270.9 342.2 290.4C342.2 290.8 341.8 291.1 341.3 291.1Z" fill="#0C41E2"/>
<path d="M407.9 337.4C405.6 337.4 403.3 336.6 401.5 335.3C401.1 335 401 334.3 401.3 333.9C401.6 333.5 402.3 333.4 402.7 333.7C405.6 335.8 409.5 336 412.6 334.2C415.8 332.4 417.6 328.7 417.2 325C415.3 310.2 408 286 398.9 279.3C397.3 278 395.2 277.3 393.2 277.6C392.6 277.7 392.1 277.3 392 276.8C391.9 276.2 392.3 275.7 392.8 275.6C395.4 275.2 398 276 400.1 277.6C410 285 417.3 310 419.2 324.6C419.9 330.8 415.5 336.5 409.3 337.2C408.7 337.3 408.3 337.4 407.9 337.4Z" fill="#0C41E2"/>
<path d="M393.2 343.2C390 343.2 386.2 340.8 382.6 336.3C382.3 335.9 382.3 335.2 382.7 334.9C383.1 334.6 383.8 334.6 384.1 335.1C388 339.9 392 342.1 394.7 340.9C397.7 339.6 398.9 334.5 398 327.6C396.2 314.6 387.2 297.5 379.7 292.9C377.8 291.8 376.1 291.4 374.7 292C374.2 292.2 373.6 291.8 373.5 291.3C373.4 290.8 373.6 290.3 374.1 290.1C376.1 289.4 378.4 289.7 380.8 291.2C389.6 296.6 398.4 315 400.1 327.3C401.2 335.3 399.5 341 395.6 342.7C394.9 343 394 343.2 393.2 343.2Z" fill="#0C41E2"/>
<path d="M374.2 344.7C373 344.7 371.8 344.3 370.7 343.7C365.9 341.1 363.3 335.4 360.7 329.9C360.3 329 359.9 328.2 359.5 327.3C356.5 320.9 356 311.9 358.6 305.9C359.7 303.2 361.4 301.4 363.4 300.7C364.6 300.3 366 300.5 367 301.2C373.3 304.7 379.3 321.1 381.5 331C382.6 336 381.2 341 378 343.4C376.9 344.3 375.5 344.7 374.2 344.7ZM371.6 342C373.2 343 375.3 342.9 376.8 341.8C379.3 339.9 380.4 335.6 379.5 331.4C377.1 320.2 371 305.7 366 302.9C365.4 302.5 364.7 302.4 364 302.6C362.6 303.1 361.3 304.5 360.4 306.7C358.1 312.1 358.5 320.7 361.3 326.5L362.5 329.1C364.9 334.3 367.4 339.7 371.6 342Z" fill="#0C41E2"/>
<path d="M426.8 327.9C424.6 327.9 422.5 327.2 420.7 325.9C420.2 325.6 420.1 325 420.3 324.5C420.5 324 421.2 323.9 421.7 324.1C421.8 324.1 421.8 324.2 421.9 324.2C424.7 326.2 428.4 326.4 431.3 324.6C434.4 322.8 436.1 319.4 435.6 315.8C433.9 302.6 426.2 283.5 418.9 278.8C417.8 278 416.4 277.6 415.1 277.9C414.6 278.1 414 277.8 413.9 277.2C413.7 276.7 414 276.1 414.6 276C416.5 275.5 418.6 275.9 420.1 277.1C428 282.2 435.9 301.6 437.7 315.5C438.4 321.5 434.2 327 428.2 327.7C427.7 327.9 427.2 327.9 426.8 327.9Z" fill="#0C41E2"/>
<path d="M193.199 352.4L211.699 359.3L193.399 360.7L193.199 352.4Z" fill="#0C41E2"/>
<path d="M205.899 333.3L216.899 346.6L202.399 339.5L205.899 333.3Z" fill="#0C41E2"/>
<path d="M183.6 377.7L212.8 374.6L187.8 389.9L183.6 377.7Z" fill="#0C41E2"/>
<path d="M202.199 399.5L218.099 389.4L209.999 405.7L202.199 399.5Z" fill="#0C41E2"/>
<path d="M224.199 410.4L230.399 398.8L231.099 411.4L224.199 410.4Z" fill="#0C41E2"/>
</svg>
