<svg width="500" height="500" viewBox="0 0 500 500" fill="none" xmlns="http://www.w3.org/2000/svg">
<path fill-rule="evenodd" clip-rule="evenodd" d="M247.21 10.7009C296.065 8.13165 346.103 -13.0542 390.314 12.42C438.811 40.3647 481.918 90.8911 495.929 154.014C509.711 216.108 485.969 280.181 462.54 337.82C441.911 388.57 410.802 430.929 371.27 460.687C334.009 488.736 290.991 501.203 247.21 499.909C204.281 498.639 164.762 479.384 127.447 453.477C85.6922 424.487 41.2588 395.126 20.3353 342.393C-2.12257 285.793 -6.84281 217.982 10.5165 158.777C27.631 100.406 67.5656 55.3161 112.805 27.0142C153.867 1.32618 201.101 13.1258 247.21 10.7009Z" fill="#EDF1FE"/>
<path d="M341.9 163.3H363.6L420 353.6H398.4L341.9 163.3Z" fill="#6A90FF"/>
<path d="M420 354.1H398.4C398.2 354.1 398 354 397.9 353.7L341.5 163.4C341.5 163.3 341.5 163.1 341.6 163C341.7 162.9 341.8 162.8 342 162.8H363.6C363.8 162.8 364 162.9 364.1 163.2L420.5 353.5C420.5 353.7 420.5 353.8 420.4 353.9C420.3 354.1 420.2 354.1 420 354.1ZM398.7 353.1H419.3L363.2 163.8H342.6L398.7 353.1Z" fill="#0C41E2"/>
<path d="M149 163.3H170.7L227.1 353.6H205.5L149 163.3Z" fill="#6A90FF"/>
<path d="M227.1 354.1H205.5C205.3 354.1 205.1 354 205 353.7L148.5 163.4C148.5 163.2 148.5 163.1 148.6 163C148.7 162.9 148.8 162.8 149 162.8H170.7C170.9 162.8 171.1 162.9 171.2 163.2L227.6 353.5C227.6 353.7 227.6 353.8 227.5 353.9C227.4 354 227.3 354.1 227.1 354.1ZM205.8 353.1H226.4L170.2 163.8H149.6L205.8 353.1Z" fill="#0C41E2"/>
<path d="M341.901 163.3H363.601L319.301 353.6H297.601L341.901 163.3Z" fill="white"/>
<path d="M319.3 354.1H297.7C297.5 354.1 297.4 354 297.3 353.9C297.2 353.8 297.2 353.6 297.2 353.5L341.5 163.2C341.6 163 341.8 162.8 342 162.8H363.6C363.8 162.8 363.9 162.9 364 163C364.1 163.1 364.1 163.3 364.1 163.4L319.8 353.7C319.7 354 319.5 354.1 319.3 354.1ZM298.3 353.1H318.9L362.9 163.8H342.3L298.3 353.1Z" fill="#0C41E2"/>
<path d="M149 163.3H170.7L126.4 353.6H104.7L149 163.3Z" fill="white"/>
<path d="M126.401 354.1H104.801C104.601 354.1 104.501 354 104.401 353.9C104.301 353.8 104.301 353.6 104.301 353.5L148.601 163.2C148.701 163 148.801 162.8 149.101 162.8H170.801C171.101 162.8 171.301 163 171.301 163.3V163.4L127.001 353.7C126.801 354 126.601 354.1 126.401 354.1ZM105.401 353.1H126.001L170.001 163.8H149.401L105.401 353.1Z" fill="#0C41E2"/>
<path d="M377.9 182.4H127.4L110.2 256.5H360.6L377.9 182.4Z" fill="white"/>
<path d="M360.6 257H110.2C110 257 109.9 256.9 109.8 256.8C109.7 256.7 109.7 256.5 109.7 256.4L127 182.3C127 182.1 127.2 181.9 127.5 181.9H377.9C378.1 181.9 378.2 182 378.3 182.1C378.4 182.2 378.4 182.4 378.4 182.5L361.2 256.6C361.1 256.8 360.9 257 360.6 257ZM110.8 256H360.2L377.2 182.9H127.8L110.8 256Z" fill="#0C41E2"/>
<path d="M353 289.2H102.6L96 317.5H346.4L353 289.2Z" fill="white"/>
<path d="M346.4 318H96C95.8 318 95.7 317.9 95.6 317.8C95.5 317.7 95.5 317.5 95.5 317.4L102.1 289.1C102.1 288.9 102.4 288.7 102.6 288.7H353C353.2 288.7 353.3 288.8 353.4 288.9C353.5 289 353.5 289.2 353.5 289.3L346.9 317.6C346.9 317.8 346.7 318 346.4 318ZM96.6 317H346L352.4 289.7H103L96.6 317Z" fill="#0C41E2"/>
<path d="M179.401 213.1L242.401 153.1C246.001 149.6 251.801 149.8 255.201 153.4C255.501 153.7 255.801 154 256.001 154.4L298.701 214.6C301.501 218.5 300.701 223.8 297.101 226.9L231.801 280.8C227.901 284 222.201 283.4 219.001 279.5C218.901 279.4 218.801 279.3 218.801 279.2L178.401 225.2C175.701 221.5 176.101 216.3 179.401 213.1Z" fill="#6A90FF"/>
<path d="M226.101 283.3C223.101 283.3 220.201 281.9 218.401 279.5L178.001 225.5C175.101 221.6 175.601 216.2 179.101 212.8L242.101 152.8C245.901 149.2 252.001 149.3 255.601 153.1C255.901 153.4 256.201 153.8 256.501 154.2L299.201 214.4C302.101 218.5 301.301 224.1 297.501 227.3L232.201 281.2C230.501 282.5 228.301 283.3 226.101 283.3ZM248.701 151.1C246.501 151.1 244.401 151.9 242.801 153.5L179.801 213.5C176.701 216.5 176.201 221.4 178.801 224.8L219.201 278.8C222.001 282.6 227.401 283.4 231.201 280.5C231.301 280.4 231.401 280.3 231.501 280.2L296.801 226.3C300.201 223.4 300.901 218.4 298.301 214.7L255.601 154.5C254.201 152.5 251.901 151.2 249.401 150.9C249.201 151.1 248.901 151.1 248.701 151.1Z" fill="#0C41E2"/>
<path d="M234.801 234.4H233.001C230.801 234.4 229.101 232.7 229.101 230.5C229.101 230.3 229.101 230.2 229.101 230L234.801 186.6C235.101 184.7 236.701 183.2 238.701 183.2H246.101C248.301 183.2 250.001 184.9 250.001 187.1C250.001 187.4 250.001 187.8 249.901 188.1L238.601 231.5C238.101 233.2 236.501 234.4 234.801 234.4Z" fill="white"/>
<path d="M234.801 235H233.001C230.601 235 228.601 233 228.601 230.6C228.601 230.4 228.601 230.2 228.601 230L234.301 186.6C234.601 184.4 236.501 182.8 238.701 182.8H246.101C248.501 182.8 250.501 184.8 250.501 187.2C250.501 187.6 250.501 187.9 250.401 188.3L239.001 231.6C238.501 233.6 236.801 235 234.801 235ZM238.601 183.7C236.901 183.7 235.401 185 235.201 186.7L229.501 230.1C229.301 232 230.601 233.7 232.401 233.9C232.501 233.9 232.701 233.9 232.801 233.9H234.601C236.201 233.9 237.501 232.9 237.901 231.3L249.101 187.8C249.601 186 248.501 184.1 246.701 183.6C246.401 183.5 246.101 183.5 245.801 183.5L238.601 183.7Z" fill="#0C41E2"/>
<path d="M237.559 250.867C240.34 246.549 239.808 241.254 236.372 239.041C232.936 236.829 227.896 238.536 225.115 242.854C222.334 247.173 222.866 252.468 226.302 254.68C229.738 256.893 234.778 255.186 237.559 250.867Z" fill="white"/>
<path d="M229.6 256.2C227.6 256.2 225.7 255.4 224.5 253.8C223 251.8 222.4 249.2 223 246.8C224 241.7 228.4 237.6 233 237.6C235 237.6 236.9 238.4 238.1 240C239.6 242 240.2 244.6 239.6 247C238.7 252 234.2 256.2 229.6 256.2ZM233 238.6C228.9 238.6 224.9 242.4 224 247C223.5 249.2 224 251.4 225.3 253.2C226.4 254.5 228 255.2 229.7 255.2C233.8 255.2 237.8 251.4 238.7 246.8C239.2 244.6 238.7 242.4 237.4 240.6C236.3 239.3 234.7 238.5 233 238.6Z" fill="#0C41E2"/>
<path d="M287.1 353.6H322.6C326.2 353.6 329.1 356.5 329.1 360.1C329.1 360.5 329.1 361 329 361.4L327.2 370.2H278.5L280.9 358.8C281.4 355.8 284 353.6 287.1 353.6Z" fill="white"/>
<path d="M327.1 370.7H278.4C278.1 370.7 277.9 370.5 277.9 370.2V370.1L280.3 358.7C281 355.5 283.8 353.2 287.1 353.2H322.6C326.5 353.2 329.6 356.4 329.6 360.2C329.6 360.7 329.6 361.1 329.5 361.6L327.7 370.4C327.5 370.5 327.3 370.7 327.1 370.7ZM279 369.7H326.7L328.5 361.3C329.2 358.1 327.1 354.9 323.8 354.2C323.4 354.1 323 354.1 322.6 354.1H287.1C284.3 354.1 281.8 356.1 281.2 358.9L279 369.7Z" fill="#0C41E2"/>
<path d="M96.6004 353.6H132.1C135.7 353.6 138.6 356.5 138.6 360.1C138.6 360.5 138.6 361 138.5 361.4L136.7 370.2H87.9004L90.3004 358.8C90.9004 355.8 93.5004 353.6 96.6004 353.6Z" fill="white"/>
<path d="M136.6 370.7H87.9004C87.7004 370.7 87.6004 370.6 87.5004 370.5C87.4004 370.4 87.4004 370.2 87.4004 370.1L89.8004 358.7C90.5004 355.5 93.3004 353.2 96.6004 353.2H132.1C136 353.2 139.1 356.4 139.1 360.2C139.1 360.7 139.1 361.1 139 361.6L137.2 370.4C137 370.5 136.8 370.7 136.6 370.7ZM88.5004 369.7H136.2L138 361.3C138.7 358.1 136.6 354.9 133.3 354.2C132.9 354.1 132.5 354.1 132.1 354.1H96.6004C93.8004 354.1 91.3004 356.1 90.8004 358.9L88.5004 369.7Z" fill="#0C41E2"/>
<path d="M392.7 353.6H428.2C431.8 353.6 434.7 356.5 434.7 360.1C434.7 360.5 434.7 361 434.6 361.4L432.8 370.2H384L386.4 358.8C387 355.8 389.6 353.6 392.7 353.6Z" fill="#6A90FF"/>
<path d="M432.7 370.7H384C383.8 370.7 383.7 370.6 383.6 370.5C383.5 370.4 383.5 370.2 383.5 370.1L385.9 358.7C386.6 355.5 389.4 353.2 392.7 353.2H428.2C432.1 353.2 435.2 356.4 435.2 360.2C435.2 360.7 435.2 361.1 435.1 361.6L433.3 370.4C433.2 370.5 432.9 370.7 432.7 370.7ZM384.6 369.7H432.3L434.1 361.3C434.8 358.1 432.7 354.9 429.4 354.2C429 354.1 428.6 354.1 428.2 354.1H392.7C389.9 354.1 387.4 356.1 386.8 358.9L384.6 369.7Z" fill="#0C41E2"/>
<path d="M202.201 353.6H237.701C241.301 353.6 244.201 356.5 244.201 360.1C244.201 360.5 244.201 361 244.101 361.4L242.301 370.2H193.601L196.001 358.8C196.501 355.8 199.101 353.6 202.201 353.6Z" fill="#6A90FF"/>
<path d="M242.2 370.7H193.5C193.2 370.7 193 370.5 193 370.2V370.1L195.4 358.7C196.1 355.5 198.9 353.2 202.2 353.2H237.7C241.6 353.2 244.7 356.4 244.7 360.2C244.7 360.7 244.7 361.1 244.6 361.6L242.8 370.4C242.6 370.5 242.4 370.7 242.2 370.7ZM194.1 369.7H241.8L243.6 361.3C244.3 358.1 242.2 354.9 238.9 354.2C238.5 354.1 238.1 354.1 237.7 354.1H202.2C199.4 354.1 196.9 356.1 196.3 358.9L194.1 369.7Z" fill="#0C41E2"/>
</svg>
