<svg width="500" height="500" viewBox="0 0 500 500" fill="none" xmlns="http://www.w3.org/2000/svg">
<path fill-rule="evenodd" clip-rule="evenodd" d="M275.351 22.419C341.03 13.7101 418.729 -22.4539 466.73 20.887C514.769 64.2611 471.469 139.345 474.403 202.143C477.608 270.779 523.254 342.134 484.446 400.178C441.05 465.088 356.433 497.558 275.351 499.868C192.057 502.242 107.401 472.481 53.2815 412.466C2.22554 355.849 -9.43636 274.98 6.86977 202.143C20.5537 141.019 77.1039 101.471 130.978 65.4071C173.803 36.7393 223.415 29.3057 275.351 22.419Z" fill="#FCE0E0"/>
<path d="M45.9002 282.1C36.0002 257.4 58.7002 249.9 58.7002 249.9C60.0002 245.1 61.4002 240.1 64.7002 236.3C68.0002 232.5 73.7002 230.4 78.1002 232.7C81.9002 225.1 92.6002 223.1 100.2 226.8C101 227.2 101.9 227.6 102.8 227.4C103.3 227.3 103.7 226.9 104.1 226.5C110.5 221.1 120.8 221 127.2 226.4C127.2 226.4 140 213.8 160.4 220.7C160.4 220.7 225.6 211.5 250.7 233.4C250.7 233.4 289.3 234.8 293.8 259.6C293.8 259.6 310.7 258.8 308.5 285.1" fill="white"/>
<path d="M308.4 285.7C308.1 285.7 307.9 285.4 307.9 285.2C308.7 275.6 307.1 268.5 303 264.3C298.9 260.1 293.8 260.3 293.8 260.3C293.5 260.3 293.3 260.1 293.3 259.9C288.9 235.7 251.1 234.1 250.7 234.1C250.6 234.1 250.5 234 250.4 234C225.8 212.4 161.1 221.3 160.5 221.4C160.4 221.4 160.3 221.4 160.3 221.4C140.4 214.7 127.7 226.8 127.6 227C127.4 227.2 127.1 227.2 126.9 227C120.7 221.8 110.6 221.8 104.5 227.1L104.4 227.2C104 227.5 103.6 227.9 103 228.1C102 228.4 101 227.9 100.2 227.5C93 224.1 82.5 225.5 78.7 233.1C78.6 233.2 78.5 233.3 78.4 233.3C78.3 233.3 78.1 233.3 78 233.3C73.7 231 68.2 233.4 65.2 236.8C61.9 240.6 60.5 245.9 59.3 250.2C59.3 250.4 59.1 250.5 59 250.6C58.9 250.6 49.8 253.7 45.9 262.1C43.3 267.7 43.5 274.4 46.6 282.1C46.7 282.4 46.6 282.6 46.3 282.7C46 282.8 45.8 282.7 45.6 282.4C42.4 274.5 42.2 267.5 45 261.6C48.8 253.5 56.9 250.2 58.5 249.6C59.7 245.3 61.1 240 64.5 236.1C67.6 232.5 73.3 230 78 232.2C82.3 224.5 93.2 223 100.6 226.5C101.4 226.9 102.2 227.3 102.8 227.1C103.1 227 103.5 226.7 103.8 226.4L103.9 226.3C110.3 220.8 120.7 220.7 127.3 225.9C129.5 224 142 214.2 160.6 220.4C163.7 220 226.5 211.9 251.1 233.2C254 233.3 289.7 235.7 294.4 259.4C295.8 259.4 300.3 259.9 304 263.7C308.3 268.2 310 275.4 309.2 285.4C308.9 285.6 308.6 285.8 308.4 285.7Z" fill="#282828"/>
<path d="M280.4 170.1C280.2 170.1 280 170 279.9 169.9C279.8 169.8 279.8 169.6 279.8 169.5L291.1 138.2C291.1 138.1 291.2 138 291.4 137.9C291.5 137.8 291.7 137.8 291.8 137.9C292.3 138.1 303.9 142.9 313.7 131.9C321.6 123 330 102.5 333.3 94.1997C333.7 93.1997 334.5 92.3998 335.6 91.9998C336.7 91.6998 337.8 91.7998 338.7 92.3998L345 96.4998C347 97.7998 348.1 100.1 347.9 102.6C347.3 110.4 344.3 126.3 331.3 145C314.2 169.7 282.3 170.1 280.4 170.1ZM291.9 138.9L281 169.1C285.9 169 314.7 167.3 330.5 144.4C343.3 125.9 346.3 110.2 346.9 102.5C347.1 100.4 346.1 98.4998 344.4 97.3998L338.1 93.2998C337.4 92.8998 336.6 92.6998 335.8 92.9998C335 93.1998 334.4 93.7998 334.1 94.5998C330.8 103 322.3 123.6 314.3 132.6C309 138.7 303 140 298.9 140.2C295.6 140.1 292.9 139.3 291.9 138.9Z" fill="#FF6262"/>
<path d="M265.7 44.3999L259.4 40.2999C257.4 38.9999 254.8 38.8999 252.7 39.9999C245.8 43.6999 232.4 52.6999 220.3 71.9999C203.9 98.1999 217.3 128.5 217.4 128.8C217.5 128.9 217.6 129.1 217.8 129.1H217.9C218 129.1 218.1 129.1 218.2 129L242.5 106.2C242.6 106.1 242.7 106 242.7 105.8C242.7 105.7 242.6 105.5 242.5 105.4C242.5 105.4 240.1 103.1 238.5 99.1999C236.4 93.9999 236.7 88.4999 239.3 82.8999C244.4 72.0999 259.8 56.2999 266.2 49.8999C267 49.0999 267.4 47.9999 267.3 46.8999C267.2 45.9999 266.6 44.9999 265.7 44.3999ZM265.6 49.2999C259.2 55.6999 243.7 71.5999 238.5 82.4999C232.6 94.8999 239.7 103.8 241.5 105.7L218.1 127.6C216.3 123.1 206.4 95.8999 221.2 72.3999C233.1 53.2999 246.4 44.3999 253.2 40.6999C254 40.2999 254.9 39.9999 255.8 39.9999C256.9 39.9999 257.9 40.2999 258.8 40.8999L265.1 44.9999C265.8 45.4999 266.2 46.1999 266.3 46.9999C266.4 47.9999 266.2 48.7999 265.6 49.2999Z" fill="#FF6262"/>
<path d="M280.4 170.1C280.2 170.1 280 170 279.9 169.9C279.8 169.8 279.8 169.6 279.8 169.5L291.1 138.2C291.1 138.1 291.2 138 291.4 137.9C291.5 137.8 291.7 137.8 291.8 137.9C292.3 138.1 303.9 142.9 313.7 131.9C321.6 123 330 102.5 333.3 94.1997C333.7 93.1997 334.5 92.3998 335.6 91.9998C336.7 91.6998 337.8 91.7998 338.7 92.3998L345 96.4998C347 97.7998 348.1 100.1 347.9 102.6C347.3 110.4 344.3 126.3 331.3 145C314.2 169.7 282.3 170.1 280.4 170.1ZM291.9 138.9L281 169.1C285.9 169 314.7 167.3 330.5 144.4C343.3 125.9 346.3 110.2 346.9 102.5C347.1 100.4 346.1 98.4998 344.4 97.3998L338.1 93.2998C337.4 92.8998 336.6 92.6998 335.8 92.9998C335 93.1998 334.4 93.7998 334.1 94.5998C330.8 103 322.3 123.6 314.3 132.6C309 138.7 303 140 298.9 140.2C295.6 140.1 292.9 139.3 291.9 138.9Z" fill="#282828"/>
<path d="M265.7 44.3999L259.4 40.2999C257.4 38.9999 254.8 38.8999 252.7 39.9999C245.8 43.6999 232.4 52.6999 220.3 71.9999C203.9 98.1999 217.3 128.5 217.4 128.8C217.5 128.9 217.6 129.1 217.8 129.1H217.9C218 129.1 218.1 129.1 218.2 129L242.5 106.2C242.6 106.1 242.7 106 242.7 105.8C242.7 105.7 242.6 105.5 242.5 105.4C242.5 105.4 240.1 103.1 238.5 99.1999C236.4 93.9999 236.7 88.4999 239.3 82.8999C244.4 72.0999 259.8 56.2999 266.2 49.8999C267 49.0999 267.4 47.9999 267.3 46.8999C267.2 45.9999 266.6 44.9999 265.7 44.3999ZM265.6 49.2999C259.2 55.6999 243.7 71.5999 238.5 82.4999C232.6 94.8999 239.7 103.8 241.5 105.7L218.1 127.6C216.3 123.1 206.4 95.8999 221.2 72.3999C233.1 53.2999 246.4 44.3999 253.2 40.6999C254 40.2999 254.9 39.9999 255.8 39.9999C256.9 39.9999 257.9 40.2999 258.8 40.8999L265.1 44.9999C265.8 45.4999 266.2 46.1999 266.3 46.9999C266.4 47.9999 266.2 48.7999 265.6 49.2999Z" fill="#282828"/>
<path d="M291.9 138.9L281 169.1C285.9 169 314.7 167.3 330.5 144.4C343.3 125.9 346.3 110.2 346.9 102.5C347.1 100.4 346.1 98.4999 344.4 97.3999L338.1 93.2999C337.4 92.8999 336.6 92.6999 335.8 92.9999C335 93.1999 334.4 93.7999 334.1 94.5999C330.8 103 322.3 123.6 314.3 132.6C309 138.7 303 140 298.9 140.2C295.6 140.1 292.9 139.3 291.9 138.9Z" fill="white"/>
<path d="M266.4 47.2001C266.5 48.0001 266.2 48.8001 265.6 49.4001C259.2 55.8001 243.7 71.7001 238.5 82.6001C232.6 95.0001 239.7 103.9 241.5 105.8L218.1 127.7C216.3 123.2 206.4 96.0001 221.2 72.5001C233.1 53.4001 246.4 44.5001 253.2 40.8001C254 40.4001 254.9 40.1001 255.8 40.1001C256.9 40.1001 257.9 40.4001 258.8 41.0001L265.1 45.1001C265.8 45.6001 266.3 46.3001 266.4 47.2001Z" fill="white"/>
<path d="M295.2 138.3C295.2 138.3 295.2 138.6 295 139.2C294.3 142 291.6 151.3 282.5 169.6C274.8 185 262.5 206.8 243 236.5C233.3 251.2 223.6 263.9 214.2 274.8C212.8 273.9 211.3 273.1 209.7 272.7C207.4 272 204.9 271.9 202.4 272.1C194.3 272.7 186.3 276.3 180.6 282.1C177.5 274.9 168.8 270.6 161.2 272.5C160.5 272.7 159.7 272.9 159 272.7C158.2 272.5 157.6 271.7 157.1 271C153 265.3 147.9 259.3 140.9 258.6C139.5 258.5 138.1 258.6 136.7 258.9C143.7 239 155.1 215.6 171.9 189.9C191.2 160.5 206.3 140.7 217.4 127.5C230.3 112.1 237.8 105.7 240.4 103.8C241.1 103.3 241.4 103.1 241.4 103.1C241.4 103.1 243.6 99.7 263 111.4C265.4 112.8 268.1 114.6 271.1 116.5C274.4 118.7 277.3 120.7 279.8 122.4C297.4 135 295.2 138.3 295.2 138.3Z" fill="white"/>
<path d="M180.6 282.6C180.4 282.6 180.2 282.5 180.1 282.3C177.1 275.3 168.6 271.2 161.3 272.9L161.1 273C160.4 273.2 159.6 273.4 158.9 273.1C158 272.8 157.4 272.1 156.8 271.2C152.8 265.5 147.7 259.7 140.9 259C139.5 258.9 138.2 259 136.9 259.3C136.7 259.3 136.5 259.3 136.4 259.2C136.3 259.1 136.2 258.9 136.3 258.7C144.1 236.6 156 213.3 171.6 189.6C188.2 164.3 203.6 143.2 217.1 127.1C230 111.7 237.5 105.3 240.2 103.3C240.7 102.9 241 102.7 241.1 102.6C241.7 101.8 245.3 99.9998 263.3 110.8C265.8 112.3 268.5 114 271.4 115.9C274.5 118 277.5 120 280.1 121.9C296.4 133.7 296.1 137.7 295.7 138.5C295.7 138.6 295.6 138.9 295.5 139.4C294.9 141.8 292.2 151.3 283 169.9C273.5 188.8 260.2 211.4 243.5 236.9C234.3 250.9 224.6 263.8 214.6 275.3C214.4 275.5 214.2 275.5 214 275.4C212.6 274.4 211.1 273.8 209.7 273.3C207.7 272.7 205.3 272.5 202.6 272.7C194.6 273.3 186.7 276.8 181.1 282.5C180.9 282.5 180.7 282.6 180.6 282.6ZM164.8 271.5C171.3 271.5 177.9 275.4 180.8 281.2C186.6 275.6 194.4 272.1 202.4 271.6C205.3 271.4 207.7 271.6 209.8 272.2C211.3 272.6 212.7 273.3 214 274.2C223.8 262.8 233.4 250.1 242.5 236.2C259.3 210.7 272.5 188.2 282 169.3C291.2 150.8 293.9 141.5 294.5 139.1C294.6 138.5 294.7 138.2 294.7 138.2C294.7 138.1 294.7 138.1 294.7 138.1C294.7 138 295.6 134.4 279.4 122.7C276.8 120.8 273.9 118.8 270.8 116.8C267.9 114.9 265.2 113.2 262.7 111.7C244.5 100.8 241.8 103.3 241.7 103.3C241.7 103.4 241.6 103.4 241.6 103.4C241.6 103.4 241.3 103.6 240.6 104.1C238 106.1 230.5 112.5 217.7 127.8C204.2 143.9 188.9 164.9 172.3 190.2C156.9 213.6 145.2 236.4 137.4 258.3C138.5 258.1 139.7 258.1 140.9 258.2C148 258.9 153.3 265 157.5 270.8C158 271.5 158.5 272.1 159.1 272.3C159.6 272.4 160.2 272.3 160.8 272.2L161 272.1C162.3 271.6 163.5 271.5 164.8 271.5Z" fill="#282828"/>
<path d="M249.4 149.3C249.4 149.3 249.1 132.4 263.1 111C273.6 94.9997 288.8 78.1997 295.7 70.7997C297.8 68.4997 301.3 68.0997 303.9 69.7997C306.6 71.5997 307.5 74.9997 306.1 77.8997C301.8 86.6997 292.1 105.5 279.8 122.1C263.1 144.8 249.4 149.3 249.4 149.3Z" fill="#FF6262"/>
<path d="M249.401 149.8C249.301 149.8 249.201 149.8 249.101 149.7C249.001 149.6 248.901 149.5 248.901 149.3C248.901 149.1 248.701 132 262.701 110.7C273.001 95.0001 287.601 78.8001 295.301 70.5001C297.601 68.0001 301.301 67.6001 304.101 69.4001C307.001 71.3001 308.001 75.1001 306.501 78.2001C301.901 87.7001 292.301 106.1 280.101 122.5C263.501 145 250.001 149.6 249.501 149.8C249.501 149.8 249.501 149.8 249.401 149.8ZM300.401 69.3001C298.801 69.3001 297.301 69.9001 296.101 71.2001C289.901 77.9001 274.201 95.1001 263.601 111.3C251.401 129.8 250.101 145.1 250.001 148.5C252.901 147.3 265.101 141.2 279.501 121.8C291.601 105.5 301.101 87.1001 305.801 77.7001C307.101 75.0001 306.201 71.8001 303.701 70.2001C302.701 69.7001 301.501 69.3001 300.401 69.3001Z" fill="#282828"/>
<path d="M199.786 259.866C207.221 248.561 206.067 234.673 197.207 228.846C188.348 223.019 175.138 227.46 167.703 238.765C160.268 250.07 161.422 263.958 170.282 269.785C179.141 275.612 192.351 271.171 199.786 259.866Z" fill="#FF6262"/>
<path d="M179.1 272.8C175.8 272.8 172.7 271.9 170 270.1C165.6 267.2 162.9 262.3 162.4 256.3C161.9 250.3 163.6 244 167.3 238.4C171 232.8 176.1 228.7 181.8 226.8C187.5 224.9 193.1 225.4 197.5 228.3C206.6 234.3 207.8 248.5 200.2 260C196.5 265.6 191.4 269.7 185.7 271.6C183.5 272.4 181.2 272.8 179.1 272.8ZM188.3 226.7C186.3 226.7 184.1 227.1 182 227.8C176.5 229.6 171.6 233.6 168 239C164.5 244.4 162.8 250.5 163.3 256.3C163.8 262 166.3 266.7 170.5 269.4C174.7 272.1 179.9 272.6 185.4 270.8C190.9 269 195.8 265 199.4 259.6C206.7 248.5 205.6 234.9 196.9 229.3C194.4 227.5 191.5 226.7 188.3 226.7Z" fill="#282828"/>
<path d="M124.9 269.2C124.8 269.2 124.7 269.2 124.7 269.2C124.5 269.1 124.4 268.8 124.5 268.5C127 263.4 131.7 259.5 136.6 258.3C136.9 258.2 137.1 258.4 137.2 258.7C137.3 259 137.1 259.2 136.8 259.3C132.1 260.4 127.7 264.1 125.3 269C125.2 269.1 125.1 269.2 124.9 269.2Z" fill="#282828"/>
<path d="M222.4 283.1C222.3 283.1 222.1 283 222 282.9C219.3 279.8 216.8 277.1 213.9 275.2C213.7 275.1 213.6 274.7 213.8 274.5C214 274.3 214.3 274.2 214.5 274.4C217.5 276.4 220.1 279.2 222.8 282.3C223 282.5 223 282.8 222.8 283C222.6 283.1 222.5 283.1 222.4 283.1Z" fill="#282828"/>
<path d="M130.7 262.1C130.6 262.1 130.4 262 130.3 261.9C127.9 259.1 125.5 256.2 122.4 254.3C118.7 252 114.2 251.2 109.8 252C105.6 252.8 101.5 255.1 98.6997 258.5C98.4997 258.7 98.1997 258.7 97.9997 258.6C97.7997 258.4 97.7997 258.1 97.8997 257.9C100.9 254.4 105.1 251.9 109.6 251.1C114.2 250.3 119 251.2 122.9 253.6C126.2 255.6 128.7 258.6 131.1 261.4C131.3 261.6 131.2 261.9 131 262.1C130.9 262.1 130.8 262.1 130.7 262.1Z" fill="#282828"/>
<path d="M260.4 262.6C260.2 262.6 260 262.5 259.9 262.3C259.1 260.7 258 259.3 256.6 258.2C255.5 257.3 254.2 256.5 252.4 255.6C246.1 252.7 236.8 251.3 229.7 256.1C229.5 256.2 229.2 256.2 229 256C228.8 255.8 228.9 255.5 229.1 255.3C236.5 250.2 246.2 251.7 252.8 254.7C254.7 255.6 256.1 256.4 257.3 257.4C258.8 258.6 260 260.1 260.8 261.8C260.9 262 260.8 262.3 260.6 262.5C260.6 262.5 260.5 262.5 260.4 262.6Z" fill="#282828"/>
<path d="M250.6 274.9C250.5 274.9 250.5 274.9 250.4 274.9C250.1 274.8 250 274.5 250.1 274.3C252.4 268.8 256.8 264.1 262.2 261.6C267.6 259.1 274 258.7 279.7 260.5C280 260.6 280.1 260.9 280 261.1C279.9 261.3 279.6 261.5 279.4 261.4C273.9 259.6 267.8 260 262.6 262.4C257.4 264.8 253.2 269.3 251 274.6C251 274.8 250.8 274.9 250.6 274.9Z" fill="#282828"/>
<path d="M134.6 241.7C131.1 240.8 127.4 239.9 123.7 240.3C120 240.7 117 242.4 114.7 245.1C113.4 246.7 112.3 248.4 111.3 250.2C110.9 250.9 112 251.6 112.4 250.8C114.6 247.2 117 243.4 121.3 242.1C125.6 240.8 130.1 241.5 134.4 242.3C134.9 242.4 135.1 241.8 134.6 241.7Z" fill="#282828"/>
<path d="M323.8 445.3L323.9 456.1C323.9 457.3 323.1 458.4 321.9 458.8L319.1 459.7C313.5 461.5 307.5 461.3 302 459.2L282.5 451.9C278.7 449.9 277.1 445.4 278.6 441.4C279.8 438.4 282.5 436.4 285.7 436.1L296.1 435.2C297.1 435.1 298.1 435.7 298.6 436.6C300.3 439.8 305.7 446.8 321.6 443.5C322.7 443.2 323.7 444.1 323.8 445.3Z" fill="#FF6262"/>
<path d="M311.8 457.9C311.1 457.9 310.3 457.9 309.6 457.8C302.8 457.1 280.3 448 279.4 447.6C279.1 447.5 279 447.2 279.1 447C279.2 446.8 279.5 446.6 279.7 446.7C279.9 446.8 303 456.2 309.7 456.8C316.2 457.4 321.2 454.8 321.3 454.7C321.5 454.6 321.8 454.7 322 454.9C322.1 455.1 322 455.4 321.8 455.6C321.6 455.7 317.5 457.9 311.8 457.9Z" fill="#282828"/>
<path d="M314.1 457.8C313.8 457.8 313.6 457.6 313.6 457.3C313.6 456.6 314.1 450.3 317.2 449.9C317.9 449.8 318.5 450 319 450.5C320.6 452 320.5 455.7 320.5 455.9C320.5 456.2 320.3 456.4 320 456.4C319.7 456.4 319.5 456.2 319.5 455.9C319.5 454.9 319.4 452.2 318.3 451.3C318 451 317.7 450.9 317.3 451C315.3 451.2 314.6 455.7 314.5 457.4C314.6 457.6 314.4 457.8 314.1 457.8Z" fill="#282828"/>
<path d="M293 439.6H292.9C292.6 439.5 292.5 439.3 292.5 439L294.1 432.3C294.2 432 294.4 431.9 294.7 431.9C295 432 295.1 432.2 295.1 432.5L293.5 439.2C293.5 439.4 293.3 439.6 293 439.6Z" fill="#282828"/>
<path d="M289.199 439.6H289.099C288.799 439.5 288.699 439.3 288.699 439L290.299 432.3C290.399 432 290.599 431.9 290.899 431.9C291.199 432 291.299 432.2 291.299 432.5L289.699 439.2C289.599 439.4 289.399 439.6 289.199 439.6Z" fill="#282828"/>
<path d="M405.3 442.2L407.6 452.7C407.9 453.9 407.3 455.1 406.2 455.7L403.6 457.1C398.5 460 392.6 461 386.8 460.1L366.2 456.9C362.1 455.7 359.6 451.6 360.3 447.4C360.8 444.3 363.1 441.7 366.1 440.8L376.1 437.8C377.1 437.5 378.2 437.8 378.9 438.7C381.2 441.6 387.9 447.2 402.8 440.8C403.8 440.4 405 441 405.3 442.2Z" fill="#FF6262"/>
<path d="M392.099 457.4C383.699 457.4 363.199 453.6 362.199 453.5C361.899 453.5 361.699 453.2 361.799 452.9C361.899 452.6 362.099 452.5 362.399 452.5C362.599 452.5 387.099 457 393.799 456.3C400.299 455.6 404.699 452 404.699 451.9C404.899 451.7 405.199 451.7 405.399 452C405.599 452.2 405.499 452.5 405.399 452.7C405.199 452.9 400.799 456.6 393.899 457.3C393.399 457.4 392.799 457.4 392.099 457.4Z" fill="#282828"/>
<path d="M398.3 456.4C398.1 456.4 397.8 456.2 397.8 456C397.7 455.3 396.8 449 399.9 448.1C400.5 447.9 401.2 448 401.7 448.3C403.5 449.4 404.2 453.1 404.3 453.3C404.3 453.6 404.2 453.8 403.9 453.9C403.6 453.9 403.4 453.8 403.3 453.5C403.1 452.5 402.4 449.9 401.2 449.2C400.9 449 400.6 449 400.2 449.1C398.3 449.7 398.6 454.4 398.8 455.9C398.8 456.1 398.7 456.3 398.3 456.4Z" fill="#282828"/>
<path d="M374 442.8C373.7 442.8 373.5 442.6 373.5 442.3L373.7 435.4C373.7 435.1 373.9 434.9 374.2 434.9C374.5 434.9 374.7 435.1 374.7 435.4L374.5 442.3C374.5 442.6 374.2 442.8 374 442.8Z" fill="#282828"/>
<path d="M370.199 443.6C369.899 443.6 369.699 443.4 369.699 443.1L369.899 436.2C369.899 435.9 370.099 435.7 370.399 435.7C370.699 435.7 370.899 435.9 370.899 436.2L370.699 443.1C370.699 443.4 370.399 443.6 370.199 443.6Z" fill="#282828"/>
<path d="M400.2 438.2C395.1 440.4 386.3 442.7 374.8 439.1C372.6 438.4 370.9 436.7 370.3 434.4L343.5 335.2L341.2 339L328.2 434.9C327.7 438.7 324.6 441.7 320.7 442C313.1 442.6 300.9 441.9 295.1 433.1C294.1 431.6 293.7 429.8 293.9 428L305.1 301.6L378.3 299.8L404.3 430.8C404.7 433.9 403.1 437 400.2 438.2Z" fill="white"/>
<path d="M316.7 442.6C309.4 442.6 299.6 441 294.5 433.4C293.5 431.9 293 429.9 293.2 428L304.4 301.6C304.4 301.4 304.6 301.1 304.9 301.1L378.1 299.3C378.3 299.3 378.6 299.5 378.6 299.7L404.6 430.7C405.3 434 403.6 437.3 400.4 438.7C395 441.1 386.1 443.2 374.6 439.6C372.2 438.9 370.4 437 369.8 434.6L343.3 336.5L341.6 339.2L328.6 435C328.1 439 324.7 442.2 320.6 442.5C319.5 442.5 318.1 442.6 316.7 442.6ZM305.4 302.1L294.3 428.1C294.2 429.8 294.6 431.5 295.4 432.9C301.1 441.6 313.6 442 320.5 441.5C324.1 441.2 327.1 438.4 327.5 434.9L340.5 339C340.5 338.9 340.5 338.9 340.6 338.8L342.9 335C343 334.8 343.2 334.8 343.4 334.8C343.6 334.8 343.8 335 343.8 335.2L370.6 434.4C371.2 436.5 372.7 438.1 374.8 438.7C386 442.2 394.6 440.2 399.9 437.8C402.6 436.6 404.1 433.8 403.5 430.9L377.6 300.3L305.4 302.1Z" fill="#282828"/>
<path d="M282.1 199.1C285.9 191.7 292.6 186.3 296.7 183.1C300.8 179.9 303 178.1 304.6 179C306.2 179.9 300.6 185.6 298.2 189C295.8 192.4 294.5 196.3 294.5 196.3C294.5 196.3 298.7 192.2 301.1 192.9C303.5 193.6 300.1 198.2 296.7 200.1C293.3 202 291.2 203.9 291.2 203.9L282.1 199.1Z" fill="white"/>
<path d="M291.299 204.4C291.199 204.4 291.099 204.4 291.099 204.3L281.899 199.5C281.699 199.4 281.599 199.1 281.699 198.8C285.599 191.2 292.399 185.8 296.499 182.6L296.699 182.5C300.899 179.1 303.099 177.5 304.899 178.5C305.199 178.6 305.399 178.9 305.399 179.2C305.599 180.4 303.999 182.6 301.199 186C300.199 187.2 299.399 188.3 298.699 189.2C297.399 191 296.399 193.1 295.799 194.5C297.299 193.3 299.599 191.9 301.299 192.4C301.999 192.6 302.399 193.1 302.399 193.7C302.599 195.7 299.699 199 296.999 200.5C293.699 202.4 291.699 204.2 291.599 204.3C291.599 204.3 291.399 204.4 291.299 204.4ZM282.799 198.9L291.199 203.3C291.899 202.7 293.799 201.2 296.499 199.7C299.199 198.2 301.599 195.1 301.399 193.9C301.399 193.7 301.299 193.5 300.999 193.4C299.299 192.9 295.999 195.6 294.899 196.6C294.699 196.8 294.499 196.8 294.299 196.7C294.099 196.6 293.999 196.3 294.099 196.1C294.199 195.9 295.499 192 297.899 188.7C298.599 187.8 299.499 186.6 300.399 185.5C301.899 183.6 304.799 180.1 304.399 179.5C303.099 178.8 300.999 180.4 297.299 183.4L297.099 183.5C293.199 186.6 286.599 191.8 282.799 198.9Z" fill="#282828"/>
<path d="M361.799 189.2C360.999 191.1 362.599 192.7 362.599 192.7L366.899 190.4L366.199 185.4L363.599 183.5L361.799 189.2Z" fill="white"/>
<path d="M362.599 193.2C362.499 193.2 362.299 193.1 362.199 193C362.099 192.9 360.499 191.1 361.299 189L363.099 183.3C363.099 183.2 363.299 183 363.399 183C363.499 182.9 363.699 183 363.899 183.1L366.499 185C366.599 185.1 366.699 185.2 366.699 185.3L367.399 190.3C367.399 190.5 367.299 190.7 367.099 190.8L362.799 193.1C362.699 193.2 362.599 193.2 362.599 193.2ZM363.899 184.3L362.299 189.3C361.799 190.4 362.399 191.5 362.699 192L366.399 190L365.799 185.5L363.899 184.3Z" fill="#282828"/>
<path d="M357.7 183.1C355.5 182.2 353.7 184.2 355.5 185.2C357.3 186.2 361.8 189.2 361.8 189.2L362.6 187.4L357.7 183.1Z" fill="white"/>
<path d="M361.8 189.7C361.7 189.7 361.6 189.7 361.5 189.6C361.5 189.6 357 186.5 355.3 185.6C354.2 185 354.2 184.1 354.4 183.5C354.9 182.5 356.3 181.9 357.9 182.6L358 182.7L362.8 187C363 187.1 363 187.4 362.9 187.6L362.1 189.4C362 189.5 361.9 189.6 361.8 189.7C361.9 189.7 361.9 189.7 361.8 189.7ZM356.6 183.4C356 183.4 355.5 183.7 355.3 184C355.1 184.4 355.4 184.6 355.7 184.7C357.2 185.5 360.3 187.6 361.5 188.4L361.9 187.5L357.4 183.5C357.2 183.4 356.9 183.4 356.6 183.4Z" fill="#282828"/>
<path d="M355.899 179.6C353.299 179.4 352.799 181.8 355.899 183.5C358.999 185.2 362.599 187.5 362.599 187.5L364.599 184.8L355.899 179.6Z" fill="white"/>
<path d="M362.6 188C362.5 188 362.4 188 362.3 187.9C362.3 187.9 358.7 185.6 355.6 184C353.5 182.9 353 181.5 353.2 180.6C353.5 179.7 354.5 179.1 355.8 179.2C355.9 179.2 356 179.2 356 179.3L364.7 184.4C364.8 184.5 364.9 184.6 364.9 184.7C364.9 184.8 364.9 185 364.8 185.1L362.8 187.8C362.9 187.9 362.7 188 362.6 188ZM355.6 180.1C354.9 180.1 354.3 180.3 354.2 180.8C354 181.4 354.6 182.3 356.1 183.1C358.6 184.5 361.4 186.2 362.5 186.8L363.9 184.9L355.8 180.1C355.7 180.1 355.6 180.1 355.6 180.1Z" fill="#282828"/>
<path d="M354.5 176.8C351.9 177.4 351.5 178.7 354 179.8C356.5 180.9 360.4 182.9 362 184.1C363.6 185.3 365.9 187.4 365.9 187.4L365.5 183.8L363.6 180.3L354.5 176.8Z" fill="white"/>
<path d="M365.899 188C365.799 188 365.699 187.9 365.599 187.9C365.599 187.9 363.299 185.7 361.799 184.6C360.299 183.5 356.499 181.5 353.899 180.4C352.099 179.6 351.899 178.8 351.899 178.2C351.999 177.6 352.499 176.8 354.499 176.4C354.599 176.4 354.699 176.4 354.799 176.4L363.799 179.9C363.899 179.9 363.999 180 364.099 180.1L365.999 183.6C365.999 183.7 365.999 183.7 366.099 183.8L366.499 187.4C366.499 187.6 366.399 187.8 366.199 187.9C366.099 187.9 365.999 188 365.899 188ZM354.499 177.4C353.199 177.7 352.899 178.1 352.799 178.3C352.699 178.5 352.999 178.9 354.199 179.4C356.799 180.6 360.699 182.6 362.299 183.7C363.199 184.4 364.399 185.4 365.199 186.1L364.999 184L363.199 180.7L354.499 177.4Z" fill="#282828"/>
<path d="M373.7 203.3C368.4 195.6 365.6 196.8 362.6 196.1C358.8 195.3 356.3 194 355.5 191.8C354.7 189.6 359.5 190.6 361.1 191.1C362.7 191.6 363.5 192 363.5 192C363.5 192 365.4 186.5 364.4 183.7C364.4 183.7 361.8 181.2 360.2 180C358.6 178.8 351.9 177.6 351.6 176.3C351.3 175 355.1 175.2 360.6 177C366.1 178.8 368.5 183.9 371.2 186.4C373.9 188.9 380.8 192.3 380.8 192.3L373.7 203.3Z" fill="white"/>
<path d="M373.7 203.8C373.5 203.8 373.4 203.7 373.3 203.6C369.1 197.4 366.5 197.2 364.1 196.9C363.6 196.8 363.1 196.8 362.5 196.7C358.1 195.7 355.8 194.3 355 192.1C354.7 191.3 355 190.9 355.2 190.6C356.6 189.3 361.1 190.8 361.2 190.8C362.1 191.1 362.7 191.4 363.1 191.5C363.5 190.1 364.5 186.3 363.8 184.2C363.3 183.8 361.2 181.7 359.7 180.6C359 180.1 357.4 179.6 355.8 179.1C352.9 178.2 351.1 177.6 350.9 176.6C350.8 176.2 350.9 175.9 351.2 175.6C352.6 174.2 358.7 176.1 360.5 176.7C364.5 178 367 181.1 369 183.5C369.8 184.5 370.6 185.5 371.3 186.2C373.9 188.6 380.7 192 380.8 192.1C380.9 192.2 381 192.3 381.1 192.4C381.1 192.5 381.1 192.7 381 192.8L374 203.7C374 203.7 373.8 203.8 373.7 203.8ZM357.1 190.9C356.6 190.9 356.1 191 355.9 191.2C355.9 191.2 355.8 191.3 355.9 191.7C356.5 193.6 358.6 194.8 362.7 195.7C363.2 195.8 363.7 195.9 364.2 195.9C366.7 196.2 369.4 196.5 373.7 202.5L380 192.6C378.4 191.7 373.1 189 370.8 186.8C370 186 369.2 185.1 368.3 184C366.3 181.5 364 178.7 360.3 177.5C354.6 175.6 352.2 175.9 352 176.2C352.2 176.7 354.7 177.5 356.3 178C358 178.5 359.7 179.1 360.5 179.6C362.2 180.8 364.7 183.2 364.8 183.3C364.9 183.4 364.9 183.4 364.9 183.5C365.9 186.4 364.1 191.9 364.1 192.1C364.1 192.2 364 192.3 363.8 192.4C363.7 192.5 363.5 192.5 363.4 192.4C363.4 192.4 362.6 192.1 361 191.5C359.8 191.2 358.2 190.8 357.1 190.9Z" fill="#282828"/>
<path d="M318.999 183.1C318.499 179.4 317.299 172.6 320.499 170.3C323.699 168 341.099 158.6 348.699 177.5C348.699 177.5 364.599 184.7 358.299 198.9C351.999 213.1 339.099 214.1 339.099 214.1L318.999 183.1Z" fill="#282828"/>
<path d="M339.199 214.7C338.999 214.7 338.899 214.6 338.799 214.5L318.599 183.4C318.599 183.3 318.499 183.3 318.499 183.2L318.399 182.7C317.799 178.8 316.899 172.3 320.199 170C320.299 169.9 329.299 163.6 338.199 166.2C342.999 167.6 346.699 171.3 349.099 177.3C350.899 178.2 364.899 185.7 358.799 199.3C355.499 206.8 350.299 210.6 346.599 212.5C342.599 214.4 339.399 214.7 339.199 214.7ZM319.499 182.9L339.499 213.7C341.399 213.4 352.399 211.4 357.999 198.8C360.499 193.1 359.699 187.9 355.599 183.3C352.499 179.8 348.599 178 348.599 178C348.499 177.9 348.399 177.9 348.299 177.7C345.899 171.9 342.499 168.3 337.899 167C329.499 164.6 320.899 170.6 320.799 170.7C317.999 172.7 318.899 178.8 319.399 182.5L319.499 182.9Z" fill="#282828"/>
<path d="M327.199 207.8L328.099 225.5C328.099 225.5 336.099 222.4 342.899 224.4L340.599 206L327.199 207.8Z" fill="white"/>
<path d="M328.099 226C327.999 226 327.899 226 327.799 225.9C327.699 225.8 327.599 225.7 327.599 225.5L326.699 207.8C326.699 207.5 326.899 207.3 327.099 207.3L340.499 205.5C340.599 205.5 340.799 205.5 340.899 205.6C340.999 205.7 341.099 205.8 341.099 205.9L343.399 224.3C343.399 224.5 343.399 224.6 343.199 224.7C342.999 224.8 342.899 224.8 342.699 224.8C336.099 222.9 328.299 225.9 328.199 225.9C328.299 226 328.199 226 328.099 226ZM327.799 208.2L328.599 224.8C330.599 224.1 336.699 222.4 342.399 223.7L340.299 206.6L327.799 208.2Z" fill="#282828"/>
<path d="M313.2 198.3C313 199.1 310.3 208.3 313.6 213.3C314.5 214.6 315.9 215.6 317.6 216.3C323.9 218.9 331.2 216.9 335.6 211.8L336.5 210.8C347.7 211.3 342.6 195.9 337.2 199.3C336.9 200.3 336.4 201.4 336 202.4C335.6 203.6 334.3 204.2 333.1 203.8L333.4 196.1C332.1 194.8 330.8 193.5 329.6 192.1C327.3 189.5 325.2 186.7 323.4 183.7L320.4 178.9C320.4 178.9 315.9 188 314 193.4C314 193.4 310.9 192.8 310.1 195C309.4 197 313.2 198.3 313.2 198.3Z" fill="white"/>
<path d="M323.399 217.9C321.399 217.9 319.299 217.5 317.399 216.7C315.399 215.9 313.999 214.8 313.099 213.6C309.999 209 311.899 201 312.499 198.6C311.699 198.3 310.299 197.5 309.699 196.4C309.399 195.8 309.399 195.3 309.599 194.7C310.299 192.7 312.599 192.6 313.599 192.7C315.499 187.3 319.799 178.6 319.899 178.5C319.999 178.3 320.099 178.2 320.299 178.2C320.499 178.2 320.699 178.3 320.799 178.4L323.799 183.2C325.599 186.1 327.699 188.9 329.999 191.5C331.199 192.9 332.499 194.2 333.799 195.5C333.899 195.6 333.999 195.7 333.899 195.9L333.699 203.2C334.499 203.3 335.299 202.9 335.599 202.1C335.699 201.7 335.899 201.3 336.099 200.9C336.399 200.2 336.599 199.5 336.799 199C336.799 198.9 336.899 198.8 336.999 198.7C338.399 197.9 339.899 198 341.199 199.1C343.199 200.7 344.499 204.5 343.299 207.6C342.799 209 341.199 211.4 336.799 211.2L336.099 212.1C332.799 215.8 328.199 217.9 323.399 217.9ZM313.599 198.5C313.099 200.1 310.899 208.4 313.999 213C314.699 214.1 315.999 215 317.799 215.8C323.799 218.3 330.899 216.5 335.299 211.4L336.199 210.4C336.299 210.3 336.399 210.2 336.599 210.2C339.599 210.3 341.599 209.3 342.399 207.2C343.399 204.6 342.199 201.3 340.499 199.9C339.899 199.4 338.799 198.9 337.599 199.5C337.399 200.1 337.199 200.7 336.899 201.4C336.799 201.8 336.599 202.2 336.499 202.5C335.999 203.9 334.499 204.6 332.999 204.1C332.799 204 332.599 203.8 332.699 203.6L332.999 196.1C331.699 194.9 330.499 193.5 329.299 192.2C326.999 189.6 324.899 186.7 322.999 183.7L320.499 179.6C319.399 182 315.999 188.9 314.499 193.2C314.399 193.4 314.199 193.6 313.899 193.5C313.899 193.5 311.199 193 310.599 194.8C310.499 195.1 310.499 195.4 310.599 195.7C311.099 196.7 312.699 197.4 313.199 197.6C313.299 197.7 313.399 197.7 313.499 197.9C313.699 198.2 313.699 198.4 313.599 198.5Z" fill="#282828"/>
<path d="M317.1 187.2C319.7 184.9 323.8 187.2 324.9 190.1C325 190.4 324.9 190.7 324.6 190.8C324.4 190.9 324.2 190.8 324.1 190.7C323.1 189.8 322.2 188.9 321.1 188.4C320.1 187.9 318.9 187.7 317.9 188L317.6 188.1C317.2 188 316.8 187.5 317.1 187.2Z" fill="#282828"/>
<path d="M320.3 192.9C320 194 319.1 194.7 318.3 194.4C317.5 194.2 317.2 193.1 317.5 192C317.6 191.7 317.7 191.4 317.9 191.1L319 192.2L318.9 190.4C319.1 190.3 319.3 190.3 319.5 190.4C320.3 190.7 320.7 191.8 320.3 192.9Z" fill="#282828"/>
<path d="M341.099 205.9C340.799 205.9 340.599 205.7 340.599 205.4C340.599 204.2 340.199 203.1 339.499 202.6C338.999 202.2 338.199 202.3 337.399 202.7C337.199 202.8 336.899 202.7 336.699 202.5C336.599 202.3 336.699 201.9 336.899 201.8C338.399 201.1 339.399 201.4 339.999 201.8C340.999 202.4 341.599 203.8 341.599 205.4C341.599 205.7 341.399 205.9 341.099 205.9Z" fill="#282828"/>
<path d="M338.3 207.7C338.1 207.7 338 207.6 337.9 207.5C337.7 207.3 337.8 207 338 206.8C339.6 205.7 340.1 203.2 340.1 203.2C340.2 202.9 340.4 202.8 340.7 202.8C341 202.9 341.1 203.1 341.1 203.4C341.1 203.5 340.5 206.3 338.6 207.6C338.5 207.7 338.4 207.7 338.3 207.7Z" fill="#282828"/>
<path d="M313.6 213.3C314.5 214.6 315.9 215.6 317.6 216.3C323.9 218.9 331.2 216.9 335.6 211.8L336.5 210.8L333.8 208.2C332.1 207 328.2 212.8 323.7 211.1C321.1 210.1 321.2 207.4 321.1 204.9C321.1 203.1 321 201.4 319.9 200.6C317.1 198.7 313.1 198.3 313.1 198.3C313.1 198.3 313.1 198.3 313.1 198.4C313 199.1 310.3 208.3 313.6 213.3Z" fill="#282828"/>
<path d="M323.399 217.9C321.399 217.9 319.299 217.5 317.399 216.7C315.399 215.9 313.999 214.8 313.099 213.6C309.799 208.7 312.099 200 312.599 198.2C312.599 198.2 312.599 198.1 312.699 198.1C312.799 197.9 312.999 197.8 313.199 197.8C313.399 197.8 317.299 198.2 320.199 200.2C321.599 201.2 321.599 203.2 321.599 204.9V205.2C321.599 207.6 321.599 209.8 323.799 210.6C326.199 211.5 328.499 210 330.399 208.8C331.799 207.9 333.099 207 333.999 207.7L336.799 210.3C336.999 210.5 336.999 210.8 336.799 211L335.899 212C332.799 215.8 328.099 217.9 323.399 217.9ZM313.999 213C314.699 214.1 315.999 215 317.799 215.8C323.799 218.3 330.899 216.5 335.299 211.4L335.899 210.7L333.499 208.4C333.099 208.2 332.099 208.9 330.999 209.5C329.099 210.8 326.499 212.5 323.499 211.4C320.599 210.3 320.599 207.5 320.599 205.1V204.8C320.599 203 320.499 201.6 319.599 200.9C317.499 199.4 314.499 198.9 313.499 198.7C312.899 201 311.099 208.7 313.999 213Z" fill="#282828"/>
<path d="M318.337 205.964C318.597 205.119 317.866 204.145 316.704 203.788C315.543 203.431 314.391 203.826 314.131 204.671C313.872 205.516 314.603 206.49 315.764 206.847C316.925 207.204 318.077 206.809 318.337 205.964Z" fill="white"/>
<path d="M316.499 207.4C316.199 207.4 315.899 207.3 315.499 207.3C314.099 206.9 313.199 205.6 313.599 204.5C313.799 203.9 314.199 203.5 314.799 203.3C315.399 203.1 316.099 203.1 316.699 203.3C317.299 203.5 317.899 203.9 318.299 204.4C318.699 204.9 318.799 205.6 318.699 206.1C318.499 206.9 317.599 207.4 316.499 207.4ZM314.599 204.8C314.399 205.4 314.999 206.1 315.899 206.4C316.799 206.7 317.599 206.4 317.799 205.8C317.899 205.5 317.699 205.1 317.599 205C317.399 204.7 316.999 204.4 316.499 204.3C316.099 204.2 315.599 204.2 315.199 204.3C314.999 204.3 314.699 204.4 314.599 204.8Z" fill="#282828"/>
<path d="M339.7 221.1C319.5 223.9 286.2 232.2 283.4 231.6L294.6 204.6C295.3 202.9 294.6 201 293 200.1C289.5 198.2 283.3 195.6 277.1 197.6C276 197.9 275.1 198.7 274.6 199.7C270.1 207.3 249.6 243.2 260.6 249C272.9 255.5 302.2 252.4 302.2 252.4L300 307.9C300 307.9 316.4 309.4 345.7 307.9C375 306.4 383.9 301.7 383.9 301.7L378 241.9C378 241.9 410.4 238.2 414.4 227.7C418 218.3 390.6 196.3 382.1 189.3C380.9 188.3 379.1 188.4 377.9 189.4C374.6 192.5 368.2 198.7 367.3 201.2C366.1 204.7 387.2 217.2 387.2 217.2C387.2 217.2 360.7 217.4 339.7 221.1Z" fill="#FF6262"/>
<path d="M378.1 242.3C368.1 240.4 364 232.2 363.8 231.8C363.7 231.6 363.8 231.2 364 231.1C364.2 231 364.5 231.1 364.7 231.3C364.7 231.4 368.8 239.5 378.2 241.2C378.5 241.3 378.7 241.5 378.6 241.8C378.5 242.1 378.3 242.3 378.1 242.3Z" fill="#282828"/>
<path d="M302.199 252.8C301.999 252.8 301.699 252.6 301.699 252.4C301.699 252.1 301.799 251.9 302.099 251.8C310.999 250.4 313.999 236.7 314.099 236.6C314.199 236.3 314.399 236.2 314.699 236.2C314.999 236.3 315.099 236.5 315.099 236.8C314.899 237.4 311.799 251.3 302.199 252.8Z" fill="#282828"/>
<path d="M343.499 335.7C343.399 335.7 343.299 335.7 343.199 335.6C342.999 335.5 342.899 335.1 342.999 334.9L350.999 322.1C351.099 321.9 351.499 321.8 351.699 321.9C351.899 322 351.999 322.4 351.899 322.6L343.899 335.4C343.799 335.6 343.599 335.7 343.499 335.7Z" fill="#282828"/>
</svg>
