<svg width="500" height="500" viewBox="0 0 500 500" fill="none" xmlns="http://www.w3.org/2000/svg">
<path fill-rule="evenodd" clip-rule="evenodd" d="M243.801 4.98143C303.495 -4.7776 369.652 -2.69127 418.413 34.1102C467.11 70.8632 488.74 135.219 497.834 196.708C505.967 251.699 490.283 306.469 466.044 356.172C444.631 400.078 409.854 433.87 369.448 459.966C331.394 484.543 288.673 497.823 243.801 499.707C197.292 501.66 151.226 494.043 110.487 470.84C65.4717 445.2 16.1024 413.649 2.81288 362.448C-10.3439 311.758 25.9232 263.917 44.0522 214.883C61.0672 168.863 71.8205 120.464 105.282 85.3018C143.307 45.3436 190.161 13.7506 243.801 4.98143Z" fill="#EDF1FE"/>
<path d="M240.4 184.4C278.6 182 315.7 202 320.9 220.5C326.1 239 345.1 394 345.1 394H143.7C143.7 394 154.1 256.8 161.4 224.5C168.7 192.3 208.8 186.4 240.4 184.4Z" fill="#6A90FF"/>
<path d="M180.5 198.7C149.3 215.7 120.3 273.2 110.8 310.4C101.3 347.6 145.1 365.3 180.5 340C215.9 314.7 233.6 231.8 233.6 231.8L195.2 208L180.5 198.7Z" fill="#6A90FF"/>
<path d="M296.8 196.5C296.8 196.5 322.6 208.9 349 239.9C375.4 270.9 389.4 287.1 384.3 303.4C379.2 319.7 341.1 364.6 341.1 364.6L296.9 298.1L296.8 196.5Z" fill="#6A90FF"/>
<path d="M234.1 100.9C226.7 111.2 205.5 135.5 205.5 135.5C205.5 135.5 198.3 137.6 190.7 135.1C186.9 133.9 183 131.5 179.8 127.3C170.2 114.5 174.2 83.3002 204.2 72.4002C227 64.0002 236.7 78.9002 236.8 91.0002C236.8 94.9002 235.9 98.5002 234.1 100.9Z" fill="#EDF1FE"/>
<path d="M198.8 136.8C196.4 136.8 193.5 136.5 190.5 135.5C186 134.1 182.3 131.4 179.4 127.5C174.5 121 173.3 110.3 176.3 100.1C178.5 92.5002 185.2 78.7002 204.1 71.8002C216.5 67.3002 224.2 69.9002 228.4 72.8002C234.9 77.3002 237.3 85.1002 237.3 90.9002C237.3 94.9002 236.3 98.6002 234.5 101.1C227.1 111.3 206.1 135.5 205.9 135.7C205.8 135.8 205.8 135.8 205.7 135.8C205.4 136.1 202.7 136.8 198.8 136.8ZM216.5 70.4002C212.8 70.4002 208.7 71.2002 204.4 72.8002C185.9 79.6002 179.4 93.0002 177.2 100.5C174.3 110.3 175.4 120.7 180.2 127C183 130.7 186.5 133.3 190.8 134.6C197.6 136.8 204.2 135.3 205.2 135.1C206.8 133.3 226.6 110.5 233.7 100.7C238.4 94.1002 238.4 94.1002 233.7 100.7C235.4 98.3002 236.3 94.9002 236.3 91.1002C236.3 85.5002 234 78.1002 227.8 73.8002C224.6 71.5002 220.8 70.4002 216.5 70.4002Z" fill="#0C41E2"/>
<path d="M234.1 100.9C226.7 111.2 205.5 135.5 205.5 135.5C205.5 135.5 198.3 137.6 190.7 135.1C194.4 114.3 214.2 91.1001 236.8 91.1001C236.8 94.9001 235.9 98.5001 234.1 100.9Z" fill="#0C41E2"/>
<path d="M198.799 136.8C196.399 136.8 193.499 136.5 190.499 135.5C190.299 135.4 190.099 135.2 190.199 134.9C193.999 113.9 213.999 90.5 236.799 90.5C237.099 90.5 237.299 90.7 237.299 91C237.299 95 236.299 98.7 234.499 101.2C227.099 111.5 206.099 135.6 205.899 135.8C205.799 135.9 205.799 135.9 205.699 135.9C205.399 136.1 202.699 136.8 198.799 136.8ZM191.199 134.7C197.899 136.7 204.199 135.3 205.199 135C206.799 133.2 226.599 110.4 233.699 100.6C238.399 94 238.399 94 233.699 100.6C235.299 98.3 236.199 95.1 236.299 91.5C214.399 91.9 195.099 114.4 191.199 134.7Z" fill="#0C41E2"/>
<path d="M228.4 180.5C172.7 163.5 200.1 123 217.2 105.7C234.3 88.4002 264.5 94.4002 264.5 94.4002C271.8 88.4002 285.4 90.0002 291.3 106.9C297.2 123.8 290.3 138.1 290.3 138.1L228.4 180.5Z" fill="#EDF1FE"/>
<path d="M228.399 181H228.299C209.599 175.3 198.599 166.4 195.599 154.6C190.399 134.3 210.599 111.8 216.899 105.4C233.099 88.9002 261.499 93.4002 264.399 93.9002C268.099 91.0002 273 90.0002 277.7 91.3002C283.9 93.1002 288.899 98.5002 291.799 106.7C297.699 123.6 290.8 138.1 290.7 138.2C290.7 138.3 290.599 138.3 290.499 138.4L228.699 180.9C228.699 181 228.599 181 228.399 181ZM252.299 93.9002C241.999 93.9002 227.399 96.0002 217.499 106C211.299 112.3 191.399 134.5 196.499 154.3C199.399 165.7 210.099 174.3 228.299 179.9L289.7 137.6C290.3 136.2 296.1 122.6 290.7 106.9C288 99.0002 283.199 93.8002 277.299 92.1002C272.899 90.9002 268.2 91.8002 264.7 94.6002C264.6 94.7002 264.399 94.7002 264.299 94.7002C264.299 94.9002 259.299 93.9002 252.299 93.9002Z" fill="#0C41E2"/>
<path d="M227.8 162.7C226.9 176.8 224.6 193.1 224.6 193.1C224.6 193.1 227.9 206.5 241.8 207.8C255.7 209.1 256.2 197.3 256.2 194.8C256.2 192.3 254.3 184.4 254 181.8C253.7 179.2 227.8 162.7 227.8 162.7Z" fill="#EDF1FE"/>
<path d="M243.9 208.4C243.2 208.4 242.5 208.4 241.8 208.3C227.7 207 224.2 193.4 224.2 193.2C224.2 193.1 224.2 193.1 224.2 193C224.2 192.8 226.5 176.5 227.4 162.6C227.4 162.4 227.5 162.3 227.7 162.2C227.9 162.1 228 162.1 228.2 162.2C232.6 165 254.3 178.9 254.6 181.7C254.7 182.8 255.1 184.7 255.5 186.8C256.1 190 256.8 193.3 256.8 194.8C256.8 196.9 256.4 202 252.7 205.4C250.5 207.4 247.5 208.4 243.9 208.4ZM225.1 193.1C225.4 194.2 229.1 206.1 241.8 207.3C246.2 207.7 249.6 206.8 251.9 204.7C255.3 201.6 255.7 196.8 255.7 194.8C255.7 193.4 255 190 254.4 187C254 184.9 253.6 183 253.5 181.9C253.2 180.3 240.4 171.4 228.2 163.6C227.4 176.8 225.3 191.7 225.1 193.1Z" fill="#0C41E2"/>
<path d="M285.9 122.3C285.9 122.3 299.6 158.4 285.3 173.9C271 189.4 233.6 187.8 221.9 163.8C221.9 163.8 214.7 172.6 208 163.8C201.3 155 209.2 145 219.6 149.3C219.6 149.3 223.1 139.2 241.4 132.4C259.7 125.5 268.8 113.5 268.8 113.5C268.8 113.5 272.3 119.6 285.9 122.3Z" fill="#EDF1FE"/>
<path d="M258.3 184.4C255.9 184.4 253.4 184.2 250.9 183.8C237.6 181.8 227 174.8 221.7 164.5C220.6 165.6 217.8 168.1 214.4 168C211.9 167.9 209.6 166.6 207.6 163.9C204.5 159.8 204.2 154.8 206.9 151.3C209.6 147.8 214.4 146.7 219.2 148.5C220.1 146.4 224.8 137.9 241.1 131.7C259 124.9 268.2 113.1 268.3 113C268.4 112.9 268.6 112.8 268.7 112.8C268.9 112.8 269 112.9 269.1 113C269.1 113.1 272.7 119.1 285.9 121.8C286.1 121.8 286.2 122 286.3 122.1C286.3 122.2 289.8 131.3 291.4 142.2C293.6 156.7 291.6 167.8 285.6 174.2C279.6 180.7 269.4 184.4 258.3 184.4ZM221.9 163.2C222.1 163.2 222.3 163.3 222.3 163.5C227.3 173.8 237.8 180.9 251.1 182.9C264.5 184.9 277.8 181.2 284.9 173.5C298.2 159.2 286.7 126 285.5 122.7C274.3 120.4 270 115.8 268.7 114.1C266.7 116.5 257.5 126.6 241.5 132.6C223.7 139.3 220.1 149.2 220.1 149.2C220.1 149.3 220 149.4 219.8 149.5C219.7 149.6 219.5 149.6 219.4 149.5C214.8 147.6 210.3 148.6 207.8 151.8C205.9 154.3 205 158.7 208.5 163.2C210.3 165.6 212.4 166.9 214.5 166.9C218.4 167 221.5 163.2 221.6 163.2C221.6 163.2 221.7 163.2 221.9 163.2Z" fill="#0C41E2"/>
<path d="M253 140.4C249.6 137.4 245.8 138.1 242.3 140.4C241.8 140.8 241.3 141.1 240.7 141.4C240.4 141.6 240.1 141.5 239.9 141.2C239.8 141 239.8 140.7 240 140.5C240.8 139.5 241.8 138.6 242.9 137.9C246.3 135.5 251.6 135.9 253.9 139.6C254.3 140.2 253.5 140.9 253 140.4Z" fill="#0C41E2"/>
<path d="M284.7 133.9C280.6 132.2 275.9 133.2 272.3 135.6C271.7 136 271.2 136.4 270.6 136.7C270.3 136.9 270 136.8 269.8 136.5C269.7 136.3 269.7 136 269.9 135.8C270.4 135.3 270.9 134.8 271.4 134.3C275.1 130.9 281.1 129.9 285.3 132.9C285.9 133.3 285.3 134.2 284.7 133.9Z" fill="#0C41E2"/>
<path d="M273.399 158C270.899 158 267.999 156.1 267.899 153.2C267.899 152.9 268.099 152.7 268.399 152.7C268.699 152.7 268.899 152.9 268.899 153.2C269.099 155.6 271.399 157.1 273.399 157.1C275.199 157.1 276.399 156 276.499 154.1C276.599 153.2 276.399 152.4 275.799 151.9C274.199 150.3 270.699 150.5 270.599 150.5C270.399 150.5 270.099 150.3 270.099 150.1C270.099 150 269.299 144 269.799 136.4C269.799 136.1 270.099 135.9 270.299 135.9C270.599 135.9 270.799 136.2 270.799 136.4C270.399 142.7 270.899 147.9 270.999 149.4C272.099 149.4 274.999 149.5 276.499 151.1C277.299 151.9 277.599 152.9 277.499 154.1C277.299 156.9 275.199 158 273.399 158Z" fill="#0C41E2"/>
<path d="M243.9 150.4C244.3 152.6 245.9 154.2 247.5 153.9C249 153.6 249.9 151.6 249.5 149.4C249.4 148.7 249.1 148.1 248.8 147.6L246.4 149.5L247 146C246.6 145.9 246.3 145.8 245.9 145.9C244.3 146.2 243.4 148.2 243.9 150.4Z" fill="#0C41E2"/>
<path d="M274.199 144.8C274.599 147 276.199 148.6 277.699 148.3C279.199 148 280.099 146 279.699 143.8C279.599 143.1 279.299 142.5 278.999 142L276.599 143.9L277.199 140.4C276.799 140.3 276.499 140.2 276.099 140.3C274.599 140.5 273.699 142.5 274.199 144.8Z" fill="#0C41E2"/>
<path d="M258.9 170.8C258.6 170.8 258.4 170.8 258.1 170.7C256.2 170.4 255.3 168.8 255.2 167.4C255.2 166 256.1 164.3 258 163.9C258.5 163.8 259 163.8 259.5 163.8C261.5 163.8 262.7 165.4 262.9 166.9C263.1 168.4 262.4 170.1 260.4 170.7C259.9 170.7 259.4 170.8 258.9 170.8ZM259.5 164.7C259.1 164.7 258.6 164.7 258.2 164.8C256.8 165 256.2 166.2 256.2 167.3C256.2 168.3 256.7 169.4 258.2 169.7C258.8 169.8 259.5 169.8 260.2 169.6C261.6 169.2 262.1 168 261.9 166.9C261.8 165.9 261 164.8 259.5 164.7Z" fill="#0C41E2"/>
<path d="M209.5 158H209.4C209.1 157.9 209 157.7 209 157.4C209.4 155.5 210.4 154.2 211.8 153.5C214.4 152.1 217.7 153.2 217.9 153.2C218.2 153.3 218.3 153.6 218.2 153.8C218.1 154.1 217.8 154.2 217.6 154.1C217.6 154.1 214.6 153.1 212.3 154.3C211.2 154.9 210.4 156 210 157.6C209.9 157.8 209.7 158 209.5 158Z" fill="#0C41E2"/>
<path d="M215.499 163.1H215.399C213.999 162.8 212.899 162 212.199 160.7C210.899 158.4 210.899 155.2 211.399 153.8C211.499 153.5 211.799 153.4 211.999 153.5C212.199 153.6 212.399 153.9 212.299 154.1C211.899 155.1 211.799 158.1 212.999 160.2C213.599 161.3 214.499 161.9 215.499 162.1C215.799 162.2 215.899 162.4 215.899 162.7C215.899 163 215.699 163.1 215.499 163.1Z" fill="#0C41E2"/>
<path d="M246.4 162.5C245.8 162.5 245.2 162.5 244.7 162.4C243.1 162.2 242 161.5 241.4 160.6C238.9 156.6 238.4 147.5 239.7 143.4C240.1 142.2 240.7 141.4 241.4 141.1C244.3 139.9 259.1 137.2 263.7 139.5C266.6 141 268.2 140 270 138.9C270.6 138.5 271.3 138.1 272 137.8C274 137 285.7 136 292.5 135.4C294.6 135.2 296.5 136.7 296.9 138.8C298.3 147.1 296 153.9 296 154.2C296 154.3 295.9 154.4 295.8 154.4C291.3 157.9 280.7 156 277 155C276.7 154.9 276.6 154.6 276.6 154.4C276.7 154.1 277 154 277.2 154C282.1 155.4 291.3 156.5 295 153.7C295.3 152.7 297.1 146.4 295.9 139C295.6 137.4 294.2 136.3 292.6 136.4C281.1 137.3 273.7 138.2 272.4 138.7C271.8 138.9 271.2 139.3 270.5 139.7C268.7 140.8 266.7 142.1 263.2 140.3C259.2 138.3 244.8 140.7 241.7 141.9C241.3 142.1 240.9 142.7 240.6 143.6C239.3 147.6 239.8 156.2 242.2 160C242.6 160.7 243.5 161.2 244.8 161.4C250.7 162.3 262.7 157.5 264.6 155.8C265.7 154.8 266.6 152.7 267.4 150.9C268.3 148.8 269 147 270.2 146.6C270.5 146.5 270.7 146.7 270.8 146.9C270.9 147.1 270.8 147.5 270.5 147.5C269.7 147.8 269 149.5 268.3 151.2C267.5 153.1 266.6 155.3 265.3 156.4C263.4 158.2 252.9 162.5 246.4 162.5Z" fill="#0C41E2"/>
<path d="M218.5 147.4C218.2 147.4 218 147.2 218 146.9C218 146.6 218.2 146.4 218.5 146.4L237.8 144.8C238 144.8 238.3 145 238.3 145.3C238.3 145.6 238.1 145.8 237.8 145.8L218.5 147.4Z" fill="#0C41E2"/>
<path d="M243.2 162.4C241.9 162.4 240 162.1 239.1 160.6C237.9 158.4 236.5 151.6 237 146.6C237.6 141.1 241.1 141.3 241.1 141.3C241.4 141.3 241.6 141.6 241.6 141.8C241.6 142.1 241.4 142.3 241.1 142.3C241 142.3 238.5 142.2 238.1 146.7C237.6 151.7 239.1 158.2 240.1 160.1C241 161.8 244.3 161.3 244.3 161.3C244.6 161.3 244.8 161.4 244.9 161.7C244.9 162 244.8 162.2 244.5 162.3C244.3 162.3 243.8 162.4 243.2 162.4Z" fill="#0C41E2"/>
<path d="M202.8 216.7C205.2 204.5 206.9 191.6 205.7 185.4C204.5 179.2 212 175.1 216.4 186C216.4 186 223.9 177.7 229.5 174.3C235.1 170.9 243.9 167.2 246.2 169.6C248.5 172 237.9 178.6 234.5 181.4C231.1 184.2 228.7 187 228.7 187C228.7 187 239.1 186.7 235.9 194.5C235.9 194.5 243.1 198.7 239.7 204C239.7 204 244.9 207.3 240.3 212.8C235.7 218.4 225.4 228.4 225.4 228.4L202.8 216.7Z" fill="#EDF1FE"/>
<path d="M225.4 228.9C225.3 228.9 225.2 228.9 225.2 228.8L202.6 217C202.4 216.9 202.3 216.7 202.3 216.5C205.1 202.1 206.2 190.8 205.2 185.4C204.6 182.4 206 179.5 208.5 178.8C210.8 178.1 214.1 179.4 216.6 185C218.4 183 224.5 176.7 229.3 173.8C233.1 171.5 243.7 166.2 246.6 169.2C246.9 169.6 247.1 170 247 170.5C246.8 172.7 242.7 175.9 237.8 179.5C236.6 180.4 235.6 181.1 234.8 181.7C232.6 183.6 230.7 185.4 229.8 186.5C231.5 186.6 234.8 187.1 236.3 189.3C237.2 190.6 237.3 192.3 236.6 194.3C237.6 195 240.4 197 241 199.8C241.3 201.2 241.1 202.5 240.4 203.8C241.1 204.3 242.3 205.6 242.6 207.5C242.9 209.3 242.2 211.2 240.6 213.1C236 218.6 225.8 228.6 225.7 228.7C225.6 228.9 225.5 228.9 225.4 228.9ZM203.4 216.4L225.3 227.8C226.9 226.2 235.8 217.5 239.9 212.5C241.3 210.8 241.9 209.2 241.7 207.7C241.4 205.6 239.5 204.4 239.5 204.4C239.4 204.3 239.3 204.2 239.3 204.1C239.3 204 239.3 203.8 239.4 203.7C240.2 202.5 240.4 201.3 240.2 200.1C239.5 197.1 235.9 195 235.9 195C235.7 194.9 235.6 194.6 235.7 194.4C236.4 192.5 236.4 191 235.7 190C234 187.5 229 187.6 229 187.6C228.8 187.6 228.6 187.5 228.5 187.3C228.4 187.1 228.4 186.9 228.6 186.8C228.6 186.8 231.1 183.9 234.5 181.1C235.2 180.5 236.3 179.7 237.5 178.8C240.9 176.3 246.1 172.5 246.3 170.6C246.3 170.4 246.3 170.2 246.1 170.1C244.3 168.2 236.3 171 230 174.9C224.5 178.2 217.1 186.4 217 186.5C216.9 186.6 216.7 186.7 216.5 186.7C216.3 186.7 216.2 186.6 216.1 186.4C213.8 180.8 210.9 179.5 208.9 180C207 180.6 205.9 182.9 206.3 185.4C207.6 193 204.8 209.3 203.4 216.4Z" fill="#0C41E2"/>
<path d="M209.9 199.1C209.8 199.1 209.8 199.1 209.7 199.1C209.5 199 209.3 198.7 209.5 198.4C212.4 191.9 215.9 185.9 215.9 185.8C216 185.6 216.3 185.5 216.6 185.6C216.8 185.7 216.9 186 216.8 186.3C216.8 186.4 213.2 192.4 210.4 198.8C210.3 199 210.1 199.1 209.9 199.1Z" fill="#0C41E2"/>
<path d="M224.8 192.4C224.7 192.4 224.7 192.4 224.6 192.4C224.4 192.3 224.2 192 224.4 191.7C224.4 191.6 225 190.3 228.4 186.7C228.6 186.5 228.9 186.5 229.1 186.7C229.3 186.9 229.3 187.2 229.1 187.4C225.9 190.8 225.3 192.1 225.3 192.2C225.2 192.3 225 192.4 224.8 192.4Z" fill="#0C41E2"/>
<path d="M231.3 199C231.2 199 231.1 199 231 198.9C230.8 198.8 230.7 198.4 230.9 198.2C233 195 235.7 194.1 235.8 194C236.1 193.9 236.3 194.1 236.4 194.3C236.5 194.6 236.3 194.8 236.1 194.9C236.1 194.9 233.6 195.8 231.7 198.7C231.6 198.9 231.4 199 231.3 199Z" fill="#0C41E2"/>
<path d="M234.9 207.4C234.8 207.4 234.7 207.4 234.6 207.3C234.4 207.1 234.3 206.8 234.5 206.6C236.6 203.9 239.5 203.5 239.7 203.5C240 203.5 240.2 203.7 240.3 203.9C240.3 204.2 240.1 204.4 239.9 204.5C239.9 204.5 237.3 204.9 235.4 207.2C235.2 207.3 235 207.4 234.9 207.4Z" fill="#0C41E2"/>
<path d="M136.699 291.4C136.599 291.4 136.499 291.4 136.399 291.3C136.199 291.1 136.099 290.8 136.299 290.6C136.499 290.2 160.899 254.7 171.099 240.5C176.099 233.5 193.299 211.1 202.999 216.2C203.199 216.3 203.299 216.6 203.199 216.9C203.099 217.1 202.799 217.2 202.499 217.1C197.799 214.7 187.399 219.7 171.899 241.1C161.699 255.2 137.299 290.8 137.099 291.2C136.999 291.3 136.899 291.4 136.699 291.4Z" fill="#0C41E2"/>
<path d="M155.4 351.4C155.2 351.4 155.1 351.3 155 351.2C154.9 351 154.9 350.7 155.2 350.5C179.4 335.2 202.8 300.1 212.8 281.8C225.6 258.4 235.9 235.8 225.2 228.9C225 228.8 224.9 228.4 225.1 228.2C225.2 228 225.6 227.9 225.8 228.1C237.7 235.9 225.9 260.2 213.8 282.3C207.1 294.5 198 308.2 188.8 319.7C177.4 334 166 345 155.9 351.4C155.6 351.4 155.5 351.4 155.4 351.4Z" fill="#0C41E2"/>
<path d="M340.999 365.1C340.799 365.1 340.499 364.9 340.499 364.7C333.599 315.3 315.499 223.7 315.399 222.8C315.399 222.5 315.499 222.3 315.799 222.2C316.099 222.1 316.299 222.3 316.399 222.6C316.599 223.5 334.699 315.1 341.599 364.5C341.599 364.8 341.399 365.1 340.999 365.1Z" fill="#0C41E2"/>
<path d="M339.3 294.2C339.2 294.2 339.2 294.2 339.1 294.2L328.2 289.6C328 289.5 327.8 289.2 327.9 288.9C328 288.7 328.3 288.5 328.6 288.6L339.5 293.2C339.7 293.3 339.9 293.6 339.8 293.9C339.7 294.1 339.5 294.2 339.3 294.2Z" fill="#0C41E2"/>
<path d="M364.9 200.5C364.6 199.4 364.8 198.2 365.6 197.3C367.3 195.4 369 193.5 370.7 191.6C371.4 190.9 372.2 189.9 373.5 189.2C375.3 188.2 377.6 187.9 380.2 188.4C381.2 188.6 382 188.9 382.9 189.1C383.5 189.3 384 189.5 384.6 189.6C387 190.2 389.7 189.9 391.9 188.9C392.9 188.5 393.6 187.9 393.8 187.4C394 186.9 393.9 186 393.6 185C392.5 181.8 389.9 179.2 387.1 178.7C385.3 178.3 384.1 176.6 384.4 174.8C384.7 173 386.5 171.8 388.3 172.1C393.5 173.1 398.1 177.3 400 182.9C400.9 185.6 400.9 188 400 190.1C399.1 192.2 397.3 193.8 394.7 195C391.1 196.7 386.9 197.1 383 196.1C382.2 195.9 381.5 195.7 380.9 195.5C380.2 195.3 379.5 195.1 378.9 194.9C378 194.7 377.3 194.7 376.9 195C376.6 195.2 376.1 195.7 375.8 196.1C374.1 197.9 372.5 199.8 370.8 201.6C369.6 203 367.4 203.2 366 201.9C365.4 201.6 365.1 201.1 364.9 200.5Z" fill="#6A90FF"/>
<path d="M368.1 203.4C367.2 203.4 366.3 203.1 365.6 202.5C365 202 364.6 201.4 364.4 200.7C364 199.4 364.3 198.1 365.2 197.1C366.9 195.2 368.6 193.3 370.3 191.4C371 190.7 371.9 189.7 373.2 188.9C375.2 187.8 377.6 187.5 380.2 188.1C381.2 188.3 382.1 188.6 382.9 188.9L383.1 189C383.6 189.2 384.1 189.3 384.6 189.4C386.9 190 389.4 189.7 391.6 188.7C392.6 188.2 393.1 187.8 393.2 187.5C393.3 187.2 393.3 186.5 393 185.4C392 182.3 389.5 179.9 386.9 179.4C385.9 179.2 385 178.6 384.4 177.8C383.8 177 383.6 175.9 383.8 174.9C384 173.9 384.6 173 385.4 172.4C386.2 171.8 387.3 171.6 388.3 171.8C393.7 172.8 398.4 177.2 400.3 182.9C401.2 185.8 401.2 188.3 400.3 190.5C399.3 192.7 397.5 194.4 394.8 195.7C391 197.4 386.8 197.8 382.8 196.8C382 196.6 381.3 196.4 380.6 196.2C379.9 196 379.2 195.8 378.6 195.6C377.8 195.4 377.2 195.5 376.9 195.6C376.7 195.7 376.2 196.2 375.9 196.6C374.2 198.4 372.6 200.3 371 202.1C370.3 202.9 369.4 203.3 368.4 203.4C368.3 203.4 368.2 203.4 368.1 203.4ZM365.4 200.4C365.5 200.9 365.9 201.4 366.3 201.8C366.9 202.3 367.6 202.6 368.4 202.5C369.2 202.4 369.9 202.1 370.4 201.5C372 199.6 373.7 197.8 375.4 196C375.9 195.5 376.3 195 376.7 194.8C377.4 194.4 378.5 194.6 379.1 194.7C379.8 194.8 380.4 195.1 381.2 195.3C381.9 195.5 382.6 195.7 383.3 195.9C387.1 196.8 391.1 196.4 394.7 194.8C397.2 193.7 398.9 192.1 399.7 190.1C400.5 188.2 400.5 185.9 399.7 183.2C397.9 177.8 393.5 173.7 388.4 172.7C387.6 172.6 386.9 172.7 386.3 173.1C385.7 173.5 385.2 174.2 385.1 174.9C385 175.7 385.1 176.4 385.6 177C386 177.6 386.7 178.1 387.4 178.2C390.4 178.8 393.2 181.4 394.3 184.8C394.5 185.5 394.9 186.7 394.5 187.6C394.1 188.4 393 189 392.4 189.3C390 190.4 387.3 190.6 384.8 190C384.3 189.9 383.8 189.7 383.2 189.5L383 189.4C382.1 189.1 381.3 188.9 380.4 188.7C378 188.2 375.8 188.5 374.1 189.4C372.9 190.1 372 191 371.4 191.7C369.7 193.5 368 195.5 366.3 197.4C365.4 198.4 365.1 199.4 365.4 200.4Z" fill="#6A90FF"/>
<path d="M361.1 212.5C363.42 212.5 365.3 210.62 365.3 208.3C365.3 205.98 363.42 204.1 361.1 204.1C358.781 204.1 356.9 205.98 356.9 208.3C356.9 210.62 358.781 212.5 361.1 212.5Z" fill="#6A90FF"/>
<path d="M361.1 213C359 213 357.1 211.6 356.5 209.6C356.1 208.4 356.3 207.1 356.9 206C357.5 204.9 358.5 204.1 359.7 203.7C360.9 203.3 362.2 203.5 363.3 204.1C364.4 204.7 365.2 205.7 365.6 206.9C366 208.1 365.8 209.4 365.2 210.5C364.6 211.6 363.6 212.4 362.4 212.8C362 213 361.5 213.1 361.1 213ZM361.1 204.5C360.7 204.5 360.4 204.6 360.1 204.6C358.1 205.2 357 207.3 357.6 209.2C358.2 211.2 360.3 212.3 362.2 211.8C363.2 211.5 364 210.9 364.4 210C364.8 209.1 365 208.1 364.7 207.1C364.4 206.1 363.8 205.3 362.9 204.9C362.4 204.7 361.7 204.5 361.1 204.5Z" fill="#6A90FF"/>
<path d="M364.9 200.5C364.6 199.4 364.8 198.2 365.6 197.3C367.3 195.4 369 193.5 370.7 191.6C371.4 190.9 372.2 189.9 373.5 189.2C375.3 188.2 377.6 187.9 380.2 188.4C381.2 188.6 382 188.9 382.9 189.1C383.5 189.3 384 189.5 384.6 189.6C387 190.2 389.7 189.9 391.9 188.9C392.9 188.5 393.6 187.9 393.8 187.4C394 186.9 393.9 186 393.6 185C392.5 181.8 389.9 179.2 387.1 178.7C385.3 178.3 384.1 176.6 384.4 174.8C384.7 173 386.5 171.8 388.3 172.1C393.5 173.1 398.1 177.3 400 182.9C400.9 185.6 400.9 188 400 190.1C399.1 192.2 397.3 193.8 394.7 195C391.1 196.7 386.9 197.1 383 196.1C382.2 195.9 381.5 195.7 380.9 195.5C380.2 195.3 379.5 195.1 378.9 194.9C378 194.7 377.3 194.7 376.9 195C376.6 195.2 376.1 195.7 375.8 196.1C374.1 197.9 372.5 199.8 370.8 201.6C369.6 203 367.4 203.2 366 201.9C365.4 201.6 365.1 201.1 364.9 200.5Z" fill="#6A90FF"/>
<path d="M368.1 203.4C367.2 203.4 366.3 203.1 365.6 202.5C365 202 364.6 201.4 364.4 200.7C364 199.4 364.3 198.1 365.2 197.1C366.9 195.2 368.6 193.3 370.3 191.4C371 190.7 371.9 189.7 373.2 188.9C375.2 187.8 377.6 187.5 380.2 188.1C381.2 188.3 382.1 188.6 382.9 188.9L383.1 189C383.6 189.2 384.1 189.3 384.6 189.4C386.9 190 389.4 189.7 391.6 188.7C392.6 188.2 393.1 187.8 393.2 187.5C393.3 187.2 393.3 186.5 393 185.4C392 182.3 389.5 179.9 386.9 179.4C385.9 179.2 385 178.6 384.4 177.8C383.8 177 383.6 175.9 383.8 174.9C384 173.9 384.6 173 385.4 172.4C386.2 171.8 387.3 171.6 388.3 171.8C393.7 172.8 398.4 177.2 400.3 182.9C401.2 185.8 401.2 188.3 400.3 190.5C399.3 192.7 397.5 194.4 394.8 195.7C391 197.4 386.8 197.8 382.8 196.8C382 196.6 381.3 196.4 380.6 196.2C379.9 196 379.2 195.8 378.6 195.6C377.8 195.4 377.2 195.5 376.9 195.6C376.7 195.7 376.2 196.2 375.9 196.6C374.2 198.4 372.6 200.3 371 202.1C370.3 202.9 369.4 203.3 368.4 203.4C368.3 203.4 368.2 203.4 368.1 203.4ZM365.4 200.4C365.5 200.9 365.9 201.4 366.3 201.8C366.9 202.3 367.6 202.6 368.4 202.5C369.2 202.4 369.9 202.1 370.4 201.5C372 199.6 373.7 197.8 375.4 196C375.9 195.5 376.3 195 376.7 194.8C377.4 194.4 378.5 194.6 379.1 194.7C379.8 194.8 380.4 195.1 381.2 195.3C381.9 195.5 382.6 195.7 383.3 195.9C387.1 196.8 391.1 196.4 394.7 194.8C397.2 193.7 398.9 192.1 399.7 190.1C400.5 188.2 400.5 185.9 399.7 183.2C397.9 177.8 393.5 173.7 388.4 172.7C387.6 172.6 386.9 172.7 386.3 173.1C385.7 173.5 385.2 174.2 385.1 174.9C385 175.7 385.1 176.4 385.6 177C386 177.6 386.7 178.1 387.4 178.2C390.4 178.8 393.2 181.4 394.3 184.8C394.5 185.5 394.9 186.7 394.5 187.6C394.1 188.4 393 189 392.4 189.3C390 190.4 387.3 190.6 384.8 190C384.3 189.9 383.8 189.7 383.2 189.5L383 189.4C382.1 189.1 381.3 188.9 380.4 188.7C378 188.2 375.8 188.5 374.1 189.4C372.9 190.1 372 191 371.4 191.7C369.7 193.5 368 195.5 366.3 197.4C365.4 198.4 365.1 199.4 365.4 200.4Z" fill="#0C41E2"/>
<path d="M361.1 213C359 213 357.1 211.6 356.5 209.6C356.1 208.4 356.3 207.1 356.9 206C357.5 204.9 358.5 204.1 359.7 203.7C360.9 203.3 362.2 203.5 363.3 204.1C364.4 204.7 365.2 205.7 365.6 206.9C366 208.1 365.8 209.4 365.2 210.5C364.6 211.6 363.6 212.4 362.4 212.8C362 213 361.5 213.1 361.1 213ZM361.1 204.5C360.7 204.5 360.4 204.6 360.1 204.6C358.1 205.2 357 207.3 357.6 209.2C358.2 211.2 360.3 212.3 362.2 211.8C363.2 211.5 364 210.9 364.4 210C364.8 209.1 365 208.1 364.7 207.1C364.4 206.1 363.8 205.3 362.9 204.9C362.4 204.7 361.7 204.5 361.1 204.5Z" fill="#0C41E2"/>
<path d="M124.501 197.2C123.501 197.7 122.301 197.6 121.201 197.1C119.101 195.8 116.801 194.4 114.701 193.1C113.901 192.6 112.701 191.8 111.901 190.8C110.601 189.1 109.901 187 110.101 184.3C110.101 183.3 110.201 182.4 110.401 181.5C110.501 180.9 110.601 180.4 110.601 179.7C110.701 177.3 110.101 174.7 108.701 172.6C108.101 171.6 107.501 171 106.901 171C106.401 170.9 105.501 171.1 104.601 171.6C101.601 173.2 99.5006 176.2 99.4006 179.1C99.4006 180.9 97.8006 182.5 96.0006 182.5C94.2006 182.5 92.6006 180.9 92.6006 179.1C92.7006 173.8 96.1006 168.5 101.301 165.8C103.801 164.5 106.201 164 108.401 164.6C110.601 165.1 112.501 166.7 114.201 169C116.401 172.3 117.501 176.3 117.301 180.3C117.301 181.1 117.201 181.9 117.101 182.5C117.001 183.3 116.901 184 116.801 184.6C116.801 185.5 116.901 186.3 117.201 186.6C117.401 186.8 118.001 187.3 118.401 187.5C120.401 188.9 122.501 190.2 124.701 191.4C126.301 192.4 126.801 194.4 125.801 196C125.501 196.5 125.001 196.9 124.501 197.2Z" fill="#6A90FF"/>
<path d="M126.8 193.5C126.9 194.4 126.8 195.3 126.3 196.1C125.9 196.8 125.3 197.2 124.7 197.6C123.5 198.2 122.1 198.2 121 197.4C118.8 196.1 116.6 194.7 114.5 193.4C113.7 192.9 112.5 192.1 111.5 190.9C110.1 189.2 109.4 186.8 109.5 184.2C109.5 183.2 109.6 182.3 109.8 181.4V181.2C109.9 180.6 109.9 180.2 109.9 179.6C110.1 177.3 109.4 174.7 108 172.8C107.3 171.9 106.8 171.4 106.5 171.4C106.2 171.3 105.6 171.4 104.5 172C101.7 173.5 99.7004 176.3 99.7004 179C99.7004 180.1 99.3004 181 98.5004 181.7C97.8004 182.4 96.8004 182.8 95.7004 182.8C94.6004 182.8 93.7004 182.4 93.0004 181.6C92.3004 180.9 91.9004 179.9 91.9004 178.8C92.0004 173.3 95.5004 167.9 100.9 165.1C103.6 163.6 106.1 163.2 108.3 163.8C110.7 164.4 112.6 165.9 114.3 168.3C116.6 171.7 117.8 175.9 117.5 179.9C117.5 180.7 117.4 181.5 117.3 182.1C117.1 182.8 117.1 183.5 117.1 184.1C117.1 185 117.2 185.6 117.4 185.7C117.6 185.9 118.2 186.3 118.6 186.5C120.6 187.9 122.7 189.2 124.8 190.4C125.6 190.9 126.3 191.8 126.6 192.8C126.8 193.3 126.8 193.5 126.8 193.5ZM124.3 196.8C124.8 196.6 125.2 196.1 125.5 195.7C125.9 195 126 194.3 125.8 193.5C125.6 192.7 125.2 192.1 124.5 191.8C122.4 190.5 120.3 189.1 118.2 187.9C117.6 187.5 117.1 187.2 116.8 186.8C116.4 186.2 116.2 185.1 116.3 184.5C116.4 183.8 116.4 183.2 116.6 182.4C116.7 181.7 116.8 181 116.9 180.3C117.1 176.5 116.1 172.5 114 169.3C112.5 167 110.7 165.7 108.5 165.1C106.5 164.6 104.2 165 101.8 166.3C96.8004 169 93.5004 174 93.4004 179.2C93.4004 180 93.7004 180.7 94.2004 181.3C94.7004 181.8 95.5004 182.2 96.2004 182.1C97.0004 182.1 97.7004 181.8 98.3004 181.3C98.8004 180.8 99.2004 180 99.1004 179.3C99.1004 176.3 101.3 173.1 104.5 171.3C105.1 171 106.3 170.4 107.2 170.6C108 170.8 108.8 171.8 109.3 172.4C110.8 174.5 111.5 177.2 111.3 179.8C111.3 180.3 111.2 180.9 111.1 181.4L111 181.5C110.9 182.4 110.7 183.3 110.7 184.2C110.6 186.7 111.3 188.7 112.5 190.3C113.3 191.4 114.4 192 115.2 192.6C117.3 193.9 119.5 195.3 121.7 196.6C122.4 197.1 123.4 197.1 124.3 196.8Z" fill="#6A90FF"/>
<path d="M132.801 203.8C135.12 203.8 137.001 201.92 137.001 199.6C137.001 197.28 135.12 195.4 132.801 195.4C130.481 195.4 128.601 197.28 128.601 199.6C128.601 201.92 130.481 203.8 132.801 203.8Z" fill="#6A90FF"/>
<path d="M137.501 198.8C137.801 200.8 136.801 202.9 134.901 203.9C133.701 204.5 132.501 204.5 131.201 204.1C129.901 203.7 129.001 202.8 128.501 201.7C128.001 200.6 127.901 199.3 128.301 198C128.701 196.8 129.601 195.8 130.701 195.3C131.901 194.7 133.101 194.7 134.401 195.1C135.701 195.5 136.601 196.4 137.101 197.5C137.301 198 137.501 198.3 137.501 198.8ZM129.101 200.3C129.101 200.6 129.301 201 129.401 201.4C130.301 203.3 132.601 204 134.401 203.1C136.301 202.2 137.001 199.9 136.101 198.1C135.601 197.2 134.901 196.5 134.001 196.2C133.001 195.9 132.101 196 131.201 196.3C130.301 196.8 129.601 197.5 129.301 198.4C129.001 199 129.101 199.7 129.101 200.3Z" fill="#6A90FF"/>
<path d="M124.501 197.2C123.501 197.7 122.301 197.6 121.201 197.1C119.101 195.8 116.801 194.4 114.701 193.1C113.901 192.6 112.701 191.8 111.901 190.8C110.601 189.1 109.901 187 110.101 184.3C110.101 183.3 110.201 182.4 110.401 181.5C110.501 180.9 110.601 180.4 110.601 179.7C110.701 177.3 110.101 174.7 108.701 172.6C108.101 171.6 107.501 171 106.901 171C106.401 170.9 105.501 171.1 104.601 171.6C101.601 173.2 99.5006 176.2 99.4006 179.1C99.4006 180.9 97.8006 182.5 96.0006 182.5C94.2006 182.5 92.6006 180.9 92.6006 179.1C92.7006 173.8 96.1006 168.5 101.301 165.8C103.801 164.5 106.201 164 108.401 164.6C110.601 165.1 112.501 166.7 114.201 169C116.401 172.3 117.501 176.3 117.301 180.3C117.301 181.1 117.201 181.9 117.101 182.5C117.001 183.3 116.901 184 116.801 184.6C116.801 185.5 116.901 186.3 117.201 186.6C117.401 186.8 118.001 187.3 118.401 187.5C120.401 188.9 122.501 190.2 124.701 191.4C126.301 192.4 126.801 194.4 125.801 196C125.501 196.5 125.001 196.9 124.501 197.2Z" fill="#6A90FF"/>
<path d="M126.8 193.5C126.9 194.4 126.8 195.3 126.3 196.1C125.9 196.8 125.3 197.2 124.7 197.6C123.5 198.2 122.1 198.2 121 197.4C118.8 196.1 116.6 194.7 114.5 193.4C113.7 192.9 112.5 192.1 111.5 190.9C110.1 189.2 109.4 186.8 109.5 184.2C109.5 183.2 109.6 182.3 109.8 181.4V181.2C109.9 180.6 109.9 180.2 109.9 179.6C110.1 177.3 109.4 174.7 108 172.8C107.3 171.9 106.8 171.4 106.5 171.4C106.2 171.3 105.6 171.4 104.5 172C101.7 173.5 99.7004 176.3 99.7004 179C99.7004 180.1 99.3004 181 98.5004 181.7C97.8004 182.4 96.8004 182.8 95.7004 182.8C94.6004 182.8 93.7004 182.4 93.0004 181.6C92.3004 180.9 91.9004 179.9 91.9004 178.8C92.0004 173.3 95.5004 167.9 100.9 165.1C103.6 163.6 106.1 163.2 108.3 163.8C110.7 164.4 112.6 165.9 114.3 168.3C116.6 171.7 117.8 175.9 117.5 179.9C117.5 180.7 117.4 181.5 117.3 182.1C117.1 182.8 117.1 183.5 117.1 184.1C117.1 185 117.2 185.6 117.4 185.7C117.6 185.9 118.2 186.3 118.6 186.5C120.6 187.9 122.7 189.2 124.8 190.4C125.6 190.9 126.3 191.8 126.6 192.8C126.8 193.3 126.8 193.5 126.8 193.5ZM124.3 196.8C124.8 196.6 125.2 196.1 125.5 195.7C125.9 195 126 194.3 125.8 193.5C125.6 192.7 125.2 192.1 124.5 191.8C122.4 190.5 120.3 189.1 118.2 187.9C117.6 187.5 117.1 187.2 116.8 186.8C116.4 186.2 116.2 185.1 116.3 184.5C116.4 183.8 116.4 183.2 116.6 182.4C116.7 181.7 116.8 181 116.9 180.3C117.1 176.5 116.1 172.5 114 169.3C112.5 167 110.7 165.7 108.5 165.1C106.5 164.6 104.2 165 101.8 166.3C96.8004 169 93.5004 174 93.4004 179.2C93.4004 180 93.7004 180.7 94.2004 181.3C94.7004 181.8 95.5004 182.2 96.2004 182.1C97.0004 182.1 97.7004 181.8 98.3004 181.3C98.8004 180.8 99.2004 180 99.1004 179.3C99.1004 176.3 101.3 173.1 104.5 171.3C105.1 171 106.3 170.4 107.2 170.6C108 170.8 108.8 171.8 109.3 172.4C110.8 174.5 111.5 177.2 111.3 179.8C111.3 180.3 111.2 180.9 111.1 181.4L111 181.5C110.9 182.4 110.7 183.3 110.7 184.2C110.6 186.7 111.3 188.7 112.5 190.3C113.3 191.4 114.4 192 115.2 192.6C117.3 193.9 119.5 195.3 121.7 196.6C122.4 197.1 123.4 197.1 124.3 196.8Z" fill="#0C41E2"/>
<path d="M137.501 198.8C137.801 200.8 136.801 202.9 134.901 203.9C133.701 204.5 132.501 204.5 131.201 204.1C129.901 203.7 129.001 202.8 128.501 201.7C128.001 200.6 127.901 199.3 128.301 198C128.701 196.8 129.601 195.8 130.701 195.3C131.901 194.7 133.101 194.7 134.401 195.1C135.701 195.5 136.601 196.4 137.101 197.5C137.301 198 137.501 198.3 137.501 198.8ZM129.101 200.3C129.101 200.6 129.301 201 129.401 201.4C130.301 203.3 132.601 204 134.401 203.1C136.301 202.2 137.001 199.9 136.101 198.1C135.601 197.2 134.901 196.5 134.001 196.2C133.001 195.9 132.101 196 131.201 196.3C130.301 196.8 129.601 197.5 129.301 198.4C129.001 199 129.101 199.7 129.101 200.3Z" fill="#0C41E2"/>
<path d="M334.801 161.5C334.001 160.1 334.001 158.3 334.801 156.9C336.601 153.7 338.401 150.6 340.201 147.5C340.901 146.3 341.801 144.7 343.401 143.3C345.701 141.3 348.801 140.2 352.501 140.2C353.901 140.2 355.201 140.3 356.401 140.4C357.301 140.5 358.001 140.6 358.901 140.6C362.401 140.7 366.001 139.5 368.901 137.4C370.201 136.5 371.001 135.5 371.101 134.8C371.201 134 370.901 132.8 370.101 131.5C367.701 127.3 363.201 124.6 359.201 124.6C356.601 124.7 354.401 122.5 354.301 119.9C354.201 117.3 356.401 115.1 359.001 115C366.701 114.8 374.201 119.4 378.501 126.6C380.601 130.1 381.201 133.5 380.701 136.7C380.001 139.9 378.101 142.7 374.801 145.1C370.201 148.5 364.501 150.2 358.801 150.1C357.701 150.1 356.601 150 355.601 149.9C354.501 149.8 353.501 149.7 352.601 149.7C351.301 149.7 350.301 149.9 349.901 150.4C349.501 150.7 349.001 151.6 348.601 152.3C346.801 155.4 345.001 158.4 343.301 161.5C342.001 163.8 339.001 164.7 336.701 163.4C335.801 163 335.101 162.3 334.801 161.5Z" fill="#6A90FF"/>
<path d="M340.2 164.7C338.9 165 337.6 164.8 336.4 164.2C335.5 163.7 334.8 162.9 334.2 162C333.3 160.4 333.3 158.4 334.2 156.7C336 153.5 337.8 150.4 339.6 147.3C340.4 146.1 341.4 144.3 343 142.9C345.4 140.8 348.7 139.7 352.5 139.6C353.9 139.6 355.2 139.7 356.4 139.8H356.7C357.5 139.9 358.2 139.9 358.9 140C362.3 140.1 365.8 139 368.4 137C369.7 136 370.3 135.2 370.4 134.8C370.5 134.4 370.3 133.4 369.4 132C367.1 128.1 362.9 125.4 359.1 125.5C357.6 125.5 356.3 125 355.2 124C354.1 123 353.6 121.6 353.4 120.2C353.4 118.7 353.9 117.4 354.9 116.3C355.9 115.2 357.3 114.7 358.7 114.5C366.6 114.3 374.5 119 378.8 126.4C381 130.1 381.8 133.6 381.1 137C380.4 140.4 378.4 143.3 374.9 145.9C370.2 149.4 364.4 151.3 358.5 151C357.4 151 356.3 150.9 355.3 150.8C354.2 150.7 353.2 150.6 352.3 150.6C351.1 150.6 350.2 150.8 350 151.1C349.7 151.3 349.2 152.2 348.9 152.7C347.1 155.7 345.3 158.8 343.6 161.9C342.8 163.2 341.7 164.1 340.3 164.5C340.4 164.6 340.3 164.7 340.2 164.7ZM335.3 161.2C335.6 161.9 336.3 162.5 336.9 162.8C337.9 163.3 339 163.5 340 163.1C341.1 162.8 342 162.1 342.4 161.1C344.2 158 345.9 154.9 347.7 151.9C348.2 151 348.7 150.3 349.1 149.9C350 149.1 351.5 149 352.4 149C353.4 149 354.4 149.1 355.5 149.2C356.5 149.3 357.6 149.4 358.7 149.4C364.3 149.5 369.8 147.9 374.2 144.5C377.4 142.2 379.2 139.5 379.9 136.5C380.4 133.5 379.8 130.4 377.8 127C373.6 120 366.3 115.6 359 115.7C357.9 115.7 356.9 116.1 356.2 117C355.4 117.8 355 118.9 355.1 120C355.1 121.1 355.5 122.1 356.4 122.8C357.2 123.6 358.3 124 359.4 123.9C363.8 123.8 368.4 126.7 371 131.1C371.5 132 372.3 133.6 372.1 134.9C371.9 136.1 370.5 137.3 369.6 138C366.6 140.2 362.8 141.4 359.2 141.3C358.4 141.3 357.7 141.2 356.9 141.1H356.7C355.4 141 354.2 140.9 352.8 140.9C349.3 140.9 346.3 141.9 344.2 143.7C342.8 145 341.8 146.5 341.1 147.8C339.2 150.9 337.5 154 335.7 157.2C334.8 158.4 334.7 160 335.3 161.2Z" fill="#6A90FF"/>
<path d="M331.701 179.5C335.015 179.5 337.701 176.814 337.701 173.5C337.701 170.187 335.015 167.5 331.701 167.5C328.387 167.5 325.701 170.187 325.701 173.5C325.701 176.814 328.387 179.5 331.701 179.5Z" fill="#6A90FF"/>
<path d="M333.101 180.2C330.301 180.9 327.201 179.5 325.701 176.8C324.801 175.2 324.701 173.4 325.201 171.7C325.701 169.9 326.801 168.5 328.501 167.6C330.101 166.7 331.901 166.6 333.601 167.1C335.401 167.6 336.801 168.7 337.701 170.4C338.601 172 338.701 173.8 338.201 175.5C337.701 177.3 336.601 178.7 334.901 179.6C334.401 179.9 333.801 180.1 333.101 180.2ZM330.601 168.3C330.201 168.4 329.601 168.6 329.201 168.8C326.601 170.2 325.601 173.4 327.001 176C328.401 178.6 331.701 179.6 334.201 178.2C335.401 177.5 336.401 176.3 336.801 175C337.201 173.7 337.001 172.2 336.401 170.9C335.701 169.7 334.501 168.7 333.201 168.3C332.401 168.2 331.501 168.2 330.601 168.3Z" fill="#6A90FF"/>
<path d="M334.801 161.5C334.001 160.1 334.001 158.3 334.801 156.9C336.601 153.7 338.401 150.6 340.201 147.5C340.901 146.3 341.801 144.7 343.401 143.3C345.701 141.3 348.801 140.2 352.501 140.2C353.901 140.2 355.201 140.3 356.401 140.4C357.301 140.5 358.001 140.6 358.901 140.6C362.401 140.7 366.001 139.5 368.901 137.4C370.201 136.5 371.001 135.5 371.101 134.8C371.201 134 370.901 132.8 370.101 131.5C367.701 127.3 363.201 124.6 359.201 124.6C356.601 124.7 354.401 122.5 354.301 119.9C354.201 117.3 356.401 115.1 359.001 115C366.701 114.8 374.201 119.4 378.501 126.6C380.601 130.1 381.201 133.5 380.701 136.7C380.001 139.9 378.101 142.7 374.801 145.1C370.201 148.5 364.501 150.2 358.801 150.1C357.701 150.1 356.601 150 355.601 149.9C354.501 149.8 353.501 149.7 352.601 149.7C351.301 149.7 350.301 149.9 349.901 150.4C349.501 150.7 349.001 151.6 348.601 152.3C346.801 155.4 345.001 158.4 343.301 161.5C342.001 163.8 339.001 164.7 336.701 163.4C335.801 163 335.101 162.3 334.801 161.5Z" fill="#6A90FF"/>
<path d="M340.2 164.7C338.9 165 337.6 164.8 336.4 164.2C335.5 163.7 334.8 162.9 334.2 162C333.3 160.4 333.3 158.4 334.2 156.7C336 153.5 337.8 150.4 339.6 147.3C340.4 146.1 341.4 144.3 343 142.9C345.4 140.8 348.7 139.7 352.5 139.6C353.9 139.6 355.2 139.7 356.4 139.8H356.7C357.5 139.9 358.2 139.9 358.9 140C362.3 140.1 365.8 139 368.4 137C369.7 136 370.3 135.2 370.4 134.8C370.5 134.4 370.3 133.4 369.4 132C367.1 128.1 362.9 125.4 359.1 125.5C357.6 125.5 356.3 125 355.2 124C354.1 123 353.6 121.6 353.4 120.2C353.4 118.7 353.9 117.4 354.9 116.3C355.9 115.2 357.3 114.7 358.7 114.5C366.6 114.3 374.5 119 378.8 126.4C381 130.1 381.8 133.6 381.1 137C380.4 140.4 378.4 143.3 374.9 145.9C370.2 149.4 364.4 151.3 358.5 151C357.4 151 356.3 150.9 355.3 150.8C354.2 150.7 353.2 150.6 352.3 150.6C351.1 150.6 350.2 150.8 350 151.1C349.7 151.3 349.2 152.2 348.9 152.7C347.1 155.7 345.3 158.8 343.6 161.9C342.8 163.2 341.7 164.1 340.3 164.5C340.4 164.6 340.3 164.7 340.2 164.7ZM335.3 161.2C335.6 161.9 336.3 162.5 336.9 162.8C337.9 163.3 339 163.5 340 163.1C341.1 162.8 342 162.1 342.4 161.1C344.2 158 345.9 154.9 347.7 151.9C348.2 151 348.7 150.3 349.1 149.9C350 149.1 351.5 149 352.4 149C353.4 149 354.4 149.1 355.5 149.2C356.5 149.3 357.6 149.4 358.7 149.4C364.3 149.5 369.8 147.9 374.2 144.5C377.4 142.2 379.2 139.5 379.9 136.5C380.4 133.5 379.8 130.4 377.8 127C373.6 120 366.3 115.6 359 115.7C357.9 115.7 356.9 116.1 356.2 117C355.4 117.8 355 118.9 355.1 120C355.1 121.1 355.5 122.1 356.4 122.8C357.2 123.6 358.3 124 359.4 123.9C363.8 123.8 368.4 126.7 371 131.1C371.5 132 372.3 133.6 372.1 134.9C371.9 136.1 370.5 137.3 369.6 138C366.6 140.2 362.8 141.4 359.2 141.3C358.4 141.3 357.7 141.2 356.9 141.1H356.7C355.4 141 354.2 140.9 352.8 140.9C349.3 140.9 346.3 141.9 344.2 143.7C342.8 145 341.8 146.5 341.1 147.8C339.2 150.9 337.5 154 335.7 157.2C334.8 158.4 334.7 160 335.3 161.2Z" fill="#0C41E2"/>
<path d="M333.101 180.2C330.301 180.9 327.201 179.5 325.701 176.8C324.801 175.2 324.701 173.4 325.201 171.7C325.701 169.9 326.801 168.5 328.501 167.6C330.101 166.7 331.901 166.6 333.601 167.1C335.401 167.6 336.801 168.7 337.701 170.4C338.601 172 338.701 173.8 338.201 175.5C337.701 177.3 336.601 178.7 334.901 179.6C334.401 179.9 333.801 180.1 333.101 180.2ZM330.601 168.3C330.201 168.4 329.601 168.6 329.201 168.8C326.601 170.2 325.601 173.4 327.001 176C328.401 178.6 331.701 179.6 334.201 178.2C335.401 177.5 336.401 176.3 336.801 175C337.201 173.7 337.001 172.2 336.401 170.9C335.701 169.7 334.501 168.7 333.201 168.3C332.401 168.2 331.501 168.2 330.601 168.3Z" fill="#0C41E2"/>
<path d="M138.1 168C136.7 168.4 134.9 168.1 133.7 167C131.1 164.7 128.5 162.2 125.9 159.8C125 158.9 123.6 157.6 122.6 155.8C121.2 153.3 120.9 150 121.7 146.5C122 145.1 122.4 143.9 122.8 142.8C123.1 142 123.3 141.2 123.5 140.5C124.4 137.2 124 133.4 122.7 130.3C122.1 128.9 121.4 128 120.7 127.6C120 127.3 118.8 127.4 117.4 127.8C112.9 129.3 109.2 132.8 108.4 136.8C107.9 139.4 105.4 141 102.8 140.5C100.2 140 98.6 137.5 99.1 134.9C100.6 127.6 106.6 121.3 114.4 118.8C118.2 117.6 121.6 117.7 124.4 119C127.3 120.3 129.6 122.8 131.1 126.5C133.4 131.6 133.8 137.4 132.3 142.8C132 143.8 131.7 144.9 131.4 145.8C131.1 146.8 130.8 147.8 130.5 148.6C130.3 149.8 130.2 150.9 130.5 151.4C130.8 151.9 131.4 152.5 132 153C134.5 155.4 137.1 157.7 139.6 160.1C141.5 161.9 141.7 164.8 139.9 166.7C139.7 167.2 138.9 167.8 138.1 168Z" fill="#6A90FF"/>
<path d="M142.2 163.5C142.2 164.8 141.7 166.1 140.8 167C140.1 167.7 139.2 168.3 138.2 168.6C136.4 169 134.5 168.6 133.2 167.4C130.6 165.1 128 162.6 125.3 160.2C124.2 159.2 122.9 157.9 121.9 156C120.4 153.3 120 149.8 120.8 146.2C121.1 144.8 121.5 143.6 121.9 142.5L122 142.2C122.2 141.5 122.5 140.8 122.7 140.1C123.6 136.9 123.3 133.4 121.9 130.4C121.2 128.9 120.6 128.3 120.2 128.1C119.8 127.9 118.9 127.9 117.3 128.4C113 129.8 109.6 133.1 108.8 136.8C108.5 138.2 107.7 139.4 106.4 140.2C105.2 141 103.7 141.3 102.4 141C101 140.7 99.8001 139.9 99.0001 138.6C98.2001 137.3 97.9001 135.9 98.2001 134.6C99.7001 127.1 105.9 120.6 114 118C118 116.7 121.6 116.9 124.6 118.1C127.6 119.5 130 122.1 131.7 125.9C134 131.2 134.4 137.1 133 142.7C132.7 143.8 132.4 144.8 132.1 145.7C131.8 146.6 131.4 147.6 131.3 148.4C131 149.5 131.1 150.4 131.3 150.7C131.6 151.1 132.2 151.7 132.6 152.1C135.1 154.5 137.6 156.8 140.1 159.1C141.2 160.1 141.8 161.4 141.8 162.8C142.2 163.2 142.3 163.3 142.2 163.5ZM137.9 167.2C138.6 167 139.3 166.6 139.8 166C140.5 165.2 140.8 164.2 140.8 163.1C140.8 162.1 140.2 161 139.5 160.3C136.9 158 134.3 155.6 131.9 153.2C131.2 152.5 130.6 151.9 130.3 151.4C129.8 150.4 130 148.9 130.2 148.1C130.4 147.2 130.7 146.2 131.1 145.3C131.4 144.4 131.8 143.4 131.9 142.4C133.3 137.2 132.8 131.5 130.6 126.5C129 123 126.9 120.6 124.2 119.4C121.6 118.2 118.4 118.2 114.7 119.3C107.1 121.7 101.3 127.8 99.9001 134.8C99.7001 135.8 99.9001 137 100.5 137.8C101.1 138.7 102 139.3 103.1 139.5C104.1 139.7 105.2 139.5 106.1 138.9C107 138.3 107.6 137.4 107.8 136.3C108.6 132.1 112.4 128.3 117.1 126.8C118 126.5 119.8 126.1 121 126.6C122.1 127.1 122.9 128.7 123.4 129.6C124.9 132.9 125.2 136.8 124.2 140.3C124 141.1 123.7 141.7 123.5 142.5V142.7C123.1 143.9 122.7 145.1 122.5 146.4C121.7 149.8 122 152.7 123.4 155.2C124.3 156.9 125.6 158.1 126.6 159C129.1 161.4 131.7 163.8 134.4 166.2C135.2 167.2 136.6 167.6 137.9 167.2Z" fill="#6A90FF"/>
<path d="M148.9 179.3C152.158 179.3 154.8 176.658 154.8 173.4C154.8 170.142 152.158 167.5 148.9 167.5C145.642 167.5 143 170.142 143 173.4C143 176.658 145.642 179.3 148.9 179.3Z" fill="#6A90FF"/>
<path d="M155.5 173.5C155.4 176.4 153.6 179 150.7 179.8C149 180.2 147.3 180.1 145.7 179.2C144.1 178.3 143 176.9 142.6 175.2C142.2 173.5 142.3 171.8 143.2 170.2C144.1 168.6 145.5 167.5 147.2 167.1C148.9 166.7 150.6 166.8 152.2 167.7C153.8 168.6 154.9 170 155.3 171.7C155.5 172.3 155.6 172.9 155.5 173.5ZM143.6 173.3C143.6 173.8 143.6 174.3 143.8 174.7C144.6 177.5 147.4 179.2 150.2 178.3C153 177.5 154.7 174.7 153.8 171.9C153.4 170.6 152.5 169.4 151.3 168.7C150.1 168 148.7 167.9 147.4 168.2C146.1 168.6 144.9 169.5 144.2 170.7C143.9 171.6 143.7 172.5 143.6 173.3Z" fill="#6A90FF"/>
<path d="M138.1 168C136.7 168.4 134.9 168.1 133.7 167C131.1 164.7 128.5 162.2 125.9 159.8C125 158.9 123.6 157.6 122.6 155.8C121.2 153.3 120.9 150 121.7 146.5C122 145.1 122.4 143.9 122.8 142.8C123.1 142 123.3 141.2 123.5 140.5C124.4 137.2 124 133.4 122.7 130.3C122.1 128.9 121.4 128 120.7 127.6C120 127.3 118.8 127.4 117.4 127.8C112.9 129.3 109.2 132.8 108.4 136.8C107.9 139.4 105.4 141 102.8 140.5C100.2 140 98.6 137.5 99.1 134.9C100.6 127.6 106.6 121.3 114.4 118.8C118.2 117.6 121.6 117.7 124.4 119C127.3 120.3 129.6 122.8 131.1 126.5C133.4 131.6 133.8 137.4 132.3 142.8C132 143.8 131.7 144.9 131.4 145.8C131.1 146.8 130.8 147.8 130.5 148.6C130.3 149.8 130.2 150.9 130.5 151.4C130.8 151.9 131.4 152.5 132 153C134.5 155.4 137.1 157.7 139.6 160.1C141.5 161.9 141.7 164.8 139.9 166.7C139.7 167.2 138.9 167.8 138.1 168Z" fill="#6A90FF"/>
<path d="M142.2 163.5C142.2 164.8 141.7 166.1 140.8 167C140.1 167.7 139.2 168.3 138.2 168.6C136.4 169 134.5 168.6 133.2 167.4C130.6 165.1 128 162.6 125.3 160.2C124.2 159.2 122.9 157.9 121.9 156C120.4 153.3 120 149.8 120.8 146.2C121.1 144.8 121.5 143.6 121.9 142.5L122 142.2C122.2 141.5 122.5 140.8 122.7 140.1C123.6 136.9 123.3 133.4 121.9 130.4C121.2 128.9 120.6 128.3 120.2 128.1C119.8 127.9 118.9 127.9 117.3 128.4C113 129.8 109.6 133.1 108.8 136.8C108.5 138.2 107.7 139.4 106.4 140.2C105.2 141 103.7 141.3 102.4 141C101 140.7 99.8001 139.9 99.0001 138.6C98.2001 137.3 97.9001 135.9 98.2001 134.6C99.7001 127.1 105.9 120.6 114 118C118 116.7 121.6 116.9 124.6 118.1C127.6 119.5 130 122.1 131.7 125.9C134 131.2 134.4 137.1 133 142.7C132.7 143.8 132.4 144.8 132.1 145.7C131.8 146.6 131.4 147.6 131.3 148.4C131 149.5 131.1 150.4 131.3 150.7C131.6 151.1 132.2 151.7 132.6 152.1C135.1 154.5 137.6 156.8 140.1 159.1C141.2 160.1 141.8 161.4 141.8 162.8C142.2 163.2 142.3 163.3 142.2 163.5ZM137.9 167.2C138.6 167 139.3 166.6 139.8 166C140.5 165.2 140.8 164.2 140.8 163.1C140.8 162.1 140.2 161 139.5 160.3C136.9 158 134.3 155.6 131.9 153.2C131.2 152.5 130.6 151.9 130.3 151.4C129.8 150.4 130 148.9 130.2 148.1C130.4 147.2 130.7 146.2 131.1 145.3C131.4 144.4 131.8 143.4 131.9 142.4C133.3 137.2 132.8 131.5 130.6 126.5C129 123 126.9 120.6 124.2 119.4C121.6 118.2 118.4 118.2 114.7 119.3C107.1 121.7 101.3 127.8 99.9001 134.8C99.7001 135.8 99.9001 137 100.5 137.8C101.1 138.7 102 139.3 103.1 139.5C104.1 139.7 105.2 139.5 106.1 138.9C107 138.3 107.6 137.4 107.8 136.3C108.6 132.1 112.4 128.3 117.1 126.8C118 126.5 119.8 126.1 121 126.6C122.1 127.1 122.9 128.7 123.4 129.6C124.9 132.9 125.2 136.8 124.2 140.3C124 141.1 123.7 141.7 123.5 142.5V142.7C123.1 143.9 122.7 145.1 122.5 146.4C121.7 149.8 122 152.7 123.4 155.2C124.3 156.9 125.6 158.1 126.6 159C129.1 161.4 131.7 163.8 134.4 166.2C135.2 167.2 136.6 167.6 137.9 167.2Z" fill="#0C41E2"/>
<path d="M155.5 173.5C155.4 176.4 153.6 179 150.7 179.8C149 180.2 147.3 180.1 145.7 179.2C144.1 178.3 143 176.9 142.6 175.2C142.2 173.5 142.3 171.8 143.2 170.2C144.1 168.6 145.5 167.5 147.2 167.1C148.9 166.7 150.6 166.8 152.2 167.7C153.8 168.6 154.9 170 155.3 171.7C155.5 172.3 155.6 172.9 155.5 173.5ZM143.6 173.3C143.6 173.8 143.6 174.3 143.8 174.7C144.6 177.5 147.4 179.2 150.2 178.3C153 177.5 154.7 174.7 153.8 171.9C153.4 170.6 152.5 169.4 151.3 168.7C150.1 168 148.7 167.9 147.4 168.2C146.1 168.6 144.9 169.5 144.2 170.7C143.9 171.6 143.7 172.5 143.6 173.3Z" fill="#0C41E2"/>
<path d="M309.1 103C308.3 102.4 307.8 101.4 307.9 100.3C308.1 97.9999 308.3 95.6999 308.6 93.3999C308.7 92.4999 308.8 91.2999 309.4 90.0999C310.2 88.3999 311.7 86.9999 313.9 85.9999C314.7 85.5999 315.5 85.2999 316.2 85.0999C316.7 84.8999 317.2 84.7999 317.7 84.5999C319.8 83.6999 321.6 82.0999 322.6 80.1999C323.1 79.2999 323.3 78.5999 323.2 78.0999C323.1 77.5999 322.5 76.9999 321.7 76.3999C319.2 74.5999 315.9 74.1999 313.5 75.2999C312 75.9999 310.2 75.3999 309.4 73.7999C308.7 72.2999 309.3 70.4999 310.9 69.6999C315.2 67.5999 320.9 68.1999 325.3 71.2999C327.4 72.7999 328.7 74.5999 329.2 76.5999C329.7 78.5999 329.3 80.7999 328 83.0999C326.2 86.1999 323.4 88.7999 320 90.1999C319.3 90.4999 318.7 90.6999 318.1 90.8999C317.4 91.0999 316.8 91.2999 316.3 91.5999C315.6 91.8999 315 92.2999 314.8 92.6999C314.7 92.9999 314.6 93.5999 314.5 94.0999C314.2 96.2999 314 98.5999 313.8 100.8C313.7 102.5 312.2 103.7 310.5 103.6C310.1 103.6 309.6 103.4 309.1 103Z" fill="#6A90FF"/>
<path d="M313.1 103.5C312.4 104 311.6 104.2 310.8 104.2C310.1 104.1 309.5 103.9 308.9 103.5C308 102.8 307.4 101.6 307.6 100.4C307.8 98.1 308 95.8 308.3 93.5C308.4 92.6 308.6 91.4 309.1 90.1C310 88.2 311.6 86.8 313.8 85.8C314.6 85.4 315.4 85.1 316.2 84.9L316.4 84.8C316.9 84.7 317.3 84.5 317.7 84.3C319.7 83.5 321.4 82 322.4 80.1C322.9 79.2 323 78.6 322.9 78.4C322.8 78.1 322.5 77.6 321.6 77C319.2 75.3 316.1 74.9 313.9 75.9C313 76.3 312.1 76.4 311.2 76C310.3 75.7 309.6 75.1 309.2 74.2C308.8 73.3 308.7 72.4 309.1 71.5C309.4 70.6 310 69.9 310.9 69.5C315.4 67.4 321.2 68 325.7 71.2C327.9 72.8 329.3 74.7 329.8 76.7C330.3 78.8 329.9 81.1 328.5 83.5C326.7 86.8 323.8 89.4 320.3 90.8C319.6 91.1 319 91.3 318.4 91.5C317.8 91.7 317.2 91.9 316.7 92.2C316 92.5 315.6 92.9 315.5 93.1C315.4 93.4 315.3 94 315.3 94.4C315 96.6 314.8 98.9 314.6 101.1C314.5 102 314.1 102.9 313.4 103.5C313.2 103.4 313.1 103.4 313.1 103.5ZM309.4 102.7C309.8 103 310.3 103.2 310.7 103.2C311.4 103.3 312 103.1 312.6 102.6C313.1 102.1 313.5 101.5 313.5 100.8C313.7 98.5 313.9 96.3 314.2 94C314.3 93.3 314.3 92.8 314.5 92.5C314.8 91.8 315.7 91.4 316.2 91.2C316.7 90.9 317.3 90.7 318 90.5C318.6 90.3 319.2 90.1 319.9 89.8C323.2 88.5 325.9 86 327.7 82.9C328.9 80.8 329.3 78.7 328.9 76.8C328.5 74.9 327.2 73.3 325.2 71.8C321 68.8 315.6 68.2 311.3 70.2C310.7 70.5 310.2 71 310 71.7C309.8 72.4 309.8 73 310.1 73.7C310.4 74.3 310.9 74.8 311.6 75C312.3 75.2 312.9 75.2 313.6 74.9C316.1 73.7 319.5 74.2 322.2 76C322.7 76.4 323.7 77.1 323.9 77.9C324.1 78.7 323.6 79.8 323.2 80.3C322.1 82.4 320.2 84 318 84.9C317.5 85.1 317.1 85.2 316.6 85.4L316.5 85.5C315.7 85.8 315 86 314.2 86.4C312.2 87.3 310.7 88.7 310 90.3C309.5 91.4 309.3 92.6 309.3 93.4C309 95.7 308.8 97.9 308.6 100.3C308.3 101.3 308.7 102.2 309.4 102.7Z" fill="#6A90FF"/>
<path d="M310.501 114.8C312.654 114.8 314.401 113.054 314.401 110.9C314.401 108.746 312.654 107 310.501 107C308.347 107 306.601 108.746 306.601 110.9C306.601 113.054 308.347 114.8 310.501 114.8Z" fill="#6A90FF"/>
<path d="M313.101 114.3C311.601 115.4 309.501 115.4 307.901 114.2C307.001 113.5 306.401 112.5 306.201 111.3C306.101 110.2 306.301 109 307.101 108.1C307.801 107.2 308.801 106.6 310.001 106.4C311.101 106.3 312.301 106.5 313.201 107.3C314.101 108.1 314.701 109 314.901 110.2C315.001 111.3 314.801 112.5 314.001 113.4C313.701 113.8 313.401 114.1 313.101 114.3ZM308.501 108.1C308.201 108.3 308 108.5 307.8 108.8C306.7 110.3 306.901 112.4 308.401 113.5C309.901 114.6 312.001 114.4 313.101 112.9C313.601 112.2 313.9 111.3 313.8 110.4C313.7 109.5 313.201 108.7 312.501 108.1C311.801 107.5 310.901 107.3 310.001 107.4C309.501 107.5 309.001 107.7 308.501 108.1Z" fill="#6A90FF"/>
<path d="M309.1 103C308.3 102.4 307.8 101.4 307.9 100.3C308.1 97.9999 308.3 95.6999 308.6 93.3999C308.7 92.4999 308.8 91.2999 309.4 90.0999C310.2 88.3999 311.7 86.9999 313.9 85.9999C314.7 85.5999 315.5 85.2999 316.2 85.0999C316.7 84.8999 317.2 84.7999 317.7 84.5999C319.8 83.6999 321.6 82.0999 322.6 80.1999C323.1 79.2999 323.3 78.5999 323.2 78.0999C323.1 77.5999 322.5 76.9999 321.7 76.3999C319.2 74.5999 315.9 74.1999 313.5 75.2999C312 75.9999 310.2 75.3999 309.4 73.7999C308.7 72.2999 309.3 70.4999 310.9 69.6999C315.2 67.5999 320.9 68.1999 325.3 71.2999C327.4 72.7999 328.7 74.5999 329.2 76.5999C329.7 78.5999 329.3 80.7999 328 83.0999C326.2 86.1999 323.4 88.7999 320 90.1999C319.3 90.4999 318.7 90.6999 318.1 90.8999C317.4 91.0999 316.8 91.2999 316.3 91.5999C315.6 91.8999 315 92.2999 314.8 92.6999C314.7 92.9999 314.6 93.5999 314.5 94.0999C314.2 96.2999 314 98.5999 313.8 100.8C313.7 102.5 312.2 103.7 310.5 103.6C310.1 103.6 309.6 103.4 309.1 103Z" fill="#6A90FF"/>
<path d="M313.1 103.5C312.4 104 311.6 104.2 310.8 104.2C310.1 104.1 309.5 103.9 308.9 103.5C308 102.8 307.4 101.6 307.6 100.4C307.8 98.1 308 95.8 308.3 93.5C308.4 92.6 308.6 91.4 309.1 90.1C310 88.2 311.6 86.8 313.8 85.8C314.6 85.4 315.4 85.1 316.2 84.9L316.4 84.8C316.9 84.7 317.3 84.5 317.7 84.3C319.7 83.5 321.4 82 322.4 80.1C322.9 79.2 323 78.6 322.9 78.4C322.8 78.1 322.5 77.6 321.6 77C319.2 75.3 316.1 74.9 313.9 75.9C313 76.3 312.1 76.4 311.2 76C310.3 75.7 309.6 75.1 309.2 74.2C308.8 73.3 308.7 72.4 309.1 71.5C309.4 70.6 310 69.9 310.9 69.5C315.4 67.4 321.2 68 325.7 71.2C327.9 72.8 329.3 74.7 329.8 76.7C330.3 78.8 329.9 81.1 328.5 83.5C326.7 86.8 323.8 89.4 320.3 90.8C319.6 91.1 319 91.3 318.4 91.5C317.8 91.7 317.2 91.9 316.7 92.2C316 92.5 315.6 92.9 315.5 93.1C315.4 93.4 315.3 94 315.3 94.4C315 96.6 314.8 98.9 314.6 101.1C314.5 102 314.1 102.9 313.4 103.5C313.2 103.4 313.1 103.4 313.1 103.5ZM309.4 102.7C309.8 103 310.3 103.2 310.7 103.2C311.4 103.3 312 103.1 312.6 102.6C313.1 102.1 313.5 101.5 313.5 100.8C313.7 98.5 313.9 96.3 314.2 94C314.3 93.3 314.3 92.8 314.5 92.5C314.8 91.8 315.7 91.4 316.2 91.2C316.7 90.9 317.3 90.7 318 90.5C318.6 90.3 319.2 90.1 319.9 89.8C323.2 88.5 325.9 86 327.7 82.9C328.9 80.8 329.3 78.7 328.9 76.8C328.5 74.9 327.2 73.3 325.2 71.8C321 68.8 315.6 68.2 311.3 70.2C310.7 70.5 310.2 71 310 71.7C309.8 72.4 309.8 73 310.1 73.7C310.4 74.3 310.9 74.8 311.6 75C312.3 75.2 312.9 75.2 313.6 74.9C316.1 73.7 319.5 74.2 322.2 76C322.7 76.4 323.7 77.1 323.9 77.9C324.1 78.7 323.6 79.8 323.2 80.3C322.1 82.4 320.2 84 318 84.9C317.5 85.1 317.1 85.2 316.6 85.4L316.5 85.5C315.7 85.8 315 86 314.2 86.4C312.2 87.3 310.7 88.7 310 90.3C309.5 91.4 309.3 92.6 309.3 93.4C309 95.7 308.8 97.9 308.6 100.3C308.3 101.3 308.7 102.2 309.4 102.7Z" fill="#0C41E2"/>
<path d="M313.101 114.3C311.601 115.4 309.501 115.4 307.901 114.2C307.001 113.5 306.401 112.5 306.201 111.3C306.101 110.2 306.301 109 307.101 108.1C307.801 107.2 308.801 106.6 310.001 106.4C311.101 106.3 312.301 106.5 313.201 107.3C314.101 108.1 314.701 109 314.901 110.2C315.001 111.3 314.801 112.5 314.001 113.4C313.701 113.8 313.401 114.1 313.101 114.3ZM308.501 108.1C308.201 108.3 308 108.5 307.8 108.8C306.7 110.3 306.901 112.4 308.401 113.5C309.901 114.6 312.001 114.4 313.101 112.9C313.601 112.2 313.9 111.3 313.8 110.4C313.7 109.5 313.201 108.7 312.501 108.1C311.801 107.5 310.901 107.3 310.001 107.4C309.501 107.5 309.001 107.7 308.501 108.1Z" fill="#0C41E2"/>
<path d="M250.1 70.7001C249.3 70.1001 248.8 69.1001 248.9 68.0001C249.1 65.7001 249.3 63.4001 249.6 61.1001C249.7 60.2001 249.8 59.0001 250.4 57.8001C251.2 56.1001 252.7 54.7001 254.9 53.7001C255.7 53.3001 256.5 53.0001 257.2 52.8001C257.7 52.6001 258.2 52.5001 258.7 52.3001C260.8 51.4001 262.6 49.8001 263.6 47.9001C264.1 47.0001 264.3 46.3001 264.2 45.8001C264.1 45.3001 263.5 44.7001 262.7 44.1001C260.2 42.3001 256.9 41.9001 254.5 43.0001C253 43.7001 251.2 43.1001 250.4 41.5001C249.6 39.9001 250.3 38.2001 251.9 37.4001C256.2 35.3001 261.9 35.9001 266.3 39.0001C268.4 40.5001 269.7 42.3001 270.2 44.3001C270.7 46.3001 270.3 48.5001 269 50.8001C267.2 53.9001 264.4 56.5001 261 57.9001C260.3 58.2001 259.7 58.4001 259.1 58.6001C258.4 58.8001 257.8 59.0001 257.3 59.3001C256.6 59.6001 256 60.0001 255.8 60.4001C255.7 60.7001 255.6 61.3001 255.5 61.8001C255.2 64.0001 255 66.3001 254.8 68.5001C254.7 70.2001 253.2 71.4001 251.5 71.3001C251.1 71.3001 250.6 71.1001 250.1 70.7001Z" fill="#6A90FF"/>
<path d="M254.1 71.1001C253.4 71.6001 252.6 71.8001 251.8 71.8001C251.1 71.7001 250.5 71.5001 249.9 71.1001C249 70.4001 248.4 69.2001 248.6 68.0001C248.8 65.7001 249 63.4001 249.3 61.1001C249.4 60.2001 249.6 59.0001 250.1 57.7001C251 55.8001 252.6 54.4001 254.8 53.4001C255.6 53.0001 256.4 52.7001 257.2 52.5001L257.4 52.4001C257.9 52.3001 258.3 52.1001 258.7 51.9001C260.7 51.1001 262.4 49.6001 263.4 47.7001C263.9 46.8001 264 46.2001 263.9 46.0001C263.8 45.7001 263.5 45.2001 262.6 44.6001C260.2 42.9001 257.1 42.5001 254.9 43.5001C254 43.9001 253.1 44.0001 252.2 43.6001C251.3 43.3001 250.6 42.7001 250.2 41.8001C249.8 40.9001 249.7 40.0001 250.1 39.1001C250.5 38.2001 251 37.5001 251.9 37.1001C256.4 35.0001 262.2 35.6001 266.7 38.8001C268.9 40.4001 270.3 42.3001 270.8 44.3001C271.3 46.4001 270.9 48.7001 269.5 51.1001C267.7 54.4001 264.8 57.0001 261.3 58.4001C260.6 58.7001 260 58.9001 259.4 59.1001C258.8 59.3001 258.2 59.5001 257.7 59.8001C257 60.1001 256.6 60.5001 256.5 60.7001C256.4 61.0001 256.3 61.6001 256.3 62.0001C256 64.2001 255.8 66.5001 255.6 68.7001C255.5 69.6001 255.1 70.5001 254.4 71.1001C254.2 71.0001 254.1 71.1001 254.1 71.1001ZM250.5 70.3001C250.9 70.6001 251.4 70.8001 251.8 70.8001C252.5 70.9001 253.1 70.7001 253.7 70.2001C254.2 69.7001 254.6 69.1001 254.6 68.4001C254.8 66.1001 255 63.9001 255.3 61.6001C255.4 60.9001 255.4 60.4001 255.6 60.1001C255.9 59.4001 256.8 59.0001 257.3 58.8001C257.8 58.5001 258.4 58.3001 259.1 58.1001C259.7 57.9001 260.3 57.7001 261 57.4001C264.3 56.1001 267 53.6001 268.8 50.5001C270 48.4001 270.4 46.3001 270 44.4001C269.6 42.5001 268.3 40.9001 266.3 39.4001C262.1 36.4001 256.7 35.8001 252.4 37.8001C251.8 38.1001 251.3 38.6001 251.1 39.3001C250.9 40.0001 250.9 40.6001 251.2 41.3001C251.5 41.9001 252 42.4001 252.7 42.6001C253.4 42.8001 254 42.8001 254.7 42.5001C257.2 41.3001 260.6 41.8001 263.3 43.6001C263.8 44.0001 264.8 44.7001 265 45.5001C265.2 46.3001 264.7 47.4001 264.3 47.9001C263.2 50.0001 261.3 51.6001 259.1 52.5001C258.6 52.7001 258.2 52.8001 257.7 53.0001L257.6 53.1001C256.8 53.4001 256.1 53.6001 255.3 54.0001C253.3 54.9001 251.8 56.3001 251.1 57.9001C250.6 59.0001 250.4 60.2001 250.4 61.0001C250.1 63.3001 249.9 65.5001 249.7 67.9001C249.3 68.9001 249.7 69.8001 250.5 70.3001Z" fill="#6A90FF"/>
<path d="M251.501 82.4001C253.654 82.4001 255.401 80.654 255.401 78.5001C255.401 76.3462 253.654 74.6001 251.501 74.6001C249.347 74.6001 247.601 76.3462 247.601 78.5001C247.601 80.654 249.347 82.4001 251.501 82.4001Z" fill="#6A90FF"/>
<path d="M254.101 81.9999C252.601 83.0999 250.501 83.0999 248.901 81.8999C248.001 81.1999 247.401 80.1999 247.201 78.9999C247.101 77.8999 247.301 76.6999 248.101 75.7999C248.801 74.8999 249.801 74.2999 251.001 74.0999C252.101 73.9999 253.301 74.1999 254.201 74.9999C255.101 75.6999 255.701 76.6999 255.901 77.8999C256.001 78.9999 255.801 80.1999 255.001 81.0999C254.701 81.3999 254.401 81.6999 254.101 81.9999ZM249.501 75.6999C249.201 75.8999 249.001 76.0999 248.801 76.3999C247.701 77.8999 247.901 79.9999 249.401 81.0999C250.901 82.1999 253.001 81.9999 254.101 80.4999C254.601 79.7999 254.901 78.8999 254.801 77.9999C254.701 77.0999 254.201 76.2999 253.501 75.6999C252.801 75.0999 251.901 74.8999 251.001 74.9999C250.501 75.0999 250.001 75.2999 249.501 75.6999Z" fill="#6A90FF"/>
<path d="M250.1 70.7001C249.3 70.1001 248.8 69.1001 248.9 68.0001C249.1 65.7001 249.3 63.4001 249.6 61.1001C249.7 60.2001 249.8 59.0001 250.4 57.8001C251.2 56.1001 252.7 54.7001 254.9 53.7001C255.7 53.3001 256.5 53.0001 257.2 52.8001C257.7 52.6001 258.2 52.5001 258.7 52.3001C260.8 51.4001 262.6 49.8001 263.6 47.9001C264.1 47.0001 264.3 46.3001 264.2 45.8001C264.1 45.3001 263.5 44.7001 262.7 44.1001C260.2 42.3001 256.9 41.9001 254.5 43.0001C253 43.7001 251.2 43.1001 250.4 41.5001C249.6 39.9001 250.3 38.2001 251.9 37.4001C256.2 35.3001 261.9 35.9001 266.3 39.0001C268.4 40.5001 269.7 42.3001 270.2 44.3001C270.7 46.3001 270.3 48.5001 269 50.8001C267.2 53.9001 264.4 56.5001 261 57.9001C260.3 58.2001 259.7 58.4001 259.1 58.6001C258.4 58.8001 257.8 59.0001 257.3 59.3001C256.6 59.6001 256 60.0001 255.8 60.4001C255.7 60.7001 255.6 61.3001 255.5 61.8001C255.2 64.0001 255 66.3001 254.8 68.5001C254.7 70.2001 253.2 71.4001 251.5 71.3001C251.1 71.3001 250.6 71.1001 250.1 70.7001Z" fill="#6A90FF"/>
<path d="M254.1 71.1001C253.4 71.6001 252.6 71.8001 251.8 71.8001C251.1 71.7001 250.5 71.5001 249.9 71.1001C249 70.4001 248.4 69.2001 248.6 68.0001C248.8 65.7001 249 63.4001 249.3 61.1001C249.4 60.2001 249.6 59.0001 250.1 57.7001C251 55.8001 252.6 54.4001 254.8 53.4001C255.6 53.0001 256.4 52.7001 257.2 52.5001L257.4 52.4001C257.9 52.3001 258.3 52.1001 258.7 51.9001C260.7 51.1001 262.4 49.6001 263.4 47.7001C263.9 46.8001 264 46.2001 263.9 46.0001C263.8 45.7001 263.5 45.2001 262.6 44.6001C260.2 42.9001 257.1 42.5001 254.9 43.5001C254 43.9001 253.1 44.0001 252.2 43.6001C251.3 43.3001 250.6 42.7001 250.2 41.8001C249.8 40.9001 249.7 40.0001 250.1 39.1001C250.5 38.2001 251 37.5001 251.9 37.1001C256.4 35.0001 262.2 35.6001 266.7 38.8001C268.9 40.4001 270.3 42.3001 270.8 44.3001C271.3 46.4001 270.9 48.7001 269.5 51.1001C267.7 54.4001 264.8 57.0001 261.3 58.4001C260.6 58.7001 260 58.9001 259.4 59.1001C258.8 59.3001 258.2 59.5001 257.7 59.8001C257 60.1001 256.6 60.5001 256.5 60.7001C256.4 61.0001 256.3 61.6001 256.3 62.0001C256 64.2001 255.8 66.5001 255.6 68.7001C255.5 69.6001 255.1 70.5001 254.4 71.1001C254.2 71.0001 254.1 71.1001 254.1 71.1001ZM250.5 70.3001C250.9 70.6001 251.4 70.8001 251.8 70.8001C252.5 70.9001 253.1 70.7001 253.7 70.2001C254.2 69.7001 254.6 69.1001 254.6 68.4001C254.8 66.1001 255 63.9001 255.3 61.6001C255.4 60.9001 255.4 60.4001 255.6 60.1001C255.9 59.4001 256.8 59.0001 257.3 58.8001C257.8 58.5001 258.4 58.3001 259.1 58.1001C259.7 57.9001 260.3 57.7001 261 57.4001C264.3 56.1001 267 53.6001 268.8 50.5001C270 48.4001 270.4 46.3001 270 44.4001C269.6 42.5001 268.3 40.9001 266.3 39.4001C262.1 36.4001 256.7 35.8001 252.4 37.8001C251.8 38.1001 251.3 38.6001 251.1 39.3001C250.9 40.0001 250.9 40.6001 251.2 41.3001C251.5 41.9001 252 42.4001 252.7 42.6001C253.4 42.8001 254 42.8001 254.7 42.5001C257.2 41.3001 260.6 41.8001 263.3 43.6001C263.8 44.0001 264.8 44.7001 265 45.5001C265.2 46.3001 264.7 47.4001 264.3 47.9001C263.2 50.0001 261.3 51.6001 259.1 52.5001C258.6 52.7001 258.2 52.8001 257.7 53.0001L257.6 53.1001C256.8 53.4001 256.1 53.6001 255.3 54.0001C253.3 54.9001 251.8 56.3001 251.1 57.9001C250.6 59.0001 250.4 60.2001 250.4 61.0001C250.1 63.3001 249.9 65.5001 249.7 67.9001C249.3 68.9001 249.7 69.8001 250.5 70.3001Z" fill="#0C41E2"/>
<path d="M254.101 81.9999C252.601 83.0999 250.501 83.0999 248.901 81.8999C248.001 81.1999 247.401 80.1999 247.201 78.9999C247.101 77.8999 247.301 76.6999 248.101 75.7999C248.801 74.8999 249.801 74.2999 251.001 74.0999C252.101 73.9999 253.301 74.1999 254.201 74.9999C255.101 75.6999 255.701 76.6999 255.901 77.8999C256.001 78.9999 255.801 80.1999 255.001 81.0999C254.701 81.3999 254.401 81.6999 254.101 81.9999ZM249.501 75.6999C249.201 75.8999 249.001 76.0999 248.801 76.3999C247.701 77.8999 247.901 79.9999 249.401 81.0999C250.901 82.1999 253.001 81.9999 254.101 80.4999C254.601 79.7999 254.901 78.8999 254.801 77.9999C254.701 77.0999 254.201 76.2999 253.501 75.6999C252.801 75.0999 251.901 74.8999 251.001 74.9999C250.501 75.0999 250.001 75.2999 249.501 75.6999Z" fill="#0C41E2"/>
<path d="M157.6 104.4C156.6 104.4 155.6 103.8 155.1 102.9C154 100.9 152.9 98.8998 151.8 96.7998C151.4 95.9998 150.8 94.9998 150.6 93.5998C150.3 91.6998 150.8 89.6998 152 87.6998C152.4 86.8998 153 86.1998 153.4 85.5998C153.7 85.0998 154 84.7998 154.4 84.2998C155.6 82.3998 156.2 80.0998 156 77.8998C155.9 76.8998 155.7 76.1998 155.3 75.7998C154.9 75.4998 154.1 75.2998 153.1 75.1998C150 75.0998 147 76.5998 145.7 78.7998C144.8 80.2998 143 80.6998 141.5 79.8998C140 79.0998 139.6 77.1998 140.4 75.6998C142.8 71.5998 147.9 68.8998 153.2 68.9998C155.8 69.0998 157.9 69.7998 159.4 71.1998C160.9 72.5998 161.8 74.6998 162 77.1998C162.3 80.7998 161.4 84.4998 159.4 87.4998C159 88.0998 158.6 88.5998 158.2 89.0998C157.8 89.5998 157.4 90.0998 157.1 90.6998C156.7 91.3998 156.5 91.9998 156.5 92.4998C156.6 92.8998 156.9 93.3998 157.1 93.7998C158.1 95.7998 159.2 97.7998 160.3 99.6998C161.1 101.2 160.6 103 159.2 103.9C158.8 104.4 158.2 104.5 157.6 104.4Z" fill="#6A90FF"/>
<path d="M161.1 102.6C160.8 103.4 160.2 104.1 159.5 104.5C158.9 104.8 158.2 105 157.5 104.9C156.3 104.8 155.2 104.2 154.7 103.1C153.6 101.1 152.5 99.1 151.4 97C150.9 96.2 150.4 95.1 150.2 93.7C149.9 91.7 150.4 89.5 151.6 87.5C152 86.7 152.6 86 153.1 85.4L153.2 85.2C153.5 84.8 153.7 84.4 154 84.1C155.2 82.3 155.8 80.1 155.6 78C155.5 77 155.2 76.4 155.1 76.3C154.9 76.1 154.3 75.9 153.3 75.8C150.4 75.8 147.6 77.1 146.3 79.2C145.8 80 145.1 80.6 144.2 80.8C143.3 81 142.3 80.9 141.5 80.4C140.7 79.9 140.1 79.2 139.9 78.3C139.7 77.4 139.8 76.4 140.3 75.6C142.9 71.3 148 68.6 153.5 68.7C156.2 68.8 158.4 69.6 160 71C161.6 72.5 162.5 74.6 162.7 77.3C163 81 162.1 84.8 160 87.9C159.6 88.5 159.2 89 158.8 89.6C158.4 90.1 158 90.6 157.7 91.1C157.3 91.8 157.1 92.3 157.2 92.5C157.2 92.8 157.5 93.3 157.7 93.7C158.7 95.7 159.8 97.7 160.9 99.6C161.4 100.4 161.5 101.4 161.2 102.3C161.2 102.4 161.1 102.5 161.1 102.6ZM157.7 104C158.2 104.1 158.7 103.9 159.1 103.7C159.7 103.4 160.1 102.8 160.3 102.2C160.5 101.5 160.4 100.8 160.1 100.2C159 98.2 157.9 96.3 156.9 94.2C156.6 93.6 156.3 93.1 156.3 92.8C156.1 92.1 156.7 91.2 156.9 90.8C157.2 90.3 157.6 89.8 158 89.2C158.4 88.7 158.8 88.2 159.2 87.6C161.2 84.7 162.1 81.1 161.8 77.6C161.6 75.2 160.8 73.2 159.4 71.8C158 70.5 156 69.8 153.5 69.7C148.3 69.6 143.5 72.1 141.1 76.2C140.8 76.8 140.7 77.5 140.8 78.2C141 78.9 141.4 79.4 142 79.8C142.6 80.1 143.3 80.2 144 80.1C144.7 79.9 145.2 79.5 145.6 78.9C147 76.5 150.1 75 153.4 75C154.1 75 155.3 75.1 155.9 75.7C156.5 76.3 156.7 77.4 156.7 78.1C156.9 80.5 156.3 82.9 155 84.8C154.7 85.2 154.4 85.6 154.1 86L154 86.1C153.5 86.8 153 87.4 152.5 88.1C151.4 90 150.9 91.9 151.2 93.7C151.4 94.9 151.9 96 152.3 96.7C153.4 98.7 154.5 100.7 155.6 102.8C156 103.4 156.8 103.9 157.7 104Z" fill="#6A90FF"/>
<path d="M165.286 113.361C167.071 112.155 167.541 109.731 166.336 107.946C165.13 106.161 162.706 105.691 160.921 106.896C159.136 108.101 158.666 110.526 159.871 112.311C161.076 114.096 163.501 114.566 165.286 113.361Z" fill="#6A90FF"/>
<path d="M167.2 111.5C166.6 113.3 164.8 114.5 162.8 114.4C161.6 114.3 160.6 113.8 159.8 113C159.1 112.1 158.6 111 158.7 109.9C158.8 108.7 159.3 107.7 160.1 106.9C161 106.2 162.1 105.7 163.2 105.8C164.4 105.9 165.4 106.4 166.2 107.2C166.9 108.1 167.4 109.2 167.3 110.3C167.4 110.8 167.3 111.2 167.2 111.5ZM159.9 108.9C159.8 109.2 159.7 109.5 159.7 109.8C159.6 111.7 161 113.3 162.9 113.4C164.8 113.5 166.4 112.1 166.5 110.2C166.5 109.3 166.3 108.4 165.6 107.7C165 107.1 164.2 106.7 163.2 106.6C162.2 106.5 161.4 106.8 160.7 107.5C160.4 107.9 160.1 108.4 159.9 108.9Z" fill="#6A90FF"/>
<path d="M157.6 104.4C156.6 104.4 155.6 103.8 155.1 102.9C154 100.9 152.9 98.8998 151.8 96.7998C151.4 95.9998 150.8 94.9998 150.6 93.5998C150.3 91.6998 150.8 89.6998 152 87.6998C152.4 86.8998 153 86.1998 153.4 85.5998C153.7 85.0998 154 84.7998 154.4 84.2998C155.6 82.3998 156.2 80.0998 156 77.8998C155.9 76.8998 155.7 76.1998 155.3 75.7998C154.9 75.4998 154.1 75.2998 153.1 75.1998C150 75.0998 147 76.5998 145.7 78.7998C144.8 80.2998 143 80.6998 141.5 79.8998C140 79.0998 139.6 77.1998 140.4 75.6998C142.8 71.5998 147.9 68.8998 153.2 68.9998C155.8 69.0998 157.9 69.7998 159.4 71.1998C160.9 72.5998 161.8 74.6998 162 77.1998C162.3 80.7998 161.4 84.4998 159.4 87.4998C159 88.0998 158.6 88.5998 158.2 89.0998C157.8 89.5998 157.4 90.0998 157.1 90.6998C156.7 91.3998 156.5 91.9998 156.5 92.4998C156.6 92.8998 156.9 93.3998 157.1 93.7998C158.1 95.7998 159.2 97.7998 160.3 99.6998C161.1 101.2 160.6 103 159.2 103.9C158.8 104.4 158.2 104.5 157.6 104.4Z" fill="#6A90FF"/>
<path d="M161.1 102.6C160.8 103.4 160.2 104.1 159.5 104.5C158.9 104.8 158.2 105 157.5 104.9C156.3 104.8 155.2 104.2 154.7 103.1C153.6 101.1 152.5 99.1 151.4 97C150.9 96.2 150.4 95.1 150.2 93.7C149.9 91.7 150.4 89.5 151.6 87.5C152 86.7 152.6 86 153.1 85.4L153.2 85.2C153.5 84.8 153.7 84.4 154 84.1C155.2 82.3 155.8 80.1 155.6 78C155.5 77 155.2 76.4 155.1 76.3C154.9 76.1 154.3 75.9 153.3 75.8C150.4 75.8 147.6 77.1 146.3 79.2C145.8 80 145.1 80.6 144.2 80.8C143.3 81 142.3 80.9 141.5 80.4C140.7 79.9 140.1 79.2 139.9 78.3C139.7 77.4 139.8 76.4 140.3 75.6C142.9 71.3 148 68.6 153.5 68.7C156.2 68.8 158.4 69.6 160 71C161.6 72.5 162.5 74.6 162.7 77.3C163 81 162.1 84.8 160 87.9C159.6 88.5 159.2 89 158.8 89.6C158.4 90.1 158 90.6 157.7 91.1C157.3 91.8 157.1 92.3 157.2 92.5C157.2 92.8 157.5 93.3 157.7 93.7C158.7 95.7 159.8 97.7 160.9 99.6C161.4 100.4 161.5 101.4 161.2 102.3C161.2 102.4 161.1 102.5 161.1 102.6ZM157.7 104C158.2 104.1 158.7 103.9 159.1 103.7C159.7 103.4 160.1 102.8 160.3 102.2C160.5 101.5 160.4 100.8 160.1 100.2C159 98.2 157.9 96.3 156.9 94.2C156.6 93.6 156.3 93.1 156.3 92.8C156.1 92.1 156.7 91.2 156.9 90.8C157.2 90.3 157.6 89.8 158 89.2C158.4 88.7 158.8 88.2 159.2 87.6C161.2 84.7 162.1 81.1 161.8 77.6C161.6 75.2 160.8 73.2 159.4 71.8C158 70.5 156 69.8 153.5 69.7C148.3 69.6 143.5 72.1 141.1 76.2C140.8 76.8 140.7 77.5 140.8 78.2C141 78.9 141.4 79.4 142 79.8C142.6 80.1 143.3 80.2 144 80.1C144.7 79.9 145.2 79.5 145.6 78.9C147 76.5 150.1 75 153.4 75C154.1 75 155.3 75.1 155.9 75.7C156.5 76.3 156.7 77.4 156.7 78.1C156.9 80.5 156.3 82.9 155 84.8C154.7 85.2 154.4 85.6 154.1 86L154 86.1C153.5 86.8 153 87.4 152.5 88.1C151.4 90 150.9 91.9 151.2 93.7C151.4 94.9 151.9 96 152.3 96.7C153.4 98.7 154.5 100.7 155.6 102.8C156 103.4 156.8 103.9 157.7 104Z" fill="#0C41E2"/>
<path d="M167.2 111.5C166.6 113.3 164.8 114.5 162.8 114.4C161.6 114.3 160.6 113.8 159.8 113C159.1 112.1 158.6 111 158.7 109.9C158.8 108.7 159.3 107.7 160.1 106.9C161 106.2 162.1 105.7 163.2 105.8C164.4 105.9 165.4 106.4 166.2 107.2C166.9 108.1 167.4 109.2 167.3 110.3C167.4 110.8 167.3 111.2 167.2 111.5ZM159.9 108.9C159.8 109.2 159.7 109.5 159.7 109.8C159.6 111.7 161 113.3 162.9 113.4C164.8 113.5 166.4 112.1 166.5 110.2C166.5 109.3 166.3 108.4 165.6 107.7C165 107.1 164.2 106.7 163.2 106.6C162.2 106.5 161.4 106.8 160.7 107.5C160.4 107.9 160.1 108.4 159.9 108.9Z" fill="#0C41E2"/>
</svg>
