<svg width="500" height="500" viewBox="0 0 500 500" fill="none" xmlns="http://www.w3.org/2000/svg">
<path fill-rule="evenodd" clip-rule="evenodd" d="M0.370766 219.266C3.98757 146.206 37.9529 76.0003 94.4634 31.7672C145.229 -7.96915 212.695 -0.806733 276.309 3.278C334.35 7.00495 395.716 11.3472 436.833 53.7514C477.946 96.1522 479.437 159.662 485.737 219.266C493.247 290.313 518.36 368.621 476.101 425.269C431.198 485.459 349.955 499.691 276.309 499.996C202.324 500.304 127.566 480.515 74.9007 426.935C21.9283 373.043 -3.42285 295.897 0.370766 219.266Z" fill="#EDF1FE"/>
<path d="M407.72 222.44C407.72 224.41 407.69 226.38 407.62 228.33H363.74C363.84 226.38 363.88 224.41 363.88 222.44C363.88 154.32 308.65 99.09 240.52 99.09V55.25C332.86 55.25 407.72 130.1 407.72 222.44Z" fill="#EDF1FE"/>
<path d="M407.63 228.83H363.75C363.61 228.83 363.48 228.77 363.39 228.67C363.3 228.57 363.25 228.44 363.25 228.3C363.34 226.43 363.39 224.46 363.39 222.43C363.39 154.69 308.27 99.5802 240.53 99.5802C240.25 99.5802 240.03 99.3602 240.03 99.0802V55.2402C240.03 54.9602 240.25 54.7402 240.53 54.7402C333 54.7402 408.23 129.96 408.23 222.43C408.23 224.39 408.2 226.38 408.13 228.34C408.13 228.61 407.9 228.82 407.63 228.82V228.83ZM364.27 227.83H407.14C407.19 226.04 407.22 224.23 407.22 222.44C407.22 130.7 332.71 56.0302 241.02 55.7502V98.5902C309.09 98.8602 364.38 154.32 364.38 222.44C364.38 224.29 364.34 226.1 364.26 227.83H364.27Z" fill="#6A90FF"/>
<path d="M407.63 228.33C404.52 317.94 330.9 389.64 240.53 389.64V345.8C306.69 345.8 360.68 293.72 363.75 228.33H407.63Z" fill="#EDF1FE"/>
<path d="M240.53 390.13C240.25 390.13 240.03 389.91 240.03 389.63V345.79C240.03 345.51 240.25 345.29 240.53 345.29C306.26 345.29 360.17 293.9 363.25 228.3C363.26 228.03 363.48 227.82 363.75 227.82H407.63C407.77 227.82 407.9 227.87 407.99 227.97C408.08 228.07 408.13 228.2 408.13 228.34C406.62 271.88 388.52 312.58 357.15 342.94C325.71 373.37 284.29 390.13 240.53 390.13ZM241.03 346.3V389.14C284.35 389.01 325.32 372.37 356.46 342.23C387.51 312.17 405.49 271.92 407.12 228.83H364.24C360.9 294.58 306.93 346.04 241.04 346.3H241.03Z" fill="#6A90FF"/>
<path d="M240.53 345.8V389.64C150.17 389.64 76.5504 317.95 73.4404 228.33H117.32C120.39 293.72 174.38 345.8 240.53 345.8Z" fill="#EDF1FE"/>
<path d="M240.53 390.13C196.77 390.13 155.36 373.37 123.92 342.94C92.5604 312.58 74.4504 271.88 72.9404 228.34C72.9404 228.2 72.9904 228.07 73.0804 227.97C73.1704 227.87 73.3004 227.82 73.4404 227.82H117.32C117.59 227.82 117.81 228.03 117.82 228.3C120.9 293.9 174.81 345.29 240.53 345.29C240.81 345.29 241.03 345.51 241.03 345.79V389.63C241.03 389.91 240.81 390.13 240.53 390.13ZM73.9504 228.83C75.5704 271.92 93.5504 312.17 124.61 342.23C155.74 372.36 196.71 389.01 240.03 389.14V346.3C174.15 346.04 120.18 294.58 116.84 228.83H73.9604H73.9504Z" fill="#6A90FF"/>
<path d="M240.53 55.25V99.09C172.41 99.09 117.18 154.32 117.18 222.44C117.18 224.41 117.22 226.38 117.32 228.33H73.4398C73.3798 226.38 73.3398 224.41 73.3398 222.44C73.3398 130.11 148.19 55.25 240.53 55.25Z" fill="#EDF1FE"/>
<path d="M117.31 228.83H73.4301C73.1601 228.83 72.9401 228.62 72.9301 228.35C72.8701 226.39 72.8301 224.4 72.8301 222.44C72.8301 129.98 148.05 54.75 240.52 54.75C240.8 54.75 241.02 54.97 241.02 55.25V99.09C241.02 99.37 240.8 99.59 240.52 99.59C172.78 99.59 117.67 154.7 117.67 222.44C117.67 224.47 117.72 226.44 117.81 228.31C117.81 228.45 117.77 228.58 117.67 228.68C117.58 228.78 117.44 228.84 117.31 228.84V228.83ZM73.9201 227.83H116.79C116.71 226.11 116.67 224.3 116.67 222.44C116.67 154.32 171.96 98.86 240.02 98.59V55.75C148.34 56.02 73.8301 130.69 73.8301 222.44C73.8301 224.23 73.8601 226.04 73.9101 227.83H73.9201Z" fill="#6A90FF"/>
<path d="M205.17 253.02L203 257.05L237.75 329.68L353.77 287.15L355.93 283.12L205.17 253.02Z" fill="#6A90FF"/>
<path d="M237.75 330.18C237.56 330.18 237.38 330.07 237.3 329.9L202.56 257.27C202.49 257.13 202.5 256.96 202.57 256.82L204.74 252.79C204.84 252.6 205.06 252.49 205.28 252.54L356.04 282.64C356.2 282.67 356.33 282.77 356.39 282.92C356.46 283.06 356.45 283.23 356.38 283.37L354.21 287.4C354.15 287.51 354.06 287.59 353.94 287.63L237.92 330.16C237.86 330.18 237.81 330.19 237.75 330.19V330.18ZM203.56 257.06L238 329.05L353.41 286.74L355.17 283.47L205.43 253.58L203.56 257.06Z" fill="#6A90FF"/>
<path d="M321.191 210.48L205.171 253.02L239.921 325.65L355.931 283.12L321.191 210.48Z" fill="#EDF1FE"/>
<path d="M239.921 326.15C239.731 326.15 239.551 326.04 239.471 325.87L204.731 253.24C204.671 253.11 204.671 252.97 204.721 252.84C204.771 252.71 204.881 252.61 205.011 252.56L321.031 210.03C321.271 209.94 321.541 210.05 321.651 210.28L356.391 282.91C356.451 283.04 356.451 283.18 356.401 283.31C356.351 283.44 356.241 283.54 356.111 283.59L240.091 326.12C240.031 326.14 239.981 326.15 239.921 326.15ZM205.861 253.3L240.171 325.03L355.241 282.84L320.931 211.11L205.861 253.3Z" fill="#6A90FF"/>
<path d="M326.811 271.48L304.151 279.79L300.921 273.03L323.421 264.4L326.811 271.48Z" fill="#6A90FF"/>
<path d="M304.15 280.29C303.96 280.29 303.78 280.18 303.7 280.01L300.47 273.25C300.41 273.12 300.41 272.98 300.46 272.85C300.51 272.72 300.61 272.62 300.75 272.57L323.25 263.94C323.5 263.85 323.77 263.96 323.88 264.19L327.27 271.28C327.33 271.41 327.33 271.55 327.28 271.68C327.23 271.81 327.12 271.91 326.99 271.96L304.33 280.27C304.27 280.29 304.21 280.3 304.16 280.3L304.15 280.29ZM301.61 273.3L304.41 279.16L326.12 271.2L323.17 265.03L301.6 273.3H301.61Z" fill="#6A90FF"/>
<path d="M327.94 250.72L233.85 286.82L219 255.77L313.74 221.04L327.94 250.72Z" fill="#EDF1FE"/>
<path d="M233.85 287.32C233.66 287.32 233.48 287.21 233.4 287.04L218.55 255.99C218.49 255.86 218.49 255.72 218.54 255.59C218.59 255.46 218.7 255.36 218.83 255.31L313.57 220.58C313.81 220.49 314.08 220.6 314.19 220.83L328.39 250.51C328.45 250.64 328.45 250.78 328.4 250.91C328.35 251.04 328.25 251.14 328.11 251.19L234.02 287.29C233.96 287.31 233.9 287.32 233.84 287.32H233.85ZM219.69 256.05L234.1 286.19L327.25 250.45L313.48 221.67L219.68 256.05H219.69Z" fill="#6A90FF"/>
<path d="M327.12 380.37L324.22 431.42H371.6L380.86 401.27L407.72 431.42H462.65L411.61 355.59L327.12 380.37Z" fill="#EDF1FE"/>
<path d="M462.65 431.92H407.72C407.58 431.92 407.44 431.86 407.35 431.75L381.07 402.26L372.08 431.56C372.02 431.77 371.82 431.91 371.6 431.91H324.22C324.08 431.91 323.95 431.85 323.86 431.75C323.77 431.65 323.72 431.52 323.72 431.38L326.62 380.33C326.63 380.12 326.78 379.94 326.98 379.88L411.46 355.1C411.67 355.04 411.89 355.12 412.02 355.3L463.07 431.13C463.17 431.28 463.18 431.48 463.1 431.64C463.02 431.8 462.84 431.9 462.66 431.9L462.65 431.92ZM407.95 430.92H461.72L411.4 356.18L327.61 380.76L324.76 430.93H371.24L380.39 401.13C380.44 400.96 380.58 400.83 380.76 400.79C380.94 400.75 381.12 400.81 381.24 400.95L407.96 430.93L407.95 430.92Z" fill="#282828"/>
<path d="M284.84 288.17C283.95 281.13 286.52 270.97 287.86 265.61C289.2 260.25 287.3 259.24 285.51 259.8C283.72 260.36 282.27 263.49 282.27 263.49C282.27 263.49 280.59 255.56 277.8 254.67C275.01 253.78 272.89 256.01 272.89 256.01C272.89 256.01 268.98 254.45 267.08 257.69C267.08 257.69 262.39 256.91 261.16 260.93C261.16 260.93 257.14 261.49 255.24 265.4C253.34 269.31 255.69 269.87 257.14 269.09C258.59 268.31 259.49 267.75 259.49 267.75C259.49 267.75 259.38 271.32 261.72 277.91C264.07 284.5 269.54 289.75 269.54 289.75L284.84 288.18V288.17Z" fill="#EDF1FE"/>
<path d="M269.53 290.24C269.4 290.24 269.28 290.19 269.18 290.1C268.95 289.88 263.59 284.69 261.24 278.07C259.53 273.26 259.11 270.05 259.01 268.6C258.61 268.83 258.05 269.15 257.37 269.52C256.56 269.96 255.35 270.09 254.6 269.37C254.02 268.82 253.59 267.64 254.79 265.17C256.49 261.67 259.75 260.71 260.78 260.48C261.89 257.44 265.03 256.95 266.83 257.14C268.44 254.76 271.24 254.93 272.77 255.43C273.44 254.84 275.44 253.38 277.96 254.19C280.32 254.94 281.84 259.73 282.46 262.11C283.09 261.09 284.14 259.71 285.37 259.32C286.38 259.01 287.28 259.16 287.91 259.75C288.95 260.73 289.1 262.74 288.35 265.73L288.31 265.89C286.97 271.25 284.47 281.24 285.34 288.11C285.36 288.24 285.32 288.38 285.24 288.48C285.16 288.59 285.03 288.65 284.9 288.67L269.6 290.24C269.6 290.24 269.57 290.24 269.55 290.24H269.53ZM259.48 267.23C259.57 267.23 259.65 267.25 259.73 267.3C259.89 267.39 259.99 267.56 259.98 267.75C259.98 267.79 259.91 271.33 262.19 277.73C264.24 283.5 268.81 288.29 269.72 289.22L284.28 287.73C283.56 280.7 286 270.95 287.33 265.65L287.37 265.49C288.22 262.07 287.64 260.88 287.21 260.48C286.76 260.05 286.11 260.13 285.65 260.28C284.36 260.68 283.09 262.88 282.71 263.7C282.62 263.89 282.41 264.01 282.2 263.99C281.99 263.97 281.81 263.81 281.77 263.6C281.32 261.47 279.7 255.81 277.64 255.15C275.17 254.36 273.26 256.34 273.24 256.36C273.1 256.51 272.88 256.55 272.69 256.48C272.55 256.42 269.15 255.12 267.5 257.94C267.4 258.12 267.19 258.22 266.99 258.18C266.81 258.15 262.71 257.53 261.63 261.07C261.57 261.26 261.41 261.39 261.22 261.42C261.18 261.42 257.43 262 255.68 265.61C254.97 267.07 254.82 268.21 255.29 268.65C255.61 268.96 256.3 268.95 256.9 268.64C258.32 267.88 259.21 267.32 259.22 267.32C259.3 267.27 259.39 267.24 259.48 267.24V267.23Z" fill="#282828"/>
<path d="M277.11 263.42C276.88 263.42 276.67 263.26 276.62 263.02C275.85 259.39 272.58 256.4 272.55 256.37C272.35 256.19 272.33 255.87 272.51 255.66C272.7 255.46 273.01 255.44 273.22 255.62C273.36 255.75 276.77 258.85 277.6 262.8C277.66 263.07 277.48 263.34 277.21 263.39C277.17 263.39 277.14 263.4 277.11 263.4V263.42Z" fill="#282828"/>
<path d="M271.41 264.66C271.2 264.66 271 264.53 270.93 264.31C270.91 264.26 269.29 259.31 266.85 258.12C266.6 258 266.5 257.7 266.62 257.45C266.74 257.2 267.04 257.1 267.29 257.22C270.11 258.6 271.81 263.78 271.88 264C271.96 264.26 271.82 264.54 271.56 264.63C271.51 264.65 271.46 264.65 271.41 264.65V264.66Z" fill="#282828"/>
<path d="M265.49 266.06C265.27 266.06 265.07 265.91 265.01 265.69C263.98 261.87 261.2 261.43 261.08 261.41C260.81 261.37 260.62 261.12 260.66 260.85C260.7 260.58 260.94 260.37 261.22 260.42C261.36 260.44 264.77 260.95 265.97 265.43C266.04 265.7 265.88 265.97 265.62 266.04C265.58 266.05 265.53 266.06 265.49 266.06Z" fill="#282828"/>
<path d="M283.27 275.68C282.99 275.68 282.77 275.45 282.77 275.18C282.77 275.11 282.81 267.69 281.78 263.61C281.71 263.34 281.87 263.07 282.14 263C282.41 262.93 282.68 263.09 282.75 263.36C283.81 267.56 283.77 274.87 283.77 275.18C283.77 275.45 283.54 275.68 283.27 275.68Z" fill="#282828"/>
<path d="M348.36 266.55C336.53 270.25 324.12 284.69 317.28 295.58C310.44 306.47 302.08 320.15 302.08 320.15L287.35 283.97C287.35 283.97 273.2 278.2 264.9 293.35C264.9 293.35 264.15 348.12 280.75 355.29C297.35 362.46 320.75 341.89 320.75 341.89C320.75 341.89 320.72 380.55 323.54 384.18C326.36 387.81 358.19 389.02 384.38 378.14C410.57 367.26 416.15 357.99 416.15 357.99C416.15 357.99 410.17 299.97 406.95 289.09C403.73 278.21 366.09 265.18 366.09 265.18C366.09 265.18 355.64 263.03 348.36 266.54V266.55Z" fill="#6A90FF"/>
<path d="M337.42 215.76C336.78 211.34 335.39 203.21 339.25 200.46C343.11 197.71 366.61 191.43 375.42 208.11C375.42 208.11 392.15 217.8 384.59 234.78C377.04 251.77 361.59 253.02 361.59 253.02L337.41 215.75L337.42 215.76Z" fill="#282828"/>
<path d="M361.6 253.53C361.43 253.53 361.27 253.45 361.18 253.3L337 216.03C336.96 215.97 336.94 215.9 336.92 215.83L336.83 215.22C336.15 210.6 335.02 202.86 338.96 200.06C341.34 198.37 351.99 194.95 361.86 197.29C368.2 198.79 372.89 202.32 375.8 207.76C377.35 208.72 392.35 218.59 385.05 234.99C377.46 252.05 361.79 253.52 361.63 253.53C361.62 253.53 361.6 253.53 361.59 253.53H361.6ZM337.9 215.58L361.85 252.5C363.99 252.21 377.37 249.81 384.14 234.59C387.19 227.73 386.62 221.28 382.46 215.41C379.33 210.99 375.22 208.58 375.18 208.56C375.1 208.51 375.03 208.44 374.99 208.36C372.22 203.12 367.73 199.72 361.64 198.28C352.07 196.01 341.83 199.27 339.55 200.89C336.11 203.34 337.19 210.7 337.83 215.09L337.9 215.6V215.58Z" fill="#282828"/>
<path d="M347.28 245.31L348.36 266.55C348.36 266.55 357.91 262.85 366.09 265.19L363.35 243.21L347.29 245.31H347.28Z" fill="#EDF1FE"/>
<path d="M348.35 267.05C348.25 267.05 348.16 267.02 348.08 266.97C347.95 266.88 347.86 266.74 347.85 266.58L346.77 245.34C346.76 245.08 346.95 244.85 347.2 244.82L363.26 242.72C363.4 242.7 363.53 242.74 363.63 242.82C363.74 242.9 363.8 243.02 363.82 243.15L366.57 265.13C366.59 265.3 366.53 265.46 366.4 265.57C366.27 265.68 366.1 265.72 365.94 265.67C358.01 263.4 348.62 266.98 348.53 267.02C348.47 267.04 348.41 267.05 348.35 267.05ZM347.8 245.74L348.82 265.84C351.05 265.08 358.57 262.82 365.5 264.51L362.91 243.77L347.8 245.74Z" fill="#282828"/>
<path d="M330.45 233.95C330.45 233.95 326.8 245.66 330.94 251.89C331.97 253.45 333.73 254.59 335.78 255.43C343.34 258.51 352.03 256.19 357.39 250.04L358.47 248.8C371.92 249.4 365.68 230.81 359.17 235.06C352.73 229.71 347.19 223.37 342.77 216.27L339.16 210.48C339.16 210.48 333.72 221.43 331.53 227.86C331.53 227.86 327.81 227.18 326.88 229.79C325.95 232.39 330.46 233.95 330.46 233.95H330.45Z" fill="#EDF1FE"/>
<path d="M342.75 257.29C340.33 257.29 337.9 256.83 335.59 255.89C333.23 254.93 331.52 253.67 330.52 252.17C326.71 246.44 329.2 236.51 329.84 234.25C328.99 233.89 327.17 232.99 326.5 231.6C326.19 230.96 326.16 230.29 326.39 229.62C327.26 227.18 330.09 227.2 331.17 227.31C333.42 220.88 338.64 210.37 338.69 210.26C338.77 210.1 338.93 209.99 339.11 209.98C339.28 209.95 339.46 210.06 339.56 210.21L343.17 216C347.51 222.97 352.91 229.17 359.2 234.44C360.73 233.6 362.35 233.77 363.81 234.94C366.19 236.85 367.81 241.34 366.44 244.98C365.8 246.67 363.93 249.41 358.68 249.3L357.76 250.36C353.85 254.85 348.33 257.29 342.74 257.29H342.75ZM330.48 228.28C329.44 228.28 327.85 228.53 327.34 229.96C327.19 230.37 327.21 230.77 327.41 231.17C327.98 232.36 329.92 233.24 330.62 233.48C330.88 233.57 331.02 233.84 330.93 234.1C330.89 234.22 327.4 245.65 331.35 251.61C332.24 252.95 333.79 254.07 335.96 254.96C343.23 257.92 351.69 255.81 357.01 249.7L358.09 248.46C358.19 248.34 358.33 248.26 358.49 248.29C363.08 248.49 364.84 246.41 365.51 244.63C366.71 241.44 365.25 237.38 363.19 235.72C362.34 235.04 361.01 234.45 359.44 235.47C359.26 235.59 359.01 235.57 358.85 235.44C352.36 230.05 346.81 223.69 342.34 216.53L339.21 211.51C337.92 214.16 333.81 222.7 332 228.02C331.92 228.25 331.68 228.39 331.44 228.35C331.43 228.35 331.04 228.28 330.49 228.28H330.48Z" fill="#282828"/>
<path d="M336.32 243.31C335.17 243.31 334.39 243.07 334.37 243.06C334.11 242.98 333.96 242.69 334.05 242.43C334.13 242.17 334.41 242.02 334.68 242.1C334.86 242.16 339.13 243.45 342.19 239.07C342.35 238.84 342.66 238.79 342.89 238.95C343.12 239.11 343.17 239.42 343.01 239.65C340.88 242.71 338.14 243.3 336.32 243.3V243.31Z" fill="#282828"/>
<path d="M335.23 220.71C338.32 218.12 343.07 220.86 344.36 224.13C344.48 224.38 344.36 224.68 344.12 224.8C343.92 224.89 343.7 224.85 343.55 224.7C342.46 223.59 341.37 222.51 339.97 221.87C338.77 221.32 337.19 220.95 335.94 221.41C335.43 221.73 334.85 221.22 335.22 220.71H335.23Z" fill="#282828"/>
<path d="M339.02 227.48C338.62 228.78 337.57 229.6 336.68 229.32C335.78 229.04 335.38 227.78 335.78 226.48C335.9 226.09 336.08 225.74 336.31 225.45L337.6 226.76L337.45 224.64C337.68 224.58 337.9 224.58 338.12 224.64C339.01 224.91 339.42 226.18 339.03 227.47L339.02 227.48Z" fill="#282828"/>
<path d="M363.89 242.98C363.61 242.98 363.39 242.76 363.39 242.48C363.39 240.95 362.85 239.66 361.98 239.1C361.29 238.66 360.39 238.68 359.33 239.18C359.08 239.3 358.78 239.18 358.67 238.94C358.55 238.69 358.67 238.39 358.91 238.27C360.64 237.46 361.83 237.81 362.52 238.25C363.69 239 364.39 240.57 364.39 242.47C364.39 242.75 364.17 242.97 363.89 242.97V242.98Z" fill="#282828"/>
<path d="M360.55 245.16C360.39 245.16 360.24 245.09 360.14 244.95C359.98 244.73 360.03 244.41 360.26 244.25C362.19 242.88 362.83 239.86 362.84 239.83C362.9 239.56 363.16 239.38 363.43 239.44C363.7 239.5 363.87 239.76 363.82 240.03C363.79 240.17 363.09 243.47 360.84 245.06C360.75 245.12 360.65 245.15 360.55 245.15V245.16Z" fill="#282828"/>
<path d="M384.84 218.48C384.84 218.48 389.53 228.49 389.09 240.39C388.64 252.29 399 262.3 407.97 268.99C418.84 277.1 420.23 301.36 403.92 307.24C384.92 314.08 368.71 315.6 361.95 300.15C357.07 289 364.51 252.48 364.51 252.48" fill="#282828"/>
<path d="M381.28 312.72C372.9 312.72 365.54 309.63 361.48 300.34C356.59 289.17 363.7 253.87 364.01 252.37C364.06 252.1 364.33 251.93 364.6 251.98C364.87 252.04 365.05 252.3 364.99 252.57C364.92 252.93 357.64 289.06 362.4 299.94C368.07 312.91 380.82 315.01 403.74 306.76C412.37 303.66 414.73 295.93 415.38 291.6C416.66 283.01 413.41 273.67 407.67 269.38C394.65 259.67 388.23 249.9 388.59 240.36C389.03 228.73 384.44 218.78 384.39 218.68C384.27 218.43 384.39 218.13 384.63 218.01C384.88 217.9 385.18 218.01 385.3 218.25C385.35 218.35 390.04 228.51 389.59 240.39C389.24 249.59 395.53 259.07 408.27 268.57C414.3 273.07 417.7 282.81 416.38 291.74C415.23 299.48 410.75 305.29 404.09 307.69C396.71 310.35 388.61 312.7 381.29 312.7L381.28 312.72Z" fill="#282828"/>
<path d="M324.22 340.93C324.09 340.93 323.97 340.88 323.87 340.79C323.67 340.6 323.67 340.28 323.87 340.08C341.97 321.69 346.82 306.69 340.06 289.92C339.96 289.66 340.08 289.37 340.34 289.27C340.6 289.17 340.89 289.29 340.99 289.55C347.92 306.74 343.01 322.06 324.58 340.78C324.48 340.88 324.35 340.93 324.22 340.93Z" fill="#6A90FF"/>
<path d="M380.859 401.77C380.749 401.77 380.639 401.73 380.549 401.66C380.329 401.49 380.3 401.17 380.47 400.96L388.359 391.1C388.529 390.89 388.85 390.85 389.06 391.02C389.28 391.19 389.31 391.51 389.14 391.72L381.25 401.58C381.15 401.7 381.009 401.77 380.859 401.77Z" fill="#282828"/>
<path d="M430.59 97.0298H320.48V172.2H430.59V97.0298Z" fill="#EDF1FE"/>
<path d="M430.59 172.69H320.48C320.2 172.69 319.98 172.47 319.98 172.19V97.02C319.98 96.74 320.2 96.52 320.48 96.52H430.59C430.87 96.52 431.09 96.74 431.09 97.02V172.19C431.09 172.47 430.87 172.69 430.59 172.69ZM320.98 171.69H430.09V97.52H320.98V171.69Z" fill="#6A90FF"/>
<path d="M345.51 136.67H331.62V160.32H345.51V136.67Z" fill="#6A90FF"/>
<path d="M345.51 160.83H331.62C331.34 160.83 331.12 160.61 331.12 160.33V136.68C331.12 136.4 331.34 136.18 331.62 136.18H345.51C345.79 136.18 346.01 136.4 346.01 136.68V160.33C346.01 160.61 345.79 160.83 345.51 160.83ZM332.12 159.83H345.01V137.18H332.12V159.83Z" fill="#6A90FF"/>
<path d="M370.151 128.66H356.261V160.33H370.151V128.66Z" fill="#6A90FF"/>
<path d="M370.161 160.83H356.271C355.991 160.83 355.771 160.61 355.771 160.33V128.66C355.771 128.38 355.991 128.16 356.271 128.16H370.161C370.441 128.16 370.661 128.38 370.661 128.66V160.33C370.661 160.61 370.441 160.83 370.161 160.83ZM356.761 159.83H369.651V129.16H356.761V159.83Z" fill="#6A90FF"/>
<path d="M394.8 119.43H380.91V160.32H394.8V119.43Z" fill="#6A90FF"/>
<path d="M394.8 160.83H380.91C380.63 160.83 380.41 160.61 380.41 160.33V119.44C380.41 119.16 380.63 118.94 380.91 118.94H394.8C395.08 118.94 395.3 119.16 395.3 119.44V160.33C395.3 160.61 395.08 160.83 394.8 160.83ZM381.41 159.83H394.3V119.94H381.41V159.83Z" fill="#6A90FF"/>
<path d="M419.451 108.89H405.561V160.32H419.451V108.89Z" fill="#6A90FF"/>
<path d="M419.451 160.83H405.561C405.281 160.83 405.061 160.61 405.061 160.33V108.9C405.061 108.62 405.281 108.4 405.561 108.4H419.451C419.731 108.4 419.951 108.62 419.951 108.9V160.33C419.951 160.61 419.731 160.83 419.451 160.83ZM406.061 159.83H418.951V109.4H406.061V159.83Z" fill="#6A90FF"/>
<path d="M155.64 136.67H45.5303V211.84H155.64V136.67Z" fill="#EDF1FE"/>
<path d="M155.64 212.34H45.5303C45.2503 212.34 45.0303 212.12 45.0303 211.84V136.67C45.0303 136.39 45.2503 136.17 45.5303 136.17H155.64C155.92 136.17 156.14 136.39 156.14 136.67V211.84C156.14 212.12 155.92 212.34 155.64 212.34ZM46.0303 211.34H155.14V137.17H46.0303V211.34Z" fill="#6A90FF"/>
<path d="M98.9599 203.05V197.57C97.5199 197.4 96.2099 197 95.0099 196.4C93.8099 195.79 92.7799 195.01 91.9099 194.05C90.0799 192.09 89.1699 189.64 89.1699 186.68V184.07H95.8199V186.42C95.8199 187.42 96.0599 188.35 96.5399 189.22C97.0199 190.09 97.8199 190.65 98.9499 190.92V175.92L96.7299 175.01C93.8599 173.84 91.9399 172.28 90.9599 170.35C89.9799 168.42 89.4899 165.99 89.4899 163.08C89.4899 159.78 90.2699 156.94 91.8399 154.57C93.3999 152.2 95.7699 150.8 98.9499 150.36V145.47H102.28V150.36C103.76 150.53 105.09 150.94 106.29 151.57C107.49 152.2 108.52 153.02 109.39 154.02C110.26 155.02 110.91 156.11 111.35 157.28C111.78 158.45 112 159.65 112 160.87V164.13H105.35V162.63C105.35 161.24 105.12 160.04 104.67 159.04C104.22 158.04 103.42 157.37 102.29 157.02V170.13L105.03 171.24C106.51 171.81 107.7 172.47 108.62 173.23C109.53 173.99 110.25 174.87 110.77 175.87C111.25 176.91 111.57 178.1 111.75 179.43C111.92 180.76 112.01 182.27 112.01 183.96C112.01 185.83 111.85 187.56 111.52 189.14C111.19 190.73 110.66 192.11 109.92 193.28C109.14 194.5 108.13 195.48 106.89 196.21C105.65 196.95 104.12 197.41 102.29 197.58V203.06H98.9599V203.05ZM98.9599 157.01C97.8299 157.45 97.0799 158.21 96.7099 159.29C96.3399 160.38 96.1599 161.62 96.1599 163.01C96.1599 164.57 96.3099 165.76 96.6199 166.56C96.9299 167.36 97.7099 168.07 98.9699 168.68V157.01H98.9599ZM102.28 190.92C103.67 190.57 104.53 189.82 104.86 188.67C105.19 187.52 105.35 185.96 105.35 184.01C105.35 182.92 105.32 182.01 105.25 181.27C105.19 180.53 105.04 179.92 104.83 179.44C104.35 178.53 103.5 177.83 102.29 177.35V190.92H102.28Z" fill="#6A90FF"/>
<path d="M170.11 309.49H60V384.66H170.11V309.49Z" fill="#EDF1FE"/>
<path d="M170.11 385.16H60C59.72 385.16 59.5 384.94 59.5 384.66V309.49C59.5 309.21 59.72 308.99 60 308.99H170.11C170.39 308.99 170.61 309.21 170.61 309.49V384.66C170.61 384.94 170.39 385.16 170.11 385.16ZM60.5 384.16H169.61V309.99H60.5V384.16Z" fill="#6A90FF"/>
<path d="M158.91 370.63C158.79 370.63 158.67 370.59 158.58 370.5L143.06 356.74H122.27C122.11 356.74 121.95 356.66 121.86 356.53L110.42 340.24H86.8804C86.7704 340.24 86.6704 340.21 86.5804 340.14L70.9204 328.55C70.7004 328.38 70.6504 328.07 70.8204 327.85C70.9804 327.63 71.3004 327.58 71.5204 327.75L87.0504 339.24H110.69C110.85 339.24 111.01 339.32 111.1 339.45L122.54 355.74H143.27C143.39 355.74 143.51 355.78 143.6 355.87L159.26 369.75C159.47 369.93 159.49 370.25 159.3 370.46C159.2 370.57 159.06 370.63 158.93 370.63H158.91Z" fill="#6A90FF"/>
<path d="M71.21 330.41C72.4526 330.41 73.46 329.403 73.46 328.16C73.46 326.918 72.4526 325.91 71.21 325.91C69.9673 325.91 68.96 326.918 68.96 328.16C68.96 329.403 69.9673 330.41 71.21 330.41Z" fill="#6A90FF"/>
<path d="M71.21 330.91C69.69 330.91 68.46 329.68 68.46 328.16C68.46 326.64 69.69 325.41 71.21 325.41C72.73 325.41 73.96 326.64 73.96 328.16C73.96 329.68 72.73 330.91 71.21 330.91ZM71.21 326.41C70.25 326.41 69.46 327.19 69.46 328.16C69.46 329.13 70.24 329.91 71.21 329.91C72.18 329.91 72.96 329.13 72.96 328.16C72.96 327.19 72.18 326.41 71.21 326.41Z" fill="#6A90FF"/>
<path d="M86.8604 341.92C88.103 341.92 89.1104 340.913 89.1104 339.67C89.1104 338.428 88.103 337.42 86.8604 337.42C85.6177 337.42 84.6104 338.428 84.6104 339.67C84.6104 340.913 85.6177 341.92 86.8604 341.92Z" fill="#6A90FF"/>
<path d="M86.8604 342.42C85.3504 342.42 84.1104 341.19 84.1104 339.67C84.1104 338.15 85.3404 336.92 86.8604 336.92C88.3804 336.92 89.6104 338.15 89.6104 339.67C89.6104 341.19 88.3804 342.42 86.8604 342.42ZM86.8604 337.93C85.9004 337.93 85.1104 338.71 85.1104 339.68C85.1104 340.65 85.8904 341.43 86.8604 341.43C87.8304 341.43 88.6104 340.65 88.6104 339.68C88.6104 338.71 87.8304 337.93 86.8604 337.93Z" fill="#6A90FF"/>
<path d="M110.79 341.92C112.033 341.92 113.04 340.913 113.04 339.67C113.04 338.428 112.033 337.42 110.79 337.42C109.547 337.42 108.54 338.428 108.54 339.67C108.54 340.913 109.547 341.92 110.79 341.92Z" fill="#6A90FF"/>
<path d="M110.79 342.42C109.27 342.42 108.04 341.19 108.04 339.67C108.04 338.15 109.27 336.92 110.79 336.92C112.31 336.92 113.54 338.15 113.54 339.67C113.54 341.19 112.31 342.42 110.79 342.42ZM110.79 337.93C109.83 337.93 109.04 338.71 109.04 339.68C109.04 340.65 109.82 341.43 110.79 341.43C111.76 341.43 112.54 340.65 112.54 339.68C112.54 338.71 111.76 337.93 110.79 337.93Z" fill="#6A90FF"/>
<path d="M121.84 358.02C123.082 358.02 124.09 357.013 124.09 355.77C124.09 354.527 123.082 353.52 121.84 353.52C120.597 353.52 119.59 354.527 119.59 355.77C119.59 357.013 120.597 358.02 121.84 358.02Z" fill="#6A90FF"/>
<path d="M121.84 358.52C120.32 358.52 119.09 357.29 119.09 355.77C119.09 354.25 120.32 353.02 121.84 353.02C123.36 353.02 124.59 354.25 124.59 355.77C124.59 357.29 123.36 358.52 121.84 358.52ZM121.84 354.02C120.88 354.02 120.09 354.8 120.09 355.77C120.09 356.74 120.87 357.52 121.84 357.52C122.81 357.52 123.59 356.74 123.59 355.77C123.59 354.8 122.81 354.02 121.84 354.02Z" fill="#6A90FF"/>
<path d="M143.72 358.02C144.962 358.02 145.97 357.013 145.97 355.77C145.97 354.527 144.962 353.52 143.72 353.52C142.477 353.52 141.47 354.527 141.47 355.77C141.47 357.013 142.477 358.02 143.72 358.02Z" fill="#6A90FF"/>
<path d="M143.72 358.52C142.21 358.52 140.97 357.29 140.97 355.77C140.97 354.25 142.2 353.02 143.72 353.02C145.24 353.02 146.47 354.25 146.47 355.77C146.47 357.29 145.24 358.52 143.72 358.52ZM143.72 354.02C142.76 354.02 141.97 354.8 141.97 355.77C141.97 356.74 142.75 357.52 143.72 357.52C144.69 357.52 145.47 356.74 145.47 355.77C145.47 354.8 144.69 354.02 143.72 354.02Z" fill="#6A90FF"/>
<path d="M158.91 372.38C160.153 372.38 161.16 371.373 161.16 370.13C161.16 368.888 160.153 367.88 158.91 367.88C157.668 367.88 156.66 368.888 156.66 370.13C156.66 371.373 157.668 372.38 158.91 372.38Z" fill="#6A90FF"/>
<path d="M158.91 372.88C157.39 372.88 156.16 371.65 156.16 370.13C156.16 368.61 157.39 367.38 158.91 367.38C160.43 367.38 161.66 368.61 161.66 370.13C161.66 371.65 160.43 372.88 158.91 372.88ZM158.91 368.38C157.95 368.38 157.16 369.16 157.16 370.13C157.16 371.1 157.94 371.88 158.91 371.88C159.88 371.88 160.66 371.1 160.66 370.13C160.66 369.16 159.88 368.38 158.91 368.38Z" fill="#6A90FF"/>
</svg>
