<svg width="500" height="500" viewBox="0 0 500 500" fill="none" xmlns="http://www.w3.org/2000/svg">
<path fill-rule="evenodd" clip-rule="evenodd" d="M266.096 0.0150398C340.664 -0.813797 413.997 32.6719 458.728 86.3819C499.069 134.821 479.376 199.301 482.431 259.777C485.753 325.541 523.389 398.74 477.081 449.693C429.325 502.24 341.274 503.265 266.096 497.815C197.499 492.842 135.371 465.054 86.5624 421.382C37.5852 377.56 1.63635 321.922 0.0583405 259.777C-1.55316 196.313 30.3624 137.285 78.1634 90.6119C128.236 41.7208 192.228 0.836104 266.096 0.0150398Z" fill="#EDF1FE"/>
<path d="M178.3 118.2C163.4 124.6 102.4 152.9 55.4999 207.2C53.6999 209.3 53.5999 212.3 55.2999 214.5C73.3999 236.9 170.4 356.2 213.3 385.3C215.3 386.7 218 386.6 219.9 385.1C234.5 373.8 296.1 325.6 327.9 292.5C329.9 290.4 330 287.2 328.2 285C310.6 263 222.2 154.2 184.4 119.2C182.8 117.7 180.4 117.3 178.3 118.2Z" fill="#6A90FF"/>
<path d="M197 121.1C182.1 127.5 121.1 155.8 74.2001 210.1C72.4001 212.2 72.3001 215.2 74.0001 217.4C92.1001 239.8 189 359 232 388.1C234 389.5 236.7 389.4 238.6 387.9C253.2 376.6 314.8 328.4 346.6 295.3C348.6 293.2 348.7 290 346.9 287.8C329.2 265.9 240.8 157.2 203 122.2C201.4 120.6 199.1 120.2 197 121.1Z" fill="white"/>
<path d="M235.1 389.5C233.9 389.5 232.7 389.1 231.7 388.4C188.9 359.4 92.5 241 73.6 217.5C71.7 215.2 71.8 211.8 73.8 209.6C120.2 155.9 179.7 127.8 196.8 120.5C199 119.5 201.6 120 203.4 121.7C241.3 156.8 330 265.8 347.3 287.3C349.2 289.7 349.1 293.2 346.9 295.5C314.7 329 251.2 378.6 238.8 388.2C237.8 389.1 236.5 389.5 235.1 389.5ZM199.2 121.1C198.5 121.1 197.8 121.2 197.2 121.5C180.1 128.8 120.8 156.8 74.6 210.3C73 212.2 72.9 215 74.4 216.9C93.3 240.3 189.6 358.7 232.3 387.5C234.1 388.7 236.6 388.6 238.3 387.3C250.7 377.7 314.1 328.2 346.3 294.7C348.1 292.8 348.2 289.9 346.6 287.9C329.2 266.4 240.6 157.4 202.8 122.4C201.8 121.6 200.5 121.1 199.2 121.1Z" fill="#0C41E2"/>
<path d="M257.436 344.312C268.461 335.113 268.164 316.587 256.772 302.933C245.38 289.279 227.207 285.667 216.182 294.865C205.156 304.064 205.454 322.59 216.846 336.244C228.238 349.898 246.411 353.51 257.436 344.312Z" fill="white"/>
<path d="M242.9 349.9C241 349.9 239.1 349.7 237.2 349.3C220.5 345.4 208.5 330.9 207.6 313.8C207.5 305.8 210.4 298.9 215.8 294.4C221.2 289.9 228.6 288.2 236.4 289.8C244.6 291.6 251.9 296.1 257.1 302.6C268.7 316.5 269 335.3 257.7 344.7C253.6 348.2 248.3 350 242.9 349.9ZM230.7 290.2C225.5 290.1 220.5 291.9 216.4 295.2C211.2 299.5 208.4 306.2 208.5 313.8C209.4 330.4 221.1 344.5 237.3 348.3C244.8 349.8 251.8 348.2 257 343.9C267.8 334.9 267.4 316.7 256.2 303.2C251.1 296.9 244 292.4 236 290.7C234.4 290.4 232.6 290.3 230.7 290.2Z" fill="#0C41E2"/>
<path d="M246 326.6H245.9L223.7 320C223.4 319.9 223.3 319.6 223.3 319.4C223.4 319.1 223.7 319 223.9 319L245.5 325.4L251.9 278.2C251.9 277.9 252.2 277.7 252.5 277.8C252.8 277.8 253 278.1 252.9 278.4L246.4 326.2C246.4 326.3 246.3 326.5 246.2 326.6C246.2 326.5 246.1 326.6 246 326.6Z" fill="#6A90FF"/>
<path d="M209.899 201.4C209.899 202.3 209.899 203.3 209.799 204.2C209.799 204.5 209.799 204.7 209.699 205C208.099 220 196.499 232.2 181.199 235.6C176.599 236.6 171.899 236.8 167.299 236.1C163.399 235.6 159.699 234.4 156.199 232.7C144.099 226.9 135.899 215.1 135.899 201.4C135.899 198.7 136.199 196.1 136.799 193.5C139.299 183.8 145.699 175.7 154.499 171C160.199 167.9 166.499 166.4 172.899 166.4C173.599 166.4 174.399 166.4 175.099 166.5C176.199 166.6 177.399 166.7 178.499 166.8C190.999 168.4 201.799 176.4 207.099 187.8C208.899 192.1 209.899 196.7 209.899 201.4Z" fill="white"/>
<path d="M172.8 236.9C170.9 236.9 169 236.8 167.2 236.5C163.3 235.9 159.5 234.8 155.9 233.1C143.2 227 135.3 214.9 135.3 201.4C135.3 198.7 135.6 196 136.3 193.4C138.8 183.6 145.3 175.3 154.2 170.6C159.9 167.5 166.3 165.9 172.8 165.9C173.5 165.9 174.3 165.9 175 166C176.2 166.1 177.3 166.2 178.4 166.4C191.2 168.2 202.3 176.3 207.4 187.6C209.4 191.9 210.4 196.7 210.4 201.4C210.4 202.5 210.4 203.4 210.3 204.2C210.3 204.5 210.3 204.7 210.2 205C208.6 220.1 197 232.6 181.3 236C178.6 236.7 175.7 236.9 172.8 236.9ZM172.8 166.9C166.5 166.9 160.2 168.5 154.6 171.5C145.9 176.1 139.6 184.2 137.2 193.7C136.6 196.2 136.3 198.9 136.3 201.5C136.3 214.6 144 226.4 156.4 232.3C159.9 234 163.6 235.1 167.4 235.6C172 236.2 176.6 236.1 181.2 235.1C196.4 231.8 207.7 219.7 209.3 205C209.3 204.8 209.4 204.5 209.4 204.2C209.5 203.4 209.5 202.5 209.5 201.4C209.5 196.8 208.5 192.2 206.6 188C201.7 177 190.9 169.1 178.4 167.3C177.4 167.1 176.2 167 175.1 167C174.3 167 173.6 166.9 172.8 166.9Z" fill="#0C41E2"/>
<path d="M155 199.3C155 199.3 149.6 204.5 143.1 201.5C136.6 198.5 131.5 185.2 141.2 174.5C150.9 163.8 159.9 173.8 159.1 179.5C158.3 185.2 155 199.3 155 199.3Z" fill="white"/>
<path d="M147.3 202.9C145.8 202.9 144.3 202.6 142.9 201.9C139.5 200.3 136.7 196.2 135.7 191.5C135 187.9 134.7 181 140.8 174.1C146.3 168 151.2 168.9 153.6 170C157.7 171.9 160 176.4 159.6 179.5C158.8 185.1 155.6 199.2 155.5 199.4C155.5 199.5 155.4 199.6 155.4 199.6C153.1 201.6 150.3 202.8 147.3 202.9ZM149.9 170.2C147.1 170.2 144.2 171.8 141.5 174.8C135.7 181.3 135.9 187.9 136.6 191.3C137.5 195.7 140.1 199.6 143.2 201C148.9 203.6 153.7 199.7 154.5 199C154.9 197.4 157.8 184.7 158.5 179.4C158.9 176.7 156.7 172.6 153.1 170.9C152.2 170.4 151 170.2 149.9 170.2Z" fill="#0C41E2"/>
<path d="M156.1 232.7C156.2 232.3 156.1 231.9 156 231.5C155.4 230.5 154.1 229.9 152.2 224.6C150.3 219.3 154.4 215.4 154.8 214.7C155.2 214 154.6 213.4 153.7 209.4C153.1 206.8 154.9 204.1 156.1 202.7C156.5 202.3 156.9 201.9 157.3 201.5L163.9 198.3L176 192.3L182.5 189.1L185.3 187.7L187.5 186.6L190.4 185.2L191 185C195.1 183.7 198 187 199.1 187.4C199.9 187.7 203.6 186.3 206.8 188C207.9 188.6 208.8 189.4 209.4 190.4C212 194.3 213.3 199.6 209.6 204.4C209.4 204.7 209.1 205 208.9 205.3C207.8 206.5 206.6 207.5 205.3 208.3L181.1 235.8" fill="white"/>
<path d="M181.2 236C181.1 236 181 236 180.9 235.9C180.7 235.7 180.7 235.4 180.9 235.2L205.1 207.7L205.2 207.6C206.5 206.8 207.7 205.8 208.7 204.7C208.9 204.4 209.2 204.2 209.4 203.9C213.7 198.4 210.7 192.7 209.2 190.5C208.6 189.5 207.7 188.8 206.7 188.3C204.6 187.2 202.3 187.5 200.8 187.7C200.2 187.8 199.7 187.8 199.1 187.7C198.7 187.5 198.3 187.3 198 187.1C196.6 186.1 194.3 184.5 191.3 185.4L190.7 185.6L157.7 201.9C157.3 202.3 156.9 202.6 156.6 203C155.5 204.3 153.7 206.8 154.3 209.3C154.7 210.9 155 211.9 155.2 212.7C155.6 213.8 155.7 214.4 155.3 215C155.2 215.1 155.1 215.2 154.9 215.4C153.8 216.7 151.1 220 152.7 224.4C154.1 228.2 155.1 229.5 155.9 230.4C156.1 230.7 156.4 231 156.5 231.3C156.7 231.8 156.7 232.3 156.6 232.8C156.6 233.1 156.4 233.3 156.1 233.3C155.8 233.3 155.6 233.1 155.6 232.8C155.6 232.5 155.6 232.1 155.6 231.8C155.4 231.5 155.3 231.3 155.1 231.1C154.3 230.2 153.2 228.8 151.8 224.8C150 219.9 153.2 216.1 154.2 214.8L154.5 214.4C154.6 214.2 154.6 214 154.3 213C154.1 212.3 153.7 211.2 153.4 209.5C152.8 206.6 154.7 203.8 155.9 202.3C156.3 201.8 156.7 201.4 157.1 201L157.2 200.9L190.3 184.6C190.6 184.5 190.8 184.4 191 184.3C194.4 183.2 197.1 185.1 198.6 186.1C198.9 186.3 199.1 186.5 199.5 186.6C199.9 186.6 200.3 186.6 200.7 186.5C202.3 186.3 204.9 186 207.2 187.2C208.3 187.8 209.3 188.7 209.9 189.8C211.5 192.2 214.7 198.4 210 204.4C209.8 204.7 209.5 205 209.2 205.3C208.1 206.5 206.9 207.5 205.6 208.3L181.4 235.8C181.5 235.9 181.3 236 181.2 236Z" fill="#0C41E2"/>
<path d="M159.3 204.8C154.9 203.1 150.3 195.4 153.4 184.9C156.5 174.4 169.8 170.4 169.8 170.4C171.4 166.5 177.2 164.2 183.1 169.7C186.6 173 188.8 177.5 189.3 182.3L159.3 204.8Z" fill="white"/>
<path d="M159.3 205.3H159.1C154.7 203.6 149.6 195.9 152.9 184.8C155.9 174.8 167.6 170.6 169.4 170C170.3 168 172.1 166.6 174.3 166.1C177.3 165.5 180.5 166.6 183.4 169.3C187.1 172.7 189.3 177.3 189.8 182.3C189.8 182.5 189.7 182.6 189.6 182.7L159.6 205.3C159.5 205.3 159.4 205.3 159.3 205.3ZM175.9 166.9C175.4 166.9 174.9 166.9 174.5 167C172.6 167.4 171 168.7 170.2 170.5C170.1 170.6 170 170.8 169.9 170.8C169.8 170.8 156.8 174.9 153.8 185C150.9 194.8 155 202.4 159.2 204.2L188.7 181.9C188.2 177.3 186.1 173.1 182.7 169.9C180.9 168.2 178.5 167.1 175.9 166.9Z" fill="#0C41E2"/>
<path d="M209.7 205C208.1 220 196.5 232.2 181.2 235.6C176.6 236.6 171.9 236.8 167.3 236.1C169.3 229.3 173.1 223.2 178.2 218.2C178.6 217.8 179 217.5 179.4 217.2L188.9 209.4C195.4 207.2 202.2 205.8 209.1 205H209.7Z" fill="#6A90FF"/>
<path d="M170.899 208.1C174.799 213.1 178.899 219.3 178.899 219.3C178.899 219.3 183.999 222.8 189.099 219.1C194.199 215.4 190.799 211.2 190.099 210.4C189.399 209.6 186.299 207.5 185.499 206.7C184.699 205.9 170.899 208.1 170.899 208.1Z" fill="white"/>
<path d="M184.1 221.3C182.2 221.3 180.3 220.7 178.7 219.7C178.6 219.7 178.6 219.6 178.6 219.6C178.6 219.5 174.5 213.4 170.6 208.4C170.5 208.3 170.5 208.1 170.5 207.9C170.6 207.7 170.7 207.6 170.9 207.6C176.1 206.7 184.9 205.5 185.9 206.3C186.2 206.6 187 207.2 187.7 207.7C188.7 208.4 189.7 209.2 190.6 210C191.9 211.4 192.5 213.2 192.5 215C192.2 216.8 191.1 218.5 189.6 219.4C187.9 220.7 186 221.3 184.1 221.3ZM179.3 219C182.2 220.9 186 220.8 188.8 218.8C190.1 218 191.1 216.6 191.3 215.1C191.3 213.5 190.8 212 189.7 210.9C188.8 210.1 187.9 209.4 187 208.7C186.2 208.1 185.5 207.6 185.1 207.2C184.4 206.9 177.9 207.6 171.8 208.6C175.3 213 178.8 218.2 179.3 219Z" fill="#0C41E2"/>
<path d="M184.2 177C184.2 177 197.3 188.5 194.9 197.6C192.5 206.7 177.3 214.1 167.5 207C167.5 207 166.5 212 162 209.9C157.5 207.8 158.5 202.2 163.5 201.7C163.5 201.7 162.7 197 168.6 190.3C172 186.5 174.4 181.9 175.5 177C175.5 177 178.2 178.8 184.2 177Z" fill="white"/>
<path d="M164.1 210.9C163.3 210.9 162.6 210.7 161.9 210.3C159.8 209.5 158.5 207.4 158.8 205.1C159.2 203 161 201.4 163.1 201.2C163.1 199.8 163.4 195.5 168.3 190C171.6 186.3 174 181.8 175.1 176.9C175.1 176.7 175.2 176.6 175.4 176.5C175.5 176.4 175.7 176.4 175.9 176.5C175.9 176.5 178.5 178.1 184.2 176.4C184.4 176.4 184.5 176.4 184.7 176.5C185.2 177 198 188.3 195.6 197.6C194.3 202.4 189.7 206.9 183.7 209C178.1 211 172.4 210.5 168.1 207.7C167.7 208.9 167 209.9 165.9 210.5C165.2 210.8 164.6 210.9 164.1 210.9ZM175.8 177.7C174.6 182.5 172.2 186.9 169 190.6C163.4 196.9 164 201.5 164 201.5C164 201.6 164 201.8 163.9 201.9C163.8 202 163.7 202.1 163.5 202.1C161.6 202.1 160 203.4 159.6 205.3C159.4 207.1 160.4 208.8 162.1 209.4C163 209.9 164.1 210 165 209.6C166 209 166.6 208 166.9 206.8C166.9 206.6 167.1 206.5 167.2 206.4C167.4 206.3 167.5 206.4 167.7 206.5C171.8 209.5 177.4 210.1 183 208.1C188.6 206.1 193.1 201.9 194.3 197.4C196.4 189.3 185.6 179 183.9 177.5C179.7 178.8 177 178.2 175.8 177.7Z" fill="#0C41E2"/>
<path d="M175.2 191.4C174.5 191.8 173.5 192.4 172.8 192.8C172.1 193.2 171.3 193.8 170.5 194.4C170.3 194.5 169.9 194.5 169.8 194.2C169.7 194.1 169.7 193.9 169.8 193.7C170.8 191.7 172.8 190.4 175.1 190.4C175.4 190.4 175.6 190.6 175.6 190.9C175.6 191.1 175.4 191.3 175.2 191.4Z" fill="#0C41E2"/>
<path d="M186.4 182C184.9 183.2 183 185 181.4 186.1C181.2 186.3 180.8 186.2 180.7 186C180.6 185.8 180.6 185.6 180.7 185.5C181.3 184.5 182 183.5 182.9 182.8C183.5 182.3 186.3 180.3 186.7 181.5C186.7 181.7 186.6 181.9 186.4 182Z" fill="#0C41E2"/>
<path d="M185.6 194.4C184.7 194.4 183.8 194 183.4 193.2C183.3 193 183.3 192.7 183.6 192.5C183.8 192.4 184.1 192.4 184.3 192.7C184.8 193.4 185.8 193.6 186.6 193.2C187.1 193 187.4 192.3 187.1 191.8V191.7C187 191.4 186.8 191.2 186.5 191.1C185.8 191 185 191.2 184.4 191.6C184.2 191.7 183.9 191.7 183.7 191.5C182.5 189.8 181.5 188 180.7 186.1C180.6 185.8 180.7 185.6 181 185.4C181.3 185.3 181.5 185.4 181.7 185.7C182.5 187.4 183.4 189 184.4 190.6C185.2 190.2 186.1 190 186.9 190.2C187.4 190.4 187.9 190.8 188.1 191.4C188.6 192.4 188.2 193.7 187.1 194.2C186.5 194.2 186 194.4 185.6 194.4Z" fill="#0C41E2"/>
<path d="M174.4 196.1C175 196.9 176 197.2 176.5 196.7C177 196.2 177 195.3 176.3 194.5C176.1 194.3 175.9 194.1 175.7 193.9L175.2 195.2L174.7 193.7C174.5 193.7 174.4 193.8 174.2 193.9C173.7 194.6 173.8 195.6 174.4 196.1Z" fill="#0C41E2"/>
<path d="M185.2 187.4C185.8 188.2 186.8 188.5 187.3 188C187.8 187.5 187.8 186.6 187.1 185.8C186.9 185.6 186.7 185.4 186.5 185.2L186 186.5L185.5 185C185.3 185 185.2 185.1 185 185.2C184.5 185.8 184.6 186.8 185.2 187.4Z" fill="#0C41E2"/>
<path d="M184.3 201.1C183.5 201.1 182.7 200.8 182.1 200.3C181.9 200.1 181.8 199.8 182 199.6C182.2 199.4 182.5 199.3 182.7 199.5C182.7 199.5 182.7 199.5 182.8 199.6C183.4 200.1 184.2 200.3 184.9 200.1C185.8 199.7 186.4 198.8 186.6 197.8C186.7 197.5 186.9 197.4 187.2 197.4C187.5 197.5 187.6 197.7 187.6 198C187.4 199.3 186.5 200.5 185.3 201C184.9 201 184.6 201.1 184.3 201.1Z" fill="#0C41E2"/>
<path d="M161.3 207.6C161.1 207.6 160.9 207.4 160.8 207.2C160.5 206.4 160.7 205.5 161.1 204.8C161.7 204 162.6 203.4 163.6 203.3C163.9 203.3 164.1 203.4 164.2 203.7C164.3 204 164.1 204.2 163.8 204.3C163.1 204.4 162.4 204.8 161.9 205.4C161.6 205.9 161.6 206.4 161.7 207C161.8 207.3 161.6 207.5 161.3 207.6Z" fill="#0C41E2"/>
<path d="M164.199 208.5C163.699 208.5 163.199 208.3 162.799 208.1C161.799 207.4 161.199 206.4 160.899 205.3C160.899 205 161.099 204.8 161.299 204.7C161.599 204.7 161.799 204.9 161.899 205.1C162.099 205.9 162.599 206.7 163.299 207.2C163.599 207.5 164.099 207.5 164.499 207.4C164.799 207.3 165.099 207.5 165.099 207.8C165.199 208.1 164.999 208.4 164.799 208.4C164.699 208.5 164.499 208.5 164.199 208.5Z" fill="#0C41E2"/>
<path d="M172.8 236.9C170.9 236.9 169 236.8 167.2 236.5C163.3 235.9 159.5 234.8 155.9 233.1C153.9 232.2 152 231 150.2 229.8C150 229.6 149.9 229.3 150.1 229.1C150.3 228.9 150.6 228.8 150.8 229C155.7 232.5 161.3 234.7 167.3 235.6C171.9 236.2 176.5 236.1 181.1 235.1C196.3 231.8 207.6 219.7 209.2 205C209.2 204.7 209.5 204.5 209.8 204.6C210.1 204.6 210.3 204.9 210.3 205.1C208.7 220.2 197.1 232.7 181.4 236.1C178.5 236.6 175.7 236.9 172.8 236.9Z" fill="#0C41E2"/>
<path d="M155.3 271.5C155.1 271.5 155 271.4 154.9 271.3C154.7 271.1 154.8 270.8 155 270.6L247 197.4C247.2 197.2 247.5 197.3 247.7 197.5C247.8 197.7 247.8 198 247.6 198.1L155.6 271.3C155.6 271.5 155.4 271.5 155.3 271.5Z" fill="#6A90FF"/>
<path d="M172.6 289C172.4 289 172.3 288.9 172.2 288.8C172 288.6 172.1 288.3 172.3 288.1L264.3 214.9C264.5 214.7 264.8 214.7 265 214.9C265.2 215.1 265.2 215.4 265 215.6C265 215.6 265 215.6 264.9 215.7L172.9 288.9C172.8 289 172.7 289 172.6 289Z" fill="#6A90FF"/>
<path d="M379.7 262.1L423.8 303.2C423.8 303.2 405.6 348 361.1 356.8L323.9 309.4L379.7 262.1Z" fill="#6A90FF"/>
<path d="M329.1 296.4C319.7 304.7 321.6 311.2 329.1 310.7C332.8 310.5 336.5 310.1 340.2 309.3L342.3 297.4L329.1 296.4Z" fill="#6A90FF"/>
<path d="M328.3 311.3C325.5 311.3 323.4 310.3 322.6 308.3C321.3 305.2 323.6 300.6 328.8 296C328.9 295.9 329 295.9 329.2 295.9L342.4 296.9C342.7 296.9 342.9 297.1 342.9 297.4C342.9 297.4 342.9 297.4 342.9 297.5L340.8 309.4C340.8 309.6 340.6 309.7 340.4 309.8C336.7 310.5 333 311 329.2 311.2L328.3 311.3ZM329.3 297C323.8 302 322.7 305.9 323.5 308C324.2 309.7 326.2 310.5 329.1 310.3C332.7 310.1 336.3 309.7 339.8 309L341.7 298L329.3 297Z" fill="#0C41E2"/>
<path d="M361.1 268.6C377.2 258.7 386.9 257.8 379.7 276.9C372.5 296 361.1 268.6 361.1 268.6Z" fill="#6A90FF"/>
<path d="M373.6 284.1C367.2 284.1 360.9 269.4 360.7 268.8C360.6 268.6 360.7 268.3 360.9 268.2C371.4 261.7 378 259.8 381 262.2C383.5 264.2 383.2 269.1 380.2 277C378.4 281.7 376.2 284 373.6 284.1ZM361.8 268.8C362.8 271.1 368.4 283.1 373.6 283.1H373.7C375.8 283.1 377.7 280.9 379.3 276.7C382.1 269.3 382.4 264.7 380.3 263C378.6 261.5 373.9 261.4 361.8 268.8Z" fill="#0C41E2"/>
<path d="M245.6 253.7C245.6 253.7 230.6 262.6 230.6 268.4C230.6 274.2 230.6 291.6 249.5 307.1C268.4 322.6 283.5 317 291 312.1C298.5 307.2 301.1 297.2 300.4 288.9C299.7 280.6 245.6 253.7 245.6 253.7Z" fill="#6A90FF"/>
<path d="M274.2 317.7C267.1 317.7 258.6 315.2 249.1 307.5C230 291.8 230 274.2 230 268.4C230 262.3 244.6 253.6 245.2 253.3C245.3 253.2 245.5 253.2 245.7 253.3C247.9 254.4 300 280.5 300.8 289C301.5 296.6 299.3 307.3 291.2 312.6C286.2 315.9 280.3 317.6 274.2 317.7ZM245.6 254.2C243.7 255.3 231.1 263.2 231.1 268.3C231.1 274 231.1 291.2 249.9 306.6C268.7 322 283.6 316.3 290.8 311.6C298.6 306.6 300.6 296.2 299.9 288.9C299.3 282.5 260.7 261.8 245.6 254.2Z" fill="#0C41E2"/>
<path d="M274 256.1C274 256.1 259.8 245.8 247.3 252.5C234.8 259.1 246.2 286.3 266.4 298.6C286.6 310.9 304.2 295.9 299.6 284.8C295 273.7 274 256.1 274 256.1Z" fill="white"/>
<path d="M281.5 303.7C276.1 303.6 270.7 302 266.2 299C252.3 290.5 241.3 273.9 241.7 261.9C241.8 257.3 243.7 253.9 247.2 252C252.4 249.2 258.8 249 265.6 251.3C268.7 252.3 271.7 253.8 274.4 255.7C275.3 256.4 295.5 273.6 300.1 284.6C302 289.2 300.3 294.7 295.6 298.7C291.6 302 286.6 303.7 281.5 303.7ZM256.5 250.7C253.4 250.7 250.3 251.4 247.5 252.9C244.4 254.5 242.7 257.7 242.5 261.9C242.2 272.1 251.3 288.8 266.6 298.1C278.7 305.5 289.4 302.6 294.9 297.9C299.2 294.2 300.8 289.1 299.1 285C294.6 274.4 274.3 257 273.7 256.5C273.3 256.2 265.5 250.7 256.5 250.7Z" fill="#0C41E2"/>
<path d="M327.6 203.8C325.6 197.6 325 193.5 327.6 190.1C330.2 186.7 337.5 183.1 337.5 183.1L363 218.9C363 218.9 359.6 224.5 357.1 225.5C354.6 226.5 350.7 225.5 350.7 225.5L341.5 225.9L331 218.2L327.6 203.8Z" fill="#6A90FF"/>
<path d="M341.5 226.4C341.4 226.4 341.3 226.4 341.2 226.3L330.7 218.6C330.6 218.5 330.5 218.4 330.5 218.3L327.1 204C325.1 197.6 324.5 193.4 327.2 189.9C329.9 186.4 337 182.9 337.3 182.7C337.5 182.6 337.8 182.7 337.9 182.9L363.4 218.7C363.5 218.9 363.5 219.1 363.4 219.2C363.3 219.4 359.9 225 357.2 226C354.7 226.9 351.1 226.2 350.6 226L341.5 226.4ZM350.7 225H350.8C350.8 225 354.5 225.9 356.9 225C358.8 224.3 361.4 220.6 362.4 218.9L337.3 183.7C335.8 184.5 330.1 187.5 327.9 190.4C325.5 193.6 326 197.6 328 203.7L331.4 217.9L341.6 225.4L350.7 225Z" fill="#0C41E2"/>
<path d="M342.3 233.7L350.7 225.4C350.7 225.4 333.2 221.2 327.6 203.7L310.2 223L268.1 261C266.1 262.8 264.9 265.3 264.7 268C264.6 271.2 265.5 275.3 270.1 279.2C274.2 282.8 279.6 284.3 285 283.5C286.9 283.2 288.7 282.3 290.2 281L342.3 233.7Z" fill="white"/>
<path d="M282.3 284.3C277.8 284.3 273.4 282.6 269.9 279.7C265 275.7 264.1 271.2 264.3 268.1C264.4 265.3 265.7 262.6 267.8 260.7L309.9 222.7L327.2 203.5C327.3 203.4 327.5 203.3 327.7 203.4C327.9 203.4 328 203.6 328.1 203.7C333.6 220.8 350.7 225 350.9 225.1C351.1 225.1 351.2 225.3 351.3 225.5C351.3 225.7 351.3 225.9 351.2 226L342.8 234.3L290.8 281.6C289.3 283 287.4 283.9 285.4 284.2C284.2 284.2 283.2 284.3 282.3 284.3ZM327.4 204.8L310.6 223.4L268.5 261.4C266.6 263.1 265.4 265.5 265.3 268.1C265.1 272.2 266.9 275.8 270.6 278.9C274.6 282.4 279.9 283.9 285.1 283.1C286.9 282.8 288.7 282 290 280.7L342 233.5L349.8 225.8C346.2 224.6 332.6 219.5 327.4 204.8Z" fill="#0C41E2"/>
<path d="M276.8 240.5C269.6 240.5 270.2 249.7 274 256C277.8 262.3 288.2 269 296 265.9C303.8 262.8 295.3 254.6 295.3 254.6L276.8 240.5Z" fill="white"/>
<path d="M291.8 267.3C284.6 267.3 276.8 261.6 273.6 256.3C271.1 252.2 269.7 246.3 271.7 242.7C272.8 240.9 274.7 239.8 276.8 240C276.9 240 277 240 277.1 240.1L295.5 254.2C295.7 254.4 300.3 259 299.6 262.8C299.3 264.4 298.1 265.6 296.1 266.4C294.8 267 293.3 267.3 291.8 267.3ZM276.7 241C275 240.9 273.4 241.8 272.6 243.2C271 246 271.8 251.3 274.5 255.8C278.1 261.8 288.2 268.6 295.9 265.5C297.6 264.8 298.5 263.9 298.8 262.6C299.4 259.3 295.1 255 295 255L276.7 241Z" fill="#0C41E2"/>
<path d="M284 231C277.2 230.1 273 233.5 276.3 244C279.6 254.5 293.9 264.2 300.5 260.9C307.1 257.6 302.4 250.2 302.4 250.2L284 231Z" fill="white"/>
<path d="M297.3 262.1C295.3 262 293.4 261.6 291.6 260.8C285.5 258.2 278.1 251.7 275.7 244.2C274 238.9 274.2 235 276.1 232.7C277.7 230.8 280.4 230.1 284 230.6C284.1 230.6 284.2 230.7 284.3 230.7L302.6 249.9C302.8 250.1 305.1 253.9 304.1 257.4C303.6 259.2 302.2 260.7 300.5 261.4C299.6 261.8 298.5 262.1 297.3 262.1ZM282 231.4C280.1 231.3 278.2 232 276.9 233.3C275.2 235.3 275.1 238.9 276.7 243.9C279 251.1 286.1 257.4 292 259.9C295.3 261.3 298.2 261.5 300.2 260.5C301.7 259.9 302.8 258.6 303.2 257.1C304.1 254 301.8 250.5 301.8 250.5L283.7 231.5C283.2 231.4 282.6 231.4 282 231.4Z" fill="#0C41E2"/>
<path d="M291.1 221.6C282.4 221.5 280.5 226.2 282 232.7C283.5 239.2 294.1 253.7 302.3 254.6C310.5 255.5 309.8 244.6 307.8 240.5C305.8 236.4 291.1 221.6 291.1 221.6Z" fill="white"/>
<path d="M303.3 255.2C303 255.2 302.6 255.2 302.3 255.1C293.8 254.1 283 239.3 281.5 232.8C280.6 228.9 281 226 282.6 224C284.2 222 287.1 221 291.2 221C291.3 221 291.5 221.1 291.6 221.1C292.2 221.7 306.3 236.1 308.4 240.2C309.9 243.2 310.6 249.4 308.3 252.7C307 254.4 305.2 255.3 303.3 255.2ZM290.8 222.1C287.2 222.1 284.7 223 283.3 224.7C281.9 226.4 281.6 229.1 282.4 232.6C283.9 238.9 294.2 253.2 302.3 254.1C304.2 254.5 306.1 253.8 307.2 252.2C309.3 249.3 308.6 243.5 307.2 240.7C305.5 237 292.4 223.6 290.8 222.1Z" fill="#0C41E2"/>
<path d="M311.8 221.8C311.8 221.8 299 207.5 292.1 212C285.2 216.5 292.2 233.7 298.7 238.8C307.1 245.3 317.5 243.3 315.1 236.4C312.7 229.5 309.4 230.6 305.6 226.7L311.8 221.8Z" fill="white"/>
<path d="M309.2 243.2C305.2 243.1 301.4 241.6 298.4 239.1C293.7 235.4 288.4 225.4 288.7 218C288.8 215 289.9 212.8 291.8 211.5C299 206.7 311.6 220.8 312.2 221.4C312.3 221.5 312.3 221.6 312.3 221.8C312.3 221.9 312.2 222.1 312.1 222.2L306.4 226.8C307.4 227.7 308.5 228.5 309.7 229.1C311.9 230.4 314 231.6 315.6 236.2C316.4 238.6 315.9 240.6 314.1 241.9C312.6 242.9 310.9 243.3 309.2 243.2ZM295.2 211.6C294.2 211.6 293.2 211.9 292.3 212.4C290.7 213.5 289.8 215.4 289.7 218.1C289.4 225.1 294.6 234.9 299 238.4C304.5 242.7 310.6 243.1 313.5 241.1C314.9 240.1 315.3 238.5 314.7 236.5C313.2 232.2 311.4 231.1 309.3 229.9C307.9 229.1 306.5 228.2 305.4 227C305.3 226.9 305.3 226.8 305.3 226.6C305.3 226.5 305.4 226.3 305.5 226.2L311.2 221.6C309.2 219.9 301.2 211.6 295.2 211.6Z" fill="#0C41E2"/>
<path d="M305.6 227.2C305.5 227.2 305.4 227.2 305.3 227.1C302.9 224.9 300.8 222.4 299.2 219.5C299 219.3 299.1 219 299.3 218.8C299.5 218.6 299.8 218.7 300 218.9C300 218.9 300 219 300.1 219C301.6 221.7 303.6 224.2 306 226.3C306.2 226.5 306.2 226.8 306.1 227C305.9 227.2 305.8 227.3 305.6 227.2Z" fill="#0C41E2"/>
<path d="M379.7 276.9C364.9 269.3 356.7 255.3 350.5 246.2C344.3 237.1 342.3 233.7 342.3 233.7L336.5 238.8C336.5 238.8 323.5 198.5 314.5 199.9C305.5 201.3 310.6 228.5 318 255L293.5 278C293.5 278 301.1 289.3 314.3 293C327.5 296.7 340.2 309.3 340.2 309.3C340.2 309.3 372.9 301.6 379.7 276.9Z" fill="white"/>
<path d="M340.2 309.9C340.1 309.9 339.9 309.9 339.8 309.8C339.7 309.7 327 297.3 314.1 293.7C300.9 290 293.1 278.6 293 278.5C292.9 278.3 292.9 278 293.1 277.9L317.4 255.1C309.3 225.9 307.1 208 311 201.9C311.7 200.7 313 199.8 314.4 199.6C323.2 198.2 334.9 232.5 336.7 238.1L342 233.5C342.1 233.4 342.3 233.4 342.4 233.4C342.5 233.4 342.7 233.5 342.8 233.6C342.8 233.6 344.9 237.1 350.9 246C351.6 246.9 352.2 247.9 352.9 248.9C358.8 257.7 366.8 269.7 380 276.5C380.2 276.6 380.3 276.8 380.2 277.1C373.4 301.8 340.7 309.9 340.3 310L340.2 309.9ZM294.2 278.2C295.6 280.1 302.9 289.4 314.5 292.7C326.7 296.1 338.7 307.3 340.4 308.9C343.5 308.1 372.6 299.9 379.2 277.2C366 270.3 358 258.3 352.1 249.5L350.1 246.6C345.3 239.6 343 235.9 342.2 234.6L336.8 239.3C336.6 239.5 336.3 239.5 336.1 239.3C336 239.2 336 239.2 336 239.1C332.4 228 321.6 199.5 314.5 200.5C313.4 200.7 312.4 201.4 311.8 202.4C308.1 208.2 310.4 226.4 318.4 255.1C318.5 255.3 318.4 255.5 318.3 255.6L294.2 278.2Z" fill="#0C41E2"/>
<path d="M339.7 249.6C339.5 249.6 339.3 249.5 339.2 249.2L336 239C335.9 238.7 336.1 238.4 336.4 238.4C336.7 238.3 337 238.5 337 238.7L340.2 249C340.3 249.3 340.1 249.5 339.9 249.6H339.7Z" fill="#0C41E2"/>
<path d="M338.8 182.3C331.4 185.6 336.3 197.9 344.7 207.5C353.1 217.1 365.7 226.3 364.9 212.1C364.1 197.9 351 177.8 338.8 182.3Z" fill="white"/>
<path d="M361.2 220C356.6 220 349.5 213.8 344.4 207.9C337.5 200 333.8 191.6 335 186.5C335.4 184.5 336.8 182.7 338.7 181.9C342.3 180.6 346.2 181.2 350 183.7C357.9 188.8 364.8 201.6 365.5 212.1C365.7 216.3 364.9 218.9 362.8 219.7C362.2 219.9 361.7 220 361.2 220ZM339 182.8C337.4 183.5 336.2 184.9 335.9 186.7C334.9 191.5 338.5 199.8 345.1 207.3C350.9 213.9 358.7 220.3 362.3 218.8C363.9 218.1 364.6 215.9 364.4 212.2C363.8 201.9 357 189.5 349.4 184.6C345.8 182.1 342.3 181.6 339 182.8Z" fill="#0C41E2"/>
<path d="M156.2 159.5C155.2 159.5 154.2 159.3 153.3 158.9C151.6 158.1 150.2 156.7 149.6 154.9L142.2 134.5C141.6 132.7 142.4 130.8 144 129.9C145.8 128.9 148.1 129.6 149 131.4C149.1 131.5 149.1 131.7 149.2 131.9L155.8 150C155.9 150.3 155.7 150.5 155.5 150.6C155.2 150.7 155 150.6 154.9 150.3L148.3 132.2C147.8 130.8 146.2 130.1 144.8 130.6C144.7 130.6 144.6 130.7 144.5 130.8C143.3 131.4 142.8 132.9 143.2 134.2L150.6 154.6C151.7 157.7 155.2 159.3 158.3 158.2C158.4 158.2 158.4 158.2 158.5 158.1C160 157.5 161.2 156.3 161.8 154.8C162.4 153.3 162.4 151.6 161.8 150.2L151.2 125.4C149.1 120.6 143.5 118.3 138.6 120.4C134 122.4 131.7 127.7 133.4 132.4L136.3 140.2C136.4 140.5 136.3 140.7 136 140.8C135.7 140.9 135.5 140.8 135.4 140.5L132.5 132.7C130.5 127.2 133.3 121.1 138.8 119.1C144.1 117.2 149.9 119.7 152.1 124.9L162.7 149.8C163.4 151.5 163.4 153.5 162.7 155.2C162 156.9 160.6 158.3 158.8 159C158 159.4 157.1 159.5 156.2 159.5Z" fill="#0C41E2"/>
</svg>
