<svg width="500" height="500" viewBox="0 0 500 500" fill="none" xmlns="http://www.w3.org/2000/svg">
<path fill-rule="evenodd" clip-rule="evenodd" d="M241.71 16.3634C324.496 11.1896 428.687 -23.5272 480.96 27.3466C533.674 78.6493 461.799 151.009 446.8 215.964C436.237 261.712 436.527 306.11 407.267 346.484C363.502 406.873 329.095 489.41 241.71 498.961C152.516 508.709 71.5905 448.194 22.8643 388.495C-18.2346 338.142 8.08197 275.806 10.7274 215.964C13.2122 159.758 -10.4748 96.6019 37.605 55.0542C86.6318 12.6882 169.195 20.8953 241.71 16.3634Z" fill="#DCF1EC"/>
<path d="M158.189 225.03C147.969 235.47 136.629 244.41 132.009 253.36C127.389 262.31 125.899 266.78 118.449 271.25C110.999 275.72 106.519 282.58 104.139 287.95C101.749 293.32 96.9794 301.67 88.3394 307.63C79.6994 313.59 63.8894 336.85 74.0294 349.67C84.1694 362.49 139.619 391.07 166.459 362.17C193.289 333.27 185.239 291.57 185.539 281.86C185.839 272.15 195.179 258.33 194.189 250.01C193.189 241.68 158.199 225.04 158.199 225.04L158.189 225.03Z" fill="#29AB87"/>
<path d="M135.01 375.16C134.16 375.16 133.3 375.14 132.43 375.11C106.43 374.08 79.9499 357.97 73.6299 349.98C70.7199 346.3 69.6799 341.57 70.5199 335.92C72.3099 323.98 82.0199 311.37 88.0499 307.22C96.3599 301.49 101.14 293.47 103.68 287.75C105.54 283.57 109.9 275.8 118.19 270.83C124.57 267 126.47 263.22 129.93 256.36C130.44 255.35 130.98 254.28 131.57 253.14C134.91 246.68 141.75 240.18 149 233.3C151.91 230.53 154.93 227.67 157.84 224.7C157.99 224.55 158.22 224.51 158.41 224.6C159.85 225.28 193.67 241.46 194.68 249.96C195.22 254.45 192.92 260.27 190.49 266.43C188.37 271.8 186.18 277.35 186.04 281.89C186 283.36 186.15 285.6 186.34 288.44C187.42 304.5 189.68 337.92 166.83 362.53C159.03 370.93 148.34 375.18 135.02 375.18L135.01 375.16ZM158.29 225.64C155.44 228.54 152.51 231.32 149.67 234.01C142.49 240.83 135.7 247.27 132.44 253.59C131.85 254.73 131.31 255.8 130.81 256.8C127.39 263.6 125.32 267.7 118.7 271.68C110.64 276.51 106.4 284.07 104.59 288.15C102 293.98 97.1199 302.17 88.6099 308.04C82.5999 312.18 73.1899 324.85 71.5099 336.07C70.6999 341.44 71.6799 345.91 74.4099 349.36C80.6299 357.23 106.76 373.09 132.46 374.11C146.67 374.67 157.99 370.54 166.08 361.83C188.64 337.54 186.4 304.41 185.33 288.49C185.14 285.63 184.98 283.36 185.03 281.84C185.18 277.13 187.4 271.5 189.55 266.05C191.94 260.01 194.19 254.3 193.68 250.06C192.78 242.52 161.8 227.34 158.29 225.64Z" fill="#282828"/>
<path d="M206.25 239.49C206.25 239.49 188.92 289.22 181.48 306.73C174.04 324.24 132.01 387.73 132.01 387.73C132.01 387.73 135.51 405.24 164.41 408.96C164.41 408.96 203.23 349.46 219.84 328.47C236.44 307.48 244.28 290.88 244.28 290.88L282.81 292.76L244.9 324.23C244.9 324.23 247.09 346.33 273.41 350.09C273.41 350.09 342.02 298.4 345.15 276.16C348.28 253.92 319.46 239.54 274.66 240.78C229.86 242.02 206.26 239.5 206.26 239.5L206.25 239.49Z" fill="white"/>
<path d="M164.41 409.47C164.41 409.47 164.37 409.47 164.35 409.47C149.27 407.53 141.16 401.78 137.01 397.3C132.48 392.41 131.56 388.02 131.52 387.84C131.49 387.71 131.52 387.58 131.59 387.47C132.01 386.84 173.68 323.83 181.02 306.55C188.37 289.25 205.61 239.84 205.78 239.34C205.86 239.12 206.09 238.99 206.3 239.01C206.54 239.03 230.39 241.51 274.64 240.29C305.37 239.44 329.14 245.85 339.87 257.86C344.66 263.22 346.6 269.4 345.63 276.25C342.5 298.44 276.5 348.4 273.69 350.51C273.58 350.59 273.45 350.62 273.32 350.61C246.92 346.84 244.41 324.53 244.38 324.31C244.36 324.14 244.43 323.98 244.56 323.88L281.48 293.23L244.56 291.43C243.41 293.79 235.45 309.56 220.21 328.82C203.81 349.55 165.2 408.68 164.81 409.28C164.72 409.42 164.56 409.51 164.39 409.51L164.41 409.47ZM132.55 387.83C132.78 388.72 133.95 392.54 137.79 396.67C141.8 400.98 149.63 406.5 164.16 408.43C167 404.09 203.58 348.22 219.44 328.16C235.81 307.46 243.74 290.83 243.82 290.66C243.91 290.48 244.08 290.34 244.3 290.37L282.83 292.25C283.04 292.25 283.21 292.4 283.28 292.59C283.35 292.79 283.28 293 283.13 293.13L245.44 324.42C245.8 326.88 249.39 346.03 273.28 349.55C277.04 346.7 341.67 297.33 344.66 276.07C345.58 269.53 343.72 263.62 339.14 258.49C328.61 246.7 305.11 240.42 274.68 241.26C233.46 242.4 209.89 240.33 206.6 240.02C204.99 244.63 188.97 290.39 181.95 306.92C174.77 323.81 135.05 384.04 132.55 387.82V387.83Z" fill="#282828"/>
<path d="M305.25 129.2C307.85 114.33 305.49 98.9798 301 90.7198C296.51 82.4598 283.51 69.4698 277.26 75.1398C277.26 75.1398 264.88 74.3798 256.14 85.7398C247.41 97.0998 237.25 94.9398 230.17 106.99C223.09 119.05 219.31 125.89 211.99 132.03C204.67 138.17 185.08 162.63 197.83 168.22C210.58 173.81 283.49 155.4 283.49 155.4L305.24 129.2H305.25Z" fill="white"/>
<path d="M205.77 169.78C202.2 169.78 199.39 169.45 197.65 168.68C195.1 167.56 193.62 165.66 193.24 163.02C192.48 157.73 196.37 150.61 199.76 145.56C203.91 139.4 208.85 134.03 211.69 131.64C218.51 125.92 222.28 119.49 228.53 108.83L229.76 106.73C233.56 100.26 238.16 97.8398 243.03 95.2798C247.29 93.0398 251.69 90.7198 255.76 85.4298C263.93 74.8098 275.38 74.5998 277.09 74.6298C278.49 73.4398 280.25 73.0198 282.33 73.3698C289.3 74.5498 298.06 84.2398 301.45 90.4798C306.39 99.5698 308.15 115.53 305.75 129.28C305.73 129.37 305.7 129.45 305.64 129.51L283.89 155.71C283.82 155.79 283.73 155.85 283.63 155.88C281.05 156.53 228.33 169.77 205.77 169.77V169.78ZM276.84 75.6298C274.69 75.6298 264.14 76.1598 256.54 86.0398C252.33 91.5098 247.83 93.8798 243.48 96.1698C238.74 98.6698 234.26 101.02 230.61 107.24L229.38 109.34C223.08 120.09 219.27 126.58 212.32 132.41C206.32 137.44 192.92 153.88 194.21 162.87C194.54 165.17 195.79 166.77 198.03 167.75C210.19 173.09 279.4 155.89 283.21 154.94L304.77 128.97C307.1 115.45 305.37 99.8298 300.55 90.9498C297.19 84.7498 288.55 75.4398 282.14 74.3498C280.3 74.0398 278.77 74.4298 277.59 75.4998C277.49 75.5898 277.36 75.6398 277.22 75.6298C277.21 75.6298 277.07 75.6298 276.83 75.6298H276.84Z" fill="#282828"/>
<path d="M200.519 162.28C188.319 173.27 157.659 182.49 158.199 187.81C158.739 193.13 173.499 202.62 173.499 202.62L200.519 162.28Z" fill="white"/>
<path d="M173.49 203.13C173.4 203.13 173.3 203.1 173.22 203.05C172.61 202.66 158.25 193.36 157.69 187.87C157.4 184.95 163.7 181.8 174.86 176.49C183.95 172.16 194.25 167.26 200.18 161.91C200.37 161.74 200.65 161.74 200.84 161.91C201.03 162.08 201.07 162.36 200.93 162.57L173.91 202.92C173.81 203.06 173.66 203.14 173.49 203.14V203.13ZM198.24 164.79C192.09 169.4 183.23 173.61 175.3 177.39C166.64 181.51 158.46 185.4 158.7 187.76C159.16 192.3 170.99 200.36 173.36 201.94L198.24 164.79Z" fill="#282828"/>
<path d="M168.76 209.54C168.76 209.54 161.44 216.25 151.58 220.57C151.58 220.57 154.6 253.01 199.25 254.41L202.38 234.59L168.77 209.54H168.76Z" fill="#282828"/>
<path d="M199.25 254.92H199.23C154.66 253.51 151.11 220.95 151.08 220.62C151.06 220.41 151.18 220.2 151.38 220.12C161.05 215.89 168.35 209.24 168.42 209.18C168.6 209.02 168.87 209.01 169.06 209.15L202.67 234.2C202.82 234.31 202.89 234.5 202.86 234.68L199.73 254.5C199.69 254.74 199.48 254.92 199.24 254.92H199.25ZM152.12 220.88C152.63 224.37 158.06 252.42 198.82 253.9L201.83 234.81L168.79 210.18C167.3 211.48 160.65 217.07 152.12 220.87V220.88Z" fill="#282828"/>
<path d="M249.81 156.25C246.39 164.94 241.48 174.96 235.8 185.38C221.31 211.95 206.26 239.49 206.26 239.49C206.26 239.49 180.76 238.16 164.01 209.18C164.01 209.18 188.1 175.67 207.41 152.69C212.32 146.84 217.14 142.03 221.74 138.18C235.22 126.91 246.69 124.1 252.27 128.72C256.82 132.48 255.11 142.78 249.82 156.24L249.81 156.25Z" fill="white"/>
<path d="M206.25 239.99C206.25 239.99 206.23 239.99 206.22 239.99C205.96 239.98 180.25 238.31 163.56 209.43C163.46 209.26 163.47 209.05 163.59 208.89C163.83 208.56 187.92 175.11 207.01 152.37C211.76 146.71 216.6 141.81 221.4 137.8C234.48 126.87 246.42 123.24 252.57 128.34C256.95 131.96 256.17 141.42 250.27 156.43C247.05 164.62 242.33 174.44 236.23 185.62C221.74 212.19 206.69 239.73 206.69 239.73C206.6 239.89 206.43 239.99 206.25 239.99ZM164.6 209.21C180.02 235.64 203.04 238.69 205.98 238.97C207.61 235.99 221.74 210.14 235.36 185.15C241.44 174.01 246.14 164.22 249.34 156.07C255.07 141.5 255.94 132.43 251.93 129.11C246.27 124.41 234.54 128.12 222.04 138.57C217.29 142.54 212.49 147.4 207.78 153.01C189.6 174.65 166.9 206.01 164.59 209.21H164.6Z" fill="#282828"/>
<path d="M249.809 156.25C237.459 156.52 225.059 146.92 221.729 138.18C235.209 126.91 246.679 124.1 252.259 128.72C256.809 132.48 255.099 142.78 249.809 156.24V156.25Z" fill="#29AB87"/>
<path d="M249.3 156.76C236.88 156.76 224.62 147.16 221.26 138.37C221.18 138.17 221.24 137.95 221.41 137.81C234.49 126.88 246.43 123.25 252.58 128.35C256.96 131.97 256.18 141.42 250.28 156.44C250.21 156.63 250.03 156.75 249.83 156.76C249.66 156.76 249.48 156.76 249.31 156.76H249.3ZM222.33 138.34C225.74 146.73 237.44 155.76 249.3 155.76C249.36 155.76 249.41 155.76 249.47 155.76C255.09 141.37 255.92 132.41 251.94 129.12C246.32 124.46 234.72 128.08 222.33 138.35V138.34Z" fill="#282828"/>
<path d="M272.2 133.53C255.06 137.25 242.25 140.12 223.15 161.58C204.05 183.03 182.34 212.59 180.77 215.99C179.2 219.39 183.78 224.36 183.78 224.36C183.78 224.36 194.21 233.5 199.51 229.37C204.81 225.25 222.75 204.53 222.75 204.53L203.46 239.83C203.46 239.83 207.56 253.34 235.43 256.89C263.3 260.44 282.27 238.4 282.27 238.4C282.27 238.4 295 186.95 297.89 168.22C297.89 168.22 332.1 126.54 344.26 109.19C356.42 91.84 362.01 78.65 362.01 78.65C362.01 78.65 363 76.27 360.54 72.66C358.08 69.05 352.49 65.87 350.21 64.7C347.93 63.53 345.42 63.67 340.63 69.97C335.84 76.27 307.71 115.29 291.31 125.5C274.91 135.71 272.2 133.51 272.2 133.51V133.53Z" fill="#29AB87"/>
<path d="M281.09 134.3C281.09 134.3 280.83 137.94 281.21 141.9C281.48 144.77 279.1 147.18 276.24 146.89L272.66 146.53C268.28 146.08 265.2 142.01 265.95 137.68L267.88 126.61L281.08 134.31L281.09 134.3Z" fill="white"/>
<path d="M276.71 147.41C276.54 147.41 276.37 147.41 276.19 147.38L272.61 147.01C270.35 146.78 268.35 145.66 266.98 143.85C265.61 142.04 265.07 139.81 265.46 137.57L267.39 126.5C267.42 126.34 267.52 126.2 267.67 126.13C267.82 126.06 267.99 126.07 268.13 126.15L281.33 133.85C281.49 133.95 281.59 134.13 281.58 134.32C281.58 134.36 281.33 137.97 281.7 141.84C281.85 143.37 281.31 144.86 280.22 145.94C279.27 146.88 278.01 147.4 276.69 147.4L276.71 147.41ZM268.26 127.4L266.45 137.76C266.11 139.72 266.58 141.67 267.78 143.26C268.98 144.84 270.73 145.83 272.71 146.03L276.29 146.4C277.49 146.52 278.67 146.11 279.53 145.26C280.4 144.39 280.83 143.19 280.72 141.96C280.41 138.67 280.53 135.56 280.58 134.59L268.26 127.41V127.4Z" fill="#282828"/>
<path d="M286.44 85.7402C286.44 85.7402 305.52 99.5602 303.93 118.92C302.35 138.28 272.15 140.51 264.34 126.81C264.34 126.81 257.76 130.6 255.54 125.37C253.78 121.23 255.77 117.67 259.22 117.68C260.8 117.68 262.25 118.53 263.22 119.78L266.19 123.61L265.22 112.21C265.22 112.21 274.55 106.21 277.22 98.2302C277.22 98.2302 284.48 94.3002 286.44 85.7502V85.7402Z" fill="white"/>
<path d="M282.42 136.05C275.25 136.05 267.81 133.43 264.15 127.47C263.09 127.99 260.31 129.16 257.94 128.37C256.64 127.94 255.68 126.99 255.07 125.56C254.07 123.22 254.14 120.91 255.26 119.23C256.13 117.92 257.56 117.17 259.2 117.17H259.22C260.86 117.17 262.5 118.03 263.61 119.46L265.54 121.95L264.71 112.23C264.69 112.05 264.78 111.87 264.94 111.77C265.03 111.71 274.16 105.77 276.74 98.0501C276.78 97.9301 276.86 97.8301 276.98 97.7701C277.05 97.7301 284.07 93.8301 285.95 85.6101C285.99 85.4501 286.1 85.3101 286.26 85.2501C286.42 85.1901 286.59 85.2101 286.73 85.3101C286.92 85.4501 306.02 99.5201 304.43 118.94C303.76 127.17 297.83 133.31 288.58 135.36C286.62 135.8 284.53 136.02 282.42 136.02V136.05ZM264.34 126.31C264.34 126.31 264.43 126.31 264.47 126.33C264.6 126.37 264.71 126.45 264.77 126.56C268.06 132.33 277.22 136.88 288.36 134.41C297.16 132.46 302.8 126.65 303.43 118.88C304.82 101.95 289.92 89.1401 286.73 86.6001C284.68 94.1401 278.74 97.9101 277.62 98.5601C275.08 105.88 267.27 111.42 265.73 112.46L266.67 123.56C266.69 123.78 266.56 123.99 266.35 124.07C266.14 124.15 265.91 124.09 265.77 123.91L262.8 120.08C261.88 118.89 260.53 118.18 259.2 118.17H259.19C257.88 118.17 256.78 118.74 256.09 119.78C255.18 121.16 255.14 123.17 255.99 125.17C256.48 126.32 257.24 127.08 258.25 127.42C260.75 128.26 264.05 126.39 264.08 126.37C264.16 126.33 264.24 126.3 264.33 126.3L264.34 126.31Z" fill="#282828"/>
<path d="M286.289 100.94C283.219 101.39 280.369 102.43 277.529 103.76C277.029 104 276.569 103.31 276.969 102.94C278.759 101.12 281.269 100.08 283.789 99.8299C284.639 99.7499 285.479 99.7699 286.359 99.9399C286.629 99.9999 286.809 100.26 286.749 100.53C286.699 100.76 286.509 100.92 286.279 100.94H286.289Z" fill="#282828"/>
<path d="M297.99 96.0599C295.69 96.5799 293.67 97.5199 291.67 98.8299C291.43 98.9999 291.09 98.9299 290.94 98.6799C290.84 98.5099 290.84 98.2999 290.94 98.1499C291.64 96.9799 292.76 96.0799 294.01 95.5399C295.29 94.9999 296.65 94.7699 298.04 95.0699C298.31 95.1299 298.48 95.3999 298.43 95.6699C298.38 95.8899 298.2 96.0399 297.99 96.0699V96.0599Z" fill="#282828"/>
<path d="M293.41 100.36C295.87 104.67 298.45 107.58 298.45 107.58C298.45 107.58 301.99 104.88 303.43 107.53C305.14 110.7 300.29 112.58 298.41 110.15" fill="white"/>
<path d="M300.789 111.75C299.759 111.75 298.719 111.36 298.019 110.45C297.849 110.23 297.889 109.92 298.109 109.75C298.329 109.58 298.639 109.62 298.809 109.84C299.689 110.99 301.369 110.96 302.409 110.29C302.839 110.01 303.759 109.2 302.989 107.77C302.729 107.28 302.379 107 301.919 106.9C300.789 106.67 299.249 107.59 298.759 107.97C298.549 108.13 298.259 108.1 298.079 107.9C297.969 107.78 295.439 104.9 292.979 100.6C292.839 100.36 292.929 100.06 293.169 99.9199C293.409 99.7799 293.719 99.8699 293.849 100.11C295.789 103.49 297.809 106.03 298.549 106.91C299.249 106.46 300.779 105.64 302.139 105.92C302.889 106.08 303.469 106.54 303.879 107.29C304.669 108.75 304.309 110.25 302.969 111.13C302.359 111.53 301.579 111.75 300.799 111.75H300.789Z" fill="#282828"/>
<path d="M283.79 107.66C284.33 108.83 285.41 109.47 286.21 109.1C287.01 108.73 287.24 107.49 286.7 106.32C286.54 105.97 286.32 105.67 286.08 105.42L285.04 106.8L284.91 104.79C284.69 104.76 284.48 104.79 284.28 104.88C283.48 105.25 283.25 106.49 283.78 107.65L283.79 107.66Z" fill="#282828"/>
<path d="M296.78 102.77C297.18 103.65 297.999 104.13 298.609 103.85C299.219 103.57 299.38 102.64 298.98 101.76C298.86 101.5 298.7 101.27 298.51 101.09L297.72 102.13L297.63 100.62C297.46 100.6 297.309 100.62 297.149 100.69C296.549 100.97 296.38 101.9 296.78 102.77Z" fill="#282828"/>
<path d="M290.68 121.29C287.64 121.29 284.98 118.46 284.86 118.34C284.67 118.14 284.68 117.82 284.89 117.63C285.09 117.44 285.41 117.45 285.6 117.66C285.63 117.69 288.23 120.48 290.93 120.28C292.15 120.2 293.23 119.51 294.14 118.24C294.3 118.02 294.61 117.96 294.84 118.12C295.07 118.28 295.12 118.59 294.96 118.82C293.87 120.35 292.54 121.18 291 121.28C290.9 121.28 290.79 121.29 290.69 121.29H290.68Z" fill="#282828"/>
<path d="M262.45 122.25C262.45 122.25 260.71 119.12 257.82 120.35L262.45 122.25Z" fill="white"/>
<path d="M262.45 122.75C262.28 122.75 262.1 122.66 262.01 122.5C261.95 122.39 260.45 119.78 258.02 120.82C257.77 120.93 257.47 120.82 257.36 120.56C257.25 120.3 257.36 120.01 257.62 119.9C260.23 118.79 262.2 120.8 262.88 122.02C263.01 122.26 262.93 122.56 262.69 122.7C262.61 122.74 262.53 122.76 262.45 122.76V122.75Z" fill="#282828"/>
<path d="M258.85 125.51C258.85 125.51 257.25 122.25 259.52 120.08L258.85 125.51Z" fill="white"/>
<path d="M258.85 126.01C258.66 126.01 258.49 125.91 258.4 125.73C258.33 125.58 256.67 122.11 259.18 119.72C259.38 119.53 259.7 119.54 259.89 119.74C260.08 119.94 260.07 120.26 259.87 120.45C257.89 122.34 259.29 125.26 259.3 125.29C259.42 125.54 259.32 125.84 259.07 125.96C259 125.99 258.92 126.01 258.85 126.01Z" fill="#282828"/>
<path d="M196.15 226.75C192.16 234.16 193.55 234.39 193.33 238.46C193.11 242.53 193.39 243.92 191.51 244.3C189.63 244.68 188.55 239.83 188.55 239.83C188.55 239.83 186.17 245.47 182.89 248.19C179.61 250.91 167.8 256.89 167.8 256.89C167.8 256.89 165.85 255.93 167.81 253.91C169.77 251.89 175.79 246.83 175.79 246.83C175.79 246.83 165.22 249.76 163.62 249.88C162.02 250 161.25 246.84 164.52 245.91C167.78 244.99 174.59 241.12 174.59 241.12C174.59 241.12 166.21 242.19 163.79 242.27C161.37 242.35 160.11 239.42 163.35 238.71C166.59 237.99 171.37 236.56 171.37 236.56L161.34 233.77C161.34 233.77 160.47 231.1 164.79 231.39C169.11 231.67 171.81 231.67 171.81 231.67C171.81 231.67 172.79 226.6 178.18 223.56C183.58 220.52 184.66 219.99 184.66 219.99C184.66 219.99 187.51 219.35 191.4 221.89C195.29 224.43 196.14 226.75 196.14 226.75H196.15Z" fill="white"/>
<path d="M167.81 257.39C167.73 257.39 167.66 257.37 167.59 257.34C167.55 257.32 166.64 256.86 166.47 255.89C166.34 255.15 166.68 254.37 167.46 253.56C168.77 252.21 171.82 249.57 173.76 247.91C170.56 248.78 164.85 250.29 163.66 250.38C162.75 250.45 161.96 249.76 161.78 248.74C161.56 247.52 162.28 246.02 164.38 245.43C166.38 244.86 169.78 243.14 172.04 241.94C169.36 242.26 165.37 242.72 163.8 242.77C162.17 242.8 161.04 241.74 160.91 240.66C160.8 239.75 161.35 238.63 163.23 238.22C165.23 237.78 167.85 237.05 169.54 236.57L161.2 234.25C161.04 234.21 160.91 234.08 160.86 233.92C160.85 233.88 160.51 232.81 161.2 231.92C161.82 231.12 163.04 230.77 164.82 230.88C168.14 231.1 170.52 231.15 171.42 231.16C171.78 229.85 173.24 225.77 177.94 223.12C183.29 220.11 184.4 219.56 184.44 219.54C184.48 219.52 184.51 219.51 184.55 219.5C184.67 219.47 187.65 218.85 191.67 221.47C195.65 224.07 196.57 226.48 196.61 226.58C196.66 226.71 196.65 226.86 196.58 226.99C193.61 232.5 193.69 233.9 193.8 236.02C193.84 236.71 193.88 237.49 193.82 238.49C193.79 239.1 193.77 239.65 193.75 240.15C193.64 242.98 193.58 244.4 191.6 244.79C189.95 245.11 188.93 242.87 188.42 241.29C187.51 243.14 185.61 246.59 183.2 248.58C179.92 251.31 168.5 257.1 168.02 257.34C167.95 257.38 167.87 257.39 167.79 257.39H167.81ZM175.8 246.33C175.98 246.33 176.15 246.43 176.24 246.6C176.35 246.81 176.3 247.06 176.12 247.22C176.06 247.27 170.1 252.29 168.17 254.26C167.63 254.81 167.38 255.32 167.45 255.71C167.49 255.98 167.69 256.19 167.84 256.31C169.58 255.42 179.65 250.24 182.58 247.8C185.73 245.19 188.07 239.68 188.1 239.63C188.18 239.43 188.38 239.31 188.61 239.33C188.83 239.35 189.01 239.51 189.05 239.72C189.44 241.48 190.48 243.98 191.42 243.8C192.55 243.57 192.65 243.08 192.77 240.1C192.79 239.6 192.81 239.05 192.84 238.43C192.89 237.48 192.85 236.76 192.82 236.07C192.7 233.89 192.62 232.31 195.6 226.73C195.3 226.14 194.19 224.29 191.14 222.31C187.78 220.12 185.23 220.41 184.84 220.47C184.55 220.62 183.1 221.37 178.45 224C173.33 226.88 172.33 231.72 172.32 231.77C172.27 232 172.07 232.17 171.83 232.17C171.8 232.17 169.06 232.17 164.77 231.88C163.37 231.79 162.42 232.01 162.01 232.52C161.79 232.8 161.77 233.14 161.78 233.36L171.51 236.07C171.72 236.13 171.87 236.32 171.88 236.55C171.89 236.78 171.74 236.97 171.52 237.03C171.47 237.04 166.68 238.47 163.46 239.19C162.41 239.42 161.84 239.92 161.91 240.53C161.99 241.15 162.71 241.8 163.78 241.76C166.15 241.68 174.44 240.63 174.53 240.62C174.77 240.58 174.99 240.73 175.07 240.96C175.15 241.19 175.05 241.43 174.84 241.55C174.56 241.71 167.95 245.46 164.66 246.39C163.06 246.84 162.65 247.84 162.77 248.56C162.84 248.98 163.13 249.42 163.59 249.37C164.86 249.28 172.74 247.15 175.67 246.34C175.71 246.33 175.76 246.32 175.8 246.32V246.33Z" fill="#282828"/>
<path d="M175.8 247.33C175.58 247.33 175.38 247.19 175.32 246.97C175.24 246.71 175.39 246.43 175.66 246.35L179.3 245.28C179.57 245.2 179.84 245.36 179.92 245.62C180 245.88 179.85 246.16 179.58 246.24L175.94 247.31C175.94 247.31 175.85 247.33 175.8 247.33Z" fill="#282828"/>
<path d="M174.59 241.63C174.35 241.63 174.13 241.45 174.1 241.2C174.06 240.93 174.25 240.67 174.52 240.63L176.95 240.28C177.22 240.24 177.48 240.43 177.52 240.7C177.56 240.97 177.37 241.23 177.1 241.27L174.67 241.62C174.67 241.62 174.62 241.62 174.6 241.62L174.59 241.63Z" fill="#282828"/>
<path d="M174.059 237.61C174.059 237.61 173.989 237.61 173.959 237.61L171.279 237.07C171.009 237.01 170.829 236.75 170.889 236.48C170.949 236.21 171.209 236.04 171.479 236.09L174.159 236.63C174.429 236.69 174.609 236.95 174.549 237.22C174.499 237.46 174.289 237.62 174.059 237.62V237.61Z" fill="#282828"/>
<path d="M188.55 240.33C188.47 240.33 188.39 240.31 188.32 240.27C188.07 240.14 187.98 239.84 188.11 239.6C190.77 234.47 191.55 233.43 191.58 233.39C191.75 233.17 192.06 233.12 192.28 233.29C192.5 233.46 192.55 233.77 192.38 233.99C192.35 234.03 191.6 235.07 189 240.06C188.91 240.23 188.74 240.33 188.56 240.33H188.55Z" fill="#282828"/>
<path d="M383.92 54.3502C380.78 55.2202 374.94 56.6402 371.8 57.5102C374.05 57.9902 379.01 57.9302 381.27 58.4302C382.05 58.5902 382.83 58.7702 383.54 59.1302C383.87 59.3002 384.19 59.5302 384.38 59.8502C384.58 60.1702 384.61 60.6102 384.38 60.9102C384.12 61.2502 383.64 61.3102 383.22 61.3402C379.82 61.5802 376.41 61.8102 373.02 62.0502C375.16 63.3702 377.28 64.7502 379.37 66.1702C379.97 66.5702 380.64 67.2102 380.38 67.8802C380.23 68.2402 379.85 68.4502 379.46 68.4902C379.08 68.5302 378.7 68.4302 378.32 68.3302C376.1 67.7102 373.91 66.9502 371.79 66.0302C371.55 66.3202 371.3 66.6202 371.05 66.9102C370.2 67.9102 369.35 68.9102 368.35 69.7702C366.19 71.6102 363.36 72.6302 360.53 72.6702C359.5 71.5202 358.06 70.0302 356.27 68.5002C353.98 66.5302 351.65 65.3402 350.2 64.7102C351.4 62.7802 353.14 61.2802 354.98 59.9102C356.63 57.3802 358.42 54.9202 360.73 52.9902C361.66 52.2202 362.66 51.5302 363.67 50.8702C366.91 48.7502 370.26 46.7902 373.71 45.0302C375.75 43.9802 377.85 42.9902 380.08 42.4402C380.42 42.3602 380.78 42.2902 381.11 42.3902C381.44 42.4802 381.74 42.8102 381.68 43.1502C381.65 43.3602 381.49 43.5402 381.34 43.6902C378.59 46.5502 375.5 49.0802 372.16 51.2002C371.05 51.9002 369.89 52.5802 368.94 53.4802C373.88 52.3802 378.9 51.6102 383.95 51.1802C384.74 51.1202 385.7 51.1402 386.1 51.8202C386.42 52.3802 386.16 53.1402 385.68 53.5702C385.19 54.0002 384.55 54.1802 383.92 54.3502Z" fill="white"/>
<path d="M360.53 73.17C360.39 73.17 360.25 73.11 360.16 73C358.84 71.52 357.42 70.13 355.95 68.88C353.76 66.99 351.51 65.82 350.01 65.17C349.88 65.11 349.78 65 349.73 64.86C349.69 64.72 349.71 64.57 349.78 64.45C351.07 62.37 352.94 60.82 354.61 59.57C356.12 57.26 357.99 54.64 360.41 52.61C361.44 51.76 362.55 51.01 363.4 50.45C366.72 48.28 370.11 46.3 373.49 44.58C375.49 43.55 377.65 42.52 379.97 41.95C380.36 41.86 380.82 41.77 381.26 41.91C381.78 42.05 382.29 42.6 382.18 43.24C382.13 43.57 381.91 43.84 381.7 44.05C378.92 46.94 375.8 49.49 372.43 51.63L372 51.9C371.67 52.11 371.33 52.32 371 52.54C375.26 51.68 379.6 51.06 383.92 50.69C384.48 50.65 385.93 50.54 386.54 51.58C387.01 52.4 386.62 53.42 386.02 53.96C385.43 54.48 384.67 54.68 384.06 54.85C382.49 55.29 380.24 55.86 377.99 56.43C376.77 56.74 375.55 57.05 374.44 57.34C375.1 57.39 375.81 57.43 376.5 57.47C378.32 57.58 380.21 57.69 381.39 57.96C382.17 58.12 383.01 58.31 383.78 58.7C384.26 58.95 384.61 59.25 384.82 59.61C385.14 60.13 385.13 60.78 384.79 61.23C384.37 61.77 383.66 61.83 383.27 61.85L374.61 62.45C376.27 63.5 377.96 64.61 379.67 65.77C381.11 66.73 381.04 67.63 380.87 68.07C380.66 68.58 380.15 68.93 379.54 69C379.07 69.05 378.63 68.93 378.23 68.83C376.03 68.22 373.93 67.49 371.96 66.65C371.79 66.85 371.62 67.05 371.45 67.25C370.6 68.25 369.73 69.28 368.7 70.16C366.5 72.04 363.53 73.14 360.56 73.18L360.53 73.17ZM350.94 64.5C352.48 65.21 354.56 66.38 356.6 68.13C358.05 69.37 359.44 70.73 360.75 72.17C363.41 72.08 366.06 71.08 368.03 69.39C369 68.56 369.85 67.56 370.67 66.59C370.92 66.3 371.17 66 371.41 65.72C371.55 65.55 371.79 65.49 371.99 65.58C374.01 66.46 376.19 67.22 378.46 67.86C378.8 67.95 379.13 68.03 379.41 68C379.65 67.97 379.85 67.85 379.92 67.69C380.04 67.37 379.57 66.91 379.09 66.59C376.94 65.13 374.81 63.75 372.75 62.48C372.57 62.37 372.48 62.15 372.53 61.94C372.58 61.73 372.76 61.58 372.98 61.56L383.18 60.85C383.52 60.83 383.85 60.78 383.98 60.62C384.07 60.51 384.05 60.29 383.95 60.13C383.83 59.93 383.61 59.75 383.3 59.59C382.64 59.26 381.88 59.08 381.16 58.94C380.05 58.69 378.2 58.58 376.42 58.48C374.58 58.37 372.83 58.26 371.69 58.02C371.46 57.97 371.3 57.78 371.29 57.55C371.29 57.32 371.43 57.12 371.66 57.05C373.23 56.61 375.48 56.04 377.73 55.47C379.97 54.9 382.21 54.33 383.78 53.9C384.34 53.75 384.93 53.59 385.34 53.23C385.64 52.96 385.85 52.45 385.66 52.1C385.46 51.76 384.93 51.63 383.98 51.71C378.98 52.14 373.95 52.91 369.04 54C368.82 54.05 368.6 53.95 368.49 53.75C368.38 53.55 368.42 53.31 368.59 53.15C369.45 52.33 370.47 51.7 371.46 51.08L371.89 50.81C375.19 48.72 378.25 46.21 380.98 43.38C381.16 43.2 381.18 43.14 381.19 43.12C381.19 43.07 381.11 42.95 380.98 42.91C380.76 42.84 380.47 42.91 380.2 42.96C377.99 43.5 375.89 44.51 373.94 45.51C370.6 47.22 367.23 49.17 363.94 51.32C363.11 51.86 362.03 52.59 361.04 53.41C358.7 55.37 356.87 57.95 355.39 60.22C355.36 60.27 355.32 60.31 355.27 60.35C353.79 61.45 352.14 62.8 350.93 64.53L350.94 64.5Z" fill="#282828"/>
<path d="M355.23 60.3399C356.6 59.3099 358.02 58.3399 359.42 57.3599C360.12 56.8699 360.81 56.3699 361.51 55.8899C362.06 55.5099 362.71 55.0199 363.41 55.0599C365.15 55.1699 364.04 57.3299 363.51 58.1599C362.83 59.2199 361.91 60.0999 361 60.9699C359.94 61.9799 358.88 62.9899 358.04 64.1999C357.67 64.7299 358.54 65.2299 358.9 64.6999C360.56 62.3099 363.24 60.7799 364.64 58.1899C365.28 57.0099 365.92 55.1199 364.4 54.3099C362.88 53.4999 361.34 54.7599 360.14 55.6099C358.32 56.8899 356.48 58.1399 354.7 59.4699C354.19 59.8499 354.69 60.7199 355.2 60.3299L355.23 60.3399Z" fill="#282828"/>
<path d="M372.78 64.4201H372.76C372.48 64.4201 372.27 64.1801 372.28 63.9001C372.28 63.8601 372.39 59.9601 371.35 57.7201C370.3 55.4601 367.46 52.8701 367.44 52.8401C367.24 52.6501 367.22 52.3401 367.41 52.1301C367.6 51.9301 367.91 51.9101 368.12 52.1001C368.24 52.2101 371.13 54.8501 372.27 57.2901C373.41 59.7501 373.3 63.7601 373.29 63.9301C373.29 64.2001 373.06 64.4101 372.79 64.4101L372.78 64.4201Z" fill="#282828"/>
<path d="M222.74 205.03C222.62 205.03 222.5 204.99 222.4 204.9C222.2 204.71 222.18 204.4 222.37 204.19C222.65 203.89 249.94 173.98 252.16 164.81C254.33 155.86 248.06 151 247.79 150.8C247.57 150.63 247.53 150.32 247.69 150.1C247.86 149.88 248.17 149.84 248.39 150C248.46 150.05 255.46 155.44 253.13 165.05C250.85 174.47 224.23 203.63 223.1 204.87C223 204.98 222.87 205.03 222.73 205.03H222.74Z" fill="#282828"/>
<path d="M297.89 168.72C297.89 168.72 297.83 168.72 297.8 168.72C297.53 168.67 297.35 168.41 297.4 168.14C300.34 152.03 298.14 138.01 298.12 137.87C298.08 137.6 298.26 137.34 298.53 137.3C298.8 137.25 299.06 137.44 299.1 137.71C299.12 137.85 301.35 152.05 298.38 168.32C298.34 168.56 298.13 168.73 297.89 168.73V168.72Z" fill="#282828"/>
<path d="M291.75 198.35C269.24 216.07 236.91 213.88 218.86 208.97L205.25 223.88C205.25 223.88 230.63 231.86 254.89 228.91C279.15 225.96 287.14 218.28 287.14 218.28C287.14 218.28 294.68 204.01 291.76 198.35H291.75Z" fill="#282828"/>
<path d="M243.65 230.06C223.5 230.06 205.31 224.43 205.09 224.36C204.93 224.31 204.8 224.18 204.76 224.01C204.72 223.84 204.76 223.67 204.87 223.54L218.48 208.63C218.61 208.49 218.8 208.44 218.98 208.48C239.23 213.98 270.37 214.53 291.43 197.95C291.55 197.86 291.7 197.82 291.85 197.85C292 197.88 292.12 197.98 292.19 198.11C295.2 203.93 287.88 217.91 287.57 218.5C287.55 218.55 287.51 218.59 287.47 218.63C287.14 218.95 279.08 226.46 254.94 229.4C251.18 229.86 247.38 230.05 243.65 230.05V230.06ZM206.15 223.63C210.54 224.9 233.27 231.04 254.82 228.42C277.55 225.66 285.97 218.64 286.73 217.97C287.29 216.88 293.52 204.62 291.55 199.14C270.31 215.47 239.34 214.98 219.02 209.53L206.15 223.63Z" fill="#282828"/>
<path d="M230.88 154.05C230.75 154.05 230.63 154 230.53 153.91C230.33 153.72 230.33 153.4 230.53 153.2C230.66 153.07 243.35 140.22 257.7 136.63C257.97 136.56 258.24 136.73 258.31 136.99C258.38 137.26 258.21 137.53 257.95 137.6C243.88 141.12 231.37 153.77 231.25 153.9C231.15 154 231.02 154.05 230.89 154.05H230.88Z" fill="#282828"/>
<path d="M244.27 291.38C244.17 291.38 244.07 291.35 243.99 291.29C243.76 291.13 243.71 290.82 243.86 290.59C243.91 290.52 249.06 283.05 254.44 272.59C254.57 272.34 254.87 272.25 255.11 272.37C255.36 272.5 255.45 272.8 255.33 273.04C249.92 283.56 244.74 291.08 244.69 291.15C244.59 291.29 244.44 291.36 244.28 291.36L244.27 291.38Z" fill="#282828"/>
<path d="M241.87 332.88L224.86 352.82C223.67 354.21 223.83 356.31 225.22 357.51L261.8 389.16C263.33 390.49 265.68 390.15 266.78 388.45L267.4 387.49C267.4 387.49 280.19 368.49 263 351.66C263 351.66 251.85 346.39 241.87 332.88Z" fill="#29AB87"/>
<path d="M267.229 387.18C267.109 387.18 266.999 387.14 266.899 387.06L226.339 351.97C226.129 351.79 226.109 351.47 226.289 351.26C226.469 351.05 226.789 351.03 226.999 351.21L267.559 386.3C267.769 386.48 267.789 386.8 267.609 387.01C267.509 387.12 267.369 387.18 267.229 387.18Z" fill="#282828"/>
<path d="M236.46 360.55C236.36 360.55 236.25 360.52 236.16 360.45C235.94 360.28 235.89 359.97 236.06 359.75C236.33 359.38 242.6 350.69 233.82 342.27C233.62 342.08 233.61 341.76 233.8 341.56C233.99 341.36 234.31 341.35 234.51 341.54C239.43 346.25 239.81 351.12 239.27 354.37C238.68 357.88 236.94 360.24 236.87 360.34C236.77 360.47 236.62 360.54 236.47 360.54L236.46 360.55Z" fill="#282828"/>
<path d="M257.5 357.53C257.22 357.53 257 357.31 257 357.03C257 356.75 257.22 356.53 257.5 356.53L272.28 356.47C272.56 356.47 272.78 356.69 272.78 356.97C272.78 357.25 272.56 357.47 272.28 357.47L257.5 357.53Z" fill="#282828"/>
<path d="M260.3 362.73C260.02 362.73 259.8 362.51 259.8 362.23C259.8 361.95 260.02 361.73 260.3 361.73L275.08 361.67C275.36 361.67 275.58 361.89 275.58 362.17C275.58 362.45 275.36 362.67 275.08 362.67L260.3 362.73Z" fill="#282828"/>
<path d="M130.91 396.58C132.29 406.95 153.66 416.6 162 412.16C162 412.16 165.2 438.19 161.81 448.44C158.42 458.69 139.12 461.44 131.33 439.88C125.23 423.01 123.35 412.18 122.82 408.27C122.68 407.25 122.97 406.21 123.63 405.42L130.91 396.59V396.58Z" fill="#29AB87"/>
<path d="M155.649 453.01C152.779 453.01 148.519 451.85 142.859 447.32C131.859 438.5 127.769 411.8 126.779 403.83C126.749 403.56 126.939 403.31 127.209 403.27C127.479 403.24 127.729 403.43 127.769 403.7C128.749 411.58 132.779 437.95 143.479 446.53C149.889 451.67 154.329 452.29 156.929 451.91C157.209 451.88 157.459 452.06 157.499 452.33C157.539 452.6 157.349 452.86 157.079 452.9C156.649 452.96 156.169 453 155.639 453L155.649 453.01Z" fill="#282828"/>
<path d="M128.26 410.92C128.06 410.92 127.86 410.8 127.79 410.59C127.69 410.33 127.83 410.04 128.09 409.95C131.17 408.82 133.02 405.15 133.04 405.11C133.16 404.86 133.46 404.76 133.71 404.88C133.96 405 134.06 405.3 133.94 405.55C133.86 405.72 131.9 409.61 128.44 410.89C128.38 410.91 128.32 410.92 128.27 410.92H128.26Z" fill="#282828"/>
<path d="M167.74 425.78C167.66 425.78 167.58 425.76 167.5 425.72C167.4 425.67 157.58 420.39 148.32 420.39C148.19 420.39 148.05 420.39 147.92 420.39C147.59 420.39 147.42 420.17 147.41 419.9C147.41 419.62 147.63 419.4 147.9 419.39C157.54 419.23 167.55 424.61 167.97 424.84C168.21 424.97 168.3 425.28 168.17 425.52C168.08 425.69 167.91 425.78 167.73 425.78H167.74Z" fill="#282828"/>
<path d="M168.32 433.2C168.24 433.2 168.16 433.18 168.08 433.14C167.98 433.09 157.85 427.69 148.51 427.81C148.24 427.81 148.01 427.59 148.01 427.32C148.01 427.04 148.23 426.82 148.5 426.81C158.13 426.63 168.15 432.03 168.57 432.26C168.81 432.39 168.9 432.7 168.77 432.94C168.68 433.11 168.51 433.2 168.33 433.2H168.32Z" fill="#282828"/>
<path d="M155.9 245.15C149.38 249.86 143.69 255.66 139.1 262.26C137.95 263.92 136.87 265.63 135.86 267.38C134.85 269.13 134.03 270.95 132.75 272.49C131.47 274.03 129.64 274.92 127.83 275.84C126.02 276.76 124.52 277.94 123.16 279.44C119.6 283.36 116.25 287.49 112.8 291.51C112.38 292 113.09 292.71 113.51 292.22C116.58 288.63 119.66 285.04 122.73 281.45C124.1 279.85 125.49 278.31 127.34 277.25C129.01 276.29 130.84 275.6 132.33 274.35C133.82 273.1 134.8 271.38 135.73 269.7C136.66 268.02 137.67 266.26 138.75 264.6C140.95 261.21 143.44 258.02 146.19 255.07C149.29 251.73 152.72 248.7 156.42 246.02C156.94 245.65 156.44 244.78 155.92 245.16L155.9 245.15Z" fill="#282828"/>
<path d="M160.9 255.59C157.89 257.26 156.53 260.65 155.74 263.83C155.28 265.69 154.95 267.58 154.35 269.4C153.72 271.32 152.74 272.95 151.29 274.36C149.97 275.64 148.49 276.79 147.53 278.38C146.57 279.97 146.21 281.82 145.83 283.61C145.43 285.51 144.94 287.32 143.8 288.92C142.66 290.52 141.25 291.83 140.27 293.5C138.26 296.92 138.12 301.34 135.32 304.3C134.88 304.77 135.58 305.48 136.03 305.01C138.48 302.42 138.99 298.83 140.32 295.65C141.06 293.88 142.21 292.45 143.44 290.99C144.67 289.53 145.67 288.05 146.23 286.22C146.79 284.39 146.98 282.54 147.56 280.75C148.18 278.85 149.39 277.49 150.83 276.16C152.18 274.91 153.48 273.67 154.34 272.02C155.2 270.37 155.7 268.51 156.12 266.68C156.97 262.98 157.78 258.48 161.41 256.46C161.97 256.15 161.47 255.28 160.91 255.6L160.9 255.59Z" fill="#282828"/>
<path d="M178.02 261.6C173.51 266.64 175.37 274.03 172.86 279.88C171.45 283.17 168.88 285.94 168.11 289.51C167.28 293.38 168.74 297.53 167.22 301.27C166.81 302.27 166.23 303.18 165.7 304.12C165.17 305.06 164.69 306.06 164.3 307.08C163.48 309.21 163 311.45 162.51 313.67C162.37 314.3 163.34 314.57 163.47 313.94C163.89 312.01 164.31 310.08 164.95 308.21C165.59 306.34 166.6 304.67 167.54 302.91C168.48 301.15 168.85 299.48 168.91 297.59C168.97 295.7 168.74 293.7 168.83 291.75C168.92 289.8 169.47 288.1 170.37 286.41C171.2 284.84 172.2 283.37 173.04 281.8C174.61 278.87 175.08 275.69 175.46 272.43C175.87 268.9 176.25 265.07 178.73 262.31C179.16 261.83 178.45 261.12 178.02 261.6Z" fill="#282828"/>
<path d="M166.19 191.05C158.17 201.1 149.75 210.83 140.96 220.21C139.71 221.54 138.46 222.87 137.19 224.18C136.59 224.81 135.98 225.44 135.37 226.07C135.07 226.38 134.7 226.69 134.45 227.05C134.39 227.13 134.35 227.2 134.3 227.29C134.26 227.38 134.23 227.47 134.19 227.56C134.04 227.76 134.12 227.9 134.44 227.97L134.21 228.27L134.26 228.25L133.87 228.3L133.95 228.32C134.58 228.45 134.85 227.49 134.22 227.36C133.04 227.11 133.38 228.98 134.4 228.74C134.97 228.6 135.1 227.86 135.42 227.47C136.03 226.75 136.75 226.1 137.41 225.42C139.91 222.82 142.39 220.19 144.83 217.53C149.72 212.21 154.49 206.79 159.14 201.26C161.77 198.13 164.36 194.97 166.91 191.77C167.31 191.27 166.6 190.56 166.2 191.06L166.19 191.05Z" fill="#282828"/>
<path d="M134.47 217.83C127.33 224.96 120.31 232.21 113.42 239.58C111.47 241.66 109.54 243.75 107.61 245.85C107.18 246.32 107.88 247.03 108.32 246.56C115.15 239.13 122.1 231.81 129.17 224.61C131.17 222.58 133.17 220.56 135.19 218.54C135.65 218.08 134.94 217.38 134.48 217.83H134.47Z" fill="#282828"/>
<path d="M138.51 202.82C136.24 205.24 133.97 207.65 131.7 210.07C131.26 210.54 131.97 211.25 132.41 210.78C134.68 208.36 136.95 205.95 139.22 203.53C139.66 203.06 138.95 202.35 138.51 202.82Z" fill="#282828"/>
<path d="M190.709 146.65C185.479 150.9 180.489 155.45 175.779 160.28C175.329 160.74 176.039 161.45 176.489 160.99C181.199 156.16 186.179 151.61 191.419 147.36C191.919 146.95 191.209 146.25 190.709 146.65Z" fill="#282828"/>
<path d="M228.86 96.6599C228.22 98.7999 225.98 100.14 223.76 100.41C222.97 100.51 222.17 100.49 221.38 100.41C219.15 101.84 216.93 103.27 214.71 104.7C210.74 107.25 206.59 109.86 201.91 110.47C200.36 110.67 198.76 110.65 197.3 111.22C195.77 111.82 194.57 113.01 193.32 114.07C188.89 117.85 183.38 120.35 177.62 121.19C175.67 121.47 173.68 121.58 171.8 122.15C169.85 122.75 168.09 123.83 166.21 124.61C161.23 126.71 155.37 126.63 150.45 124.4C149.54 123.99 148.65 123.51 147.67 123.36C146.12 123.11 144.58 123.7 143.1 124.2C136.76 126.3 129.88 126.71 123.34 125.37C119.77 124.64 116.19 123.33 113.63 120.75C111.07 118.17 109.76 114.1 111.21 110.77C112.47 107.88 115.51 106.08 118.6 105.49C121.69 104.89 124.88 105.32 128 105.74C130.7 100.99 133.5 96.1099 137.81 92.7599C142.12 89.3999 148.37 87.9199 153.1 90.6299C154.79 91.5999 156.34 93.0699 158.28 93.0999C159.64 93.1199 160.88 92.4099 162.06 91.7299C168.49 87.9999 176.23 84.5299 183.09 87.3899C184.15 87.8299 185.2 88.4199 186.34 88.3799C187.79 88.3199 188.97 87.2799 190.16 86.4499C195.11 82.9899 202.18 82.8899 207.22 86.2199C208.52 87.0799 209.75 88.1599 211.29 88.4399C213.11 88.7699 214.9 87.8799 216.7 87.4599C220.51 86.5899 224.76 88.0099 227.27 90.9999C228.59 92.5699 229.45 94.7099 228.86 96.6599Z" fill="white"/>
<path d="M131.02 126.65C128.41 126.65 125.81 126.39 123.24 125.86C118.81 124.95 115.55 123.4 113.28 121.1C110.37 118.17 109.33 113.84 110.76 110.57C111.98 107.78 114.88 105.69 118.51 105C121.57 104.4 124.7 104.79 127.74 105.2C130.28 100.74 133.17 95.7399 137.51 92.3699C141.65 89.1399 148.16 87.2199 153.36 90.1999C153.81 90.4599 154.24 90.7499 154.68 91.0399C155.88 91.8299 157.01 92.5899 158.3 92.6099C159.53 92.6299 160.7 91.9599 161.82 91.3099C168.04 87.6999 176.1 83.9399 183.29 86.9399C183.49 87.0199 183.69 87.1099 183.89 87.1999C184.72 87.5699 185.52 87.9299 186.33 87.8899C187.4 87.8499 188.33 87.1699 189.32 86.4599C189.51 86.3199 189.7 86.1899 189.89 86.0499C195.04 82.4499 202.28 82.3599 207.51 85.8099C207.79 85.9899 208.06 86.1899 208.33 86.3799C209.33 87.0899 210.28 87.7599 211.39 87.9599C212.59 88.1799 213.79 87.8099 215.07 87.4199C215.58 87.2599 216.09 87.1099 216.6 86.9899C220.6 86.0799 225.04 87.5699 227.67 90.6999C229.3 92.6399 229.93 94.9299 229.36 96.8199C228.62 99.2799 226.06 100.65 223.84 100.92C223.14 101.01 222.38 101.01 221.52 100.94C219.34 102.34 217.17 103.74 215 105.14C211.2 107.58 206.89 110.35 201.99 110.99C201.56 111.04 201.13 111.08 200.7 111.12C199.57 111.22 198.49 111.32 197.5 111.71C196.3 112.18 195.32 113.04 194.28 113.94C194.07 114.12 193.87 114.3 193.66 114.47C189.19 118.29 183.52 120.86 177.71 121.7C177.18 121.78 176.65 121.84 176.11 121.9C174.72 122.07 173.29 122.24 171.96 122.64C170.8 123 169.67 123.55 168.58 124.08C167.88 124.42 167.16 124.78 166.42 125.08C161.33 127.22 155.29 127.14 150.26 124.86L149.78 124.64C149.05 124.3 148.35 123.97 147.61 123.86C146.3 123.65 144.93 124.11 143.62 124.56L143.28 124.68C139.32 125.99 135.18 126.65 131.04 126.65H131.02ZM121.92 105.7C120.83 105.7 119.76 105.78 118.7 105.99C115.39 106.62 112.76 108.49 111.67 110.98C110.41 113.88 111.36 117.76 113.99 120.41C116.12 122.56 119.22 124.03 123.45 124.89C129.92 126.22 136.67 125.82 142.95 123.74L143.28 123.63C144.71 123.14 146.2 122.63 147.75 122.88C148.62 123.01 149.42 123.38 150.18 123.74L150.65 123.96C155.43 126.13 161.17 126.2 166.01 124.17C166.72 123.88 167.43 123.53 168.12 123.19C169.25 122.64 170.41 122.07 171.65 121.69C173.07 121.26 174.55 121.08 175.97 120.91C176.49 120.85 177.02 120.78 177.54 120.71C183.17 119.89 188.65 117.4 192.99 113.71C193.2 113.54 193.4 113.36 193.6 113.18C194.66 112.26 195.75 111.3 197.11 110.77C198.24 110.33 199.43 110.22 200.59 110.12C201.01 110.08 201.43 110.04 201.84 109.99C206.51 109.38 210.72 106.68 214.43 104.3C216.65 102.87 218.87 101.44 221.1 100.01C221.19 99.9499 221.31 99.9199 221.42 99.9299C222.27 100.01 223.01 100.02 223.69 99.9299C225.59 99.6999 227.77 98.5599 228.37 96.5299C228.85 94.9599 228.29 93.0099 226.88 91.3299C224.49 88.4799 220.44 87.1299 216.8 87.9599C216.31 88.0699 215.82 88.2199 215.34 88.3699C214.01 88.7799 212.63 89.1999 211.19 88.9399C209.86 88.6999 208.78 87.9399 207.73 87.1999C207.46 87.0099 207.2 86.8299 206.93 86.6499C202.03 83.4099 195.25 83.5099 190.43 86.8699C190.25 86.9999 190.06 87.1299 189.88 87.2599C188.82 88.0299 187.72 88.8299 186.34 88.8799C185.3 88.8899 184.36 88.4999 183.46 88.0999C183.27 88.0099 183.07 87.9299 182.88 87.8499C176.1 85.0199 168.31 88.6699 162.29 92.1599C161.1 92.8399 159.75 93.6099 158.25 93.5999C156.67 93.5799 155.36 92.7099 154.09 91.8699C153.67 91.5899 153.25 91.3099 152.82 91.0699C148.02 88.3199 141.96 90.1399 138.09 93.1599C133.81 96.4899 131.06 101.32 128.41 105.99C128.31 106.17 128.11 106.28 127.91 106.24C125.92 105.97 123.89 105.7 121.89 105.7H121.92Z" fill="#282828"/>
</svg>
