<svg width="500" height="500" viewBox="0 0 500 500" fill="none" xmlns="http://www.w3.org/2000/svg">
<path fill-rule="evenodd" clip-rule="evenodd" d="M251.847 11.2753C312.229 17.2728 373.16 24.9615 418.481 66.2967C466.44 110.039 495.708 171.408 499.442 237.099C503.409 306.86 486.515 378.827 439.104 429.041C391.047 479.94 320.898 496.571 251.847 499.334C179.346 502.235 100.264 497.65 49.375 444.637C-1.26932 391.88 0.100868 311.113 0.115021 237.099C0.12917 163.105 -4.8674 78.3731 49.4544 29.6422C102.437 -17.8873 181.768 4.31445 251.847 11.2753Z" fill="#FCE0E0"/>
<path d="M257.3 123.8C257.8 123.5 258.5 123.2 258.9 123.6C259.3 124 259.1 124.7 258.7 125.2C257.8 126.6 256.7 127.8 255.4 128.8C257.6 127.8 259.9 127.1 262.3 126.8C262.8 126.7 263.4 126.8 263.5 127.2C263.6 127.6 263.2 127.9 262.9 128.1C260.9 129.5 258.6 130.6 256.1 131.2C257.5 131 259 131.1 260.4 131.6C260.7 131.7 260.9 131.8 261 132C261.2 132.5 260.7 133 260.2 133.3C255.2 136.1 249.3 136.8 243.6 137.2C243.4 137.2 243.1 137.2 242.9 137.1C242.5 136.8 242.6 136.2 242.8 135.8C245.1 129.8 252 127.3 257.3 123.8Z" fill="white"/>
<path d="M243.5 138.2C243.2 138.2 242.9 138.1 242.7 138C242.1 137.6 241.9 136.8 242.3 135.9C244.1 130.8 248.8 128.1 253.3 125.5C254.5 124.8 255.8 124.1 256.9 123.3C258.3 122.4 259 122.8 259.4 123.1C260 123.7 260 124.6 259.3 125.6C259 126.1 258.6 126.5 258.3 127C259.6 126.6 260.9 126.3 262.3 126.2C263.3 126.1 264.1 126.4 264.3 127.2C264.4 127.6 264.3 128.2 263.5 128.8C262.4 129.6 261.2 130.2 259.9 130.8C260.2 130.9 260.5 131 260.8 131.1C261.2 131.2 261.6 131.5 261.8 131.9C262.2 132.7 261.8 133.5 260.7 134.1C255.5 137 249.5 137.7 243.8 138.1L243.5 138.2ZM258.4 124.2C258.1 124.2 257.9 124.3 257.7 124.5C256.5 125.3 255.2 126 254 126.7C249.7 129.2 245.3 131.7 243.6 136.3C243.5 136.5 243.5 136.7 243.5 136.9C243.5 136.9 243.6 136.8 243.7 136.8C249.2 136.4 255 135.7 260 133C260.2 132.9 260.4 132.8 260.5 132.6C260.4 132.6 260.4 132.6 260.3 132.5C259.1 132 257.7 131.9 256.4 132.1C256 132.2 255.7 131.9 255.6 131.5C255.5 131.1 255.8 130.8 256.1 130.7C258.4 130.1 260.7 129.1 262.6 127.7L262.7 127.6C262.6 127.6 262.5 127.6 262.4 127.6C260.1 127.9 257.8 128.5 255.7 129.5C255.3 129.6 254.9 129.5 254.8 129.1C254.7 128.8 254.8 128.5 255 128.3C256.2 127.3 257.3 126.2 258.2 124.9C258.3 124.7 258.4 124.4 258.4 124.2Z" fill="#282828"/>
<path d="M181.6 132C181.6 132 249.9 127 249.9 127.4C249.9 127.8 247.5 138.5 247.5 138.5C247.5 138.5 188.8 157.9 181.6 151.3C174.4 144.7 181.6 132 181.6 132Z" fill="#FF6262"/>
<path d="M401.8 393.8H98.2C97.8 393.8 97.5 393.5 97.5 393.1C97.5 392.7 97.8 392.4 98.2 392.4H401.7C402.1 392.4 402.4 392.7 402.4 393.1C402.4 393.5 402.1 393.8 401.8 393.8Z" fill="#F03C3C"/>
<path d="M160.401 404.6C160.301 404.6 160.101 404.6 160.001 404.6C158.501 404.4 157.401 403 157.601 401.4L193.701 148.7C194.001 147.2 195.401 146.2 197.001 146.4C198.401 146.7 199.401 148 199.301 149.4L163.201 402.1C163.001 403.5 161.801 404.6 160.401 404.6Z" fill="#282828"/>
<path d="M113 404.6C112.9 404.6 112.7 404.6 112.6 404.6C111.1 404.4 110 403 110.2 401.4L146.3 148.7C146.5 147.2 147.9 146.1 149.5 146.3C151.1 146.5 152.1 147.9 151.9 149.5L115.8 402.2C115.6 403.6 114.4 404.6 113 404.6Z" fill="#282828"/>
<path d="M162.9 372.3H117.6C116.1 372.3 114.8 371 114.8 369.5C114.8 368 116.1 366.7 117.6 366.7H162.9C164.4 366.7 165.7 368 165.7 369.5C165.7 371.1 164.4 372.3 162.9 372.3Z" fill="#282828"/>
<path d="M168.101 336H122.901C121.401 336 120.101 334.7 120.101 333.2C120.101 331.7 121.401 330.4 122.901 330.4H168.101C169.601 330.4 170.901 331.7 170.901 333.2C170.901 334.7 169.601 336 168.101 336Z" fill="#282828"/>
<path d="M173.3 299.6H128C126.5 299.6 125.2 298.3 125.2 296.8C125.2 295.3 126.5 294 128 294H173.2C174.7 294 176 295.3 176 296.8C176.1 298.3 174.8 299.6 173.3 299.6Z" fill="#282828"/>
<path d="M178.5 263.2H133.3C131.8 263.2 130.5 261.9 130.5 260.4C130.5 258.9 131.8 257.6 133.3 257.6H178.5C180 257.6 181.3 258.9 181.3 260.4C181.3 262 180 263.2 178.5 263.2Z" fill="#282828"/>
<path d="M183.701 226.9H138.401C136.901 226.9 135.601 225.6 135.601 224.1C135.601 222.6 136.901 221.3 138.401 221.3H183.701C185.201 221.3 186.501 222.6 186.501 224.1C186.501 225.6 185.201 226.9 183.701 226.9Z" fill="#282828"/>
<path d="M188.9 190.5H143.7C142.2 190.5 140.9 189.2 140.9 187.7C140.9 186.2 142.2 184.9 143.7 184.9H188.9C190.4 184.9 191.7 186.2 191.7 187.7C191.7 189.2 190.4 190.5 188.9 190.5Z" fill="#282828"/>
<path d="M209.3 174.8C210.7 170.7 212.1 166.6 213.5 162.5C214.3 160.4 215.1 158.3 216 156.2C216.9 153.5 219.7 151.8 222.5 152.2C225.8 152.6 229.1 153.3 232.4 153.8C234.2 154.2 235.9 154.4 237.8 154.5C239.1 154.5 240.4 154.1 241.5 153.3C245.3 149.7 248.9 145.9 252.6 142C253.8 140.6 254.3 138.6 253.7 136.8C252.8 132.8 251.9 128.8 251.1 124.8C250.7 123.2 250.6 121.6 250.7 120C250.8 118.8 251.4 117.8 252.3 117C258.4 113 265.1 109.9 272.2 107.9C274.3 107.2 276.7 108 277.9 109.9C280.4 113.4 283.1 116.8 285.5 120.3C287.4 123.1 289.9 124.5 293.3 124.3C297.7 124 302.1 123.9 306.5 123.7C308.1 123.6 309.6 122.7 310.5 121.3C312.1 119 313.5 116.6 315.1 114.2C316.4 112.2 317.7 110.2 319.1 108.2C320.3 106.1 322.9 105.2 325.2 106.1C331.3 108.2 337.4 110.4 343.4 112.7C345.9 113.7 346.9 116 346.7 118.6C346.4 122 345.6 125.3 345.1 128.7C344.8 130.3 344.6 131.9 344.5 133.5C344.2 135.6 345 137.6 346.5 139.1C349.7 142.1 353 145.1 356.1 148.3C357.9 150.2 360.7 151 363.2 150.3C367.6 149.4 371.9 148.3 376.2 147.4C379.6 146.7 382 147.7 383.5 150.9C386 156.1 388.4 161.3 390.7 166.6C392.4 170.4 391.8 172.7 388.5 175.3C386.3 177.1 383.9 178.6 381.6 180.3C380 181.5 378.3 182.8 376.8 184.1C375.5 185.2 374.7 186.9 374.8 188.6C374.9 193.2 375 197.7 375.2 202.3C375.3 204.8 376.7 207.1 378.8 208.4C381.3 209.9 383.8 211.3 386.3 212.8C387.8 213.7 389.3 214.7 390.8 215.8C392.9 217.2 393.8 220 392.8 222.3C390.8 227.8 388.8 233.3 386.7 238.7C386.4 239.5 385.9 240.3 385.4 241.1C384.4 242.9 382.3 243.9 380.3 243.5C376.3 242.9 372.4 242.2 368.4 241.5C368.1 241.4 367.8 241.4 367.5 241.4C363.8 240.5 360.9 241.7 358.4 244.6C356.2 247.2 353.6 249.6 351.3 252.1C349 254.3 348.2 257.6 349.1 260.7C350.1 264.5 351 268.4 351.8 272.3C352.6 276.4 351.8 278.2 348.1 280C342.7 282.6 337.3 285 331.8 287.3C328.8 288.6 326.6 288 324.6 285.4C322.6 282.8 320.6 279.9 318.6 277.2C314.4 271.2 313.3 270.7 306 271.1C303.1 271.2 300.3 271.4 297.4 271.6C294.6 271.6 292.1 273.1 290.7 275.5C289 278.4 287.3 281.3 285.5 284.1C284.5 285.6 283.4 286.9 282.2 288.2C281.1 289.5 279.3 290 277.7 289.4C271.9 287.3 266.2 285.1 260.4 282.9C259.6 282.6 258.9 282.1 258.2 281.6C256.4 280.6 255.4 278.5 255.8 276.5C256.4 272.6 257.1 268.7 257.7 264.8C257.9 263.6 258 262.4 258.1 261.2C258.3 259.2 257.6 257.3 256.1 255.9C253 253 249.9 250.1 246.7 247.2C244.9 245.4 242.3 244.8 239.9 245.5C236.1 246.5 232.2 247.3 228.3 248.2L227.9 248.3C222.9 249.2 221.2 248.6 219 243.9C216.6 238.8 214.4 233.5 212.2 228.2C210.9 225 211.4 223.1 214.3 221C217.4 218.7 220.5 216.4 223.7 214.3C226.9 212.5 228.8 208.9 228.4 205.2C228.1 201.1 228 197 227.8 192.9C227.8 191.2 226.9 189.5 225.4 188.6C222 186.4 218.5 184.3 215.1 182.1C212.9 180.7 210.6 179.2 209.7 176.5L209.3 174.8ZM339.9 197.7C339.9 176 322.5 158.8 300.6 158.7C282.6 158.6 262.2 174.4 262.2 197.8C262.3 219.1 279.5 236.4 300.8 236.6C325.9 236.6 341 214.9 339.9 197.7Z" fill="white"/>
<path d="M278.7 290.1C278.1 290.1 277.5 290 277 289.8L272.3 288C268.1 286.4 263.9 284.9 259.7 283.3C259 283 258.3 282.6 257.7 282.2L257.4 282C255.3 280.9 254.2 278.5 254.7 276.2L255.5 271C255.9 268.8 256.2 266.6 256.6 264.4C256.8 263.2 256.9 262.1 256.9 260.9C257.1 259.1 256.5 257.4 255.1 256.2C252.4 253.7 249.7 251.2 247 248.6L245.8 247.5C244.2 245.9 241.8 245.3 239.6 246C236.9 246.7 234.2 247.3 231.5 247.9L227.9 248.7L227.6 248.8C222.1 249.8 220.2 248.9 218 244C215.3 238.3 212.9 232.6 211.2 228.3C209.8 224.8 210.4 222.6 213.5 220.3C217.1 217.6 220.1 215.4 223 213.6C226 211.9 227.7 208.6 227.3 205.1C227.1 202.5 227 200 226.9 197.4C226.8 195.8 226.8 194.3 226.7 192.7C226.7 191.2 225.9 189.8 224.6 189L220.4 186.3C218.4 185 216.4 183.7 214.4 182.5C212.1 181 209.7 179.4 208.7 176.5C208.7 176.4 208.7 176.4 208.7 176.3V174.8C208.7 174.7 208.7 174.6 208.7 174.6L209.9 171.1C210.9 168.2 211.9 165.2 212.9 162.3C213.7 160.1 214.6 157.9 215.4 156C216.4 153 219.5 151.1 222.6 151.6C224.8 151.8 227 152.2 229.2 152.6C230.3 152.8 231.4 153 232.6 153.2L233.9 153.4C235.2 153.7 236.5 153.8 237.8 153.9C239 153.9 240.1 153.6 241 152.9C245.1 149 248.9 145 252 141.7C253.1 140.4 253.5 138.7 253 137.1C252.6 135.3 252.2 133.5 251.8 131.8C251.3 129.6 250.8 127.3 250.3 125.1C249.9 123.5 249.7 121.8 249.9 120.1C250 118.7 250.7 117.4 251.8 116.5C258 112.5 264.7 109.4 271.9 107.4C274.3 106.6 276.9 107.6 278.3 109.7L281 113.4C282.6 115.6 284.4 117.9 285.9 120.2C287.8 123 290 124.1 293.1 123.9C296 123.7 298.9 123.6 301.7 123.5L306.4 123.3C307.8 123.2 309.1 122.4 309.8 121.2C310.7 119.8 311.6 118.4 312.5 117C313.1 116 313.7 115.1 314.4 114.1L315.1 113.1C316.2 111.4 317.3 109.7 318.5 108.1C319.9 105.8 322.8 104.8 325.4 105.8C332.7 108.3 338.3 110.4 343.6 112.4C346.2 113.4 347.6 115.9 347.3 119C347.1 121.3 346.7 123.5 346.3 125.7C346.1 126.8 345.9 128 345.7 129.1C345.5 130.6 345.2 132.2 345.1 133.8C344.9 135.7 345.6 137.5 346.9 138.8L349.2 140.9C351.6 143.2 354.1 145.5 356.5 147.9C358.1 149.7 360.7 150.4 363 149.7C365.1 149.2 367.2 148.7 369.4 148.3C371.6 147.9 373.8 147.3 376 146.8C379.8 146 382.5 147.2 384.1 150.7C386.6 155.9 389 161.2 391.3 166.4C393.1 170.5 392.4 173.1 388.8 175.9C387.5 177 386.1 177.9 384.7 178.9C383.7 179.6 382.8 180.2 381.8 180.9C380 182.2 378.5 183.4 377 184.7C375.8 185.7 375.1 187.2 375.2 188.7L375.3 191.5C375.4 195.1 375.5 198.7 375.6 202.3C375.7 204.6 376.9 206.7 378.9 207.8C379.9 208.4 381 209 382.1 209.7C383.6 210.6 385 211.4 386.4 212.3C388 213.2 389.5 214.3 390.9 215.4C393.3 217 394.3 220.1 393.1 222.7C391.2 227.9 389.2 233.3 387 239.1C386.7 239.9 386.2 240.7 385.7 241.4L385.6 241.6C384.4 243.6 382.1 244.7 379.8 244.3L371.8 243L367.7 242.3H367C363.6 241.5 361 242.5 358.6 245.2C357 247.1 355.3 248.8 353.6 250.5C352.9 251.2 352.1 252 351.4 252.7C349.3 254.8 348.5 257.8 349.4 260.6C350.3 264.3 351.3 268.2 352.1 272.2C353 276.7 352 278.7 348 280.6C343.1 283 337.8 285.4 331.7 288C328.5 289.4 325.9 288.7 323.7 285.9C321.9 283.7 320.3 281.4 318.7 279.1L317.7 277.6C313.6 271.8 312.8 271.4 305.7 271.8L300.8 272.1L297.1 272.3C294.6 272.3 292.2 273.7 290.9 275.9C290.3 276.9 289.8 277.8 289.2 278.8C288.1 280.7 286.9 282.7 285.7 284.5C284.7 286 283.6 287.4 282.3 288.7C281.5 289.5 280.1 290.1 278.7 290.1ZM241.6 244.3C243.5 244.3 245.4 245.1 246.8 246.4L248 247.5C250.7 250 253.4 252.6 256.1 255.1C257.7 256.6 258.5 258.8 258.3 260.9C258.2 262.1 258.1 263.3 257.9 264.6C257.6 266.8 257.2 269 256.8 271.2C256.5 272.9 256.2 274.6 256 276.3C255.7 278.1 256.5 279.9 258.1 280.7L258.4 280.9C258.9 281.3 259.5 281.6 260.2 281.9C264.4 283.5 268.6 285 272.8 286.6L277.5 288.4C278.8 288.9 280.4 288.5 281.3 287.4C282.5 286.2 283.6 284.8 284.5 283.4C285.7 281.5 286.9 279.6 288 277.7C288.6 276.7 289.1 275.8 289.7 274.8C291.2 272.2 294 270.6 297 270.6L300.7 270.4L305.6 270.1C313.2 269.7 314.4 270.3 318.8 276.5L319.8 278C321.4 280.2 323 282.6 324.8 284.7C326.7 287 328.5 287.5 331.2 286.4C337.3 283.8 342.6 281.4 347.5 279.1C350.9 277.5 351.6 276 350.8 272.2C350 268.4 349 264.3 348.1 260.7C347.1 257.4 348 253.9 350.5 251.5C351.2 250.7 352 250 352.7 249.3C354.4 247.6 356.1 245.9 357.6 244.1C360.3 240.9 363.5 239.8 367.4 240.7C367.6 240.7 367.7 240.8 367.9 240.8L368.3 240.9L372.1 241.5L380.1 242.8C381.9 243.1 383.7 242.3 384.5 240.7L384.6 240.5C385.1 239.9 385.4 239.2 385.7 238.5C387.9 232.6 389.9 227.3 391.8 222.1C392.7 220 391.9 217.6 390 216.4C388.6 215.3 387.1 214.3 385.6 213.4C384.2 212.5 382.7 211.7 381.3 210.8C380.2 210.2 379.2 209.6 378.1 208.9C375.7 207.5 374.2 205 374.1 202.3C373.9 198.7 373.9 195 373.8 191.4L373.7 188.6C373.6 186.7 374.5 184.8 376 183.5C377.5 182.2 379.1 180.9 380.9 179.6C381.9 178.9 382.8 178.2 383.8 177.5C385.2 176.6 386.5 175.6 387.8 174.6C390.9 172.2 391.4 170.2 389.8 166.7C387.5 161.5 385.1 156.2 382.6 151C381.2 148.2 379.2 147.2 376.1 147.9C373.9 148.4 371.7 148.9 369.5 149.4C367.3 149.9 365.2 150.4 363.1 150.8C360.3 151.6 357.3 150.7 355.3 148.6C352.9 146.2 350.4 143.9 348 141.6L345.7 139.5C344 137.9 343.2 135.6 343.5 133.4C343.6 131.8 343.9 130.1 344.1 128.6C344.3 127.5 344.5 126.3 344.7 125.2C345.1 123 345.5 120.8 345.7 118.6C345.9 116.1 344.9 114.2 342.9 113.4C337.6 111.4 332 109.4 324.7 106.8C322.7 106.1 320.5 106.8 319.4 108.6C318.2 110.2 317.1 111.9 316 113.6L315.3 114.6C314.7 115.5 314.1 116.5 313.4 117.4C312.5 118.8 311.6 120.2 310.7 121.6C309.7 123.2 308 124.2 306.2 124.3C304.7 124.4 303.1 124.4 301.5 124.5C298.7 124.6 295.8 124.7 293 124.9C289.4 125.2 286.7 123.8 284.5 120.7C282.9 118.4 281.3 116.1 279.6 113.9C278.7 112.7 277.8 111.5 276.9 110.2C275.9 108.5 273.8 107.8 272 108.4C265 110.4 258.4 113.4 252.3 117.4C251.6 118.1 251.1 119 251.1 119.9C251 121.4 251.2 123 251.5 124.5C252 126.7 252.5 129 253 131.2C253.4 133 253.8 134.8 254.2 136.5C254.8 138.6 254.3 140.8 252.9 142.4C249.7 145.8 245.9 149.8 241.8 153.7C240.6 154.6 239.1 155.1 237.6 155.1C236.2 155.1 234.8 154.9 233.4 154.6C233 154.5 232.5 154.4 232.1 154.4L228.7 153.8C226.6 153.4 224.4 153 222.2 152.8C219.7 152.4 217.2 153.9 216.4 156.4C215.6 158.3 214.7 160.5 213.9 162.6C212.9 165.5 211.9 168.5 210.9 171.4L209.8 174.8V176.1C210.6 178.5 212.7 179.8 214.8 181.2C216.9 182.6 218.9 183.8 220.9 185.1L225.2 187.8C226.9 188.9 227.9 190.7 227.9 192.6C228 194.2 228 195.7 228.1 197.3C228.2 199.8 228.3 202.4 228.5 204.9C228.9 208.9 227 212.7 223.5 214.6C220.6 216.5 217.6 218.6 214.1 221.2C211.5 223.2 211 224.7 212.2 227.6C214 231.9 216.3 237.6 219 243.3C221 247.5 222.3 248.2 227.1 247.3H227.3L227.5 247.2L231 246.4C233.7 245.8 236.4 245.2 239.1 244.5C240 244.5 240.8 244.4 241.6 244.3ZM301 237.2C279.2 237.2 261.5 219.5 261.6 197.7C261.6 187.2 265.8 177.1 273.3 169.8C280.8 162.4 290.9 157.9 300.5 157.9H300.7C323.1 158 340.7 175.4 340.7 197.6C341.3 207 337.3 217.1 330.1 224.8C322.5 232.8 312 237.3 301 237.2ZM300.5 159.4C291.3 159.4 281.5 163.7 274.2 170.9C267 178 262.9 187.7 263 197.8C263 218.8 280 235.8 300.9 235.9H301C311.6 236 321.7 231.6 329 223.9C336 216.5 339.8 206.7 339.2 197.8C339.2 176.4 322.3 159.6 300.6 159.5L300.5 159.4Z" fill="#282828"/>
<path d="M346.8 292.8C347.2 291.6 347.6 290.3 348.1 289.1C348.3 288.5 348.6 287.8 348.8 287.2C349.1 286.4 349.9 285.9 350.8 286C351.8 286.1 352.8 286.3 353.8 286.5C354.3 286.6 354.9 286.7 355.4 286.7C355.8 286.7 356.2 286.6 356.5 286.3C357.6 285.2 358.7 284.1 359.8 282.9C360.2 282.5 360.3 281.9 360.1 281.3C359.8 280.1 359.6 278.9 359.3 277.7C359.2 277.2 359.1 276.8 359.2 276.3C359.2 275.9 359.4 275.6 359.7 275.4C361.5 274.2 363.5 273.3 365.7 272.7C366.3 272.5 367 272.8 367.4 273.3C368.2 274.3 368.9 275.3 369.7 276.4C370.2 277.2 371.1 277.7 372 277.6C373.3 277.5 374.6 277.5 376 277.4C376.5 277.4 376.9 277.1 377.2 276.7C377.7 276 378.1 275.3 378.6 274.6C379.1 273.9 379.4 273.4 379.8 272.8C380.2 272.2 380.9 271.9 381.6 272.2C383.4 272.8 385.2 273.5 387.1 274.2C387.8 274.5 388.2 275.2 388.1 276C388 277 387.8 278 387.6 279C387.5 279.5 387.5 280 387.4 280.4C387.3 281 387.6 281.6 388 282.1C389 283 389.9 283.9 390.9 284.8C391.4 285.4 392.3 285.6 393 285.4C394.3 285.1 395.6 284.8 396.9 284.5C397.8 284.2 398.7 284.6 399.1 285.5C399.8 287 400.6 288.6 401.2 290.2C401.7 291.1 401.5 292.2 400.6 292.7C400.6 292.7 400.5 292.7 400.5 292.8C399.8 293.3 399.1 293.8 398.4 294.3C397.9 294.7 397.4 295.1 397 295.4C396.6 295.7 396.4 296.2 396.4 296.8C396.4 298.2 396.4 299.5 396.5 300.9C396.5 301.7 396.9 302.3 397.6 302.7C398.3 303.2 399.1 303.6 399.8 304C400.3 304.3 400.7 304.6 401.1 304.9C401.8 305.3 402 306.2 401.7 306.9C401.1 308.5 400.5 310.2 399.9 311.8C399.8 312 399.7 312.3 399.5 312.5C399.2 313 398.6 313.3 398 313.2L394.5 312.6H394.2C393.2 312.3 392.1 312.7 391.5 313.6C390.8 314.4 390.1 315.1 389.4 315.8C388.7 316.5 388.5 317.5 388.7 318.4C389 319.5 389.3 320.7 389.5 321.9C389.9 322.8 389.4 323.8 388.6 324.1C388.5 324.1 388.5 324.1 388.4 324.2C386.8 325 385.2 325.7 383.5 326.4C382.7 326.8 381.8 326.6 381.3 325.8C380.7 325 380.1 324.2 379.5 323.3C378.2 321.5 377.9 321.3 375.7 321.5C374.8 321.5 374 321.6 373.1 321.6C372.3 321.6 371.5 322.1 371.1 322.8C370.6 323.7 370.1 324.5 369.5 325.4C369.2 325.8 368.9 326.2 368.5 326.6C368.2 327 367.6 327.1 367.1 327C365.4 326.4 363.6 325.7 361.9 325.1C361.7 325 361.4 324.9 361.2 324.7C360.7 324.4 360.4 323.8 360.5 323.2C360.7 322 360.9 320.9 361.1 319.7C361.1 319.3 361.2 319 361.2 318.6C361.3 318 361 317.4 360.6 317C359.7 316.1 358.7 315.3 357.8 314.4C357.3 313.9 356.5 313.7 355.8 313.9C354.7 314.2 353.5 314.4 352.3 314.7H352.2C350.7 315 350.2 314.8 349.6 313.4C349 312 348.2 310.3 347.6 308.7C347.2 308 347.4 307 348.2 306.6C348.2 306.6 348.2 306.6 348.3 306.6C349.2 305.9 350.2 305.2 351.1 304.6C352.1 304 352.6 303 352.5 301.9C352.4 300.7 352.4 299.4 352.3 298.2C352.3 297.7 352 297.2 351.6 296.9C350.6 296.3 349.5 295.6 348.5 294.9C347.8 294.5 347.2 294 346.9 293.2L346.8 292.8ZM385.9 299.6C385.9 293.2 380.7 287.9 374.3 287.9H374.2C367.9 288.1 362.8 293.2 362.7 299.6C362.7 306 367.9 311.2 374.3 311.2C380.7 311.3 385.9 306.2 386 299.8C385.9 299.8 385.9 299.7 385.9 299.6Z" fill="#F03C3C"/>
<path d="M367.6 327.8C367.4 327.8 367.1 327.8 366.9 327.7L365.6 327.2C364.3 326.7 363 326.2 361.7 325.8C361.5 325.7 361.2 325.6 361 325.4C360.2 325 359.7 324 359.9 323.1L360.1 321.6C360.2 320.9 360.3 320.3 360.4 319.6C360.5 319.3 360.5 318.9 360.5 318.6C360.5 318.2 360.4 317.9 360.1 317.6C359.3 316.9 358.5 316.1 357.7 315.4L357.3 315C356.9 314.6 356.4 314.5 355.9 314.7L353.5 315.3L352.4 315.5H352.2C350.4 315.8 349.6 315.4 348.8 313.8C348 312.2 347.3 310.4 346.8 309.1C346.2 308 346.6 306.7 347.7 306.1C348.8 305.3 349.7 304.6 350.6 304.1C351.3 303.7 351.8 302.9 351.7 302C351.7 301.2 351.6 300.4 351.6 299.7L351.5 298.3C351.5 298 351.3 297.7 351.1 297.6L349.8 296.8L347.9 295.6C347 295.2 346.4 294.4 346 293.6C346 293.5 346 293.5 346 293.4V292.9C346 292.8 346 292.7 346 292.7L346.4 291.5C346.7 290.7 347 289.9 347.3 289C347.5 288.4 347.8 287.7 348.1 287.1C348.5 286 349.6 285.3 350.8 285.5C351.5 285.6 352.1 285.7 352.8 285.8L353.8 286L354.2 286.1C354.6 286.2 354.9 286.2 355.3 286.2C355.5 286.2 355.7 286.1 355.9 286C357.1 284.9 358.2 283.7 359.2 282.7C359.4 282.4 359.5 282.1 359.4 281.8C359.3 281.3 359.2 280.7 359 280.2C358.8 279.7 358.7 278.9 358.6 278.2C358.5 277.7 358.4 277.1 358.5 276.6C358.5 276 358.8 275.5 359.3 275.2C361.2 274 363.3 273 365.4 272.4C366.3 272.1 367.3 272.5 367.8 273.3L368.6 274.4C369.1 275.1 369.6 275.7 370.1 276.4C370.4 277 371.1 277.4 371.8 277.3C372.7 277.2 373.5 277.2 374.4 277.2L375.8 277.1C376.1 277.1 376.3 276.9 376.4 276.7C376.7 276.3 376.9 275.9 377.2 275.5L378 274.4C378.3 273.9 378.7 273.4 379 272.9C379.6 272 380.6 271.7 381.6 272C383.8 272.8 385.5 273.4 387.1 274C388.1 274.4 388.7 275.4 388.5 276.5C388.4 277.2 388.3 277.9 388.2 278.5C388.1 278.8 388.1 279.2 388 279.5C387.9 280 387.9 280.4 387.8 280.9C387.7 281.3 387.9 281.7 388.2 282L388.9 282.6C389.6 283.3 390.4 284 391.1 284.7C391.5 285.1 392.1 285.3 392.6 285.1L394.5 284.7C395.2 284.5 395.8 284.4 396.5 284.2C397.7 283.8 399 284.4 399.5 285.6C400.3 287.2 401 288.7 401.7 290.3C402.4 291.5 402 293 400.8 293.7C400.4 294 400 294.3 399.5 294.6L398.7 295.2C398.2 295.6 397.7 295.9 397.3 296.3C397.1 296.5 396.9 296.8 396.9 297.1V297.9C396.9 299 396.9 300.1 397 301.2C397 301.7 397.3 302.2 397.8 302.4L398.7 302.9L400 303.7C400.5 304 401 304.3 401.4 304.7C402.3 305.3 402.6 306.4 402.2 307.5C401.6 309.1 401 310.8 400.3 312.4C400.2 312.7 400 312.9 399.9 313.2C399.4 314 398.5 314.4 397.6 314.3L394.1 313.7L393.8 313.6C393 313.4 392.2 313.7 391.8 314.3C391.3 314.9 390.8 315.4 390.3 315.9L389.7 316.6C389.2 317.1 389 317.8 389.2 318.5C389.5 319.7 389.8 320.8 390 322C390.5 323.2 389.8 324.6 388.6 325H388.5C387 325.7 385.4 326.4 383.6 327.2C382.5 327.7 381.3 327.4 380.6 326.4C380.1 325.7 379.6 325 379.1 324.4L378.8 323.9C377.7 322.3 377.6 322.3 375.6 322.4L373 322.5C372.4 322.5 371.9 322.8 371.6 323.3L371.1 324.2C370.7 324.8 370.4 325.4 370 325.9C369.7 326.4 369.3 326.8 368.9 327.2C368.6 327.6 368.1 327.8 367.6 327.8ZM356.5 313.1C357.2 313.1 357.9 313.4 358.4 313.9L358.8 314.3C359.6 315.1 360.4 315.8 361.2 316.5C361.8 317 362.1 317.8 362 318.6C362 319 361.9 319.4 361.9 319.7L361.6 321.7L361.4 323.2C361.4 323.5 361.4 323.7 361.8 324C362 324.1 362.1 324.2 362.3 324.3C363.6 324.8 364.9 325.3 366.2 325.7L367.5 326.2C367.7 326.3 368 326.2 368.1 326C368.4 325.7 368.7 325.3 369 324.9C369.4 324.3 369.7 323.8 370 323.2L370.5 322.3C371 321.4 372 320.8 373.1 320.8L375.7 320.7C378.1 320.6 378.7 320.8 380.1 322.8L380.4 323.3C380.9 324 381.3 324.6 381.9 325.3C382.2 325.8 382.8 325.9 383.2 325.7C385 324.9 386.6 324.2 388 323.5C388.8 323.1 388.9 322.9 388.7 322C388.5 320.9 388.2 319.7 387.9 318.6C387.6 317.5 387.9 316.2 388.7 315.4L389.4 314.7C389.9 314.2 390.4 313.7 390.9 313.2C391.7 312.1 393 311.6 394.3 312H394.5L398 312.6C398.3 312.7 398.7 312.5 398.8 312.2C398.9 312 399 311.8 399.1 311.6C399.7 310 400.3 308.3 400.9 306.7C401.1 306.3 400.9 305.8 400.5 305.5C400.1 305.2 399.7 304.9 399.2 304.6L397.9 303.8L396.9 303.2C396 302.7 395.5 301.8 395.5 300.8C395.5 299.7 395.4 298.6 395.4 297.5V296.7C395.4 296 395.7 295.3 396.3 294.8C396.8 294.4 397.3 294 397.8 293.6L398.7 293C399.1 292.7 399.5 292.4 399.9 292.1C400.7 291.5 400.7 291.2 400.4 290.3C399.7 288.7 399 287.2 398.3 285.6C398.1 285 397.5 284.7 397 284.9H396.9L394.9 285.4L393 285.8C392 286.1 390.9 285.8 390.2 285C389.5 284.3 388.8 283.6 388 282.9L387.3 282.3C386.7 281.7 386.4 280.9 386.5 280.1C386.5 279.6 386.6 279.1 386.7 278.6C386.8 278.3 386.8 277.9 386.9 277.6C387 277 387.1 276.3 387.2 275.7C387.3 275.3 387.1 274.9 386.7 274.7C385.1 274.1 383.5 273.5 381.3 272.7C380.9 272.6 380.5 272.7 380.3 273.1C380 273.6 379.6 274.1 379.3 274.6L378.5 275.8C378.2 276.2 378 276.7 377.7 277.1C377.3 277.7 376.7 278.1 376 278.1L374.6 278.2C373.7 278.2 372.9 278.3 372.1 278.3C370.9 278.4 369.7 277.9 369.1 276.8C368.6 276.1 368.1 275.5 367.7 274.8L366.9 273.7C366.7 273.4 366.3 273.2 365.9 273.3C363.9 273.9 361.9 274.8 360.2 275.9C360.1 276 360.1 276.1 360.1 276.3C360.1 276.7 360.1 277.1 360.2 277.5C360.3 278.2 360.5 278.8 360.6 279.5C360.7 280.2 360.8 280.6 361 281.1C361.2 281.9 361 282.7 360.5 283.3C359.5 284.3 358.4 285.5 357.2 286.7C356.8 287.1 356.2 287.2 355.6 287.2C355.1 287.2 354.7 287.1 354.2 287.1L353.8 287L352.8 286.8C352.2 286.7 351.5 286.6 350.9 286.5C350.4 286.4 349.8 286.7 349.7 287.3C349.4 287.9 349.2 288.5 349 289.1C348.7 289.9 348.4 290.7 348.2 291.6L347.8 292.9C348.1 293.4 348.5 293.8 349.1 294.1L350.9 295.3L352.2 296.1C352.8 296.5 353.2 297.2 353.2 297.9L353.3 299.3C353.3 300.1 353.4 300.8 353.4 301.6C353.5 303 352.9 304.3 351.7 305C350.8 305.5 350 306.2 348.9 307C348.3 307.5 348.2 307.7 348.5 308.3C349 309.6 349.7 311.3 350.5 313C351 314.1 351.2 314.1 352.4 313.9L353.6 313.6L356 313.1C355.9 313.1 356.2 313.1 356.5 313.1ZM374.2 311.9C367.4 311.9 361.9 306.4 361.9 299.6C361.9 296.3 363.2 293.2 365.5 290.9C367.8 288.6 370.8 287.3 374 287.2C380.8 287.1 386.4 292.6 386.4 299.4C386.4 299.5 386.4 299.5 386.4 299.6C386.5 302.8 385.3 305.8 383.1 308.1C381 310.6 377.7 312 374.2 311.9ZM374.1 288.6C371.3 288.7 368.6 289.9 366.6 291.9C362.3 296.1 362.3 303 366.5 307.3C368.5 309.4 371.3 310.5 374.2 310.5C377.2 310.5 380.1 309.3 382.2 307.1C384.1 305.1 385.2 302.4 385.1 299.6C385.1 293.6 380.3 288.6 374.2 288.6C374.2 288.7 374.1 288.7 374.1 288.6Z" fill="#282828"/>
<path d="M232 340.3C232.7 337.5 233.4 334.7 234.1 331.9C234.5 330.5 234.9 329 235.4 327.6C235.9 325.8 237.6 324.5 239.5 324.6C241.7 324.7 243.9 324.9 246.1 325.1C247.3 325.3 248.5 325.3 249.7 325.2C250.6 325.1 251.4 324.8 252.1 324.2C254.4 321.6 256.6 318.9 258.8 316.1C259.5 315.1 259.7 313.7 259.3 312.6C258.5 310 257.6 307.4 256.9 304.8C256.6 303.8 256.4 302.7 256.3 301.7C256.3 300.9 256.6 300.2 257.2 299.6C261 296.6 265.3 294.2 269.8 292.5C271.2 291.9 272.8 292.3 273.7 293.5C275.6 295.7 277.5 297.7 279.3 300C280.5 301.7 282.6 302.6 284.7 302.2C287.6 301.7 290.5 301.4 293.4 301.1C294.5 300.9 295.4 300.3 295.9 299.3C296.8 297.7 297.7 296 298.5 294.4C299.3 293 300 291.6 300.8 290.2C301.5 288.8 303.1 288 304.7 288.5C308.8 289.5 313 290.6 317.1 291.8C318.7 292.3 319.8 293.8 319.6 295.5C319.6 297.7 319.3 300 319.1 302.3C319 303.4 319 304.4 319 305.5C319 306.9 319.6 308.2 320.7 309.1C323 310.9 325.3 312.7 327.5 314.6C328.8 315.8 330.7 316.1 332.3 315.5C335.1 314.6 337.9 313.7 340.8 312.8C342.7 312 344.9 312.8 345.8 314.7C347.7 318 349.6 321.3 351.4 324.7C352.7 327.1 352.4 328.7 350.4 330.6C349 331.9 347.5 333.1 346.1 334.3C345.1 335.2 344.1 336.1 343.1 337.1C342.3 337.9 341.9 339.1 342 340.2C342.3 343.2 342.6 346.2 343 349.2C343.2 350.9 344.2 352.3 345.8 353C347.5 353.9 349.3 354.6 351 355.5C352.1 356 353.1 356.6 354.1 357.2C355.6 358 356.3 359.8 355.8 361.4C354.8 365.1 353.7 368.9 352.7 372.6C352.5 373.2 352.3 373.7 351.9 374.2C351.3 375.5 350 376.2 348.7 376.1C346.1 375.9 343.4 375.7 340.8 375.5C340.6 375.5 340.4 375.5 340.2 375.5C337.9 375.1 335.6 376.1 334.4 378.1C333.1 380 331.5 381.7 330.1 383.5C328.7 385.1 328.3 387.3 329.1 389.3C330 391.8 330.8 394.3 331.5 396.8C332.2 399.3 331.9 400.7 329.5 402.1C326.1 404.1 322.6 406 319.2 407.9C317.6 409 315.5 408.6 314.3 407.1C312.8 405.5 311.3 403.7 309.8 402C306.7 398.3 305.9 398 301.1 398.7C299.2 399 297.3 399.2 295.5 399.5C293.7 399.7 292.1 400.8 291.3 402.5C290.3 404.5 289.4 406.5 288.3 408.5C287.7 409.5 287.1 410.5 286.3 411.4C285.6 412.3 284.5 412.7 283.4 412.4C279.5 411.3 275.5 410.2 271.6 409.1C271.1 408.9 270.6 408.6 270.2 408.3C268.9 407.7 268.2 406.4 268.3 405.1C268.5 402.5 268.7 399.9 268.9 397.3C268.9 396.5 268.9 395.7 268.9 394.9C268.9 393.6 268.3 392.3 267.3 391.5C265.1 389.8 262.8 388 260.6 386.3C259.3 385.2 257.6 385 256 385.6C253.5 386.4 251 387.2 248.5 388C248.4 388 248.3 388.1 248.2 388.1C244.9 389 243.8 388.7 242.1 385.7C240.2 382.4 238.4 379.1 236.7 375.7C235.7 373.6 235.9 372.4 237.7 370.8C239.5 369.2 241.5 367.4 243.6 365.8C245.6 364.4 246.6 361.9 246.1 359.5C245.7 356.8 245.4 354.1 245 351.4C244.9 350.2 244.2 349.2 243.2 348.7C240.8 347.5 238.4 346.2 236 345C234.4 344.2 232.9 343.4 232.1 341.6V340.3H232ZM319.5 348C318.3 333.8 305.8 323.2 291.6 324.4C291.5 324.4 291.4 324.4 291.3 324.4C279.4 325.4 266.8 336.9 268.2 352.4C269.5 366.5 281.8 376.9 296 375.8C312.5 374.5 321.2 359.3 319.5 348Z" fill="#FF6262"/>
<path d="M284.1 412.8C283.8 412.8 283.5 412.8 283.1 412.7L279.9 411.8C277 411 274.2 410.2 271.3 409.4C270.8 409.2 270.3 409 269.8 408.7L269.6 408.6C268.1 407.9 267.2 406.3 267.3 404.7L267.6 401.2C267.7 399.8 267.8 398.3 267.9 396.9C267.9 396.1 267.9 395.4 267.9 394.6C267.9 393.5 267.4 392.4 266.6 391.7C264.6 390.2 262.6 388.6 260.6 387L259.9 386.5C258.8 385.6 257.3 385.4 256 385.9C254.2 386.5 252.5 387.1 250.7 387.6L248.5 388.3L248.2 388.4C244.6 389.4 243.1 388.8 241.3 385.7C239.2 382.1 237.3 378.5 235.9 375.7C234.7 373.4 235 371.8 237 370C239.2 368 241.1 366.4 242.9 365C244.7 363.8 245.6 361.5 245.2 359.4C244.9 357.7 244.7 356 244.5 354.3C244.4 353.3 244.2 352.3 244.1 351.3C244 350.4 243.5 349.5 242.6 349.1C241.6 348.6 240.6 348.1 239.6 347.6C238.2 346.9 236.8 346.1 235.4 345.4C233.7 344.5 232 343.6 231.2 341.6C231.2 341.5 231.1 341.5 231.1 341.4L231 340.4C231 340.3 231 340.2 231 340.1L231.6 337.6C232.1 335.6 232.6 333.7 233.1 331.7C233.5 330.2 233.9 328.7 234.4 327.4C235 325.3 236.9 323.9 239 323.9H239.1C240.6 323.9 242.1 324.1 243.5 324.2C244.3 324.3 245 324.3 245.8 324.4L246.7 324.5C247.5 324.6 248.4 324.6 249.3 324.6C250 324.6 250.7 324.3 251.2 323.8C253.6 321 255.9 318.2 257.8 315.8C258.4 315 258.5 313.9 258.1 312.9C257.8 311.8 257.4 310.6 257 309.5C256.5 308 256.1 306.6 255.6 305.1C255.2 304 255 302.9 255 301.8C255 300.8 255.4 299.8 256.1 299.2C260 296.2 264.3 293.7 268.9 292C270.5 291.3 272.4 291.8 273.5 293.2C274.1 294 274.8 294.7 275.5 295.4C276.7 296.8 278 298.2 279.1 299.6C280.2 301.1 282 301.9 283.9 301.5C285.8 301.2 287.7 301 289.5 300.7C290.5 300.6 291.5 300.5 292.6 300.3C293.5 300.2 294.2 299.6 294.6 298.8C295.1 297.8 295.6 296.9 296.2 295.9C296.6 295.2 296.9 294.6 297.3 293.9L297.7 293.1C298.3 291.9 298.9 290.8 299.6 289.6C300.5 287.9 302.4 287.1 304.3 287.6C309.3 288.9 313.1 289.9 316.7 290.9C318.6 291.5 319.9 293.3 319.7 295.3C319.7 296.8 319.5 298.3 319.4 299.8C319.3 300.6 319.3 301.3 319.2 302.1C319.1 303.1 319.1 304.2 319.1 305.2C319.1 306.4 319.6 307.5 320.5 308.2L322.1 309.5C323.8 310.9 325.6 312.3 327.4 313.8C328.5 314.8 330.1 315.1 331.6 314.6C333 314.2 334.4 313.7 335.7 313.3C337 312.9 338.6 312.4 340 311.9C342.6 311.1 344.5 311.8 345.8 314.1C347.7 317.4 349.6 320.7 351.4 324.1C352.9 326.8 352.5 328.7 350.3 330.8C349.5 331.6 348.6 332.3 347.8 333C347.2 333.5 346.6 334 346 334.5C344.9 335.5 344 336.4 343.1 337.3C342.4 338 342.1 338.9 342.2 339.8L342.4 341.6C342.7 344 342.9 346.4 343.2 348.8C343.3 350.2 344.3 351.5 345.6 352C346.3 352.4 347.1 352.7 347.8 353C348.8 353.5 349.8 354 350.8 354.5C351.9 355 353 355.6 354 356.3C355.8 357.3 356.6 359.4 356 361.3C355 365.1 353.9 368.8 352.9 372.5C352.7 373.1 352.5 373.6 352.2 374.1L352.1 374.2C351.4 375.7 349.8 376.6 348.2 376.4L342.7 376L340 375.8H339.5C337.5 375.4 335.4 376.4 334.4 378.1C333.5 379.4 332.4 380.7 331.4 381.9C331 382.4 330.5 382.9 330.1 383.5C328.9 384.9 328.6 386.9 329.2 388.6C330 391 330.9 393.5 331.7 396.1C332.6 399.1 332 400.6 329.4 402.2C326.3 404 322.9 405.9 319 408C317.1 409.2 314.6 408.8 313.3 407C312 405.6 310.8 404.2 309.6 402.8L308.8 401.9C305.8 398.4 305.3 398.2 300.7 398.8L297.5 399.3L295.1 399.6C293.5 399.7 292.1 400.7 291.4 402.2L290.4 404.2C289.8 405.5 289.1 406.9 288.4 408.2C287.8 409.3 287.2 410.3 286.4 411.2C286.1 412.3 285.1 412.8 284.1 412.8ZM257.6 384.2C258.8 384.2 259.9 384.6 260.9 385.4L261.6 385.9C263.6 387.5 265.6 389 267.6 390.6C268.8 391.5 269.5 393 269.5 394.5C269.5 395.3 269.5 396.1 269.5 397C269.4 398.5 269.3 399.9 269.2 401.3C269.1 402.5 269 403.7 268.9 404.8C268.8 405.9 269.4 406.9 270.4 407.4L270.6 407.5C271 407.7 271.4 407.9 271.8 408C274.7 408.8 277.5 409.6 280.4 410.4L283.6 411.3C284.4 411.5 285.3 411.2 285.8 410.5C286.5 409.6 287.1 408.7 287.7 407.7C288.4 406.4 289 405.1 289.7 403.8C290 403.1 290.3 402.4 290.7 401.8C291.6 399.9 293.4 398.7 295.4 398.4L297.8 398L301 397.5C306 396.8 307 397.2 310.3 401.1L311.1 402C312.3 403.4 313.5 404.8 314.7 406.2C315.6 407.5 317.4 407.8 318.7 406.9C322.5 404.9 325.9 403 329 401.1C331.1 399.9 331.4 399 330.7 396.6C329.9 394 329.1 391.5 328.3 389.1C327.4 386.9 327.9 384.4 329.4 382.6C329.8 382.1 330.3 381.5 330.7 381C331.7 379.8 332.7 378.5 333.7 377.3C335.1 375.1 337.6 373.9 340.2 374.4C340.3 374.4 340.4 374.4 340.5 374.4L343.2 374.6L348.7 375C349.8 375.1 350.8 374.5 351.3 373.5L351.4 373.4C351.7 373 351.9 372.5 352 372.1C353.1 368.4 354.1 364.6 355.1 360.9C355.5 359.6 354.9 358.1 353.7 357.5C352.7 356.9 351.7 356.3 350.6 355.8C349.6 355.3 348.6 354.8 347.6 354.3L345.4 353.3C343.7 352.5 342.5 350.9 342.3 349C342 346.6 341.7 344.2 341.5 341.8L341.3 340C341.1 338.6 341.6 337.3 342.6 336.3C343.5 335.4 344.5 334.4 345.6 333.4C346.2 332.9 346.8 332.4 347.4 331.9C348.2 331.2 349.1 330.5 349.9 329.7C351.7 328 351.9 326.8 350.8 324.7C349 321.4 347.1 318 345.2 314.7C344.5 313.1 342.6 312.4 341 313.1C339.6 313.5 338.1 314 336.7 314.5L332.5 315.8C330.6 316.5 328.5 316.1 327 314.7C325.3 313.2 323.5 311.8 321.8 310.5L320.2 309.3C318.9 308.3 318.2 306.8 318.3 305.2C318.3 304.1 318.4 303 318.4 302C318.5 301.2 318.5 300.5 318.6 299.7C318.7 298.2 318.9 296.7 318.9 295.3C319 294 318.2 292.7 316.9 292.3C313.3 291.3 309.5 290.3 304.5 289C303.3 288.6 301.9 289.2 301.4 290.4C300.7 291.5 300.1 292.6 299.5 293.8L299.1 294.6C298.7 295.3 298.4 295.9 298 296.6C297.5 297.6 297 298.6 296.4 299.5C295.8 300.7 294.7 301.5 293.4 301.7C292.4 301.8 291.4 302 290.3 302.1C288.5 302.3 286.6 302.6 284.7 302.9C282.4 303.3 280.1 302.4 278.7 300.5C277.5 299.1 276.3 297.7 275.1 296.3C274.4 295.5 273.8 294.8 273.1 294C272.4 293 271.1 292.7 270 293.2C265.5 294.9 261.3 297.2 257.6 300.2C257.2 300.6 257 301.2 257 301.7C257 302.7 257.2 303.7 257.5 304.6C257.9 306.1 258.4 307.5 258.8 308.9C259.2 310.1 259.5 311.2 259.9 312.4C260.4 313.8 260.2 315.4 259.3 316.6C257.4 319 255.1 321.9 252.6 324.7C251.8 325.4 250.8 325.9 249.8 325.9C248.9 326 247.9 325.9 247 325.8L246.1 325.7L243.8 325.5C242.4 325.4 240.9 325.2 239.5 325.2C237.9 325.1 236.5 326.2 236.1 327.7C235.7 329 235.2 330.5 234.8 332C234.3 334 233.8 335.9 233.3 337.9L232.7 340.3L232.8 341.1C233.5 342.5 234.8 343.3 236.3 344C237.8 344.7 239.1 345.5 240.5 346.2L243.5 347.7C244.7 348.3 245.6 349.5 245.7 350.9C245.8 351.9 246 352.9 246.1 354C246.3 355.7 246.5 357.4 246.8 359C247.3 361.7 246.2 364.4 244 365.9C242.2 367.3 240.4 368.9 238.2 370.8C236.7 372.2 236.5 373.1 237.4 374.8C238.8 377.6 240.7 381.2 242.8 384.8C244.3 387.4 245.1 387.7 248.1 386.9L248.3 386.8L250.5 386.1C252.3 385.5 254 385 255.8 384.4C256.4 384.3 257 384.2 257.6 384.2ZM293.9 376.7C280.2 376.6 268.8 366.2 267.6 352.5C267 345.5 269.2 338.6 273.8 333.2C283 322 299.5 320.3 310.8 329.5C316.4 334.1 319.8 340.7 320.3 347.9C321.2 354.1 319.2 361.1 314.8 366.6C310.2 372.4 303.4 376 296 376.5C295.3 376.7 294.6 376.7 293.9 376.7ZM293.7 325.1C293 325.1 292.2 325.1 291.5 325.2C285 325.9 279 329.2 274.9 334.2C270.6 339.2 268.5 345.8 269.1 352.4C270.3 366.2 282.5 376.4 296.4 375.2C303.2 374.6 309.5 371.2 313.8 365.8C317.9 360.6 319.9 353.9 319 348.1C317.9 335 306.8 324.9 293.7 325.1Z" fill="#282828"/>
<path d="M252.8 163.4L253.4 164C253.8 164.4 253.9 165.1 253.5 165.5L244.3 175.9C243.9 176.3 243.2 176.4 242.8 176L242.2 175.4C241.8 175 241.7 174.3 242.1 173.9L251.3 163.5C251.7 163.1 252.4 163 252.8 163.4Z" fill="#282828"/>
<path d="M243.5 176.8C243 176.8 242.4 176.6 242 176.2C241.1 175.4 241 174 241.8 173.1L250.4 163.4C251.2 162.5 252.6 162.4 253.5 163.2C253.9 163.6 254.2 164.1 254.2 164.7C254.2 165.3 254 165.9 253.6 166.3L244.9 176C244.5 176.4 244 176.7 243.4 176.7L243.5 176.8ZM252.1 164C251.9 164 251.6 164.1 251.5 164.3L242.8 174C242.7 174.2 242.6 174.4 242.6 174.6C242.6 174.8 242.7 175 242.9 175.2C243.2 175.5 243.7 175.5 244 175.1L252.7 165.4C252.8 165.2 252.9 165 252.9 164.8C252.9 164.6 252.8 164.4 252.6 164.2C252.5 164.1 252.3 164 252.1 164Z" fill="#282828"/>
<path d="M253.101 164.4C252.901 164.4 252.801 164.3 252.601 164.2C252.301 163.9 252.301 163.5 252.501 163.2L260.801 153.8C261.001 153.5 261.501 153.5 261.801 153.7C262.101 154 262.101 154.4 261.901 154.7L253.601 164.1C253.501 164.3 253.301 164.4 253.101 164.4Z" fill="#282828"/>
<path d="M261.8 155.8H260.2L260 154.3L263 151.3L263.7 151.9L264.4 152.5L261.8 155.8Z" fill="#282828"/>
<path d="M234.499 173.3L240.299 171.3C240.299 171.3 245.199 165 246.899 165C248.599 165 245.299 169.8 245.499 169.9C245.699 170 253.399 166.2 253.799 168.1C254.199 170 251.999 173.7 250.699 174.6C249.399 175.5 234.399 181.6 234.399 181.6L234.499 173.3Z" fill="white"/>
<path d="M234.5 182.4C234.4 182.4 234.2 182.4 234.1 182.3C233.9 182.2 233.8 182 233.8 181.7V173.3C233.8 173 234 172.7 234.3 172.6L239.9 170.7C241.2 169 245 164.3 246.9 164.3C247.3 164.3 247.7 164.5 247.9 164.9C248.4 165.7 247.8 167 246.9 168.7C249.8 167.5 252.6 166.5 253.8 167.2C254.1 167.4 254.4 167.7 254.5 168.1C255 170.4 252.5 174.3 251.1 175.3C249.7 176.3 236.2 181.8 234.7 182.4C234.6 182.4 234.6 182.4 234.5 182.4ZM235.2 173.8V180.7C241.1 178.3 249.5 174.8 250.3 174.1C251.5 173.3 253.5 169.8 253.1 168.3C252.7 168.1 250.7 168.6 247.2 170.1C245.8 170.7 245.6 170.8 245.2 170.6C245 170.5 244.9 170.4 244.8 170.2C244.7 169.8 244.8 169.5 245.4 168.5C245.9 167.6 246.3 166.7 246.6 165.8C245.6 166.1 243.1 168.7 240.7 171.8C240.6 171.9 240.5 172 240.4 172L235.2 173.8Z" fill="#282828"/>
<path d="M143 282.2C143 282.5 142.2 290.7 143 290.7C143.8 290.7 150.8 292.1 150.8 292.1V282.3L143 282.2Z" fill="white"/>
<path d="M150.8 292.7H150.7C147.3 292.1 143.5 291.4 143 291.4C142.8 291.4 142.5 291.3 142.4 291.1C142 290.7 141.7 289.7 142.3 282.8C142.3 282.5 142.3 282.3 142.4 282.2C142.4 281.8 142.7 281.5 143.1 281.5H150.9C151.3 281.5 151.6 281.8 151.6 282.2V292C151.6 292.2 151.5 292.4 151.3 292.5C151.1 292.6 151 292.7 150.8 292.7ZM143.4 290C144.7 290.2 148.3 290.8 150.1 291.2V282.9H143.6C143.3 287.7 143.3 289.4 143.4 290Z" fill="#282828"/>
<path d="M137.7 187.6C137.6 188.4 140.8 264.8 142.6 284.1C142.6 284.1 150.1 285.9 151 285.9C151.9 285.9 164 203.9 164 203.9L137.7 187.6Z" fill="#282828"/>
<path d="M151 286.5C150.1 286.5 143.7 285 142.4 284.7C142.1 284.6 141.9 284.4 141.9 284.1C140.2 265.7 136.9 188.6 137 187.5C137.1 187.1 137.4 186.9 137.8 186.9C137.9 186.9 138 186.9 138.1 187L164.4 203.2C164.6 203.3 164.8 203.6 164.7 203.9C164.7 204.1 161.6 224.7 158.5 244.9C152.1 286.5 151.8 286.5 151 286.5ZM143.2 283.5C146.2 284.2 149.3 284.9 150.5 285.1C151.8 280.1 158.7 234.8 163.2 204.2L138.3 188.9C138.7 198.8 141.6 265.3 143.2 283.5Z" fill="#282828"/>
<path d="M164 244.6C164 244.6 158.5 251.1 157.8 253.7L165.8 254.7C165.8 254.7 173.1 246.5 173.5 246.4C173.9 246.3 164 244.6 164 244.6Z" fill="white"/>
<path d="M165.8 255.4L157.7 254.4C157.5 254.4 157.3 254.3 157.2 254.1C157.1 253.9 157.1 253.7 157.1 253.5C157.8 250.8 163.2 244.4 163.4 244.1C163.6 243.9 163.8 243.8 164.1 243.9C174.1 245.6 174.1 245.6 174.1 246.3C174.1 246.6 174 246.8 173.8 247C173.2 247.5 168.9 252.3 166.3 255.2C166.1 255.3 165.9 255.4 165.8 255.4ZM158.8 253.1L165.6 254C169.3 249.9 171.2 247.8 172.2 246.8C170.4 246.4 166.9 245.8 164.4 245.4C162.2 247.7 160.3 250.3 158.8 253.1Z" fill="#282828"/>
<path d="M141 173.7C141 173.7 134.4 192.6 138.6 200.1C142.8 207.6 185.5 216 185.5 216L161.399 245.4L169.8 248.4C169.8 248.4 207.299 238.5 210.399 225C213.499 211.5 175.399 187.4 175.399 187.4" fill="#282828"/>
<path d="M169.7 249.3C169.6 249.3 169.5 249.3 169.5 249.3L161.1 246.3C160.7 246.2 160.5 245.8 160.7 245.4C160.7 245.3 160.8 245.2 160.8 245.2L184.2 216.6C177.2 215.2 142 207.6 138 200.6C133.7 192.9 140.1 174.4 140.4 173.6C140.5 173.2 140.9 173 141.3 173.2C141.7 173.3 141.9 173.7 141.7 174.1C141.6 174.3 135.2 192.8 139.3 200C142.6 205.9 173.9 213.3 185.7 215.6C185.9 215.6 186.1 215.8 186.2 216C186.3 216.2 186.2 216.5 186.1 216.7L162.6 245.4L169.8 248C172.8 247.2 206.8 237.6 209.7 225.1C212.7 212.2 175.3 188.5 175 188.3C174.7 188.1 174.6 187.6 174.8 187.3C175 187 175.4 186.9 175.8 187.1C177.4 188.1 214.4 211.5 211.1 225.4C207.8 239.3 171.5 249 170 249.4L169.7 249.3Z" fill="#282828"/>
<path d="M184.7 126.4C181.8 125.7 179.1 124.1 177 122C176 121.1 175.4 119.8 175.1 118.5C174.9 117.1 175.6 115.8 176.8 115.2C175.5 114.4 174.7 113 174.7 111.5C174.6 110 175 108.5 175.7 107.2C176.6 105.5 178 103.8 180 103.7C179.3 102.2 178.5 100.5 179.2 99.0004C179.6 98.3004 180.1 97.6004 180.8 97.2004C182 96.2004 183.4 95.3004 184.8 94.5004C185.6 94.1004 186.6 93.7004 187.2 94.2004C188 91.1004 190.5 88.7004 193.6 88.1004C195.1 87.8004 196.7 87.9004 198.1 88.6004C199.5 89.5004 200.8 90.6004 202 91.7004C204.2 91.0004 207.8 91.5004 209.5 93.2004C211 94.7004 211.5 96.9004 210.9 98.9004C212.5 99.8004 213.9 101 215.1 102.5C216.2 104 216.6 105.9 216.1 107.7C215.6 109.5 213.9 110.8 212 110.7C213.5 112.3 213.7 114.8 212.3 116.5C210.9 118.2 208.6 118.8 206.5 118.1C206.2 118 205.9 117.9 205.6 117.9C205.2 118 204.9 118.2 204.7 118.5C203.8 119.2 202.6 119 201.6 119.5C200.2 120.3 199 121.3 197.8 122.3C196.6 123.2 195.3 124 193.9 124.7C192.4 125.5 191.1 126.8 189.4 127.3C188 127.8 187.1 127.1 185.8 126.7L184.7 126.4Z" fill="white"/>
<path d="M188.4 128.2C187.7 128.2 187.1 128 186.5 127.8C186.2 127.7 185.9 127.6 185.6 127.5L184.6 127.2C181.6 126.4 178.8 124.8 176.6 122.5C175.5 121.5 174.8 120.1 174.5 118.6C174.3 117.3 174.8 116 175.7 115.1C174.7 114.1 174.2 112.9 174.1 111.5C174 109.9 174.4 108.3 175.2 106.9C175.9 105.2 177.3 103.9 179.1 103.2C178.3 101.8 178.2 100.2 178.7 98.8002C179.1 98.0002 179.7 97.2002 180.5 96.7002C181.8 95.6002 183.2 94.7002 184.6 93.9002C185.3 93.5002 186.1 93.3002 186.9 93.3002C188 90.3002 190.5 88.1002 193.7 87.4002C195.4 87.0002 197.1 87.2002 198.7 87.9002C200 88.8002 201.2 89.8002 202.4 90.9002C204.8 90.3002 208.3 90.9002 210.2 92.7002C211.7 94.2002 212.4 96.4002 212 98.6002C213.5 99.5002 214.9 100.7 215.9 102.1C217.1 103.8 217.6 105.9 217 107.9C216.5 109.5 215.2 110.8 213.6 111.3C214.6 113.1 214.4 115.4 213.1 117C211.5 118.9 208.9 119.6 206.5 118.8C206.3 118.7 206.1 118.7 206 118.7C205.8 118.8 205.7 118.9 205.6 119L205.4 119.2C204.8 119.6 204.1 119.9 203.3 120C202.9 120 202.5 120.1 202.2 120.3C201.3 120.8 200.5 121.4 199.7 122.1C199.3 122.4 198.9 122.8 198.5 123.1C197.2 124.1 195.8 124.9 194.6 125.6C194.1 125.9 193.7 126.2 193.2 126.5C192.2 127.2 191.2 127.8 190 128.2C189.2 128.1 188.8 128.2 188.4 128.2ZM184.9 125.8L185.9 126.1C186.3 126.2 186.6 126.3 186.9 126.4C187.6 126.8 188.4 126.8 189.2 126.6C190.2 126.2 191.2 125.7 192 125C192.5 124.7 193 124.3 193.5 124C194.8 123.3 196.1 122.5 197.3 121.6C197.7 121.3 198.1 121 198.5 120.7C199.3 120 200.3 119.3 201.3 118.8C201.8 118.6 202.3 118.4 202.8 118.4C203.3 118.4 203.8 118.2 204.2 117.9L204.3 117.8C204.6 117.5 205 117.3 205.4 117.2C205.8 117.2 206.2 117.2 206.5 117.4C208.3 118.1 210.4 117.5 211.6 116.1C212.7 114.6 212.6 112.6 211.4 111.2C211.2 111 211.1 110.7 211.2 110.4C211.3 110.2 211.6 110 211.9 110C213.5 110 214.8 109 215.3 107.5C215.7 105.9 215.4 104.2 214.4 102.9C213.3 101.5 212 100.4 210.5 99.6002C210.2 99.4002 210.1 99.1002 210.2 98.8002C210.7 97.0002 210.2 95.1002 208.9 93.8002C207.4 92.3002 204.1 91.9002 202.1 92.5002C201.8 92.6002 201.4 92.4002 201.2 92.1002C200.1 91.1002 199 90.2002 197.8 89.3002C196.5 88.7002 195.1 88.6002 193.7 88.9002C190.9 89.5002 188.6 91.7002 187.9 94.4002C187.8 94.6002 187.7 94.8002 187.5 94.9002C187.3 95.0002 187 94.9002 186.8 94.8002C186.4 94.5002 185.7 94.8002 185.1 95.1002C183.7 95.9002 182.4 96.7002 181.2 97.7002C180.6 98.1002 180.1 98.7002 179.8 99.3002C179.3 100.5 179.9 102.1 180.6 103.4C180.7 103.6 180.7 103.9 180.6 104.1C180.5 104.3 180.3 104.4 180 104.4C178 104.5 176.8 106.6 176.3 107.5C175.6 108.7 175.3 110 175.4 111.4C175.5 112.7 176.1 113.8 177.2 114.6C177.4 114.7 177.6 115 177.6 115.3C177.6 115.6 177.4 115.8 177.2 115.9C176.3 116.4 175.7 117.4 175.9 118.5C176.1 119.7 176.7 120.8 177.6 121.6C179.6 123.6 182.2 125.1 184.9 125.8Z" fill="#282828"/>
<path d="M205.5 119C205.5 119 207.7 126.2 206.5 127.2C205.3 128.2 202.8 126.6 202.8 126.6" fill="white"/>
<path d="M205.5 128.3C204.4 128.2 203.3 127.8 202.4 127.2C202.1 127 202 126.6 202.2 126.2C202.4 125.8 202.8 125.8 203.2 126C204 126.5 205.5 127.1 206.1 126.7C206.5 126.2 205.9 122.7 204.9 119.2C204.7 118.8 204.9 118.4 205.3 118.3C205.7 118.1 206.1 118.3 206.2 118.7V118.8C207.1 121.7 208.4 126.6 207 127.8C206.6 128.1 206.1 128.3 205.5 128.3Z" fill="#282828"/>
<path d="M208.1 105.4C208.4 105.7 208.6 106.1 208.7 106.6C208.9 108.2 208.9 109.8 208.5 111.4C207.9 114.5 207.1 117.6 206.1 120.6C204.9 124.6 203.6 128.6 202.2 132.5C201.3 135 194.7 133.1 193.8 132L191.9 142.4C191.9 142.4 188.5 142.3 183.9 138.3C179.3 134.3 179.6 133 179.6 133L183.4 121.5C183.4 121.5 187.8 122.8 191.8 118.4C192.4 117.7 193 116.5 193.8 115.9C194.7 115.2 195.9 115.4 196.7 114.4C197.5 113.5 197.8 112.2 197.5 111C197.4 110.8 197.4 110.4 197.6 110.3C197.7 110.2 197.9 110.2 198 110.2C199.8 109.8 200.9 108.1 200.6 106.4C202.3 106.9 203.9 105.6 205.1 104.3C204.7 104.7 207.7 105.2 207.7 105.2C207.8 105.2 208 105.3 208.1 105.4Z" fill="white"/>
<path d="M191.799 143.1C191.599 143.1 188.099 143 183.299 138.8C178.899 134.9 178.699 133.3 178.799 132.8L182.699 121.3C182.799 120.9 183.199 120.7 183.599 120.9C183.799 120.9 187.599 122 191.299 118C191.599 117.7 191.799 117.4 191.999 117C192.399 116.4 192.799 115.8 193.399 115.3C193.799 115 194.299 114.8 194.799 114.7C195.299 114.6 195.799 114.3 196.199 113.9C196.799 113.1 197.099 112.1 196.799 111.2C196.599 110.7 196.699 110.2 197.099 109.8C197.299 109.6 197.599 109.5 197.899 109.5C198.599 109.4 199.199 109 199.499 108.4C199.899 107.8 199.999 107.2 199.899 106.5C199.799 106.3 199.899 106 200.099 105.8C200.299 105.6 200.499 105.6 200.799 105.6C202.099 106 203.499 104.8 204.599 103.7C204.899 103.4 205.299 103.4 205.599 103.7C205.699 103.8 205.699 103.8 205.699 103.9C206.399 104.1 206.999 104.3 207.699 104.4C207.799 104.4 207.899 104.4 207.899 104.5C208.199 104.6 208.399 104.7 208.599 104.9C208.999 105.3 209.299 105.9 209.399 106.5C209.699 108.2 209.599 109.9 209.199 111.6C208.599 114.5 207.899 117.3 206.999 120.1L206.699 121C205.499 125 204.199 129 202.799 133C202.399 133.9 201.599 134.5 200.599 134.6C198.399 134.8 196.199 134.4 194.199 133.4L192.499 142.7C192.399 142.9 192.099 143.2 191.799 143.1ZM180.199 133.1C180.299 133.4 180.699 134.7 184.199 137.8C186.199 139.7 188.599 141 191.199 141.6L192.999 132C193.099 131.6 193.399 131.4 193.799 131.4C193.999 131.4 194.099 131.5 194.199 131.6C194.699 132.2 198.199 133.4 200.299 133C200.899 132.9 201.299 132.6 201.399 132.3C202.799 128.4 204.099 124.4 205.299 120.4L205.599 119.5C206.499 116.8 207.199 114 207.699 111.3C208.099 109.8 208.099 108.3 207.899 106.8C207.799 106.3 207.699 106.1 207.599 106C207.499 105.9 207.399 105.9 207.299 105.8C206.499 105.7 205.699 105.5 204.899 105.2C203.899 106.3 202.599 107 201.199 107.1C201.199 107.8 200.899 108.5 200.499 109.2C199.899 110.1 198.999 110.7 197.999 110.9C198.299 112.3 197.999 113.8 197.099 114.9C196.599 115.5 195.899 115.9 195.099 116.1C194.699 116.2 194.399 116.4 194.099 116.6C193.699 117 193.399 117.4 193.099 117.9C192.899 118.3 192.599 118.7 192.299 119C188.899 122.7 185.299 122.7 183.799 122.4L180.199 133.1Z" fill="#282828"/>
<path d="M202.899 129.5C200.499 129.3 198.599 127.3 198.399 124.9L202.899 129.5Z" fill="white"/>
<path d="M202.9 130.2C200.1 130 198 127.8 197.7 125C197.6 124.6 197.9 124.3 198.3 124.2C198.7 124.1 199 124.4 199.1 124.8C199.2 126.9 200.8 128.6 202.9 128.8C203.3 128.8 203.6 129.1 203.6 129.5C203.7 129.9 203.4 130.3 202.9 130.2Z" fill="#282828"/>
<path d="M197.1 119.3C197.3 118.3 197.2 117.2 196.8 116.2C196.6 115.4 196.3 114.7 195.9 114C195.5 113.3 194.7 112.8 193.9 112.7C193.2 112.7 192.5 113 192 113.5C191.5 114 191.1 114.7 190.9 115.3C189.9 118.3 190.5 121.7 192.6 124.1L192.5 123.8" fill="white"/>
<path d="M192.599 124.8C192.399 124.8 192.199 124.7 192.099 124.6C189.799 122 189.099 118.4 190.199 115.1C190.499 114.3 190.899 113.6 191.399 113C191.999 112.3 192.999 112 193.899 112C194.899 112.1 195.899 112.7 196.399 113.6C196.899 114.4 197.199 115.2 197.399 116C197.799 117.1 197.899 118.3 197.699 119.5C197.599 119.9 197.199 120.1 196.799 120C196.399 119.9 196.199 119.5 196.299 119.1C196.399 118.2 196.299 117.3 195.999 116.4C195.799 115.7 195.499 115 195.199 114.3C194.899 113.8 194.399 113.4 193.799 113.3C193.299 113.3 192.799 113.5 192.399 113.9C191.999 114.4 191.699 114.9 191.499 115.5C190.599 118.1 191.099 120.9 192.699 123.1C192.899 123.2 192.999 123.3 193.099 123.4L193.199 123.7C193.399 124 193.299 124.4 192.999 124.6C192.799 124.8 192.699 124.8 192.599 124.8Z" fill="#282828"/>
<path d="M193.7 132.1C193.7 132.1 190.6 130 189.7 127.2C189.7 127.2 188.1 133.4 192.8 136.7L193.7 132.1Z" fill="#282828"/>
<path d="M192.899 137.4C192.799 137.4 192.599 137.4 192.499 137.3C187.399 133.8 188.999 127.3 189.099 127.1C189.199 126.8 189.399 126.6 189.799 126.6C190.099 126.6 190.399 126.8 190.499 127.1C191.299 129.6 194.199 131.6 194.199 131.6C194.399 131.8 194.499 132 194.499 132.3L193.599 136.9C193.599 137.1 193.399 137.3 193.199 137.4C192.999 137.4 192.999 137.4 192.899 137.4ZM190.099 129.6C189.999 131.8 190.799 133.9 192.299 135.4L192.899 132.4C191.899 131.6 190.899 130.7 190.099 129.6Z" fill="#282828"/>
<path d="M204.141 114.95C204.404 114.164 204.362 113.442 204.048 113.337C203.733 113.232 203.266 113.783 203.003 114.569C202.74 115.355 202.782 116.077 203.096 116.182C203.411 116.287 203.878 115.735 204.141 114.95Z" fill="#282828"/>
<path d="M198.1 142.4C197.4 140.4 184.6 125.1 175.3 128.8C166 132.5 146.4 160.8 141 173.7L176.2 190.5C176.2 190.6 201.7 153.4 198.1 142.4Z" fill="#FF6262"/>
<path d="M182.8 163.2C182.8 163.2 186 180.6 198.1 185.7C210.2 190.8 236.6 183.6 236.6 183.6V170.3C236.6 170.3 220.1 176.9 212 170.3C203.9 163.7 198.1 142.4 198.1 142.4L182.8 163.2Z" fill="#FF6262"/>
<path d="M157.8 253.7C157.8 253.7 153.6 261.4 154.8 262.1C156 262.8 173.9 262.2 173.5 261.2C173.1 260.2 165.8 254.7 165.8 254.7L157.8 253.7Z" fill="#282828"/>
<path d="M159.9 263.2C157.1 263.2 154.9 263.1 154.4 262.7C153.9 262.3 152.6 261.6 157.2 253.3C157.3 253 157.6 252.9 157.9 252.9L165.9 253.9C166 253.9 166.1 254 166.2 254C168.4 255.7 173.7 259.7 174.1 260.8C174.2 261.1 174.1 261.5 173.8 261.7C172.9 262.6 165.3 263.2 159.9 263.2ZM155.2 261.5C157 262 169.3 261.6 172.4 260.9C170.2 258.9 167.9 257.1 165.5 255.3L158.2 254.4C156.6 257.3 155.1 260.6 155.2 261.5Z" fill="#282828"/>
<path d="M143 290.6C143 290.6 141.8 298.7 142.6 299.2C143.4 299.7 162.8 299.3 161.9 297.7C161 296.1 150.8 291.9 150.8 291.9L143 290.6Z" fill="#282828"/>
<path d="M147.3 300.1C145.6 300.2 144 300.1 142.3 299.8C141.9 299.6 141.1 299.1 142.3 290.5C142.3 290.1 142.7 289.9 143.1 289.9L150.9 291.3H151C153.4 292.3 161.5 295.7 162.4 297.3C162.6 297.7 162.5 298.1 162.2 298.4C161.2 299.7 152.9 300.1 147.3 300.1ZM143.2 298.6C145.1 298.9 158.1 298.6 161 297.7C159.6 296.6 154.9 294.4 150.7 292.7L143.7 291.5C143.3 293.9 143.1 296.2 143.2 298.6Z" fill="#282828"/>
<path d="M162.899 211.3C162.799 211.3 162.799 211.3 162.699 211.3C161.899 211 143.299 204.5 138.299 200.6C138.099 200.4 138.099 200.1 138.299 199.9C138.499 199.7 138.699 199.7 138.899 199.8C143.799 203.5 162.899 210.2 163.099 210.3C163.399 210.4 163.499 210.7 163.399 211C163.299 211.2 163.199 211.3 162.899 211.3Z" fill="white"/>
<path d="M211.6 188.6C209.3 188.6 206.7 188.5 204 188.3C186.6 186.8 179.1 160 178.8 158.9C178.7 158.5 178.9 158.1 179.3 158C179.7 157.9 180.1 158.1 180.2 158.5C180.3 158.8 187.8 185.5 204.2 186.9C220.9 188.3 230.1 184.5 230.2 184.5C230.6 184.4 231 184.5 231.1 184.9C231.3 185.3 231.1 185.7 230.7 185.8C230.3 185.9 223.8 188.6 211.6 188.6Z" fill="#282828"/>
<path d="M208.4 167.1C208.2 167.1 208 167 207.8 166.8C206 164.6 198.7 150 197.7 144.8C196.8 140.2 194.1 138.4 194.1 138.4C193.8 138.2 193.7 137.7 193.9 137.4C194.1 137.1 194.5 137 194.8 137.2C194.9 137.3 198 139.3 199 144.6C200 149.6 207.3 164 208.9 166C209.1 166.3 209.1 166.7 208.8 167C208.7 167 208.5 167.1 208.4 167.1Z" fill="#282828"/>
</svg>
