<svg width="500" height="500" viewBox="0 0 500 500" fill="none" xmlns="http://www.w3.org/2000/svg">
<path fill-rule="evenodd" clip-rule="evenodd" d="M255.955 26.7218C313.477 36.2026 370.642 45.9587 414.08 87.8453C460.244 132.359 490.346 192.395 496.776 258.937C503.997 333.65 503.065 420.281 451.012 469.989C400.131 518.576 323.581 495.03 255.955 488.905C196.679 483.536 136.065 479.435 91.0314 437.385C42.7865 392.337 17.9905 327.298 9.66933 258.937C-0.159829 178.188 -15.7514 79.8621 40.999 26.354C97.156 -26.5948 182.317 14.5848 255.955 26.7218Z" fill="#EDF1FE"/>
<path d="M174.099 363C181.942 363 188.299 356.643 188.299 348.8C188.299 340.958 181.942 334.6 174.099 334.6C166.257 334.6 159.899 340.958 159.899 348.8C159.899 356.643 166.257 363 174.099 363Z" fill="#282828"/>
<path d="M174.099 363.5C165.999 363.5 159.399 356.9 159.399 348.7C159.399 340.5 165.999 334 174.099 334C182.199 334 188.799 340.6 188.799 348.7C188.899 356.9 182.299 363.5 174.099 363.5ZM174.099 335C166.499 335 160.399 341.2 160.399 348.8C160.399 356.4 166.599 362.5 174.199 362.5C181.799 362.5 187.899 356.3 187.899 348.8C187.899 341.2 181.699 335 174.099 335Z" fill="#282828"/>
<path d="M174.099 356.7C178.462 356.7 181.999 353.163 181.999 348.8C181.999 344.437 178.462 340.9 174.099 340.9C169.736 340.9 166.199 344.437 166.199 348.8C166.199 353.163 169.736 356.7 174.099 356.7Z" fill="#EDF1FE"/>
<path d="M174.1 357.1C169.5 357.1 165.8 353.4 165.8 348.7C165.8 344 169.5 340.3 174.2 340.3C178.8 340.3 182.5 344 182.5 348.7C182.5 353.4 178.7 357.1 174.1 357.1ZM174.1 341.4C170 341.4 166.8 344.7 166.8 348.8C166.8 352.9 170.1 356.2 174.2 356.2C178.3 356.2 181.5 352.9 181.5 348.8C181.5 344.7 178.2 341.4 174.1 341.4Z" fill="#282828"/>
<path d="M169.499 329.3H178.799C179.999 329.3 181.099 330 181.599 331.2L184.699 339.1C185.299 340.7 184.399 342.4 182.899 342.9C182.599 343 182.299 343.1 181.999 343.1H166.499C164.799 343.1 163.499 341.7 163.599 340C163.599 339.7 163.699 339.4 163.799 339.1L166.899 331.2C167.199 330 168.299 329.3 169.499 329.3Z" fill="#6A90FF"/>
<path d="M181.899 343.5H166.399C164.499 343.5 162.899 342 162.899 340.1C162.899 339.7 162.999 339.2 163.099 338.8L166.199 330.9C166.699 329.6 167.999 328.7 169.399 328.7H178.699C180.099 328.7 181.399 329.6 181.899 330.9L184.999 338.8C185.699 340.6 184.799 342.6 183.099 343.3C182.799 343.5 182.299 343.6 181.899 343.5ZM169.499 329.8C168.499 329.8 167.599 330.4 167.199 331.3L164.099 339.2C163.599 340.5 164.199 341.9 165.499 342.4C165.799 342.5 166.099 342.6 166.399 342.6H181.899C183.299 342.6 184.399 341.5 184.399 340.2C184.399 339.9 184.299 339.6 184.199 339.3L181.099 331.4C180.699 330.5 179.799 329.8 178.799 329.9H169.499V329.8Z" fill="#282828"/>
<path d="M226.399 363C234.242 363 240.599 356.643 240.599 348.8C240.599 340.958 234.242 334.6 226.399 334.6C218.557 334.6 212.199 340.958 212.199 348.8C212.199 356.643 218.557 363 226.399 363Z" fill="#282828"/>
<path d="M226.399 363.5C218.299 363.5 211.699 356.9 211.699 348.7C211.699 340.5 218.299 334 226.499 334C234.599 334 241.199 340.6 241.199 348.7C241.199 356.9 234.599 363.5 226.399 363.5ZM226.399 335C218.799 335 212.699 341.2 212.699 348.8C212.699 356.4 218.899 362.5 226.499 362.5C234.099 362.5 240.199 356.3 240.199 348.8C240.199 341.2 233.999 335 226.399 335Z" fill="#282828"/>
<path d="M226.4 356.7C230.763 356.7 234.3 353.163 234.3 348.8C234.3 344.437 230.763 340.9 226.4 340.9C222.037 340.9 218.5 344.437 218.5 348.8C218.5 353.163 222.037 356.7 226.4 356.7Z" fill="#EDF1FE"/>
<path d="M226.4 357.1C221.8 357.1 218.1 353.4 218.1 348.7C218.1 344 221.8 340.3 226.5 340.3C231.1 340.3 234.8 344 234.8 348.7C234.8 353.4 231 357.1 226.4 357.1ZM226.4 341.4C222.3 341.4 219.1 344.7 219.1 348.8C219.1 352.9 222.4 356.2 226.5 356.2C230.6 356.2 233.8 352.9 233.8 348.8C233.8 344.7 230.5 341.4 226.4 341.4Z" fill="#282828"/>
<path d="M221.8 329.3H231.1C232.3 329.3 233.4 330 233.9 331.2L237.1 339C237.7 340.6 236.8 342.3 235.3 342.8C235 342.9 234.7 343 234.4 343H218.8C217.1 343 215.8 341.6 215.9 339.9C215.9 339.6 216 339.3 216.1 339L219.2 331.1C219.5 330 220.6 329.3 221.8 329.3Z" fill="#6A90FF"/>
<path d="M234.2 343.5H218.7C217.6 343.5 216.5 342.9 215.8 342C215.2 341.1 215 339.8 215.4 338.8L218.5 330.9C219 329.6 220.3 328.7 221.7 328.7H231C232.4 328.7 233.7 329.6 234.2 330.9L237.3 338.8C237.7 339.9 237.6 341.1 236.9 342C236.4 343 235.3 343.6 234.2 343.5ZM221.8 329.8C220.8 329.8 219.9 330.4 219.5 331.3L216.4 339.2C215.9 340.5 216.5 341.9 217.8 342.4C218.1 342.5 218.4 342.6 218.7 342.6H234.2C235.6 342.6 236.7 341.5 236.7 340.2C236.7 339.9 236.6 339.6 236.5 339.3L233.4 331.4C233 330.5 232.1 329.8 231.1 329.9H221.8V329.8Z" fill="#282828"/>
<path d="M245.5 342.5H152.4C146.3 342.5 141 338.4 139.4 332.5L102.8 194.7C101.9 191.4 99.8996 188.6 97.0996 186.7L87.5996 180.2C86.1996 179.2 85.7996 177.3 86.7996 175.9C87.7996 174.5 89.6996 174.1 91.0996 175.1L100.6 181.6C104.6 184.3 107.5 188.5 108.8 193.2L145.4 331C146.2 334.2 149.1 336.4 152.4 336.4H245.5C247.2 336.3 248.7 337.6 248.8 339.3C248.9 341 247.6 342.5 245.9 342.6C245.7 342.5 245.6 342.5 245.5 342.5Z" fill="#EDF1FE"/>
<path d="M245.5 343H152.4C146.1 343 140.5 338.7 138.9 332.6L102.3 194.8C101.5 191.6 99.4998 188.9 96.7998 187.1L87.2998 180.6C86.4998 180.1 85.9998 179.2 85.7998 178.3C85.3998 176.3 86.6998 174.4 88.6998 174.1C89.5998 173.9 90.5998 174.1 91.3998 174.7L100.9 181.2C105 184 108 188.2 109.3 193L145.9 330.8C146.7 333.7 149.3 335.8 152.4 335.8H245.5C247.5 335.9 249 337.6 248.9 339.6C248.8 341.4 247.3 342.9 245.5 343ZM89.3998 175.1C89.1998 175.1 89.0998 175.1 88.8998 175.1C88.1998 175.2 87.5998 175.6 87.1998 176.2C86.7998 176.8 86.6998 177.5 86.7998 178.2C86.8998 178.9 87.2998 179.5 87.8998 179.9L97.3998 186.4C100.3 188.4 102.4 191.3 103.3 194.7L139.9 332.5C141.4 338.2 146.6 342.1 152.4 342.1H245.5C246.9 342 248.1 340.8 248 339.3C247.9 338 246.9 336.9 245.5 336.8H152.4C148.9 336.8 145.9 334.4 145 331L108.3 193.3C107.1 188.7 104.2 184.7 100.3 182L90.7998 175.5C90.3998 175.2 89.8998 175.1 89.3998 175.1Z" fill="#282828"/>
<path d="M105.299 192.2L102.799 194.8L56.7994 207.7L55.8994 205.1L93.1994 191.5L105.299 192.2Z" fill="#282828"/>
<path d="M56.7998 208.2C56.5998 208.2 56.3998 208.1 56.2998 207.9L55.3998 205.3C55.2998 205 55.3998 204.8 55.6998 204.7L93.0998 191C93.1998 191 93.1998 191 93.2998 191L105.4 191.7C105.6 191.7 105.8 191.8 105.8 192C105.9 192.2 105.8 192.4 105.7 192.5L103.2 195C103.1 195.1 103.1 195.1 103 195.1L57.0998 208.1L56.7998 208.2ZM56.5998 205.4L57.1998 207.1L102.5 194.3L104.1 192.7L93.2998 192L56.5998 205.4Z" fill="#282828"/>
<path d="M36 189.4L88.7 177.9C88.7 177.9 102.1 184.3 105.3 192.3L53.2 206C53.2 206 50.5 198 36 189.4Z" fill="#6A90FF"/>
<path d="M53.1992 206.5C52.9992 206.5 52.7992 206.4 52.6992 206.2C52.6992 206.1 49.7992 198.2 35.6992 189.8C35.4992 189.7 35.3992 189.5 35.4992 189.3C35.4992 189.1 35.6992 188.9 35.8992 188.9L88.5992 177.4C88.6992 177.4 88.7992 177.4 88.8992 177.4C89.4992 177.7 102.499 184 105.799 192C105.899 192.1 105.899 192.3 105.799 192.4C105.699 192.5 105.599 192.6 105.499 192.7L53.4992 206.5H53.1992ZM37.2992 189.6C49.1992 197 52.7992 203.7 53.4992 205.4L104.499 191.9C101.199 184.9 89.8992 179.1 88.4992 178.4L37.2992 189.6Z" fill="#282828"/>
<path d="M226.299 363H115.599C107.299 363 99.9994 357.7 97.4994 349.8L63.6994 245.2L49.9994 207.2C48.5994 203.3 45.9994 200 42.6994 197.7L33.9994 191.7C32.5994 190.7 32.3994 188.7 33.3994 187.3C34.3994 186 36.1994 185.7 37.4994 186.5L46.1994 192.5C50.6994 195.5 54.0994 199.9 55.8994 205L69.5994 243.1L103.399 347.8C105.099 353.1 109.999 356.7 115.599 356.7H226.299C227.999 356.6 229.499 357.9 229.599 359.6C229.699 361.3 228.399 362.8 226.699 362.9C226.499 363 226.399 363 226.299 363Z" fill="#EDF1FE"/>
<path d="M226.3 363.5H115.6C107.1 363.5 99.5996 358.1 96.9996 350L63.1996 245.4L49.4996 207.4C48.1996 203.6 45.6996 200.4 42.2996 198.2L33.5996 192.2C31.8996 191.1 31.4996 188.8 32.5996 187.2C33.6996 185.5 35.9996 185.1 37.5996 186.2L46.2996 192.2C50.8996 195.3 54.2996 199.8 56.1996 205L69.8996 243L103.7 347.7C105.3 352.8 110.1 356.2 115.4 356.2H226.1C228.1 356.1 229.8 357.6 229.9 359.6C230 361.6 228.5 363.3 226.5 363.4C226.5 363.5 226.4 363.5 226.3 363.5ZM35.7996 186.6C34.8996 186.6 34.0996 187 33.5996 187.7C32.7996 188.9 33.0996 190.5 34.2996 191.3L42.9996 197.3C46.4996 199.7 49.0996 203.1 50.4996 207L64.1996 245L97.9996 349.6C100.5 357.3 107.6 362.5 115.7 362.5H226.3C227.7 362.6 229 361.5 229.1 360C229.2 358.6 228.1 357.3 226.6 357.2C226.5 357.2 226.4 357.2 226.3 357.2H115.6C109.8 357.2 104.7 353.5 103 348L69.1996 243.4L55.4996 205.3C53.6996 200.3 50.3996 196 45.9996 193L37.2996 187C36.7996 186.7 36.2996 186.6 35.7996 186.6Z" fill="#282828"/>
<path d="M289.4 220L263.4 232.8H61L114.6 220H289.4Z" fill="#282828"/>
<path d="M263.499 233.3H60.9994C60.6994 233.3 60.4994 233.1 60.3994 232.9C60.3994 232.6 60.5994 232.4 60.7994 232.3L114.399 219.6H114.499H289.299C289.599 219.6 289.799 219.8 289.799 220.1C289.799 220.3 289.699 220.5 289.499 220.6L263.599 233.3H263.499ZM65.1994 232.3H263.299L287.199 220.6H114.599L65.1994 232.3Z" fill="#282828"/>
<path d="M289.4 220L247.7 307.4L230.7 315.2C229.1 315.9 227.5 316.5 225.8 316.8L263.5 232.6L289.4 220Z" fill="#6A90FF"/>
<path d="M225.699 317.4C225.399 317.4 225.199 317.2 225.199 316.9C225.199 316.8 225.199 316.8 225.199 316.7L262.899 232.5C262.899 232.4 262.999 232.3 263.099 232.3L288.999 219.6C289.199 219.5 289.399 219.5 289.599 219.7C289.799 219.8 289.799 220.1 289.699 220.3L247.999 307.7C247.999 307.8 247.899 307.9 247.799 307.9L230.799 315.7C229.199 316.4 227.499 317 225.799 317.4H225.699ZM263.799 233.1L226.599 316.1C227.899 315.8 229.199 315.3 230.399 314.7L247.299 306.9L288.299 221L263.799 233.1Z" fill="#282828"/>
<path d="M263.4 232.8L225.7 317C223.9 317.4 222.1 317.6 220.2 317.6H92.3C89.6 317.6 87.2 315.8 86.4 313.3L61 232.8H263.4Z" fill="#EDF1FE"/>
<path d="M220.3 318H92.3C89.4 318 86.8 316.1 85.9 313.3L60.5 232.9C60.5 232.7 60.5 232.6 60.6 232.5C60.7 232.4 60.8 232.3 61 232.3H263.5C263.7 232.3 263.8 232.4 263.9 232.5C264 232.6 264 232.8 263.9 233L226.2 317.2C226.1 317.3 226 317.5 225.8 317.5C224 317.8 222.1 318 220.3 318ZM61.7 233.3L86.9 313C87.6 315.4 89.9 317 92.3 317H220.2C221.9 317 223.6 316.8 225.3 316.5L262.6 233.3H61.7Z" fill="#282828"/>
<path d="M205.1 318C205 318 205 318 204.9 318C204.7 317.9 204.5 317.6 204.7 317.3L242.9 232.5C243 232.3 243.3 232.2 243.6 232.3C243.8 232.4 243.9 232.7 243.8 232.9L205.6 317.7C205.4 317.9 205.3 318 205.1 318Z" fill="#282828"/>
<path d="M188.2 318H188C187.7 317.9 187.6 317.6 187.7 317.4L215.6 232.6C215.7 232.3 216 232.2 216.2 232.3C216.5 232.4 216.6 232.7 216.5 232.9L188.6 317.7C188.6 317.9 188.5 318 188.2 318Z" fill="#282828"/>
<path d="M171.399 318H171.299C170.999 317.9 170.899 317.7 170.899 317.4L188.499 232.6C188.599 232.3 188.799 232.1 189.099 232.2C189.399 232.3 189.599 232.5 189.499 232.8L171.899 317.6C171.899 317.8 171.699 318 171.399 318Z" fill="#282828"/>
<path d="M154.6 318C154.3 318 154.1 317.7 154.1 317.5L161.5 232.7C161.5 232.4 161.8 232.2 162 232.2C162.3 232.2 162.5 232.5 162.5 232.7L155.1 317.5C155.1 317.8 154.9 318 154.6 318Z" fill="#282828"/>
<path d="M137.799 318C137.499 318 137.299 317.8 137.299 317.5L134.399 232.7C134.399 232.4 134.599 232.2 134.899 232.2C135.199 232.2 135.399 232.4 135.399 232.7L138.299 317.5C138.299 317.8 138.099 318 137.799 318Z" fill="#282828"/>
<path d="M121 318C120.8 318 120.5 317.8 120.5 317.6L107.3 232.8C107.3 232.5 107.4 232.3 107.7 232.2C108 232.2 108.2 232.3 108.3 232.6L121.5 317.4C121.5 317.7 121.4 317.9 121 318C121.1 318 121.1 318 121 318Z" fill="#282828"/>
<path d="M104.2 318C104 318 103.8 317.8 103.7 317.6L80.1998 232.9C80.0998 232.6 80.2998 232.3 80.5998 232.3C80.8998 232.2 81.1998 232.4 81.1998 232.7L104.7 317.5C104.8 317.8 104.6 318 104.4 318.1L104.2 318Z" fill="#282828"/>
<path d="M238.1 312.3C238 312.3 238 312.3 237.9 312.3C237.6 312.2 237.5 311.9 237.7 311.6L276.1 226.1C276.2 225.9 276.5 225.8 276.8 225.9C277 226 277.1 226.3 277 226.5L238.6 312C238.5 312.2 238.3 312.3 238.1 312.3Z" fill="#282828"/>
<path d="M253.899 254.6H67.6992C67.3992 254.6 67.1992 254.4 67.1992 254.1C67.1992 253.8 67.3992 253.6 67.6992 253.6H253.799L278.999 240.8C279.299 240.7 279.599 240.8 279.699 241.1C279.799 241.3 279.699 241.6 279.499 241.7L254.099 254.6C253.999 254.5 253.999 254.6 253.899 254.6Z" fill="#282828"/>
<path d="M244.499 275.6H74.3994C74.0994 275.6 73.8994 275.4 73.8994 275.1C73.8994 274.8 74.0994 274.6 74.3994 274.6H244.399L267.999 263.8C268.299 263.7 268.499 263.8 268.599 264.1C268.699 264.3 268.599 264.6 268.399 264.7L244.599 275.5C244.599 275.6 244.499 275.6 244.499 275.6Z" fill="#282828"/>
<path d="M235.3 296.1H80.5996C80.2996 296.1 80.0996 295.9 80.0996 295.6C80.0996 295.3 80.2996 295.1 80.5996 295.1H235.2L257.4 286.2C257.7 286.1 257.9 286.2 258 286.5C258.1 286.8 258 287 257.7 287.1L235.4 296.1H235.3Z" fill="#282828"/>
<path d="M136.3 392.6C145.578 392.6 153.1 385.078 153.1 375.8C153.1 366.522 145.578 359 136.3 359C127.022 359 119.5 366.522 119.5 375.8C119.5 385.078 127.022 392.6 136.3 392.6Z" fill="#282828"/>
<path d="M136.3 393.1C126.7 393.1 119 385.3 119 375.8C119 366.3 126.8 358.5 136.3 358.5C145.9 358.5 153.6 366.3 153.6 375.8C153.6 385.4 145.9 393.1 136.3 393.1ZM136.3 359.5C127.3 359.5 120 366.8 120 375.8C120 384.8 127.3 392.1 136.3 392.1C145.3 392.1 152.6 384.8 152.6 375.8C152.6 366.8 145.3 359.5 136.3 359.5Z" fill="#282828"/>
<path d="M136.3 385.1C141.436 385.1 145.6 380.936 145.6 375.8C145.6 370.664 141.436 366.5 136.3 366.5C131.164 366.5 127 370.664 127 375.8C127 380.936 131.164 385.1 136.3 385.1Z" fill="#EDF1FE"/>
<path d="M136.3 385.6C130.9 385.6 126.5 381.2 126.5 375.8C126.5 370.4 130.9 366 136.3 366C141.7 366 146.1 370.4 146.1 375.8C146.1 381.2 141.7 385.6 136.3 385.6ZM136.3 367.1C131.5 367.1 127.5 371 127.5 375.9C127.5 380.7 131.4 384.7 136.3 384.7C141.1 384.7 145.1 380.8 145.1 375.9C145.1 371 141.2 367.1 136.3 367.1Z" fill="#282828"/>
<path d="M130.8 352.8H141.8C143.2 352.8 144.5 353.7 145 355L148.7 364.3C149.4 366.1 148.5 368.1 146.7 368.8C146.3 369 145.9 369 145.4 369H127.1C125.2 369 123.6 367.4 123.6 365.5C123.6 365.1 123.7 364.6 123.8 364.2L127.5 354.9C128.1 353.7 129.4 352.8 130.8 352.8Z" fill="#6A90FF"/>
<path d="M145.499 369.6H127.199C124.999 369.6 123.199 367.8 123.199 365.6C123.199 365.1 123.299 364.6 123.499 364.2L127.199 354.9C127.799 353.4 129.299 352.4 130.899 352.4H141.899C143.499 352.4 144.999 353.4 145.599 354.9L149.299 364.2C150.099 366.3 149.099 368.6 146.999 369.4C146.499 369.5 145.999 369.6 145.499 369.6ZM130.799 353.3C129.599 353.3 128.499 354.1 127.999 355.2L124.299 364.5C123.699 366 124.499 367.8 125.999 368.4C126.299 368.5 126.699 368.6 127.099 368.6H145.399C147.099 368.6 148.399 367.2 148.399 365.6C148.399 365.2 148.299 364.9 148.199 364.5L144.499 355.2C143.999 354.1 142.899 353.3 141.699 353.3H130.799Z" fill="#282828"/>
<path d="M198.1 392.6C207.378 392.6 214.9 385.078 214.9 375.8C214.9 366.522 207.378 359 198.1 359C188.821 359 181.3 366.522 181.3 375.8C181.3 385.078 188.821 392.6 198.1 392.6Z" fill="#282828"/>
<path d="M198.1 393.1C188.5 393.1 180.8 385.3 180.8 375.8C180.8 366.3 188.6 358.5 198.1 358.5C207.7 358.5 215.4 366.3 215.4 375.8C215.4 385.4 207.7 393.1 198.1 393.1ZM198.1 359.5C189.1 359.5 181.8 366.8 181.8 375.8C181.8 384.8 189.1 392.1 198.1 392.1C207.1 392.1 214.4 384.8 214.4 375.8C214.4 366.8 207.1 359.5 198.1 359.5Z" fill="#282828"/>
<path d="M198.1 385.1C203.236 385.1 207.4 380.936 207.4 375.8C207.4 370.664 203.236 366.5 198.1 366.5C192.964 366.5 188.8 370.664 188.8 375.8C188.8 380.936 192.964 385.1 198.1 385.1Z" fill="#EDF1FE"/>
<path d="M198.1 385.6C192.7 385.6 188.3 381.2 188.3 375.8C188.3 370.4 192.7 366 198.1 366C203.5 366 207.9 370.4 207.9 375.8C207.8 381.2 203.5 385.6 198.1 385.6ZM198.1 367.1C193.3 367.1 189.3 371 189.3 375.9C189.3 380.7 193.2 384.7 198.1 384.7C202.9 384.7 206.9 380.8 206.9 375.9C206.9 371 202.9 367.1 198.1 367.1Z" fill="#282828"/>
<path d="M192.599 352.8H203.599C204.999 352.8 206.299 353.7 206.799 355L210.499 364.3C211.199 366.1 210.299 368.1 208.499 368.8C208.099 369 207.699 369 207.199 369H188.899C186.999 369 185.399 367.4 185.399 365.5C185.399 365.1 185.499 364.6 185.599 364.2L189.299 354.9C189.899 353.7 191.199 352.8 192.599 352.8Z" fill="#6A90FF"/>
<path d="M207.3 369.6H189C186.8 369.6 185 367.8 185 365.6C185 365.1 185.1 364.6 185.3 364.2L189 354.9C189.6 353.4 191.1 352.4 192.7 352.4H203.7C205.3 352.4 206.8 353.4 207.4 354.9L211.1 364.2C211.9 366.3 210.9 368.6 208.8 369.4C208.2 369.5 207.8 369.6 207.3 369.6ZM192.6 353.3C191.4 353.3 190.3 354.1 189.8 355.2L186.1 364.5C185.5 366 186.3 367.8 187.8 368.4C188.1 368.5 188.5 368.6 188.9 368.6H207.2C208.9 368.6 210.2 367.2 210.1 365.5C210.1 365.1 210 364.8 209.9 364.5L206.2 355.2C205.7 354.1 204.6 353.3 203.4 353.3H192.6Z" fill="#282828"/>
<path d="M302.199 257.8C302.199 257.8 325.899 316.6 331.899 327C336.799 335.5 353.099 363.7 358.999 373.9C360.299 376.2 362.999 377.3 365.599 376.6C372.399 374.7 385.099 370.3 390.499 362.2C391.799 360.3 391.799 357.7 390.499 355.8L360.499 309.9L354.999 279C354.999 279 372.999 286.5 390.499 276.1C404.899 267.6 426.299 253.6 433.599 248.8C435.199 247.7 436.099 245.8 435.699 243.9C434.699 238 431.399 225.7 421.599 223.4C419.999 223.1 418.299 223.3 416.799 224.1L380.799 243C380.799 243 367.799 200.2 348.299 188.6C348.299 188.6 344.799 185.5 337.799 186C330.799 186.5 306.299 214 306.299 214L298.899 251.6L302.199 257.8Z" fill="#EDF1FE"/>
<path d="M364.1 377.3C361.9 377.3 359.8 376.1 358.6 374.2C352 362.9 336.2 335.6 331.5 327.3C325.6 317 302.4 259.6 301.8 258L298.5 251.9C298.4 251.8 298.4 251.7 298.5 251.6L305.9 214C305.9 213.9 306 213.8 306 213.8C307 212.7 330.8 186.3 337.9 185.8C345 185.3 348.6 188.4 348.7 188.5C356.8 193.3 364.8 204 372.4 220.2C375.8 227.5 378.7 234.9 381.2 242.5L416.8 223.9C418.4 223.1 420.2 222.8 421.9 223.2C432.1 225.6 435.4 238.6 436.4 244.1C436.8 246.2 435.8 248.3 434.1 249.5C427.7 253.7 405.5 268.2 391 276.8C375.6 286 359.6 281.3 355.9 280L361.2 309.9L391.2 355.7C392.6 357.8 392.6 360.6 391.2 362.7C385.7 370.8 373.1 375.3 366.1 377.2C365.3 377.2 364.7 377.3 364.1 377.3ZM299.4 251.6L302.6 257.6C302.8 258.2 326.3 316.5 332.2 326.8C337 335.1 352.8 362.4 359.3 373.7C360.5 375.8 363 376.8 365.3 376.1C372.2 374.2 384.6 369.8 389.9 362C391.1 360.2 391.1 357.9 389.9 356.1L359.9 310.2C359.9 310.1 359.8 310.1 359.8 310L354.3 279.1C354.3 278.9 354.3 278.7 354.5 278.6C354.6 278.5 354.8 278.5 355 278.5C355.2 278.6 373 285.8 390.1 275.6C404.6 267 426.7 252.5 433.2 248.3C434.7 247.3 435.4 245.6 435.1 243.9C434.2 238.6 431 226.1 421.4 223.8C419.9 223.5 418.3 223.7 417 224.4L381 243.4C380.9 243.5 380.7 243.5 380.6 243.4C380.5 243.3 380.4 243.2 380.3 243.1C380.2 242.7 367.2 200.4 348.1 189C348 188.9 344.6 186 337.9 186.5C331.4 187 308.4 212.3 306.8 214.1L299.4 251.6Z" fill="#282828"/>
<path d="M169.7 222.5C169.7 222.5 167.7 216.2 177.2 208.3C186.7 200.4 202.9 201.2 208.3 206.7C213.7 212.2 213.7 232.8 213.7 232.8C213.7 232.8 171.4 232.7 171.4 232.8C171.4 232.9 169.7 222.5 169.7 222.5Z" fill="#282828"/>
<path d="M171.4 233.3C171.2 233.3 171.1 233.3 171 232.7V232.6C170.7 231.6 170.3 229 169.3 222.6C169.1 222 167.6 215.7 177 207.9C187 199.5 203.4 200.9 208.8 206.3C214.2 211.7 214.4 231.9 214.4 232.8C214.4 232.9 214.3 233.1 214.3 233.2C214.2 233.3 214.1 233.3 213.9 233.3C199.7 233.3 172.8 233.2 171.6 233.3H171.4ZM194.7 203C188.8 203 182.3 204.7 177.5 208.7C168.4 216.3 170.1 222.3 170.2 222.4C170.3 222.5 170.2 222.4 170.2 222.5C170.8 226 171.6 231 171.8 232.4C172.7 232.3 174.4 232.3 178 232.3H192.6H213.3C213.3 229.1 212.8 211.8 208 207C205.5 204.5 200.4 203 194.7 203Z" fill="#282828"/>
<path d="M189.099 232.8C189.099 232.8 185.099 229.3 188.299 227C191.499 224.7 197.299 228.2 198.099 232.8H189.099Z" fill="#EDF1FE"/>
<path d="M198.099 233.3H189.099C188.999 233.3 188.899 233.3 188.799 233.2C188.699 233.1 186.399 231.1 186.599 229C186.699 228 187.199 227.1 188.099 226.6C189.699 225.6 191.699 225.5 193.299 226.4C195.999 227.5 198.099 229.9 198.699 232.8C198.699 232.9 198.699 233.1 198.599 233.2C198.399 233.2 198.199 233.3 198.099 233.3ZM189.299 232.3H197.499C196.799 230 195.099 228.2 192.799 227.3C191.399 226.6 189.799 226.7 188.499 227.4C187.899 227.7 187.599 228.3 187.499 229C187.399 230.4 188.799 231.8 189.299 232.3Z" fill="#282828"/>
<path d="M181.9 231.5C179.7 229.7 177.7 227.7 176 225.6C173.5 222.4 174.8 220 172.5 220C170.2 220 169.4 223.9 169.4 223.9C169.4 223.9 164.2 220.7 163 224.2C163 224.2 156.9 221.8 155.8 225.8C155.8 225.8 150.8 225.1 150.3 228.9C150.3 228.9 144.2 227.5 144.6 232.7H147C149.4 235.6 152 238.5 154.7 241.1C158.3 244.5 168.9 242.3 171.5 245.2C171.4 245.3 173.1 234.5 181.9 231.5Z" fill="#EDF1FE"/>
<path d="M171.4 245.8C171.3 245.8 171.1 245.7 171 245.6C169.9 244.4 166.9 244.2 163.8 244C160.1 243.7 156.2 243.5 154.2 241.6C151.5 239 149 236.2 146.6 233.3H144.4C144.1 233.3 143.9 233.1 143.9 232.8C143.7 231.5 144.1 230.2 145.1 229.3C146.5 228.1 148.7 228.2 149.7 228.3C149.9 227.5 150.4 226.7 151.1 226.2C152.3 225.4 153.8 225.1 155.3 225.2C155.6 224.4 156.1 223.8 156.9 223.4C158.8 222.5 161.5 223.2 162.6 223.5C162.9 222.9 163.4 222.4 164 222.2C165.6 221.6 167.8 222.6 168.9 223.1C169.3 221.9 170.3 219.5 172.3 219.5C173.9 219.5 174.2 220.5 174.6 221.7C174.9 223 175.5 224.2 176.3 225.2C178 227.4 180 229.3 182.2 231.1C182.3 231.2 182.4 231.4 182.4 231.6C182.4 231.8 182.2 231.9 182.1 232C173.7 234.9 172 245.2 172 245.4C172 245.6 171.8 245.7 171.6 245.8H171.4ZM145 232.3H146.9C147.1 232.3 147.2 232.4 147.3 232.5C149.7 235.4 152.3 238.2 155 240.9C156.8 242.6 160.4 242.8 164 243.1C166.9 243.3 169.6 243.5 171.2 244.5C171.8 242 174 234.4 181 231.5C179 229.9 177.3 228 175.7 226C174.8 224.9 174.2 223.5 173.8 222.1C173.5 220.9 173.4 220.6 172.5 220.6C170.7 220.6 169.9 224.1 169.9 224.1C169.9 224.3 169.8 224.4 169.6 224.5C169.5 224.6 169.3 224.6 169.1 224.5C168.3 224 165.9 222.8 164.5 223.4C164 223.6 163.6 224.1 163.5 224.6C163.4 224.9 163.1 225 162.8 224.9C162.8 224.9 159.4 223.6 157.5 224.6C156.9 224.9 156.4 225.5 156.3 226.1C156.2 226.3 156 226.5 155.7 226.5C154.4 226.3 153 226.6 151.8 227.3C151.1 227.7 150.7 228.4 150.6 229.2C150.6 229.3 150.5 229.5 150.4 229.6C150.3 229.7 150.1 229.7 150 229.7C150 229.7 147.1 229.1 145.7 230.3C145.2 230.6 144.9 231.4 145 232.3Z" fill="#282828"/>
<path d="M175.2 229C175.1 229 175 228.9 174.9 228.9C173.1 227.2 171.1 225.7 169.1 224.4C168.9 224.3 168.8 224 168.9 223.7C169 223.5 169.3 223.4 169.6 223.5C171.7 224.9 173.7 226.4 175.6 228.2C175.8 228.4 175.8 228.7 175.6 228.9C175.4 228.9 175.3 229 175.2 229Z" fill="#282828"/>
<path d="M166.999 227.4C166.899 227.4 166.799 227.4 166.699 227.3C165.499 226.3 164.199 225.4 162.799 224.7C162.499 224.6 162.399 224.3 162.499 224.1C162.599 223.8 162.899 223.7 163.099 223.7C164.599 224.4 166.099 225.4 167.299 226.5C167.499 226.7 167.499 227 167.399 227.2C167.299 227.3 167.199 227.4 166.999 227.4Z" fill="#282828"/>
<path d="M158.9 228.7C158.7 228.7 158.6 228.6 158.5 228.5C157.7 227.5 156.7 226.7 155.5 226.3C155.2 226.2 155.1 225.9 155.2 225.7C155.3 225.4 155.6 225.3 155.8 225.4C157.2 225.9 158.4 226.8 159.3 228C159.5 228.2 159.4 228.5 159.2 228.7C159.1 228.6 159 228.7 158.9 228.7Z" fill="#282828"/>
<path d="M153.399 231.3C153.299 231.3 153.199 231.3 153.099 231.2C152.199 230.5 151.199 229.8 150.099 229.3C149.799 229.2 149.699 228.9 149.799 228.7C149.899 228.4 150.199 228.3 150.399 228.4C151.599 228.9 152.699 229.6 153.699 230.4C153.899 230.6 153.999 230.9 153.799 231.1C153.699 231.3 153.499 231.4 153.399 231.3Z" fill="#282828"/>
<path d="M181.899 231.5C185.399 230.1 188.999 235.4 191.899 238.4C194.799 241.4 211.799 255.9 211.799 255.9C211.799 255.9 201.499 223.9 203.999 212.4C206.499 200.9 217.099 187.6 234.599 183C252.099 178.4 284.399 176 309.599 179.1C327.299 181.2 338.899 183.5 344.099 184.7C346.099 185.2 347.699 186.7 348.299 188.7C348.299 188.7 341.699 183.5 332.199 193C322.699 202.5 301.499 229.4 302.199 257.8C302.199 257.8 298.599 259.6 295.799 255.7C292.999 251.8 250.499 231.8 238.099 227C238.099 227 246.999 269.3 238.099 283C229.199 296.7 205.499 288.3 192.299 275.2C179.099 262.1 169.699 255.5 171.499 245.3C172.499 239.2 176.399 234.1 181.899 231.5Z" fill="#6A90FF"/>
<path d="M238.1 224.7C237.9 224.7 237.7 224.6 237.6 224.3C235.2 216.7 231.3 211.4 226.2 208.7C222.4 206.8 218 206.5 213.9 207.9C213.6 208 213.4 207.9 213.3 207.6C213.2 207.3 213.4 207.1 213.6 207C217.9 205.5 222.6 205.8 226.6 207.9C231.9 210.6 236 216.2 238.5 224C238.6 224.3 238.5 224.5 238.2 224.6C238.2 224.7 238.1 224.7 238.1 224.7Z" fill="#282828"/>
<path d="M355 279.5C354.7 279.5 354.5 279.3 354.5 279C354.5 278.6 350.2 238.8 339.5 224.4C339.3 224.2 339.4 223.9 339.6 223.7C339.8 223.5 340.1 223.6 340.3 223.8C351.1 238.3 355.3 277.2 355.5 278.8C355.5 279.3 355.3 279.5 355 279.5C355.1 279.5 355.1 279.5 355 279.5Z" fill="#282828"/>
<path d="M390.7 368C392.6 370.3 396.6 374.4 399 377C400.4 378.4 401 380.5 400.5 382.5C399.6 386.5 397.2 393.5 390.8 402C384.3 410.7 378.5 414.3 375.4 415.7C373.8 416.5 372 416.5 370.4 415.7C366.9 414.1 360.5 410.2 360.9 404.2C361.3 397.2 368 382.4 370.2 377.8C370.6 376.9 371.4 376.3 372.3 376.2C375.8 375.6 384.4 373.7 388.6 368C389 367.4 390 367.4 390.7 368Z" fill="#6A90FF"/>
<path d="M373.3 415.2C373.1 415.2 372.9 415 372.8 414.8C372.8 414.6 371.8 410.2 376.1 402.5C380 395.4 391.3 381 397.2 379.6C398.1 379.3 399 379.5 399.8 380C400 380.1 400.1 380.5 399.9 380.7C399.7 380.9 399.4 381 399.2 380.8C398.7 380.5 398 380.4 397.4 380.6C392 382 380.9 396 377 403.1C373 410.4 373.8 414.6 373.9 414.7C374 415 373.8 415.2 373.5 415.3L373.3 415.2Z" fill="#282828"/>
<path d="M369.799 414.2C369.599 414.2 369.499 414.1 369.399 414C369.299 413.8 366.399 408.5 378.699 392.7C390.799 377.2 393.899 377 397.199 376.7H397.399C397.699 376.7 397.899 376.9 397.899 377.2C397.899 377.5 397.699 377.7 397.399 377.7H397.199C394.199 377.9 391.299 378.1 379.399 393.3C367.699 408.3 370.199 413.4 370.199 413.5C370.299 413.7 370.299 414 369.999 414.2C369.999 414.2 369.899 414.2 369.799 414.2Z" fill="#282828"/>
<path d="M388.099 382.9C387.999 382.9 387.799 382.8 387.699 382.7C386.099 380.7 385.699 378 386.599 375.5C387.499 373 389.599 371.2 392.199 370.7C392.499 370.7 392.699 370.8 392.799 371.1C392.899 371.4 392.699 371.6 392.399 371.7C390.099 372.1 388.299 373.6 387.499 375.8C386.699 377.9 387.099 380.2 388.499 382C388.699 382.2 388.599 382.5 388.399 382.7C388.299 382.8 388.199 382.8 388.099 382.9Z" fill="#282828"/>
<path d="M361 383.8C360.7 383.8 360.5 383.6 360.4 383.4C360.3 383.2 360.6 382.9 360.8 382.8L371.8 380C372.1 379.9 372.4 380.1 372.4 380.4C372.4 380.7 372.3 381 372 381L361 383.8Z" fill="#282828"/>
<path d="M361 388.6C360.7 388.6 360.5 388.4 360.4 388.2C360.3 388 360.6 387.7 360.8 387.6L371.8 384.8C372.1 384.7 372.3 384.9 372.4 385.2C372.5 385.5 372.3 385.7 372 385.8L361 388.6Z" fill="#282828"/>
<path d="M427.8 221.2L447.5 209.7C448.9 208.9 450.7 209.3 451.5 210.7L473 247C473.8 248.4 473.4 250.2 472 251C471.9 251.1 471.8 251.1 471.6 251.2L470.7 251.6C470.7 251.6 452.4 259.6 440.6 242.3C440.6 242.2 437.8 231.8 427.8 221.2Z" fill="#6A90FF"/>
<path d="M470 251.8C469.8 251.8 469.7 251.7 469.6 251.6L445.8 211.4C445.7 211.2 445.7 210.9 446 210.7C446.2 210.6 446.5 210.6 446.7 210.9L470.6 251.1C470.7 251.3 470.7 251.6 470.4 251.8C470.2 251.7 470.1 251.8 470 251.8Z" fill="#282828"/>
<path d="M446.799 222.3C443.599 222.3 439.599 221.1 436.299 216.2C436.099 216 436.199 215.7 436.399 215.5C436.599 215.3 436.899 215.4 437.099 215.6C442.899 224.4 451.299 220.4 451.699 220.2C451.899 220.1 452.199 220.2 452.399 220.4C452.499 220.6 452.399 220.9 452.199 221.1C450.499 221.9 448.599 222.3 446.799 222.3Z" fill="#282828"/>
<path d="M443.8 251.5C443.4 251.4 443.3 251.2 443.3 250.9L445.6 238.2C445.6 237.9 445.9 237.8 446.2 237.8C446.5 237.9 446.6 238.1 446.6 238.4L444.3 251.1C444.2 251.3 444 251.5 443.8 251.5Z" fill="#282828"/>
<path d="M447.8 254.7C447.4 254.6 447.3 254.4 447.3 254.1L449.6 241.4C449.6 241.1 449.9 240.9 450.2 241C450.5 241.1 450.7 241.3 450.6 241.6L448.3 254.3C448.2 254.5 448 254.7 447.8 254.7Z" fill="#282828"/>
<path d="M118.8 140C118.8 140 108.9 134.4 105.5 138.9C102.1 143.4 107.599 147.2 109.199 147C109.199 147 103 151.5 107.3 156.4C111.6 161.3 122.9 151.1 122.9 151.1L118.8 140Z" fill="#EDF1FE"/>
<path d="M110.4 158.2H110C108.8 158.2 107.7 157.6 106.9 156.7C105.7 155.5 105.2 153.8 105.3 152.1C105.6 150.2 106.6 148.5 108.1 147.2C106.6 146.6 105.4 145.5 104.6 144.1C103.6 142.3 103.8 140 105.2 138.5C108.9 133.8 118.8 139.3 119.2 139.5C119.3 139.6 119.4 139.7 119.4 139.8L123.5 150.9C123.6 151.1 123.5 151.3 123.4 151.4C122.9 151.7 115.6 158.2 110.4 158.2ZM109.2 146.4C109.4 146.4 109.6 146.5 109.7 146.7C109.8 146.9 109.7 147.2 109.5 147.3C109.5 147.3 106.6 149.4 106.3 152.2C106.2 153.6 106.7 155 107.6 156C108.2 156.7 109.1 157.1 110 157.2C114.4 157.5 120.9 152.1 122.2 150.9L118.3 140.3C117 139.6 108.7 135.4 105.8 139.1C104.7 140.3 104.5 142.2 105.3 143.6C106.4 145.4 108.4 146.5 109.2 146.4Z" fill="#282828"/>
<path d="M118.8 140C118.8 140 122.9 129.8 128.3 131.1C133.8 132.4 129.7 140 129.7 140C129.7 140 139.4 138.1 139.7 145C140 151.9 127.6 152.8 122.8 151.1L118.8 140Z" fill="#EDF1FE"/>
<path d="M128.1 152.3C126.3 152.3 124.4 152.1 122.7 151.5C122.6 151.4 122.5 151.3 122.4 151.2L118.3 140.1C118.3 140 118.3 139.9 118.3 139.7C118.5 139.3 122.6 129.1 128.4 130.5C129.6 130.7 130.7 131.5 131.3 132.7C132.3 134.8 131.2 137.8 130.6 139.3C132.3 139.1 136 138.9 138.3 140.8C139.6 141.8 140.3 143.3 140.3 144.9C140.4 146.8 139.4 148.7 137.8 149.8C135.3 151.6 131.5 152.3 128.1 152.3ZM123.2 150.7C126.5 151.7 133.5 151.6 137.1 149C138.4 148.1 139.2 146.6 139.2 145C139.2 143.7 138.6 142.4 137.6 141.6C134.9 139.5 129.8 140.5 129.8 140.5C129.6 140.5 129.4 140.5 129.3 140.3C129.2 140.1 129.2 139.9 129.3 139.8C129.3 139.8 131.5 135.7 130.4 133.2C130 132.3 129.2 131.7 128.2 131.6C123.6 130.5 119.9 138.7 119.3 140L123.2 150.7Z" fill="#282828"/>
<path d="M117.2 136.8L117.4 136.7C118.6 136.3 119.9 136.8 120.3 138L125 150.2C125.4 151.4 124.9 152.7 123.7 153.1L123.5 153.2C122.3 153.6 121 153.1 120.6 151.9L115.9 139.7C115.5 138.5 116.1 137.2 117.2 136.8Z" fill="#EDF1FE"/>
<path d="M122.8 153.9C121.7 153.9 120.6 153.2 120.2 152.1L115.5 139.9C115 138.5 115.7 136.9 117.1 136.3L117.3 136.2C118.7 135.7 120.3 136.4 120.9 137.8L125.7 150C126.2 151.4 125.5 153 124.1 153.6L123.9 153.7C123.5 153.8 123.1 153.9 122.8 153.9ZM118.2 137.1C118 137.1 117.8 137.1 117.6 137.2L117.4 137.3C116.5 137.7 116.1 138.7 116.4 139.6L121.1 151.8C121.5 152.7 122.5 153.1 123.4 152.8L123.6 152.7C124 152.5 124.4 152.2 124.6 151.8C124.8 151.4 124.8 150.9 124.6 150.5L119.9 138.3C119.6 137.5 118.9 137.1 118.2 137.1Z" fill="#282828"/>
<path d="M127 140.6C126.9 140.6 126.8 140.6 126.8 140.5C126.6 140.4 126.5 140.1 126.6 139.8C128.1 136.8 128 135 127.5 134.4C127.1 134.1 126.6 134 126.2 134.2C125.9 134.3 125.7 134.2 125.6 133.9C125.5 133.6 125.6 133.4 125.9 133.3C126.7 132.9 127.7 133.1 128.3 133.7C128.9 134.4 129.6 136.1 127.6 140.2C127.4 140.5 127.2 140.6 127 140.6Z" fill="#282828"/>
<path d="M127.1 149.4C126.8 149.4 126.6 149.2 126.6 148.9C126.6 148.6 126.8 148.4 127.1 148.4C130.4 148.4 135.7 147.7 136.1 145.7C136.2 145.2 136.2 144.7 135.8 144.2C135.1 143.3 133.3 143 132.7 143C132.4 143 132.2 142.8 132.2 142.5C132.2 142.2 132.4 142 132.7 142C132.8 142 135.4 142.1 136.6 143.6C137.1 144.3 137.3 145.1 137 145.9C136.3 149.3 128 149.4 127.1 149.4Z" fill="#282828"/>
<path d="M110.899 144.9H110.799C109.399 144.5 108.299 143.4 107.799 142C107.699 141.2 107.999 140.5 108.599 140.1C110.599 138.6 116.099 140.5 116.699 140.7C116.999 140.8 117.099 141.1 116.999 141.4C116.899 141.7 116.599 141.8 116.299 141.7C114.099 140.9 110.299 140.1 109.099 140.9C108.799 141.1 108.599 141.5 108.699 141.8C109.099 142.8 109.899 143.6 110.999 143.9C111.299 144 111.399 144.2 111.399 144.5C111.299 144.8 111.099 144.9 110.899 144.9Z" fill="#282828"/>
<path d="M111.899 154.6C110.999 154.6 110.199 154.2 109.599 153.6C108.899 152.8 108.599 151.7 108.999 150.7C109.099 150.4 109.399 150.3 109.699 150.4C109.899 150.5 110.099 150.8 109.999 151C109.799 151.6 109.999 152.3 110.399 152.8C111.099 153.4 111.999 153.6 112.899 153.3C115.399 152.5 119.299 148.9 119.399 148.8C119.599 148.6 119.899 148.7 120.099 148.9C120.199 149.1 120.199 149.3 120.099 149.5C119.899 149.7 115.999 153.3 113.299 154.2C112.699 154.5 112.299 154.6 111.899 154.6Z" fill="#282828"/>
<path d="M118.499 138.3C118.299 138.3 118.099 138.1 117.999 137.9C117.899 137.6 116.199 129.9 117.999 125.2C119.299 121.8 121.199 121.5 121.999 121.5C123.199 121.6 124.099 122.5 124.399 123.6C124.699 124.6 124.399 125.6 123.499 126.3C122.699 126.9 121.699 127 120.899 126.6C120.699 126.5 120.599 126.2 120.699 125.9C120.799 125.7 121.099 125.6 121.399 125.7C121.899 125.9 122.499 125.8 122.899 125.4C123.399 125 123.599 124.4 123.399 123.8C123.299 123.1 122.699 122.5 121.899 122.4C120.799 122.3 119.699 123.5 118.899 125.4C117.199 129.7 118.899 137.4 118.899 137.5C118.999 137.9 118.799 138.2 118.499 138.3C118.599 138.2 118.599 138.2 118.499 138.3Z" fill="#282828"/>
<path d="M117.199 138.9C116.999 138.9 116.799 138.8 116.699 138.6C116.699 138.5 113.099 129.2 109.799 127.8C108.699 127.2 107.299 127.5 106.599 128.6C105.899 129.4 105.899 130.6 106.599 131.4C107.099 132 107.999 132.1 108.599 131.6C109.199 131.2 109.599 130.5 109.399 130.2C109.299 129.9 109.399 129.7 109.699 129.6C109.899 129.5 110.199 129.6 110.299 129.9C110.499 130.9 110.099 132 109.099 132.5C108.099 133.2 106.699 133.1 105.799 132.2C104.799 131 104.799 129.3 105.699 128.1C106.699 126.7 108.599 126.2 110.199 127C113.899 128.6 117.499 138 117.599 138.4C117.699 138.7 117.599 138.9 117.299 139C117.299 138.8 117.299 138.9 117.199 138.9Z" fill="#282828"/>
<path d="M124.4 160.2C124.2 160.2 123.9 160 123.9 159.8C123.8 159.2 123.7 158.5 123.5 157.9C123.4 157.6 123.6 157.4 123.9 157.3C124.2 157.2 124.4 157.4 124.5 157.7C124.7 158.4 124.8 159.1 124.9 159.7C124.9 159.9 124.8 160.1 124.4 160.2Z" fill="#282828"/>
<path d="M133.8 208C133.7 208 133.7 208 133.6 208C133.4 207.9 133.2 207.6 133.3 207.4C133.8 206.3 134.3 205.2 134.7 204C134.8 203.7 135.1 203.6 135.3 203.7C135.5 203.8 135.7 204.1 135.6 204.3C135.1 205.5 134.6 206.7 134.2 207.8C134.2 207.9 134 208 133.8 208ZM136.3 201H136.2C135.9 200.9 135.8 200.7 135.8 200.4C136.1 199.2 136.3 198 136.3 196.8C136.3 196.5 136.6 196.3 136.8 196.3C137.1 196.3 137.3 196.6 137.3 196.8C137.2 198.1 137.1 199.3 136.7 200.6C136.7 200.8 136.5 200.9 136.3 201ZM136.2 193.2C136 192 135.8 190.8 135.5 189.6C135.4 189.3 135.6 189.1 135.8 189C136.1 188.9 136.3 189.1 136.4 189.3C136.7 190.5 137 191.7 137.2 192.9L136.7 193.1L136.2 193.2ZM134.5 186.5C134.3 186.5 134.2 186.4 134.1 186.2C133.5 185.2 132.8 184.2 132 183.3C131.8 183.1 131.8 182.8 132 182.6C132.2 182.4 132.5 182.4 132.7 182.6C132.7 182.6 132.7 182.6 132.7 182.7C133.6 183.6 134.4 184.7 135 185.8C135.1 186 135.1 186.3 134.8 186.5C134.7 186.4 134.6 186.4 134.5 186.5ZM129.7 180.9C129.6 180.9 129.4 180.9 129.4 180.8C128.6 180.1 127.7 179.2 126.8 178.2C126.6 178 126.6 177.7 126.8 177.5C127 177.3 127.3 177.3 127.5 177.5C128.5 178.5 129.3 179.4 130.1 180.1C130.3 180.3 130.3 180.6 130.1 180.8C129.9 180.7 129.8 180.8 129.7 180.9ZM125 175C124.8 175 124.6 174.9 124.5 174.7C124 173.5 123.8 172.2 123.8 170.9C123.8 170.6 124 170.4 124.3 170.4C124.6 170.4 124.8 170.6 124.8 170.9C124.8 172.1 125 173.3 125.4 174.4C125.5 174.7 125.4 174.9 125.1 175C125.1 175 125.1 175 125 175ZM124.5 167.6C124.2 167.6 124 167.3 124 167.1C124.1 165.9 124.2 164.8 124.2 163.6V163.4C124.2 163.1 124.4 162.9 124.7 162.9C125 162.9 125.2 163.1 125.2 163.4V163.6C125.2 164.8 125.1 166 125 167.2C125 167.4 124.8 167.6 124.5 167.6Z" fill="#282828"/>
<path d="M131.899 213.4C131.499 213.3 131.399 213.1 131.399 212.8C131.499 212.1 131.699 211.5 131.899 210.8C131.999 210.6 132.299 210.4 132.599 210.6C132.799 210.7 132.899 210.9 132.899 211.2C132.699 211.8 132.499 212.4 132.399 213.1C132.299 213.2 132.099 213.4 131.899 213.4Z" fill="#282828"/>
</svg>
