<svg width="500" height="500" viewBox="0 0 500 500" fill="none" xmlns="http://www.w3.org/2000/svg">
<path fill-rule="evenodd" clip-rule="evenodd" d="M270.05 0.240552C344.883 -3.24167 421.308 31.3109 464.883 89.0399C504.216 141.15 474.104 209.557 476.371 273.579C478.792 341.931 526.967 420.316 478.409 470.93C429.657 521.745 342.498 490.99 270.05 488.635C201.743 486.416 127.798 499.53 75.5119 457.839C20.2249 413.755 -3.15276 341.951 0.338943 273.579C3.6813 208.132 46.2279 154.194 93.4637 106.323C142.941 56.1805 197.676 3.6083 270.05 0.240552Z" fill="#EDF1FE"/>
<path d="M228.9 243.2C228.4 242.76 227.9 242.32 227.4 241.88" stroke="#282828" stroke-linecap="round" stroke-linejoin="round"/>
<path d="M224.41 239.24C213.17 229.23 202.28 218.76 193.35 206.66C183.23 192.96 175.69 176.95 174.27 159.98C173.6 152.02 174.4 143.62 178.58 136.81C182.37 130.64 188.58 126.32 195.08 123.12C198.36 121.5 217.71 117.55 226.62 131.49C234.26 143.44 235.94 173.83 210.98 178.11C198.78 180.2 186.2 180.7 174.44 176.81C162.68 172.92 152.64 163.93 147.82 152.52C145.45 146.91 144.32 140.84 143.83 134.77C143.17 126.57 143.68 118.11 146.83 110.51C151.54 99.17 161.45 90.07 172.96 85.78C212.9 70.92 255.24 82.23 283.66 82.68" stroke="#282828" stroke-linecap="round" stroke-linejoin="round"/>
<path d="M285.67 82.6902C286.34 82.6902 287.01 82.6802 287.67 82.6602" stroke="#282828" stroke-linecap="round" stroke-linejoin="round"/>
<path d="M331.69 71.2498C331.19 73.6198 330.3 75.8798 329.29 78.0898C326.21 76.5298 321.78 75.5498 316.86 75.5498C311.51 75.5498 306.75 76.7098 303.66 78.5098C299.48 72.4198 297.85 59.1898 304.88 57.1798C310.6 55.5498 313.93 66.2498 315.02 70.0498C314.64 65.5098 316.29 60.8298 319.44 57.5398C319.93 57.0298 320.46 56.5498 321.1 56.2598C321.84 55.9198 322.69 55.8798 323.51 55.9598C326.75 56.2898 329.57 58.6898 330.93 61.6598C332.3 64.6198 332.36 68.0598 331.69 71.2498Z" fill="#EDF1FE" stroke="#282828" stroke-linecap="round" stroke-linejoin="round"/>
<path d="M333.71 83.3697C333.71 85.8597 331.18 88.0797 327.25 89.5097V77.2197C327.98 77.4797 328.66 77.7697 329.29 78.0897C332.03 79.4897 333.71 81.3397 333.71 83.3697Z" fill="#6A90FF" stroke="#282828" stroke-linecap="round" stroke-linejoin="round"/>
<path d="M327.25 77.2198V89.5098C324.39 90.5498 320.78 91.1798 316.86 91.1798H316.75V75.5498H316.86C320.78 75.5498 324.39 76.1698 327.25 77.2198Z" fill="#EDF1FE" stroke="#282828" stroke-linecap="round" stroke-linejoin="round"/>
<path d="M316.75 75.5498V91.1798C312.67 91.1798 308.95 90.4798 306.05 89.3498V77.3798C308.95 76.2498 312.68 75.5598 316.75 75.5498Z" fill="#6A90FF" stroke="#282828" stroke-linecap="round" stroke-linejoin="round"/>
<path d="M306.05 77.3799V89.3499C302.36 87.9299 300.01 85.7799 300.01 83.3699C300.01 81.5299 301.38 79.8499 303.66 78.5099C304.37 78.0999 305.17 77.7099 306.05 77.3799Z" fill="#EDF1FE" stroke="#282828" stroke-linecap="round" stroke-linejoin="round"/>
<path d="M60.5904 193.34H149.18C153.63 193.34 158.24 195.84 161.01 199.77L176.08 221.06C178.86 224.98 183.46 227.49 187.91 227.49H271.1C277.45 227.49 283.72 232.51 285.1 238.71L306.78 335.79C308.16 341.99 304.14 347.01 297.79 347.01H94.9104C88.5604 347.01 82.2904 341.99 80.9104 335.79L51.6004 204.57C50.2204 198.37 54.2404 193.35 60.5904 193.35V193.34Z" fill="#6A90FF"/>
<path d="M60.5904 193.34H149.18C153.63 193.34 158.24 195.84 161.01 199.77L176.08 221.06C178.86 224.98 183.46 227.49 187.91 227.49H271.1C277.45 227.49 283.72 232.51 285.1 238.71L306.78 335.79C308.16 341.99 304.14 347.01 297.79 347.01H94.9104C88.5604 347.01 82.2904 341.99 80.9104 335.79L51.6004 204.57C50.2204 198.37 54.2404 193.35 60.5904 193.35V193.34Z" fill="#6A90FF" stroke="#282828" stroke-linecap="round" stroke-linejoin="round"/>
<path d="M60.5904 193.34H149.18C153.63 193.34 158.24 195.84 161.01 199.77L176.08 221.06C178.86 224.98 183.46 227.49 187.91 227.49H271.1C277.45 227.49 283.72 232.51 285.1 238.71L306.78 335.79C308.16 341.99 304.14 347.01 297.79 347.01H94.9104C88.5604 347.01 82.2904 341.99 80.9104 335.79L51.6004 204.57C50.2204 198.37 54.2404 193.35 60.5904 193.35V193.34Z" stroke="#282828" stroke-linecap="round" stroke-linejoin="round"/>
<path d="M321.44 205.77H118.42C114.15 205.77 110.5 208.86 109.81 213.08L89.1602 338.38C88.3802 343.14 92.0502 347 97.3602 347H297.64C303.61 347 309.16 342.66 310.04 337.31L330.05 215.91C330.93 210.6 326.83 205.77 321.44 205.77Z" fill="#EDF1FE" stroke="#282828" stroke-linecap="round" stroke-linejoin="round"/>
<path d="M273.48 273.37H183.77C178.209 273.37 173.7 277.878 173.7 283.44C173.7 289.001 178.209 293.51 183.77 293.51H273.48C279.042 293.51 283.55 289.001 283.55 283.44C283.55 277.878 279.042 273.37 273.48 273.37Z" fill="#EDF1FE" stroke="#282828" stroke-linecap="round" stroke-linejoin="round"/>
<path d="M256.93 360.97C258.24 360.97 259.55 360.47 260.55 359.47C262.55 357.47 262.55 354.23 260.55 352.23L219.71 311.39C217.71 309.39 214.47 309.39 212.47 311.39C210.47 313.39 210.47 316.63 212.47 318.63L253.31 359.47C254.31 360.47 255.62 360.97 256.93 360.97Z" fill="#282828" stroke="#282828" stroke-linecap="round" stroke-linejoin="round"/>
<path d="M272.33 378.92C274.3 378.92 276.26 378.17 277.76 376.67C280.76 373.67 280.76 368.81 277.76 365.81L233.92 321.97C230.92 318.97 226.06 318.97 223.06 321.97C220.06 324.97 220.06 329.83 223.06 332.83L266.9 376.67C268.4 378.17 270.37 378.92 272.33 378.92Z" fill="#6A90FF" stroke="#282828" stroke-linecap="round" stroke-linejoin="round"/>
<path d="M130.71 283.6C130.71 255.41 153.65 232.47 181.84 232.47C210.03 232.47 232.97 255.41 232.97 283.6C232.97 311.79 210.03 334.73 181.84 334.73C153.65 334.73 130.71 311.79 130.71 283.6ZM140.95 283.6C140.95 306.15 159.29 324.49 181.84 324.49C204.39 324.49 222.73 306.15 222.73 283.6C222.73 261.05 204.39 242.71 181.84 242.71C159.29 242.71 140.95 261.05 140.95 283.6Z" fill="#EDF1FE" stroke="#282828" stroke-linecap="round" stroke-linejoin="round"/>
</svg>
