<svg width="500" height="500" viewBox="0 0 500 500" fill="none" xmlns="http://www.w3.org/2000/svg">
<path fill-rule="evenodd" clip-rule="evenodd" d="M234.352 0.3792C306.002 4.20304 364.487 50.0919 413.505 100.723C460.5 149.264 494.796 207.465 499.063 273.801C503.622 344.67 492.867 423.399 437.246 469.815C383.613 514.572 305.223 494.818 234.352 494.702C163.685 494.586 82.1159 517.423 32.1428 469.153C-17.8315 420.882 5.2886 342.072 5.65833 273.801C6.02481 206.133 -9.77567 133.116 34.2477 80.4827C81.4217 24.0823 159.409 -3.62038 234.352 0.3792Z" fill="#EDF1FE"/>
<path d="M410.78 332.02H82.1904C81.9104 332.02 81.6904 331.8 81.6904 331.52C81.6904 331.24 81.9104 331.02 82.1904 331.02H410.78C411.06 331.02 411.28 331.24 411.28 331.52C411.28 331.8 411.06 332.02 410.78 332.02Z" fill="#282828"/>
<path d="M257.531 202.67C227.011 206.63 201.151 213.48 193.061 239.95C184.961 266.42 165.341 331.52 165.341 331.52H340.691L337.581 315.32C337.581 315.32 354.401 306.91 350.041 286.35C345.681 265.79 326.141 213.3 297.291 207C268.441 200.7 257.541 202.66 257.541 202.66L257.531 202.67Z" fill="#6A90FF"/>
<path d="M216.45 150.79C213.12 168.66 207.03 184.47 206.62 194.15C206.21 203.83 211.54 212.93 211.54 212.93L242.93 208.04L244.3 191.93L216.45 150.8V150.79Z" fill="white"/>
<path d="M211.541 213.42C211.361 213.42 211.201 213.33 211.111 213.17C210.891 212.79 205.711 203.83 206.121 194.12C206.351 188.75 208.291 181.55 210.551 173.2C212.381 166.42 214.461 158.73 215.961 150.69C216.001 150.49 216.151 150.33 216.351 150.29C216.541 150.25 216.751 150.33 216.871 150.5L244.721 191.63C244.781 191.72 244.811 191.84 244.801 191.95L243.431 208.06C243.411 208.29 243.241 208.48 243.011 208.51L211.621 213.4C211.621 213.4 211.571 213.4 211.541 213.4V213.42ZM216.711 152.07C215.221 159.72 213.261 167 211.511 173.47C209.271 181.76 207.341 188.91 207.121 194.17C206.761 202.62 210.921 210.75 211.811 212.38L242.471 207.6L243.791 192.06L216.711 152.07Z" fill="#282828"/>
<path d="M261.95 185.55C262.61 196.77 264.42 209.79 264.42 209.79C264.42 209.79 261.76 220.41 250.72 221.44C239.68 222.46 239.24 213.03 239.25 211.08C239.25 209.13 242.31 197.69 242.56 195.58C242.81 193.47 261.95 185.55 261.95 185.55Z" fill="white"/>
<path d="M249.1 222.01C246.14 222.01 243.76 221.2 242 219.59C239.04 216.88 238.74 212.73 238.75 211.07C238.75 209.9 239.73 205.78 240.67 201.81C241.33 199.02 241.96 196.39 242.06 195.51C242.32 193.28 257.2 186.96 261.76 185.08C261.91 185.02 262.08 185.03 262.22 185.12C262.36 185.21 262.44 185.35 262.45 185.51C263.11 196.58 264.9 209.58 264.92 209.71C264.92 209.77 264.92 209.84 264.92 209.9C264.89 210.01 262.04 220.88 250.78 221.92C250.21 221.97 249.66 222 249.12 222L249.1 222.01ZM261.5 186.28C252.59 189.99 243.41 194.44 243.06 195.65C242.95 196.57 242.35 199.11 241.65 202.05C240.81 205.6 239.76 210.03 239.75 211.09C239.75 212.61 240.01 216.42 242.68 218.86C244.54 220.56 247.23 221.26 250.67 220.94C260.71 220.01 263.62 210.77 263.91 209.76C263.74 208.54 262.15 196.71 261.49 186.28H261.5Z" fill="#282828"/>
<path d="M218.26 187.95C227.21 197.55 247.45 198.85 260.25 189.74H260.26C262.42 187.64 264.04 185.06 265.08 182.25C269.14 171.41 263.64 159.3 253.03 154.67L252.42 154.41C251.1 153.89 249.84 153.34 248.65 152.76L248.61 152.74C244.89 150.96 241.76 148.95 239.24 147.07C239.18 147.03 239.12 146.99 239.07 146.95C234.79 143.72 232.29 140.86 231.58 139.97H231.57C231.49 139.87 231.44 139.8 231.4 139.76C231.37 139.72 231.35 139.7 231.35 139.7C229.32 147.08 216.8 150.69 216.45 150.79C213.95 159.07 209.42 178.47 218.25 187.95H218.26Z" fill="white"/>
<path d="M239.651 196.35C231.111 196.35 222.861 193.62 217.891 188.29C208.841 178.58 213.531 158.73 215.971 150.65C216.021 150.49 216.151 150.36 216.311 150.31C216.431 150.27 228.901 146.7 230.861 139.57C230.911 139.39 231.051 139.26 231.231 139.22C231.411 139.18 231.591 139.24 231.721 139.38C231.721 139.38 231.791 139.46 231.791 139.47C231.811 139.5 231.851 139.55 231.911 139.61C231.931 139.63 231.951 139.65 231.961 139.66C232.411 140.22 234.901 143.19 239.371 146.55C239.421 146.59 239.471 146.63 239.521 146.66C242.431 148.84 245.561 150.73 248.831 152.29C250.061 152.88 251.321 153.43 252.601 153.94L253.221 154.21C264.251 159.02 269.661 171.42 265.541 182.42C264.431 185.4 262.771 187.98 260.601 190.08C254.701 194.29 247.061 196.35 239.651 196.35ZM218.621 187.61C227.601 197.23 247.681 198.07 259.951 189.33C262.021 187.28 263.571 184.87 264.611 182.07C268.541 171.56 263.371 159.72 252.831 155.12L252.221 154.86C250.931 154.35 249.641 153.79 248.431 153.2C245.071 151.59 241.891 149.67 238.941 147.46C238.891 147.43 238.821 147.38 238.761 147.33C234.891 144.41 232.461 141.77 231.541 140.69C228.961 147.26 218.691 150.62 216.851 151.18C214.441 159.26 210.011 178.36 218.621 187.6V187.61Z" fill="#282828"/>
<path d="M240.771 159.2C242.381 155.52 246.601 153.6 248.781 157.87C249.291 158.84 249.581 159.86 249.751 160.87C249.801 161.14 249.611 161.41 249.341 161.45C249.121 161.49 248.901 161.37 248.801 161.18C248.351 160.3 247.901 159.44 247.401 158.68C245.561 155.62 243.311 157.84 241.591 159.73C241.231 160.17 240.501 159.68 240.761 159.18L240.771 159.2Z" fill="#282828"/>
<path d="M220.38 156C222.23 152.53 226.69 151.23 229.15 154.84C229.82 155.73 230.23 156.76 230.57 157.81C230.65 158.07 230.51 158.36 230.24 158.44C230.03 158.51 229.81 158.43 229.68 158.26C229.37 157.83 229.1 157.38 228.82 156.96C226.53 153.43 223.93 153.75 221.18 156.59C220.8 157.02 220.09 156.5 220.38 156.01V156Z" fill="#282828"/>
<path d="M227.67 175.41C226.17 175.41 224.51 174.58 224.29 172.22C224.2 171.22 224.47 170.38 225.1 169.73C226.3 168.49 228.49 168.33 229.45 168.32C229.59 167.01 229.95 162.95 229.61 158.05C229.59 157.77 229.8 157.54 230.07 157.52C230.33 157.48 230.58 157.71 230.6 157.98C231.02 164.04 230.39 168.84 230.38 168.89C230.34 169.15 230.11 169.34 229.85 169.32C229.82 169.32 227.02 169.16 225.8 170.42C225.38 170.86 225.2 171.41 225.27 172.12C225.47 174.21 227.06 174.42 227.7 174.4C229.28 174.38 231.06 173.22 231.18 171.38C231.2 171.1 231.44 170.88 231.71 170.91C231.99 170.93 232.19 171.17 232.18 171.44C232.02 173.85 229.74 175.37 227.72 175.39H227.67V175.41Z" fill="#282828"/>
<path d="M245.69 166.59C246.08 168.35 245.4 169.97 244.19 170.24C242.98 170.51 241.69 169.31 241.3 167.55C241.19 167.03 241.17 166.5 241.24 166.03L243.57 166.7L242.02 164.35C242.24 164.13 242.5 163.99 242.8 163.92C244.01 163.66 245.3 164.85 245.69 166.59Z" fill="#282828"/>
<path d="M223.671 163.49C224.221 165.2 223.701 166.89 222.531 167.27C221.341 167.65 219.951 166.58 219.401 164.87C219.241 164.36 219.171 163.84 219.191 163.36L221.571 163.8L219.801 161.61C220.001 161.37 220.241 161.2 220.541 161.11C221.721 160.73 223.121 161.8 223.671 163.49Z" fill="#282828"/>
<path d="M235.92 182.56C235.92 182.56 235.87 182.56 235.84 182.56C235.57 182.52 235.38 182.26 235.42 181.99C235.72 180.07 236.51 178.78 237.77 178.17C239.9 177.13 242.82 178.31 244.9 179.48C245.14 179.62 245.23 179.92 245.09 180.16C244.95 180.4 244.65 180.48 244.41 180.35C242.88 179.49 240.04 178.18 238.21 179.07C237.26 179.53 236.66 180.56 236.41 182.15C236.37 182.4 236.16 182.57 235.92 182.57V182.56Z" fill="#282828"/>
<path d="M248.611 153.24C248.541 153.24 248.481 153.23 248.411 153.2C245.251 151.82 242.061 149.89 238.931 147.47C238.711 147.3 238.671 146.99 238.841 146.77C239.011 146.55 239.321 146.51 239.541 146.67C242.441 148.83 245.561 150.73 248.831 152.29C249.081 152.41 249.181 152.7 249.071 152.95C248.991 153.13 248.801 153.24 248.611 153.24Z" fill="#282828"/>
<path d="M208.2 151.86C208.2 151.86 227.16 152.08 231.35 139.7C231.35 139.7 231.37 139.72 231.4 139.76C231.44 139.8 231.49 139.87 231.57 139.96H231.58C232.37 140.86 235.09 143.85 239.07 146.95C239.12 146.99 239.18 147.04 239.24 147.07C241.76 148.95 244.89 150.96 248.61 152.74L248.65 152.76L252.42 154.41L253.03 154.67C263.64 159.3 269.14 171.41 265.08 182.25C264.04 185.06 262.42 187.64 260.26 189.72H260.25C251.64 198.09 251.33 207.97 251.33 207.97C251.33 207.97 269.25 203.33 286.07 207.53C302.9 211.72 287.55 151.6 271.89 134.45C256.24 117.31 241.25 120.11 237.2 122.37C237.2 122.37 230.51 116.4 221.63 126.56C213.29 136.11 208.19 151.85 208.19 151.85L208.2 151.86Z" fill="white"/>
<path d="M251.33 208.47C251.22 208.47 251.11 208.43 251.02 208.36C250.9 208.26 250.83 208.11 250.83 207.95C250.84 207.54 251.25 197.78 259.9 189.37C261.98 187.36 263.56 184.91 264.61 182.06C268.54 171.55 263.37 159.71 252.83 155.11L248.45 153.2C245.07 151.59 241.89 149.66 238.94 147.46C238.89 147.43 238.82 147.38 238.76 147.33C235.26 144.61 232.7 141.95 231.52 140.65C229.56 145.46 225.02 149 218.33 150.89C213.06 152.39 208.38 152.34 208.19 152.35C208.03 152.35 207.88 152.27 207.79 152.14C207.7 152.01 207.67 151.85 207.72 151.69C207.77 151.53 212.95 135.75 221.26 126.23C224.6 122.4 228.04 120.35 231.48 120.14C234.47 119.94 236.54 121.24 237.26 121.77C241.81 119.49 256.88 117.25 272.26 134.1C286.02 149.17 298.62 194.59 292.08 205.56C290.73 207.82 288.62 208.66 285.95 208C269.44 203.89 251.63 208.4 251.45 208.44C251.41 208.45 251.37 208.46 251.33 208.46V208.47ZM231.92 139.61C231.92 139.61 231.94 139.63 231.95 139.64C232.92 140.73 235.58 143.6 239.38 146.55C239.42 146.58 239.47 146.62 239.53 146.66C242.44 148.84 245.57 150.73 248.84 152.29L253.24 154.21C264.27 159.02 269.68 171.42 265.56 182.42C264.45 185.4 262.79 187.98 260.62 190.08C253.52 196.98 252.15 205 251.9 207.32C255.35 206.53 271.29 203.32 286.21 207.04C288.47 207.6 290.11 206.95 291.24 205.06C297.48 194.59 284.77 149.28 271.54 134.78C256.24 118.02 241.44 120.58 237.46 122.8C237.27 122.9 237.04 122.88 236.88 122.74C236.86 122.72 234.82 120.93 231.52 121.14C228.37 121.34 225.17 123.28 222.02 126.89C214.81 135.14 209.98 148.24 208.91 151.34C212.33 151.22 227.3 150.1 230.88 139.54C230.94 139.37 231.08 139.25 231.25 139.21C231.43 139.17 231.6 139.23 231.72 139.37C231.72 139.37 231.79 139.45 231.79 139.46C231.8 139.46 231.85 139.53 231.92 139.61Z" fill="#282828"/>
<path d="M299.8 215.93C299.72 218.98 300.1 222.19 301.82 224.72C295.44 228.9 280.29 229.57 280.29 229.57L277.41 223.91C274.1 217.4 271.15 210.29 271.9 203.03C271.98 202.28 272.11 201.49 272.51 200.84C272.92 200.19 273.66 199.69 274.42 199.78C275.21 199.89 275.76 200.55 276.09 201.29C276.29 198.99 276.71 196.71 277.39 194.5C277.72 194.5 278.05 194.5 278.39 194.52C278.75 194.55 279.13 194.6 279.49 194.71C279.04 194.96 278.65 195.31 278.34 195.74C277.86 196.4 277.71 197.42 278.29 197.98C278.6 198.27 279.03 198.37 279.44 198.43C281.29 198.71 283.17 198.45 285.05 198.45C286.37 198.45 287.74 198.59 288.93 199.1C291.77 198.8 294.98 198.62 297.27 200.15C297.6 200.36 297.91 200.62 298.19 200.91C299.67 202.41 300.14 204.64 300.24 206.75C300.38 209.8 299.87 212.85 299.79 215.91L299.8 215.93Z" fill="white"/>
<path d="M280.3 230.08C280.11 230.08 279.94 229.97 279.85 229.81L276.97 224.15C273.79 217.88 270.64 210.47 271.41 202.99C271.49 202.18 271.64 201.33 272.09 200.59C272.65 199.7 273.6 199.18 274.48 199.3C274.94 199.36 275.37 199.57 275.74 199.92C275.98 197.99 276.38 196.13 276.92 194.37C276.98 194.16 277.17 194.02 277.39 194.02C277.73 194.02 278.09 194.02 278.43 194.04C278.93 194.08 279.3 194.15 279.64 194.25C279.83 194.31 279.97 194.48 279.99 194.67C280.01 194.87 279.91 195.06 279.74 195.16C279.34 195.39 279.01 195.68 278.75 196.04C278.4 196.52 278.26 197.27 278.64 197.63C278.83 197.81 279.13 197.89 279.52 197.95C280.73 198.13 281.94 198.08 283.23 198.02C283.83 197.99 284.44 197.96 285.04 197.96C286.65 197.94 287.92 198.16 289 198.6C291.89 198.3 295.14 198.14 297.54 199.75C297.89 199.98 298.24 200.26 298.54 200.58C299.88 201.95 300.6 203.97 300.73 206.75C300.82 208.63 300.66 210.51 300.51 212.34C300.41 213.52 300.31 214.75 300.28 215.94C300.18 219.6 300.81 222.37 302.22 224.43C302.3 224.54 302.32 224.68 302.3 224.81C302.28 224.94 302.2 225.06 302.08 225.13C295.66 229.34 280.92 230.04 280.3 230.07H280.28L280.3 230.08ZM274.24 200.28C273.71 200.28 273.21 200.69 272.94 201.12C272.59 201.68 272.48 202.4 272.4 203.09C271.65 210.29 274.58 217.25 277.86 223.7L280.59 229.07C282.75 228.95 295.24 228.08 301.13 224.58C299.8 222.4 299.2 219.56 299.3 215.93C299.33 214.7 299.43 213.47 299.53 212.27C299.68 210.48 299.83 208.62 299.74 206.81C299.62 204.29 299 202.48 297.83 201.29C297.57 201.02 297.29 200.79 296.99 200.6C294.83 199.15 291.72 199.34 288.97 199.62C288.89 199.62 288.8 199.62 288.72 199.58C287.76 199.17 286.59 198.97 285.12 198.97H285.04C284.45 198.97 283.86 199 283.27 199.03C281.99 199.09 280.67 199.15 279.36 198.95C278.86 198.87 278.34 198.74 277.94 198.37C277.13 197.6 277.33 196.3 277.92 195.47C278.03 195.32 278.15 195.17 278.28 195.04C278.11 195.03 277.93 195.02 277.76 195.02C277.17 197.02 276.77 199.15 276.58 201.35C276.56 201.58 276.39 201.76 276.17 201.8C275.94 201.84 275.72 201.72 275.63 201.51C275.44 201.09 275.02 200.38 274.35 200.29C274.31 200.29 274.27 200.29 274.23 200.29L274.24 200.28Z" fill="#282828"/>
<path d="M297.28 200.17C294.99 198.64 291.78 198.82 288.94 199.12C287.75 198.61 286.37 198.46 285.06 198.47C283.19 198.47 281.31 198.73 279.45 198.45C279.04 198.38 278.61 198.29 278.3 198C277.71 197.44 277.87 196.42 278.35 195.76C278.65 195.33 279.05 194.99 279.5 194.73C280.35 194.23 281.38 194 282.38 193.92C284.21 193.78 286.05 194.02 287.85 194.34C289.39 194.63 290.96 194.97 292.39 195.58C293.17 195.89 293.9 196.28 294.58 196.77C295.77 197.62 296.76 198.83 297.28 200.18V200.17Z" fill="white"/>
<path d="M297.53 199.74C295.47 198.41 292.93 198.31 290.56 198.47C289.93 198.51 289.29 198.66 288.67 198.47C287.99 198.26 287.31 198.11 286.61 198.03C285.2 197.88 283.78 198 282.37 198.05C281.64 198.08 280.91 198.08 280.18 198.02C279.55 197.97 278.54 197.94 278.43 197.14C278.25 195.86 279.8 194.99 280.81 194.69C283.54 193.87 286.78 194.53 289.48 195.17C292.47 195.87 295.58 197.25 296.8 200.29C297.04 200.88 298 200.62 297.76 200.02C296.62 197.18 294.1 195.51 291.27 194.61C289.71 194.11 288.07 193.81 286.45 193.59C284.83 193.37 283.21 193.25 281.6 193.49C280.26 193.69 278.88 194.22 278.03 195.32C277.34 196.21 277.09 197.65 278.08 198.44C278.54 198.8 279.13 198.89 279.69 198.96C280.58 199.07 281.47 199.07 282.37 199.04C284.06 198.98 285.79 198.8 287.46 199.16C287.89 199.25 288.29 199.43 288.71 199.54C289.08 199.64 289.47 199.54 289.85 199.51C290.67 199.44 291.49 199.39 292.31 199.4C293.96 199.42 295.62 199.67 297.03 200.59C297.57 200.94 298.07 200.08 297.53 199.73V199.74Z" fill="#282828"/>
<path d="M292.4 195.57C290.97 194.96 289.4 194.62 287.86 194.33C286.06 194.01 284.22 193.77 282.39 193.91C281.39 193.99 280.36 194.21 279.51 194.72C279.16 194.61 278.78 194.56 278.41 194.53C278.08 194.51 277.74 194.5 277.41 194.51C276.56 194.51 275.71 194.54 274.89 194.4C274.48 194.33 274 194.11 273.99 193.7C273.99 193.62 274.01 193.56 274.03 193.5C274.07 193.39 274.14 193.29 274.21 193.19C275 192.16 276.26 191.62 277.51 191.28C279.53 190.73 281.65 190.61 283.75 190.6C284.77 190.6 285.81 190.6 286.82 190.77C286.82 190.77 286.82 190.78 286.83 190.77C287.53 190.88 288.2 191.06 288.85 191.35C290.59 192.14 291.89 193.75 292.4 195.56V195.57Z" fill="white"/>
<path d="M292.53 195.09C290.42 194.22 288.1 193.8 285.85 193.53C283.6 193.26 281.23 193.19 279.25 194.29L279.64 194.24C278.23 193.86 276.78 194.12 275.34 193.96C275.09 193.93 274.5 193.92 274.54 193.59C274.57 193.36 275.06 193 275.24 192.86C275.81 192.41 276.49 192.12 277.18 191.9C278.66 191.43 280.22 191.23 281.77 191.15C283.32 191.07 285.08 191.01 286.69 191.25L286.34 190.9C286.38 191.2 286.71 191.3 286.96 191.26C286.78 191.29 287.18 191.34 287.23 191.35C287.37 191.38 287.5 191.41 287.64 191.45C287.97 191.54 288.3 191.65 288.61 191.79C289.16 192.04 289.67 192.37 290.11 192.77C290.98 193.56 291.6 194.57 291.93 195.7C292.11 196.32 293.08 196.05 292.89 195.43C292.48 194.06 291.71 192.8 290.6 191.87C290.05 191.41 289.45 191.05 288.79 190.78C288.2 190.54 287.33 190.18 286.69 190.28L287.31 190.63C287.29 190.47 287.11 190.29 286.96 190.27C284.6 189.92 282.09 190.01 279.73 190.32C277.74 190.59 275.36 191.06 273.98 192.66C273.4 193.34 273.29 194.2 274.17 194.67C275.05 195.14 276.33 195 277.3 194.99C277.85 194.99 278.4 194.98 278.94 195.08C279.17 195.12 279.41 195.23 279.64 195.18C279.92 195.12 280.23 194.88 280.51 194.78C281.64 194.37 282.87 194.32 284.06 194.36C286.8 194.45 289.73 194.98 292.27 196.03C292.86 196.28 293.12 195.31 292.54 195.07L292.53 195.09Z" fill="#282828"/>
<path d="M286.69 190.29H286.68C286.61 190.31 286.56 190.34 286.51 190.38C286.46 190.42 286.41 190.46 286.38 190.52C286.34 190.58 286.32 190.64 286.32 190.71C286.31 190.78 286.31 190.84 286.32 190.91L286.37 191.03C286.41 191.11 286.47 191.16 286.55 191.21L286.67 191.26C286.76 191.28 286.85 191.28 286.94 191.26H286.95C287.02 191.24 287.07 191.21 287.12 191.17C287.17 191.13 287.22 191.09 287.25 191.03C287.29 190.97 287.31 190.91 287.31 190.84C287.32 190.77 287.32 190.71 287.31 190.64L287.26 190.52C287.22 190.44 287.16 190.39 287.08 190.34L286.96 190.29C286.87 190.27 286.78 190.27 286.69 190.29Z" fill="#282828"/>
<path d="M286.811 190.77C285.801 190.61 284.771 190.6 283.741 190.6C281.641 190.6 279.521 190.73 277.501 191.28C276.241 191.62 274.991 192.16 274.201 193.19C274.131 193.29 274.061 193.39 274.021 193.5C272.801 193.72 271.571 193.94 270.351 194.15C269.591 194.29 268.541 194.27 268.331 193.51C268.241 193.2 268.351 192.87 268.481 192.58C269.171 191.1 270.541 190.03 272.051 189.4C273.551 188.76 275.191 188.54 276.821 188.38C279.001 188.15 281.231 188.02 283.341 188.65C284.641 189.04 285.901 189.77 286.811 190.76V190.77Z" fill="white"/>
<path d="M286.95 190.29C284.46 189.92 281.79 190.02 279.31 190.4C277.4 190.69 274.53 191.29 273.6 193.25L273.9 193.02C272.75 193.23 271.61 193.44 270.46 193.64C270.08 193.7 269.66 193.78 269.28 193.7C268.7 193.57 268.79 193.13 269.01 192.68C269.93 190.85 271.88 189.86 273.78 189.38C275.91 188.85 278.28 188.64 280.48 188.72C282.68 188.8 284.9 189.46 286.47 191.13C286.91 191.6 287.62 190.89 287.18 190.42C285.11 188.22 282.11 187.62 279.19 187.72C276.27 187.82 273.11 188.06 270.64 189.59C269.62 190.22 268.7 191.1 268.15 192.18C267.67 193.13 267.7 194.27 268.87 194.63C269.35 194.78 269.86 194.75 270.35 194.67C271.17 194.55 271.98 194.39 272.79 194.24C273.28 194.15 274.13 194.17 274.46 193.76C274.67 193.5 274.82 193.22 275.09 192.99C275.4 192.72 275.75 192.51 276.11 192.33C277.65 191.57 279.49 191.32 281.18 191.2C282.99 191.07 284.89 191 286.68 191.26C287.31 191.35 287.58 190.39 286.95 190.3V190.29Z" fill="#282828"/>
<path d="M277.04 209.98C276.51 207.12 276.37 204.2 276.6 201.3C276.65 200.66 275.65 200.66 275.6 201.3C275.36 204.29 275.53 207.3 276.08 210.25C276.2 210.88 277.16 210.61 277.04 209.98Z" fill="#282828"/>
<path d="M288.81 198.63C287.53 198.83 286.23 198.98 285.1 199.68C284.03 200.34 283.08 201.69 283.57 203C283.82 203.68 284.43 204.03 285.12 204.15C285.97 204.29 286.86 204.26 287.72 204.29C289.71 204.36 291.71 204.44 293.7 204.51C294.34 204.53 294.34 203.53 293.7 203.51C292.05 203.45 290.41 203.39 288.76 203.33C287.94 203.3 287.12 203.27 286.3 203.24C285.79 203.22 284.98 203.3 284.62 202.86C284.26 202.42 284.5 201.73 284.78 201.32C285.06 200.91 285.48 200.6 285.93 200.37C286.92 199.87 288.01 199.77 289.09 199.6C289.72 199.5 289.45 198.54 288.82 198.64L288.81 198.63Z" fill="#282828"/>
<path d="M287.751 207.51C287.641 207.51 287.521 207.47 287.431 207.39C279.701 200.96 276.371 203.79 276.331 203.82C276.131 204 275.811 203.99 275.631 203.79C275.441 203.59 275.451 203.28 275.651 203.09C275.811 202.94 279.591 199.57 288.071 206.62C288.281 206.8 288.311 207.11 288.141 207.32C288.041 207.44 287.901 207.5 287.761 207.5L287.751 207.51Z" fill="#282828"/>
<path d="M326.09 318.23C319.24 318.23 311.02 315.58 303.98 305.82C292.53 289.94 272.81 237.37 271.32 232.97C269.12 226.48 277.17 223.48 277.25 223.45C277.51 223.36 277.8 223.49 277.89 223.75C277.98 224.01 277.85 224.3 277.59 224.39C277.29 224.5 270.38 227.08 272.27 232.65C274.87 240.34 293.95 290.19 304.79 305.23C316.03 320.83 330.03 317.96 337.38 314.86C337.63 314.75 337.93 314.87 338.04 315.13C338.15 315.38 338.03 315.68 337.77 315.79C335.21 316.87 331 318.23 326.09 318.23Z" fill="#282828"/>
<path d="M333.651 275.32C333.471 275.32 333.301 275.22 333.211 275.05C333.091 274.82 321.111 251.92 314.891 239.67C308.821 227.7 305.421 221.45 300.441 222.05C300.171 222.08 299.921 221.88 299.891 221.61C299.861 221.34 300.061 221.09 300.331 221.06C305.941 220.41 309.501 226.85 315.781 239.23C321.991 251.47 333.971 274.36 334.091 274.6C334.221 274.84 334.121 275.15 333.881 275.27C333.811 275.31 333.731 275.33 333.651 275.33V275.32Z" fill="#282828"/>
<path d="M204.951 332.02C204.691 332.02 204.461 331.81 204.451 331.55C204.421 330.99 201.661 275.35 204.451 234.83C204.471 234.55 204.701 234.33 204.981 234.37C205.261 234.39 205.461 234.63 205.441 234.9C202.651 275.36 205.411 330.94 205.441 331.5C205.451 331.78 205.241 332.01 204.971 332.02C204.971 332.02 204.951 332.02 204.941 332.02H204.951Z" fill="#282828"/>
<path d="M171.38 389.17C204.01 389.14 263.99 389.15 271.44 385.95C278.89 382.76 318.51 345.21 321.53 340.81C324.55 336.42 196.31 336.42 196.31 336.42L143.95 340.81L93.1995 358.58C93.1995 358.58 67.3495 372.35 79.0995 374.7C90.8495 377.05 171.37 389.17 171.37 389.17H171.38Z" fill="#6A90FF"/>
<path d="M171.38 389.67C171.38 389.67 171.33 389.67 171.31 389.67C170.5 389.55 90.6398 377.52 79.0098 375.2C76.9098 374.78 75.7498 373.95 75.5698 372.72C74.8698 367.94 91.1198 359.14 92.9798 358.15L143.8 340.35C143.8 340.35 143.88 340.33 143.92 340.32L196.28 335.93C196.65 335.93 227.45 335.93 258.14 336.44C320.51 337.48 321.6 339.54 322.01 340.32C322.14 340.57 322.12 340.86 321.96 341.1C318.91 345.54 279.39 383.1 271.65 386.41C264.24 389.59 207.24 389.63 173.19 389.66H171.39L171.38 389.67ZM144.06 341.32L93.3698 359.07C86.3998 362.79 76.0998 369.49 76.5498 372.58C76.6598 373.34 77.5498 373.9 79.1998 374.22C90.7098 376.52 169.31 388.36 171.41 388.68H173.17C204.92 388.65 264.02 388.6 271.24 385.5C278.13 382.55 316.94 346.17 320.99 340.71C316.68 337.94 244.44 336.93 196.31 336.93L144.06 341.32Z" fill="#282828"/>
<path d="M171.38 389.17C171.38 389.17 197.3 376.93 224.3 372.17C251.3 367.4 279.36 369.79 279.36 369.79L311.92 333.91L173.73 353.64L93.1997 358.59L82.1797 365.45C82.1797 365.45 147.83 375.21 171.37 389.18L171.38 389.17Z" fill="white"/>
<path d="M171.38 389.67C171.29 389.67 171.2 389.65 171.13 389.6C147.94 375.84 82.7798 366.03 82.1198 365.94C81.9098 365.91 81.7498 365.75 81.6998 365.55C81.6598 365.34 81.7498 365.13 81.9298 365.02L92.9498 358.16C93.0198 358.12 93.0998 358.09 93.1798 358.09L173.71 353.14L311.86 333.42C312.07 333.39 312.27 333.49 312.37 333.68C312.47 333.87 312.44 334.09 312.3 334.25L279.74 370.13C279.64 370.25 279.48 370.3 279.33 370.29C279.05 370.27 251.02 367.97 224.4 372.67C197.78 377.37 171.86 389.51 171.61 389.63C171.54 389.66 171.47 389.68 171.4 389.68L171.38 389.67ZM83.5998 365.16C93.0398 366.64 149.74 375.93 171.41 388.61C174.11 387.37 198.83 376.16 224.22 371.68C249.64 367.19 276.32 369.05 279.16 369.27L310.62 334.6L173.81 354.13L93.3698 359.08L83.5998 365.16Z" fill="#282828"/>
<path d="M171.38 389.17C171.38 389.17 146.23 370.73 126 366.02C105.76 361.31 81.0596 359.93 81.0596 359.93L108.53 348.28L154.67 349.39L175.34 371.01L171.38 389.17Z" fill="white"/>
<path d="M171.38 389.67C171.28 389.67 171.17 389.64 171.08 389.57C170.83 389.39 145.78 371.14 125.88 366.5C105.92 361.85 81.2801 360.44 81.0301 360.42C80.8001 360.41 80.6101 360.24 80.5701 360.01C80.5301 359.78 80.6501 359.55 80.8701 359.46L108.34 347.81C108.41 347.78 108.48 347.76 108.55 347.77L154.69 348.88C154.82 348.88 154.95 348.94 155.04 349.03L175.71 370.65C175.83 370.77 175.87 370.94 175.84 371.1L171.88 389.26C171.84 389.43 171.73 389.56 171.57 389.62C171.51 389.64 171.45 389.65 171.39 389.65L171.38 389.67ZM83.1901 359.57C89.6001 360.02 109.47 361.66 126.11 365.53C144.45 369.8 167.04 385.46 171.06 388.32L174.8 371.16L154.46 349.88L108.63 348.78L83.2001 359.57H83.1901Z" fill="#282828"/>
<path d="M171.38 385.96C171.38 385.96 153.66 368.96 129.86 360.33C106.06 351.7 84.0898 350.55 84.0898 350.55L120.44 333.91L188.96 354.05L171.38 385.96Z" fill="white"/>
<path d="M171.38 386.46C171.25 386.46 171.13 386.41 171.03 386.32C170.85 386.15 153.1 369.29 129.68 360.8C106.22 352.29 84.2699 351.07 84.0599 351.05C83.8299 351.04 83.6399 350.87 83.5999 350.64C83.5599 350.41 83.6699 350.19 83.8799 350.09L120.23 333.45C120.34 333.4 120.46 333.39 120.58 333.43L189.1 353.57C189.25 353.61 189.36 353.72 189.42 353.86C189.48 354 189.47 354.16 189.4 354.29L171.82 386.2C171.75 386.34 171.61 386.43 171.46 386.45C171.43 386.45 171.41 386.45 171.38 386.45V386.46ZM86.0599 350.2C91.9699 350.71 110.48 352.77 130.03 359.86C151.52 367.65 168.26 382.42 171.25 385.16L188.23 354.36L120.48 334.45L86.0599 350.2Z" fill="#282828"/>
<path d="M171.38 382.1C171.38 382.1 153.12 362.17 132.91 352.52C112.71 342.87 81.0596 340.82 81.0596 340.82L158.73 300.66C158.73 300.66 210.97 291.98 228.29 328.53L171.39 382.09L171.38 382.1Z" fill="white"/>
<path d="M171.38 382.6H171.36C171.23 382.6 171.1 382.54 171.01 382.44C170.83 382.24 152.58 362.47 132.7 352.97C112.81 343.47 81.3396 341.34 81.0296 341.32C80.8096 341.31 80.6196 341.14 80.5696 340.92C80.5196 340.7 80.6296 340.48 80.8296 340.37L158.5 300.21C158.5 300.21 158.6 300.17 158.65 300.16C159.18 300.07 211.46 291.84 228.74 328.31C228.83 328.51 228.79 328.74 228.63 328.89L171.73 382.45C171.64 382.54 171.51 382.59 171.39 382.59L171.38 382.6ZM82.8496 340.46C89.7896 341.06 115.8 343.78 133.14 352.07C151.68 360.93 168.79 378.61 171.41 381.4L227.68 328.43C210.87 293.65 161.15 300.8 158.89 301.15L82.8496 340.47V340.46Z" fill="#282828"/>
<path d="M171.38 382.1C171.38 382.1 167.44 366.66 165.33 359.48C163.22 352.3 160.3 345.39 160.3 345.39H177.58L180.95 329.62L189.26 336.35L191.5 322.66L198.46 328.27L202.05 315.25L209.01 320.64L211.03 308.68L216.64 312.56L222.93 299.54C222.93 299.54 231.61 315.63 232.32 325.77C233.03 335.91 192.4 364.19 192.4 364.19L171.38 382.1Z" fill="white"/>
<path d="M171.379 382.6C171.329 382.6 171.279 382.6 171.229 382.58C171.059 382.53 170.939 382.39 170.899 382.23C170.859 382.08 166.939 366.72 164.859 359.62C162.779 352.55 159.879 345.65 159.849 345.58C159.789 345.43 159.799 345.25 159.889 345.11C159.979 344.97 160.139 344.89 160.309 344.89H177.189L180.469 329.52C180.509 329.35 180.629 329.21 180.789 329.15C180.959 329.09 181.139 329.12 181.269 329.23L188.909 335.42L191.019 322.58C191.049 322.4 191.169 322.26 191.329 322.19C191.499 322.13 191.679 322.16 191.819 322.27L198.189 327.4L201.579 315.11C201.619 314.95 201.749 314.82 201.899 314.77C202.059 314.72 202.229 314.75 202.359 314.85L208.659 319.73L210.539 308.59C210.569 308.42 210.679 308.28 210.839 308.21C210.999 308.14 211.179 308.16 211.319 308.26L216.449 311.81L222.479 299.32C222.559 299.15 222.729 299.04 222.919 299.04C223.079 299.04 223.279 299.14 223.369 299.3C223.729 299.96 232.109 315.6 232.819 325.73C233.539 336.03 194.359 363.44 192.689 364.6L171.709 382.48C171.619 382.56 171.499 382.6 171.389 382.6H171.379ZM161.049 345.89C161.839 347.83 164.099 353.52 165.809 359.34C167.629 365.53 170.839 377.98 171.659 381.2L192.069 363.81C192.209 363.71 202.369 356.62 212.309 348.39C228.789 334.74 232.009 328.57 231.819 325.8C231.219 317.23 224.739 304.13 222.939 300.65L217.089 312.77C217.029 312.9 216.909 313 216.769 313.04C216.629 313.08 216.479 313.05 216.359 312.97L211.389 309.53L209.499 320.72C209.469 320.89 209.349 321.04 209.189 321.1C209.029 321.16 208.839 321.14 208.699 321.03L202.329 316.1L198.939 328.4C198.899 328.56 198.769 328.69 198.609 328.74C198.449 328.79 198.279 328.76 198.139 328.65L191.849 323.58L189.739 336.43C189.709 336.61 189.589 336.75 189.419 336.82C189.249 336.88 189.059 336.85 188.929 336.74L181.259 330.52L178.059 345.49C178.009 345.72 177.809 345.89 177.569 345.89H161.029H161.049Z" fill="#282828"/>
<path d="M171.38 385.96V389.18C171.38 389.18 190.63 370.88 228.28 365.65C265.93 360.42 286.81 363.62 286.81 363.62L323.13 328.47C323.13 328.47 318.23 324.11 288.89 323.53C259.55 322.95 203.69 350.56 203.69 350.56L171.37 385.97L171.38 385.96Z" fill="white"/>
<path d="M171.38 389.67C171.31 389.67 171.25 389.66 171.18 389.63C171 389.55 170.88 389.37 170.88 389.17V385.95C170.88 385.83 170.93 385.7 171.01 385.61L203.33 350.2C203.33 350.2 203.42 350.12 203.48 350.09C203.62 350.02 217.67 343.1 235.12 336.34C251.25 330.09 273.67 322.69 288.91 323.01C318.1 323.59 323.27 327.89 323.48 328.08C323.58 328.17 323.65 328.3 323.65 328.44C323.65 328.58 323.6 328.71 323.5 328.81L287.18 363.96C287.07 364.07 286.91 364.12 286.76 364.09C286.55 364.06 265.52 360.97 228.38 366.12C191.34 371.26 171.94 389.34 171.75 389.52C171.66 389.61 171.53 389.66 171.41 389.66L171.38 389.67ZM171.88 386.15V388.07C176 384.57 195.16 369.74 228.22 365.15C263.35 360.27 284.16 362.75 286.64 363.08L322.33 328.54C320.54 327.57 313 324.5 288.88 324.02C260.55 323.47 206.48 349.75 204 350.96L171.88 386.15Z" fill="#282828"/>
<path d="M171.38 385.96C171.38 385.96 190.01 365.3 223.49 359.28C256.97 353.26 286.78 353 286.78 353L323.13 317.76C323.13 317.76 320 314.29 300.38 315.34C280.76 316.39 217.91 337.21 217.91 337.21L171.37 382.1V385.96H171.38Z" fill="white"/>
<path d="M171.38 386.46C171.32 386.46 171.26 386.45 171.2 386.43C171.01 386.36 170.88 386.17 170.88 385.96V382.1C170.88 381.96 170.94 381.83 171.03 381.74L217.57 336.85C217.62 336.8 217.69 336.76 217.76 336.74C218.39 336.53 280.89 315.88 300.36 314.85C320 313.8 323.37 317.29 323.51 317.44C323.69 317.64 323.68 317.95 323.49 318.13L287.14 353.37C287.05 353.46 286.93 353.51 286.8 353.51C286.5 353.51 256.64 353.84 223.59 359.78C190.68 365.69 171.95 386.09 171.76 386.3C171.66 386.41 171.53 386.47 171.39 386.47L171.38 386.46ZM171.88 382.32V384.73C175.95 380.67 194.13 364.05 223.4 358.79C255.11 353.09 283.9 352.55 286.58 352.51L322.36 317.83C321.03 317.06 315.95 315.02 300.42 315.85C281.47 316.86 221.15 336.68 218.19 337.66L171.88 382.33V382.32Z" fill="#282828"/>
<path d="M171.38 382.1C171.38 382.1 192.27 364.66 214.63 356.34C249.99 343.19 283.94 346.53 283.94 346.53L319.53 310.54C319.53 310.54 293.67 304.56 258.46 314.08C243.2 318.21 229.29 326.24 217.91 337.22L171.37 382.11L171.38 382.1Z" fill="white"/>
<path d="M171.38 382.6C171.24 382.6 171.11 382.54 171.01 382.43C170.83 382.23 170.84 381.92 171.04 381.74L217.58 336.85C229.11 325.73 243.21 317.69 258.34 313.59C276.59 308.65 292.27 307.96 302.22 308.23C313.01 308.53 319.58 310.03 319.65 310.04C319.83 310.08 319.97 310.21 320.02 310.39C320.07 310.56 320.02 310.75 319.9 310.88L284.31 346.87C284.2 346.98 284.06 347.02 283.91 347.02C283.57 346.99 249.67 343.85 214.83 356.8C192.81 364.99 171.93 382.3 171.72 382.48C171.63 382.56 171.51 382.6 171.4 382.6H171.38ZM298.3 309.21C287.82 309.21 274.08 310.37 258.6 314.56C243.62 318.61 229.68 326.57 218.27 337.57L178.1 376.32C186.14 370.46 200.05 361.23 214.46 355.87C247.98 343.41 280.64 345.75 283.75 346.01L318.53 310.84C316.1 310.38 308.85 309.2 298.3 309.2V309.21Z" fill="#282828"/>
<path d="M212.26 351.05C212.09 351.05 211.92 350.96 211.83 350.8C211.69 350.56 211.77 350.26 212.01 350.12C223.98 343.23 240.68 340.12 252.59 338.72C265.47 337.21 275.68 337.32 275.78 337.32C276.06 337.32 276.28 337.55 276.27 337.83C276.27 338.11 276.09 338.32 275.76 338.32C275.36 338.32 235.14 337.95 212.5 350.98C212.42 351.02 212.34 351.05 212.25 351.05H212.26Z" fill="#282828"/>
<path d="M225.489 338.32C225.289 338.32 225.109 338.2 225.029 338.01C224.929 337.75 225.049 337.46 225.299 337.36C245.269 329.22 280.179 328.86 280.529 328.86C280.779 328.83 281.029 329.08 281.029 329.36C281.029 329.64 280.809 329.86 280.529 329.86C280.179 329.86 245.459 330.22 225.669 338.29C225.609 338.32 225.549 338.33 225.479 338.33L225.489 338.32Z" fill="#282828"/>
<path d="M244.02 326.68C243.79 326.68 243.58 326.52 243.53 326.29C243.47 326.02 243.64 325.75 243.91 325.7C259.67 322.28 283.23 323.01 283.46 323.02C283.74 323.02 283.95 323.26 283.94 323.54C283.94 323.82 283.75 324.03 283.42 324.02C283.19 324.02 259.74 323.29 244.11 326.68C244.07 326.68 244.04 326.69 244 326.69L244.02 326.68Z" fill="#282828"/>
<path d="M157.47 356.84C157.32 356.84 157.18 356.78 157.08 356.65C145.96 342.69 113.54 338.36 113.21 338.32C112.94 338.28 112.74 338.03 112.78 337.76C112.82 337.49 113.06 337.29 113.34 337.33C113.42 337.34 121.69 338.43 131.25 341.25C144.13 345.05 153.08 350.03 157.87 356.03C158.04 356.25 158.01 356.56 157.79 356.73C157.7 356.8 157.59 356.84 157.48 356.84H157.47Z" fill="#282828"/>
<path d="M161.71 339.12C161.59 339.12 161.48 339.08 161.38 339C149.73 328.9 130.88 326.7 130.69 326.68C130.42 326.65 130.22 326.4 130.25 326.13C130.28 325.86 130.51 325.66 130.8 325.69C130.99 325.71 150.15 327.94 162.04 338.25C162.25 338.43 162.27 338.75 162.09 338.96C161.99 339.07 161.85 339.13 161.71 339.13V339.12Z" fill="#282828"/>
<path d="M137.83 197.79C136.46 197.46 135.28 196.45 134.79 195.02C133.74 191.98 132.72 188.88 131.76 185.83C131.39 184.66 130.89 183.05 130.91 181.21C130.95 178.53 132.11 175.83 134.28 173.38C135.11 172.44 135.97 171.65 136.8 170.89C137.35 170.38 137.91 169.88 138.42 169.34C140.58 167.07 141.99 163.97 142.29 160.85C142.42 159.47 142.27 158.37 141.87 157.84C141.47 157.3 140.45 156.83 139.07 156.55C134.83 155.68 130.38 156.96 128.01 159.73C126.47 161.53 123.76 161.74 121.97 160.2C120.17 158.66 119.96 155.96 121.5 154.16C125.91 149.01 133.48 146.65 140.8 148.15C144.36 148.9 147.04 150.42 148.75 152.71C150.47 155.02 151.17 158.03 150.83 161.66C150.35 166.73 148.15 171.55 144.64 175.23C143.96 175.95 143.27 176.58 142.6 177.2C141.9 177.84 141.23 178.45 140.69 179.06C139.94 179.91 139.49 180.74 139.48 181.31C139.48 181.78 139.73 182.59 139.94 183.25C140.88 186.23 141.87 189.24 142.9 192.21C143.67 194.45 142.48 196.89 140.25 197.66C139.44 197.94 138.61 197.96 137.84 197.77L137.83 197.79Z" fill="#6A90FF"/>
<path d="M138.84 198.41C138.46 198.41 138.08 198.37 137.71 198.28C136.12 197.89 134.85 196.74 134.32 195.19C133.26 192.13 132.24 189.03 131.28 185.98C130.9 184.78 130.38 183.13 130.41 181.21C130.45 178.41 131.65 175.59 133.9 173.06C134.75 172.1 135.61 171.31 136.45 170.54L136.61 170.39C137.1 169.94 137.6 169.48 138.06 169C140.14 166.81 141.51 163.82 141.79 160.81C141.93 159.35 141.72 158.47 141.47 158.14C141.22 157.8 140.43 157.34 138.97 157.04C134.9 156.21 130.65 157.42 128.38 160.06C127.55 161.03 126.39 161.62 125.11 161.72C123.84 161.82 122.6 161.42 121.63 160.58C120.66 159.75 120.07 158.59 119.97 157.31C119.87 156.03 120.27 154.8 121.11 153.83C125.64 148.55 133.4 146.12 140.89 147.66C144.6 148.44 147.37 150.04 149.14 152.41C150.94 154.83 151.67 157.95 151.31 161.71C150.81 166.89 148.57 171.81 144.99 175.58C144.29 176.32 143.6 176.95 142.93 177.57C142.23 178.21 141.58 178.81 141.06 179.4C140.27 180.29 139.98 180.99 139.98 181.32C139.98 181.71 140.23 182.51 140.41 183.1C141.35 186.08 142.34 189.09 143.36 192.05C143.78 193.26 143.7 194.56 143.14 195.71C142.58 196.86 141.61 197.72 140.4 198.14C139.9 198.31 139.37 198.4 138.84 198.4V198.41ZM137.95 197.3C138.66 197.47 139.39 197.44 140.08 197.2C141.04 196.87 141.81 196.19 142.25 195.28C142.69 194.37 142.75 193.34 142.42 192.39C141.4 189.42 140.4 186.4 139.46 183.41C139.23 182.68 138.97 181.86 138.98 181.31C138.98 180.62 139.47 179.68 140.31 178.74C140.87 178.11 141.54 177.49 142.25 176.84C142.91 176.23 143.59 175.61 144.27 174.9C147.7 171.29 149.85 166.58 150.32 161.62C150.65 158.12 149.99 155.23 148.34 153.01C146.72 150.84 144.15 149.37 140.69 148.64C133.56 147.18 126.17 149.47 121.88 154.48C121.22 155.25 120.9 156.23 120.98 157.23C121.06 158.24 121.52 159.16 122.29 159.81C123.06 160.47 124.04 160.79 125.04 160.71C126.05 160.63 126.97 160.17 127.63 159.4C130.12 156.49 134.76 155.15 139.17 156.05C140.69 156.35 141.79 156.88 142.27 157.53C142.75 158.17 142.93 159.36 142.78 160.89C142.47 164.12 141.01 167.32 138.77 169.67C138.29 170.18 137.77 170.65 137.27 171.11L137.12 171.25C136.29 172.01 135.44 172.79 134.63 173.7C132.54 176.05 131.42 178.64 131.39 181.2C131.37 182.96 131.86 184.52 132.22 185.66C133.18 188.7 134.19 191.79 135.25 194.84C135.67 196.06 136.68 196.98 137.94 197.28L137.95 197.3Z" fill="#6A90FF"/>
<path d="M144 212.34C146.988 212.34 149.41 209.918 149.41 206.93C149.41 203.942 146.988 201.52 144 201.52C141.012 201.52 138.59 203.942 138.59 206.93C138.59 209.918 141.012 212.34 144 212.34Z" fill="#6A90FF"/>
<path d="M144 212.84C143.54 212.84 143.07 212.79 142.6 212.67C139.44 211.9 137.49 208.7 138.26 205.54C138.63 204.01 139.58 202.71 140.93 201.89C142.28 201.07 143.87 200.82 145.4 201.2C146.93 201.57 148.23 202.52 149.05 203.87C149.87 205.22 150.12 206.8 149.74 208.34C149.08 211.04 146.66 212.85 144 212.85V212.84ZM143.99 202.03C143.1 202.03 142.23 202.27 141.45 202.75C140.33 203.43 139.54 204.51 139.23 205.78C138.59 208.41 140.21 211.07 142.84 211.71C145.47 212.34 148.13 210.73 148.77 208.1C149.08 206.83 148.88 205.51 148.19 204.39C147.51 203.27 146.43 202.48 145.16 202.17C144.77 202.08 144.38 202.03 143.99 202.03Z" fill="#6A90FF"/>
<path d="M137.83 197.79C136.46 197.46 135.28 196.45 134.79 195.02C133.74 191.98 132.72 188.88 131.76 185.83C131.39 184.66 130.89 183.05 130.91 181.21C130.95 178.53 132.11 175.83 134.28 173.38C135.11 172.44 135.97 171.65 136.8 170.89C137.35 170.38 137.91 169.88 138.42 169.34C140.58 167.07 141.99 163.97 142.29 160.85C142.42 159.47 142.27 158.37 141.87 157.84C141.47 157.3 140.45 156.83 139.07 156.55C134.83 155.68 130.38 156.96 128.01 159.73C126.47 161.53 123.76 161.74 121.97 160.2C120.17 158.66 119.96 155.96 121.5 154.16C125.91 149.01 133.48 146.65 140.8 148.15C144.36 148.9 147.04 150.42 148.75 152.71C150.47 155.02 151.17 158.03 150.83 161.66C150.35 166.73 148.15 171.55 144.64 175.23C143.96 175.95 143.27 176.58 142.6 177.2C141.9 177.84 141.23 178.45 140.69 179.06C139.94 179.91 139.49 180.74 139.48 181.31C139.48 181.78 139.73 182.59 139.94 183.25C140.88 186.23 141.87 189.24 142.9 192.21C143.67 194.45 142.48 196.89 140.25 197.66C139.44 197.94 138.61 197.96 137.84 197.77L137.83 197.79Z" fill="#6A90FF"/>
<path d="M138.84 198.41C138.46 198.41 138.08 198.37 137.71 198.28C136.12 197.89 134.85 196.74 134.32 195.19C133.26 192.13 132.24 189.03 131.28 185.98C130.9 184.78 130.38 183.13 130.41 181.21C130.45 178.41 131.65 175.59 133.9 173.06C134.75 172.1 135.61 171.31 136.45 170.54L136.61 170.39C137.1 169.94 137.6 169.48 138.06 169C140.14 166.81 141.51 163.82 141.79 160.81C141.93 159.35 141.72 158.47 141.47 158.14C141.22 157.8 140.43 157.34 138.97 157.04C134.9 156.21 130.65 157.42 128.38 160.06C127.55 161.03 126.39 161.62 125.11 161.72C123.84 161.82 122.6 161.42 121.63 160.58C120.66 159.75 120.07 158.59 119.97 157.31C119.87 156.03 120.27 154.8 121.11 153.83C125.64 148.55 133.4 146.12 140.89 147.66C144.6 148.44 147.37 150.04 149.14 152.41C150.94 154.83 151.67 157.95 151.31 161.71C150.81 166.89 148.57 171.81 144.99 175.58C144.29 176.32 143.6 176.95 142.93 177.57C142.23 178.21 141.58 178.81 141.06 179.4C140.27 180.29 139.98 180.99 139.98 181.32C139.98 181.71 140.23 182.51 140.41 183.1C141.35 186.08 142.34 189.09 143.36 192.05C143.78 193.26 143.7 194.56 143.14 195.71C142.58 196.86 141.61 197.72 140.4 198.14C139.9 198.31 139.37 198.4 138.84 198.4V198.41ZM137.95 197.3C138.66 197.47 139.39 197.44 140.08 197.2C141.04 196.87 141.81 196.19 142.25 195.28C142.69 194.37 142.75 193.34 142.42 192.39C141.4 189.42 140.4 186.4 139.46 183.41C139.23 182.68 138.97 181.86 138.98 181.31C138.98 180.62 139.47 179.68 140.31 178.74C140.87 178.11 141.54 177.49 142.25 176.84C142.91 176.23 143.59 175.61 144.27 174.9C147.7 171.29 149.85 166.58 150.32 161.62C150.65 158.12 149.99 155.23 148.34 153.01C146.72 150.84 144.15 149.37 140.69 148.64C133.56 147.18 126.17 149.47 121.88 154.48C121.22 155.25 120.9 156.23 120.98 157.23C121.06 158.24 121.52 159.16 122.29 159.81C123.06 160.47 124.04 160.79 125.04 160.71C126.05 160.63 126.97 160.17 127.63 159.4C130.12 156.49 134.76 155.15 139.17 156.05C140.69 156.35 141.79 156.88 142.27 157.53C142.75 158.17 142.93 159.36 142.78 160.89C142.47 164.12 141.01 167.32 138.77 169.67C138.29 170.18 137.77 170.65 137.27 171.11L137.12 171.25C136.29 172.01 135.44 172.79 134.63 173.7C132.54 176.05 131.42 178.64 131.39 181.2C131.37 182.96 131.86 184.52 132.22 185.66C133.18 188.7 134.19 191.79 135.25 194.84C135.67 196.06 136.68 196.98 137.94 197.28L137.95 197.3Z" fill="#282828"/>
<path d="M144 212.34C146.988 212.34 149.41 209.918 149.41 206.93C149.41 203.942 146.988 201.52 144 201.52C141.012 201.52 138.59 203.942 138.59 206.93C138.59 209.918 141.012 212.34 144 212.34Z" fill="#6A90FF"/>
<path d="M144 212.84C143.54 212.84 143.07 212.79 142.6 212.67C139.44 211.9 137.49 208.7 138.26 205.54C138.63 204.01 139.58 202.71 140.93 201.89C142.28 201.07 143.87 200.82 145.4 201.2C146.93 201.57 148.23 202.52 149.05 203.87C149.87 205.22 150.12 206.8 149.74 208.34C149.08 211.04 146.66 212.85 144 212.85V212.84ZM143.99 202.03C143.1 202.03 142.23 202.27 141.45 202.75C140.33 203.43 139.54 204.51 139.23 205.78C138.59 208.41 140.21 211.07 142.84 211.71C145.47 212.34 148.13 210.73 148.77 208.1C149.08 206.83 148.88 205.51 148.19 204.39C147.51 203.27 146.43 202.48 145.16 202.17C144.77 202.08 144.38 202.03 143.99 202.03Z" fill="#282828"/>
<path d="M137.83 197.79C136.46 197.46 135.28 196.45 134.79 195.02C133.74 191.98 132.72 188.88 131.76 185.83C131.39 184.66 130.89 183.05 130.91 181.21C130.95 178.53 132.11 175.83 134.28 173.38C135.11 172.44 135.97 171.65 136.8 170.89C137.35 170.38 137.91 169.88 138.42 169.34C140.58 167.07 141.99 163.97 142.29 160.85C142.42 159.47 142.27 158.37 141.87 157.84C141.47 157.3 140.45 156.83 139.07 156.55C134.83 155.68 130.38 156.96 128.01 159.73C126.47 161.53 123.76 161.74 121.97 160.2C120.17 158.66 119.96 155.96 121.5 154.16C125.91 149.01 133.48 146.65 140.8 148.15C144.36 148.9 147.04 150.42 148.75 152.71C150.47 155.02 151.17 158.03 150.83 161.66C150.35 166.73 148.15 171.55 144.64 175.23C143.96 175.95 143.27 176.58 142.6 177.2C141.9 177.84 141.23 178.45 140.69 179.06C139.94 179.91 139.49 180.74 139.48 181.31C139.48 181.78 139.73 182.59 139.94 183.25C140.88 186.23 141.87 189.24 142.9 192.21C143.67 194.45 142.48 196.89 140.25 197.66C139.44 197.94 138.61 197.96 137.84 197.77L137.83 197.79Z" stroke="#282828" stroke-linecap="round" stroke-linejoin="round"/>
<path d="M138.84 198.41C138.46 198.41 138.08 198.37 137.71 198.28C136.12 197.89 134.85 196.74 134.32 195.19C133.26 192.13 132.24 189.03 131.28 185.98C130.9 184.78 130.38 183.13 130.41 181.21C130.45 178.41 131.65 175.59 133.9 173.06C134.75 172.1 135.61 171.31 136.45 170.54L136.61 170.39C137.1 169.94 137.6 169.48 138.06 169C140.14 166.81 141.51 163.82 141.79 160.81C141.93 159.35 141.72 158.47 141.47 158.14C141.22 157.8 140.43 157.34 138.97 157.04C134.9 156.21 130.65 157.42 128.38 160.06C127.55 161.03 126.39 161.62 125.11 161.72C123.84 161.82 122.6 161.42 121.63 160.58C120.66 159.75 120.07 158.59 119.97 157.31C119.87 156.03 120.27 154.8 121.11 153.83C125.64 148.55 133.4 146.12 140.89 147.66C144.6 148.44 147.37 150.04 149.14 152.41C150.94 154.83 151.67 157.95 151.31 161.71C150.81 166.89 148.57 171.81 144.99 175.58C144.29 176.32 143.6 176.95 142.93 177.57C142.23 178.21 141.58 178.81 141.06 179.4C140.27 180.29 139.98 180.99 139.98 181.32C139.98 181.71 140.23 182.51 140.41 183.1C141.35 186.08 142.34 189.09 143.36 192.05C143.78 193.26 143.7 194.56 143.14 195.71C142.58 196.86 141.61 197.72 140.4 198.14C139.9 198.31 139.37 198.4 138.84 198.4V198.41ZM137.95 197.3C138.66 197.47 139.39 197.44 140.08 197.2C141.04 196.87 141.81 196.19 142.25 195.28C142.69 194.37 142.75 193.34 142.42 192.39C141.4 189.42 140.4 186.4 139.46 183.41C139.23 182.68 138.97 181.86 138.98 181.31C138.98 180.62 139.47 179.68 140.31 178.74C140.87 178.11 141.54 177.49 142.25 176.84C142.91 176.23 143.59 175.61 144.27 174.9C147.7 171.29 149.85 166.58 150.32 161.62C150.65 158.12 149.99 155.23 148.34 153.01C146.72 150.84 144.15 149.37 140.69 148.64C133.56 147.18 126.17 149.47 121.88 154.48C121.22 155.25 120.9 156.23 120.98 157.23C121.06 158.24 121.52 159.16 122.29 159.81C123.06 160.47 124.04 160.79 125.04 160.71C126.05 160.63 126.97 160.17 127.63 159.4C130.12 156.49 134.76 155.15 139.17 156.05C140.69 156.35 141.79 156.88 142.27 157.53C142.75 158.17 142.93 159.36 142.78 160.89C142.47 164.12 141.01 167.32 138.77 169.67C138.29 170.18 137.77 170.65 137.27 171.11L137.12 171.25C136.29 172.01 135.44 172.79 134.63 173.7C132.54 176.05 131.42 178.64 131.39 181.2C131.37 182.96 131.86 184.52 132.22 185.66C133.18 188.7 134.19 191.79 135.25 194.84C135.67 196.06 136.68 196.98 137.94 197.28L137.95 197.3Z" stroke="#282828" stroke-linecap="round" stroke-linejoin="round"/>
<path d="M144 212.34C146.988 212.34 149.41 209.918 149.41 206.93C149.41 203.942 146.988 201.52 144 201.52C141.012 201.52 138.59 203.942 138.59 206.93C138.59 209.918 141.012 212.34 144 212.34Z" stroke="#282828" stroke-linecap="round" stroke-linejoin="round"/>
<path d="M144 212.84C143.54 212.84 143.07 212.79 142.6 212.67C139.44 211.9 137.49 208.7 138.26 205.54C138.63 204.01 139.58 202.71 140.93 201.89C142.28 201.07 143.87 200.82 145.4 201.2C146.93 201.57 148.23 202.52 149.05 203.87C149.87 205.22 150.12 206.8 149.74 208.34C149.08 211.04 146.66 212.85 144 212.85V212.84ZM143.99 202.03C143.1 202.03 142.23 202.27 141.45 202.75C140.33 203.43 139.54 204.51 139.23 205.78C138.59 208.41 140.21 211.07 142.84 211.71C145.47 212.34 148.13 210.73 148.77 208.1C149.08 206.83 148.88 205.51 148.19 204.39C147.51 203.27 146.43 202.48 145.16 202.17C144.77 202.08 144.38 202.03 143.99 202.03Z" stroke="#282828" stroke-linecap="round" stroke-linejoin="round"/>
<path d="M116.87 229.32C116.87 229.32 116.79 229.32 116.74 229.3C115.36 228.94 114.11 228.2 113.12 227.18C112.93 226.98 112.93 226.67 113.13 226.47C113.33 226.28 113.64 226.28 113.84 226.48C114.7 227.37 115.8 228.01 117 228.33C117.27 228.4 117.43 228.67 117.36 228.94C117.3 229.16 117.1 229.31 116.88 229.31L116.87 229.32ZM120.86 229.25C120.64 229.25 120.42 229.12 120.36 228.91C120.28 228.65 120.39 228.38 120.65 228.29C120.65 228.29 120.73 228.27 120.74 228.26L124.52 227.11C124.79 227.03 125.06 227.18 125.14 227.44C125.22 227.7 125.07 227.98 124.81 228.06L121.01 229.22C120.96 229.24 120.91 229.24 120.86 229.24V229.25ZM128.47 226.94C128.26 226.94 128.06 226.8 127.99 226.59C127.91 226.33 128.06 226.05 128.32 225.97L132.12 224.81C132.39 224.73 132.66 224.88 132.74 225.14C132.82 225.4 132.67 225.68 132.41 225.76L128.61 226.92C128.61 226.92 128.51 226.94 128.46 226.94H128.47ZM136.08 224.63C135.87 224.63 135.67 224.49 135.6 224.28C135.52 224.02 135.67 223.74 135.93 223.66L139.73 222.5C140 222.42 140.27 222.57 140.35 222.83C140.43 223.09 140.28 223.37 140.02 223.45L136.22 224.61C136.22 224.61 136.12 224.63 136.07 224.63H136.08ZM111.59 223.89C111.38 223.89 111.18 223.75 111.11 223.54L109.94 219.74C109.86 219.48 110.01 219.2 110.27 219.12C110.53 219.04 110.81 219.19 110.89 219.45L112.06 223.25C112.14 223.51 111.99 223.79 111.73 223.87C111.68 223.89 111.63 223.89 111.58 223.89H111.59ZM143.69 222.32C143.48 222.32 143.28 222.18 143.21 221.97C143.13 221.71 143.28 221.43 143.54 221.35L147.34 220.2C147.61 220.12 147.88 220.27 147.96 220.53C148.04 220.79 147.89 221.07 147.63 221.15L143.83 222.3C143.83 222.3 143.73 222.32 143.68 222.32H143.69ZM151.29 220.01C151.08 220.01 150.88 219.87 150.81 219.66C150.73 219.4 150.88 219.12 151.14 219.04L154.94 217.89C155.21 217.81 155.48 217.96 155.56 218.22C155.64 218.48 155.49 218.76 155.23 218.84L151.43 219.99C151.43 219.99 151.33 220.01 151.28 220.01H151.29ZM158.9 217.7C158.69 217.7 158.49 217.56 158.42 217.35C158.34 217.09 158.49 216.81 158.75 216.73L162.55 215.57C162.82 215.49 163.09 215.64 163.17 215.9C163.25 216.16 163.1 216.44 162.84 216.52L159.04 217.68C159.04 217.68 158.94 217.7 158.89 217.7H158.9ZM109.24 216.3C109.03 216.3 108.83 216.16 108.76 215.95L107.59 212.15C107.51 211.89 107.66 211.61 107.92 211.53C108.18 211.45 108.46 211.6 108.54 211.86L109.71 215.66C109.79 215.92 109.64 216.2 109.38 216.28C109.33 216.3 109.28 216.3 109.23 216.3H109.24ZM166.51 215.39C166.3 215.39 166.1 215.25 166.03 215.04C165.95 214.78 166.1 214.5 166.36 214.42L170.16 213.26C170.43 213.18 170.7 213.33 170.78 213.59C170.86 213.85 170.71 214.13 170.45 214.21L166.65 215.37C166.65 215.37 166.55 215.39 166.5 215.39H166.51ZM174.12 213.08C173.91 213.08 173.71 212.94 173.64 212.73C173.56 212.47 173.71 212.19 173.97 212.11L177.77 210.95C178.04 210.87 178.31 211.02 178.39 211.28C178.47 211.54 178.32 211.82 178.06 211.9L174.26 213.06C174.26 213.06 174.16 213.08 174.11 213.08H174.12ZM181.72 210.77C181.51 210.77 181.31 210.63 181.24 210.42C181.16 210.16 181.31 209.88 181.57 209.8L184 209.06C184.43 208.93 184.84 208.76 185.23 208.55C185.47 208.42 185.78 208.51 185.91 208.76C186.04 209 185.95 209.31 185.7 209.44C185.25 209.68 184.78 209.87 184.29 210.02L181.86 210.76C181.86 210.76 181.76 210.78 181.71 210.78L181.72 210.77ZM106.9 208.7C106.69 208.7 106.49 208.56 106.42 208.35L105.25 204.55C105.17 204.29 105.32 204.01 105.58 203.93C105.84 203.85 106.12 204 106.2 204.26L107.37 208.06C107.45 208.32 107.3 208.6 107.04 208.68C106.99 208.7 106.94 208.7 106.89 208.7H106.9ZM188.32 206.77C188.23 206.77 188.14 206.75 188.06 206.7C187.82 206.56 187.74 206.25 187.89 206.01C188.52 204.95 188.85 203.75 188.85 202.53C188.85 202.25 189.07 202.01 189.35 202.01C189.63 202.01 189.85 202.21 189.85 202.49C189.85 203.94 189.47 205.32 188.75 206.53C188.66 206.69 188.49 206.77 188.32 206.77ZM104.55 201.11C104.34 201.11 104.14 200.97 104.07 200.76L102.9 196.96C102.82 196.7 102.97 196.42 103.23 196.34C103.49 196.26 103.77 196.41 103.85 196.67L105.02 200.47C105.1 200.73 104.95 201.01 104.69 201.09C104.64 201.11 104.59 201.11 104.54 201.11H104.55ZM188.5 199.12C188.29 199.12 188.09 198.98 188.02 198.76L186.88 194.95C186.8 194.69 186.95 194.41 187.21 194.33C187.48 194.25 187.75 194.4 187.83 194.66L188.97 198.47C189.05 198.73 188.9 199.01 188.64 199.09C188.59 199.1 188.54 199.11 188.5 199.11V199.12ZM102.2 193.51C101.99 193.51 101.79 193.37 101.72 193.16L100.55 189.36C100.47 189.1 100.62 188.82 100.88 188.74C101.14 188.66 101.42 188.81 101.5 189.07L102.67 192.87C102.75 193.13 102.6 193.41 102.34 193.49C102.29 193.51 102.24 193.51 102.19 193.51H102.2ZM186.21 191.5C186 191.5 185.8 191.36 185.73 191.14L184.59 187.33C184.51 187.07 184.66 186.79 184.92 186.71C185.19 186.63 185.46 186.78 185.54 187.04L186.68 190.85C186.76 191.11 186.61 191.39 186.35 191.47C186.3 191.48 186.25 191.49 186.21 191.49V191.5ZM99.8504 185.92C99.6404 185.92 99.4404 185.78 99.3704 185.57L98.2004 181.77C98.1204 181.51 98.2704 181.23 98.5304 181.15C98.7904 181.07 99.0704 181.22 99.1504 181.48L100.32 185.28C100.4 185.54 100.25 185.82 99.9904 185.9C99.9404 185.92 99.8904 185.92 99.8404 185.92H99.8504ZM183.93 183.89C183.72 183.89 183.52 183.75 183.45 183.53L182.31 179.72C182.23 179.46 182.38 179.18 182.64 179.1C182.9 179.02 183.18 179.17 183.26 179.43L184.4 183.24C184.48 183.5 184.33 183.78 184.07 183.86C184.02 183.87 183.97 183.88 183.93 183.88V183.89ZM97.5004 178.32C97.2904 178.32 97.0904 178.18 97.0204 177.97L95.8504 174.17C95.7704 173.91 95.9204 173.63 96.1804 173.55C96.4404 173.47 96.7204 173.62 96.8004 173.88L97.9704 177.68C98.0504 177.94 97.9004 178.22 97.6404 178.3C97.5904 178.32 97.5404 178.32 97.4904 178.32H97.5004ZM181.64 176.27C181.43 176.27 181.23 176.13 181.16 175.91L180.02 172.1C179.94 171.84 180.09 171.56 180.35 171.48C180.62 171.4 180.89 171.55 180.97 171.81L182.11 175.62C182.19 175.88 182.04 176.16 181.78 176.24C181.73 176.25 181.68 176.26 181.64 176.26V176.27ZM95.1504 170.73C94.9404 170.73 94.7404 170.59 94.6704 170.38L93.5004 166.58C93.4204 166.32 93.5704 166.04 93.8304 165.96C94.0904 165.88 94.3704 166.03 94.4504 166.29L95.6204 170.09C95.7004 170.35 95.5504 170.63 95.2904 170.71C95.2404 170.73 95.1904 170.73 95.1404 170.73H95.1504ZM179.36 168.66C179.15 168.66 178.95 168.52 178.88 168.3L177.74 164.49C177.66 164.23 177.81 163.95 178.07 163.87C178.34 163.79 178.61 163.94 178.69 164.2L179.83 168.01C179.91 168.27 179.76 168.55 179.5 168.63C179.45 168.64 179.4 168.65 179.36 168.65V168.66ZM92.8004 163.13C92.5904 163.13 92.3904 162.99 92.3204 162.78L91.1504 158.98C91.0704 158.72 91.2204 158.44 91.4804 158.36C91.7404 158.28 92.0204 158.43 92.1004 158.69L93.2704 162.49C93.3504 162.75 93.2004 163.03 92.9404 163.11C92.8904 163.13 92.8404 163.13 92.7904 163.13H92.8004ZM177.08 161.04C176.87 161.04 176.67 160.9 176.6 160.68L175.46 156.87C175.38 156.61 175.53 156.33 175.79 156.25C176.06 156.17 176.33 156.32 176.41 156.58L177.55 160.39C177.63 160.65 177.48 160.93 177.22 161.01C177.17 161.02 177.12 161.03 177.08 161.03V161.04ZM90.4604 155.53C90.2504 155.53 90.0504 155.39 89.9804 155.18L89.5004 153.62C89.2704 152.87 89.1504 152.09 89.1504 151.31L89.6504 151.17L90.1504 151.25C90.1504 152 90.2504 152.67 90.4504 153.33L90.9304 154.89C91.0104 155.15 90.8604 155.43 90.6004 155.51C90.5504 155.53 90.5004 155.53 90.4504 155.53H90.4604ZM174.79 153.43C174.58 153.43 174.38 153.29 174.31 153.07L173.17 149.26C173.09 149 173.24 148.72 173.5 148.64C173.77 148.56 174.04 148.71 174.12 148.97L175.26 152.78C175.34 153.04 175.19 153.32 174.93 153.4C174.88 153.41 174.83 153.42 174.79 153.42V153.43ZM90.7804 147.91C90.6904 147.91 90.6004 147.89 90.5104 147.83C90.2804 147.68 90.2104 147.37 90.3504 147.14C91.1104 145.93 92.1904 144.96 93.4604 144.32C93.7104 144.2 94.0104 144.3 94.1304 144.54C94.2504 144.79 94.1504 145.09 93.9104 145.21C92.8004 145.76 91.8704 146.61 91.2004 147.67C91.1104 147.82 90.9404 147.9 90.7804 147.9V147.91ZM172.51 145.81C172.3 145.81 172.1 145.67 172.03 145.45L170.89 141.64C170.81 141.38 170.96 141.1 171.22 141.02C171.49 140.94 171.76 141.09 171.84 141.35L172.98 145.16C173.06 145.42 172.91 145.7 172.65 145.78C172.6 145.79 172.55 145.8 172.51 145.8V145.81ZM97.4604 144.03C97.2404 144.03 97.0504 143.89 96.9804 143.67C96.9004 143.41 97.0504 143.13 97.3204 143.05L101.13 141.91C101.4 141.83 101.67 141.98 101.75 142.25C101.83 142.51 101.68 142.79 101.41 142.87L97.6004 144.01C97.6004 144.01 97.5004 144.03 97.4604 144.03ZM105.07 141.76C104.85 141.76 104.66 141.62 104.59 141.4C104.51 141.14 104.66 140.86 104.93 140.78L108.74 139.64C109 139.56 109.28 139.71 109.36 139.98C109.44 140.24 109.29 140.52 109.02 140.6L105.21 141.74C105.21 141.74 105.11 141.76 105.07 141.76ZM112.69 139.48C112.47 139.48 112.28 139.34 112.21 139.12C112.13 138.86 112.28 138.58 112.55 138.5L116.36 137.36C116.62 137.28 116.9 137.43 116.98 137.7C117.06 137.96 116.91 138.24 116.64 138.32L112.83 139.46C112.83 139.46 112.73 139.48 112.69 139.48ZM170.23 138.2C170.02 138.2 169.82 138.06 169.75 137.84L168.61 134.03C168.53 133.77 168.68 133.49 168.94 133.41C169.21 133.33 169.48 133.48 169.56 133.74L170.7 137.55C170.78 137.81 170.63 138.09 170.37 138.17C170.32 138.18 170.27 138.19 170.23 138.19V138.2ZM120.31 137.21C120.09 137.21 119.9 137.07 119.83 136.85C119.75 136.59 119.9 136.31 120.17 136.23L123.98 135.09C124.24 135.01 124.52 135.16 124.6 135.43C124.68 135.69 124.53 135.97 124.26 136.05L120.45 137.19C120.45 137.19 120.35 137.21 120.31 137.21ZM127.93 134.93C127.71 134.93 127.52 134.79 127.45 134.57C127.37 134.31 127.52 134.03 127.79 133.95L131.6 132.81C131.86 132.73 132.14 132.88 132.22 133.15C132.3 133.41 132.15 133.69 131.88 133.77L128.07 134.91C128.07 134.91 127.97 134.93 127.93 134.93ZM135.55 132.66C135.33 132.66 135.14 132.52 135.07 132.3C134.99 132.04 135.14 131.76 135.41 131.68L139.22 130.54C139.48 130.46 139.76 130.61 139.84 130.88C139.92 131.14 139.77 131.42 139.5 131.5L135.69 132.64C135.69 132.64 135.59 132.66 135.55 132.66ZM167.94 130.58C167.73 130.58 167.53 130.44 167.46 130.23C167.1 129.04 166.42 127.97 165.5 127.15C165.29 126.97 165.28 126.65 165.46 126.44C165.65 126.23 165.96 126.22 166.17 126.4C167.23 127.35 168.01 128.57 168.42 129.94C168.5 130.2 168.35 130.48 168.09 130.56C168.04 130.57 167.99 130.58 167.94 130.58ZM143.16 130.39C142.94 130.39 142.75 130.25 142.68 130.03C142.6 129.77 142.75 129.49 143.02 129.41L146.83 128.27C147.09 128.19 147.37 128.34 147.45 128.61C147.53 128.87 147.38 129.15 147.11 129.23L143.3 130.37C143.3 130.37 143.2 130.39 143.16 130.39ZM150.78 128.11C150.56 128.11 150.37 127.97 150.3 127.75C150.22 127.49 150.37 127.21 150.64 127.13L154.45 125.99C154.71 125.91 154.99 126.06 155.07 126.33C155.15 126.59 155 126.87 154.73 126.95L150.92 128.09C150.92 128.09 150.82 128.11 150.78 128.11ZM158.4 125.84C158.18 125.84 157.99 125.7 157.92 125.48C157.84 125.22 157.99 124.94 158.26 124.86L158.71 124.72C159.92 124.36 161.2 124.3 162.41 124.53C162.68 124.58 162.86 124.84 162.81 125.12C162.76 125.39 162.5 125.57 162.22 125.52C161.16 125.32 160.05 125.37 158.99 125.69L158.54 125.83C158.54 125.83 158.44 125.85 158.4 125.85V125.84Z" fill="#282828"/>
</svg>
