<svg width="500" height="500" viewBox="0 0 500 500" fill="none" xmlns="http://www.w3.org/2000/svg">
<path fill-rule="evenodd" clip-rule="evenodd" d="M263.312 9.16015C332.768 17.9582 396.011 46.8558 441.544 93.9684C483.536 137.418 493.746 194.232 497.288 251.253C501.12 312.923 507.627 379.782 462.221 426.784C414.388 476.297 336.775 487.918 263.312 493.447C180.754 499.661 82.0786 514.387 27.3094 459.519C-26.7633 405.348 21.8958 323.442 21.5555 251.253C21.2124 178.472 -29.1904 95.8503 25.3377 41.2465C80.4916 -13.9839 180.738 -1.29971 263.312 9.16015Z" fill="#EDF1FE"/>
<path d="M337.9 58.7003C310 58.0003 167.8 56.8003 55.3 108.7C53.3 109.6 52 111.6 52 113.9V405.8C52 408.9 54.5 411.5 57.7 411.5C58.6 411.5 59.6 411.3 60.4 410.8C89.3 395.1 188.8 345.4 295.5 343.9C295.5 343.9 313.7 343.9 330.8 348.2C334.9 349.2 339 346.7 340.1 342.6C340.2 342 340.3 341.4 340.3 340.8L342.8 63.7003C342.8 61.0003 340.6 58.8003 337.9 58.7003Z" fill="#EDF1FE"/>
<path d="M57.6996 412C56.5996 412 55.4996 411.7 54.5996 411.1C52.6996 410 51.5996 408 51.5996 405.8V113.9C51.5996 111.5 52.9996 109.3 55.1996 108.3C167.9 56.3001 310.6 57.5001 338.1 58.2001C341.1 58.3001 343.4 60.7001 343.4 63.7001L340.9 340.8C340.9 345.3 337.2 348.9 332.7 348.9C332.1 348.9 331.4 348.8 330.8 348.7C314 344.5 295.8 344.4 295.6 344.4C188.7 345.9 88.6996 396 60.5996 411.3C59.6996 411.7 58.6996 412 57.6996 412ZM322.2 59.0001C274.8 59.0001 153.7 63.9001 55.4996 109.2C53.6996 110.1 52.4996 111.9 52.4996 113.9V405.8C52.4996 408.7 54.7996 411 57.6996 411C58.5996 411 59.3996 410.8 60.1996 410.4C88.3996 395.1 188.5 344.9 295.5 343.4C295.7 343.4 314 343.5 330.9 347.7C334.7 348.6 338.6 346.3 339.6 342.5C339.7 342 339.8 341.4 339.8 340.9L342.3 63.8001C342.3 61.4001 340.4 59.4001 337.9 59.3001C334.4 59.1001 329.1 59.0001 322.2 59.0001Z" fill="#282828"/>
<path d="M273.9 175.7C261.5 183.9 245.3 183.5 233.4 174.7L221 183.3C230 191.8 242 196.6 254.4 196.7C263.6 196.7 272.5 194.1 280.3 189.1L273.9 175.7ZM254.6 81.6001V96.7001C272.5 96.8001 287.4 110.4 291.6 128.7L305.2 126.5C300 100.8 279.3 81.7001 254.6 81.6001Z" fill="#EDF1FE"/>
<path d="M254.399 197.2C241.799 197.1 229.799 192.3 220.599 183.7C220.499 183.6 220.399 183.5 220.399 183.3C220.399 183.1 220.499 183 220.599 182.9L232.999 174.3C233.199 174.2 233.399 174.2 233.599 174.3C245.399 183 261.399 183.4 273.599 175.3C273.699 175.2 273.899 175.2 273.999 175.2C274.099 175.2 274.299 175.3 274.299 175.5L280.699 188.9C280.799 189.1 280.699 189.4 280.499 189.5C272.699 194.5 263.599 197.1 254.399 197.2ZM221.699 183.3C230.599 191.5 242.199 196.1 254.299 196.1C263.199 196.1 271.999 193.6 279.499 188.8L273.599 176.3C261.199 184.2 245.199 183.8 233.199 175.2L221.699 183.3ZM291.599 129.1C291.399 129.1 291.199 128.9 291.099 128.7C286.899 110.2 271.799 97.3001 254.599 97.1001C254.299 97.1001 254.099 96.9001 254.099 96.6001V81.6001C254.099 81.5001 254.199 81.3001 254.199 81.2001C254.299 81.1001 254.399 81.1001 254.599 81.1001C279.299 81.2001 300.299 99.8001 305.699 126.3C305.699 126.4 305.699 126.6 305.599 126.7C305.499 126.8 305.399 126.9 305.299 126.9L291.599 129.1ZM255.099 96.2001C272.499 96.6001 287.499 109.6 291.999 128.1L304.599 126.1C299.099 100.5 278.899 82.6001 255.099 82.2001V96.2001Z" fill="#282828"/>
<path d="M254.6 81.6001V96.7001H254.4C251.2 96.7001 248.1 97.1001 245.1 98.0001C228.4 102.6 216 119.3 216 139.2C216 147.1 218 154.9 221.9 161.7C224.8 166.8 228.7 171.2 233.5 174.7L221.1 183.3C219.3 181.6 217.6 179.8 216 177.9C207.1 166.9 202.3 153.2 202.4 139.1C202.4 108.6 223.9 83.6001 251.1 81.7001C252.2 81.6001 253.4 81.6001 254.5 81.6001H254.6Z" fill="#6A90FF"/>
<path d="M220.899 183.8C220.799 183.8 220.699 183.8 220.599 183.7C218.799 182 217.099 180.2 215.499 178.3C206.499 167.2 201.699 153.4 201.799 139.2C201.799 108.7 223.399 83.2002 250.999 81.3002C252.099 81.2002 253.199 81.2002 254.499 81.2002H254.699C254.999 81.2002 255.199 81.4002 255.199 81.7002V96.8002C255.199 97.1002 254.999 97.3002 254.699 97.3002H254.499C251.399 97.3002 248.299 97.7002 245.299 98.5002C228.399 103.2 216.599 119.9 216.599 139.2C216.599 147 218.599 154.7 222.399 161.5C225.299 166.5 229.099 170.9 233.799 174.3C233.899 174.4 233.999 174.5 233.999 174.7C233.999 174.9 233.899 175 233.799 175.1L221.399 183.7C221.099 183.8 220.999 183.8 220.899 183.8ZM254.099 82.1002C252.999 82.1002 251.999 82.1002 250.999 82.2002C223.899 84.1002 202.699 109.1 202.699 139.1C202.599 153.1 207.399 166.7 216.199 177.6C217.699 179.4 219.299 181.1 220.999 182.7L232.499 174.7C227.999 171.3 224.199 166.9 221.399 161.9C217.499 154.9 215.399 147.1 215.499 139.1C215.499 119.3 227.599 102.2 244.999 97.4002C247.999 96.6002 251.099 96.1002 254.199 96.1002L254.099 82.1002Z" fill="#282828"/>
<path d="M306.5 139.1C306.5 160.5 295.9 179.2 280.2 189.1L273.8 175.7C285.1 168.3 292.7 154.7 292.7 139.1C292.7 135.6 292.3 132 291.5 128.6L305.1 126.4C306.1 130.6 306.5 134.8 306.5 139.1Z" fill="#6A90FF"/>
<path d="M280.2 189.6H280.1C280 189.6 279.8 189.5 279.8 189.3L273.4 175.9C273.3 175.7 273.4 175.4 273.6 175.3C285.1 167.8 292.3 153.9 292.3 139.1C292.3 135.6 291.9 132.1 291.1 128.7C291.1 128.6 291.1 128.4 291.2 128.3C291.3 128.2 291.4 128.1 291.5 128.1L305.1 125.9C305.4 125.9 305.6 126 305.7 126.3C306.6 130.5 307 134.8 307 139.1C307 159.9 296.8 179.2 280.5 189.5C280.4 189.6 280.3 189.6 280.2 189.6ZM274.5 175.9L280.4 188.4C296.2 178.2 306 159.4 306 139.1C306 135 305.6 130.9 304.8 126.9L292.2 129C292.9 132.3 293.3 135.7 293.3 139.1C293.3 154.1 286.1 168.1 274.5 175.9Z" fill="#282828"/>
<path d="M222.1 261.6L211.5 263.4V327.8L222.1 326V261.6Z" fill="#EDF1FE"/>
<path d="M211.5 328.2C211.4 328.2 211.3 328.2 211.2 328.1C211.1 328 211 327.9 211 327.7V263.3C211 263.1 211.2 262.8 211.4 262.8L222 261C222.3 261 222.5 261.1 222.6 261.4V261.5V326C222.6 326.2 222.4 326.5 222.2 326.5L211.5 328.2ZM212 263.8V327.1L221.6 325.5V262.2L212 263.8Z" fill="#282828"/>
<path d="M246.1 272.5L235.5 274.2V324.2L246.1 322.4V272.5Z" fill="#6A90FF"/>
<path d="M235.5 324.7C235.4 324.7 235.3 324.7 235.2 324.6C235.1 324.5 235 324.4 235 324.2V274.3C235 274.1 235.2 273.8 235.4 273.8L246 272C246.1 272 246.3 272 246.4 272.1C246.5 272.2 246.6 272.3 246.6 272.5V322.4C246.6 322.6 246.4 322.9 246.2 322.9L235.5 324.7ZM236 274.7V323.6L245.6 322V273.1L236 274.7Z" fill="#282828"/>
<path d="M270 241.4L259.5 243.2V320.7L270 318.9V241.4Z" fill="#EDF1FE"/>
<path d="M259.5 321.2C259.4 321.2 259.3 321.2 259.2 321.1C259.1 321 259 320.9 259 320.7V243.2C259 243 259.2 242.7 259.4 242.7L270 241C270.1 241 270.3 241 270.4 241.1C270.5 241.2 270.6 241.3 270.6 241.5V319C270.6 319.2 270.4 319.5 270.2 319.5L259.6 321.3L259.5 321.2ZM260 243.6V320L269.6 318.4V242L260 243.6Z" fill="#282828"/>
<path d="M294 226.5L283.5 228.3V318.4L294 316.6V226.5Z" fill="#6A90FF"/>
<path d="M283.5 318.9C283.4 318.9 283.3 318.9 283.2 318.8C283.1 318.7 283 318.6 283 318.4V228.2C283 228 283.2 227.7 283.4 227.7L294 226C294.3 226 294.5 226.2 294.6 226.5V316.6C294.6 316.8 294.4 317.1 294.2 317.1L283.6 318.9H283.5ZM284 228.7V317.8L293.6 316.2V227.1L284 228.7Z" fill="#282828"/>
<path d="M177.199 363.4C176.899 363.4 176.699 363.2 176.699 362.9V71.6001C176.699 71.3001 176.899 71.1001 177.199 71.1001C177.499 71.1001 177.699 71.3001 177.699 71.6001V362.9C177.699 363.2 177.499 363.4 177.199 363.4Z" fill="#282828"/>
<path d="M73.7997 155.1C73.5997 155.1 73.4997 155 73.3997 154.8C73.2997 154.6 73.2996 154.3 73.5996 154.1C73.8996 154 100.2 139.4 126.5 136C126.8 136 127 136.2 127.1 136.4C127.1 136.7 126.9 136.9 126.7 137C100.6 140.4 74.3996 154.8 74.0996 155C73.8996 155 73.8997 155.1 73.7997 155.1Z" fill="#282828"/>
<path d="M73.7998 179.1C73.4998 179.1 73.2998 178.9 73.2998 178.6C73.2998 178.4 73.3998 178.3 73.4998 178.2C73.7998 178 104 157.7 157.3 152.6C157.6 152.6 157.8 152.8 157.8 153C157.8 153.3 157.6 153.5 157.4 153.5C104.4 158.6 74.3998 178.7 74.0998 178.9C73.9998 179.1 73.8998 179.1 73.7998 179.1Z" fill="#282828"/>
<path d="M73.7998 203.1C73.4998 203.1 73.2998 202.9 73.2998 202.6C73.2998 202.4 73.3998 202.3 73.4998 202.2C73.7998 202 104 181.7 157.3 176.6C157.6 176.6 157.8 176.8 157.8 177.1C157.8 177.4 157.6 177.6 157.3 177.6C104.3 182.7 74.2998 202.8 73.9998 203C73.9998 203.1 73.8998 203.1 73.7998 203.1Z" fill="#282828"/>
<path d="M73.7998 227.2C73.4998 227.2 73.2998 227 73.2998 226.7C73.2998 226.5 73.3998 226.4 73.4998 226.3C73.7998 226.1 104 205.8 157.3 200.7C157.6 200.7 157.8 200.9 157.8 201.1C157.8 201.4 157.6 201.6 157.4 201.6C104.4 206.7 74.3998 226.8 74.0998 227C73.9998 227.1 73.8998 227.2 73.7998 227.2Z" fill="#282828"/>
<path d="M73.7996 270.7C73.5996 270.7 73.4996 270.6 73.3996 270.4C73.2996 270.2 73.3996 269.9 73.5996 269.7C73.8996 269.6 100.2 255 126.5 251.6C126.8 251.6 127 251.8 127.1 252C127.1 252.3 127 252.5 126.7 252.6C100.6 256 74.3996 270.4 74.0996 270.6C73.9996 270.7 73.8996 270.7 73.7996 270.7Z" fill="#282828"/>
<path d="M73.8 294.7C73.6 294.7 73.5 294.6 73.4 294.5C73.2 294.3 73.3 294 73.5 293.8C73.8 293.6 104 273.3 157.3 268.2C157.6 268.2 157.8 268.4 157.8 268.7C157.8 269 157.6 269.2 157.4 269.2C104.4 274.3 74.4 294.4 74.1 294.6C74 294.7 73.9 294.7 73.8 294.7Z" fill="#282828"/>
<path d="M73.8 318.8C73.6 318.8 73.5 318.7 73.4 318.6C73.2 318.4 73.3 318.1 73.5 317.9C73.8 317.7 104 297.4 157.3 292.3C157.6 292.3 157.8 292.5 157.8 292.8C157.8 293.1 157.6 293.3 157.4 293.3C104.4 298.4 74.4 318.5 74.1 318.7C74 318.7 73.9 318.8 73.8 318.8Z" fill="#282828"/>
<path d="M73.8 342.8C73.6 342.8 73.5 342.7 73.4 342.6C73.2 342.4 73.3 342.1 73.5 341.9C73.8 341.7 104 321.4 157.3 316.3C157.6 316.3 157.8 316.5 157.8 316.8C157.8 317.1 157.6 317.3 157.4 317.3C104.4 322.4 74.4 342.5 74.1 342.7C74 342.8 73.9 342.8 73.8 342.8Z" fill="#282828"/>
<path d="M222.899 207.5C222.799 207.5 222.699 207.5 222.599 207.4C222.399 207.2 222.399 206.9 222.499 206.7L237.199 188.8C237.399 188.6 237.699 188.6 237.899 188.8C238.099 189 238.099 189.2 237.999 189.4L223.299 207.3C223.199 207.5 223.099 207.5 222.899 207.5Z" fill="#282828"/>
<path d="M272.6 97.0002C272.5 97.0002 272.4 97.0002 272.3 96.9002C272.1 96.8002 272 96.4002 272.1 96.2002L283 78.6002C283.1 78.5002 283.2 78.4002 283.4 78.4002C288.1 77.8002 292.8 77.8002 297.4 78.4002C297.7 78.4002 297.9 78.7002 297.8 79.0002C297.8 79.3002 297.5 79.5002 297.2 79.4002C292.7 78.8002 288.2 78.8002 283.7 79.4002L273 96.8002C273 96.9002 272.8 97.0002 272.6 97.0002Z" fill="#282828"/>
<path d="M212.6 217.8C212.4 217.8 212.2 217.7 212.1 217.4C212 217.1 212.2 216.9 212.4 216.8C222.2 213.8 232.3 212.1 242.6 211.9C242.9 211.9 243.1 212.1 243.1 212.4C243.1 212.7 242.9 212.9 242.6 212.9C232.5 213.1 222.4 214.7 212.7 217.7L212.6 217.8Z" fill="#282828"/>
<path d="M212.6 227C212.4 227 212.2 226.9 212.1 226.6C212 226.3 212.2 226.1 212.4 226C222.2 223 232.3 221.3 242.6 221.1C242.9 221.1 243.1 221.3 243.1 221.6C243.1 221.9 242.9 222.1 242.6 222.1C232.5 222.3 222.4 223.9 212.7 226.9H212.6V227Z" fill="#282828"/>
<path d="M359.4 286.9L358.8 417.9C358.8 420.4 357.1 422.5 354.7 423L350 424C338.1 426.4 325.8 426.1 314 423C311.7 422.4 310.1 420.4 310.1 418L311.9 250L411.5 248.5L427.5 416.4C427.8 419.5 425.8 422.3 422.9 423.1C413.4 425.8 403.4 426.9 393.5 426.3L386.9 425.9C383.9 425.7 381.4 423.4 381 420.3L364.2 291.5L347 274.7" fill="#EDF1FE"/>
<path d="M399.1 427C397.2 427 395.3 426.9 393.4 426.8L386.8 426.4C383.5 426.2 380.8 423.7 380.4 420.4L363.7 291.8L360 288.2L359.4 418C359.4 420.7 357.5 423 354.9 423.5L350.2 424.5C338.2 426.9 325.8 426.6 314 423.5C311.5 422.8 309.7 420.6 309.8 418L311.6 250.1C311.6 249.8 311.8 249.6 312.1 249.6L411.6 248.1C411.9 248.1 412.1 248.3 412.1 248.5L428.1 416.4C428.4 419.7 426.3 422.8 423.1 423.7C415.2 425.8 407.2 427 399.1 427ZM347 274.2C347.1 274.2 347.3 274.3 347.4 274.3L364.5 291.1C364.6 291.2 364.6 291.3 364.6 291.4L381.4 420.2C381.8 423 384.1 425.1 386.9 425.3L393.5 425.7C403.3 426.4 413.2 425.3 422.7 422.6C425.4 421.8 427.2 419.2 426.9 416.4L411 249L312.4 250.4L310.6 417.8C310.6 419.9 312 421.8 314.1 422.4C325.8 425.5 338 425.8 349.9 423.4L354.6 422.4C356.8 421.9 358.3 420 358.4 417.8L359 287.1L346.6 275C346.4 274.8 346.4 274.5 346.6 274.3C346.7 274.2 346.9 274.1 347 274.2Z" fill="#282828"/>
<path d="M326.1 108.3L373.7 101.6C373.7 101.6 381.5 102.6 383.4 107.5C385.3 112.4 385 113.6 386.1 114C387.2 114.4 394.4 115.6 396.2 122.7C398 129.8 397 131.4 397.1 132.9C397.2 134.4 404.3 140 403.9 149.3C403.5 158.6 397.4 161.9 397.4 161.9L326.8 143.7C313.5 144.1 309.4 135.4 309.3 127.6C309.2 119.8 317.4 118 318.3 116.8C319.2 115.6 320 109.5 326.1 108.3Z" fill="#EDF1FE"/>
<path d="M397.399 162.6H397.299L326.799 144.4C321.199 144.6 316.699 143.1 313.599 140.1C310.499 137.1 308.899 132.8 308.799 127.8C308.699 121.5 313.699 119 316.399 117.6C316.899 117.4 317.399 117.1 317.899 116.7C318.099 116.3 318.299 115.9 318.399 115.5C319.299 113.2 320.899 108.9 325.999 107.9L373.599 101.2H373.699C373.999 101.2 381.799 102.2 383.799 107.4C384.599 109.4 384.999 110.9 385.299 111.8C385.699 113.2 385.799 113.5 386.199 113.6C386.299 113.7 386.499 113.7 386.799 113.8C388.999 114.5 394.899 116.2 396.599 122.7C397.999 128 397.699 130.4 397.599 131.8C397.499 132.2 397.499 132.6 397.499 133C397.799 133.6 398.199 134.3 398.699 134.8C400.799 137.5 404.599 142.4 404.299 149.5C403.799 159 397.799 162.4 397.599 162.6C397.599 162.6 397.499 162.6 397.399 162.6ZM326.899 143.4H326.999L397.299 161.5C398.199 160.9 402.999 157.4 403.399 149.4C403.699 142.7 399.999 138 397.999 135.4C397.399 134.7 396.899 134 396.599 133.1C396.599 132.6 396.599 132.2 396.599 131.7C396.699 130.3 396.999 128.1 395.699 122.9C394.199 117 388.699 115.3 386.599 114.7C386.399 114.6 386.099 114.6 385.899 114.5C384.999 114.2 384.899 113.5 384.399 112.1C384.099 111.1 383.699 109.8 382.899 107.8C381.199 103.4 374.399 102.3 373.699 102.2L326.199 108.8C321.699 109.7 320.199 113.5 319.399 115.8C319.199 116.3 318.999 116.8 318.699 117.3C318.199 117.8 317.599 118.2 316.899 118.5C314.199 119.9 309.799 122.1 309.899 127.8C309.899 132.6 311.499 136.7 314.299 139.4C317.099 142.1 321.499 143.6 326.899 143.4Z" fill="#282828"/>
<path d="M340.2 129.4C377.4 129.6 390.8 136.8 399.3 151.2C407.8 165.6 432.4 216.7 413.4 238.6L414.9 250C414.9 250 384.9 262.1 349.2 259.5C326.4 257.8 315.3 255.5 310.2 254C307.9 253.3 306.3 251.4 306.1 249L304.7 201.7C304.7 201.7 282.7 212.4 267.6 187.5C252.5 162.6 248.2 150.4 248.5 148.4C248.8 146.4 251.2 145.4 255.3 143.6C259.4 141.8 269.4 137.4 272.9 141C276.4 144.6 294.2 166 294.2 166C294.2 166 317.8 129 340.2 129.4Z" fill="#6A90FF"/>
<path d="M269.999 142.4C266.299 139.1 263.299 135 261.299 130.4C260.199 127.9 256.899 127.3 255.099 124.4C253.299 121.5 252.599 120.3 250.899 120.6C249.199 120.9 249.299 125.1 250.899 128.3C248.699 127.8 246.599 126.9 244.699 125.7C241.599 123.8 238.599 121.8 235.799 119.5C232.599 117 231.699 120.4 233.899 122.5C236.099 124.6 241.199 129.4 241.199 129.4C238.599 128.6 236.099 127.5 233.799 126C230.199 123.5 229.399 122.1 228.299 122.6C227.199 123.1 230.099 128.6 233.699 130.9C231.799 130.3 229.999 129.5 228.399 128.4C226.199 126.9 227.099 132.9 232.799 135.8C232.799 135.8 237.599 141.6 243.499 142.4C249.399 143.2 250.399 143.2 250.399 143.2L252.999 148.4C252.899 148.3 265.499 149.5 269.999 142.4Z" fill="#EDF1FE"/>
<path d="M255.1 148.9C254.4 148.9 253.7 148.9 252.9 148.8C252.7 148.8 252.6 148.7 252.5 148.5L250 143.6C249.4 143.6 247.7 143.4 243.4 142.8C237.7 142 233.1 136.9 232.5 136.1C228.6 134.1 226.8 130.6 226.8 128.9C226.7 128.4 227 128 227.4 127.7C227.9 127.5 228.4 127.6 228.8 127.9C229.6 128.4 230.4 128.9 231.3 129.3C229.1 127 227.6 124.1 227.7 122.8C227.7 122.4 227.9 122.1 228.3 122C229.3 121.6 229.9 122.2 231.2 123.2C232.2 124 233.2 124.8 234.3 125.5C235.9 126.6 237.6 127.4 239.4 128.1L233.8 122.9C232.3 121.5 232.1 119.6 232.8 118.7C233.1 118.4 234.1 117.5 236.3 119.2C239.1 121.4 242.1 123.5 245.2 125.3C246.8 126.3 248.5 127.1 250.3 127.6C249.3 125.2 249.1 122.5 249.9 121.1C250.1 120.6 250.6 120.2 251.1 120.1C253.1 119.8 254.1 121.3 255.8 124.1C256.6 125.3 257.7 126.3 259 127.1C260.3 127.8 261.3 128.8 262 130.1C264 134.6 267 138.6 270.6 141.9C270.8 142.1 270.8 142.3 270.7 142.5C266.9 148.2 259 148.9 255.1 148.9ZM253.3 147.9C255.1 148 265.2 148.4 269.4 142.5C265.8 139.2 262.9 135.1 260.9 130.6C260.2 129.5 259.3 128.6 258.2 128C256.8 127.2 255.6 126 254.7 124.7C252.9 121.8 252.3 120.9 251 121.1C250.9 121.1 250.7 121.1 250.5 121.5C249.9 122.7 250.1 125.6 251.4 128C251.5 128.2 251.5 128.4 251.4 128.5C251.3 128.7 251.1 128.7 250.9 128.7C248.6 128.2 246.4 127.3 244.5 126C241.4 124.1 238.4 122.1 235.5 119.8C234.5 119 233.7 118.8 233.4 119.2C233.1 119.6 233.2 121 234.3 122C236.5 124.1 241.6 128.9 241.6 128.9C241.8 129.1 241.8 129.3 241.7 129.5C241.6 129.7 241.4 129.8 241.1 129.7C238.4 128.9 235.9 127.7 233.6 126.2C232.2 125.2 231.2 124.4 230.5 123.9C229.4 123.1 229.1 122.7 228.7 122.8C228.6 123.7 230.9 128.1 234.1 130.2C234.3 130.3 234.4 130.6 234.3 130.8C234.2 131 233.9 131.1 233.7 131.1C231.8 130.5 229.9 129.7 228.2 128.6C228.1 128.5 228 128.5 227.8 128.4C227.8 128.7 227.8 129 227.9 129.3C228.7 131.9 230.6 134 233.1 135.1C233.2 135.1 233.2 135.2 233.3 135.2C233.3 135.3 238 140.9 243.6 141.6C249.2 142.3 250.4 142.4 250.4 142.4C250.6 142.4 250.8 142.5 250.8 142.7L253.3 147.9Z" fill="#282828"/>
<path d="M252.6 143.2C252.3 143.2 252.1 143 252 142.8C252 142.5 252.2 142.3 252.4 142.2C252.5 142.2 259 140.7 261 137.4C261.1 137.2 261.4 137.1 261.7 137.2C261.9 137.3 262 137.6 261.9 137.9C259.7 141.5 253 143 252.7 143.1L252.6 143.2Z" fill="#282828"/>
<path d="M256.5 131C256.4 131 256.4 131 256.3 131C256.3 131 253.7 129.9 250.2 128.7C249.9 128.6 249.8 128.3 249.9 128.1C250 127.8 250.3 127.7 250.5 127.8C254 129 256.6 130.1 256.6 130.1C256.9 130.2 257 130.5 256.9 130.7C256.8 130.9 256.6 131 256.5 131Z" fill="#282828"/>
<path d="M242.1 138.1C242 138.1 242 138.1 241.9 138.1C238.1 136.6 237.3 135.3 236.6 133.7C236.4 133.3 236.3 132.8 236.1 132.4C235.8 131.6 235.6 130.9 235.2 130.7C235.1 130.7 234.9 130.7 234.8 130.8C234.2 131.3 233.6 132.7 233.8 134.5C233.8 134.8 233.6 135 233.4 135.1C233.2 135.2 232.9 134.9 232.8 134.7C232.6 132.4 233.3 130.7 234.2 130.1C234.6 129.8 235.1 129.7 235.6 129.9C236.5 130.3 236.8 131.2 237.1 132.2C237.2 132.6 237.4 133 237.5 133.4C238 134.5 238.5 135.7 242.3 137.2C242.6 137.3 242.7 137.6 242.6 137.8C242.4 138 242.2 138.1 242.1 138.1Z" fill="#282828"/>
<path d="M239.6 137C239.2 137 239.1 136.7 239.1 136.4C239.9 131.9 241.9 129.2 245.4 128C245.7 127.9 245.9 128.1 246 128.3C246.1 128.6 245.9 128.8 245.7 128.9C242.5 130 240.8 132.3 240.1 136.5C240.1 136.8 239.9 137 239.6 137Z" fill="#282828"/>
<path d="M248.1 138.1C247.8 138.1 247.6 137.9 247.6 137.7C247.6 137.5 246.9 132 250.5 129.6C250.7 129.4 251 129.5 251.2 129.7C251.4 129.9 251.3 130.2 251.1 130.4C248 132.5 248.6 137.5 248.6 137.5C248.6 137.8 248.5 138.1 248.1 138.1C248.2 138.1 248.2 138.1 248.1 138.1Z" fill="#282828"/>
<path d="M328.6 185.4C326.1 171.9 322.7 159.3 322.7 159.3L265.1 162.2C265.1 162.2 281.7 230.9 283 232.3C284.3 233.7 340.2 234.8 340.2 234.8L328.6 185.4Z" fill="#EDF1FE"/>
<path d="M340.2 235.3C327 235 284 234 282.6 232.7C281.2 231.4 267.4 173.9 264.6 162.4C264.6 162.3 264.6 162.1 264.7 162C264.8 161.9 264.9 161.8 265.1 161.8L322.7 158.9C322.9 158.9 323.1 159 323.2 159.3C323.2 159.4 326.7 172 329.1 185.4L340.7 234.8C340.7 235 340.7 235.1 340.6 235.2C340.5 235.2 340.3 235.3 340.2 235.3ZM283.3 231.9C285.6 232.8 317.8 233.8 339.5 234.2L328.1 185.4C325.9 173.3 322.9 162 322.3 159.7L265.7 162.6C272.2 189.6 282 229.6 283.3 231.9Z" fill="#282828"/>
<path d="M322.699 159.3L320.399 161.6L336.899 234.7L340.199 234.8L322.699 159.3Z" fill="#6A90FF"/>
<path d="M340.2 235.3L337 235.2C336.8 235.2 336.6 235 336.5 234.8L320 161.7C320 161.5 320 161.4 320.1 161.2L322.4 158.9C322.5 158.8 322.7 158.7 322.9 158.8C323.1 158.8 323.2 159 323.3 159.2L340.8 234.7C340.8 234.9 340.8 235 340.7 235.1C340.5 235.2 340.3 235.3 340.2 235.3ZM337.3 234.2H339.5L322.4 160.2L320.9 161.6L337.3 234.2Z" fill="#282828"/>
<path d="M350.799 201.7C341.699 196.9 338.199 193 335.899 189.9C333.599 186.8 329.899 185.3 328.699 185.4L330.599 193.5C330.599 193.5 323.799 192.3 318.699 190.8C313.599 189.3 310.499 186.2 308.899 186.9C307.299 187.6 309.499 192.4 314.099 194.3C318.699 196.2 323.899 197.9 323.899 197.9C323.899 197.9 317.599 199.1 313.299 197.4C308.999 195.7 306.699 194.5 306.699 196.4C306.699 198.3 313.899 203.8 323.499 204.7C320.699 205.3 317.899 205.3 315.099 204.7C310.199 203.7 310.499 207.2 313.099 208.2C317.699 209.7 322.499 210.5 327.299 210.4C325.099 211.7 322.799 212.8 320.299 213.5C316.999 214.3 317.699 218.1 323.199 217.8C328.699 217.5 337.799 215.1 340.399 213.1C340.399 213.1 341.899 217.1 344.199 217.4C346.499 217.7 351.999 215.7 353.599 210.9C355.199 206.1 350.799 201.7 350.799 201.7Z" fill="#EDF1FE"/>
<path d="M322.5 218.6C319.4 218.6 317.8 217.3 317.6 216C317.5 215 318.1 213.8 320 213.3C321.8 212.8 323.6 212.1 325.3 211.2C321 211 316.8 210.3 312.8 208.9C311.3 208.3 310.3 206.9 310.7 205.7C310.8 205.2 311.6 203.7 315.1 204.4C316.7 204.7 318.3 204.9 319.9 204.8C312 203.1 306 198.6 306.1 196.5C306.1 196 306.3 195.5 306.7 195.3C307.6 194.7 309.1 195.3 311.8 196.4L313.4 197C316.1 197.8 318.9 198.1 321.6 197.7C319.6 197 316.6 195.9 313.8 194.8C310.3 193.3 307.8 190 307.8 187.9C307.7 187.3 308.1 186.7 308.6 186.4C309.7 185.9 311 186.7 312.9 187.7C314.8 188.8 316.7 189.6 318.8 190.3C322.8 191.5 328 192.5 329.9 192.9L328.2 185.5C328.1 185.2 328.3 185 328.6 184.9C328.6 184.9 328.6 184.9 328.7 184.9C330.1 184.8 333.9 186.2 336.3 189.6C338.7 192.8 342.3 196.7 351.1 201.3L351.2 201.4C351.4 201.6 355.8 206.3 354 211.4C352.2 216.5 346.5 218.5 344 218.2C342 217.9 340.5 215.3 340 214.2C336.8 216.2 328.4 218.4 323 218.7L322.5 218.6ZM327.1 210.1C327.3 210.1 327.5 210.2 327.6 210.5C327.7 210.7 327.6 210.9 327.4 211.1C325.2 212.5 322.7 213.5 320.2 214.3C319.1 214.6 318.5 215.2 318.6 215.9C318.7 216.8 320.1 217.8 322.9 217.7C328.3 217.5 337.4 215 339.8 213.1C339.9 213 340.1 213 340.2 213C340.4 213 340.5 213.2 340.5 213.3C340.9 214.3 342.3 217.1 343.9 217.3C345.8 217.6 351.2 215.8 352.8 211.2C354.3 207 350.7 202.8 350.3 202.3C341.4 197.6 337.7 193.6 335.3 190.4C333.8 188.3 331.6 186.8 329.1 186.2L330.9 193.7C330.9 193.9 330.9 194 330.8 194.1C330.7 194.2 330.5 194.3 330.4 194.2C330.3 194.2 323.5 193 318.4 191.5C316.3 190.8 314.3 189.9 312.3 188.8C310.7 187.9 309.5 187.3 308.9 187.6C308.8 187.7 308.7 187.8 308.7 188.1C308.7 189.7 310.8 192.7 314.1 194.1C318.6 196 323.9 197.7 323.9 197.7C324.1 197.8 324.3 198 324.3 198.2C324.3 198.4 324.1 198.6 323.9 198.7C323.6 198.8 317.4 199.9 313 198.2L311.4 197.6C309.5 196.8 307.7 196.1 307.2 196.4C307.1 196.5 307.1 196.7 307.1 196.8C307 198.2 313.9 203.7 323.5 204.6C323.8 204.6 324 204.8 324 205.1C324 205.4 323.8 205.6 323.5 205.6C320.7 206.3 317.7 206.3 314.9 205.6C312.8 205.2 311.8 205.6 311.7 206.2C311.6 206.8 312.1 207.7 313.2 208.2C317.6 209.4 322.3 210.2 327.1 210.1Z" fill="#282828"/>
<path d="M340.199 213.8C339.899 213.8 339.699 213.6 339.699 213.3C339.699 213.2 339.799 213 339.899 212.9C341.899 211.2 344.199 208.3 343.599 204.2C343.599 203.9 343.699 203.7 343.999 203.6C344.299 203.6 344.499 203.7 344.599 204C345.299 208.5 342.799 211.7 340.599 213.6C340.399 213.8 340.299 213.8 340.199 213.8Z" fill="#282828"/>
<path d="M320.4 161.6L265 162.3L267.5 159.3H322.7L320.4 161.6Z" fill="#EDF1FE"/>
<path d="M264.999 162.8C264.799 162.8 264.599 162.7 264.499 162.5C264.399 162.3 264.399 162.1 264.599 162L267.099 159.1C267.199 159 267.299 158.9 267.499 158.9H322.599C322.899 158.9 323.099 159.1 323.099 159.4C323.099 159.5 322.999 159.7 322.999 159.8L320.699 162.1C320.599 162.2 320.499 162.2 320.299 162.2L264.999 162.8ZM267.799 159.8L266.199 161.7L320.199 161.1L321.499 159.8H267.799Z" fill="#282828"/>
<path d="M394.1 213.8C393.9 213.8 393.8 213.7 393.7 213.5C384.7 197.8 379.5 182.3 378.7 168.7C378 158 380.1 148.4 384.3 142.4C384.5 142.2 384.8 142.1 385 142.3C385.2 142.5 385.3 142.8 385.1 143C371.8 161.9 384.8 195.9 394.6 213.1C394.7 213.3 394.6 213.6 394.4 213.8C394.3 213.8 394.2 213.8 394.1 213.8Z" fill="#282828"/>
<path d="M401.399 216C401.299 216 401.299 216 401.199 216C400.399 215.7 397.199 214.8 393.099 213.5C383.599 210.7 369.299 206.4 366.799 205.2L365.399 204.5C361.599 202.6 351.599 197.4 349.299 199.5C349.099 199.7 348.799 199.7 348.599 199.5C348.399 199.3 348.399 199 348.599 198.8C351.099 196.5 358.399 199.8 365.799 203.6L367.199 204.3C369.699 205.5 383.899 209.7 393.299 212.5C397.399 213.7 400.599 214.7 401.499 215C401.799 215.1 401.899 215.4 401.799 215.6C401.799 215.9 401.599 216 401.399 216Z" fill="#282828"/>
<path d="M396.099 242.7C395.299 242.7 394.499 242.7 393.599 242.7C384.099 242.3 374.799 240.2 365.899 236.7C345.699 228.7 339.099 220.7 339.599 216.4C339.599 216.1 339.899 215.9 340.199 216C340.499 216 340.699 216.3 340.599 216.6C340.399 218.7 342.199 221.7 345.799 224.7C350.299 228.5 357.399 232.4 366.299 235.9C386.399 243.8 404.599 242.6 411.099 239.3C411.299 239.2 411.599 239.3 411.799 239.5C411.899 239.7 411.799 240 411.599 240.2C408.299 241.7 402.599 242.7 396.099 242.7Z" fill="#282828"/>
<path d="M374.699 97.6001C374.699 97.6001 384.299 99.3001 389.199 91.2001C394.099 83.1001 389.699 65.2001 371.499 60.7001C353.299 56.2001 350.899 73.6001 355.899 79.2001C360.899 84.8001 374.699 97.6001 374.699 97.6001Z" fill="#EDF1FE"/>
<path d="M376.7 98.2998C376 98.2998 375.3 98.2998 374.6 98.1998C374.5 98.1998 374.4 98.0998 374.3 98.0998C374.2 97.9998 360.4 85.1998 355.4 79.6998C352.8 76.6998 351.9 70.1998 354.9 65.2998C356.7 62.3998 361.2 57.7998 371.5 60.3998C383 63.2998 387.8 70.9998 389.6 75.2998C392 81.0998 392 87.4998 389.5 91.5998C386 97.3998 379.9 98.2998 376.7 98.2998ZM374.9 97.1998C376.1 97.3998 384.4 98.1998 388.7 90.9998C391 87.0998 391 81.0998 388.7 75.5998C386.9 71.3998 382.4 64.0998 371.3 61.2998C361.6 58.8998 357.4 62.9998 355.8 65.6998C353.1 70.1998 353.8 76.2998 356.2 78.9998C360.9 84.1998 373.6 95.8998 374.9 97.1998Z" fill="#282828"/>
<path d="M374.2 106.8C377.7 101.7 377 90.0001 366 81.0001C355 72.0001 337.7 77.4001 337.7 77.4001C333.1 74.4001 325.2 76.1001 322.9 86.3001C321.5 92.4001 322.4 98.9001 325.5 104.4L374.2 106.8Z" fill="#EDF1FE"/>
<path d="M374.2 107.2L325.5 104.8C325.3 104.8 325.2 104.7 325.1 104.6C322 98.9999 321 92.3999 322.5 86.0999C323.6 81.0999 326.3 77.4999 329.9 76.0999C332.5 74.9999 335.5 75.2999 337.9 76.6999C340 76.0999 356 71.9999 366.4 80.4999C377.9 89.9999 378.2 101.9 374.7 106.9C374.5 107.2 374.3 107.3 374.2 107.2ZM325.8 103.9L374 106.2C377.2 101.1 376.2 89.8999 365.8 81.2999C355.2 72.4999 338.2 77.6999 338 77.7999C337.9 77.7999 337.7 77.7999 337.6 77.6999C335.4 76.2999 332.7 76.0999 330.3 76.9999C327 78.2999 324.6 81.5999 323.5 86.2999C322.1 92.2999 322.9 98.4999 325.8 103.9Z" fill="#282828"/>
<path d="M364.099 118.8C363.499 127.1 363.599 136.7 363.599 136.7C363.599 136.7 360.699 144.2 352.499 143.9C344.299 143.6 344.899 136.7 345.099 135.3C345.299 133.9 346.999 129.4 347.399 127.9C347.799 126.4 364.099 118.8 364.099 118.8Z" fill="#EDF1FE"/>
<path d="M353 144.4H352.5C349.7 144.3 347.6 143.4 346.2 141.8C344.3 139.5 344.4 136.4 344.6 135.2C345 133.6 345.4 132.1 346 130.6C346.4 129.4 346.8 128.3 346.9 127.8C347.3 126.2 358.9 120.7 363.9 118.4C364.1 118.3 364.2 118.3 364.4 118.4C364.5 118.5 364.6 118.7 364.6 118.8C364 126.9 364.1 136.6 364.1 136.7C364.1 136.8 364.1 136.8 364.1 136.9C364.1 136.9 361 144.4 353 144.4ZM363.6 119.6C356.1 123.1 348.4 127.1 347.9 128C347.8 128.6 347.4 129.7 347 130.9C346.5 132.3 346 133.8 345.7 135.3C345.4 137.4 345.9 139.5 347.1 141.2C348.3 142.6 350.1 143.3 352.6 143.4C359.9 143.7 362.8 137.4 363.2 136.6C363.1 135.6 363.1 127.1 363.6 119.6Z" fill="#282828"/>
<path d="M327 94.9C327 94.9 321.2 116.8 330.5 124.9C339.8 133 361.5 129.8 366.8 115C366.8 115 371.6 119.7 374.9 114.1C378.2 108.5 373 103.3 367.3 106.3C367.3 106.3 364.6 100.6 353.6 97.8C347.2 96.2 341.3 93 336.4 88.5C336.4 88.6 334.8 92.5 327 94.9Z" fill="#EDF1FE"/>
<path d="M343.9 129.8C338.5 129.8 333.5 128.2 330.2 125.3C326.2 121.9 324.4 115.6 324.8 106.9C325 102.8 325.6 98.7997 326.5 94.7997C326.5 94.5997 326.7 94.4997 326.8 94.4997C334.2 92.1997 335.9 88.4997 335.9 88.4997C336 88.2997 336.1 88.1997 336.3 88.1997C336.5 88.1997 336.6 88.1997 336.8 88.2997C341.6 92.6997 347.4 95.8997 353.7 97.4997C363.2 99.9997 366.6 104.4 367.5 105.8C369.9 104.5 372.9 104.9 374.9 106.8C376.8 108.8 376.9 111.8 375.3 114.5C374.5 116 373.1 117.1 371.4 117.4C369.8 117.5 368.2 117 367 116C364.5 122.2 358.8 126.9 351.2 128.9C348.9 129.5 346.4 129.8 343.9 129.8ZM327.4 95.2997C326.8 97.7997 322.4 117.2 330.9 124.5C335.5 128.5 343.4 129.8 351 127.8C358.6 125.8 364.1 121.1 366.4 114.8C366.5 114.6 366.6 114.5 366.8 114.5C367 114.5 367.1 114.5 367.3 114.6C367.3 114.6 369.3 116.6 371.5 116.3C372.9 116 374 115.1 374.6 113.9C376.3 111.1 375.5 108.7 374.3 107.4C372.7 105.7 370.1 105.5 367.6 106.8C367.5 106.9 367.3 106.9 367.2 106.8C367.1 106.8 367 106.7 366.9 106.5C366.9 106.5 364.2 101 353.5 98.1997C347.2 96.5997 341.4 93.4997 336.6 89.1997C335.7 90.6997 333.4 93.3997 327.4 95.2997Z" fill="#282828"/>
<path d="M346.799 102.8C347.399 102.4 347.999 102.1 348.699 102C349.399 101.8 349.999 101.7 350.699 101.7C351.399 101.7 352.099 101.7 352.799 101.9C353.499 102 354.099 102.3 354.699 102.6C354.999 102.7 355.099 103 354.899 103.3C354.799 103.5 354.599 103.6 354.399 103.6C353.099 103.6 351.899 103.5 350.699 103.5C350.099 103.5 349.499 103.5 348.899 103.6C348.299 103.7 347.699 103.7 347.099 103.8H346.999C346.699 103.8 346.499 103.6 346.399 103.4C346.499 103.1 346.599 102.9 346.799 102.8Z" fill="#282828"/>
<path d="M328.1 100.9C328.8 100.7 329.6 100.5 330.4 100.5C331.2 100.4 331.9 100.4 332.7 100.5C333.5 100.6 334.2 100.7 334.9 100.9C335.6 101.1 336.4 101.3 337 101.7C337.3 101.8 337.4 102 337.4 102.3C337.4 102.6 337.1 102.7 336.8 102.7C335.3 102.6 333.9 102.4 332.5 102.3L330.4 102.1C329.7 102.1 329 102 328.3 102C328 102 327.8 101.8 327.8 101.5C327.8 101.1 327.9 100.9 328.1 100.9Z" fill="#282828"/>
<path d="M336.2 115.2C334.9 115.2 333.8 114.3 333.7 113C333.5 112.3 333.7 111.6 334.1 111C334.9 110.2 336 109.7 337.1 109.6C337.1 107.1 336.9 104.7 336.4 102.2C336.4 101.9 336.5 101.7 336.8 101.6C337.1 101.6 337.3 101.7 337.4 102C337.9 104.6 338.1 107.3 338.1 110C338.1 110.3 337.9 110.5 337.6 110.5C336.6 110.5 335.6 110.9 334.8 111.6C334.5 111.9 334.5 112.4 334.6 112.8C334.7 113.7 335.4 114.3 336.3 114.2H336.4C337.6 114.1 338.6 113.1 338.6 111.9C338.6 111.6 338.8 111.4 339.1 111.4C339.4 111.4 339.6 111.6 339.6 111.9C339.6 113.6 338.3 115.1 336.5 115.3C336.4 115.2 336.3 115.2 336.2 115.2Z" fill="#282828"/>
<path d="M351.6 108.4C351.5 109.7 350.6 110.7 349.7 110.6C348.8 110.5 348.1 109.4 348.3 108.1C348.3 107.7 348.4 107.4 348.6 107L350.1 108L349.5 106C349.7 105.9 349.9 105.8 350.1 105.9C351 106 351.7 107.1 351.6 108.4Z" fill="#282828"/>
<path d="M333.499 106.9C333.399 108.2 332.499 109.2 331.599 109.1C330.699 109 329.999 107.9 330.199 106.6C330.199 106.2 330.299 105.9 330.499 105.5L331.999 106.5L331.399 104.5C331.599 104.4 331.799 104.4 331.999 104.4C332.999 104.4 333.699 105.6 333.499 106.9Z" fill="#282828"/>
<path d="M342.5 121.4C341.1 121.3 339.9 120.7 338.9 119.8C338.7 119.6 338.7 119.3 338.8 119.1C339 118.9 339.3 118.9 339.5 119.1C340.4 120.1 341.8 120.6 343.1 120.4C344.1 120 344.9 119.2 345.1 118.2C345.2 117.9 345.5 117.8 345.7 117.9C346 118 346.1 118.3 346 118.5C345.7 119.9 344.6 121 343.3 121.4C343.1 121.4 342.8 121.5 342.5 121.4Z" fill="#282828"/>
<path d="M373.699 111.2C373.499 111.2 373.299 111.1 373.199 110.9C372.999 110.2 372.499 109.6 371.799 109.2C370.799 108.9 369.799 109 368.899 109.4C368.599 109.5 368.299 109.4 368.199 109.2C368.099 109 368.199 108.7 368.399 108.5C369.599 108 370.899 107.9 372.099 108.3C373.099 108.7 373.799 109.5 374.099 110.5C374.199 110.8 374.099 111 373.799 111.1C373.799 111.2 373.799 111.2 373.699 111.2Z" fill="#282828"/>
<path d="M370.499 114.6C370.299 114.6 370.099 114.5 369.999 114.2C369.899 113.9 369.999 113.7 370.299 113.6C370.899 113.4 371.299 113 371.499 112.4C371.899 111.3 371.899 110.1 371.499 109C371.399 108.8 371.399 108.5 371.699 108.3C371.999 108.1 372.199 108.2 372.399 108.5C372.399 108.5 372.399 108.5 372.399 108.6C372.899 110 372.899 111.5 372.399 112.8C372.099 113.6 371.399 114.3 370.499 114.5C370.599 114.6 370.599 114.6 370.499 114.6Z" fill="#282828"/>
<path d="M357.9 426.2L359.9 455.3C360.1 457.3 358.5 459.1 356.5 459.3L302.8 463.3C300.7 463.5 299 461.9 298.8 459.9C298.8 459.7 298.8 459.6 298.8 459.4L298.9 458.1C298.9 458.1 300.1 432.6 326.6 429C326.6 428.9 340 431.6 357.9 426.2Z" fill="#6A90FF"/>
<path d="M299.6 457.9C299.3 457.9 299.1 457.7 299.1 457.4C299.1 457.1 299.3 456.9 299.6 456.9L359.1 452.5C359.4 452.5 359.6 452.7 359.6 453C359.6 453.3 359.4 453.5 359.1 453.5L299.6 457.9Z" fill="#282828"/>
<path d="M344.699 454.6C344.399 454.6 344.199 454.4 344.199 454.1C344.199 454 344.399 440.7 358.699 438.9C358.999 438.9 359.199 439.1 359.299 439.3C359.399 439.5 359.099 439.8 358.899 439.9C345.399 441.6 345.199 454 345.199 454.1C345.199 454.3 344.999 454.6 344.699 454.6Z" fill="#282828"/>
<path d="M327.899 437.9C327.799 437.9 327.699 437.9 327.599 437.8L314.399 427.9C314.199 427.7 314.099 427.4 314.299 427.2C314.499 427 314.799 426.9 314.999 427.1L328.199 437C328.399 437.2 328.499 437.5 328.299 437.7C328.199 437.8 328.099 437.9 327.899 437.9Z" fill="#282828"/>
<path d="M322 440.7C321.9 440.7 321.8 440.7 321.7 440.6L308.5 430.7C308.3 430.5 308.2 430.2 308.4 430C308.6 429.8 308.9 429.7 309.1 429.9L322.3 439.8C322.5 440 322.6 440.3 322.4 440.5C322.3 440.6 322.2 440.7 322 440.7Z" fill="#282828"/>
<path d="M425.499 426.2L427.499 455.3C427.699 457.3 426.099 459.1 424.099 459.3L370.399 463.3C368.399 463.5 366.599 461.9 366.399 459.9C366.399 459.7 366.399 459.5 366.399 459.4L366.499 458.1C366.499 458.1 367.699 432.6 394.199 429C394.199 428.9 407.599 431.6 425.499 426.2Z" fill="#6A90FF"/>
<path d="M367.1 457.9C366.8 457.9 366.6 457.7 366.6 457.4C366.6 457.1 366.8 456.9 367.1 456.9L426.6 452.5C426.9 452.5 427.1 452.7 427.1 453C427.1 453.3 426.9 453.5 426.6 453.5L367.1 457.9Z" fill="#282828"/>
<path d="M412.3 454.6C412 454.6 411.8 454.4 411.8 454.1C411.8 454 411.9 440.7 426.3 438.9C426.6 438.9 426.8 439.1 426.9 439.3C427 439.5 426.7 439.8 426.5 439.9C413 441.6 412.8 454 412.8 454.1C412.8 454.3 412.6 454.6 412.3 454.6Z" fill="#282828"/>
<path d="M395.5 437.9C395.4 437.9 395.3 437.9 395.2 437.8L382 427.9C381.8 427.7 381.7 427.4 381.9 427.2C382.1 427 382.4 426.9 382.6 427.1L395.8 437C396 437.2 396.1 437.5 395.9 437.7C395.8 437.8 395.7 437.9 395.5 437.9Z" fill="#282828"/>
<path d="M389.5 440.7C389.4 440.7 389.3 440.7 389.2 440.6L376 430.7C375.8 430.5 375.7 430.2 375.9 430C376.1 429.8 376.4 429.7 376.6 429.9L389.8 439.8C390 440 390.1 440.3 389.9 440.5C389.9 440.6 389.7 440.7 389.5 440.7Z" fill="#282828"/>
</svg>
