<svg width="500" height="500" viewBox="0 0 500 500" fill="none" xmlns="http://www.w3.org/2000/svg">
<path fill-rule="evenodd" clip-rule="evenodd" d="M229.282 1.19196C297.325 8.14299 341.073 65.9787 388.938 113.05C435.987 159.319 493.659 202.228 499.315 266.747C505.309 335.117 471.426 402.959 418.37 448.776C367.705 492.527 297.342 499.471 229.282 499.934C160.567 500.402 84.416 499.704 37.5022 451.368C-8.59813 403.87 3.96125 331.744 2.95841 266.747C1.93098 200.155 -12.1618 128.046 31.7193 76.5581C78.4279 21.7531 156.054 -6.28876 229.282 1.19196Z" fill="#EDF1FE"/>
<path d="M398.099 363.2V375.6L268.299 428.5C264.399 430.1 259.999 430.4 255.999 429.2L18.7992 363.6C17.9992 363.4 17.6992 362.7 17.6992 362.1C17.6992 362.1 17.6992 362 17.6992 361.9V349.9C17.7992 350.5 18.1992 351 18.7992 351.2L32.4992 355L63.9992 363.7L255.999 416.8C260.099 417.9 264.399 417.7 268.299 416.1L370.099 374.6L379.999 370.6L398.099 363.2Z" fill="#6A90FF"/>
<path d="M261.099 430.4C259.299 430.4 257.599 430.2 255.899 429.7L18.6992 364.1C17.7992 363.9 17.1992 363.1 17.1992 362.1C17.1992 362 17.1992 362 17.1992 361.9V349.9C17.1992 349.6 17.3992 349.4 17.6992 349.4C17.9992 349.4 18.1992 349.6 18.1992 349.8C18.1992 350.1 18.4992 350.5 18.9992 350.7L256.199 416.3C260.099 417.4 264.399 417.2 268.199 415.6L397.999 362.7C398.099 362.6 398.299 362.7 398.499 362.7C398.599 362.8 398.699 362.9 398.699 363.1V375.5C398.699 375.7 398.599 375.9 398.399 376L268.499 429C266.199 429.9 263.599 430.4 261.099 430.4ZM18.0992 351.4V361.9C18.0992 362 18.0992 362 18.0992 362.1C18.0992 362.5 18.2992 363 18.8992 363.1L256.099 428.7C259.999 429.8 264.299 429.6 268.099 428L397.599 375.2V363.9L268.499 416.5C264.499 418.1 259.999 418.4 255.799 417.2L63.8992 364.2L18.5992 351.7C18.4992 351.6 18.2992 351.5 18.0992 351.4Z" fill="#6A90FF"/>
<path d="M398.099 363.2L379.999 370.6L370.099 374.6L268.299 416.1C264.399 417.7 259.999 418 255.999 416.8L64.0992 363.7L32.4992 355L18.7992 351.2C18.1992 351 17.7992 350.5 17.6992 349.9V349.6C17.6992 349 17.9992 348.5 18.6992 348.2L150.299 294.6L398.099 363.2Z" fill="white"/>
<path d="M261.1 418C259.3 418 257.6 417.8 255.9 417.3L63.8996 364.2L18.5996 351.7C17.7996 351.5 17.1996 350.8 17.0996 350V349.6C17.0996 348.7 17.5996 348.1 18.3996 347.7L150 294.1C150.1 294.1 150.2 294.1 150.3 294.1L398.2 362.7C398.4 362.8 398.6 362.9 398.6 363.2C398.6 363.5 398.5 363.6 398.3 363.7L268.5 416.6C266.1 417.5 263.6 418 261.1 418ZM150.2 295.1L18.7996 348.7C18.1996 348.9 18.1996 349.5 18.1996 349.7V349.9C18.1996 350.1 18.4996 350.5 18.9996 350.7L256.2 416.3C260.1 417.4 264.4 417.2 268.2 415.6L396.6 363.3L150.2 295.1Z" fill="#0C41E2"/>
<path d="M452.899 182.9L221.999 119C217.599 117.8 212.899 120.2 211.399 124.5L150.199 294.6L398.099 363.2L458.799 194.3C460.599 189.5 457.799 184.2 452.899 182.9Z" fill="white"/>
<path d="M398.1 363.7H398L150.1 295.1C150 295.1 149.9 295 149.8 294.9C149.7 294.8 149.7 294.6 149.8 294.5L211 124.4C212.6 119.8 217.6 117.3 222.2 118.6L453 182.4C455.5 183.1 457.6 184.8 458.8 187.1C460 189.4 460.2 192.1 459.3 194.5L398.6 363.4C398.5 363.6 398.3 363.7 398.1 363.7ZM150.8 294.2L397.7 362.6L458.3 194.2C459.1 192 458.9 189.6 457.9 187.6C456.8 185.5 455 184 452.7 183.4L221.8 119.5C217.6 118.3 213.2 120.6 211.8 124.7L150.8 294.2Z" fill="#0C41E2"/>
<path d="M161.6 288.7L219.6 127.4L450.6 191.3L392.6 352.6L161.6 288.7Z" fill="white"/>
<path d="M392.6 353.1H392.5L161.5 289.2C161.4 289.2 161.3 289.1 161.2 289C161.1 288.9 161.1 288.7 161.2 288.6L219.2 127.3C219.3 127.1 219.6 126.9 219.8 127L450.8 190.9C450.9 190.9 451 191 451.1 191.1C451.2 191.2 451.2 191.4 451.1 191.5L393.1 352.8C393 353 392.8 353.1 392.6 353.1ZM162.3 288.3L392.3 352L450 191.6L220 127.9L162.3 288.3Z" fill="#0C41E2"/>
<path d="M222.9 372.8L181.4 389.7L158.8 383.5L136.2 377.2L113.6 370.9L155.1 354L177.7 360.3L200.2 366.5L222.9 372.8Z" fill="#6A90FF"/>
<path d="M174.6 317.2L191.3 321.8L202.1 317.4L185.4 312.8L174.6 317.2Z" fill="#6A90FF"/>
<path d="M304.6 368.4L287.9 363.8L277 368.2L293.7 372.8L304.6 368.4Z" fill="#6A90FF"/>
<path d="M321.1 361.6L304.4 357L293.6 361.4L310.3 366.1L321.1 361.6Z" fill="#6A90FF"/>
<path d="M236.8 349.6L220.1 345L209.3 349.4L226 354L236.8 349.6Z" fill="#6A90FF"/>
<path d="M259.399 355.9L242.699 351.2L231.899 355.7L248.599 360.3L259.399 355.9Z" fill="#6A90FF"/>
<path d="M287.5 348.5L304.2 353.1L315.1 348.6L298.4 344L287.5 348.5Z" fill="#6A90FF"/>
<path d="M214.199 343.4L197.599 338.7L186.699 343.2L203.399 347.8L214.199 343.4Z" fill="#6A90FF"/>
<path d="M219.8 329.7L236.4 334.3L247.3 329.9L230.6 325.3L219.8 329.7Z" fill="#6A90FF"/>
<path d="M197.199 323.4L213.899 328.1L224.699 323.6L207.999 319L197.199 323.4Z" fill="#6A90FF"/>
<path d="M264.899 342.2L281.599 346.8L292.499 342.4L275.799 337.8L264.899 342.2Z" fill="#6A90FF"/>
<path d="M242.399 335.9L258.999 340.6L269.899 336.1L253.199 331.5L242.399 335.9Z" fill="#6A90FF"/>
<path d="M282 362.1L265.3 357.5L254.5 361.9L271.1 366.5L282 362.1Z" fill="#6A90FF"/>
<path d="M248.399 348.9L265.099 353.6L275.999 349.1L259.299 344.5L248.399 348.9Z" fill="#6A90FF"/>
<path d="M298.5 355.4L281.9 350.8L271 355.2L287.7 359.8L298.5 355.4Z" fill="#6A90FF"/>
<path d="M225.8 342.7L242.5 347.3L253.4 342.9L236.7 338.3L225.8 342.7Z" fill="#6A90FF"/>
<path d="M310.1 354.7L326.8 359.3L337.6 354.9L321 350.3L310.1 354.7Z" fill="#6A90FF"/>
<path d="M360.199 361.1L343.599 356.5L332.699 361L349.399 365.6L360.199 361.1Z" fill="#6A90FF"/>
<path d="M158.1 323.9L174.7 328.5L185.6 324.1L168.9 319.5L158.1 323.9Z" fill="#6A90FF"/>
<path d="M203.199 336.4L219.899 341L230.799 336.6L214.099 332L203.199 336.4Z" fill="#6A90FF"/>
<path d="M191.6 337.1L175 332.5L164.1 336.9L180.8 341.5L191.6 337.1Z" fill="#6A90FF"/>
<path d="M141.5 330.7L158.2 335.3L169.1 330.9L152.4 326.2L141.5 330.7Z" fill="#6A90FF"/>
<path d="M180.6 330.2L197.3 334.8L208.2 330.4L191.5 325.8L180.6 330.2Z" fill="#6A90FF"/>
<path d="M343.699 367.9L326.999 363.3L316.199 367.7L332.899 372.3L343.699 367.9Z" fill="#6A90FF"/>
<path d="M146.099 309.3L156.899 304.9L147.699 302.3L136.899 306.7L146.099 309.3Z" fill="#6A90FF"/>
<path d="M366.1 362.8L355.3 367.2L365.1 369.9L375.9 365.5L366.1 362.8Z" fill="#6A90FF"/>
<path d="M327.2 374.6L310.5 370L299.6 374.4L316.3 379.1L327.2 374.6Z" fill="#6A90FF"/>
<path d="M129.6 316L140.4 311.6L131.2 309L120.3 313.5L129.6 316Z" fill="#6A90FF"/>
<path d="M359.4 372.2L349.6 369.5L338.8 374L348.5 376.7L359.4 372.2Z" fill="#6A90FF"/>
<path d="M316.499 383L305.699 387.4L315.499 390.1L326.299 385.7L316.499 383Z" fill="#6A90FF"/>
<path d="M310.6 381.4L294 376.8L283.1 381.2L299.8 385.8L310.6 381.4Z" fill="#6A90FF"/>
<path d="M152 310.9L168.7 315.5L179.5 311.1L162.9 306.5L152 310.9Z" fill="#6A90FF"/>
<path d="M96.4998 329.5L107.3 325.1L98.0998 322.5L87.2998 327L96.4998 329.5Z" fill="#6A90FF"/>
<path d="M113 322.8L123.9 318.4L114.7 315.8L103.8 320.2L113 322.8Z" fill="#6A90FF"/>
<path d="M333.099 376.3L322.199 380.7L331.999 383.4L342.899 379L333.099 376.3Z" fill="#6A90FF"/>
<path d="M152.5 337.6L135.9 333L125 337.4L141.7 342L152.5 337.6Z" fill="#6A90FF"/>
<path d="M288 375.1L271.4 370.5L260.5 374.9L277.2 379.5L288 375.1Z" fill="#6A90FF"/>
<path d="M118.899 324.4L135.599 329L146.499 324.6L129.799 320L118.899 324.4Z" fill="#6A90FF"/>
<path d="M175.1 343.9L158.4 339.2L147.6 343.6L164.3 348.3L175.1 343.9Z" fill="#6A90FF"/>
<path d="M135.5 317.7L152.1 322.3L163 317.9L146.3 313.2L135.5 317.7Z" fill="#6A90FF"/>
<path d="M102.399 331.1L119.099 335.8L129.899 331.3L113.299 326.7L102.399 331.1Z" fill="#6A90FF"/>
<path d="M265.499 368.9L248.799 364.2L237.899 368.7L254.599 373.3L265.499 368.9Z" fill="#6A90FF"/>
<path d="M242.9 362.6L226.2 358L215.3 362.4L232 367L242.9 362.6Z" fill="#6A90FF"/>
<path d="M220.3 356.4L203.6 351.7L192.8 356.2L209.4 360.8L220.3 356.4Z" fill="#6A90FF"/>
<path d="M197.699 350.1L180.999 345.5L170.199 349.9L186.899 354.5L197.699 350.1Z" fill="#6A90FF"/>
<path d="M100.8 255.4L165.7 74.8999L424.3 146.4L359.4 327L100.8 255.4Z" fill="white"/>
<path d="M359.4 327.5H359.3L100.7 255.9C100.6 255.9 100.5 255.8 100.4 255.7C100.3 255.6 100.3 255.4 100.4 255.3L165.3 74.7001C165.4 74.5001 165.7 74.3001 165.9 74.4001L424.4 146C424.5 146 424.6 146.1 424.7 146.2C424.8 146.3 424.8 146.5 424.7 146.6L359.8 327.1C359.8 327.4 359.6 327.5 359.4 327.5ZM101.4 255.1L359 326.4L423.6 146.8L166 75.5001L101.4 255.1Z" fill="#0C41E2"/>
<path d="M134.5 199.4L148.6 160.4L204.4 175.9L190.4 214.9L134.5 199.4Z" fill="white"/>
<path d="M190.4 215.4H190.3L134.4 199.9C134.3 199.9 134.2 199.8 134.1 199.7C134 199.6 134 199.4 134.1 199.3L148.1 160.3C148.2 160.1 148.5 159.9 148.7 160L204.6 175.5C204.7 175.5 204.8 175.6 204.9 175.7C205 175.8 205 176 204.9 176.1L190.9 215.1C190.8 215.3 190.6 215.4 190.4 215.4ZM135.2 199.1L190.1 214.3L203.8 176.2L148.9 161L135.2 199.1Z" fill="#0C41E2"/>
<path d="M127.601 220.9L132.201 206.3L188.101 221.8L183.401 236.4L127.601 220.9Z" fill="white"/>
<path d="M183.4 236.9H183.3L127.4 221.4C127.3 221.4 127.2 221.3 127.1 221.2C127 221.1 127 220.9 127.1 220.8L131.8 206.2C131.9 205.9 132.2 205.8 132.4 205.9L188.3 221.4C188.4 221.4 188.5 221.5 188.6 221.6C188.7 221.7 188.7 221.9 188.6 222L183.9 236.6C183.8 236.7 183.6 236.9 183.4 236.9ZM128.2 220.5L183.1 235.7L187.5 222.1L132.6 206.9L128.2 220.5Z" fill="#0C41E2"/>
<path d="M183.3 278.5C183.2 278.5 183.2 278.5 183.1 278.5C182.8 278.4 182.7 278.1 182.8 277.9L247.3 97.2003C247.4 96.9003 247.7 96.8003 247.9 96.9003C248.2 97.0003 248.3 97.3003 248.2 97.5003L183.7 278.2C183.7 278.4 183.5 278.5 183.3 278.5Z" fill="#0C41E2"/>
<path d="M345.1 148.3H345L264.4 126C264.1 125.9 264 125.7 264 125.4C264.1 125.1 264.3 125 264.6 125.1L345.1 147.4C345.4 147.5 345.5 147.8 345.5 148C345.5 148.2 345.3 148.3 345.1 148.3Z" fill="#0C41E2"/>
<path d="M340 163.8H339.9L259.4 141.5C259.1 141.4 259 141.1 259 140.9C259.1 140.6 259.4 140.5 259.6 140.5L340.1 162.8C340.4 162.9 340.5 163.2 340.5 163.4C340.4 163.7 340.2 163.8 340 163.8Z" fill="#0C41E2"/>
<path d="M376.9 203.7H376.8L264.4 172.6C264.1 172.5 264 172.2 264 172C264.1 171.7 264.3 171.6 264.6 171.6L377 202.7C377.3 202.8 377.4 203.1 377.4 203.3C377.3 203.6 377.1 203.7 376.9 203.7Z" fill="#0C41E2"/>
<path d="M259.414 170.397C260.738 167.48 260.058 164.32 257.896 163.338C255.734 162.357 252.907 163.925 251.583 166.842C250.259 169.758 250.938 172.918 253.101 173.9C255.263 174.882 258.089 173.313 259.414 170.397Z" fill="#6A90FF"/>
<path d="M254.5 174.6C254 174.6 253.4 174.5 252.9 174.3C250.5 173.2 249.7 169.8 251.1 166.6C252.5 163.5 255.6 161.8 258 162.9C260.4 164 261.2 167.4 259.8 170.6C258.8 173.1 256.6 174.6 254.5 174.6ZM256.5 163.6C254.8 163.6 253 165 252.1 167.1C250.9 169.7 251.5 172.6 253.4 173.5C255.3 174.4 257.8 172.9 259 170.3C260.2 167.7 259.6 164.8 257.7 163.9C257.3 163.6 256.9 163.6 256.5 163.6Z" fill="#0C41E2"/>
<path d="M368.2 228.3H368.1L255.7 197.2C255.4 197.1 255.3 196.8 255.3 196.6C255.4 196.3 255.7 196.2 255.9 196.2L368.3 227.3C368.6 227.4 368.7 227.7 368.7 227.9C368.7 228.2 368.5 228.3 368.2 228.3Z" fill="#0C41E2"/>
<path d="M250.735 195.026C252.059 192.11 251.38 188.95 249.217 187.968C247.055 186.986 244.229 188.554 242.905 191.471C241.58 194.388 242.26 197.548 244.422 198.53C246.584 199.511 249.411 197.943 250.735 195.026Z" fill="#6A90FF"/>
<path d="M245.8 199.2C245.3 199.2 244.7 199.1 244.2 198.9C241.8 197.8 241 194.4 242.4 191.2C243.8 188.1 246.9 186.4 249.3 187.5C251.7 188.6 252.5 192 251.1 195.2C250.1 197.7 247.9 199.2 245.8 199.2ZM247.8 188.2C246.1 188.2 244.3 189.6 243.4 191.7C242.2 194.3 242.8 197.2 244.7 198.1C246.6 199 249.1 197.5 250.3 194.9C251.5 192.3 250.9 189.4 249 188.5C248.7 188.2 248.2 188.2 247.8 188.2Z" fill="#0C41E2"/>
<path d="M359.501 252.9H359.401L247.001 221.8C246.701 221.7 246.601 221.4 246.601 221.2C246.701 220.9 246.901 220.8 247.201 220.8L359.601 251.9C359.901 252 360.001 252.3 360.001 252.5C360.001 252.8 359.801 252.9 359.501 252.9Z" fill="#0C41E2"/>
<path d="M242.083 219.555C243.408 216.639 242.728 213.478 240.566 212.497C238.404 211.515 235.577 213.083 234.253 216C232.929 218.916 233.608 222.077 235.771 223.058C237.933 224.04 240.759 222.472 242.083 219.555Z" fill="#6A90FF"/>
<path d="M237.2 223.8C236.7 223.8 236.1 223.7 235.6 223.5C233.2 222.4 232.4 219 233.8 215.8C235.2 212.7 238.3 211 240.7 212.1C243.1 213.2 243.9 216.6 242.5 219.8C241.4 222.3 239.2 223.8 237.2 223.8ZM239.2 212.8C237.5 212.8 235.7 214.2 234.8 216.3C233.6 218.9 234.2 221.8 236.1 222.7C238 223.6 240.5 222.1 241.7 219.5C242.9 216.9 242.3 214 240.4 213.1C240 212.9 239.6 212.8 239.2 212.8Z" fill="#0C41E2"/>
<path d="M350.9 277.5H350.8L238.4 246.4C238.1 246.3 238 246 238 245.8C238.1 245.5 238.4 245.4 238.6 245.4L351 276.5C351.3 276.6 351.4 276.9 351.4 277.1C351.3 277.4 351.1 277.5 350.9 277.5Z" fill="#0C41E2"/>
<path d="M233.398 244.176C234.722 241.259 234.043 238.099 231.881 237.117C229.718 236.135 226.892 237.704 225.568 240.62C224.243 243.537 224.923 246.697 227.085 247.679C229.247 248.661 232.074 247.092 233.398 244.176Z" fill="#6A90FF"/>
<path d="M228.5 248.4C228 248.4 227.4 248.3 226.9 248.1C224.5 247 223.7 243.6 225.1 240.4C226.5 237.3 229.6 235.6 232 236.7C233.2 237.2 234 238.4 234.4 239.8C234.7 241.2 234.5 242.8 233.8 244.3C232.7 246.9 230.5 248.4 228.5 248.4ZM230.5 237.4C228.8 237.4 227 238.8 226.1 240.9C224.9 243.5 225.5 246.4 227.4 247.3C229.3 248.2 231.8 246.7 233 244.1C233.6 242.8 233.8 241.4 233.5 240.2C233.3 239 232.6 238.2 231.7 237.8C231.3 237.4 230.9 237.4 230.5 237.4Z" fill="#0C41E2"/>
<path d="M208.3 140.8C206.7 144.4 204.6 147.5 202.2 150.2C195.1 158.2 185.2 161.6 177.2 157.9C170.3 154.8 166.4 147.1 166.4 138.2C166.4 133.4 167.4 128.3 169.7 123.3C176.2 109 190.1 101.4 200.7 106.2C211.4 111 214.8 126.5 208.3 140.8Z" fill="white"/>
<path d="M184.1 159.8C181.7 159.8 179.3 159.3 177.1 158.3C170.2 155.2 166 147.7 166 138.2C166 133.2 167.1 127.9 169.3 123C175.9 108.5 190.1 100.7 201 105.7C206.3 108.1 210 113.1 211.5 119.8C212.9 126.4 212 134 208.8 141C207.2 144.5 205.1 147.7 202.7 150.5C197.1 156.5 190.4 159.8 184.1 159.8ZM193.9 105.2C184.9 105.2 175.2 112.3 170.1 123.4C167.9 128.2 166.8 133.2 166.9 138.1C167 147.2 170.9 154.3 177.5 157.3C185.1 160.7 194.6 157.7 201.9 149.7C204.3 147 206.3 143.9 207.9 140.5C211 133.7 211.9 126.4 210.5 120C209.1 113.6 205.6 108.9 200.6 106.6C198.4 105.7 196.2 105.2 193.9 105.2Z" fill="#0C41E2"/>
<path d="M202.2 150.1C195.1 158.1 185.2 161.5 177.2 157.8C170.3 154.7 166.4 147 166.4 138.1C173.5 130.1 183.4 126.7 191.4 130.3C198.3 133.6 202.2 141.2 202.2 150.1Z" fill="white"/>
<path d="M184.1 159.8C181.7 159.8 179.3 159.3 177.1 158.3C170.2 155.2 166 147.7 166 138.2C166 138.1 166 138 166.1 137.9C173.6 129.5 183.7 126.4 191.6 130C198.5 133.1 202.7 140.7 202.7 150.1C202.7 150.2 202.7 150.3 202.6 150.4C197.1 156.5 190.4 159.8 184.1 159.8ZM166.9 138.4C167 147.4 171 154.5 177.4 157.4C184.9 160.8 194.4 157.9 201.6 149.9C201.5 140.9 197.5 133.8 191.1 130.9C183.6 127.5 174.1 130.4 166.9 138.4Z" fill="#0C41E2"/>
<path d="M198.775 127.217C201.423 121.384 200.024 115.045 195.649 113.058C191.274 111.072 185.581 114.191 182.932 120.024C180.284 125.857 181.683 132.196 186.058 134.182C190.433 136.168 196.126 133.05 198.775 127.217Z" fill="white"/>
<path d="M188.8 135.2C187.8 135.2 186.7 135 185.8 134.6C181.2 132.5 179.7 125.8 182.5 119.8C183.8 116.9 185.9 114.5 188.4 113.1C190.9 111.7 193.6 111.5 195.8 112.5C200.4 114.6 201.9 121.3 199.1 127.3C197.8 130.2 195.7 132.6 193.2 134C191.8 134.8 190.3 135.3 188.8 135.2ZM192.9 112.9C191.6 112.9 190.3 113.3 188.9 114C186.6 115.3 184.6 117.5 183.4 120.2C180.9 125.8 182.1 131.9 186.2 133.7C188.2 134.6 190.5 134.4 192.7 133.1C195 131.8 197 129.6 198.2 126.9C200.7 121.3 199.5 115.2 195.4 113.4C194.6 113.1 193.8 112.9 192.9 112.9Z" fill="#0C41E2"/>
<path d="M391.9 136.7C391.6 136.7 391.3 136.6 391 136.5C389.7 136 389.1 134.6 389.5 133.3L397.5 112.2C398.3 110 398.2 107.6 397.1 105.5C396 103.4 394.2 101.9 391.9 101.3L389 100.5C385.1 99.5004 380.9 101.5 379.3 105.3L371.4 123.9C370.9 125.2 369.4 125.8 368.1 125.2C366.8 124.7 366.2 123.2 366.8 121.9L374.7 103.3C377.2 97.3004 383.9 94.0004 390.2 95.7004L393.1 96.5004C396.7 97.4004 399.8 99.9004 401.5 103.2C403.2 106.5 403.4 110.4 402.1 113.9L394.1 135C393.8 136.1 392.9 136.7 391.9 136.7Z" fill="white"/>
<path d="M391.9 137.2C391.5 137.2 391.2 137.1 390.8 137C389.3 136.4 388.5 134.7 389 133.1L397 112C397.8 109.9 397.6 107.7 396.6 105.7C395.6 103.7 393.8 102.3 391.7 101.8L388.8 101C385.1 100 381.2 101.9 379.7 105.5L371.8 124.1C371.2 125.6 369.4 126.3 367.9 125.7C366.4 125.1 365.7 123.3 366.3 121.8L374.2 103.2C376.8 97.0002 383.8 93.5002 390.3 95.3002L393.2 96.1002C397 97.1002 400.1 99.6002 401.9 103.1C403.7 106.5 403.9 110.6 402.5 114.2L394.5 135.3C394.2 136.4 393.1 137.2 391.9 137.2ZM386.9 99.8002C387.6 99.8002 388.4 99.9002 389.1 100.1L392 100.9C394.4 101.5 396.4 103.1 397.5 105.3C398.6 107.5 398.8 110 397.9 112.4L389.9 133.5C389.5 134.5 390 135.7 391.1 136.1C392.1 136.5 393.3 135.9 393.7 134.9L401.7 113.8C403 110.4 402.7 106.7 401.1 103.5C399.5 100.3 396.5 97.9002 393 97.0002L390.1 96.2002C384 94.6002 377.6 97.8002 375.1 103.5L367.2 122.1C366.8 123.1 367.2 124.3 368.3 124.7C369.4 125.1 370.5 124.6 370.9 123.6L378.8 105C380.2 101.9 383.5 99.8002 386.9 99.8002Z" fill="#0C41E2"/>
<path d="M356.701 137.4L364.401 115.2C365.601 111.7 369.401 109.7 372.901 110.7L397.701 117.4C401.701 118.5 403.901 122.7 402.501 126.6L394.801 148.8C393.601 152.3 389.801 154.3 386.301 153.3L361.501 146.6C357.601 145.5 355.401 141.3 356.701 137.4Z" fill="white"/>
<path d="M388.2 154.1C387.6 154.1 386.9 154 386.2 153.8L361.4 147.1C359.4 146.5 357.7 145.2 356.7 143.3C355.7 141.4 355.6 139.3 356.2 137.3L363.9 115.1C365.2 111.4 369.2 109.2 373 110.3L397.8 117C399.8 117.6 401.5 118.9 402.5 120.8C403.5 122.7 403.6 124.8 403 126.8L395.3 149C394.3 152.1 391.3 154.1 388.2 154.1ZM371.1 111C368.4 111 365.8 112.7 364.9 115.4L357.2 137.5C356.6 139.3 356.7 141.1 357.6 142.7C358.5 144.3 359.9 145.5 361.7 146L386.5 152.7C389.8 153.6 393.3 151.8 394.5 148.5L402.2 126.3C402.8 124.5 402.7 122.7 401.8 121.1C400.9 119.5 399.5 118.3 397.7 117.8L372.9 111.1C372.3 111.1 371.7 111 371.1 111Z" fill="#0C41E2"/>
<path d="M384.901 127.2C384.101 129.1 382.701 130.7 381.201 131.6L379.201 136.9C378.801 138 377.801 138.6 376.701 138.6C376.501 138.6 376.301 138.6 376.101 138.5C374.501 138.1 373.701 136.4 374.301 134.9L376.001 130.6C375.301 129.4 375.201 127.7 376.001 125.8C377.201 122.7 380.201 120.5 382.701 120.8C385.101 121.2 386.101 124.1 384.901 127.2Z" fill="#0C41E2"/>
<path d="M376.7 139C376.5 139 376.2 139 375.9 138.9C375 138.7 374.3 138.1 373.8 137.3C373.4 136.5 373.3 135.5 373.7 134.7L375.3 130.7C374.6 129.3 374.6 127.5 375.3 125.7C376.6 122.3 379.8 120 382.5 120.4C383.6 120.6 384.5 121.2 385.1 122.2C385.9 123.6 385.9 125.5 385.2 127.4C384.5 129.3 383.1 131 381.4 131.9L379.5 137C379.2 138.2 378 139 376.7 139ZM382 121.3C379.9 121.3 377.4 123.3 376.4 126C375.8 127.7 375.8 129.2 376.4 130.4C376.5 130.5 376.5 130.7 376.4 130.8L374.7 135.1C374.5 135.7 374.5 136.3 374.8 136.9C375.1 137.5 375.6 137.9 376.2 138C376.4 138 376.6 138.1 376.7 138.1C377.6 138.1 378.4 137.5 378.7 136.7L380.7 131.4C380.7 131.3 380.8 131.2 380.9 131.1C382.4 130.3 383.7 128.8 384.4 127C385 125.4 385 123.8 384.4 122.6C384 121.9 383.3 121.4 382.5 121.3C382.4 121.3 382.2 121.3 382 121.3Z" fill="#0C41E2"/>
<path d="M399.2 230.2L401.2 225C399.8 224.5 398.7 223.8 397.7 222.9C396.7 222 396 221 395.4 219.9C394.3 217.6 394.2 215.1 395.3 212.3L396.2 209.8L402.9 211.4L402.1 213.6C401.7 214.5 401.6 215.5 401.8 216.4C402 217.3 402.6 218.1 403.6 218.6L409 204.3L407 203C404.5 201.2 403.2 199.3 402.9 197.2C402.6 195.1 403 192.7 404 189.9C405.2 186.8 407 184.3 409.4 182.4C411.8 180.5 414.7 179.7 418 180.1L419.8 175.5L423.1 176.3L421.3 180.9C422.7 181.4 423.9 182.1 424.9 183C425.9 183.9 426.6 184.9 427.1 186.1C427.6 187.3 427.9 188.4 427.9 189.7C427.9 191 427.7 192.1 427.3 193.3L426.1 196.4L419.4 194.8L419.9 193.4C420.4 192.1 420.6 190.9 420.5 189.8C420.4 188.7 419.9 187.9 418.8 187.3L414.1 199.8L416.5 201.5C417.8 202.4 418.7 203.3 419.4 204.2C420.1 205.1 420.4 206.1 420.6 207.2C420.7 208.3 420.6 209.5 420.3 210.8C420 212.1 419.5 213.6 418.9 215.2C418.2 217 417.4 218.6 416.5 220C415.6 221.4 414.6 222.6 413.4 223.6C412.2 224.6 410.8 225.3 409.3 225.7C407.8 226.1 406.1 226.2 404.2 225.9L402.2 231.1L399.2 230.2ZM415.7 186.4C414.4 186.5 413.4 187.1 412.6 188C411.8 188.9 411.2 190.1 410.7 191.4C410.1 192.9 409.9 194 409.9 194.9C409.9 195.7 410.4 196.6 411.5 197.5L415.7 186.4ZM406.9 219.4C408.4 219.4 409.5 218.9 410.3 217.9C411 216.9 411.8 215.4 412.5 213.6C412.9 212.6 413.2 211.7 413.4 211C413.6 210.3 413.7 209.7 413.6 209.2C413.5 208.2 412.8 207.4 411.8 206.6L406.9 219.4Z" fill="#6A90FF"/>
<path d="M402.5 231.5H402.4L399.1 230.7C399 230.7 398.9 230.6 398.8 230.5C398.7 230.4 398.6 230.2 398.7 230L400.5 225.3C399.3 224.8 398.2 224.1 397.3 223.3C396.3 222.4 395.5 221.4 394.9 220.2C393.7 217.8 393.7 215.1 394.8 212.2L395.7 209.7C395.8 209.5 396 209.3 396.3 209.4L403 211C403.1 211 403.3 211.1 403.3 211.3C403.3 211.5 403.4 211.6 403.3 211.7L402.5 213.9C402.2 214.8 402.1 215.6 402.2 216.5C402.3 217.1 402.7 217.6 403.3 218L408.3 204.6L406.7 203.4C404.1 201.5 402.7 199.5 402.4 197.3C402.1 195.2 402.5 192.6 403.6 189.8C404.8 186.6 406.7 184 409.2 182C411.6 180.1 414.5 179.3 417.8 179.5L419.4 175.2C419.5 175 419.7 174.8 420 174.9L423.3 175.7C423.4 175.7 423.6 175.8 423.6 176C423.7 176.1 423.7 176.3 423.6 176.4L422 180.6C423.3 181.1 424.4 181.8 425.3 182.6C426.3 183.5 427.1 184.6 427.7 185.8C428.2 187 428.5 188.3 428.5 189.6C428.5 190.9 428.3 192.1 427.8 193.3L426.6 196.4C426.5 196.6 426.3 196.8 426 196.7L419.3 195.1C419.2 195.1 419 195 419 194.8C419 194.6 418.9 194.5 419 194.4L419.5 193C420 191.8 420.2 190.6 420.1 189.7C420 189 419.7 188.4 419.2 188L414.9 199.5L416.9 201C418.2 201.9 419.2 202.9 419.9 203.9C420.6 204.9 421 206 421.2 207.1C421.3 208.3 421.2 209.5 420.9 210.9C420.6 212.2 420.1 213.6 419.5 215.3C418.8 217.1 418 218.8 417.1 220.2C416.1 221.7 415.1 222.9 413.9 223.9C412.6 224.9 411.2 225.6 409.6 226.1C408.1 226.5 406.5 226.6 404.7 226.4L402.9 231.2C402.9 231.3 402.8 231.5 402.5 231.5ZM399.9 229.8L402.3 230.4L404.1 225.6C404.2 225.4 404.4 225.3 404.6 225.3C406.4 225.5 408.1 225.5 409.5 225.1C410.9 224.7 412.3 224 413.4 223.1C414.5 222.2 415.5 221.1 416.4 219.7C417.3 218.3 418 216.7 418.7 215C419.3 213.4 419.8 211.9 420 210.7C420.3 209.4 420.4 208.3 420.3 207.2C420.2 206.2 419.8 205.3 419.2 204.4C418.6 203.5 417.7 202.6 416.4 201.8L414 200.1C413.8 200 413.7 199.7 413.8 199.5L418.5 187C418.6 186.9 418.7 186.8 418.8 186.7C418.9 186.7 419.1 186.7 419.2 186.7C420.3 187.4 421 188.3 421.1 189.6C421.2 190.7 421 192 420.5 193.4L420.2 194.3L425.9 195.6L426.9 192.9C427.3 191.8 427.5 190.7 427.5 189.5C427.5 188.4 427.2 187.3 426.8 186.1C426.3 185 425.6 184 424.7 183.2C423.8 182.4 422.6 181.7 421.3 181.2C421.2 181.2 421.1 181.1 421 180.9C420.9 180.8 420.9 180.6 421 180.5L422.5 176.4L420.2 175.8L418.6 180C418.5 180.2 418.3 180.3 418.1 180.3C414.9 180 412.1 180.7 409.8 182.5C407.5 184.3 405.7 186.8 404.6 189.8C403.6 192.5 403.2 194.8 403.5 196.8C403.8 198.7 405.1 200.5 407.4 202.3L409.3 203.7C409.5 203.8 409.6 204.1 409.5 204.3L404.1 218.6C404.1 218.7 403.9 218.8 403.8 218.9C403.7 219 403.5 218.9 403.4 218.9C402.2 218.3 401.5 217.5 401.3 216.4C401.1 215.4 401.2 214.3 401.6 213.3L402.2 211.6L396.5 210.3L395.7 212.4C394.7 215.1 394.7 217.5 395.8 219.7C396.3 220.8 397 221.7 397.9 222.5C398.8 223.3 399.9 224 401.3 224.5C401.4 224.5 401.5 224.6 401.6 224.8C401.7 225 401.7 225.1 401.6 225.2L399.9 229.8ZM406.9 220C406.6 220 406.4 219.8 406.4 219.5C406.4 219.4 406.4 219.4 406.4 219.3L411.3 206.4C411.4 206.3 411.5 206.1 411.6 206.1C411.7 206.1 411.9 206.1 412 206.2C413.2 207 413.8 208 414 209.1C414 209.7 414 210.4 413.8 211.1C413.6 211.9 413.3 212.8 412.9 213.8C412.2 215.7 411.4 217.2 410.7 218.2C409.8 219.4 408.6 220 406.9 220ZM412 207.4L407.6 218.9C408.6 218.8 409.3 218.3 409.8 217.6C410.5 216.6 411.2 215.2 411.9 213.4C412.3 212.5 412.5 211.6 412.8 210.8C413 210.2 413 209.6 413 209.1C412.9 208.5 412.6 207.9 412 207.4ZM411.5 198C411.4 198 411.3 198 411.2 197.9C410 196.9 409.5 196 409.4 195C409.4 194.1 409.7 192.9 410.3 191.3C410.8 189.9 411.5 188.8 412.3 187.8C413.1 186.8 414.3 186.1 415.7 186C415.9 186 416 186.1 416.2 186.2C416.3 186.3 416.3 186.5 416.3 186.7L412.1 197.8C412 198 411.9 198.1 411.8 198.1C411.6 198 411.6 198 411.5 198ZM414.9 187.1C414.1 187.3 413.5 187.8 413 188.4C412.3 189.3 411.7 190.4 411.2 191.7C410.7 193.1 410.4 194.2 410.4 195C410.4 195.5 410.7 196.1 411.3 196.7L414.9 187.1Z" fill="#0C41E2"/>
<path d="M136.599 71.3L146.499 43.8C147.399 41.3 149.999 40 152.599 40.7L195.799 52.7C198.599 53.5 200.199 56.5 199.199 59.2L189.299 86.7C188.399 89.2 185.799 90.5 183.199 89.8L139.999 77.8C137.099 77 135.599 74 136.599 71.3Z" fill="white"/>
<path d="M184.5 90.5C184 90.5 183.5 90.4 183 90.3L139.8 78.3C138.3 77.9 137.1 76.9 136.4 75.5C135.7 74.1 135.6 72.5 136.1 71.1L146 43.6C147 40.9 149.9 39.4 152.7 40.1L195.9 52.1C197.4 52.5 198.6 53.5 199.3 54.9C200 56.3 200.1 57.9 199.6 59.3L189.7 86.8C188.9 89 186.8 90.5 184.5 90.5ZM151.2 41C149.3 41 147.6 42.2 146.9 44L137 71.5C136.6 72.7 136.6 74 137.2 75.1C137.8 76.2 138.8 77 140 77.4L183.2 89.4C185.5 90 187.9 88.8 188.6 86.6L198.5 59.1C198.9 57.9 198.9 56.6 198.3 55.5C197.7 54.4 196.7 53.6 195.5 53.2L152.3 41.2C152 41 151.6 41 151.2 41Z" fill="#0C41E2"/>
<path d="M168.199 64.9C166.599 64.9 164.999 64.1 163.999 62.8L148.099 41.6C147.899 41.4 147.999 41.1 148.199 40.9C148.399 40.7 148.699 40.8 148.899 41L164.799 62.2C165.899 63.6 167.799 64.3 169.499 63.7L198.699 54.6C198.999 54.5 199.199 54.7 199.299 54.9C199.399 55.2 199.199 55.4 198.999 55.5L169.799 64.6C169.299 64.9 168.799 64.9 168.199 64.9Z" fill="#0C41E2"/>
<path d="M186.9 89.8001C186.7 89.8001 186.5 89.7001 186.5 89.5001L173.3 63.1001C173.2 62.9001 173.3 62.6001 173.5 62.4001C173.7 62.3001 174.1 62.4001 174.2 62.6001L187.4 89.0001C187.5 89.2001 187.4 89.6001 187.2 89.7001C187.1 89.8001 187 89.8001 186.9 89.8001Z" fill="#0C41E2"/>
<path d="M136.599 75.3998C136.399 75.3998 136.299 75.2998 136.199 75.1998C136.099 74.9998 136.099 74.6998 136.299 74.4998L161.099 58.1998C161.299 57.9998 161.599 58.0998 161.799 58.2998C161.899 58.4998 161.899 58.7998 161.699 58.9998L136.899 75.2998C136.799 75.2998 136.699 75.3998 136.599 75.3998Z" fill="#0C41E2"/>
<path d="M139.6 163.9C137.7 168 135.1 171.4 132.1 173.9L113.5 189.7C110.1 192.6 104.9 189.9 105.2 185.5L106.9 162.5C106.8 158.6 107.6 154.4 109.5 150.3C114.6 139.1 125.4 133.2 133.7 136.9C142 140.6 144.7 152.8 139.6 163.9Z" fill="#6A90FF"/>
<path d="M110.3 191.4C109.5 191.4 108.6 191.2 107.8 190.8C105.8 189.8 104.6 187.7 104.8 185.5L106.5 162.5C106.4 158.4 107.3 154.1 109.1 150.1C111.6 144.6 115.5 140.2 120.2 137.6C124.9 135 129.8 134.6 134 136.5C138.2 138.4 141.1 142.3 142.2 147.6C143.3 152.8 142.6 158.7 140.1 164.2C138.3 168.2 135.6 171.7 132.5 174.3L113.9 190.1C112.8 191 111.6 191.4 110.3 191.4ZM128.4 136.3C125.9 136.3 123.2 137 120.6 138.4C116.1 140.9 112.3 145.2 109.9 150.5C108.1 154.4 107.3 158.5 107.4 162.5L105.7 185.6C105.6 187.5 106.5 189.1 108.2 190C109.9 190.8 111.8 190.6 113.2 189.4L131.8 173.6C134.9 171.1 137.4 167.7 139.2 163.8C141.6 158.5 142.3 152.8 141.2 147.8C140.1 142.9 137.4 139.2 133.5 137.4C131.9 136.6 130.2 136.3 128.4 136.3Z" fill="#0C41E2"/>
<path d="M133.121 160.979C135.998 154.643 134.498 147.767 129.771 145.621C125.044 143.474 118.881 146.871 116.004 153.207C113.127 159.543 114.627 166.419 119.354 168.565C124.08 170.711 130.244 167.315 133.121 160.979Z" fill="white"/>
<path d="M122.4 169.7C121.3 169.7 120.2 169.5 119.2 169C116.8 167.9 115.1 165.6 114.4 162.6C113.7 159.6 114.2 156.2 115.6 153.1C117 150 119.3 147.4 122 145.9C124.7 144.4 127.6 144.2 130 145.3C132.4 146.4 134.1 148.7 134.8 151.7C135.4 154.7 135 158.1 133.6 161.2C132.2 164.3 129.9 166.9 127.2 168.4C125.6 169.3 124 169.7 122.4 169.7ZM126.8 145.5C125.4 145.5 123.9 145.9 122.5 146.7C120 148.1 117.9 150.5 116.5 153.4C115.1 156.3 114.7 159.5 115.4 162.3C116 165 117.5 167.1 119.6 168C121.7 169 124.3 168.8 126.7 167.4C129.2 166 131.3 163.6 132.7 160.7C134 157.7 134.5 154.6 133.8 151.8C133.2 149.1 131.7 147 129.6 146.1C128.7 145.7 127.7 145.5 126.8 145.5Z" fill="#0C41E2"/>
<path d="M324.399 305.9L338.899 265.7C339.999 262.6 343.299 260.9 346.399 261.8L398.699 275.9C402.199 276.9 404.199 280.6 402.999 284.1L388.499 324.3C387.399 327.4 384.099 329.1 380.999 328.2L328.699 314C325.199 313.1 323.199 309.3 324.399 305.9Z" fill="#6A90FF"/>
<path d="M382.6 328.8C382 328.8 381.4 328.7 380.9 328.6L328.6 314.5C326.8 314 325.2 312.8 324.4 311.1C323.5 309.4 323.4 307.5 324 305.7L338.5 265.5C339.7 262.2 343.3 260.3 346.6 261.3L398.9 275.4C400.7 275.9 402.3 277.1 403.1 278.8C404 280.5 404.1 282.4 403.5 284.2L389 324.3C388 327.1 385.4 328.8 382.6 328.8ZM324.9 306C324.4 307.5 324.5 309.2 325.2 310.6C326 312.1 327.2 313.1 328.8 313.5L381.1 327.6C384 328.4 387 326.8 388 324L402.5 283.8C403 282.3 402.9 280.6 402.2 279.2C401.4 277.7 400.2 276.7 398.6 276.3L346.3 262.2C343.4 261.4 340.4 263 339.4 265.8L324.9 306Z" fill="#0C41E2"/>
<path d="M320.5 298.8L335 258.6C336.1 255.5 339.4 253.8 342.5 254.7L394.8 268.8C398.3 269.8 400.3 273.5 399.1 277L384.6 317.2C383.5 320.3 380.2 322 377.1 321.1L324.8 307C321.3 306 319.3 302.3 320.5 298.8Z" fill="white"/>
<path d="M378.7 321.8C378.1 321.8 377.5 321.7 377 321.6L324.7 307.5C322.9 307 321.3 305.8 320.5 304.1C319.7 302.4 319.5 300.5 320.1 298.7L334.6 258.5C335.8 255.2 339.4 253.3 342.7 254.3L395 268.4C396.8 268.9 398.4 270.1 399.2 271.8C400.1 273.5 400.2 275.4 399.6 277.2L385.1 317.4C384.1 320 381.5 321.8 378.7 321.8ZM340.9 254.9C338.5 254.9 336.3 256.4 335.4 258.7L321 299C320.5 300.5 320.6 302.2 321.3 303.6C322 305 323.3 306.1 324.9 306.5L377.2 320.6C380.1 321.4 383.1 319.8 384.1 317L398.6 276.8C399.1 275.3 399 273.6 398.3 272.2C397.6 270.8 396.3 269.7 394.7 269.3L342.4 255.2C341.9 255 341.4 254.9 340.9 254.9Z" fill="#0C41E2"/>
<path d="M324.1 289L350.2 273.3C352.3 272 355 273.2 355.6 275.6L359.8 293.7L373.4 287.3C375.4 286.4 377.8 287.4 378.4 289.5L385.9 313.6" fill="white"/>
<path d="M385.8 314.2C385.6 314.2 385.4 314.1 385.3 313.8L377.8 289.7C377.5 288.8 376.9 288.1 376.1 287.8C375.3 287.5 374.3 287.4 373.5 287.8L359.9 294.2C359.8 294.3 359.6 294.3 359.5 294.2C359.4 294.1 359.3 294 359.2 293.9L355 275.8C354.8 274.8 354.1 274 353.2 273.6C352.3 273.2 351.2 273.3 350.4 273.8L324.3 289.5C324.1 289.6 323.8 289.6 323.6 289.3C323.5 289.1 323.5 288.8 323.8 288.6L349.9 272.9C351 272.2 352.4 272.1 353.6 272.6C354.8 273.1 355.7 274.2 356 275.5L360.1 293L373.1 286.9C374.2 286.4 375.4 286.4 376.5 286.9C377.6 287.4 378.4 288.3 378.8 289.5L386.3 313.6C386.4 313.9 386.2 314.1 386 314.2C385.9 314.2 385.9 314.2 385.8 314.2Z" fill="#0C41E2"/>
<path d="M372.217 276.15C372.97 273.55 372.032 270.995 370.123 270.442C368.213 269.889 366.055 271.547 365.302 274.147C364.549 276.746 365.487 279.301 367.396 279.855C369.306 280.408 371.464 278.749 372.217 276.15Z" fill="white"/>
<path d="M368.2 280.4C367.9 280.4 367.6 280.4 367.3 280.3C365.1 279.7 364 276.8 364.8 274C365.2 272.6 366 271.5 367 270.7C368 269.9 369.2 269.6 370.3 269.9C371.4 270.2 372.2 271.1 372.7 272.3C373.1 273.5 373.2 274.9 372.8 276.2C372.4 277.6 371.6 278.7 370.6 279.5C369.8 280.1 368.9 280.4 368.2 280.4ZM369.3 270.8C368.7 270.8 368.1 271 367.5 271.5C366.7 272.1 366 273.1 365.7 274.3C365 276.6 365.8 278.9 367.5 279.4C368.3 279.6 369.1 279.4 369.9 278.8C370.7 278.2 371.4 277.2 371.7 276C372 274.8 372 273.7 371.7 272.7C371.3 271.8 370.7 271.1 370 270.9C369.8 270.8 369.5 270.8 369.3 270.8Z" fill="#0C41E2"/>
</svg>
