<svg width="500" height="500" viewBox="0 0 500 500" fill="none" xmlns="http://www.w3.org/2000/svg">
<path fill-rule="evenodd" clip-rule="evenodd" d="M229.339 1.17543C310.012 -3.50408 398.977 3.7782 454.277 60.2531C508.618 115.749 500.466 199.713 498.23 275.781C496.083 348.775 502.265 434.859 441.95 479.497C383.627 522.659 302.094 486.015 229.339 474.777C173.634 466.172 116.848 459.988 75.7628 422.932C33.4796 384.795 16.162 330.96 8.70594 275.781C-0.210577 209.793 -12.2807 137.583 30.0808 84.8589C76.0691 27.6208 154.088 5.5404 229.339 1.17543Z" fill="#EDF1FE"/>
<path d="M419.301 337.7C411.001 333.6 397.001 330.9 381.201 330.9C365.301 330.9 351.401 333.6 343.101 337.7H335.101V346.6C335.101 355.3 355.801 362.3 381.301 362.3C406.801 362.3 427.501 355.3 427.501 346.6V337.7H419.301Z" fill="#6A90FF"/>
<path d="M381.2 362.7C355 362.7 334.5 355.6 334.5 346.5V337.7C334.5 337.4 334.7 337.1 335.1 337.1H343C351.7 332.8 366 330.3 381.3 330.3C396.6 330.3 410.9 332.9 419.6 337.1H427.5C427.8 337.1 428.1 337.3 428.1 337.7V346.6C428 355.6 407.4 362.7 381.2 362.7ZM335.6 338.2V346.5C335.6 354.8 356.1 361.6 381.2 361.6C406.4 361.6 426.8 354.8 426.8 346.5V338.2H419.3C419.2 338.2 419.1 338.2 419.1 338.1C410.5 333.9 396.4 331.3 381.2 331.3C366 331.3 351.9 333.8 343.3 338.1C343.2 338.1 343.1 338.2 343 338.2H335.6Z" fill="#282828"/>
<path d="M381.2 353.4C406.716 353.4 427.4 346.371 427.4 337.7C427.4 329.029 406.716 322 381.2 322C355.684 322 335 329.029 335 337.7C335 346.371 355.684 353.4 381.2 353.4Z" fill="#EDF1FE"/>
<path d="M381.2 353.9C355 353.9 334.5 346.8 334.5 337.7C334.5 328.6 355 321.5 381.2 321.5C407.4 321.5 427.9 328.6 427.9 337.7C427.9 346.8 407.4 353.9 381.2 353.9ZM381.2 322.6C356 322.6 335.6 329.4 335.6 337.7C335.6 346 356.1 352.8 381.2 352.8C406.4 352.8 426.8 346 426.8 337.7C426.8 329.4 406.4 322.6 381.2 322.6Z" fill="#282828"/>
<path d="M425.701 351.1C425.401 351.1 425.101 350.9 425.101 350.5V342.1C425.101 341.8 425.301 341.5 425.701 341.5C426.101 341.5 426.301 341.7 426.301 342.1V350.5C426.301 350.9 426.001 351.1 425.701 351.1Z" fill="#282828"/>
<path d="M423.8 352.9C423.5 352.9 423.2 352.7 423.2 352.3V344C423.2 343.7 423.4 343.4 423.8 343.4C424.2 343.4 424.4 343.6 424.4 344V352.3C424.3 352.7 424.1 352.9 423.8 352.9Z" fill="#282828"/>
<path d="M421.901 354.1C421.601 354.1 421.301 353.9 421.301 353.5V345.2C421.301 344.9 421.501 344.6 421.901 344.6C422.301 344.6 422.501 344.8 422.501 345.2V353.5C422.401 353.9 422.201 354.1 421.901 354.1Z" fill="#282828"/>
<path d="M419.5 355.7C419.2 355.7 418.9 355.5 418.9 355.1V346.5C418.9 346.2 419.1 345.9 419.5 345.9C419.9 345.9 420.1 346.1 420.1 346.5V355.1C420.1 355.5 419.8 355.7 419.5 355.7Z" fill="#282828"/>
<path d="M416.3 356.9C416 356.9 415.7 356.7 415.7 356.3V348.1C415.7 347.8 415.9 347.5 416.3 347.5C416.7 347.5 416.9 347.7 416.9 348.1V356.3C416.9 356.6 416.6 356.9 416.3 356.9Z" fill="#282828"/>
<path d="M411.701 358.6C411.401 358.6 411.101 358.4 411.101 358V349.5C411.101 349.2 411.301 348.9 411.701 348.9C412.101 348.9 412.301 349.1 412.301 349.5V358C412.301 358.4 412.101 358.6 411.701 358.6Z" fill="#282828"/>
<path d="M381.2 349.9C403.568 349.9 421.7 344.438 421.7 337.7C421.7 330.962 403.568 325.5 381.2 325.5C358.833 325.5 340.7 330.962 340.7 337.7C340.7 344.438 358.833 349.9 381.2 349.9Z" fill="#EDF1FE"/>
<path d="M381.2 350.4C358.2 350.4 340.2 344.9 340.2 337.7C340.2 330.5 358.2 325 381.2 325C404.2 325 422.2 330.5 422.2 337.7C422.2 344.9 404.3 350.4 381.2 350.4ZM381.2 326C359.5 326 341.3 331.3 341.3 337.6C341.3 343.9 359.6 349.2 381.2 349.2C402.8 349.2 421.1 343.9 421.1 337.6C421.1 331.3 402.9 326 381.2 326Z" fill="#282828"/>
<path d="M386 339.6C385.9 338.7 384.7 337.8 383.5 337L382.9 336.6L389.1 334.5C389.8 334.9 390.4 335.5 390.8 336.3C391.1 336.9 392.4 337.5 394.3 337.6C396 337.7 397.7 337.2 397.4 336.5C396.6 334.9 395.2 333.6 393.6 333L396.3 332.1C397.7 331.6 395.2 330.7 393.8 331.2L391.2 332.1C390.4 331.8 389.6 331.6 388.7 331.5C383.6 330.4 377 330.7 374.9 332.5C373.3 333.9 374.6 335.5 376.5 337.1L370.2 339.2C369.1 338.7 368.3 337.8 367.8 336.7C367.4 335.2 360.7 334.9 361.1 336.4C361.5 337.9 362.9 339.4 365.7 340.6L364.1 341.2C362.7 341.7 365.2 342.6 366.6 342.1L368.3 341.6L368.9 341.8C373.4 343.1 379.4 343.3 383.2 342.2C385.2 341.4 386.2 340.6 386 339.6ZM381.2 334.7C380.9 334.4 380.9 333.9 381.2 333.6C381.6 333.3 382.1 333.2 382.6 333.1C384 333 385.5 333.1 386.8 333.4L381.5 335.2C381.4 335 381.3 334.9 381.2 334.7ZM376 340.4C374.9 340.4 373.9 340.2 372.8 340L378.2 338.2C378.6 338.4 378.9 338.7 379.1 339C379.3 339.2 379.3 339.2 379.3 339.4C379.3 339.5 379.2 339.6 379.2 339.7C378.3 340.2 377.1 340.5 376 340.4Z" fill="#6A90FF"/>
<path d="M419.301 323.1C411.001 319 397.001 316.3 381.201 316.3C365.301 316.3 351.401 319 343.101 323.1H335.101V332C335.101 340.6 355.801 347.7 381.301 347.7C406.801 347.7 427.501 340.7 427.501 332V323.1H419.301Z" fill="#6A90FF"/>
<path d="M381.2 348.1C355 348.1 334.5 341 334.5 331.9V323C334.5 322.7 334.7 322.4 335.1 322.4H343C351.7 318.1 366 315.6 381.3 315.6C396.6 315.6 410.9 318.2 419.6 322.4H427.5C427.8 322.4 428.1 322.6 428.1 323V331.9C428 341 407.4 348.1 381.2 348.1ZM335.6 323.7V332C335.6 340.3 356.1 347.1 381.2 347.1C406.4 347.1 426.8 340.3 426.8 332V323.7H419.3C419.2 323.7 419.1 323.7 419.1 323.6C410.5 319.4 396.4 316.8 381.2 316.8C366 316.8 351.9 319.3 343.3 323.6C343.2 323.6 343.1 323.7 343 323.7H335.6Z" fill="#282828"/>
<path d="M381.2 338.8C406.716 338.8 427.4 331.771 427.4 323.1C427.4 314.429 406.716 307.4 381.2 307.4C355.684 307.4 335 314.429 335 323.1C335 331.771 355.684 338.8 381.2 338.8Z" fill="#EDF1FE"/>
<path d="M381.2 339.3C355 339.3 334.5 332.2 334.5 323.1C334.5 314 355 306.9 381.2 306.9C407.4 306.9 427.9 314 427.9 323.1C428 332.2 407.4 339.3 381.2 339.3ZM381.2 308C356 308 335.6 314.8 335.6 323.1C335.6 331.4 356.1 338.2 381.2 338.2C406.3 338.2 426.8 331.4 426.8 323.1C426.9 314.8 406.4 308 381.2 308Z" fill="#282828"/>
<path d="M425.701 336.5C425.401 336.5 425.101 336.3 425.101 335.9V327.6C425.101 327.3 425.301 327 425.701 327C426.101 327 426.301 327.2 426.301 327.6V336C426.201 336.3 426.001 336.5 425.701 336.5Z" fill="#282828"/>
<path d="M423.8 338.4C423.5 338.4 423.2 338.2 423.2 337.8V329.5C423.2 329.2 423.4 328.9 423.8 328.9C424.2 328.9 424.4 329.1 424.4 329.5V337.8C424.3 338.1 424.1 338.4 423.8 338.4Z" fill="#282828"/>
<path d="M421.901 339.6C421.601 339.6 421.301 339.4 421.301 339V330.7C421.301 330.4 421.501 330.1 421.901 330.1C422.301 330.1 422.501 330.3 422.501 330.7V339C422.401 339.4 422.201 339.6 421.901 339.6Z" fill="#282828"/>
<path d="M419.5 341.2C419.2 341.2 418.9 341 418.9 340.6V332C418.9 331.7 419.1 331.4 419.5 331.4C419.9 331.4 420.1 331.6 420.1 332V340.6C420.1 340.9 419.8 341.2 419.5 341.2Z" fill="#282828"/>
<path d="M416.3 342.3C416 342.3 415.7 342.1 415.7 341.7V333.5C415.7 333.2 415.9 332.9 416.3 332.9C416.6 332.9 416.8 333.2 416.9 333.5V341.7C416.9 342.1 416.6 342.3 416.3 342.3Z" fill="#282828"/>
<path d="M411.701 344.1C411.401 344.1 411.101 343.9 411.101 343.5V335C411.101 334.7 411.301 334.4 411.701 334.4C412.101 334.4 412.301 334.6 412.301 335V343.5C412.301 343.8 412.101 344.1 411.701 344.1Z" fill="#282828"/>
<path d="M381.2 335.3C403.568 335.3 421.7 329.838 421.7 323.1C421.7 316.362 403.568 310.9 381.2 310.9C358.833 310.9 340.7 316.362 340.7 323.1C340.7 329.838 358.833 335.3 381.2 335.3Z" fill="#EDF1FE"/>
<path d="M381.2 335.8C358.2 335.8 340.2 330.3 340.2 323.1C340.2 315.9 358.2 310.4 381.2 310.4C404.2 310.4 422.2 315.9 422.2 323.1C422.2 330.3 404.3 335.8 381.2 335.8ZM381.2 311.5C359.5 311.5 341.3 316.8 341.3 323.1C341.3 329.4 359.6 334.7 381.2 334.7C402.8 334.7 421.1 329.4 421.1 323.1C421.1 316.8 402.9 311.5 381.2 311.5Z" fill="#282828"/>
<path d="M386 325.1C385.9 324.2 384.7 323.3 383.5 322.5C383.3 322.4 383.1 322.2 382.9 322.1L389.1 320C389.8 320.4 390.4 321 390.8 321.8C391.1 322.4 392.4 323 394.3 323.1C396 323.2 397.7 322.7 397.4 322C396.6 320.4 395.2 319.1 393.6 318.5L396.3 317.6C397.7 317.1 395.2 316.2 393.8 316.7L391.2 317.6C390.4 317.3 389.6 317.1 388.7 317C383.6 316 377 316.2 374.9 318C373.3 319.4 374.6 321 376.5 322.6L370.2 324.7C369.1 324.2 368.3 323.3 367.8 322.2C367.4 320.7 360.7 320.4 361.1 321.9C361.5 323.4 362.9 324.9 365.7 326.1L364.1 326.6C362.7 327.1 365.2 328 366.6 327.5L368.3 326.9L368.9 327.1C373.4 328.4 379.4 328.6 383.2 327.5C385.2 326.9 386.2 326 386 325.1ZM381.2 320.1C381 319.7 380.9 319.3 381.2 319C381.6 318.7 382.1 318.6 382.6 318.5C384 318.4 385.5 318.5 386.8 318.8L381.5 320.6C381.4 320.5 381.3 320.3 381.2 320.1ZM376 325.8C374.9 325.8 373.9 325.6 372.8 325.4L378.2 323.6C378.5 323.8 378.9 324.1 379.1 324.4C379.3 324.6 379.3 324.6 379.3 324.8C379.3 324.9 379.2 325 379.2 325.1C378.3 325.7 377.1 325.9 376 325.8Z" fill="#6A90FF"/>
<path d="M414.2 309.2C405.9 305.1 391.9 302.4 376.1 302.4C360.2 302.4 346.3 305.1 338 309.2H330V318.1C330 326.7 350.7 333.8 376.2 333.8C401.7 333.8 422.4 326.8 422.4 318.1V309.2H414.2Z" fill="#6A90FF"/>
<path d="M376.1 334.3C349.9 334.3 329.4 327.2 329.4 318.1V309.2C329.4 308.9 329.7 308.7 330 308.6H337.9C346.6 304.3 360.9 301.8 376.2 301.8C391.5 301.8 405.8 304.4 414.5 308.6H422.4C422.7 308.6 423 308.8 423 309.2V318.1C422.8 327.1 402.3 334.3 376.1 334.3ZM330.4 309.8V318.1C330.4 326.4 350.9 333.2 376 333.2C401.1 333.2 421.6 326.4 421.6 318.1V309.8H414.1C414 309.8 413.9 309.8 413.9 309.7C405.3 305.5 391.2 302.9 376 302.9C360.8 302.9 346.7 305.4 338.1 309.7C338 309.7 337.9 309.8 337.9 309.8H330.4Z" fill="#282828"/>
<path d="M376.1 324.9C401.616 324.9 422.3 317.871 422.3 309.2C422.3 300.529 401.616 293.5 376.1 293.5C350.585 293.5 329.9 300.529 329.9 309.2C329.9 317.871 350.585 324.9 376.1 324.9Z" fill="#EDF1FE"/>
<path d="M376.1 325.5C349.9 325.5 329.4 318.4 329.4 309.3C329.4 300.2 350 293.1 376.1 293.1C402.2 293.1 422.8 300.2 422.8 309.3C422.8 318.4 402.3 325.5 376.1 325.5ZM376.1 294.2C350.9 294.2 330.5 301 330.5 309.3C330.5 317.6 351 324.4 376.1 324.4C401.2 324.4 421.7 317.6 421.7 309.3C421.7 300.9 401.3 294.1 376.1 294.2Z" fill="#282828"/>
<path d="M420.6 322.7C420.3 322.7 420 322.5 420 322.1V313.7C420 313.4 420.2 313.1 420.6 313.1C420.9 313.1 421.1 313.4 421.2 313.7V322.1C421.1 322.4 420.9 322.7 420.6 322.7Z" fill="#282828"/>
<path d="M418.6 324.5C418.3 324.5 418.1 324.2 418 323.9V315.6C418 315.3 418.2 315 418.6 315C419 315 419.2 315.2 419.2 315.6V323.9C419.2 324.2 419 324.5 418.6 324.5Z" fill="#282828"/>
<path d="M416.701 325.7C416.401 325.7 416.101 325.5 416.101 325.1V316.8C416.101 316.5 416.301 316.2 416.701 316.2C417.101 316.2 417.301 316.4 417.301 316.8V325.1C417.301 325.5 417.001 325.7 416.701 325.7Z" fill="#282828"/>
<path d="M414.401 327.3C414.101 327.3 413.801 327.1 413.801 326.7V318.1C413.801 317.8 414.001 317.5 414.401 317.5C414.801 317.5 415.001 317.7 415.001 318.1V326.7C414.901 327 414.701 327.3 414.401 327.3Z" fill="#282828"/>
<path d="M411.201 328.5C410.901 328.5 410.601 328.3 410.601 327.9V319.7C410.601 319.4 410.801 319.1 411.201 319.1C411.601 319.1 411.801 319.3 411.801 319.7V327.9C411.801 328.2 411.501 328.5 411.201 328.5Z" fill="#282828"/>
<path d="M406.6 330.2C406.3 330.2 406 330 406 329.6V321.1C406 320.8 406.2 320.5 406.6 320.5C407 320.5 407.2 320.7 407.2 321.1V329.6C407.2 329.9 406.9 330.2 406.6 330.2Z" fill="#282828"/>
<path d="M376.101 321.4C398.468 321.4 416.601 315.938 416.601 309.2C416.601 302.462 398.468 297 376.101 297C353.733 297 335.601 302.462 335.601 309.2C335.601 315.938 353.733 321.4 376.101 321.4Z" fill="#EDF1FE"/>
<path d="M376.101 322C353.101 322 335.101 316.5 335.101 309.3C335.101 302.1 353.101 296.6 376.101 296.6C399.101 296.6 417.101 302.1 417.101 309.3C417.101 316.5 399.101 322 376.101 322ZM376.101 297.6C354.401 297.6 336.201 302.9 336.201 309.2C336.201 315.5 354.501 320.8 376.101 320.8C397.701 320.8 416.001 315.5 416.001 309.2C416.001 302.9 397.701 297.6 376.101 297.6Z" fill="#282828"/>
<path d="M380.901 311.2C380.801 310.3 379.601 309.4 378.401 308.6C378.201 308.5 378.001 308.3 377.801 308.2L384.001 306.1C384.701 306.5 385.301 307.1 385.701 307.9C386.001 308.5 387.401 309.1 389.201 309.2C390.901 309.3 392.601 308.8 392.301 308.1C391.501 306.5 390.101 305.2 388.501 304.6L391.201 303.7C392.601 303.2 390.101 302.3 388.701 302.8L386.101 303.7C385.401 303.5 384.501 303.3 383.601 303.1C378.501 302.1 371.901 302.3 369.801 304.1C368.201 305.5 369.501 307.1 371.401 308.7L365.101 310.8C364.001 310.3 363.201 309.4 362.701 308.3C362.301 306.8 355.601 306.5 356.001 308C356.401 309.5 357.801 311 360.601 312.2L359.001 312.7C357.601 313.2 360.101 314.1 361.501 313.6L363.101 313L363.701 313.2C368.301 314.5 374.201 314.7 378.001 313.6C380.101 313 381.101 312.1 380.901 311.2ZM376.001 306.3C375.801 305.9 375.701 305.5 376.001 305.2C376.401 304.9 376.901 304.7 377.301 304.7C378.701 304.6 380.201 304.7 381.501 305L376.201 306.8C376.301 306.6 376.101 306.4 376.001 306.3ZM370.801 311.9C369.701 311.9 368.701 311.7 367.601 311.5L373.001 309.7C373.301 309.9 373.701 310.2 373.901 310.5C374.101 310.7 374.101 310.7 374.101 310.9C374.101 311 374.001 311.1 374.001 311.2C373.101 311.8 372.001 312.1 370.801 311.9Z" fill="#6A90FF"/>
<path d="M421.7 294C413.4 289.9 399.4 287.2 383.6 287.2C367.7 287.2 353.8 290 345.5 294H337.5V302.9C337.5 311.5 358.2 318.6 383.7 318.6C409.2 318.6 429.9 311.6 429.9 302.9V294H421.7Z" fill="#6A90FF"/>
<path d="M383.6 319.1C357.4 319.1 336.9 312 336.9 302.9V294C336.9 293.7 337.2 293.5 337.5 293.4H345.4C354.1 289.1 368.4 286.6 383.7 286.6C399 286.6 413.3 289.2 422 293.4H429.9C430.2 293.4 430.5 293.6 430.5 294V302.9C430.3 311.9 409.8 319.1 383.6 319.1ZM338 294.6V302.9C338 311.2 358.5 318 383.6 318C408.7 318 429.2 311.2 429.2 302.9V294.6H421.7C421.6 294.6 421.5 294.6 421.5 294.5C412.9 290.3 398.8 287.7 383.6 287.7C368.4 287.7 354.3 290.2 345.7 294.5C345.6 294.5 345.5 294.6 345.5 294.6H338Z" fill="#282828"/>
<path d="M383.6 309.7C409.116 309.7 429.8 302.671 429.8 294C429.8 285.329 409.116 278.3 383.6 278.3C358.085 278.3 337.4 285.329 337.4 294C337.4 302.671 358.085 309.7 383.6 309.7Z" fill="#EDF1FE"/>
<path d="M383.6 310.2C357.4 310.2 336.9 303.1 336.9 294C336.9 284.9 357.4 277.8 383.6 277.8C409.8 277.8 430.3 284.9 430.3 294C430.3 303.1 409.8 310.2 383.6 310.2ZM383.6 278.9C358.4 278.9 338 285.7 338 294C338 302.3 358.5 309.1 383.6 309.1C408.7 309.1 429.2 302.3 429.2 294C429.2 285.7 408.8 278.9 383.6 278.9Z" fill="#282828"/>
<path d="M428.1 307.5C427.8 307.5 427.5 307.3 427.5 306.9V298.5C427.5 298.2 427.7 297.9 428.1 297.9C428.4 297.9 428.6 298.2 428.7 298.5V306.9C428.6 307.2 428.4 307.5 428.1 307.5Z" fill="#282828"/>
<path d="M426.1 309.3C425.8 309.3 425.5 309.1 425.5 308.7V300.4C425.5 300.1 425.8 299.9 426.1 299.8C426.4 299.8 426.7 300 426.7 300.4V308.7C426.7 309 426.4 309.3 426.1 309.3Z" fill="#282828"/>
<path d="M424.201 310.5C423.901 310.5 423.601 310.3 423.601 309.9V301.6C423.601 301.3 423.801 301 424.201 301C424.601 301 424.801 301.2 424.801 301.6V309.9C424.801 310.3 424.501 310.5 424.201 310.5Z" fill="#282828"/>
<path d="M421.901 312.1C421.601 312.1 421.401 311.8 421.301 311.5V303C421.301 302.7 421.501 302.4 421.901 302.4C422.301 302.4 422.501 302.6 422.501 303V311.6C422.401 311.9 422.201 312.1 421.901 312.1Z" fill="#282828"/>
<path d="M418.701 313.3C418.401 313.3 418.101 313.1 418.101 312.7V304.5C418.101 304.2 418.301 303.9 418.701 303.9C419.101 303.9 419.301 304.1 419.301 304.5V312.7C419.301 313 419.001 313.3 418.701 313.3Z" fill="#282828"/>
<path d="M414.1 315C413.8 315 413.5 314.8 413.5 314.4V305.9C413.5 305.6 413.7 305.3 414.1 305.3C414.5 305.3 414.7 305.5 414.7 305.9V314.4C414.7 314.8 414.4 315 414.1 315Z" fill="#282828"/>
<path d="M383.601 306.2C405.968 306.2 424.101 300.738 424.101 294C424.101 287.262 405.968 281.8 383.601 281.8C361.233 281.8 343.101 287.262 343.101 294C343.101 300.738 361.233 306.2 383.601 306.2Z" fill="#EDF1FE"/>
<path d="M383.601 306.8C360.601 306.8 342.601 301.3 342.601 294.1C342.601 286.9 360.601 281.4 383.601 281.4C406.601 281.4 424.601 286.9 424.601 294.1C424.601 301.2 406.601 306.8 383.601 306.8ZM383.601 282.4C361.901 282.4 343.701 287.7 343.701 294C343.701 300.3 362.001 305.6 383.601 305.6C405.201 305.6 423.501 300.3 423.501 294C423.501 287.7 405.201 282.4 383.601 282.4Z" fill="#282828"/>
<path d="M388.4 296C388.3 295.1 387.1 294.2 385.9 293.4C385.7 293.3 385.5 293.1 385.3 293L391.5 290.9C392.2 291.3 392.8 291.9 393.2 292.7C393.5 293.3 394.9 293.9 396.7 294C398.4 294.1 400.1 293.6 399.8 293C399 291.4 397.6 290.1 395.9 289.5L398.6 288.6C400 288.1 397.5 287.2 396.1 287.7L393.5 288.6C392.8 288.4 391.9 288.2 391 288C385.9 287 379.3 287.2 377.2 289C375.6 290.4 376.9 292 378.8 293.6L372.5 295.7C371.4 295.2 370.6 294.3 370.1 293.2C369.7 291.7 363 291.4 363.4 292.9C363.9 294.4 365.2 295.9 368 297.1L366.4 297.6C365 298.1 367.5 299 368.9 298.5L370.5 297.9L371.1 298.1C375.7 299.4 381.6 299.6 385.4 298.5C387.6 297.8 388.6 296.9 388.4 296ZM383.5 291.1C383.3 290.7 383.2 290.3 383.5 290C383.9 289.7 384.4 289.5 384.8 289.5C386.2 289.4 387.7 289.5 389 289.8L383.8 291.6C383.7 291.4 383.6 291.3 383.5 291.1ZM378.3 296.7C377.2 296.7 376.2 296.5 375.1 296.3L380.5 294.5C380.8 294.7 381.2 295 381.4 295.3C381.6 295.5 381.6 295.5 381.6 295.7C381.6 295.8 381.5 295.9 381.5 296C380.6 296.6 379.5 296.9 378.3 296.7Z" fill="#6A90FF"/>
<path d="M419.301 279.5C411.001 275.4 397.001 272.7 381.201 272.7C365.301 272.7 351.401 275.4 343.101 279.5H335.101V288.3C335.101 296.9 355.801 304 381.301 304C406.801 304 427.501 297 427.501 288.3V279.5H419.301Z" fill="#6A90FF"/>
<path d="M381.2 304.5C355 304.5 334.5 297.4 334.5 288.3V279.5C334.5 279.2 334.7 278.9 335.1 278.9H343C351.7 274.6 366 272.1 381.3 272.1C396.6 272.1 410.9 274.7 419.6 278.9H427.5C427.8 278.9 428.1 279.1 428.1 279.5V288.3C428 297.4 407.4 304.5 381.2 304.5ZM335.6 280.1V288.4C335.6 296.7 356.1 303.5 381.2 303.5C406.4 303.5 426.8 296.7 426.8 288.4V280.1H419.3C419.2 280.1 419.1 280.1 419.1 280C410.5 275.8 396.4 273.2 381.2 273.2C366 273.2 351.9 275.7 343.3 280C343.2 280 343.1 280.1 343 280.1H335.6Z" fill="#282828"/>
<path d="M381.2 295.2C406.716 295.2 427.4 288.171 427.4 279.5C427.4 270.829 406.716 263.8 381.2 263.8C355.684 263.8 335 270.829 335 279.5C335 288.171 355.684 295.2 381.2 295.2Z" fill="#EDF1FE"/>
<path d="M381.2 295.7C355 295.7 334.5 288.6 334.5 279.5C334.5 270.4 355 263.3 381.2 263.3C407.4 263.3 427.9 270.4 427.9 279.5C427.9 288.6 407.4 295.7 381.2 295.7ZM381.2 264.4C356 264.4 335.6 271.2 335.6 279.5C335.6 287.8 356.1 294.6 381.2 294.6C406.4 294.6 426.8 287.8 426.8 279.5C426.8 271.2 406.4 264.5 381.2 264.4Z" fill="#282828"/>
<path d="M425.701 293C425.401 293 425.201 292.7 425.101 292.4V284C425.101 283.7 425.301 283.4 425.701 283.4C426.101 283.4 426.301 283.6 426.301 284V292.4C426.301 292.7 426.001 293 425.701 293Z" fill="#282828"/>
<path d="M423.8 294.8C423.5 294.8 423.2 294.6 423.2 294.2V285.9C423.2 285.6 423.4 285.3 423.8 285.3C424.2 285.3 424.4 285.5 424.4 285.9V294.2C424.3 294.5 424.1 294.8 423.8 294.8Z" fill="#282828"/>
<path d="M421.901 296C421.601 296 421.301 295.8 421.301 295.4V287.1C421.301 286.8 421.501 286.5 421.901 286.5C422.201 286.5 422.401 286.8 422.501 287.1V295.4C422.401 295.7 422.201 296 421.901 296Z" fill="#282828"/>
<path d="M419.5 297.5C419.2 297.5 418.9 297.3 418.9 296.9V288.3C418.9 288 419.1 287.7 419.5 287.7C419.9 287.7 420.1 287.9 420.1 288.3V296.9C420.1 297.3 419.8 297.5 419.5 297.5Z" fill="#282828"/>
<path d="M416.3 298.7C416 298.7 415.7 298.5 415.7 298.1V290C415.7 289.7 415.9 289.4 416.3 289.4C416.7 289.4 416.9 289.6 416.9 290V298.2C416.9 298.5 416.7 298.7 416.3 298.7Z" fill="#282828"/>
<path d="M411.701 300.5C411.401 300.5 411.101 300.3 411.101 299.9V291.4C411.101 291.1 411.301 290.8 411.701 290.8C412.001 290.8 412.201 291.1 412.301 291.4V299.9C412.301 300.2 412.001 300.5 411.701 300.5Z" fill="#282828"/>
<path d="M381.2 291.7C403.568 291.7 421.7 286.238 421.7 279.5C421.7 272.762 403.568 267.3 381.2 267.3C358.833 267.3 340.7 272.762 340.7 279.5C340.7 286.238 358.833 291.7 381.2 291.7Z" fill="#EDF1FE"/>
<path d="M381.2 292.2C358.2 292.2 340.2 286.7 340.2 279.5C340.2 272.3 358.2 266.8 381.2 266.8C404.2 266.8 422.2 272.3 422.2 279.5C422.2 286.7 404.3 292.2 381.2 292.2ZM381.2 267.8C359.5 267.8 341.3 273.1 341.3 279.4C341.3 285.7 359.6 291 381.2 291C402.8 291 421.1 285.7 421.1 279.4C421.1 273.1 402.9 267.9 381.2 267.8Z" fill="#282828"/>
<path d="M386 281.5C385.9 280.6 384.7 279.7 383.5 278.9C383.3 278.8 383.1 278.6 382.9 278.5L389.1 276.4C389.8 276.8 390.4 277.4 390.8 278.2C391.1 278.8 392.4 279.4 394.3 279.5C396 279.6 397.7 279.1 397.4 278.5C396.6 276.9 395.2 275.6 393.6 275L396.3 274.1C397.7 273.6 395.2 272.7 393.8 273.2L391.2 274.1C390.4 273.9 389.6 273.7 388.7 273.5C383.6 272.5 377 272.7 374.9 274.5C373.3 275.9 374.6 277.5 376.5 279.1L370.2 281.2C369.1 280.7 368.3 279.8 367.8 278.7C367.4 277.2 360.7 276.9 361.1 278.4C361.5 279.9 362.9 281.4 365.7 282.6L364.1 283.2C362.7 283.7 365.2 284.6 366.6 284.1L368.3 283.5L368.9 283.7C373.4 285 379.4 285.2 383.2 284.1C385.2 283.3 386.2 282.4 386 281.5ZM381.2 276.5C381 276.1 380.9 275.7 381.2 275.4C381.6 275.1 382.1 274.9 382.6 274.9C384 274.7 385.5 274.9 386.8 275.2L381.5 277C381.4 276.9 381.3 276.7 381.2 276.5ZM376 282.2C374.9 282.2 373.9 282 372.8 281.8L378.3 280C378.7 280.2 379 280.5 379.2 280.8C379.4 281 379.4 281 379.4 281.2C379.4 281.3 379.3 281.4 379.3 281.5C378.3 282.1 377.1 282.3 376 282.2Z" fill="#6A90FF"/>
<path d="M341 152.5C341 152.5 314.9 157.9 304.1 157.5C293.3 157.1 287.7 154.4 275.9 155C264.1 155.6 237.4 155.1 229.7 152.5L238.3 163.8L296.9 179.2L317.9 171.6L341 152.5Z" fill="#282828"/>
<path d="M297 179.7H296.9L238.3 164.3C238.2 164.3 238.1 164.2 238 164.1L229.4 152.8C229.2 152.6 229.3 152.2 229.5 152C229.6 151.9 229.8 151.9 230 151.9C237.7 154.5 264.5 155 276.1 154.4C281.6 154.2 287.1 154.6 292.6 155.6C296.5 156.3 300.4 156.7 304.3 156.9C314.9 157.3 340.8 152 341.1 151.9C341.4 151.8 341.6 152 341.7 152.2C341.8 152.4 341.7 152.7 341.5 152.9L318.5 171.9C318.5 171.9 318.4 172 318.3 172L297.3 179.6L297 179.7ZM238.7 163.3L297 178.6L317.8 171.1L339.1 153.6C332.6 154.9 313.3 158.5 304.2 158.2C300.2 158 296.3 157.6 292.3 156.9C287 155.9 281.5 155.5 276.1 155.7C264.9 156.3 240.7 155.8 231.3 153.6L238.7 163.3Z" fill="#282828"/>
<path d="M285.4 383.6C233.1 383.6 198.6 376.6 201.4 367C204.2 357.5 214.5 353.1 214.5 353.1C214.5 353.1 207.4 294.2 220 269.3C232.6 244.4 257 236.6 269.6 208.2C269.6 208.2 264.3 189.2 254.8 183.2C245.3 177.2 226.9 161.6 229.7 152.6C236.5 161.7 246.3 156.8 253.5 157.9C260.7 159 267.1 166.5 276.3 167C285.5 167.5 284.9 160.1 296.1 156.1C307.4 152.1 315.4 159.6 322.2 159.8C329 160.1 341.1 152.6 341.1 152.6C343.9 161.7 325.6 177.2 316.1 183.2C306.6 189.2 301.3 208.2 301.3 208.2C313.9 236.6 338.3 244.4 350.9 269.3C363.5 294.2 356.4 353.1 356.4 353.1C356.4 353.1 366.7 357.5 369.5 367C372.2 376.5 337.7 383.6 285.4 383.6Z" fill="#6A90FF"/>
<path d="M269.6 208.2C283.5 211.4 301.3 208.2 301.3 208.2L302.9 203.4C302.9 203.4 307.9 206.7 308.6 210.4C309.3 214.1 302.7 216.5 285.5 217.4C268.3 218.3 263.1 214.3 261.8 210.4C260.5 206.5 268 203.4 268 203.4L269.6 208.2Z" fill="#6A90FF"/>
<path d="M280.8 218C269.5 218 262.9 215.5 261.2 210.5C259.7 206.2 267.4 203 267.8 202.8C267.9 202.7 268.1 202.7 268.2 202.8C268.3 202.9 268.4 203 268.5 203.1L270 207.6C282.5 210.5 298.4 208 300.8 207.6L302.3 203.2C302.4 203 302.5 202.9 302.6 202.8C302.8 202.7 302.9 202.8 303.1 202.9C303.3 203 308.4 206.3 309 210.2C309.2 211.1 308.9 212.1 308.3 212.8C306.1 215.6 298.8 217.1 285.3 217.8C283.8 218 282.2 218 280.8 218ZM267.6 204.1C265.4 205.1 261.3 207.6 262.2 210.2C263.9 215.3 271.7 217.5 285.3 216.8C298.1 216.1 305.6 214.6 307.5 212.2C307.9 211.7 308.1 211.1 308 210.5C307.5 207.8 304.5 205.3 303.1 204.3L301.7 208.4C301.6 208.6 301.5 208.7 301.3 208.8C301.1 208.8 283.2 212 269.4 208.8C269.2 208.8 269.1 208.6 269 208.4L267.6 204.1Z" fill="#282828"/>
<path d="M305.1 177.2C298.7 183 295.7 191.2 294.7 199.6C294.4 202.3 294.2 205 294.2 207.7C294.2 208 294.4 208.3 294.8 208.3C295.2 208.3 295.4 208.1 295.4 207.7C295.6 199.2 296.7 190.4 301.5 183.1C302.8 181.2 304.2 179.5 305.9 178C306.4 177.5 305.6 176.7 305.1 177.2Z" fill="#282828"/>
<path d="M280.4 176.4C281.6 187 283 197.6 284.5 208.1C284.6 208.8 285.7 208.5 285.6 207.8C284 197.4 282.7 186.9 281.5 176.4C281.5 175.7 280.4 175.7 280.4 176.4Z" fill="#282828"/>
<path d="M268.3 183.1C271.8 191.4 274.6 199.9 276.5 208.7C276.7 209.4 277.7 209.1 277.6 208.4C275.6 199.5 272.9 190.9 269.3 182.5C269 181.8 268.1 182.4 268.3 183.1Z" fill="#282828"/>
<path d="M285.1 363.7C243.6 363.7 224 356.2 223.8 356.2C223.5 356.1 223.4 355.8 223.5 355.5C223.6 355.2 223.9 355.1 224.2 355.2C224.4 355.3 243.8 362.7 285.1 362.7C326.4 362.7 355.8 352.7 356.1 352.7C356.4 352.6 356.7 352.7 356.8 353C356.9 353.3 356.8 353.6 356.5 353.7H356.4C356.2 353.7 326.6 363.7 285.1 363.7Z" fill="#282828"/>
<path d="M281.5 333.9V325C279.1 324.8 276.7 324.1 274.4 323.1C272.3 322.2 270.5 320.9 268.9 319.3C265.7 316.2 263.9 311.9 264 307.4V303.2H275.9V307C275.9 308.6 276.3 310.2 277.2 311.5C278.2 313 279.8 314 281.5 314.2V290L277.5 288.5C272.3 286.6 268.9 284.1 267.2 281C265.3 277.4 264.4 273.3 264.6 269.3C264.5 264.4 265.9 259.5 268.8 255.5C271.6 251.7 275.8 249.4 281.5 248.7V240.8H287.5V248.7C290 248.9 292.4 249.6 294.7 250.7C296.8 251.7 298.7 253 300.2 254.6C301.7 256.1 302.9 257.9 303.7 259.9C304.5 261.7 304.9 263.7 304.9 265.7V271H293V268.6C293.1 266.6 292.6 264.6 291.8 262.8C290.9 261.1 289.4 259.9 287.5 259.5V280.7L292.4 282.5C294.7 283.2 296.9 284.3 298.8 285.7C300.3 286.8 301.7 288.2 302.6 289.9C303.5 291.7 304.1 293.6 304.4 295.6C304.7 298 304.9 300.5 304.9 302.9C304.9 305.7 304.6 308.5 304 311.3C303.5 313.7 302.5 315.9 301.1 318C299.7 320 297.8 321.6 295.7 322.7C293.1 324 290.3 324.7 287.5 324.9V333.8L281.5 333.9ZM281.5 259.6C279.7 260.1 278.2 261.5 277.5 263.3C276.8 265.2 276.5 267.3 276.5 269.3C276.4 271.2 276.7 273.2 277.3 275C277.8 276.3 279.2 277.4 281.5 278.4V259.6ZM287.5 314.4C290 313.8 291.5 312.6 292.1 310.8C292.8 308.3 293 305.8 293 303.3C293 301.5 292.9 300.1 292.8 298.9C292.7 297.9 292.5 296.9 292 295.9C290.9 294.3 289.3 293.1 287.5 292.6V314.4Z" fill="#EDF1FE"/>
<path d="M220.899 381.8C210.999 376.9 194.499 373.7 175.699 373.7C156.899 373.7 140.299 376.9 130.499 381.8H120.999V392.3C120.999 402.5 145.499 410.9 175.799 410.9C206.099 410.9 230.599 402.6 230.599 392.3V381.8H220.899Z" fill="#6A90FF"/>
<path d="M175.599 411.4C144.499 411.4 120.299 403 120.299 392.3V381.8C120.299 381.5 120.499 381.2 120.899 381.2H130.299C140.599 376.1 157.599 373.1 175.699 373.1C193.799 373.1 210.799 376.1 221.099 381.2H230.499C230.799 381.2 231.099 381.4 231.099 381.8V392.3C230.999 403 206.699 411.4 175.599 411.4ZM121.399 382.3V392.2C121.399 402.2 145.699 410.2 175.599 410.2C205.499 410.2 229.799 402.1 229.799 392.2V382.3H220.799C220.699 382.3 220.599 382.3 220.599 382.3C210.399 377.3 193.599 374.3 175.599 374.3C157.599 374.3 140.799 377.3 130.599 382.3C130.499 382.3 130.399 382.3 130.299 382.3H121.399Z" fill="#282828"/>
<path d="M175.599 400.4C205.864 400.4 230.399 392.073 230.399 381.8C230.399 371.528 205.864 363.2 175.599 363.2C145.334 363.2 120.799 371.528 120.799 381.8C120.799 392.073 145.334 400.4 175.599 400.4Z" fill="#EDF1FE"/>
<path d="M175.599 400.9C144.499 400.9 120.299 392.5 120.299 381.8C120.299 371.1 144.599 362.7 175.599 362.7C206.599 362.7 230.999 371 230.999 381.8C230.999 392.5 206.699 400.9 175.599 400.9ZM175.599 363.8C145.699 363.8 121.399 371.9 121.399 381.8C121.399 391.7 145.699 399.8 175.599 399.8C205.499 399.8 229.799 391.7 229.799 381.8C229.899 371.8 205.499 363.8 175.599 363.8Z" fill="#282828"/>
<path d="M228.399 397.6C228.099 397.6 227.799 397.4 227.799 397V387.1C227.799 386.8 227.999 386.5 228.399 386.5C228.799 386.5 228.999 386.7 228.999 387.1V397C228.899 397.4 228.699 397.6 228.399 397.6Z" fill="#282828"/>
<path d="M226.099 399.8C225.799 399.8 225.499 399.6 225.499 399.2V389.3C225.499 389 225.699 388.7 226.099 388.7C226.499 388.7 226.699 388.9 226.699 389.3V399.2C226.699 399.5 226.399 399.8 226.099 399.8Z" fill="#282828"/>
<path d="M223.799 401.2C223.499 401.2 223.199 401 223.199 400.6V390.7C223.199 390.4 223.399 390.1 223.799 390.1C224.099 390.1 224.299 390.4 224.399 390.7V400.6C224.399 401 224.099 401.2 223.799 401.2Z" fill="#282828"/>
<path d="M220.999 403.1C220.699 403.1 220.399 402.9 220.399 402.5V392.3C220.399 392 220.599 391.7 220.999 391.7C221.399 391.7 221.599 391.9 221.599 392.3V402.5C221.599 402.8 221.299 403.1 220.999 403.1Z" fill="#282828"/>
<path d="M217.299 404.5C216.999 404.5 216.699 404.3 216.699 403.9V394.2C216.699 393.9 216.899 393.6 217.299 393.6C217.699 393.6 217.899 393.8 217.899 394.2V403.9C217.799 404.2 217.599 404.5 217.299 404.5Z" fill="#282828"/>
<path d="M211.799 406.5C211.499 406.5 211.199 406.3 211.199 405.9V395.8C211.199 395.5 211.499 395.3 211.799 395.2C212.099 395.2 212.399 395.4 212.399 395.8V406C212.399 406.3 212.099 406.5 211.799 406.5Z" fill="#282828"/>
<path d="M175.6 396.2C202.109 396.2 223.6 389.753 223.6 381.8C223.6 373.847 202.109 367.4 175.6 367.4C149.09 367.4 127.6 373.847 127.6 381.8C127.6 389.753 149.09 396.2 175.6 396.2Z" fill="#EDF1FE"/>
<path d="M175.599 396.8C148.299 396.8 126.999 390.2 126.999 381.8C126.999 373.4 148.399 366.8 175.599 366.8C202.799 366.8 224.199 373.4 224.199 381.8C224.199 390.2 202.899 396.8 175.599 396.8ZM175.599 367.9C149.899 367.9 128.099 374.3 128.099 381.8C128.099 389.3 149.899 395.7 175.599 395.7C201.299 395.7 223.099 389.3 223.099 381.8C223.099 374.3 201.399 367.9 175.599 367.9Z" fill="#282828"/>
<path d="M181.399 384.1C181.199 383 179.799 382 178.399 381C178.199 380.8 177.899 380.7 177.699 380.5L185.099 378C185.999 378.5 186.699 379.2 187.099 380.1C187.399 380.9 189.099 381.6 191.299 381.7C193.299 381.8 195.299 381.2 194.999 380.4C193.999 378.5 192.399 377 190.399 376.2L193.599 375.1C195.299 374.5 192.299 373.4 190.599 374L187.499 375C186.499 374.7 185.599 374.5 184.599 374.3C178.499 373.1 170.699 373.3 168.299 375.5C166.399 377.2 167.999 379.1 170.199 380.9L162.699 383.4C161.399 382.8 160.399 381.8 159.899 380.4C159.399 378.6 151.499 378.3 151.999 380.1C152.499 381.9 154.199 383.6 157.499 385.1L155.599 385.8C153.899 386.4 156.899 387.5 158.599 386.9L160.599 386.2L161.299 386.4C166.699 387.9 173.799 388.2 178.299 386.8C180.299 386.2 181.499 385.2 181.399 384.1ZM175.599 378.2C175.399 377.8 175.299 377.3 175.599 376.9C176.099 376.6 176.599 376.4 177.199 376.4C178.899 376.2 180.599 376.4 182.199 376.8L175.999 378.9C175.799 378.7 175.699 378.5 175.599 378.2ZM169.399 385C168.099 385 166.899 384.8 165.599 384.5L172.099 382.3C172.499 382.6 172.899 382.9 173.199 383.3C173.399 383.5 173.399 383.6 173.399 383.8C173.399 383.9 173.299 384.1 173.299 384.2C172.099 384.8 170.799 385.1 169.399 385Z" fill="#6A90FF"/>
<path d="M220.899 364.5C210.999 359.6 194.499 356.4 175.699 356.4C156.899 356.4 140.299 359.6 130.499 364.5H120.999V375C120.999 385.3 145.499 393.6 175.799 393.6C206.099 393.6 230.599 385.3 230.599 375V364.5H220.899Z" fill="#6A90FF"/>
<path d="M175.599 394.1C144.499 394.1 120.299 385.7 120.299 375V364.5C120.299 364.2 120.499 363.9 120.899 363.9H130.299C140.599 358.8 157.599 355.8 175.699 355.8C193.799 355.8 210.799 358.8 221.099 363.9H230.499C230.799 363.9 231.099 364.1 231.099 364.5V375C230.999 385.7 206.699 394.1 175.599 394.1ZM121.399 365.1V375C121.399 385 145.699 393 175.599 393C205.499 393 229.799 384.9 229.799 375V365.1H220.799C220.699 365.1 220.599 365.1 220.599 365C210.399 360 193.599 357 175.599 357C157.599 357 140.799 360 130.599 365C130.499 365 130.399 365.1 130.299 365.1H121.399Z" fill="#282828"/>
<path d="M175.599 383.1C205.864 383.1 230.399 374.773 230.399 364.5C230.399 354.228 205.864 345.9 175.599 345.9C145.334 345.9 120.799 354.228 120.799 364.5C120.799 374.773 145.334 383.1 175.599 383.1Z" fill="#EDF1FE"/>
<path d="M175.599 383.7C144.499 383.7 120.299 375.3 120.299 364.6C120.299 353.9 144.599 345.5 175.599 345.5C206.599 345.5 230.899 353.9 230.899 364.6C230.899 375.3 206.699 383.7 175.599 383.7ZM175.599 346.5C145.699 346.5 121.399 354.6 121.399 364.5C121.399 374.4 145.699 382.5 175.599 382.5C205.499 382.5 229.799 374.4 229.799 364.5C229.899 354.6 205.499 346.5 175.599 346.5Z" fill="#282828"/>
<path d="M228.399 380.4C228.099 380.4 227.899 380.1 227.799 379.8V369.8C227.799 369.5 227.999 369.2 228.399 369.2C228.799 369.2 228.999 369.4 228.999 369.8V379.8C228.899 380.1 228.699 380.4 228.399 380.4Z" fill="#282828"/>
<path d="M226.099 382.5C225.799 382.5 225.499 382.3 225.499 381.9V372C225.499 371.7 225.699 371.4 226.099 371.4C226.499 371.4 226.699 371.6 226.699 372V381.9C226.599 382.3 226.399 382.5 226.099 382.5Z" fill="#282828"/>
<path d="M223.799 384C223.499 384 223.199 383.8 223.199 383.4V373.5C223.199 373.2 223.399 372.9 223.799 372.9C224.199 372.9 224.399 373.1 224.399 373.5V383.4C224.399 383.7 224.099 384 223.799 384Z" fill="#282828"/>
<path d="M220.999 385.8C220.699 385.8 220.399 385.6 220.399 385.2V375C220.399 374.7 220.599 374.4 220.999 374.4C221.299 374.4 221.499 374.7 221.599 375V385.2C221.599 385.6 221.299 385.8 220.999 385.8Z" fill="#282828"/>
<path d="M217.299 387.2C216.999 387.2 216.799 386.9 216.699 386.6V377C216.699 376.7 216.899 376.4 217.299 376.4C217.699 376.4 217.899 376.6 217.899 377V386.7C217.799 387 217.599 387.2 217.299 387.2Z" fill="#282828"/>
<path d="M211.799 389.3C211.499 389.3 211.199 389.1 211.199 388.7V378.7C211.199 378.4 211.499 378.2 211.799 378.1C212.099 378.1 212.399 378.3 212.399 378.7V388.8C212.399 389.1 212.099 389.3 211.799 389.3Z" fill="#282828"/>
<path d="M175.6 378.9C202.109 378.9 223.6 372.453 223.6 364.5C223.6 356.547 202.109 350.1 175.6 350.1C149.09 350.1 127.6 356.547 127.6 364.5C127.6 372.453 149.09 378.9 175.6 378.9Z" fill="#EDF1FE"/>
<path d="M175.599 379.5C148.299 379.5 126.999 372.9 126.999 364.5C126.999 356.1 148.399 349.5 175.599 349.5C202.799 349.5 224.199 356.1 224.199 364.5C224.199 372.9 202.899 379.5 175.599 379.5ZM175.599 350.7C149.899 350.7 128.099 357.1 128.099 364.6C128.099 372.1 149.899 378.5 175.599 378.5C201.299 378.5 223.099 372.1 223.099 364.6C223.099 357.1 201.399 350.7 175.599 350.7Z" fill="#282828"/>
<path d="M181.399 366.9C181.199 365.8 179.799 364.8 178.399 363.8L177.699 363.3L185.099 360.8C185.999 361.3 186.699 362 187.099 362.9C187.399 363.7 189.099 364.4 191.299 364.5C193.299 364.6 195.299 364 194.999 363.3C193.999 361.4 192.399 359.9 190.399 359.1L193.599 358C195.299 357.4 192.299 356.3 190.599 356.9L187.499 357.9C186.599 357.6 185.599 357.4 184.599 357.2C178.499 356 170.699 356.2 168.299 358.4C166.399 360.1 167.999 362 170.199 363.8L162.699 366.3C161.399 365.7 160.399 364.7 159.899 363.3C159.399 361.5 151.499 361.2 151.999 363C152.499 364.8 154.199 366.6 157.499 368L155.599 368.7C153.899 369.3 156.899 370.4 158.599 369.8L160.599 369.1L161.299 369.3C166.699 370.8 173.799 371.1 178.299 369.7C180.299 369 181.499 368 181.399 366.9ZM175.599 360.9C175.399 360.5 175.299 360 175.599 359.6C176.099 359.3 176.599 359.1 177.199 359.1C178.899 358.9 180.599 359.1 182.199 359.5L175.999 361.6C175.799 361.4 175.699 361.2 175.599 360.9ZM169.399 367.7C168.099 367.7 166.899 367.5 165.599 367.2L172.099 365C172.499 365.3 172.899 365.6 173.199 366C173.399 366.2 173.399 366.3 173.399 366.5C173.399 366.6 173.299 366.8 173.299 366.9C172.099 367.5 170.799 367.8 169.399 367.7Z" fill="#6A90FF"/>
<path d="M214.799 348.1C204.899 343.2 188.399 340 169.599 340C150.799 340 134.199 343.2 124.299 348.1H114.799V358.6C114.799 368.8 139.299 377.2 169.599 377.2C199.899 377.2 224.399 368.9 224.399 358.6V348.1H214.799Z" fill="#6A90FF"/>
<path d="M169.499 377.6C138.399 377.6 114.199 369.2 114.199 358.5V348C114.199 347.7 114.499 347.5 114.799 347.4H124.199C134.499 342.3 151.499 339.3 169.599 339.3C187.699 339.3 204.699 342.3 214.999 347.4H224.399C224.699 347.4 224.899 347.7 224.999 348V358.5C224.899 369.2 200.599 377.6 169.499 377.6ZM115.299 348.6V358.5C115.299 368.4 139.599 376.5 169.499 376.5C199.399 376.5 223.699 368.4 223.699 358.5V348.6H214.699C214.599 348.6 214.499 348.6 214.499 348.5C204.299 343.5 187.499 340.5 169.499 340.5C151.499 340.5 134.699 343.5 124.499 348.5C124.399 348.5 124.299 348.6 124.299 348.6H115.299Z" fill="#282828"/>
<path d="M169.499 366.7C199.764 366.7 224.299 358.373 224.299 348.1C224.299 337.828 199.764 329.5 169.499 329.5C139.234 329.5 114.699 337.828 114.699 348.1C114.699 358.373 139.234 366.7 169.499 366.7Z" fill="#EDF1FE"/>
<path d="M169.499 367.2C138.399 367.2 114.199 358.8 114.199 348.1C114.199 337.4 138.499 329 169.499 329C200.499 329 224.799 337.4 224.799 348.1C224.799 358.8 200.599 367.2 169.499 367.2ZM169.499 330.1C139.599 330.1 115.299 338.2 115.299 348.1C115.299 358 139.599 366.1 169.499 366.1C199.399 366.1 223.699 358 223.699 348.1C223.799 338.1 199.399 330.1 169.499 330.1Z" fill="#282828"/>
<path d="M222.299 363.9C221.999 363.9 221.699 363.7 221.699 363.3V353.3C221.699 353 221.899 352.7 222.299 352.7C222.699 352.7 222.899 352.9 222.899 353.3V363.3C222.899 363.7 222.599 363.9 222.299 363.9Z" fill="#282828"/>
<path d="M219.999 366.1C219.699 366.1 219.399 365.9 219.399 365.5V355.6C219.399 355.3 219.599 355 219.999 355C220.299 355 220.499 355.3 220.599 355.6V365.5C220.599 365.8 220.299 366.1 219.999 366.1Z" fill="#282828"/>
<path d="M217.7 367.5C217.4 367.5 217.1 367.3 217.1 366.9V357C217.1 356.7 217.3 356.4 217.7 356.4C218 356.4 218.3 356.6 218.3 357V366.9C218.3 367.3 218 367.5 217.7 367.5Z" fill="#282828"/>
<path d="M214.899 369.4C214.599 369.4 214.299 369.2 214.299 368.8V358.6C214.299 358.3 214.499 358 214.899 358C215.299 358 215.499 358.2 215.499 358.6V368.8C215.499 369.1 215.199 369.4 214.899 369.4Z" fill="#282828"/>
<path d="M211.2 370.8C210.9 370.8 210.6 370.6 210.6 370.2V360.5C210.6 360.2 210.8 359.9 211.2 359.9C211.5 359.9 211.8 360.1 211.8 360.5V370.2C211.7 370.5 211.5 370.8 211.2 370.8Z" fill="#282828"/>
<path d="M205.7 372.8C205.4 372.8 205.1 372.6 205.1 372.2V362.1C205.1 361.8 205.3 361.5 205.7 361.5C206.1 361.5 206.3 361.7 206.3 362.1V372.2C206.3 372.6 206.1 372.8 205.7 372.8Z" fill="#282828"/>
<path d="M169.499 362.5C196.009 362.5 217.499 356.053 217.499 348.1C217.499 340.147 196.009 333.7 169.499 333.7C142.989 333.7 121.499 340.147 121.499 348.1C121.499 356.053 142.989 362.5 169.499 362.5Z" fill="#EDF1FE"/>
<path d="M169.499 363C142.199 363 120.899 356.4 120.899 348C120.899 339.6 142.199 333 169.499 333C196.799 333 218.099 339.6 218.099 348C218.099 356.4 196.799 363 169.499 363ZM169.499 334.2C143.799 334.2 121.999 340.6 121.999 348.1C121.999 355.6 143.699 362 169.499 362C195.299 362 216.999 355.6 216.999 348.1C216.999 340.6 195.299 334.2 169.499 334.2Z" fill="#282828"/>
<path d="M175.3 350.4C175.1 349.3 173.7 348.3 172.3 347.3C172 347.1 171.8 346.9 171.6 346.8L179 344.3C179.9 344.8 180.6 345.5 181 346.4C181.3 347.2 183 347.9 185.2 348C187.2 348.1 189.2 347.5 188.9 346.8C187.9 344.9 186.3 343.4 184.3 342.6L187.5 341.5C189.2 340.9 186.2 339.8 184.5 340.4L181.4 341.4C180.5 341.1 179.5 340.9 178.5 340.6C172.4 339.4 164.6 339.6 162.2 341.8C160.3 343.5 161.9 345.4 164.1 347.2L156.6 349.7C155.3 349.1 154.3 348.1 153.8 346.8C153.3 345 145.4 344.7 145.9 346.5C146.4 348.3 148.1 350.1 151.4 351.5L149.5 352.2C147.8 352.8 150.8 353.9 152.5 353.3L154.4 352.6L155.1 352.8C160.5 354.3 167.6 354.6 172.1 353.2C174.2 352.5 175.4 351.5 175.3 350.4ZM169.5 344.5C169.3 344.1 169.2 343.6 169.5 343.2C170 342.9 170.5 342.7 171.1 342.7C172.8 342.5 174.5 342.7 176.1 343.1L169.9 345.2C169.7 345 169.6 344.8 169.5 344.5ZM163.3 351.3C162 351.3 160.8 351.1 159.6 350.8L166 348.6C166.4 348.9 166.8 349.2 167.1 349.6C167.3 349.8 167.3 349.9 167.3 350.1C167.3 350.2 167.2 350.4 167.2 350.5C166 351.1 164.7 351.4 163.3 351.3Z" fill="#6A90FF"/>
<path d="M223.699 330C213.799 325.1 197.299 321.9 178.499 321.9C159.699 321.9 143.099 325.1 133.299 330H123.799V340.5C123.799 350.7 148.299 359.1 178.599 359.1C208.899 359.1 233.399 350.8 233.399 340.5V330H223.699Z" fill="#6A90FF"/>
<path d="M178.4 359.6C147.3 359.6 123.1 351.2 123.1 340.5V330C123.1 329.7 123.3 329.4 123.7 329.4H133.1C143.4 324.3 160.4 321.3 178.5 321.3C196.6 321.3 213.6 324.3 223.9 329.4H233.3C233.6 329.4 233.9 329.6 233.9 330V340.5C233.8 351.2 209.5 359.6 178.4 359.6ZM124.3 330.6V340.5C124.3 350.4 148.6 358.5 178.5 358.5C208.4 358.5 232.7 350.4 232.7 340.5V330.6H223.7C223.6 330.6 223.5 330.6 223.5 330.5C213.3 325.5 196.5 322.5 178.5 322.5C160.5 322.5 143.7 325.5 133.5 330.5C133.4 330.5 133.3 330.6 133.2 330.6H124.3Z" fill="#282828"/>
<path d="M178.4 348.6C208.665 348.6 233.2 340.273 233.2 330C233.2 319.728 208.665 311.4 178.4 311.4C148.134 311.4 123.6 319.728 123.6 330C123.6 340.273 148.134 348.6 178.4 348.6Z" fill="#EDF1FE"/>
<path d="M178.4 349.2C147.3 349.2 123.1 340.8 123.1 330.1C123.1 319.4 147.4 311 178.4 311C209.4 311 233.7 319.4 233.7 330.1C233.8 340.8 209.5 349.2 178.4 349.2ZM178.4 312C148.5 312 124.2 320.1 124.2 330C124.2 339.9 148.5 348 178.4 348C208.3 348 232.6 339.9 232.6 330C232.7 320.1 208.3 312 178.4 312Z" fill="#282828"/>
<path d="M231.2 345.9C230.9 345.9 230.6 345.7 230.6 345.3V335.3C230.6 335 230.9 334.8 231.2 334.7C231.5 334.7 231.8 334.9 231.8 335.3V345.3C231.7 345.6 231.5 345.9 231.2 345.9Z" fill="#282828"/>
<path d="M228.899 348C228.599 348 228.299 347.8 228.299 347.4V337.6C228.299 337.3 228.499 337 228.899 337C229.199 337 229.399 337.3 229.499 337.6V347.5C229.399 347.8 229.199 348 228.899 348Z" fill="#282828"/>
<path d="M226.599 349.5C226.299 349.5 225.999 349.3 225.999 348.9V339C225.999 338.7 226.199 338.4 226.599 338.4C226.999 338.4 227.199 338.6 227.199 339V348.9C227.199 349.3 226.899 349.5 226.599 349.5Z" fill="#282828"/>
<path d="M223.799 351.3C223.499 351.3 223.199 351.1 223.199 350.7V340.5C223.199 340.2 223.399 339.9 223.799 339.9C224.199 339.9 224.399 340.1 224.399 340.5V350.7C224.399 351.1 224.099 351.3 223.799 351.3Z" fill="#282828"/>
<path d="M220.099 352.7C219.799 352.7 219.499 352.5 219.499 352.1V342.4C219.499 342.1 219.799 341.9 220.099 341.8C220.399 341.8 220.699 342 220.699 342.4V352.1C220.599 352.5 220.399 352.7 220.099 352.7Z" fill="#282828"/>
<path d="M214.599 354.8C214.299 354.8 213.999 354.6 213.999 354.2V344.1C213.999 343.8 214.199 343.5 214.599 343.5C214.999 343.5 215.199 343.7 215.199 344.1V354.2C215.199 354.6 214.899 354.8 214.599 354.8Z" fill="#282828"/>
<path d="M178.399 344.4C204.909 344.4 226.399 337.953 226.399 330C226.399 322.047 204.909 315.6 178.399 315.6C151.89 315.6 130.399 322.047 130.399 330C130.399 337.953 151.89 344.4 178.399 344.4Z" fill="#EDF1FE"/>
<path d="M178.399 345C151.099 345 129.799 338.4 129.799 330C129.799 321.6 151.199 315 178.399 315C205.599 315 226.999 321.6 226.999 330C226.999 338.4 205.699 345 178.399 345ZM178.399 316.2C152.699 316.2 130.899 322.6 130.899 330.1C130.899 337.6 152.699 344 178.399 344C204.099 344 225.899 337.6 225.899 330.1C225.899 322.6 204.099 316.2 178.399 316.2Z" fill="#282828"/>
<path d="M184.199 332.4C183.999 331.3 182.599 330.3 181.199 329.3C180.999 329.1 180.699 329 180.499 328.8L187.899 326.3C188.799 326.8 189.499 327.5 189.899 328.4C190.199 329.2 191.899 329.9 194.099 330C196.099 330.1 198.099 329.5 197.799 328.8C196.799 326.9 195.199 325.4 193.199 324.6L196.399 323.5C198.099 322.9 195.099 321.8 193.399 322.4L190.299 323.4C189.299 323.1 188.399 322.9 187.399 322.7C181.299 321.5 173.499 321.7 171.099 323.9C169.199 325.6 170.799 327.5 172.999 329.3L165.499 331.8C164.199 331.2 163.199 330.2 162.699 328.8C162.199 327 154.299 326.7 154.799 328.5C155.299 330.3 156.999 332.1 160.299 333.5L158.399 334.2C156.699 334.8 159.699 335.9 161.399 335.3L163.399 334.6L164.099 334.8C169.499 336.3 176.599 336.6 181.099 335.2C183.099 334.5 184.299 333.5 184.199 332.4ZM178.399 326.6C178.199 326.2 178.099 325.7 178.399 325.3C178.899 325 179.399 324.8 179.999 324.8C181.699 324.6 183.399 324.8 184.999 325.2L178.799 327.3C178.599 327 178.499 326.8 178.399 326.6ZM172.199 333.2C170.899 333.2 169.699 333 168.399 332.7L174.899 330.5C175.299 330.8 175.699 331.1 175.999 331.5C176.199 331.7 176.199 331.8 176.199 332C176.199 332.1 176.099 332.3 176.099 332.4C174.899 333 173.599 333.3 172.199 333.2Z" fill="#6A90FF"/>
<path d="M220.899 312.8C210.999 307.9 194.499 304.7 175.699 304.7C156.899 304.7 140.299 307.9 130.499 312.8H120.999V323.2C120.999 333.4 145.499 341.8 175.799 341.8C206.099 341.8 230.599 333.5 230.599 323.2V312.7L220.899 312.8Z" fill="#6A90FF"/>
<path d="M175.599 342.4C144.499 342.4 120.299 334 120.299 323.3V312.8C120.299 312.5 120.499 312.2 120.899 312.2H130.299C140.599 307.1 157.599 304.1 175.699 304.1C193.799 304.1 210.799 307.1 221.099 312.2H230.499C230.799 312.2 231.099 312.4 231.099 312.8V323.2C230.999 334 206.699 342.4 175.599 342.4ZM121.399 313.4V323.3C121.399 333.3 145.699 341.3 175.599 341.3C205.499 341.3 229.799 333.3 229.799 323.3V313.4H220.799C220.699 313.4 220.599 313.4 220.599 313.4C210.399 308.4 193.599 305.4 175.599 305.4C157.599 305.4 140.799 308.4 130.599 313.4C130.499 313.4 130.399 313.4 130.299 313.4H121.399Z" fill="#282828"/>
<path d="M175.599 331.4C205.864 331.4 230.399 323.073 230.399 312.8C230.399 302.528 205.864 294.2 175.599 294.2C145.334 294.2 120.799 302.528 120.799 312.8C120.799 323.073 145.334 331.4 175.599 331.4Z" fill="#EDF1FE"/>
<path d="M175.599 331.9C144.499 331.9 120.299 323.5 120.299 312.8C120.299 302.1 144.599 293.7 175.599 293.7C206.599 293.7 230.899 302.1 230.899 312.8C230.999 323.5 206.699 331.9 175.599 331.9ZM175.599 294.8C145.699 294.8 121.399 302.9 121.399 312.8C121.399 322.7 145.699 330.8 175.599 330.8C205.499 330.8 229.799 322.7 229.799 312.8C229.899 302.9 205.499 294.8 175.599 294.8Z" fill="#282828"/>
<path d="M228.399 328.6C228.099 328.6 227.799 328.4 227.799 328V318.1C227.799 317.8 227.999 317.5 228.399 317.5C228.799 317.5 228.999 317.7 228.999 318.1V328C228.899 328.4 228.699 328.6 228.399 328.6Z" fill="#282828"/>
<path d="M226.099 330.8C225.799 330.8 225.499 330.6 225.499 330.2V320.3C225.499 320 225.699 319.7 226.099 319.7C226.499 319.7 226.699 319.9 226.699 320.3V330.2C226.699 330.5 226.399 330.8 226.099 330.8Z" fill="#282828"/>
<path d="M223.799 332.3C223.499 332.3 223.199 332.1 223.199 331.7V321.8C223.199 321.5 223.399 321.2 223.799 321.2C224.099 321.2 224.299 321.5 224.399 321.8V331.7C224.399 332 224.099 332.3 223.799 332.3Z" fill="#282828"/>
<path d="M220.999 334.1C220.699 334.1 220.399 333.9 220.399 333.5V323.3C220.399 323 220.599 322.7 220.999 322.7C221.399 322.7 221.599 322.9 221.599 323.3V333.5C221.599 333.8 221.299 334.1 220.999 334.1Z" fill="#282828"/>
<path d="M217.299 335.5C216.999 335.5 216.699 335.3 216.699 334.9V325.2C216.699 324.9 216.899 324.6 217.299 324.6C217.699 324.6 217.899 324.8 217.899 325.2V334.9C217.799 335.2 217.599 335.5 217.299 335.5Z" fill="#282828"/>
<path d="M211.799 337.6C211.499 337.6 211.199 337.4 211.199 337V326.9C211.199 326.6 211.499 326.4 211.799 326.3C212.099 326.3 212.399 326.5 212.399 326.9V337C212.399 337.3 212.099 337.6 211.799 337.6Z" fill="#282828"/>
<path d="M175.6 327.2C202.109 327.2 223.6 320.753 223.6 312.8C223.6 304.847 202.109 298.4 175.6 298.4C149.09 298.4 127.6 304.847 127.6 312.8C127.6 320.753 149.09 327.2 175.6 327.2Z" fill="#EDF1FE"/>
<path d="M175.599 327.8C148.299 327.8 126.999 321.2 126.999 312.8C126.999 304.4 148.399 297.8 175.599 297.8C202.799 297.8 224.199 304.4 224.199 312.8C224.199 321.2 202.899 327.8 175.599 327.8ZM175.599 298.9C149.899 298.9 128.099 305.3 128.099 312.8C128.099 320.3 149.899 326.7 175.599 326.7C201.299 326.7 223.099 320.3 223.099 312.8C223.099 305.3 201.399 298.9 175.599 298.9Z" fill="#282828"/>
<path d="M181.399 315.1C181.199 314 179.799 313 178.399 312L177.699 311.5L185.099 309C185.999 309.5 186.699 310.2 187.099 311.1C187.399 311.9 189.099 312.6 191.299 312.7C193.299 312.8 195.299 312.2 194.999 311.4C193.999 309.5 192.399 308 190.399 307.2L193.599 306.1C195.299 305.5 192.299 304.4 190.599 305L187.499 306C186.499 305.7 185.599 305.5 184.599 305.3C178.499 304.1 170.699 304.3 168.299 306.5C166.399 308.2 167.999 310.1 170.199 311.9L162.699 314.4C161.399 313.8 160.399 312.8 159.899 311.4C159.399 309.6 151.499 309.3 151.999 311.1C152.499 312.9 154.199 314.7 157.499 316.1L155.599 316.7C153.899 317.3 156.899 318.4 158.599 317.8L160.599 317.1L161.299 317.3C166.699 318.8 173.799 319.1 178.299 317.7C180.299 317.3 181.499 316.2 181.399 315.1ZM175.599 309.3C175.399 308.9 175.299 308.4 175.599 308C176.099 307.7 176.599 307.5 177.199 307.5C178.899 307.3 180.599 307.5 182.199 307.9L175.999 310C175.799 309.7 175.699 309.5 175.599 309.3ZM169.399 316C168.099 316 166.899 315.8 165.599 315.5L172.099 313.3C172.499 313.6 172.899 313.9 173.199 314.3C173.399 314.5 173.399 314.6 173.399 314.8C173.399 314.9 173.299 315.1 173.299 315.2C172.099 315.9 170.799 316.1 169.399 316Z" fill="#6A90FF"/>
<path d="M138.399 343.1L129.699 340L128.799 342.8C116.499 345.6 103.899 359.5 97.8992 378.7C91.7992 397.9 94.1992 416.6 102.599 425.9L101.899 428.1L110.599 431.2C125.299 435.8 143.499 419.9 151.199 395.6C158.899 371.3 153.199 347.8 138.399 343.1Z" fill="#6A90FF"/>
<path d="M116 432.6C114.1 432.6 112.3 432.3 110.5 431.8L101.7 428.7C101.4 428.6 101.3 428.3 101.4 428L102 426.1C93.2999 416.3 91.4999 397.3 97.3999 378.6C103.3 359.9 115.7 345.4 128.5 342.4L129.3 339.9C129.3 339.8 129.4 339.6 129.6 339.6C129.7 339.5 129.9 339.5 130 339.6L138.7 342.7C146 345 151.4 351.9 153.9 361.9C156.4 372 155.6 384 151.9 395.8C148.2 407.7 141.8 418 134.2 424.7C128.1 429.9 121.8 432.6 116 432.6ZM102.6 427.8L110.8 430.8C117.7 433 125.7 430.5 133.2 423.9C140.7 417.3 147 407.1 150.7 395.4C154.4 383.7 155.1 371.9 152.7 362.1C150.3 352.3 145.2 345.8 138.3 343.6L130.1 340.7L129.4 343C129.3 343.2 129.2 343.3 129 343.4C116.6 346.2 104.3 360.5 98.4999 379C92.6999 397.5 94.4999 416.2 103.1 425.7C103.2 425.8 103.3 426.1 103.2 426.2L102.6 427.8Z" fill="#282828"/>
<path d="M142.547 392.498C150.214 368.161 144.473 344.665 129.724 340.018C114.974 335.371 96.8015 351.333 89.1341 375.67C81.4667 400.007 87.2078 423.502 101.957 428.149C116.707 432.796 134.879 416.835 142.547 392.498Z" fill="#EDF1FE"/>
<path d="M107.199 429.5C105.399 429.5 103.499 429.2 101.799 428.7C86.7994 424 80.8994 400.1 88.5994 375.5C92.2994 363.6 98.6994 353.3 106.299 346.6C113.999 339.8 122.399 337.2 129.799 339.5C144.799 344.2 150.699 368.1 142.999 392.7C136.199 414.3 120.999 429.5 107.199 429.5ZM124.399 339.7C118.899 339.7 112.899 342.3 107.099 347.3C99.4994 354 93.2994 364.1 89.5994 375.8C82.0994 399.8 87.5994 423 101.999 427.6C116.399 432.2 134.299 416.3 141.899 392.3C149.499 368.3 143.899 345.1 129.499 340.5C127.899 340 126.099 339.7 124.399 339.7Z" fill="#282828"/>
<path d="M134.417 390.762C140.836 370.433 136.989 351.095 125.824 347.57C114.658 344.045 100.404 357.667 93.9848 377.996C87.5659 398.325 91.4134 417.663 102.579 421.188C113.744 424.713 127.998 411.091 134.417 390.762Z" fill="#EDF1FE"/>
<path d="M107.8 422.1C106.5 422.1 105.2 421.9 104 421.5C98.3998 419.7 94.3997 414.1 92.6997 405.7C90.9997 397.3 91.8998 387.4 94.9998 377.4C101.5 356.7 116.2 342.8 127.6 346.5C139 350.2 143.1 369.9 136.6 390.5C133.5 400.5 128.4 409.2 122.3 415C117.5 419.7 112.5 422.1 107.8 422.1ZM123.8 347.1C113.6 347.1 101.7 359.8 96.0997 377.8C92.9997 387.6 92.1998 397.4 93.7998 405.5C95.3998 413.6 99.0998 418.8 104.4 420.4C109.7 422 115.7 419.9 121.6 414.2C127.5 408.6 132.5 399.9 135.6 390.2C141.9 370.1 138.2 351 127.3 347.6C126.2 347.3 125 347.1 123.8 347.1Z" fill="#282828"/>
<path d="M144.199 346.8C144.099 346.8 144.099 346.8 143.999 346.8L136.199 344.6C135.899 344.5 135.699 344.2 135.799 343.9C135.899 343.6 136.199 343.4 136.499 343.5L144.299 345.7C144.599 345.8 144.799 346.1 144.699 346.4C144.699 346.6 144.399 346.8 144.199 346.8Z" fill="#282828"/>
<path d="M146.399 349C146.299 349 146.299 349 146.199 349L138.499 346.8C138.199 346.7 137.999 346.4 138.099 346.1C138.199 345.8 138.499 345.6 138.799 345.7L146.499 347.9C146.799 348 146.999 348.3 146.899 348.6C146.799 348.8 146.599 349 146.399 349Z" fill="#282828"/>
<path d="M148.3 351.2H148.1L140.4 349C140.1 348.9 139.9 348.6 140 348.3C140.1 348 140.4 347.8 140.7 347.9L148.4 350.1C148.7 350.1 148.9 350.4 148.9 350.7C148.8 351.1 148.6 351.3 148.3 351.2Z" fill="#282828"/>
<path d="M150.3 354.5H150.1L141.9 352.1C141.6 352 141.4 351.7 141.5 351.4C141.6 351.1 141.9 350.9 142.2 351L150.4 353.4C150.7 353.4 150.9 353.7 150.9 354C150.9 354.4 150.7 354.6 150.3 354.5Z" fill="#282828"/>
<path d="M121.9 388.2C120.8 386.1 119.4 384.3 117.6 382.9L116.7 382.1L119.6 374.3C120.8 375.3 121.8 376.5 122.5 377.9C123.2 379.4 124.9 380.1 126.5 379.6C128 379 128.6 377.3 128 375.8V375.7C126.5 372.9 124.4 370.4 121.8 368.6L123.1 365.3C123.8 363.5 121 362.3 120.3 364.1L119.1 367.3C118.3 367 117.5 366.9 116.6 366.8C111.7 366.4 106.8 369.8 106.8 375.1C106.8 379.2 109.4 382.7 112.2 385.6L109.2 393.5C107.4 392.2 106 390.4 105.1 388.4C103.4 384.9 97.9001 387 99.7001 390.6C101.3 394.1 103.9 397 107.2 399L106.4 401C105.7 402.8 108.5 404 109.2 402.2L110 400.2L110.6 400.4C115.2 401.7 120 399.5 122 395.2C122.9 392.9 122.9 390.4 121.9 388.2ZM113.6 378.2C113.1 377.4 112.8 376.5 112.6 375.6C112.6 375 112.8 374.4 113.2 373.9C114.1 372.9 115.5 372.6 116.8 372.9L114.3 379.4C114.1 379 113.8 378.6 113.6 378.2ZM114.7 394.3C113.8 394.7 112.8 394.8 111.9 394.7L114.4 387.9C114.9 388.4 115.4 388.9 115.9 389.5C116.1 389.8 116.3 390.1 116.4 390.4C116.5 390.6 116.6 391.3 116.6 391.3C116.6 392.5 115.8 393.7 114.7 394.3Z" fill="#6A90FF"/>
<path d="M155.9 289.8C151.9 289.9 148.2 291.9 145.9 295.2C143.2 299 141.7 303.6 141.8 308.3C141.8 298 135.5 289.7 127.7 289.7C131.7 289.6 135.4 287.6 137.7 284.3C140.5 280.5 141.9 275.9 141.8 271.2C141.7 275.9 143.2 280.6 145.9 284.4C148.3 287.7 152 289.7 155.9 289.8Z" fill="#EDF1FE"/>
<path d="M141.9 309C141.6 309 141.3 308.8 141.3 308.4C141.3 298.4 135.2 290.4 127.8 290.4C127.5 290.4 127.3 290.1 127.2 289.8C127.2 289.5 127.4 289.2 127.8 289.2C131.6 289.1 135.1 287.1 137.3 284C140 280.3 141.4 275.8 141.3 271.2C141.3 270.9 141.5 270.6 141.9 270.6C142.3 270.6 142.5 270.8 142.5 271.2C142.4 275.8 143.8 280.3 146.5 284C148.7 287.2 152.2 289.1 156 289.2C156.3 289.2 156.6 289.4 156.6 289.8C156.6 290.1 156.3 290.3 156 290.4C152.2 290.5 148.6 292.5 146.5 295.6C143.8 299.3 142.4 303.8 142.5 308.4C142.5 308.7 142.2 309 141.9 309ZM131.3 289.8C136.4 291.4 140.4 296.6 141.9 303.1C142.5 300.1 143.8 297.3 145.6 294.9C147.3 292.5 149.7 290.7 152.5 289.8C149.7 288.8 147.3 287.1 145.6 284.7C143.8 282.3 142.5 279.4 141.9 276.5C141.3 279.5 140 282.3 138.2 284.7C136.5 287 134.1 288.8 131.3 289.8Z" fill="#282828"/>
<path d="M130.4 264.4C126.4 264.5 122.7 266.5 120.4 269.8C117.7 273.6 116.2 278.2 116.3 282.9C116.3 272.6 110 264.3 102.2 264.3C106.2 264.2 109.9 262.2 112.2 258.9C115 255.1 116.4 250.5 116.3 245.8C116.2 250.5 117.7 255.1 120.4 258.9C122.7 262.2 126.4 264.2 130.4 264.4Z" fill="#EDF1FE"/>
<path d="M116.301 283.5C116.001 283.5 115.701 283.3 115.701 282.9C115.701 272.9 109.601 264.9 102.201 264.9C101.901 264.9 101.601 264.7 101.601 264.3C101.601 263.9 101.801 263.7 102.201 263.7C106.001 263.6 109.501 261.6 111.701 258.5C114.401 254.8 115.801 250.3 115.701 245.7C115.701 245.4 115.901 245.1 116.301 245.1C116.601 245.1 116.901 245.3 116.901 245.7C116.801 250.3 118.301 254.8 120.901 258.5C123.101 261.7 126.601 263.6 130.401 263.7C130.701 263.7 131.001 263.9 131.001 264.3C131.001 264.7 130.801 264.9 130.401 264.9C126.601 265 123.001 267 120.901 270.1C118.201 273.8 116.801 278.3 116.901 282.9C116.901 283.3 116.701 283.5 116.301 283.5C116.401 283.5 116.401 283.5 116.301 283.5ZM105.801 264.4C110.901 266.1 114.901 271.2 116.401 277.7C117.001 274.7 118.301 271.9 120.101 269.5C121.801 267.1 124.201 265.3 127.001 264.4C124.201 263.4 121.801 261.7 120.101 259.3C118.301 256.9 117.001 254.1 116.401 251.1C115.801 254.1 114.501 256.9 112.701 259.3C111.001 261.6 108.601 263.4 105.801 264.4Z" fill="#282828"/>
<path d="M109.9 296.2C107.3 296.3 104.9 297.6 103.4 299.8C101.6 302.3 100.7 305.3 100.7 308.4C100.7 301.7 96.6 296.2 91.5 296.2C94.1 296.1 96.5 294.8 98 292.7C99.8 290.2 100.8 287.2 100.7 284.1C100.7 287.2 101.6 290.2 103.4 292.7C104.8 294.8 107.2 296.1 109.9 296.2Z" fill="#EDF1FE"/>
<path d="M100.6 308.9C100.3 308.9 100 308.7 100 308.3C100 301.9 96.1002 296.7 91.3002 296.7C91.0002 296.7 90.7002 296.5 90.7002 296.1C90.7002 295.8 91.0002 295.6 91.3002 295.5C93.7002 295.4 96.0002 294.2 97.4002 292.2C99.1002 289.8 100 286.9 100 283.9C100 283.6 100.2 283.3 100.6 283.3C100.9 283.3 101.1 283.6 101.2 283.9C101.1 286.9 102 289.8 103.8 292.2C105.2 294.2 107.4 295.4 109.9 295.5C110.2 295.5 110.5 295.7 110.5 296.1C110.5 296.5 110.3 296.7 109.9 296.7C107.5 296.8 105.2 298 103.8 300C102.1 302.4 101.2 305.3 101.2 308.3C101.2 308.7 100.9 308.9 100.6 308.9ZM94.3002 296.2C97.3002 297.4 99.6002 300.3 100.6 304.1C101 302.4 101.8 300.8 102.8 299.4C103.8 298 105.2 296.8 106.9 296.2C105.3 295.5 103.9 294.4 102.8 293C101.8 291.6 101 290 100.6 288.3C100.2 290 99.4002 291.6 98.4002 293C97.4002 294.4 96.0002 295.6 94.3002 296.2Z" fill="#282828"/>
<path d="M440.5 163H419V224.9H395.2V163H373.7L407.1 114L440.5 163Z" fill="#EDF1FE"/>
<path d="M419 225.5H395.2C394.9 225.5 394.6 225.3 394.6 224.9V163.5H373.7C373.5 163.5 373.3 163.4 373.2 163.2C373.1 163 373.1 162.8 373.2 162.6L406.6 113.6C406.8 113.3 407.2 113.3 407.4 113.5L407.5 113.6L440.9 162.6C441 162.8 441 163 440.9 163.2C440.8 163.4 440.6 163.5 440.4 163.5H419.5V224.9C419.6 225.2 419.3 225.5 419 225.5ZM395.8 224.4H418.5V163C418.5 162.7 418.7 162.4 419.1 162.4H439.5L407.1 115L374.8 162.4H395.2C395.5 162.4 395.8 162.6 395.8 163V224.4Z" fill="#282828"/>
<path d="M197.8 171.5H181.9V217.5H164.2V171.5H148.2L173 135.1L197.8 171.5Z" fill="#6A90FF"/>
<path d="M181.9 218H164.2C163.9 218 163.7 217.7 163.6 217.4V172H148.2C148 172 147.8 171.9 147.7 171.7C147.6 171.5 147.6 171.3 147.7 171.1L172.5 134.7C172.7 134.4 173.1 134.4 173.3 134.6L173.4 134.7L198.2 171.1C198.4 171.4 198.3 171.7 198.1 171.9C198 172 197.9 172 197.8 172H182.4V217.5C182.4 217.8 182.2 218 181.9 218ZM164.8 216.9H181.4V171.4C181.4 171.1 181.6 170.8 182 170.8H196.9L173.1 136L149.4 170.9H164.3C164.6 170.9 164.9 171.1 164.9 171.5L164.8 216.9Z" fill="#282828"/>
<path d="M288.8 83.4H272.8V129.5H255.2V83.4H239.2L264 47L288.8 83.4Z" fill="#EDF1FE"/>
<path d="M272.8 130H255.1C254.8 130 254.5 129.8 254.5 129.4V84.0001H239.1C238.9 84.0001 238.7 83.9001 238.6 83.7001C238.5 83.5001 238.5 83.3001 238.6 83.1001L263.4 46.7001C263.6 46.4001 264 46.4001 264.2 46.6001L264.3 46.7001L289.1 83.1001C289.2 83.3001 289.2 83.5001 289.1 83.7001C289 83.9001 288.8 84.0001 288.6 84.0001H273.2V129.5C273.3 129.7 273.1 130 272.8 130ZM255.7 128.9H272.2V83.4001C272.2 83.1001 272.4 82.8001 272.8 82.8001H287.7L264 48.0001L240.2 82.9001H255.1C255.4 82.9001 255.7 83.1001 255.7 83.5001V128.9Z" fill="#282828"/>
<path d="M116.201 141.3H100.201V187.3H82.6006V141.3H66.6006L91.4006 104.9L116.201 141.3Z" fill="#6A90FF"/>
<path d="M100.2 187.9H82.6004C82.3004 187.9 82.1004 187.6 82.0004 187.3V141.8H66.6004C66.4004 141.8 66.2004 141.7 66.1004 141.5C66.0004 141.3 66.0004 141.1 66.1004 140.9L91.0004 104.6C91.2004 104.3 91.5004 104.3 91.8004 104.5L91.9004 104.6L116.7 141C116.8 141.2 116.8 141.4 116.7 141.6C116.6 141.8 116.4 141.9 116.2 141.9H100.8V187.4C100.8 187.7 100.6 187.9 100.2 187.9ZM83.1004 186.8H99.7004V141.3C99.7004 141 99.9004 140.7 100.3 140.7H115.2L91.4004 105.8L67.7004 140.6H82.6004C82.9004 140.6 83.2004 140.8 83.2004 141.2V186.8H83.1004Z" fill="#282828"/>
</svg>
