<svg width="500" height="500" viewBox="0 0 500 500" fill="none" xmlns="http://www.w3.org/2000/svg">
<path fill-rule="evenodd" clip-rule="evenodd" d="M248.516 0.0691351C296.892 -1.70001 339.384 30.7275 378.618 69.4528C428.41 118.601 491.482 163.966 498.981 247.291C506.872 334.977 467.996 424.223 415.115 475.018C367.805 520.46 306.305 490.55 248.516 487.87C194.148 485.349 137.203 503.131 92.852 460.072C41.7493 410.458 -6.49864 332.401 0.719764 247.291C7.71208 164.847 76.1515 127.651 125.195 78.7208C163.285 40.7195 201.377 1.79308 248.516 0.0691351Z" fill="#EDF1FE"/>
<path d="M104.87 294.24C94.2705 289.99 85.2905 281.81 80.0805 271.64C78.3005 268.17 76.9605 263.98 78.5905 260.44C80.2205 256.9 86.1205 255.64 87.9105 259.1C79.9105 247.46 65.0805 240.26 61.4805 226.6C60.3105 222.18 61.4805 216.16 65.9505 215.2C67.8905 214.78 69.8805 215.49 71.7005 216.29C75.4305 217.94 78.9605 220.04 82.1805 222.54C72.7705 211.47 66.2405 197.98 63.3705 183.74C62.8205 181.01 62.4405 178.01 63.7605 175.55C65.6605 172.01 70.6005 171.02 74.3405 172.47C78.0805 173.92 80.8005 177.21 82.9505 180.6C85.1005 183.99 86.8805 187.67 89.5905 190.64C87.1705 173.36 88.4405 155.57 93.2805 138.81C94.6905 133.92 96.4505 129.03 99.5405 124.99C102.63 120.95 107.25 117.83 112.33 117.59C114.1 117.51 115.94 117.79 117.43 118.75C120.09 120.46 121.07 123.82 121.77 126.9C124.66 139.72 126.1 152.86 126.06 166C127.94 156.46 128.63 154.84 129.73 149.15C130.83 143.46 135.2 137.25 140.92 138.16C145.45 138.88 148.08 143.69 149.16 148.15C152.66 162.66 146.89 177.63 145.92 192.52C149.67 186.06 153.73 179.78 158.07 173.7C159.86 171.19 162.16 168.48 165.24 168.47C169.79 168.47 171.95 174.09 172.26 178.63C173.36 195.15 166.58 211.05 159.93 226.21C163.85 221.92 167.95 217.8 172.22 213.87C174.44 211.82 177.52 209.69 180.24 211.01C181.43 211.59 182.24 212.73 182.87 213.89C186.46 220.57 185.33 228.77 183.28 236.07C180.91 244.52 177.43 252.61 173.97 260.67C169.03 272.17 164 283.83 156.1 293.53L104.86 294.22L104.87 294.24Z" fill="#6A90FF"/>
<path d="M127.96 294.43C127.72 294.43 127.5 294.25 127.47 294C127.33 293.05 113.79 198.49 110.11 159.06C110.08 158.79 110.29 158.54 110.56 158.52C110.83 158.5 111.08 158.7 111.1 158.97C114.78 198.38 128.31 292.91 128.45 293.86C128.49 294.13 128.3 294.39 128.03 294.43C128.01 294.43 127.98 294.43 127.96 294.43Z" fill="#282828"/>
<path d="M124.99 273.41C124.88 273.41 124.76 273.37 124.67 273.29C124.46 273.11 124.43 272.8 124.61 272.59L149.88 242.2C150.06 241.99 150.37 241.96 150.58 242.14C150.79 242.32 150.82 242.63 150.64 242.84L125.37 273.23C125.27 273.35 125.13 273.41 124.99 273.41Z" fill="#282828"/>
<path d="M122.42 254.77C122.35 254.77 122.29 254.76 122.22 254.73L84.7902 238.59C84.5402 238.48 84.4202 238.19 84.5302 237.93C84.6402 237.68 84.9302 237.56 85.1902 237.67L122.62 253.81C122.87 253.92 122.99 254.21 122.88 254.47C122.8 254.66 122.61 254.77 122.42 254.77Z" fill="#282828"/>
<path d="M119.281 222.65C119.161 222.65 119.051 222.61 118.951 222.53C118.741 222.35 118.721 222.03 118.901 221.82L137.251 200.62C137.431 200.41 137.751 200.39 137.961 200.57C138.171 200.75 138.191 201.07 138.011 201.28L119.661 222.48C119.561 222.59 119.421 222.65 119.281 222.65Z" fill="#282828"/>
<path d="M115.131 199.39C114.981 199.39 114.841 199.33 114.741 199.21L96.5807 176.96C96.4107 176.75 96.4407 176.43 96.6507 176.26C96.8607 176.09 97.1807 176.12 97.3507 176.33L115.511 198.58C115.681 198.79 115.651 199.11 115.441 199.28C115.351 199.36 115.241 199.39 115.121 199.39H115.131Z" fill="#282828"/>
<path d="M214.77 294.43H61.0703C60.7903 294.43 60.5703 294.21 60.5703 293.93C60.5703 293.65 60.7903 293.43 61.0703 293.43H214.77C215.05 293.43 215.27 293.65 215.27 293.93C215.27 294.21 215.05 294.43 214.77 294.43Z" fill="#282828"/>
<path d="M263.201 195.73C229.221 202.45 200.801 231.31 198.221 267.91C195.641 304.51 194.771 379.01 194.771 379.01H370.58L359.281 287.37C359.281 287.37 382.211 299.51 401.101 287.37C419.991 275.23 412.201 160.66 412.201 160.66L370.58 162.62L365.641 223.39C365.641 223.39 355.941 214.03 346.261 210.33C346.261 210.33 351.921 200.14 352.12 195.72C352.32 191.3 344.61 186.26 344.61 186.26C344.61 186.26 312.78 176.75 307.74 180.29C302.7 183.83 299.001 194.33 299.001 194.33C299.001 194.33 279.81 193.48 263.21 195.72L263.201 195.73Z" fill="#6A90FF"/>
<path d="M255.04 181.13V201.98C255.04 204.11 256.23 206.07 258.14 207.01C262.03 208.93 268.98 211.53 275.55 209.76C280.13 208.53 282.94 207.13 284.64 205.98C286.18 204.94 287.07 203.2 287.07 201.34V185.51L255.04 181.13Z" fill="white"/>
<path d="M270.95 210.84C265.71 210.84 260.77 208.86 257.91 207.45C255.86 206.44 254.54 204.29 254.54 201.97V181.12C254.54 180.98 254.6 180.84 254.71 180.74C254.82 180.65 254.96 180.6 255.11 180.62L287.14 185C287.39 185.03 287.57 185.25 287.57 185.5V201.33C287.57 203.37 286.58 205.26 284.92 206.38C282.69 207.88 279.58 209.18 275.68 210.23C274.11 210.65 272.52 210.83 270.96 210.83L270.95 210.84ZM255.54 181.7V201.98C255.54 203.92 256.65 205.72 258.36 206.56C261.94 208.32 268.92 211.02 275.42 209.28C279.21 208.26 282.22 207.01 284.36 205.57C285.75 204.64 286.57 203.06 286.57 201.35V185.95L255.54 181.71V181.7Z" fill="#282828"/>
<path d="M207.371 97.8197C207.501 102.29 208.151 107.07 209.281 112.14L296.111 81.6497C292.671 76.7897 289.131 71.6197 284.971 67.0997C275.801 57.0997 263.571 50.1197 242.591 55.8597C217.471 62.7297 206.771 76.9997 207.371 97.8297V97.8197Z" fill="white"/>
<path d="M209.28 112.63C209.2 112.63 209.11 112.61 209.04 112.57C208.92 112.5 208.83 112.38 208.79 112.24C207.64 107.12 206.99 102.28 206.87 97.8299C206.25 75.9799 217.89 62.0899 242.46 55.3699C265.45 49.0899 277.45 58.1499 285.34 66.7599C289.12 70.8699 292.38 75.4899 295.52 79.9499L296.51 81.3599C296.6 81.4899 296.63 81.6499 296.58 81.7999C296.53 81.9499 296.42 82.0699 296.27 82.1199L209.44 112.61C209.39 112.63 209.33 112.64 209.27 112.64L209.28 112.63ZM207.87 97.7999C207.99 102.02 208.59 106.62 209.65 111.47L295.32 81.3799L294.71 80.5099C291.58 76.0699 288.35 71.4799 284.61 67.4199C269.95 51.4399 254.53 53.0999 242.73 56.3199C218.67 62.8999 207.27 76.4699 207.87 97.7899V97.7999Z" fill="#282828"/>
<path d="M207.37 97.8201C207.5 102.29 208.15 107.07 209.28 112.14L296.11 81.6501C292.67 76.7901 289.13 71.6201 284.97 67.1001C263.24 68.3901 227.47 81.2101 207.36 97.8301L207.37 97.8201Z" fill="#0C41E2"/>
<path d="M209.28 112.63C209.2 112.63 209.11 112.61 209.04 112.57C208.92 112.5 208.83 112.38 208.79 112.24C207.64 107.12 206.99 102.28 206.87 97.8298C206.87 97.6798 206.93 97.5298 207.05 97.4298C227.49 80.5398 263.83 67.8398 284.94 66.5898C285.09 66.5898 285.24 66.6398 285.34 66.7498C289.12 70.8598 292.38 75.4798 295.52 79.9398L296.51 81.3498C296.6 81.4798 296.63 81.6398 296.58 81.7898C296.53 81.9398 296.42 82.0598 296.27 82.1098L209.44 112.6C209.39 112.62 209.33 112.63 209.27 112.63H209.28ZM207.88 98.0499C208.02 102.21 208.61 106.72 209.65 111.48L295.32 81.3898L294.71 80.5198C291.63 76.1498 288.44 71.6298 284.77 67.6098C263.84 68.9298 228.13 81.4298 207.88 98.0499Z" fill="#282828"/>
<path d="M310.25 143.65C328.15 129.24 354.47 103.89 320.45 81.7398C286.43 59.5998 206.76 104.48 194.33 118.96C173.15 143.64 195.03 169.92 224.68 157.92C254.33 145.92 310.24 143.65 310.24 143.65H310.25Z" fill="white"/>
<path d="M210.15 161.33C202.15 161.33 194.37 158.56 189.39 151.63C184.16 144.35 182.61 131.86 193.96 118.64C200.56 110.95 224.3 96.0601 249.12 86.1501C267.42 78.8501 301.06 68.5101 320.73 81.3201C331.38 88.2501 336.99 96.1001 337.42 104.67C338.19 119.96 322.46 134.46 310.57 144.04C310.49 144.11 310.38 144.15 310.28 144.15C309.72 144.17 254.12 146.56 224.89 158.39C220.33 160.24 215.2 161.34 210.16 161.34L210.15 161.33ZM296.7 76.2501C279.94 76.2501 261.42 82.3301 249.48 87.0901C224.8 96.9401 201.24 111.69 194.71 119.3C185.53 129.99 183.8 142.16 190.19 151.05C197.99 161.91 213.04 162.1 224.49 157.47C253.09 145.9 306.65 143.32 310.05 143.17C321.76 133.73 337.15 119.51 336.4 104.73C335.99 96.5101 330.52 88.9201 320.16 82.1701C313.58 77.8801 305.36 76.2501 296.68 76.2501H296.7Z" fill="#282828"/>
<path d="M224.69 143.48L234.15 160.98L240.27 159.77C240.27 159.77 235.77 152.22 235.98 149.17C236.19 146.12 242.08 144.91 256.14 138.81C270.17 132.71 280.74 107.08 280.74 107.08C280.74 107.08 299.35 116.77 310.25 124.19C308.65 119.59 306.81 114.96 304.75 110.34C296.2 99.3601 274.44 96.2801 246.76 112.36C219.11 128.43 224.69 143.5 224.69 143.5V143.48Z" fill="#282828"/>
<path d="M234.14 161.48C233.96 161.48 233.79 161.38 233.7 161.22L224.24 143.72C224.24 143.72 224.22 143.68 224.21 143.66C223.98 143.03 218.8 128.01 246.5 111.91C259.39 104.42 271.99 100.54 282.92 100.69C292.66 100.82 300.55 104.13 305.13 110.02C305.15 110.05 305.18 110.09 305.19 110.12C307.24 114.71 309.1 119.38 310.71 124.01C310.78 124.21 310.71 124.44 310.54 124.57C310.37 124.7 310.13 124.71 309.95 124.59C300.16 117.93 283.95 109.33 280.97 107.76C280.25 109.42 277.77 114.93 274.11 120.91C268.22 130.52 262.24 136.69 256.32 139.26C252.38 140.97 249.04 142.31 246.36 143.39C239.65 146.09 236.59 147.32 236.46 149.2C236.3 151.57 239.45 157.44 240.68 159.51C240.76 159.65 240.77 159.82 240.71 159.97C240.65 160.12 240.51 160.23 240.35 160.26L234.23 161.47C234.23 161.47 234.17 161.47 234.13 161.47L234.14 161.48ZM225.14 143.28L234.4 160.41L239.48 159.4C238.4 157.51 235.29 151.8 235.48 149.12C235.65 146.61 238.68 145.39 246.01 142.45C248.68 141.38 252.01 140.04 255.94 138.33C269.62 132.38 280.17 107.12 280.28 106.86C280.33 106.73 280.44 106.63 280.57 106.58C280.7 106.53 280.85 106.54 280.97 106.61C281.15 106.7 298.35 115.68 309.28 122.91C307.8 118.79 306.14 114.65 304.32 110.57C292.82 95.8897 266.56 101.41 247.01 112.76C220.67 128.07 224.91 142.53 225.15 143.27L225.14 143.28Z" fill="#282828"/>
<path d="M216.85 154.67C218.27 169.12 233.34 165.86 233.34 165.86C233.34 165.86 259.57 200.85 291.93 191.29C320.05 182.99 320.8 154.57 310.25 124.18C299.34 116.76 280.74 107.07 280.74 107.07C280.74 107.07 270.17 132.71 256.14 138.8C242.08 144.9 236.19 146.11 235.98 149.16C235.77 152.21 240.27 159.76 240.27 159.76L234.15 160.97L224.69 143.47C224.69 143.47 215.88 144.68 216.86 154.66L216.85 154.67Z" fill="white"/>
<path d="M280.67 193.43C255.11 193.43 235.29 169.16 233.14 166.41C231.69 166.67 225.67 167.47 221.18 164.19C218.4 162.16 216.78 158.98 216.36 154.72C215.34 144.39 224.53 143 224.62 142.99C224.83 142.96 225.03 143.06 225.13 143.25L234.41 160.42L239.49 159.41C238.41 157.52 235.3 151.81 235.49 149.13C235.66 146.62 238.69 145.4 246.02 142.46C248.69 141.39 252.02 140.05 255.95 138.34C269.63 132.39 280.18 107.13 280.29 106.87C280.34 106.74 280.45 106.64 280.58 106.59C280.71 106.54 280.86 106.55 280.98 106.62C281.17 106.72 299.74 116.41 310.54 123.76C310.63 123.82 310.7 123.91 310.73 124.01C318.28 145.77 319.01 163.61 312.85 175.59C308.81 183.45 301.82 188.89 292.08 191.77C288.18 192.92 284.37 193.43 280.68 193.43H280.67ZM233.34 165.36C233.5 165.36 233.64 165.43 233.74 165.56C234 165.91 260.14 200.16 291.78 190.81C301.25 188.02 308.03 182.74 311.95 175.14C317.97 163.43 317.24 145.92 309.83 124.5C300.03 117.86 283.95 109.33 280.98 107.77C280.26 109.43 277.78 114.94 274.12 120.92C268.23 130.53 262.25 136.7 256.33 139.27C252.39 140.98 249.05 142.32 246.37 143.4C239.66 146.1 236.6 147.33 236.47 149.21C236.31 151.58 239.46 157.45 240.69 159.52C240.77 159.66 240.78 159.83 240.72 159.98C240.66 160.13 240.52 160.24 240.36 160.27L234.24 161.48C234.03 161.52 233.81 161.42 233.7 161.23L224.41 144.05C222.84 144.38 216.52 146.25 217.34 154.63C217.73 158.59 219.22 161.54 221.76 163.39C226.43 166.79 233.16 165.39 233.23 165.38C233.27 165.38 233.3 165.37 233.34 165.37V165.36Z" fill="#282828"/>
<path d="M274.44 142.38C269.96 140.98 265.3 141.75 262.24 145.48C261.53 146.28 260.93 147.26 260.31 148.13C259.98 148.6 259.21 148.16 259.45 147.64C261.09 143.01 265.32 139.64 270.37 140.16C271.95 140.31 273.45 140.71 274.86 141.47C275.1 141.6 275.19 141.9 275.06 142.15C274.94 142.38 274.66 142.47 274.43 142.38H274.44Z" fill="#282828"/>
<path d="M302.27 127.21C301.02 126.56 299.21 126.7 297.81 126.99C292.98 127.98 289.41 131.73 286.96 135.84C286.66 136.38 285.82 135.98 286.06 135.4C287.93 130.5 292.19 126.24 297.56 125.48C299.4 125.28 301.3 125.22 302.91 126.43C303.4 126.85 302.8 127.59 302.28 127.21H302.27Z" fill="#282828"/>
<path d="M296.09 160.04C293.63 160.04 291.02 158.8 290 156.21C289.9 155.95 290.02 155.66 290.28 155.56C290.54 155.46 290.83 155.58 290.93 155.84C292.03 158.62 295.34 159.54 297.78 158.8C299.97 158.13 300.97 156.34 300.46 154C300.21 152.85 299.65 152.05 298.75 151.57C296.26 150.24 292.11 151.82 292.07 151.84C291.83 151.93 291.55 151.83 291.44 151.59C291.41 151.52 288.24 144.8 286.03 135.74C285.96 135.47 286.13 135.2 286.4 135.14C286.67 135.08 286.94 135.24 287 135.51C288.88 143.2 291.45 149.18 292.16 150.76C293.38 150.36 296.83 149.41 299.23 150.7C300.39 151.32 301.13 152.36 301.45 153.8C302.2 157.22 300.2 159.13 298.09 159.77C297.47 159.96 296.79 160.06 296.11 160.06L296.09 160.04Z" fill="#282828"/>
<path d="M269.52 154.49C270.56 157.01 272.81 158.45 274.55 157.74C276.3 157.02 276.86 154.41 275.83 151.89C275.52 151.14 275.08 150.47 274.59 149.94L272.26 152.79L272.16 148.52C271.69 148.44 271.25 148.48 270.81 148.66C269.08 149.37 268.5 151.99 269.53 154.49H269.52Z" fill="#282828"/>
<path d="M296.44 139.88C297.27 142.48 299.39 144.1 301.18 143.53C302.99 142.96 303.76 140.41 302.94 137.81C302.69 137.04 302.31 136.33 301.86 135.76L299.3 138.41L299.55 134.15C299.09 134.03 298.64 134.04 298.2 134.18C296.41 134.75 295.62 137.3 296.44 139.88Z" fill="#282828"/>
<path d="M278.71 177.14C277.94 177.14 277.2 177.05 276.52 176.89C273.32 176.11 271.27 173.72 270.89 170.34C270.87 170.2 270.92 170.06 271.01 169.95C271.1 169.84 271.24 169.78 271.38 169.78L289.52 169.67C289.7 169.67 289.87 169.77 289.96 169.93C290.05 170.09 290.04 170.29 289.94 170.44C286.76 175.2 282.35 177.14 278.71 177.14ZM271.96 170.77C272.44 173.42 274.16 175.28 276.75 175.91C280.02 176.71 285 175.37 288.55 170.67L271.96 170.77Z" fill="#282828"/>
<path d="M406.25 167.27C408.57 168.62 410.69 168.43 410.69 168.43C415.74 167.01 420.03 160.39 421.69 151.35C423.2 143.13 421.52 134.63 417.66 129.73L417.62 129.68C417.19 129.11 416.73 128.61 416.25 128.16C416.12 128.05 416 127.94 415.86 127.83C415.85 127.81 415.83 127.81 415.83 127.81C414.74 127.11 413.35 126.71 411.85 126.85C411.91 126.9 411.96 126.95 412.03 126.99C412.52 127.44 412.97 127.94 413.4 128.51L413.44 128.56C417.3 133.47 418.98 141.96 417.47 150.18C415.81 159.22 411.52 165.85 406.47 167.26C406.47 167.26 406.39 167.26 406.25 167.26V167.27Z" fill="white"/>
<path d="M410.371 168.93C409.581 168.93 407.851 168.78 405.991 167.7C405.791 167.59 405.701 167.35 405.761 167.13C405.821 166.91 406.021 166.77 406.251 166.76C406.311 166.76 406.351 166.76 406.391 166.76C411.221 165.36 415.371 158.83 416.981 150.09C418.451 142.09 416.911 133.76 413.051 128.87C412.621 128.3 412.191 127.82 411.691 127.36L411.621 127.31C411.461 127.18 411.351 126.94 411.411 126.74C411.471 126.54 411.601 126.37 411.811 126.35C413.321 126.21 414.851 126.58 416.101 127.39C416.101 127.39 416.151 127.42 416.171 127.44C416.311 127.56 416.441 127.67 416.571 127.78C417.121 128.3 417.591 128.82 418.021 129.38C422.071 134.53 423.691 143.18 422.171 151.44C420.471 160.73 416.121 167.42 410.811 168.91C410.771 168.91 410.611 168.93 410.371 168.93ZM407.631 167.39C409.291 168.04 410.621 167.94 410.631 167.94C415.391 166.59 419.571 160.04 421.181 151.27C422.651 143.28 421.111 134.94 417.251 130.05C416.821 129.48 416.391 129 415.891 128.54C415.781 128.45 415.671 128.35 415.551 128.25C414.811 127.78 413.971 127.48 413.091 127.38C413.341 127.65 413.571 127.94 413.801 128.23C417.851 133.38 419.471 142.03 417.951 150.29C416.361 158.97 412.461 165.38 407.631 167.4V167.39Z" fill="#282828"/>
<path d="M400.6 146.56C399.06 160.17 402.88 165.34 406.25 167.26C406.39 167.26 406.47 167.26 406.47 167.26C411.52 165.84 415.81 159.22 417.47 150.18C418.98 141.96 417.31 133.46 413.44 128.56L413.4 128.51C412.97 127.94 412.51 127.44 412.03 126.99C411.97 126.94 411.92 126.89 411.85 126.85C407.5 127.24 402.23 132.08 400.59 146.57L400.6 146.56Z" fill="white"/>
<path d="M406.31 167.77C406.31 167.77 406.26 167.77 406.24 167.77C406.16 167.77 406.07 167.75 406 167.7C402.45 165.67 398.54 160.34 400.1 146.51C402.07 129.09 408.94 126.61 411.81 126.35C411.93 126.34 412.06 126.37 412.16 126.45L412.27 126.54C412.27 126.54 412.36 126.62 412.38 126.63C412.92 127.13 413.39 127.65 413.81 128.22C417.86 133.37 419.48 142.02 417.96 150.28C416.26 159.57 411.91 166.26 406.6 167.75C406.57 167.75 406.53 167.77 406.49 167.77C406.49 167.77 406.42 167.77 406.31 167.77ZM401.09 146.62C399.6 159.76 403.11 164.83 406.38 166.77C411.21 165.37 415.36 158.84 416.97 150.1C418.44 142.1 416.9 133.77 413.04 128.88C412.61 128.31 412.18 127.84 411.69 127.38C403.77 128.32 401.57 142.33 401.09 146.63V146.62Z" fill="#282828"/>
<path d="M386.73 142.65C385.25 155.77 388.71 161.48 388.71 161.48C390.09 164.87 394.4 167.13 394.4 167.13C394.4 167.13 402.35 168.47 408.37 168.71C409.15 168.74 409.92 168.65 410.68 168.43C410.68 168.43 397.99 169.56 400.6 146.56C402.8 127.1 411.55 125.04 415.83 127.8C414.81 127.02 413.6 126.55 412.32 126.41L396.95 124.67C395.06 124.46 392.94 126.19 392.94 126.19C392.94 126.19 388.22 129.52 386.73 142.64V142.65Z" fill="#0C41E2"/>
<path d="M408.68 169.22C408.57 169.22 408.46 169.22 408.35 169.22C402.37 168.98 394.4 167.65 394.32 167.63C394.27 167.63 394.22 167.6 394.17 167.58C393.99 167.48 389.68 165.19 388.25 161.67C388.14 161.5 384.75 155.74 386.23 142.6C387.72 129.41 392.45 125.94 392.65 125.8C392.71 125.75 394.93 123.96 397 124.19L412.37 125.93C413.76 126.09 415.06 126.6 416.13 127.42C416.34 127.58 416.39 127.89 416.24 128.1C416.09 128.32 415.79 128.38 415.56 128.23C413.85 127.13 411.65 127.03 409.67 127.97C407.12 129.18 402.61 133.21 401.09 146.63C400.08 155.52 401.3 162 404.61 165.39C407.35 168.2 410.6 167.95 410.63 167.94C410.89 167.92 411.12 168.09 411.17 168.35C411.22 168.6 411.06 168.85 410.82 168.92C410.12 169.12 409.4 169.22 408.68 169.22ZM394.57 166.65C395.35 166.78 401.48 167.77 406.78 168.12C405.85 167.69 404.85 167.05 403.9 166.08C400.32 162.42 399.05 155.83 400.1 146.51C401.67 132.62 406.5 128.36 409.24 127.06C409.55 126.91 409.87 126.78 410.2 126.68L396.89 125.17C395.51 125.01 393.8 126.13 393.25 126.58C393.18 126.63 388.66 130.03 387.22 142.7C385.78 155.45 389.1 161.16 389.13 161.21C390.37 164.22 394.02 166.34 394.56 166.64L394.57 166.65Z" fill="#282828"/>
<path d="M342.32 149.59C342.86 152.15 344.64 154.2 346.08 155.48C347.2 156.48 348.6 157.08 350.09 157.24L388.71 161.47C388.71 161.47 385.24 155.76 386.73 142.64C388.22 129.52 392.94 126.19 392.94 126.19L353.37 121.71C347.88 121.09 345.56 124.99 345.56 124.99C345.56 124.99 338.03 137.18 342.32 149.57V149.59Z" fill="white"/>
<path d="M388.711 161.98C388.711 161.98 388.671 161.98 388.661 161.98L350.041 157.75C348.411 157.57 346.931 156.91 345.751 155.86C344.281 154.56 342.421 152.44 341.841 149.73C337.541 137.26 345.061 124.87 345.131 124.75C345.231 124.59 347.671 120.58 353.421 121.23L392.991 125.71C393.201 125.73 393.371 125.88 393.421 126.08C393.471 126.28 393.391 126.49 393.221 126.61C393.181 126.64 388.651 130.04 387.221 142.71C385.781 155.46 389.101 161.17 389.131 161.22C389.231 161.38 389.231 161.59 389.131 161.75C389.041 161.89 388.881 161.98 388.711 161.98ZM352.201 122.15C347.911 122.15 346.071 125.12 345.991 125.26C345.911 125.39 338.631 137.4 342.801 149.42C342.801 149.44 342.811 149.46 342.821 149.48C343.341 151.94 345.071 153.89 346.431 155.1C347.451 156.01 348.741 156.58 350.161 156.74L387.871 160.87C386.971 158.82 385.061 153.04 386.251 142.58C387.381 132.59 390.361 128.18 391.831 126.56L353.331 122.2C352.941 122.16 352.571 122.14 352.221 122.14L352.201 122.15Z" fill="#282828"/>
<path d="M321.651 143.41L321.681 143.51C322.521 146.3 325.111 148.2 328.011 148.44L342.331 149.59C338.031 137.19 345.571 125.01 345.571 125.01L331.361 123.4C327.971 123.02 326.311 125.82 326.311 125.82C319.611 133.71 321.661 143.41 321.661 143.41H321.651Z" fill="#0C41E2"/>
<path d="M342.32 150.09C342.32 150.09 342.29 150.09 342.28 150.09L327.96 148.94C324.79 148.69 322.07 146.57 321.19 143.66L321.16 143.56C321.16 143.56 321.16 143.53 321.15 143.52C321.06 143.11 319.13 133.49 325.91 125.5C325.93 125.44 327.72 122.49 331.4 122.9L345.61 124.51C345.78 124.53 345.93 124.63 346 124.79C346.07 124.94 346.07 125.13 345.98 125.27C345.91 125.39 338.62 137.41 342.79 149.43C342.85 149.59 342.82 149.77 342.71 149.9C342.61 150.02 342.47 150.09 342.31 150.09H342.32ZM322.13 143.29L322.15 143.37C322.91 145.88 325.28 147.72 328.04 147.94L341.61 149.03C338.33 138.46 343.29 128.11 344.75 125.42L331.29 123.9C328.28 123.56 326.79 125.98 326.73 126.08C320.36 133.59 322.04 142.82 322.13 143.3V143.29Z" fill="#282828"/>
<path d="M314.05 142.86L321.65 143.42C321.65 143.42 319.6 133.72 326.3 125.83L318.59 124.96C318.59 124.96 315.08 123.33 312.71 127.54C310.36 131.75 307.71 145.8 314.05 142.87V142.86Z" fill="white"/>
<path d="M321.65 143.91C321.65 143.91 321.63 143.91 321.61 143.91L314.14 143.36C312.35 144.14 311.3 143.6 310.74 142.99C308.17 140.22 310.51 130.42 312.27 127.28C314.62 123.1 318.12 124.23 318.71 124.46L326.35 125.32C326.53 125.34 326.69 125.46 326.76 125.63C326.83 125.8 326.8 126 326.68 126.14C320.22 133.75 322.11 143.21 322.13 143.31C322.16 143.46 322.13 143.62 322.02 143.74C321.92 143.85 321.79 143.91 321.64 143.91H321.65ZM314.05 142.36C314.05 142.36 314.07 142.36 314.09 142.36L321.05 142.87C320.72 140.61 320.11 132.96 325.34 126.22L318.54 125.45C318.49 125.45 318.43 125.43 318.39 125.41C318.26 125.35 315.26 124.05 313.16 127.78C311.38 130.96 309.41 140.07 311.49 142.32C311.68 142.52 312.25 143.15 313.85 142.41C313.92 142.38 313.99 142.36 314.06 142.36H314.05Z" fill="#282828"/>
<path d="M309.15 145.84C313.17 146.74 314.05 142.86 314.05 142.86C307.7 145.79 310.35 131.73 312.71 127.53C315.08 123.33 318.59 124.95 318.59 124.95C317.8 122.8 314.9 122.32 312.7 122.23C310.5 122.12 307.91 124.19 305.93 130.01C303.95 135.83 305.12 144.95 309.15 145.84Z" fill="white"/>
<path d="M310.311 146.47C309.921 146.47 309.501 146.42 309.031 146.32C307.871 146.06 306.891 145.23 306.111 143.85C304.211 140.47 303.921 134.32 305.451 129.84C307.921 122.59 311.071 121.64 312.721 121.73C316.231 121.88 318.361 122.91 319.051 124.78C319.121 124.97 319.071 125.18 318.921 125.32C318.771 125.46 318.551 125.49 318.371 125.41C318.241 125.35 315.241 124.05 313.141 127.78C311.361 130.96 309.391 140.07 311.471 142.32C311.661 142.52 312.231 143.15 313.831 142.41C314.001 142.33 314.211 142.36 314.351 142.48C314.501 142.6 314.561 142.79 314.521 142.98C314.521 143.02 313.681 146.48 310.301 146.48L310.311 146.47ZM312.531 122.72C310.241 122.72 308.021 125.42 306.401 130.16C304.981 134.33 305.241 140.25 306.991 143.36C307.621 144.48 308.381 145.15 309.261 145.34C311.561 145.85 312.691 144.61 313.201 143.67C311.971 143.93 311.201 143.48 310.751 142.99C308.181 140.22 310.521 130.42 312.281 127.28C313.921 124.36 316.131 124.03 317.511 124.18C316.631 123.32 315.021 122.83 312.691 122.73C312.641 122.73 312.591 122.73 312.541 122.73L312.531 122.72Z" fill="#282828"/>
<path d="M415.86 127.82C416.61 128.3 417.22 128.95 417.62 129.68L415.86 127.82Z" fill="white"/>
<path d="M417.62 130.18C417.44 130.18 417.27 130.09 417.18 129.92C416.82 129.27 416.25 128.68 415.58 128.24C415.35 128.09 415.28 127.78 415.43 127.55C415.58 127.32 415.89 127.25 416.12 127.4C416.94 127.93 417.6 128.63 418.05 129.43C418.18 129.67 418.1 129.98 417.86 130.11C417.78 130.15 417.7 130.17 417.62 130.17V130.18Z" fill="#282828"/>
<path d="M408.6 139.77C408.53 140.01 407.84 146.48 407.84 146.48L404.18 143.63C404.18 143.63 401.18 153.78 406.91 154.68C412.64 155.58 414.43 139.67 408.6 139.77Z" fill="#282828"/>
<path d="M383.88 180.31C386.2 181.66 388.32 181.47 388.32 181.47C393.37 180.05 397.66 173.43 399.32 164.39C400.83 156.17 399.15 147.67 395.29 142.77L395.25 142.72C394.82 142.15 394.36 141.65 393.88 141.2C393.75 141.09 393.63 140.98 393.49 140.87C393.48 140.85 393.46 140.85 393.46 140.85C392.37 140.15 390.98 139.75 389.48 139.89C389.54 139.94 389.59 139.99 389.66 140.03C390.15 140.48 390.6 140.98 391.03 141.55L391.07 141.6C394.93 146.51 396.61 155 395.1 163.22C393.44 172.26 389.15 178.89 384.1 180.3C384.1 180.3 384.02 180.3 383.88 180.3V180.31Z" fill="white"/>
<path d="M388.01 181.97C387.22 181.97 385.49 181.82 383.63 180.74C383.43 180.63 383.34 180.39 383.4 180.17C383.46 179.95 383.66 179.8 383.89 179.8C383.95 179.8 383.99 179.8 384.03 179.8C388.86 178.4 393.01 171.87 394.62 163.13C396.09 155.13 394.55 146.8 390.69 141.91C390.26 141.34 389.83 140.86 389.33 140.4L389.26 140.35C389.1 140.22 388.99 139.98 389.05 139.78C389.11 139.58 389.24 139.41 389.45 139.39C390.96 139.25 392.49 139.62 393.74 140.43C393.74 140.43 393.79 140.46 393.81 140.48C393.96 140.6 394.09 140.71 394.22 140.83C394.77 141.34 395.24 141.86 395.66 142.42C399.71 147.57 401.33 156.22 399.81 164.48C398.11 173.77 393.76 180.46 388.45 181.95C388.41 181.95 388.25 181.97 388.01 181.97ZM385.27 180.42C386.93 181.07 388.26 180.97 388.27 180.97C393.03 179.62 397.21 173.07 398.82 164.3C400.29 156.31 398.75 147.97 394.89 143.08C394.46 142.51 394.03 142.03 393.53 141.57C393.43 141.48 393.31 141.38 393.19 141.28C392.45 140.81 391.61 140.51 390.73 140.41C390.98 140.68 391.21 140.97 391.44 141.26C395.49 146.41 397.11 155.06 395.59 163.32C394 172 390.1 178.41 385.27 180.43V180.42Z" fill="#282828"/>
<path d="M378.23 159.6C376.69 173.21 380.51 178.38 383.88 180.3C384.02 180.3 384.1 180.3 384.1 180.3C389.15 178.88 393.44 172.26 395.1 163.22C396.61 155 394.94 146.5 391.07 141.6L391.03 141.55C390.6 140.98 390.14 140.48 389.66 140.03C389.6 139.98 389.55 139.93 389.48 139.89C385.13 140.28 379.86 145.12 378.22 159.61L378.23 159.6Z" fill="white"/>
<path d="M383.94 180.81C383.94 180.81 383.9 180.81 383.87 180.81C383.79 180.81 383.7 180.79 383.63 180.74C380.08 178.71 376.17 173.38 377.73 159.55C379.7 142.13 386.57 139.65 389.44 139.39C389.57 139.38 389.69 139.41 389.79 139.49L389.9 139.58C389.9 139.58 389.99 139.66 390.01 139.67C390.55 140.17 391.02 140.69 391.44 141.26C395.49 146.41 397.11 155.06 395.59 163.32C393.89 172.61 389.54 179.3 384.23 180.79C384.2 180.79 384.16 180.81 384.12 180.81C384.12 180.81 384.05 180.81 383.94 180.81ZM389.33 140.4C381.41 141.34 379.21 155.35 378.73 159.65C377.24 172.79 380.75 177.86 384.02 179.8C388.85 178.4 393 171.87 394.61 163.13C396.08 155.13 394.54 146.8 390.68 141.91C390.25 141.34 389.82 140.87 389.33 140.41V140.4Z" fill="#282828"/>
<path d="M364.37 155.69C362.89 168.81 366.35 174.52 366.35 174.52C367.73 177.91 372.04 180.17 372.04 180.17C372.04 180.17 379.99 181.51 386.01 181.75C386.79 181.78 387.56 181.69 388.32 181.47C388.32 181.47 375.63 182.6 378.24 159.6C380.44 140.14 389.19 138.08 393.47 140.84C392.45 140.06 391.24 139.59 389.96 139.45L374.59 137.71C372.7 137.5 370.58 139.23 370.58 139.23C370.58 139.23 365.86 142.56 364.37 155.68V155.69Z" fill="#0C41E2"/>
<path d="M386.32 182.25C386.21 182.25 386.1 182.25 385.99 182.25C380.01 182.01 372.04 180.68 371.96 180.66C371.91 180.66 371.86 180.63 371.81 180.61C371.63 180.51 367.32 178.22 365.89 174.7C365.78 174.53 362.39 168.77 363.87 155.63C365.36 142.44 370.09 138.97 370.29 138.83C370.35 138.78 372.56 136.99 374.64 137.22L390.01 138.96C391.4 139.12 392.7 139.63 393.77 140.45C393.98 140.61 394.03 140.92 393.88 141.13C393.73 141.35 393.43 141.41 393.2 141.26C391.49 140.16 389.29 140.06 387.31 141C384.76 142.21 380.25 146.24 378.73 159.66C377.72 168.55 378.94 175.03 382.25 178.42C384.99 181.23 388.24 180.98 388.27 180.97C388.53 180.95 388.76 181.12 388.81 181.38C388.86 181.63 388.7 181.88 388.46 181.95C387.76 182.15 387.04 182.25 386.32 182.25ZM372.21 179.69C372.99 179.82 379.12 180.81 384.42 181.16C383.49 180.73 382.49 180.09 381.54 179.12C377.96 175.46 376.69 168.87 377.74 159.55C379.31 145.66 384.14 141.4 386.88 140.1C387.19 139.95 387.52 139.82 387.84 139.72L374.53 138.21C372.87 138.02 370.91 139.6 370.89 139.62C370.82 139.67 366.3 143.07 364.86 155.74C363.42 168.5 366.74 174.2 366.77 174.25C368.01 177.26 371.66 179.38 372.2 179.68L372.21 179.69Z" fill="#282828"/>
<path d="M319.96 162.63C320.5 165.19 322.28 167.24 323.72 168.52C324.84 169.52 326.24 170.12 327.73 170.28L366.35 174.51C366.35 174.51 362.88 168.8 364.37 155.68C365.86 142.56 370.58 139.23 370.58 139.23L331.01 134.75C325.52 134.13 323.2 138.03 323.2 138.03C323.2 138.03 315.67 150.22 319.96 162.61V162.63Z" fill="white"/>
<path d="M366.35 175.01C366.35 175.01 366.31 175.01 366.3 175.01L327.68 170.78C326.05 170.6 324.57 169.94 323.39 168.89C321.92 167.59 320.06 165.47 319.48 162.76C315.18 150.29 322.7 137.9 322.77 137.78C322.87 137.62 325.31 133.61 331.06 134.26L370.63 138.74C370.84 138.76 371.01 138.91 371.06 139.11C371.11 139.31 371.03 139.52 370.86 139.64C370.82 139.67 366.29 143.07 364.86 155.74C363.42 168.5 366.74 174.2 366.77 174.25C366.87 174.41 366.87 174.62 366.77 174.78C366.68 174.92 366.52 175.01 366.35 175.01ZM329.83 135.19C325.54 135.19 323.7 138.16 323.62 138.3C323.54 138.43 316.26 150.44 320.43 162.46C320.43 162.48 320.44 162.5 320.45 162.52C320.97 164.98 322.7 166.93 324.06 168.14C325.08 169.05 326.37 169.62 327.79 169.78L365.5 173.91C364.6 171.86 362.69 166.08 363.88 155.62C365.01 145.63 367.99 141.22 369.46 139.6L330.96 135.24C330.57 135.2 330.2 135.18 329.85 135.18L329.83 135.19Z" fill="#282828"/>
<path d="M299.281 156.45L299.311 156.55C300.151 159.34 302.741 161.24 305.641 161.48L319.961 162.63C315.661 150.23 323.201 138.05 323.201 138.05L308.991 136.44C305.601 136.06 303.941 138.86 303.941 138.86C297.241 146.75 299.291 156.45 299.291 156.45H299.281Z" fill="#0C41E2"/>
<path d="M319.96 163.13C319.96 163.13 319.93 163.13 319.92 163.13L305.6 161.98C302.43 161.73 299.71 159.61 298.83 156.7L298.8 156.6C298.8 156.6 298.8 156.57 298.79 156.56C298.7 156.15 296.77 146.53 303.55 138.54C303.57 138.48 305.36 135.53 309.04 135.94L323.25 137.55C323.42 137.57 323.57 137.67 323.64 137.83C323.71 137.98 323.71 138.17 323.62 138.31C323.55 138.43 316.26 150.45 320.43 162.47C320.49 162.63 320.46 162.81 320.35 162.94C320.25 163.06 320.11 163.13 319.95 163.13H319.96ZM299.77 156.33L299.79 156.41C300.55 158.92 302.92 160.76 305.68 160.98L319.25 162.07C315.97 151.5 320.93 141.15 322.39 138.46L308.93 136.94C305.92 136.6 304.43 139.02 304.37 139.12C298 146.63 299.68 155.86 299.77 156.34V156.33Z" fill="#282828"/>
<path d="M291.69 155.9L299.29 156.46C299.29 156.46 297.24 146.76 303.94 138.87L296.23 138C296.23 138 292.72 136.37 290.35 140.58C288 144.79 285.35 158.84 291.69 155.91V155.9Z" fill="white"/>
<path d="M299.28 156.95C299.28 156.95 299.26 156.95 299.24 156.95L291.77 156.4C289.98 157.18 288.93 156.64 288.37 156.03C285.8 153.26 288.14 143.46 289.9 140.32C292.25 136.14 295.75 137.27 296.34 137.5L303.98 138.36C304.16 138.38 304.32 138.5 304.39 138.67C304.46 138.84 304.43 139.04 304.31 139.18C297.85 146.79 299.74 156.25 299.76 156.35C299.79 156.5 299.76 156.66 299.65 156.78C299.55 156.89 299.42 156.95 299.27 156.95H299.28ZM291.69 155.4C291.69 155.4 291.71 155.4 291.73 155.4L298.69 155.91C298.36 153.65 297.75 146 302.98 139.26L296.18 138.49C296.13 138.49 296.07 138.47 296.03 138.45C295.9 138.39 292.9 137.09 290.8 140.82C289.02 144 287.05 153.11 289.13 155.36C289.32 155.56 289.89 156.19 291.49 155.45C291.56 155.42 291.63 155.4 291.7 155.4H291.69Z" fill="#282828"/>
<path d="M286.78 158.87C290.8 159.77 291.68 155.89 291.68 155.89C285.33 158.82 287.98 144.76 290.34 140.56C292.71 136.36 296.22 137.98 296.22 137.98C295.43 135.83 292.53 135.35 290.33 135.26C288.13 135.15 285.54 137.22 283.56 143.04C281.58 148.86 282.75 157.98 286.78 158.87Z" fill="white"/>
<path d="M287.95 159.51C287.56 159.51 287.13 159.46 286.67 159.36C285.51 159.1 284.53 158.27 283.75 156.89C281.85 153.51 281.56 147.36 283.09 142.88C285.56 135.63 288.71 134.68 290.36 134.77C293.87 134.92 296 135.95 296.69 137.82C296.76 138.01 296.71 138.22 296.56 138.36C296.41 138.5 296.19 138.53 296.01 138.45C295.88 138.39 292.88 137.09 290.78 140.82C289 144 287.03 153.11 289.11 155.36C289.3 155.56 289.87 156.19 291.47 155.45C291.64 155.37 291.85 155.4 291.99 155.52C292.14 155.64 292.2 155.83 292.16 156.02C292.16 156.06 291.32 159.52 287.94 159.52L287.95 159.51ZM290.17 135.76C287.88 135.76 285.66 138.46 284.04 143.2C282.62 147.37 282.88 153.29 284.63 156.4C285.26 157.52 286.02 158.19 286.9 158.38C289.2 158.89 290.33 157.65 290.84 156.71C289.61 156.97 288.84 156.52 288.39 156.03C285.82 153.26 288.16 143.46 289.92 140.32C291.57 137.4 293.77 137.07 295.15 137.22C294.27 136.36 292.66 135.87 290.33 135.77C290.28 135.77 290.23 135.77 290.18 135.77L290.17 135.76Z" fill="#282828"/>
<path d="M393.49 140.86C394.24 141.34 394.85 141.99 395.25 142.72L393.49 140.86Z" fill="white"/>
<path d="M395.251 143.22C395.071 143.22 394.901 143.13 394.811 142.96C394.451 142.31 393.881 141.72 393.211 141.28C392.981 141.13 392.911 140.82 393.061 140.59C393.211 140.36 393.521 140.29 393.751 140.44C394.571 140.97 395.231 141.67 395.681 142.47C395.811 142.71 395.731 143.02 395.491 143.15C395.411 143.19 395.331 143.21 395.251 143.21V143.22Z" fill="#282828"/>
<path d="M386.24 152.81C386.17 153.05 385.48 159.52 385.48 159.52L381.82 156.67C381.82 156.67 378.82 166.82 384.55 167.72C390.28 168.62 392.07 152.71 386.24 152.81Z" fill="#282828"/>
<path d="M313.641 185.17C317.241 176.71 316.781 169.94 316.791 159.99C316.801 150.04 320.831 137.99 326.971 132.91C333.111 127.83 338.561 127.2 336.681 132.91C336.681 132.91 340.891 129.37 344.671 129.26C348.451 129.15 348.621 132.64 346.261 137.54C346.261 137.54 350.231 131.24 353.891 131.24C357.551 131.24 358.481 135.2 355.681 139.4C352.881 143.6 350.671 148.85 350.671 148.85C350.671 148.85 354.361 141.85 359.041 142.32C363.721 142.79 361.351 148.97 359.041 154.1C356.731 159.23 353.581 165.64 352.301 174.74C351.021 183.84 347.641 193.75 344.491 195.5C341.341 197.25 316.261 195.03 313.641 185.18V185.17Z" fill="white"/>
<path d="M340.25 196.52C335.28 196.52 327.45 195.44 321.49 192.91C316.76 190.9 313.96 188.34 313.15 185.31C313.12 185.2 313.13 185.09 313.17 184.99C316.34 177.53 316.32 171.49 316.29 163.12C316.29 162.11 316.29 161.08 316.29 160C316.31 149.21 320.76 137.4 326.65 132.53C330.88 129.03 334.78 127.56 336.59 128.8C337.18 129.2 337.74 130.02 337.5 131.67C339.05 130.58 341.93 128.85 344.66 128.76C346.12 128.71 347.18 129.16 347.78 130.09C348.51 131.21 348.42 132.82 347.99 134.44C349.54 132.67 351.74 130.74 353.9 130.74C355.46 130.74 356.68 131.41 357.33 132.62C358.29 134.41 357.82 137.12 356.11 139.69C355.09 141.23 354.14 142.92 353.35 144.43C354.88 142.91 356.87 141.61 359.11 141.83C360.36 141.95 361.26 142.47 361.77 143.35C363.1 145.64 361.47 149.97 359.52 154.31L358.98 155.51C356.76 160.4 354 166.48 352.82 174.81C351.57 183.69 348.21 194.02 344.75 195.93C344.07 196.31 342.44 196.51 340.27 196.51L340.25 196.52ZM314.17 185.21C314.95 187.86 317.55 190.14 321.89 191.99C330.51 195.66 342.45 196.06 344.25 195.06C347.01 193.53 350.47 184.19 351.81 174.67C353.01 166.2 355.8 160.04 358.05 155.09L358.59 153.89C360.35 149.99 361.99 145.75 360.89 143.84C360.54 143.24 359.93 142.91 359 142.81C354.71 142.38 351.15 149.01 351.12 149.08C350.99 149.32 350.7 149.41 350.46 149.3C350.22 149.19 350.11 148.9 350.21 148.65C350.23 148.6 352.48 143.31 355.27 139.12C356.78 136.86 357.23 134.55 356.44 133.08C355.97 132.2 355.09 131.73 353.89 131.73C350.55 131.73 346.72 137.73 346.68 137.79C346.54 138.01 346.25 138.09 346.01 137.96C345.78 137.83 345.69 137.54 345.8 137.31C347.28 134.24 347.69 131.8 346.93 130.63C346.53 130.01 345.77 129.72 344.68 129.75C341.12 129.86 337.03 133.25 336.99 133.29C336.82 133.43 336.57 133.45 336.39 133.32C336.2 133.19 336.13 132.96 336.2 132.75C336.5 131.83 336.88 130.2 336.02 129.61C334.85 128.81 331.47 129.82 327.28 133.29C321.6 137.99 317.31 149.47 317.29 159.99C317.29 161.06 317.29 162.1 317.29 163.1C317.32 171.53 317.34 177.63 314.16 185.2L314.17 185.21Z" fill="#282828"/>
<path d="M345.42 161.59C345.36 161.59 345.31 161.59 345.25 161.56C344.99 161.47 344.86 161.18 344.95 160.92C347.38 154.2 350.19 148.67 350.22 148.62C350.35 148.37 350.65 148.28 350.89 148.4C351.14 148.53 351.23 148.83 351.11 149.07C351.08 149.12 348.3 154.6 345.89 161.26C345.82 161.46 345.62 161.59 345.42 161.59Z" fill="#282828"/>
<path d="M338.421 157.63C338.421 157.63 338.341 157.63 338.301 157.62C338.031 157.55 337.871 157.28 337.931 157.02C337.961 156.91 340.691 145.89 345.821 137.29C345.961 137.05 346.271 136.98 346.511 137.12C346.751 137.26 346.821 137.57 346.681 137.81C341.621 146.27 338.931 157.15 338.901 157.26C338.841 157.49 338.641 157.64 338.411 157.64L338.421 157.63Z" fill="#282828"/>
<path d="M328.28 152.5C328.28 152.5 328.2 152.5 328.16 152.49C327.89 152.43 327.72 152.16 327.79 151.89C327.81 151.79 330.33 141.32 336.26 132.64C336.42 132.41 336.73 132.35 336.96 132.51C337.19 132.67 337.25 132.98 337.09 133.2C331.26 141.72 328.79 152.01 328.76 152.12C328.71 152.35 328.5 152.51 328.27 152.51L328.28 152.5Z" fill="#282828"/>
<path d="M269.02 304.15C254.28 304.15 236.59 294.29 213.95 273.85C213.74 273.66 213.73 273.35 213.91 273.14C214.09 272.94 214.41 272.92 214.62 273.1C245.76 301.21 267.34 309.13 284.6 298.77C304.47 286.85 345.42 210.86 345.83 210.09C345.96 209.85 346.26 209.76 346.51 209.89C346.75 210.02 346.84 210.32 346.71 210.57C346.61 210.76 336.26 230.01 323.57 250.48C306.51 278.02 293.57 294.56 285.12 299.63C280.13 302.62 274.81 304.14 269.03 304.14L269.02 304.15Z" fill="#282828"/>
<path d="M261.42 250.46C261.34 250.46 261.27 250.44 261.19 250.41L236.47 237.91C236.22 237.79 236.12 237.48 236.25 237.24C236.37 236.99 236.68 236.89 236.92 237.02L261.25 249.32L298.57 194.07C298.72 193.84 299.04 193.78 299.26 193.94C299.49 194.09 299.55 194.41 299.39 194.63L261.82 250.24C261.72 250.38 261.57 250.46 261.41 250.46H261.42Z" fill="#282828"/>
<path d="M359.271 287.88C359.011 287.88 358.791 287.68 358.771 287.42C358.751 287.17 356.661 261.93 347.581 238.75C347.481 238.49 347.611 238.2 347.861 238.1C348.111 238 348.411 238.13 348.511 238.38C357.651 261.7 359.751 287.08 359.771 287.34C359.791 287.62 359.591 287.86 359.311 287.88C359.301 287.88 359.281 287.88 359.271 287.88Z" fill="#282828"/>
<path d="M364 239.06C364 239.06 363.96 239.06 363.95 239.06C363.68 239.03 363.48 238.78 363.51 238.51L365.15 223.34C365.18 223.07 365.43 222.87 365.7 222.9C365.97 222.93 366.17 223.18 366.14 223.45L364.5 238.62C364.47 238.88 364.26 239.07 364 239.07V239.06Z" fill="#282828"/>
<path d="M124.27 392.5C121.19 374.08 120.74 355.22 122.95 336.67C123.89 328.73 126.48 319.43 134.08 316.94C139 315.33 144.56 317.39 148.3 320.97C152.04 324.55 154.28 329.39 156.09 334.24C160.12 345.04 162.48 356.45 163.06 367.96C161.42 353.29 161.09 338.47 162.07 323.74C162.42 318.5 163.36 312.53 167.78 309.68C172.12 306.89 178.2 308.55 181.87 312.17C185.54 315.79 187.31 320.88 188.7 325.85C192.55 339.55 194.47 353.79 194.37 368.02C194.79 354.86 196.58 341.74 199.71 328.95C201.23 322.74 203.9 315.71 210.01 313.82C215.7 312.06 221.91 315.98 224.77 321.2C227.63 326.42 227.96 332.62 228.22 338.58C229.04 357.25 229.86 375.93 230.68 394.6" fill="white"/>
<path d="M230.69 395.1C230.42 395.1 230.2 394.89 230.19 394.62L227.73 338.6C227.48 333.01 227.21 326.67 224.34 321.44C221.73 316.66 215.87 312.53 210.17 314.29C204.01 316.19 201.53 323.63 200.2 329.06C197.08 341.8 195.29 354.91 194.87 368.03C194.87 368.3 194.62 368.52 194.36 368.51C194.09 368.51 193.87 368.28 193.87 368.01C193.96 353.8 192.06 339.66 188.21 325.98C186.83 321.06 185.06 316.03 181.51 312.53C178.21 309.27 172.37 307.32 168.04 310.1C163.83 312.81 162.91 318.53 162.56 323.77C161.79 335.29 161.83 346.91 162.67 358.45C163.09 361.59 163.39 364.75 163.54 367.93C163.55 368.2 163.35 368.43 163.08 368.45C162.81 368.47 162.57 368.28 162.54 368.01C162.19 364.87 161.9 361.72 161.67 358.56C160.56 350.32 158.53 342.23 155.6 334.41C153.94 329.98 151.74 324.95 147.93 321.32C143.94 317.52 138.56 315.98 134.21 317.41C128.35 319.33 124.72 325.83 123.42 336.72C121.21 355.26 121.66 373.99 124.74 392.4C124.79 392.67 124.6 392.93 124.33 392.98C124.06 393.03 123.8 392.84 123.75 392.57C120.65 374.06 120.21 355.23 122.42 336.6C123.77 325.28 127.63 318.51 133.89 316.45C138.59 314.91 144.36 316.54 148.61 320.59C152.56 324.36 154.83 329.51 156.52 334.05C158.46 339.25 160.02 344.57 161.17 349.97C160.83 341.21 160.95 332.42 161.53 323.7C161.9 318.21 162.89 312.2 167.47 309.26C172.24 306.19 178.61 308.29 182.18 311.82C185.9 315.49 187.72 320.67 189.14 325.72C192.01 335.94 193.81 346.41 194.51 356.98C195.37 347.5 196.93 338.07 199.2 328.83C200.59 323.16 203.2 315.39 209.84 313.34C216.05 311.42 222.38 315.83 225.19 320.96C228.16 326.4 228.45 332.86 228.7 338.55L231.16 394.57C231.17 394.85 230.96 395.08 230.68 395.09C230.68 395.09 230.67 395.09 230.66 395.09L230.69 395.1Z" fill="#282828"/>
<path d="M340.01 392.5C336.93 374.08 336.48 355.22 338.69 336.67C339.63 328.73 342.22 319.43 349.82 316.94C354.74 315.33 360.3 317.39 364.04 320.97C367.78 324.55 370.02 329.39 371.83 334.24C375.86 345.04 378.22 356.45 378.8 367.96C377.16 353.29 376.83 338.47 377.81 323.74C378.16 318.5 379.1 312.53 383.52 309.68C387.86 306.89 393.94 308.55 397.61 312.17C401.28 315.79 403.05 320.88 404.44 325.85C408.29 339.55 410.21 353.79 410.11 368.02C410.53 354.86 412.32 341.74 415.45 328.95C416.97 322.74 419.64 315.71 425.75 313.82C431.44 312.06 437.65 315.98 440.51 321.2C443.37 326.42 443.7 332.62 443.96 338.58C444.78 357.25 445.6 375.93 446.42 394.6" fill="white"/>
<path d="M446.43 395.1C446.16 395.1 445.94 394.89 445.93 394.62L443.47 338.6C443.22 333.01 442.95 326.68 440.08 321.44C437.47 316.66 431.61 312.53 425.91 314.29C419.75 316.19 417.27 323.63 415.94 329.06C412.82 341.8 411.03 354.91 410.61 368.03C410.61 368.3 410.36 368.52 410.1 368.51C409.83 368.51 409.61 368.28 409.61 368.01C409.7 353.8 407.8 339.66 403.95 325.98C402.57 321.06 400.8 316.03 397.25 312.53C393.95 309.27 388.11 307.32 383.78 310.1C379.57 312.81 378.65 318.53 378.3 323.77C377.53 335.29 377.57 346.91 378.41 358.45C378.83 361.59 379.13 364.75 379.28 367.93C379.29 368.2 379.09 368.43 378.82 368.45C378.55 368.47 378.31 368.28 378.28 368.01C377.93 364.87 377.64 361.71 377.41 358.55C376.3 350.31 374.27 342.22 371.34 334.4C369.68 329.97 367.48 324.94 363.67 321.31C359.68 317.51 354.3 315.97 349.95 317.4C344.09 319.32 340.46 325.82 339.16 336.71C336.95 355.25 337.4 373.98 340.48 392.39C340.53 392.66 340.34 392.92 340.07 392.97C339.8 393.02 339.54 392.83 339.49 392.56C336.39 374.05 335.95 355.22 338.16 336.59C339.51 325.27 343.37 318.5 349.63 316.44C354.33 314.9 360.1 316.53 364.35 320.58C368.3 324.35 370.57 329.5 372.26 334.04C374.2 339.24 375.76 344.56 376.91 349.96C376.57 341.2 376.69 332.41 377.27 323.69C377.64 318.2 378.63 312.19 383.21 309.25C387.98 306.18 394.35 308.28 397.92 311.81C401.64 315.48 403.46 320.66 404.88 325.71C407.75 335.93 409.55 346.4 410.25 356.97C411.11 347.49 412.67 338.06 414.94 328.82C416.33 323.15 418.94 315.38 425.58 313.33C431.79 311.41 438.12 315.82 440.93 320.95C443.9 326.39 444.19 332.85 444.44 338.54L446.9 394.56C446.91 394.84 446.7 395.07 446.42 395.08C446.42 395.08 446.41 395.08 446.4 395.08L446.43 395.1Z" fill="#282828"/>
</svg>
