<svg width="515" height="504" viewBox="0 0 515 504" fill="none" xmlns="http://www.w3.org/2000/svg">
<path fill-rule="evenodd" clip-rule="evenodd" d="M246.885 0.107053C301.179 1.67929 354.865 23.0534 393.028 60.1601C428.142 94.3026 426.484 146.836 444.003 191.771C462.684 239.683 507.325 281.357 498.969 331.881C490.257 384.561 445.987 425.599 400.309 455.969C355.371 485.847 301.406 503.286 246.885 499.483C194.667 495.841 151.213 465.17 108.847 435.639C66.4693 406.1 16.1865 377.988 2.84052 329.374C-10.3148 281.454 25.6252 236.345 41.162 189.087C56.8774 141.285 56.4668 86.1622 94.1929 51.5065C134.139 14.8116 191.621 -1.49326 246.885 0.107053Z" fill="#EDF1FE"/>
<path d="M375.92 251.7C348.64 236.37 312.79 214.57 295.91 208.06C279.02 201.56 262.4 197.29 242.26 199.03C222.13 200.78 198.22 209.88 198.22 209.88L168.47 203.08C168.47 203.08 161.6 197.62 157.59 199.68C153.58 201.74 96.4698 258.85 78.5498 294.35C60.6198 329.85 75.0998 356.39 102.33 353.64C129.56 350.88 156.78 329.85 156.78 329.85V429.09L345.09 430.6L344.27 393.57L360.59 376.14C360.59 376.14 362.41 380.81 369.69 376.92C376.96 373.02 421.42 338.21 427.88 312.75C434.34 287.29 403.2 267.03 375.92 251.7ZM343.77 348.61C345.28 356.15 339.18 341.41 339.18 341.41C338.12 316.55 334.34 294.29 334.34 294.29L367.92 311.27C367.92 311.27 342.27 341.07 343.77 348.61Z" fill="#6A90FF"/>
<path d="M281.85 110.15C289.99 135.27 301.7 156.92 304.09 170.78C306.48 184.64 300.5 198.75 300.5 198.75L254.36 197.55L249.38 174.6L281.84 110.15H281.85Z" fill="#EDF1FE"/>
<path d="M300.5 199.25C300.5 199.25 300.5 199.25 300.49 199.25L254.35 198.05C254.12 198.05 253.92 197.88 253.87 197.66L248.89 174.71C248.87 174.6 248.89 174.48 248.93 174.38L281.39 109.93C281.48 109.75 281.67 109.64 281.87 109.66C282.07 109.68 282.24 109.81 282.31 110C285.97 121.31 290.4 132.01 294.31 141.44C299.11 153.03 303.25 163.03 304.57 170.7C306.96 184.55 301.01 198.81 300.95 198.95C300.87 199.14 300.69 199.25 300.49 199.25H300.5ZM254.77 197.06L300.17 198.24C301.02 196.09 305.74 183.29 303.6 170.87C302.3 163.32 298.17 153.36 293.4 141.83C289.62 132.7 285.35 122.39 281.75 111.47L249.91 174.68L254.77 197.07V197.06Z" fill="#282828"/>
<path d="M222.77 168.71C223.91 185 223.73 204.09 223.73 204.09C223.73 204.09 229.55 218.9 245.65 218.31C261.75 217.72 260.62 204.06 260.24 201.25C259.86 198.44 253.33 182.53 252.58 179.53C251.83 176.54 222.77 168.7 222.77 168.7V168.71Z" fill="#EDF1FE"/>
<path d="M244.74 218.83C229.17 218.83 223.33 204.42 223.27 204.27C223.25 204.21 223.23 204.15 223.24 204.08C223.24 203.89 223.4 184.82 222.28 168.73C222.27 168.57 222.34 168.41 222.46 168.31C222.58 168.21 222.75 168.17 222.91 168.21C222.98 168.23 230.27 170.2 237.55 172.51C252.53 177.26 252.91 178.76 253.07 179.4C253.38 180.65 254.78 184.33 256.25 188.23C258.35 193.77 260.52 199.51 260.74 201.17C261.06 203.53 261.39 209.48 257.69 213.87C255.1 216.94 251.06 218.6 245.67 218.8C245.36 218.81 245.04 218.82 244.74 218.82V218.83ZM224.24 204C224.74 205.17 230.48 217.84 244.75 217.84C245.04 217.84 245.34 217.84 245.64 217.82C250.73 217.63 254.53 216.1 256.93 213.25C260.37 209.17 260.05 203.55 259.75 201.33C259.54 199.78 257.3 193.84 255.32 188.61C253.77 184.51 252.43 180.98 252.1 179.67C251.68 178 237.26 173.17 223.32 169.38C224.35 184.73 224.25 202.49 224.24 204Z" fill="#282828"/>
<path d="M286.17 164.02C275.06 179.52 246.14 185.16 226.01 174.43L225.99 174.41C222.49 171.8 219.68 168.4 217.65 164.54C209.78 149.68 215.45 131.21 229.87 122.56L230.7 122.07C232.5 121.08 234.21 120.05 235.83 118.99L235.88 118.96C240.91 115.7 245.05 112.23 248.33 109.04C248.41 108.97 248.48 108.9 248.55 108.83C254.11 103.39 257.18 98.7904 258.04 97.3804L258.06 97.3604C258.16 97.2204 258.22 97.1104 258.26 97.0404C258.3 96.9704 258.32 96.9404 258.32 96.9404C262.62 107.19 281.33 110.06 281.85 110.14C287 121.61 297.15 148.71 286.18 164.01L286.17 164.02Z" fill="#EDF1FE"/>
<path d="M249.369 180.4C241.109 180.4 232.829 178.63 225.779 174.87C225.739 174.85 225.699 174.82 225.659 174.78C222.199 172.2 219.349 168.83 217.209 164.77C209.279 149.79 214.719 131.06 229.609 122.13L230.439 121.64C232.219 120.66 233.939 119.63 235.549 118.57C240.029 115.67 244.189 112.35 247.969 108.68C248.059 108.6 248.119 108.54 248.179 108.48C253.999 102.78 257.049 98.0203 257.609 97.1203C257.629 97.0903 257.659 97.0503 257.679 97.0303C257.719 96.9603 257.779 96.8603 257.819 96.8003C257.869 96.7103 257.899 96.6803 257.899 96.6803C257.999 96.5303 258.179 96.4403 258.359 96.4603C258.539 96.4803 258.699 96.5903 258.769 96.7603C262.959 106.75 281.719 109.63 281.909 109.66C282.079 109.68 282.219 109.79 282.289 109.95C287.299 121.11 297.739 148.73 286.569 164.32C279.189 174.61 264.309 180.41 249.359 180.41L249.369 180.4ZM258.249 97.9903C257.319 99.4503 254.259 103.94 248.889 109.19C248.809 109.27 248.729 109.35 248.649 109.42C244.839 113.12 240.629 116.48 236.149 119.38C234.469 120.48 232.729 121.52 230.939 122.51L230.129 122.99C215.699 131.64 210.419 149.79 218.099 164.31C220.169 168.24 222.919 171.5 226.299 174.01C245.649 184.33 274.579 179.34 285.779 163.73C296.559 148.68 286.489 121.75 281.509 110.6C279.119 110.21 262.999 107.27 258.259 97.9903H258.249Z" fill="#282828"/>
<path d="M244.419 130.26C239.969 127.99 235.449 128.24 231.759 131.73C231.239 132.2 230.789 132.74 230.259 133.22C229.849 133.62 229.179 133.05 229.509 132.58C231.799 128.51 236.409 126.05 241.029 127.43C242.489 127.85 243.829 128.48 245.009 129.44C245.219 129.61 245.259 129.93 245.079 130.14C244.919 130.34 244.639 130.38 244.419 130.25V130.26Z" fill="#282828"/>
<path d="M279.55 117.98C278.5 117.18 276.82 117.01 275.47 117.04C270.83 117.15 266.9 120.02 263.92 123.39C263.54 123.87 262.77 123.31 263.11 122.8C265.67 118.54 270.37 115.3 275.49 115.52C277.24 115.65 279.02 115.92 280.31 117.33C280.72 117.83 280 118.45 279.55 117.98Z" fill="#282828"/>
<path d="M269.47 147.53C266.81 147.53 263.85 145.85 263.25 142.81C263.2 142.54 263.37 142.28 263.64 142.22C263.91 142.17 264.17 142.34 264.23 142.61C264.78 145.36 267.68 146.77 270.05 146.49C272.18 146.24 273.4 144.76 273.32 142.52C273.28 141.42 272.9 140.59 272.15 139.99C270.08 138.34 265.97 139.11 265.93 139.11C265.67 139.16 265.42 139 265.35 138.75C265.33 138.68 263.53 131.9 263.01 123.11C262.99 122.83 263.2 122.6 263.48 122.58C263.75 122.56 263.99 122.77 264.01 123.05C264.45 130.46 265.81 136.43 266.21 138.05C267.44 137.88 270.78 137.61 272.78 139.2C273.76 139.98 274.28 141.08 274.32 142.47C274.44 145.79 272.25 147.23 270.16 147.47C269.93 147.5 269.7 147.51 269.46 147.51L269.47 147.53Z" fill="#282828"/>
<path d="M242.669 138.36C242.439 140.96 243.719 143.18 245.509 143.34C247.319 143.5 248.939 141.53 249.169 138.93C249.239 138.16 249.169 137.39 248.969 136.72L245.739 138.12L247.539 134.45C247.179 134.17 246.779 134.01 246.329 133.98C244.539 133.82 242.899 135.79 242.669 138.37V138.36Z" fill="#282828"/>
<path d="M273.81 129.79C273.33 132.36 274.39 134.69 276.16 135.02C277.94 135.35 279.75 133.55 280.23 130.98C280.37 130.22 280.37 129.45 280.25 128.76L276.9 129.84L279.04 126.36C278.7 126.05 278.33 125.85 277.88 125.77C276.12 125.44 274.29 127.24 273.81 129.79Z" fill="#282828"/>
<path d="M252.98 163.99C252.62 163.99 252.26 163.96 251.9 163.9C248.9 163.4 246.7 160.92 246.15 157.43C246.11 157.16 246.29 156.9 246.57 156.86C246.84 156.82 247.1 157 247.14 157.28C247.62 160.33 249.51 162.49 252.07 162.92C254.82 163.38 257.55 161.72 259.2 158.6C259.33 158.36 259.63 158.26 259.88 158.39C260.12 158.52 260.22 158.82 260.09 159.07C258.44 162.19 255.79 164 252.99 164L252.98 163.99Z" fill="#282828"/>
<path d="M235.87 119.46C235.7 119.46 235.54 119.38 235.45 119.22C235.31 118.99 235.37 118.68 235.6 118.54C240.03 115.67 244.19 112.35 247.97 108.68C248.17 108.49 248.48 108.49 248.67 108.68C248.86 108.88 248.86 109.19 248.67 109.38C244.63 113.45 240.4 116.81 236.12 119.37C236.04 119.42 235.95 119.44 235.86 119.44L235.87 119.46Z" fill="#282828"/>
<path d="M293.93 110.15C293.93 110.15 266.66 114 258.31 96.9503C258.31 96.9503 258.29 96.9804 258.25 97.0504C258.2 97.1203 258.13 97.2204 258.05 97.3703L258.03 97.3903C257.06 98.8203 253.69 103.63 248.54 108.84C248.47 108.91 248.4 108.98 248.32 109.05C245.04 112.23 240.9 115.71 235.87 118.97L235.82 119L230.69 122.08L229.86 122.57C215.44 131.22 209.77 149.69 217.64 164.55C219.67 168.41 222.48 171.81 225.98 174.42L226 174.44C239.96 184.88 242.25 199.05 242.25 199.05C242.25 199.05 215.57 195.71 192.11 204.89C168.64 214.07 179.55 124.59 198.91 96.9603C218.27 69.3403 240.38 70.5903 246.63 73.0903C246.63 73.0903 255.15 63.2404 269.84 76.2304C283.64 88.4303 293.92 110.16 293.92 110.16L293.93 110.15Z" fill="#EDF1FE"/>
<path d="M188.93 206.04C186.74 206.04 184.85 205.04 183.28 203.04C171.85 188.5 181.53 120.89 198.52 96.6602C217.59 69.4502 239.74 70.0402 246.52 72.4902C247.32 71.6902 250.05 69.3202 254.51 69.0302C259.44 68.7002 264.72 70.9902 270.2 75.8402C283.91 87.9702 294.29 109.71 294.4 109.93C294.47 110.07 294.46 110.24 294.39 110.38C294.32 110.52 294.18 110.62 294.02 110.64C293.95 110.64 287.04 111.6 279.2 110.43C269.12 108.93 261.91 104.62 258.28 97.9302C256.99 99.8202 253.71 104.34 248.92 109.18C248.84 109.26 248.76 109.34 248.67 109.42C244.86 113.12 240.65 116.48 236.17 119.38L230.15 122.99C215.72 131.64 210.44 149.79 218.12 164.31C220.19 168.24 222.94 171.5 226.32 174.01C240.3 184.47 242.76 198.81 242.78 198.96C242.81 199.12 242.76 199.27 242.65 199.39C242.54 199.51 242.39 199.56 242.23 199.54C241.96 199.51 215.41 196.32 192.34 205.35C191.15 205.82 190.02 206.05 188.96 206.05L188.93 206.04ZM239.03 72.3902C229.35 72.3902 213.52 76.9902 199.33 97.2402C191.72 108.1 184.82 129.55 181.33 153.21C177.83 176.97 178.87 195.83 184.06 202.42C186.11 205.03 188.68 205.68 191.94 204.4C213.16 196.1 237.28 198.02 241.63 198.46C240.98 195.58 237.65 183.75 225.71 174.82C225.69 174.81 225.65 174.77 225.63 174.75C222.19 172.2 219.34 168.82 217.2 164.76C209.27 149.78 214.71 131.05 229.6 122.12L235.55 118.55C240.01 115.66 244.17 112.34 247.96 108.67C248.05 108.59 248.11 108.53 248.17 108.47C253.1 103.49 256.41 98.8502 257.61 97.0902C257.61 97.0802 257.63 97.0702 257.64 97.0502C257.72 96.9102 257.79 96.8102 257.84 96.7402C257.86 96.6902 257.89 96.6602 257.89 96.6602C257.99 96.5102 258.16 96.4302 258.34 96.4402C258.52 96.4502 258.68 96.5602 258.75 96.7202C262.96 105.33 272.25 108.38 279.29 109.44C285.57 110.38 291.24 109.93 293.16 109.73C291.35 106.08 281.77 87.4302 269.51 76.5902C264.24 71.9302 259.22 69.7202 254.57 70.0202C249.73 70.3302 247.03 73.3702 247 73.4002C246.86 73.5602 246.63 73.6202 246.44 73.5402C244.87 72.9102 242.29 72.3802 239.01 72.3802L239.03 72.3902Z" fill="#282828"/>
<path d="M204.05 191.34C203.17 191.4 202.27 191.13 201.55 190.51C200.11 189.27 199.96 187.09 201.2 185.66L226.59 156.3C227.83 154.86 230.01 154.71 231.44 155.95C232.88 157.19 233.03 159.37 231.79 160.8L206.4 190.16C205.78 190.88 204.92 191.28 204.05 191.34Z" fill="#282828"/>
<path d="M203.79 191.84C202.84 191.84 201.94 191.5 201.22 190.88C200.42 190.19 199.94 189.23 199.87 188.18C199.8 187.13 200.13 186.11 200.82 185.32L226.21 155.96C226.9 155.16 227.86 154.68 228.91 154.61C229.96 154.53 230.98 154.87 231.77 155.56C232.57 156.25 233.05 157.21 233.12 158.26C233.2 159.31 232.86 160.33 232.17 161.12L206.78 190.48C206.09 191.28 205.13 191.76 204.08 191.83C203.98 191.83 203.89 191.84 203.79 191.84ZM229.2 155.61C229.13 155.61 229.06 155.61 228.98 155.61C228.2 155.67 227.48 156.03 226.97 156.62L201.58 185.98C201.07 186.57 200.81 187.33 200.87 188.12C200.93 188.9 201.29 189.62 201.88 190.13C202.47 190.64 203.24 190.9 204.02 190.84C204.8 190.78 205.52 190.42 206.03 189.83L231.42 160.47C231.93 159.88 232.19 159.12 232.13 158.33C232.07 157.55 231.71 156.83 231.12 156.32C230.58 155.85 229.91 155.6 229.2 155.6V155.61Z" fill="#282828"/>
<path d="M194.599 204.11C193.279 204.21 191.929 203.8 190.849 202.87C188.689 201 188.459 197.75 190.319 195.59L217.579 164.08C219.449 161.92 222.699 161.69 224.859 163.55C227.019 165.42 227.249 168.67 225.389 170.83L198.129 202.34C197.199 203.42 195.919 204.02 194.599 204.11Z" fill="#0C41E2"/>
<path d="M194.22 204.63C192.86 204.63 191.56 204.15 190.53 203.25C188.17 201.21 187.91 197.63 189.95 195.27L217.21 163.76C219.25 161.4 222.83 161.14 225.19 163.18C227.55 165.22 227.81 168.8 225.77 171.16L198.51 202.67C197.52 203.81 196.15 204.5 194.64 204.61C194.5 204.62 194.36 204.63 194.22 204.63ZM221.49 162.8C220.18 162.8 218.88 163.35 217.96 164.41L190.7 195.92C189.02 197.86 189.23 200.81 191.18 202.49C192.12 203.3 193.32 203.7 194.57 203.61C195.81 203.52 196.94 202.95 197.76 202.01L225.02 170.5C226.7 168.56 226.49 165.61 224.54 163.93C223.66 163.17 222.58 162.8 221.49 162.8Z" fill="#282828"/>
<path d="M253.11 170.11C234.21 171.48 217.73 157.22 216.36 138.32C214.99 119.42 229.25 102.94 248.15 101.57C267.05 100.2 283.53 114.46 284.9 133.36C286.27 152.26 272.01 168.74 253.11 170.11ZM248.65 108.43C233.54 109.52 222.13 122.71 223.23 137.82C224.33 152.93 237.51 164.34 252.62 163.24C267.73 162.14 279.14 148.96 278.04 133.85C276.94 118.74 263.76 107.33 248.65 108.43Z" fill="#EDF1FE"/>
<path d="M250.59 170.7C242.23 170.7 234.24 167.73 227.84 162.19C220.79 156.09 216.54 147.63 215.87 138.35C215.2 129.08 218.19 120.09 224.29 113.04C230.39 105.99 238.85 101.74 248.13 101.07C257.4 100.4 266.39 103.39 273.44 109.49C280.49 115.59 284.74 124.05 285.41 133.33C286.08 142.61 283.09 151.59 276.99 158.64C270.89 165.69 262.43 169.94 253.15 170.61C252.29 170.67 251.44 170.7 250.59 170.7ZM250.67 101.97C249.84 101.97 249.02 102 248.18 102.06C239.17 102.71 230.95 106.84 225.03 113.69C219.11 120.54 216.2 129.27 216.85 138.28C217.5 147.29 221.63 155.51 228.48 161.43C235.33 167.35 244.06 170.26 253.06 169.61C262.07 168.96 270.29 164.83 276.21 157.98C282.13 151.13 285.04 142.4 284.39 133.39C283.74 124.38 279.61 116.16 272.76 110.24C266.54 104.86 258.78 101.97 250.66 101.97H250.67ZM250.61 163.82C236.09 163.82 223.79 152.56 222.72 137.86C221.61 122.47 233.22 109.05 248.61 107.93C256.05 107.39 263.27 109.79 268.93 114.68C274.59 119.57 278 126.37 278.54 133.81C279.65 149.2 268.04 162.62 252.65 163.74C251.97 163.79 251.29 163.81 250.61 163.81V163.82ZM250.66 108.86C250 108.86 249.34 108.88 248.68 108.93C233.84 110 222.65 122.95 223.72 137.79C224.75 151.97 236.61 162.82 250.61 162.82C251.26 162.82 251.92 162.8 252.58 162.75C267.42 161.68 278.62 148.73 277.54 133.89C277.02 126.71 273.73 120.16 268.27 115.44C263.32 111.16 257.13 108.85 250.66 108.85V108.86Z" fill="#282828"/>
<path d="M223.87 197.65C221.83 197.65 220.2 197.28 218.99 196.84C218.5 202.31 215.62 206.59 211.24 205.94C211.02 205.9 210.8 205.87 210.6 205.84C210.16 209.7 208.15 211.28 205.44 211.14C205.44 211.14 204.86 211.12 204.09 210.94C203.93 211.66 203.63 212.3 203.2 212.85C200.76 215.91 197.57 216.22 195.24 215.26L183.25 231.45C183.25 231.45 161.05 221.72 160.71 205.94C176.92 186.74 188.88 174.1 198.61 170.01C208.33 165.91 219.77 167.79 225.07 176.16C230.36 184.52 228.82 197.66 223.87 197.66V197.65Z" fill="#EDF1FE"/>
<path d="M183.24 231.95C183.17 231.95 183.1 231.94 183.04 231.91C182.98 231.89 177.37 229.4 171.79 225.01C164.35 219.15 160.35 212.56 160.21 205.95C160.21 205.83 160.25 205.71 160.33 205.62C176.54 186.42 188.56 173.7 198.42 169.55C208.97 165.1 220.36 167.77 225.49 175.89C229.51 182.24 229.69 191.42 227.34 195.69C226.45 197.3 225.25 198.16 223.87 198.16C222.29 198.16 220.8 197.94 219.42 197.52C219 200.92 217.68 203.71 215.75 205.23C214.43 206.27 212.84 206.69 211.17 206.44L211.04 206.42C210.3 211.15 207.23 211.74 205.42 211.65C205.41 211.65 205.02 211.64 204.45 211.54C204.26 212.15 203.97 212.69 203.59 213.17C201.04 216.38 197.77 216.68 195.42 215.87L183.65 231.76C183.55 231.89 183.4 231.96 183.25 231.96L183.24 231.95ZM161.21 206.11C161.67 220.19 180.24 229.48 183.08 230.82L194.83 214.95C194.97 214.77 195.21 214.7 195.42 214.79C197.45 215.63 200.45 215.48 202.79 212.53C203.17 212.05 203.44 211.48 203.58 210.83C203.61 210.7 203.69 210.59 203.8 210.52C203.91 210.45 204.05 210.43 204.18 210.46C204.89 210.62 205.43 210.64 205.44 210.64C208.1 210.77 209.71 209.09 210.09 205.78C210.11 205.64 210.18 205.52 210.29 205.43C210.4 205.35 210.54 205.32 210.68 205.34C210.79 205.36 210.91 205.38 211.03 205.4L211.3 205.44C212.71 205.65 213.99 205.31 215.11 204.43C216.94 202.99 218.17 200.2 218.47 196.79C218.48 196.64 218.57 196.5 218.7 196.41C218.83 196.33 218.99 196.31 219.14 196.36C220.58 196.88 222.16 197.14 223.85 197.14C225.11 197.14 225.95 196.08 226.44 195.19C228.65 191.17 228.45 182.47 224.62 176.41C219.74 168.7 208.87 166.2 198.78 170.46C189.13 174.51 177.24 187.1 161.19 206.1L161.21 206.11Z" fill="#282828"/>
<path d="M218.979 197.34C218.979 197.34 218.949 197.34 218.929 197.34C218.649 197.32 218.449 197.07 218.479 196.8C218.559 195.92 218.569 194.99 218.519 194.03C218.219 188.87 216.109 179.87 205.329 177.58C205.059 177.52 204.889 177.26 204.939 176.99C204.999 176.72 205.259 176.55 205.529 176.6C217.379 179.12 219.259 189.59 219.509 193.97C219.569 194.98 219.559 195.97 219.469 196.89C219.449 197.15 219.229 197.34 218.969 197.34H218.979Z" fill="#282828"/>
<path d="M210.6 206.33C210.6 206.33 210.56 206.33 210.54 206.33C210.27 206.3 210.07 206.05 210.1 205.78C210.27 204.3 210.2 202.52 209.89 200.47C208.71 192.72 203.06 184.31 195.66 183.65C195.38 183.63 195.18 183.38 195.21 183.11C195.23 182.84 195.47 182.63 195.75 182.66C203.65 183.36 209.64 192.19 210.88 200.32C211.2 202.46 211.28 204.33 211.1 205.9C211.07 206.16 210.85 206.34 210.6 206.34V206.33Z" fill="#282828"/>
<path d="M195.23 215.76C195.17 215.76 195.1 215.75 195.04 215.72C193.31 215 192.03 213.62 191.69 212.11C191.46 211.07 191.62 210.17 192.16 209.42C193.25 207.88 195.55 207.59 195.64 207.58C195.92 207.55 196.16 207.74 196.2 208.02C196.23 208.29 196.04 208.54 195.76 208.58C195.74 208.58 193.8 208.83 192.97 210.01C192.6 210.53 192.5 211.15 192.67 211.91C192.94 213.1 194 214.22 195.43 214.81C195.68 214.92 195.81 215.21 195.7 215.46C195.62 215.65 195.43 215.77 195.24 215.77L195.23 215.76Z" fill="#282828"/>
<path d="M204.08 211.44C204.08 211.44 204 211.44 203.97 211.43C203.7 211.37 203.53 211.1 203.6 210.83C204.37 207.58 202.47 202.28 199.09 198.23C196.79 195.47 194.28 193.95 192.21 194.05C191.93 194.06 191.7 193.85 191.68 193.58C191.67 193.3 191.88 193.07 192.15 193.05C194.58 192.93 197.3 194.54 199.85 197.58C202.91 201.24 205.51 207.04 204.56 211.05C204.51 211.28 204.3 211.44 204.07 211.44H204.08Z" fill="#282828"/>
<path d="M349.61 344.63C341.04 343.29 339.17 341.42 339.17 341.42V355.88C339.17 355.88 322.31 364.45 310.26 376.76C298.21 389.07 300.09 396.84 303.84 396.57C307.59 396.3 317.22 381.85 326.59 377.83C326.59 377.83 309.46 396.57 310.8 407.01C312.14 417.45 318.83 407.28 321.24 401.66C323.65 396.04 332.75 387.2 332.75 387.2C332.75 387.2 322.42 404.33 325.31 415.04C328.2 425.75 332.22 415.58 333.82 407.54C335.42 399.5 338.1 395.49 338.1 395.49C338.1 395.49 334.62 417.86 339.97 419.66C345.32 421.46 345.06 398.71 352.82 390.41C357.62 385.28 360.99 379.22 362.86 375.35C364.07 372.84 364.34 369.98 363.62 367.28C361.78 360.38 357.29 347 349.61 344.64V344.63Z" fill="#EDF1FE"/>
<path d="M340.56 420.25C340.32 420.25 340.07 420.21 339.82 420.12C335.25 418.58 336.43 404.59 337.22 398.27C336.33 400.24 335.17 403.37 334.32 407.63C334.07 408.9 331.74 420.04 328.27 420.15C326.87 420.2 325.75 418.56 324.83 415.16C322.65 407.09 327.69 395.7 330.54 390.17C327.68 393.2 323.25 398.23 321.7 401.84C320.51 404.62 316.36 412.45 313.05 411.99C311.6 411.79 310.71 410.17 310.31 407.06C309.2 398.42 320.12 384.61 324.49 379.47C320.12 382.08 315.75 386.59 312.14 390.32C308.42 394.15 305.74 396.93 303.88 397.06C302.61 397.15 301.55 396.49 300.97 395.24C299.56 392.2 301.06 385.45 309.91 376.4C321.04 365.02 336.44 356.74 338.68 355.57V341.42C338.68 341.22 338.8 341.04 338.99 340.96C339.18 340.88 339.39 340.93 339.53 341.07C339.54 341.08 341.51 342.86 349.69 344.14C349.71 344.14 349.74 344.14 349.76 344.16C357.56 346.56 362.1 359.6 364.11 367.15C364.86 369.97 364.58 372.96 363.32 375.57C361.33 379.68 357.96 385.66 353.19 390.75C349.4 394.8 347.51 402.62 345.99 408.91C344.64 414.49 343.58 418.89 341.58 419.99C341.25 420.17 340.91 420.26 340.56 420.26V420.25ZM338.1 394.99C338.16 394.99 338.22 395 338.28 395.02C338.5 395.11 338.63 395.33 338.59 395.56C337.64 401.66 336.07 417.81 340.13 419.17C340.48 419.29 340.79 419.27 341.09 419.1C342.7 418.21 343.82 413.57 345.01 408.66C346.56 402.26 348.49 394.29 352.45 390.05C357.13 385.04 360.45 379.16 362.41 375.11C363.57 372.71 363.83 369.97 363.14 367.39C361.57 361.48 357.09 347.48 349.5 345.1C343.71 344.19 340.91 343.02 339.67 342.33V355.85C339.67 356.04 339.56 356.21 339.4 356.3C339.23 356.39 322.47 364.97 310.62 377.08C301.54 386.36 300.85 392.58 301.87 394.8C302.27 395.66 302.96 396.11 303.8 396.04C305.27 395.93 308.25 392.86 311.41 389.6C315.72 385.15 321.09 379.61 326.39 377.34C326.61 377.25 326.86 377.32 326.99 377.51C327.13 377.7 327.11 377.96 326.95 378.14C326.78 378.33 309.99 396.83 311.28 406.92C311.6 409.42 312.27 410.86 313.17 410.99C315.11 411.26 318.73 406.17 320.76 401.43C323.18 395.78 332.01 387.18 332.38 386.81C332.56 386.63 332.84 386.62 333.04 386.78C333.24 386.94 333.29 387.21 333.16 387.43C333.06 387.6 322.97 404.5 325.77 414.88C326.82 418.76 327.83 419.15 328.21 419.13C329.77 419.08 332.01 413.93 333.31 407.41C334.92 399.38 337.56 395.35 337.67 395.18C337.76 395.04 337.92 394.96 338.09 394.96L338.1 394.99Z" fill="#282828"/>
<path d="M334.34 294.79C334.1 294.79 333.88 294.61 333.85 294.36C332.4 284.55 325.02 255.44 311.5 228.06C311.38 227.81 311.48 227.51 311.73 227.39C311.98 227.27 312.28 227.37 312.4 227.62C325.98 255.1 333.39 284.35 334.84 294.22C334.88 294.49 334.69 294.75 334.42 294.79C334.4 294.79 334.37 294.79 334.35 294.79H334.34Z" fill="#282828"/>
<path d="M197.54 236.19C192.34 236.19 185.1 233.02 183 231.89C182.76 231.76 182.67 231.46 182.8 231.21C182.93 230.97 183.23 230.88 183.48 231.01C188.12 233.5 198.46 237.07 201.33 234.01C203.12 232.1 201.9 227.61 197.8 221.02C197.65 220.79 197.73 220.48 197.96 220.33C198.19 220.18 198.5 220.26 198.65 220.49C203.14 227.71 204.26 232.35 202.06 234.69C201.05 235.77 199.43 236.18 197.55 236.18L197.54 236.19Z" fill="#282828"/>
<path d="M156.78 330.35C156.62 330.35 156.47 330.28 156.37 330.14C156.21 329.91 156.27 329.6 156.49 329.44C176.44 315.55 186.51 300.16 186.61 300.01C186.76 299.78 187.07 299.71 187.3 299.86C187.53 300.01 187.6 300.32 187.45 300.55C187.35 300.71 177.18 316.25 157.07 330.26C156.98 330.32 156.88 330.35 156.78 330.35Z" fill="#282828"/>
<path d="M112.34 335.55C112.15 335.55 111.96 335.44 111.88 335.24C111.77 334.99 111.89 334.69 112.15 334.58C129.17 327.37 160.46 293.07 179.15 272.58C181.26 270.26 183.24 268.09 185.05 266.12C203.04 246.55 202.15 232.96 202.13 232.83C202.11 232.55 202.31 232.31 202.59 232.29C202.86 232.27 203.11 232.47 203.13 232.75C203.18 233.32 204.07 246.91 185.79 266.8C183.98 268.77 182 270.94 179.89 273.25C159.93 295.13 129.76 328.19 112.54 335.49C112.48 335.52 112.41 335.53 112.35 335.53L112.34 335.55Z" fill="#282828"/>
</svg>
