<svg width="500" height="500" viewBox="0 0 500 500" fill="none" xmlns="http://www.w3.org/2000/svg">
<path fill-rule="evenodd" clip-rule="evenodd" d="M264.157 3.50671C317.107 6.63027 372.437 8.28413 415.119 41.0579C457.645 73.7121 480.736 126.403 493.672 179.743C505.952 230.374 498.754 281.91 485.764 332.349C472.077 385.493 461.936 447.399 417.195 476.684C372.924 505.661 316.416 475.445 264.157 477.399C208.98 479.461 149.654 519.041 102.921 488.431C56.181 457.816 59.894 386.932 42.6528 332.314C25.3348 277.453 -8.54519 225.394 1.99129 168.698C13.1159 108.837 50.13 54.0519 100.232 22.4825C148.447 -7.89782 207.89 0.18746 264.157 3.50671Z" fill="#EDF1FE"/>
<path d="M399.8 319.5C399.5 319.5 399.3 319.3 399.3 319V275.2H366.1C365.8 275.2 365.6 275 365.6 274.7C365.6 274.4 365.8 274.2 366.1 274.2H399.8C400.1 274.2 400.3 274.4 400.3 274.7V319C400.3 319.3 400.1 319.5 399.8 319.5Z" fill="#0C41E2"/>
<path d="M437.5 296.2H399.9C399.6 296.2 399.4 296 399.4 295.7C399.4 295.4 399.6 295.2 399.9 295.2H437V257.1C437 256.8 437.2 256.6 437.5 256.6C437.8 256.6 438 256.8 438 257.1V295.7C438 296 437.8 296.2 437.5 296.2Z" fill="#0C41E2"/>
<path d="M460.4 257H410.9C410.6 257 410.4 256.8 410.4 256.5C410.4 256.2 410.6 256 410.9 256H460.4C460.7 256 460.9 256.2 460.9 256.5C460.9 256.8 460.6 257 460.4 257Z" fill="#0C41E2"/>
<path d="M437.4 259C438.781 259 439.9 257.881 439.9 256.5C439.9 255.119 438.781 254 437.4 254C436.02 254 434.9 255.119 434.9 256.5C434.9 257.881 436.02 259 437.4 259Z" fill="#6A90FF"/>
<path d="M437.5 259.5C435.9 259.5 434.6 258.2 434.6 256.5C434.6 254.8 435.9 253.6 437.6 253.6C439.2 253.6 440.5 254.9 440.5 256.5C440.4 258.1 439.1 259.5 437.5 259.5ZM437.5 254.6C436.4 254.6 435.5 255.4 435.5 256.6C435.5 257.7 436.3 258.6 437.5 258.6C438.6 258.6 439.5 257.8 439.5 256.6V256.5C439.4 255.5 438.5 254.6 437.5 254.6Z" fill="#0C41E2"/>
<path d="M437.4 298.2C438.781 298.2 439.9 297.08 439.9 295.7C439.9 294.319 438.781 293.2 437.4 293.2C436.02 293.2 434.9 294.319 434.9 295.7C434.9 297.08 436.02 298.2 437.4 298.2Z" fill="#6A90FF"/>
<path d="M437.5 298.6C435.9 298.6 434.6 297.3 434.6 295.6C434.6 293.9 435.9 292.7 437.6 292.7C439.2 292.7 440.5 294 440.5 295.6C440.4 297.3 439.1 298.6 437.5 298.6ZM437.5 293.7C436.4 293.7 435.6 294.6 435.6 295.7C435.6 296.8 436.5 297.6 437.6 297.6C438.7 297.6 439.5 296.7 439.5 295.7C439.4 294.6 438.5 293.8 437.5 293.7Z" fill="#0C41E2"/>
<path d="M399.8 298.2C401.181 298.2 402.3 297.08 402.3 295.7C402.3 294.319 401.181 293.2 399.8 293.2C398.419 293.2 397.3 294.319 397.3 295.7C397.3 297.08 398.419 298.2 399.8 298.2Z" fill="#6A90FF"/>
<path d="M399.8 298.6C398.2 298.6 396.9 297.3 396.9 295.6C396.9 293.9 398.2 292.7 399.9 292.7C401.5 292.7 402.8 294 402.8 295.6C402.8 297.2 401.4 298.6 399.8 298.6ZM399.8 293.7C398.7 293.7 397.9 294.6 397.9 295.7C397.9 296.8 398.8 297.6 399.9 297.6C401 297.6 401.8 296.7 401.8 295.7C401.7 294.6 400.9 293.8 399.8 293.7Z" fill="#0C41E2"/>
<path d="M399.8 277.2C401.181 277.2 402.3 276.08 402.3 274.7C402.3 273.319 401.181 272.2 399.8 272.2C398.419 272.2 397.3 273.319 397.3 274.7C397.3 276.08 398.419 277.2 399.8 277.2Z" fill="#6A90FF"/>
<path d="M399.8 277.7C398.1 277.7 396.8 276.4 396.8 274.7C396.8 273 398.1 271.7 399.8 271.7C401.5 271.7 402.8 273 402.8 274.7V274.8C402.7 276.3 401.4 277.6 399.8 277.7ZM399.8 272.8C398.7 272.8 397.8 273.6 397.8 274.7C397.8 275.8 398.6 276.7 399.7 276.7C400.8 276.7 401.7 275.9 401.7 274.8C401.8 273.7 400.9 272.8 399.8 272.8Z" fill="#0C41E2"/>
<path d="M204.6 258.4H91C90.7 258.4 90.5 258.2 90.5 257.9V221.4C90.5 221.1 90.7 220.9 91 220.9C91.3 220.9 91.5 221.1 91.5 221.4V257.4H204.6C204.9 257.4 205.1 257.6 205.1 257.9C205.1 258.1 204.9 258.3 204.6 258.4Z" fill="#0C41E2"/>
<path d="M180.5 258.4C180.2 258.4 180 258.2 180 257.9V213.8C180 213.5 180.2 213.3 180.5 213.3C180.8 213.3 181 213.5 181 213.8V257.9C181 258.1 180.7 258.4 180.5 258.4Z" fill="#0C41E2"/>
<path d="M102 288.6H63.7002C63.4002 288.6 63.2002 288.4 63.2002 288.1C63.2002 287.8 63.4002 287.6 63.7002 287.6H101.5V257.9C101.5 257.6 101.7 257.4 102 257.4C102.3 257.4 102.5 257.6 102.5 257.9V288.1C102.5 288.4 102.3 288.6 102 288.6Z" fill="#0C41E2"/>
<path d="M180.5 261.5C182.489 261.5 184.1 259.888 184.1 257.9C184.1 255.912 182.489 254.3 180.5 254.3C178.512 254.3 176.9 255.912 176.9 257.9C176.9 259.888 178.512 261.5 180.5 261.5Z" fill="#6A90FF"/>
<path d="M180.5 262C178.2 262 176.3 260.1 176.3 257.9C176.3 255.6 178.2 253.7 180.4 253.7C182.7 253.7 184.6 255.6 184.6 257.9C184.6 260.1 182.8 262 180.5 262ZM180.5 254.7C178.8 254.7 177.4 256.1 177.4 257.9C177.4 259.6 178.8 261 180.6 261C182.4 261 183.7 259.6 183.7 257.8C183.6 256.1 182.2 254.7 180.5 254.7Z" fill="#0C41E2"/>
<path d="M102 261.5C103.989 261.5 105.6 259.888 105.6 257.9C105.6 255.912 103.989 254.3 102 254.3C100.012 254.3 98.4004 255.912 98.4004 257.9C98.4004 259.888 100.012 261.5 102 261.5Z" fill="#6A90FF"/>
<path d="M102 262.1C99.7004 262.1 97.9004 260.2 97.9004 258C97.9004 255.7 99.8004 253.9 102 253.9C104.3 253.9 106.1 255.8 106.1 258C106.1 260.2 104.3 262.1 102 262.1ZM102 254.8C100.3 254.8 98.9004 256.2 98.9004 257.9C98.9004 259.6 100.3 261 102 261C103.7 261 105.1 259.6 105.1 257.9C105.1 256.2 103.7 254.8 102 254.8Z" fill="#0C41E2"/>
<path d="M63.8386 291.709C65.8255 291.633 67.3743 289.96 67.298 287.974C67.2217 285.987 65.5492 284.438 63.5623 284.514C61.5755 284.59 60.0267 286.263 60.103 288.25C60.1793 290.237 61.8518 291.785 63.8386 291.709Z" fill="#6A90FF"/>
<path d="M63.7 292.3C61.4 292.3 59.5 290.5 59.5 288.2C59.5 285.9 61.3 284 63.6 284C65.9 284 67.8 285.8 67.8 288.1C67.9 290.4 66 292.3 63.7 292.3ZM63.7 285C62 285 60.5 286.4 60.5 288.1C60.5 289.8 61.9 291.3 63.6 291.3C65.3 291.3 66.8 289.9 66.8 288.2C66.9 286.4 65.5 285 63.7 285Z" fill="#0C41E2"/>
<path d="M286.2 300.4C331.322 300.4 367.9 290.908 367.9 279.2C367.9 267.492 331.322 258 286.2 258C241.078 258 204.5 267.492 204.5 279.2C204.5 290.908 241.078 300.4 286.2 300.4Z" fill="#6A90FF"/>
<path d="M286.2 300.9C240.1 300.9 204 291.4 204 279.1C204 266.8 240.1 257.3 286.2 257.3C332.3 257.3 368.4 266.8 368.4 279.1C368.4 291.4 332.3 300.9 286.2 300.9ZM286.2 258.4C241.4 258.4 205 267.7 205 279.2C205 290.7 241.4 300 286.2 300C331 300 367.4 290.7 367.4 279.2C367.4 267.7 331 258.4 286.2 258.4Z" fill="#0C41E2"/>
<path d="M367.9 279.2V324.7C367.9 336.4 331.3 345.9 286.2 345.9C241.1 345.9 204.5 336.4 204.5 324.7V279.2C204.5 290.9 241.1 300.4 286.2 300.4C331.3 300.4 367.9 290.9 367.9 279.2Z" fill="#EDF1FE"/>
<path d="M286.2 346.4C240.1 346.4 204 336.8 204 324.6V279.1C204 278.8 204.2 278.6 204.5 278.6C204.8 278.6 205 278.8 205 279.1C205 290.5 241.4 299.9 286.2 299.9C331 299.9 367.4 290.6 367.4 279.1C367.4 278.8 367.6 278.6 367.9 278.6C368.2 278.6 368.4 278.8 368.4 279.1V324.6C368.4 336.9 332.3 346.4 286.2 346.4ZM205 282.7V324.7C205 336.1 241.4 345.5 286.2 345.5C331 345.5 367.4 336.2 367.4 324.7V282.7C361.3 293.2 327.8 301 286.2 301C244.6 301 211.2 293.1 205 282.7Z" fill="#0C41E2"/>
<path d="M286.2 313.4C250.8 313.4 219.5 307.5 208.3 298.7C208.1 298.6 208 298.3 208.1 298C208.2 297.7 208.5 297.7 208.8 297.8C208.9 297.8 208.9 297.9 209 297.9C220 306.5 251 312.4 286.3 312.4C320.6 312.4 351.4 306.8 362.9 298.4C363.1 298.2 363.4 298.3 363.6 298.5C363.8 298.7 363.7 299 363.5 299.2C351.8 307.7 320.7 313.4 286.2 313.4Z" fill="#0C41E2"/>
<path d="M332.6 320.9V328.2C317.3 330.8 301.7 332.1 286.2 332C270.7 332.1 255.1 330.8 239.8 328.2V320.9C255.1 323.5 270.7 324.8 286.2 324.7C301.8 324.8 317.3 323.5 332.6 320.9Z" fill="#6A90FF"/>
<path d="M286.2 332.5C270.6 332.6 255.1 331.3 239.7 328.7C239.5 328.7 239.3 328.5 239.3 328.2V320.9C239.3 320.8 239.4 320.6 239.5 320.5C239.6 320.4 239.8 320.4 239.9 320.4C255.2 323 270.7 324.2 286.2 324.2C301.7 324.3 317.2 323 332.5 320.4C332.8 320.3 333 320.5 333.1 320.8V320.9V328.2C333.1 328.4 332.9 328.7 332.7 328.7C317.4 331.3 301.8 332.5 286.2 332.5ZM240.3 327.8C255.5 330.3 270.8 331.6 286.2 331.5C301.6 331.6 316.9 330.4 332.1 327.8V321.5C316.9 324 301.6 325.3 286.2 325.2C270.8 325.3 255.5 324.1 240.3 321.5V327.8Z" fill="#0C41E2"/>
<path d="M286.2 236.5C331.322 236.5 367.9 227.009 367.9 215.3C367.9 203.592 331.322 194.1 286.2 194.1C241.078 194.1 204.5 203.592 204.5 215.3C204.5 227.009 241.078 236.5 286.2 236.5Z" fill="#6A90FF"/>
<path d="M286.2 237.1C240.1 237.1 204 227.5 204 215.3C204 203.1 240.1 193.5 286.2 193.5C332.3 193.5 368.4 203.1 368.4 215.3C368.4 227.5 332.3 237.1 286.2 237.1ZM286.2 194.6C241.4 194.6 205 203.9 205 215.4C205 226.9 241.4 236.2 286.2 236.2C331 236.2 367.4 226.9 367.4 215.4C367.4 203.9 331 194.6 286.2 194.6Z" fill="#0C41E2"/>
<path d="M367.9 215.3V260.8C367.9 272.5 331.3 282.1 286.2 282.1C241.1 282.1 204.5 272.6 204.5 260.8V215.3C204.5 227 241.1 236.5 286.2 236.5C331.3 236.5 367.9 227.1 367.9 215.3Z" fill="#EDF1FE"/>
<path d="M286.2 282.6C240.1 282.6 204 273 204 260.8V215.3C204 215 204.2 214.8 204.5 214.8C204.8 214.8 205 215 205 215.3C205 226.7 241.4 236.1 286.2 236.1C331 236.1 367.4 226.8 367.4 215.3C367.4 215 367.6 214.8 367.9 214.8C368.2 214.8 368.4 215 368.4 215.3V260.8C368.4 273 332.3 282.6 286.2 282.6ZM205 218.8V260.8C205 272.3 241.4 281.6 286.2 281.6C331 281.6 367.4 272.3 367.4 260.8V218.8C361.3 229.3 327.8 237.1 286.2 237.1C244.6 237.1 211.2 229.3 205 218.8Z" fill="#0C41E2"/>
<path d="M286.2 249.6C250.8 249.6 219.5 243.7 208.3 234.9C208.1 234.8 208 234.5 208.1 234.2C208.2 233.9 208.5 233.9 208.8 234L208.9 234.1C219.9 242.7 250.9 248.6 286.2 248.6C320.5 248.6 351.3 243 362.8 234.6C363 234.4 363.3 234.5 363.5 234.7C363.7 234.9 363.6 235.2 363.4 235.4C351.8 243.9 320.7 249.6 286.2 249.6Z" fill="#0C41E2"/>
<path d="M332.6 257.1V264.4C317.3 267 301.7 268.3 286.2 268.2C270.7 268.3 255.1 267 239.8 264.4V257.1C255.1 259.7 270.7 261 286.2 260.9C301.8 260.9 317.3 259.7 332.6 257.1Z" fill="#6A90FF"/>
<path d="M286.2 268.6C270.6 268.7 255.1 267.4 239.7 264.8C239.5 264.8 239.3 264.6 239.3 264.3V257C239.3 256.7 239.5 256.5 239.8 256.5H239.9C255.2 259.1 270.7 260.4 286.2 260.3C301.7 260.4 317.2 259.1 332.5 256.5C332.6 256.5 332.8 256.5 332.9 256.6C333 256.7 333.1 256.8 333.1 257V264.3C333.1 264.5 332.9 264.8 332.7 264.8C317.4 267.4 301.8 268.7 286.2 268.6ZM240.3 263.9C255.5 266.4 270.8 267.7 286.2 267.6C301.6 267.7 316.9 266.5 332.1 263.9V257.6C316.9 260.1 301.6 261.4 286.2 261.3C270.8 261.4 255.5 260.2 240.3 257.6V263.9Z" fill="#0C41E2"/>
<path d="M286.2 172.7C331.322 172.7 367.9 163.209 367.9 151.5C367.9 139.792 331.322 130.3 286.2 130.3C241.078 130.3 204.5 139.792 204.5 151.5C204.5 163.209 241.078 172.7 286.2 172.7Z" fill="#6A90FF"/>
<path d="M286.2 173.2C240.1 173.2 204 163.6 204 151.4C204 139.2 240.1 129.6 286.2 129.6C332.3 129.6 368.4 139.2 368.4 151.4C368.4 163.6 332.3 173.2 286.2 173.2ZM286.2 130.7C241.4 130.7 205 140 205 151.5C205 163 241.4 172.3 286.2 172.3C331 172.3 367.4 163 367.4 151.5C367.4 140 331 130.7 286.2 130.7Z" fill="#0C41E2"/>
<path d="M367.9 151.5V197C367.9 208.7 331.3 218.2 286.2 218.2C241.1 218.2 204.5 208.7 204.5 197V151.5C204.5 163.2 241.1 172.7 286.2 172.7C331.3 172.7 367.9 163.2 367.9 151.5Z" fill="#EDF1FE"/>
<path d="M286.2 218.7C240.1 218.7 204 209.1 204 196.9V151.4C204 151.1 204.2 150.9 204.5 150.9C204.8 150.9 205 151.1 205 151.4C205 162.8 241.4 172.2 286.2 172.2C331 172.2 367.4 162.9 367.4 151.4C367.4 151.1 367.6 150.9 367.9 150.9C368.2 150.9 368.4 151.1 368.4 151.4V197C368.4 209.2 332.3 218.7 286.2 218.7ZM205.1 155V197C205.1 208.4 241.5 217.8 286.3 217.8C331.1 217.8 367.5 208.5 367.5 197V155C361.4 165.5 327.9 173.3 286.3 173.3C244.7 173.3 211.2 165.5 205.1 155Z" fill="#0C41E2"/>
<path d="M286.2 185.7C250.8 185.7 219.5 179.8 208.3 171C208.1 170.8 208.1 170.5 208.3 170.3C208.5 170.1 208.7 170.1 209 170.2C220 178.9 251 184.7 286.3 184.7C320.6 184.7 351.4 179.1 362.9 170.7C363.1 170.5 363.4 170.6 363.6 170.8C363.8 171 363.7 171.3 363.5 171.5C351.8 180 320.7 185.7 286.2 185.7Z" fill="#0C41E2"/>
<path d="M332.6 193.2V200.5C317.3 203.1 301.7 204.4 286.2 204.3C270.7 204.4 255.1 203.1 239.8 200.5V193.2C255.1 195.8 270.7 197.1 286.2 197C301.8 197.1 317.3 195.8 332.6 193.2Z" fill="#6A90FF"/>
<path d="M286.2 204.8C270.6 204.9 255.1 203.6 239.7 201C239.5 201 239.3 200.7 239.3 200.5V193.2C239.3 193.1 239.4 192.9 239.5 192.8C239.6 192.7 239.8 192.7 239.9 192.7C255.2 195.3 270.7 196.6 286.2 196.5C301.7 196.6 317.2 195.3 332.5 192.7C332.6 192.7 332.8 192.7 332.9 192.8C333 192.9 333.1 193 333.1 193.2V200.5C333.1 200.7 332.9 201 332.7 201C317.4 203.6 301.8 204.9 286.2 204.8ZM240.3 200.1C255.5 202.6 270.8 203.9 286.2 203.8C301.6 203.9 316.9 202.7 332.1 200.1V193.8C316.9 196.3 301.6 197.6 286.2 197.5C270.8 197.6 255.5 196.4 240.3 193.8V200.1Z" fill="#0C41E2"/>
<path d="M112.801 312.7L124.301 262.9L123.901 262.8C120.401 257.4 118.901 250.8 119.901 244.4C121.601 233.7 129.501 231.3 134.501 234.1C134.501 234.1 151.901 227.3 163.801 235.7C175.701 244.1 178.401 258.5 181.801 269.8L193.101 302.8L112.801 312.7Z" fill="#EDF1FE"/>
<path d="M112.8 313.2C112.7 313.2 112.5 313.1 112.4 313C112.3 312.9 112.2 312.7 112.3 312.5L123.7 263.2C123.6 263.2 123.5 263.1 123.5 263C119.9 257.4 118.5 250.8 119.5 244.2C120.3 239 122.7 235.1 126.3 233.4C128.9 232.1 132 232.1 134.6 233.5C136.7 232.7 152.9 227.3 164.2 235.3C174.8 242.8 178.2 254.7 181.2 265.2C181.6 266.7 182.1 268.2 182.5 269.7L193.8 302.7C193.8 302.8 193.8 303 193.7 303.1C193.6 303.2 193.5 303.3 193.3 303.3L112.9 313.1L112.8 313.2ZM124.2 262.4H124.4C124.5 262.4 124.7 262.5 124.7 262.6C124.8 262.7 124.8 262.9 124.8 263L113.4 312.1L192.4 302.5L181.4 270C181 268.5 180.5 267 180.1 265.5C177.2 255.2 173.8 243.4 163.5 236.2C151.9 228 134.8 234.5 134.6 234.6C134.5 234.7 134.3 234.7 134.2 234.6C131.9 233.3 129 233.3 126.6 234.5C123.3 236.1 121.1 239.7 120.3 244.6C119.5 250.7 120.8 257 124.2 262.4Z" fill="#0C41E2"/>
<path d="M156.7 286C188.7 286 212.9 306.1 226.4 325.2C239.9 344.3 241.4 360 238.4 365.3C235.4 370.6 202.8 366.8 191.4 360.5C180 354.2 109.8 364.4 109.8 364.4C109.8 364.4 85.7005 373.9 78.2005 363.8C70.7005 353.7 84.4005 326.4 97.6005 312.9C110.8 299.4 128.3 288.7 156.7 286Z" fill="#6A90FF"/>
<path d="M205.9 339.3C205.7 339.3 205.6 339.2 205.5 339L190.7 312.9C190.6 312.7 190.6 312.4 190.9 312.2C191.1 312.1 191.4 312.1 191.6 312.4L206.4 338.5C206.5 338.7 206.4 339 206.2 339.2C206.1 339.2 206 339.3 205.9 339.3Z" fill="#0C41E2"/>
<path d="M219.8 342.9C219.7 342.9 219.7 342.9 219.6 342.9C209.3 338.2 193.8 338.5 189.4 339.4C189.1 339.4 188.9 339.3 188.8 339C188.7 338.7 188.9 338.5 189.2 338.4C193.9 337.5 209.4 337.2 220.1 342C220.4 342.1 220.5 342.4 220.3 342.7C220.2 342.7 220 342.8 219.8 342.9Z" fill="#0C41E2"/>
<path d="M108.6 339.3C108.5 339.3 108.4 339.3 108.4 339.2C108.2 339.1 108.1 338.8 108.2 338.5L123 312.4C123.1 312.2 123.4 312.1 123.7 312.2C123.9 312.3 124 312.6 123.9 312.9L109 339C108.9 339.1 108.8 339.2 108.6 339.3Z" fill="#0C41E2"/>
<path d="M94.7002 342.9C94.4002 343 94.2002 342.8 94.1002 342.5C94.0002 342.2 94.2002 342 94.5002 341.9C105.1 337 120.7 337.3 125.4 338.3C125.7 338.3 125.8 338.6 125.8 338.9C125.7 339.2 125.5 339.3 125.2 339.3C120.8 338.4 105.2 338.2 95.0002 342.8C94.8002 342.8 94.7002 342.8 94.7002 342.9Z" fill="#0C41E2"/>
<path d="M111.2 327.1H202.4C204.4 327.1 205.9 328.7 205.9 330.7C205.9 330.8 205.9 330.8 205.9 330.9L202.7 382.4H110.9L107.7 330.9C107.6 328.9 109.1 327.3 111 327.1C111 327.1 111.1 327.1 111.2 327.1Z" fill="#EDF1FE"/>
<path d="M202.701 382.9H110.901C110.601 382.9 110.401 382.7 110.401 382.4L107.201 330.9C107.001 328.7 108.701 326.8 110.901 326.6C111.001 326.6 111.101 326.6 111.201 326.6H202.401C203.501 326.6 204.601 327 205.401 327.9C206.201 328.7 206.601 329.8 206.501 330.9L203.301 382.4C203.201 382.7 203.001 382.9 202.701 382.9ZM111.301 381.9H202.201L205.401 330.9C205.501 329.2 204.301 327.8 202.601 327.7C202.501 327.7 202.401 327.7 202.401 327.7H111.201C109.501 327.7 108.201 329 108.201 330.7C108.201 330.8 108.201 330.9 108.201 330.9L111.301 381.9Z" fill="#0C41E2"/>
<path d="M110.7 382.4H202.7V385C202.7 386.8 201.2 388.3 199.4 388.3H114C112.2 388.3 110.7 386.8 110.7 385V382.4Z" fill="#6A90FF"/>
<path d="M199.4 388.8H114C111.9 388.8 110.2 387.1 110.2 385V382.4C110.2 382.1 110.4 381.9 110.7 381.9H202.7C203 381.9 203.2 382.1 203.2 382.4V385C203.2 387.1 201.5 388.8 199.4 388.8ZM111.2 382.9V385C111.2 386.5 112.4 387.8 114 387.8H199.4C200.9 387.8 202.2 386.5 202.2 385V382.9H111.2Z" fill="#0C41E2"/>
<path d="M164.701 274.8C164.701 283.3 165.501 293.3 165.501 293.3C165.501 293.3 163.001 301.2 154.601 301.5C146.201 301.8 146.301 294.6 146.401 293.2C146.501 291.8 147.901 287 148.201 285.4C148.501 283.8 164.701 274.8 164.701 274.8Z" fill="#EDF1FE"/>
<path d="M154.1 302C151.9 302.1 149.6 301.4 148 299.8C145.8 297.6 145.8 294.4 145.9 293.1C146.1 291.5 146.5 289.8 147 288.3C147.3 287.1 147.6 285.9 147.7 285.3C148 283.7 159.5 277.1 164.4 274.4C164.6 274.3 164.7 274.3 164.9 274.4C165.1 274.5 165.1 274.7 165.1 274.8C165.1 283.2 165.9 293.1 165.9 293.2C165.9 293.3 165.9 293.3 165.9 293.4C165.9 293.5 163.2 301.7 154.6 302H154.1ZM164.2 275.6C156.8 279.8 149.1 284.5 148.7 285.5C148.6 286.1 148.3 287.3 148 288.5C147.6 290 147.2 291.6 147 293.1C146.8 295.2 147.5 297.4 148.9 299C150.2 300.3 152.2 301 154.8 300.9C162.4 300.6 164.9 294 165.2 293.1C164.9 292.1 164.3 283.4 164.2 275.6Z" fill="#0C41E2"/>
<path d="M124.8 253C124.8 253 120.5 276 130.7 283.6C140.9 291.2 162.9 286.3 167.3 270.8C167.3 270.8 172.5 275.2 175.5 269.3C178.5 263.4 172.8 258.3 167.1 261.9C167.1 261.9 164 256.3 152.3 254.1C145.6 253 139.3 250.1 134 245.8C134 245.9 132.6 250 124.8 253Z" fill="#EDF1FE"/>
<path d="M142.701 287.7C138.301 287.8 133.901 286.6 130.301 284C126.001 280.8 123.601 274.5 123.401 265.5C123.301 261.3 123.601 257.1 124.301 253C124.301 252.8 124.401 252.7 124.601 252.6C132.001 249.7 133.501 245.8 133.501 245.7C133.601 245.5 133.701 245.4 133.901 245.4C134.101 245.4 134.201 245.4 134.401 245.5C139.601 249.7 145.901 252.5 152.501 253.7C162.501 255.5 166.301 259.9 167.301 261.3C170.001 259.8 173.001 259.9 175.001 261.8C177.001 263.7 177.501 266.8 176.001 269.6C175.301 271.2 173.901 272.4 172.201 272.9C170.501 273.1 168.901 272.7 167.501 271.7C165.401 278.3 159.801 283.6 152.201 286.2C149.201 287.1 146.001 287.6 142.701 287.7ZM125.201 253.4C124.801 256 121.701 276.3 130.901 283.2C135.901 287 144.101 287.7 151.801 285.1C159.501 282.5 164.801 277.3 166.701 270.6C166.701 270.4 166.901 270.3 167.001 270.3C167.201 270.2 167.301 270.3 167.501 270.4C167.501 270.4 169.701 272.3 171.901 271.8C173.301 271.4 174.401 270.4 175.001 269C176.501 266 175.601 263.6 174.201 262.4C172.401 260.8 169.701 260.7 167.301 262.3C167.201 262.4 167.001 262.4 166.901 262.4C166.801 262.4 166.701 262.3 166.601 262.2C166.601 262.1 163.401 256.8 152.201 254.7C145.601 253.5 139.401 250.8 134.101 246.7C133.401 248 131.201 251 125.201 253.4Z" fill="#0C41E2"/>
<path d="M145.5 259.8C145.9 259.1 146.5 258.5 147.2 258C147.9 257.5 148.7 257.2 149.6 257.1C150.5 257 151.3 257.1 152.1 257.5C152.5 257.7 152.8 257.9 153.2 258.1C153.5 258.4 153.8 258.6 154.1 258.9C154.3 259.1 154.3 259.4 154.1 259.6C154 259.7 153.7 259.8 153.6 259.7C153 259.4 152.3 259.2 151.7 259C151.1 258.8 150.5 258.8 149.9 258.9C149.3 259 148.7 259.1 148.1 259.4C147.5 259.7 146.9 260.1 146.4 260.5H146.3C146.1 260.7 145.8 260.6 145.6 260.4C145.5 260.2 145.5 260 145.5 259.8Z" fill="#0C41E2"/>
<path d="M126 259.4C126.2 258.9 126.6 258.5 127 258.2C127.4 257.9 127.8 257.7 128.2 257.5C129.1 257.2 130 257 131 257.1C131.9 257.2 132.8 257.4 133.6 257.8C134.4 258.2 135.1 258.7 135.8 259.3C136 259.5 136 259.8 135.8 260C135.7 260.2 135.4 260.2 135.2 260.1C134.5 259.8 133.8 259.5 133 259.2C132.3 258.9 131.6 258.8 130.8 258.7C130.1 258.6 129.3 258.7 128.6 258.9C128.3 259 127.9 259.1 127.6 259.3C127.3 259.4 127.1 259.6 126.8 259.8L126.7 259.9C126.5 260.1 126.2 260.1 126 259.9C126 259.7 126 259.5 126 259.4Z" fill="#0C41E2"/>
<path d="M135.5 273.2C134.3 273.2 133.2 272.3 133 271.1C132.8 270.4 132.9 269.6 133.3 269C134.1 268.1 135.1 267.5 136.3 267.3C136.1 264.8 135.7 262.2 135.1 259.7C135 259.4 135.2 259.2 135.4 259.1C135.7 259 135.9 259.2 136 259.5C136.7 262.2 137.1 264.9 137.3 267.7C137.3 268 137.1 268.2 136.9 268.2C135.8 268.3 134.9 268.8 134.1 269.5C133.9 269.9 133.8 270.3 134 270.7C134.1 271.6 135 272.2 135.8 272C135.9 272 135.9 272 136 272C137.3 271.8 138.2 270.7 138.1 269.4C138.1 269.1 138.3 268.9 138.5 268.8C138.7 268.7 139 269 139.1 269.2C139.2 271 138 272.6 136.2 272.9C135.9 273.1 135.7 273.2 135.5 273.2Z" fill="#0C41E2"/>
<path d="M150.8 265.6C151.3 266.9 151 268.2 150.2 268.5C149.4 268.8 148.2 268.1 147.7 266.9C147.5 266.5 147.5 266.2 147.5 265.8L149.3 266L147.8 264.5C147.9 264.3 148.1 264.2 148.3 264.1C149.2 263.7 150.3 264.4 150.8 265.6Z" fill="#0C41E2"/>
<path d="M132.601 265C133.201 266.2 133.101 267.5 132.201 268C131.301 268.5 130.201 267.8 129.501 266.6C129.301 266.3 129.201 265.9 129.101 265.5H130.901L129.301 264.1C129.401 263.9 129.601 263.7 129.801 263.6C130.701 263.2 131.901 263.8 132.601 265Z" fill="#0C41E2"/>
<path d="M174 266.3C173.8 266.3 173.6 266.2 173.5 266C173.2 265.3 172.6 264.7 171.9 264.4C170.9 264.2 169.8 264.3 168.9 264.8C168.7 264.9 168.4 264.8 168.2 264.6C168.1 264.4 168.2 264.1 168.4 263.9C169.6 263.3 170.9 263.1 172.2 263.4C173.2 263.8 174 264.5 174.4 265.5C174.5 265.8 174.4 266 174.1 266.2C174.1 266.3 174.1 266.3 174 266.3Z" fill="#0C41E2"/>
<path d="M170.901 270C170.701 270 170.501 269.9 170.401 269.7C170.301 269.4 170.401 269.2 170.701 269.1C171.301 268.9 171.701 268.4 171.901 267.8C172.201 266.6 172.201 265.4 171.701 264.3C171.601 264.1 171.601 263.8 171.901 263.6C172.101 263.5 172.401 263.5 172.601 263.8C173.201 265.2 173.301 266.7 172.901 268.2C172.601 269.1 172.001 269.8 171.101 270.1C171.101 270 171.001 270 170.901 270Z" fill="#0C41E2"/>
<path d="M146.101 278.8C144.801 278.7 143.601 278.2 142.701 277.2C142.501 277 142.501 276.7 142.701 276.5C142.901 276.3 143.201 276.3 143.401 276.5C144.401 277.7 146.001 278.1 147.301 277.5C148.501 276.8 149.101 275.5 148.701 274.2C148.701 273.9 148.801 273.7 149.101 273.6C149.401 273.6 149.601 273.7 149.701 274C150.101 275.7 149.301 277.5 147.701 278.4C147.301 278.7 146.701 278.8 146.101 278.8Z" fill="#0C41E2"/>
<path d="M124.5 252.8C128.6 242.6 133.3 240.8 133.3 240.8C133.3 240.8 135.1 238.7 131.9 238.4C128.7 238.1 120.1 243.4 120 252.1C120 252.1 122.1 259.7 123.7 261.9L124.5 252.8Z" fill="#6A90FF"/>
<path d="M167.201 260C156.201 245 135.701 240.6 135.701 240.6C135.701 240.6 135.301 238.7 138.501 238.2C141.701 237.7 158.301 243.2 164.501 249.7C170.701 256.2 171.301 259.6 171.301 259.6C171.301 259.6 170.001 259 167.201 260Z" fill="#6A90FF"/>
<path d="M137.801 237.4C139.401 235.2 142.101 234.1 144.701 234.5C146.201 234.7 146.301 234.4 146.301 234.4C146.301 234.4 143.501 238.8 141.201 239.3C138.901 239.8 137.801 237.4 137.801 237.4Z" fill="#6A90FF"/>
<path d="M134.201 237.5C132.901 236.2 131.001 235.6 129.201 235.8C128.501 235.8 127.801 235.7 127.101 235.6C127.101 235.6 129.801 240 132.301 239.9C133.301 240 134.101 239.3 134.301 238.4C134.401 238 134.301 237.7 134.201 237.5Z" fill="#6A90FF"/>
<path d="M135.201 236.5C138.101 235.4 140.501 237.5 140.201 239.3C139.901 241.1 136.301 242.4 134.201 242.3C132.701 242.3 131.401 241.6 130.501 240.4C129.901 239.6 132.601 236.7 135.201 236.5Z" fill="#6A90FF"/>
<path d="M131.601 241.6C131.501 241.6 131.401 241.6 131.301 241.5C130.501 240.8 130.2 239.7 130.7 238.7C130.8 238.4 131.101 238.3 131.301 238.4C131.601 238.5 131.701 238.8 131.601 239C131.301 239.6 131.4 240.2 131.9 240.7C132.1 240.9 132.201 241.2 132.001 241.4C131.901 241.6 131.801 241.6 131.601 241.6Z" fill="#0C41E2"/>
<path d="M140.2 240.6C140.1 240.6 140.1 240.6 140 240.6C139.7 240.5 139.6 240.2 139.7 240C140.2 239.1 139.8 237.9 138.9 237.5C138.8 237.5 138.8 237.4 138.7 237.4C138.5 237.3 138.4 237 138.5 236.7C138.6 236.5 138.9 236.4 139.2 236.5C140.6 237.2 141.3 238.9 140.6 240.3C140.6 240.5 140.4 240.6 140.2 240.6Z" fill="#0C41E2"/>
<path d="M140.1 238.3C139.9 238.3 139.7 238.2 139.6 238C139.5 237.7 139.6 237.5 139.9 237.3C141.4 236.7 142.9 235.8 144.2 234.8C144.4 234.6 144.7 234.6 144.9 234.8C145.1 235 145.1 235.3 144.9 235.5C143.5 236.6 142 237.5 140.3 238.2C140.2 238.3 140.2 238.3 140.1 238.3Z" fill="#0C41E2"/>
<path d="M131.9 238.4C131.8 238.4 131.8 238.4 131.7 238.4C130.6 238 129.5 237.4 128.4 236.8C128.2 236.6 128.1 236.3 128.3 236.1C128.5 235.9 128.8 235.8 129 236C130 236.6 131 237.1 132 237.5C132.3 237.5 132.5 237.8 132.4 238.1C132.3 238.4 132.1 238.5 131.9 238.4Z" fill="#0C41E2"/>
<path d="M452.401 215.6C448.901 220.1 443.501 222.7 437.901 222.6H383.701C362.801 224 348.301 221.6 348.301 214.7C348.301 207.4 354.901 201.9 367.201 202.5C367.701 200.1 368.901 197.8 370.501 195.9C378.301 186.7 389.501 190 389.501 190C388.401 184.7 394.301 165.9 413.601 165.5C432.901 165.1 433.001 189.1 433.001 189.1C433.001 189.1 446.501 187.4 453.501 199.5C457.301 206.2 455.201 211.8 452.401 215.6Z" fill="#EDF1FE"/>
<path d="M372.9 223.5C361.2 223.5 353.1 221.9 349.7 218.7C348.5 217.7 347.9 216.3 347.9 214.8C347.9 211.7 349.1 208.7 351.4 206.6C354.8 203.4 360.1 201.8 366.9 202.1C367.5 199.8 368.6 197.6 370.2 195.7C376.9 187.7 386.3 188.9 389 189.5C388.8 186.3 390.2 179.9 394.6 174.4C399.2 168.6 406.2 165.2 413.6 165.1C418.3 164.8 422.8 166.5 426.2 169.7C432.6 175.9 433.4 186.2 433.5 188.6C436.1 188.4 447.7 188.4 454 199.3C458.1 206.4 455.7 212.3 452.9 215.9C449.3 220.5 443.8 223.1 438 223.1H383.9C379.8 223.3 376.2 223.5 372.9 223.5ZM365.4 203C359.5 203 354.9 204.5 351.9 207.3C349.8 209.2 348.7 212 348.7 214.8C348.7 216 349.3 217.2 350.2 218C354.3 221.8 366.4 223.3 383.5 222.1H437.7C443.2 222.2 448.5 219.6 451.9 215.3C455.7 210.4 456 205.1 452.9 199.8C446.1 188.1 433 189.6 432.9 189.6C432.8 189.6 432.6 189.6 432.5 189.5C432.4 189.4 432.3 189.3 432.3 189.1C432.3 189 432.1 176.9 425.3 170.3C422.1 167.3 417.8 165.7 413.4 166C406.3 166 399.5 169.3 395.1 174.9C390.7 180.4 389.2 187.2 389.7 190C389.7 190.2 389.7 190.4 389.6 190.5C389.5 190.6 389.3 190.7 389.1 190.6C389 190.6 378.1 187.6 370.7 196.4C369.1 198.2 368.1 200.4 367.5 202.8C367.5 203 367.2 203.2 367 203.2C366.6 203 366 203 365.4 203Z" fill="#0C41E2"/>
<path d="M425.101 195.6C427.401 191.2 432.901 189.1 432.901 189.1Z" fill="#EDF1FE"/>
<path d="M425.1 196.1C425 196.1 424.9 196.1 424.9 196C424.7 195.9 424.6 195.6 424.7 195.3C427.1 190.8 432.5 188.6 432.7 188.5C432.9 188.4 433.2 188.5 433.3 188.8C433.4 189.1 433.3 189.3 433 189.4C433 189.4 427.7 191.6 425.5 195.7C425.5 196 425.3 196.1 425.1 196.1Z" fill="#0C41E2"/>
<path d="M201.5 134.9C198 139.4 192.6 142 187 141.9H132.8C111.9 143.3 97.5 140.9 97.5 134C97.5 126.7 104.1 121.2 116.3 121.8C116.8 119.4 118 117.1 119.6 115.2C127.4 106 138.6 109.3 138.6 109.3C137.5 104 143.4 85.1999 162.7 84.7999C182 84.3999 182 108.4 182 108.4C182 108.4 195.5 106.7 202.5 118.8C206.4 125.6 204.4 131.1 201.5 134.9Z" fill="#EDF1FE"/>
<path d="M122 142.8C110.3 142.8 102.2 141.2 98.8 138C97.7 137 97 135.5 97 134C97 130.9 98.2 127.9 100.5 125.8C103.8 122.6 109.2 121 116 121.3C116.6 119 117.7 116.8 119.3 114.9C126 106.9 135.4 108.1 138.1 108.7C137.9 105.5 139.3 99.1001 143.7 93.6001C148.3 87.8001 155.3 84.4001 162.7 84.3001C167.4 84.0001 171.9 85.7001 175.3 88.9001C181.7 95.1001 182.5 105.4 182.6 107.8C185.2 107.6 196.8 107.6 203.1 118.5C207.2 125.6 204.8 131.5 202 135.1C198.4 139.7 192.9 142.4 187.1 142.3H132.9C128.9 142.6 125.3 142.8 122 142.8ZM114.6 122.3C108.7 122.3 104.1 123.8 101.2 126.6C99.2 128.5 98 131.2 98.1 134.1C98.1 135.3 98.7 136.5 99.6 137.3C103.7 141.1 115.8 142.6 132.9 141.4H187C192.5 141.5 197.7 138.9 201.1 134.6C204.9 129.7 205.2 124.4 202.1 119.1C195.4 107.4 182.2 108.9 182.1 108.9C182 108.9 181.8 108.9 181.7 108.8C181.6 108.7 181.5 108.6 181.5 108.4C181.5 108.3 181.3 96.2001 174.5 89.6001C171.3 86.6001 167 85.0001 162.6 85.3001C155.5 85.3001 148.7 88.6001 144.3 94.2001C139.9 99.7001 138.4 106.5 138.9 109.3C139 109.6 138.8 109.8 138.5 109.9C138.4 109.9 138.3 109.9 138.3 109.9C138.2 109.9 127.3 106.9 119.9 115.7C118.3 117.5 117.3 119.7 116.7 122C116.7 122.2 116.4 122.4 116.2 122.4C115.7 122.3 115.1 122.3 114.6 122.3Z" fill="#0C41E2"/>
<path d="M174.3 115C176.6 110.7 182.1 108.5 182.1 108.5Z" fill="#EDF1FE"/>
<path d="M174.3 115.4C174.2 115.4 174.1 115.4 174.1 115.3C173.9 115.2 173.8 114.9 173.9 114.6C176.3 110.1 181.7 107.9 181.9 107.8C182.1 107.7 182.4 107.8 182.5 108.1C182.6 108.4 182.5 108.7 182.2 108.8C182.1 108.8 176.9 111 174.7 115.1C174.6 115.3 174.4 115.4 174.3 115.4Z" fill="#0C41E2"/>
</svg>
