<svg width="500" height="500" viewBox="0 0 500 500" fill="none" xmlns="http://www.w3.org/2000/svg">
<path fill-rule="evenodd" clip-rule="evenodd" d="M280.662 4.07365C345.122 9.28104 410.982 22.881 452.889 79.6572C496.342 138.528 507.776 218.754 495.188 294.718C481.958 374.561 449.574 455.826 385.127 488.597C322.451 520.468 256.286 478.528 192.967 448.397C121.785 414.524 34.0108 393.855 9.21218 309.715C-17.3552 219.575 16.2504 115.638 75.2971 49.1536C127.777 -9.93645 207.529 -1.83434 280.662 4.07365Z" fill="#EDF1FE"/>
<path d="M319.8 208C304.5 187 324.5 180 324.5 180C324.5 180 319 170.5 325.8 163C332.6 155.5 345.9 155.3 353 146.6C360.1 137.9 375.9 134.9 384.4 151.7C392.9 168.5 383.7 176.8 383.7 176.8L344.6 209.6L324.2 212.5L319.8 208Z" fill="#EDF1FE"/>
<path d="M324.1 212.9C324 212.9 323.8 212.8 323.7 212.8L319.399 208.3C319.399 208.3 319.399 208.3 319.399 208.2C314.199 201.1 312.5 194.8 314.1 189.5C316 183.3 321.899 180.4 323.799 179.7C322.799 177.6 319.399 169.3 325.399 162.6C328.699 159 333.299 157.1 338.299 155.1C343.599 152.9 349 150.7 352.7 146.2C356.7 141.2 362.899 138.5 369.299 139.1C373.799 139.6 380.199 142.1 384.899 151.4C393.499 168.3 384.2 177 384.1 177.1L345 209.9C344.9 210 344.799 210 344.799 210L324.399 212.9H324.1ZM320.1 207.6L324.2 211.9L344.2 209.1L383.2 176.4C384.8 174.7 386 172.6 386.6 170.3C387.7 166.6 388.099 160.4 383.799 151.9C379.299 143 373.3 140.6 369 140.1C363 139.6 357.099 142.2 353.299 146.9C349.499 151.6 343.9 153.9 338.5 156.1C333.7 158.1 329.1 159.9 326 163.4C319.6 170.5 324.799 179.7 324.799 179.8C324.899 179.9 324.899 180.1 324.799 180.2C324.699 180.3 324.6 180.4 324.5 180.5C324.4 180.5 316.999 183.2 314.899 189.9C313.499 194.8 315.2 200.8 320.1 207.6Z" fill="#0C41E2"/>
<path d="M437.5 173.2C432.2 169.3 432.9 167.2 427.5 162.4C425.3 160.3 422.5 158.9 419.5 158.5C418.4 158.3 417.7 157.3 417.8 156.2C417.8 156.1 417.8 156 417.9 155.8C418.7 153.9 420.3 151.7 424.1 152.6C427.8 153.4 431.3 155 434.3 157.2C434.3 157.2 431.5 141.3 431.7 134.4C431.9 127.5 435.5 126.2 437.5 132.7C439 138.3 440.1 143.9 440.9 149.6C440.9 149.6 443.4 136.3 445.1 131C446.8 125.7 451.2 124.7 450.1 131.5C449 138.3 448.3 149.2 448.3 149.2L450.6 149C450.6 149 454.1 139.2 457.6 133.9C461.1 128.6 464.2 133.4 461.4 140.2C459.7 144.2 458.2 148.3 457 152.5C457 152.5 463.2 148.1 468.3 146.9C473.4 145.7 471.1 151.7 466.7 153.9C464.2 155.1 462.1 156.9 460.5 159.1C460.5 159.1 463 169.7 454.5 174.2C454.4 174.2 444.2 178.8 437.5 173.2Z" fill="#EDF1FE"/>
<path d="M445.799 176.5C442.599 176.6 439.599 175.6 437.099 173.6C434.999 172.1 433.199 170.2 431.799 168.1C430.399 166.1 428.899 164.3 427.099 162.8C424.999 160.7 422.299 159.4 419.299 159C418.499 158.9 417.899 158.5 417.499 157.8C417.099 157.2 416.999 156.4 417.299 155.7C418.499 152.7 420.899 151.5 424.099 152.2C427.399 153 430.599 154.3 433.499 156.2C432.899 152.3 430.899 140.3 430.999 134.5C431.099 130.8 432.099 128.3 433.799 128.1C435.299 127.9 436.799 129.6 437.699 132.7C438.999 137.3 439.999 142.1 440.699 146.8C441.599 142.6 443.199 134.8 444.399 131C445.399 128 447.299 126 448.899 126.4C449.599 126.6 451.099 127.4 450.299 131.7C449.299 137.5 448.699 146.4 448.599 148.8L450.099 148.7C450.699 147 453.899 138.6 457.099 133.8C459.099 130.8 460.699 131.2 461.299 131.5C462.999 132.4 463.599 136.1 461.699 140.6C459.699 145.4 458.299 149.5 457.699 151.5C459.799 150.2 464.199 147.5 467.999 146.6C470.399 146 471.099 147 471.399 147.6C472.099 149.5 469.899 153 466.799 154.5C464.499 155.7 462.399 157.3 460.899 159.4C461.199 161 462.599 170.6 454.599 174.8C451.899 175.8 448.899 176.4 445.799 176.5ZM422.399 152.9C420.499 152.9 418.799 154.1 418.299 156C418.099 156.4 418.199 156.9 418.399 157.2C418.599 157.6 418.999 157.9 419.499 157.9C422.599 158.4 425.499 159.8 427.799 162C429.599 163.6 431.299 165.5 432.699 167.5C434.099 169.6 435.799 171.4 437.799 172.8C444.199 178.2 454.199 173.8 454.299 173.7C462.299 169.5 460.099 159.6 459.999 159.2C459.999 159.1 459.999 158.9 460.099 158.8C461.799 156.5 463.999 154.6 466.499 153.4C469.399 151.9 471.099 148.9 470.599 147.7C470.299 147 469.099 147.1 468.399 147.3C463.499 148.5 457.299 152.8 457.299 152.8C457.099 153 456.799 152.9 456.599 152.7C456.499 152.6 456.499 152.4 456.499 152.3C457.799 148.1 459.299 144 460.999 140C462.799 135.8 462.099 132.8 460.999 132.2C460.199 131.8 459.199 132.5 458.099 134.1C454.699 139.3 451.099 149 451.099 149.1C450.999 149.3 450.899 149.4 450.699 149.4L448.399 149.6C448.299 149.6 448.099 149.6 447.999 149.5C447.899 149.4 447.799 149.3 447.899 149.1C447.899 149 448.599 138.1 449.699 131.4C450.199 128.7 449.699 127.4 448.999 127.2C448.299 127 446.599 128.3 445.699 131.1C443.999 136.3 441.499 149.5 441.499 149.6C441.499 149.9 441.299 150.1 440.999 150.1C440.699 150.1 440.499 149.9 440.499 149.6C439.699 143.9 438.599 138.3 437.099 132.8C436.199 129.8 434.999 128.8 434.299 128.9C433.399 129 432.399 130.8 432.299 134.3C432.199 141.1 434.899 156.9 434.899 157C434.899 157.2 434.799 157.4 434.699 157.5C434.499 157.6 434.299 157.6 434.099 157.5C431.099 155.3 427.699 153.8 424.099 153C423.299 153 422.799 152.9 422.399 152.9Z" fill="#0C41E2"/>
<path d="M458 154.3C457.9 154.3 457.8 154.3 457.7 154.2C450.7 148.9 443.8 148.2 436.6 152.1C436.4 152.2 436.1 152.1 435.9 151.9C435.8 151.7 435.9 151.4 436.1 151.2C443.6 147.1 451 147.9 458.3 153.4C458.5 153.6 458.6 153.9 458.4 154.1C458.4 154.2 458.2 154.3 458 154.3Z" fill="#0C41E2"/>
<path d="M434.2 157.7C434 157.7 433.8 157.6 433.8 157.4C433.7 157.2 433.8 156.9 434 156.7C436.9 155.3 440.2 155 443.3 155.7C443.6 155.8 443.7 156 443.7 156.3C443.6 156.6 443.4 156.7 443.1 156.7C440.2 156 437.2 156.3 434.5 157.6C434.4 157.7 434.3 157.7 434.2 157.7Z" fill="#0C41E2"/>
<path d="M466.8 219.7C465.3 239.7 461.6 256.8 453.2 258.1H453.1C452.5 258.2 451.8 258.3 451.2 258.4L449.9 258.6L447.6 258.9H447.5L445.1 259.3L443.6 259.5H443.5L441.4 259.8L440.7 259.9L439.5 260.1H439.4L437.9 260.3L437.4 260.4L436.3 260.6L435.5 260.7L434.7 260.8L431.2 261.3L430.4 261.4L428.9 261.6L428.3 261.7L427.2 261.9L426.6 262L424.8 262.2C416.3 263.4 415.6 265.9 415.6 265.9L427.6 362.3C427.6 362.3 387.3 359.8 358.7 359.8H300.8L307.7 305.9C307.7 305.9 300 281.8 304.6 264.4C309.2 247 331.1 226.3 366.4 221.2C387.8 218.1 414 218.6 435.3 219.2H435.4C448.4 219.6 459.7 220 466.8 219.7Z" fill="#6A90FF"/>
<path d="M414.3 262.7C414 262.7 413.8 262.5 413.8 262.2C413.8 262 412.2 240.2 410.3 228.7C410.3 228.4 410.4 228.2 410.7 228.1C411 228.1 411.2 228.2 411.3 228.5C413.3 240 414.9 261.8 414.9 262.1C414.8 262.4 414.6 262.7 414.3 262.7Z" fill="#0C41E2"/>
<path d="M412.3 325.6C412.1 325.6 412 325.5 411.9 325.4C411.1 324.3 404 322.7 396.5 321C388.6 319.2 378.8 317 370.4 314.2C345.3 305.8 333.4 287.2 331 273.8C330.9 273.5 331.1 273.3 331.4 273.2C331.7 273.1 331.9 273.3 332 273.6C334.4 286.7 346.1 305 370.8 313.2C379.2 316 389 318.2 396.9 320C406.7 322.2 411.9 323.4 412.9 324.8C413.1 325 413 325.3 412.8 325.5C412.5 325.6 412.4 325.6 412.3 325.6Z" fill="#0C41E2"/>
<path d="M406.199 357.2C397.699 357.2 380.399 352.8 361.199 345.5C332.799 334.6 310.499 310.4 310.299 310.1C310.099 309.9 310.099 309.6 310.299 309.4C310.499 309.2 310.799 309.2 310.999 309.4C311.199 309.6 333.399 333.8 361.599 344.5C374.599 349.5 386.999 353.2 396.599 355C406.999 356.9 410.399 355.9 410.699 355C410.799 354.7 411.099 354.6 411.299 354.7C411.499 354.8 411.699 355.1 411.599 355.3C411.199 356.7 409.299 357.2 406.199 357.2Z" fill="#0C41E2"/>
<path d="M412.5 328C420.3 326.6 431.8 320.2 434.7 318.2C437.6 316.2 442.6 320.6 436.3 328.1C436.3 328.1 445.9 325.8 454.2 323.7C462.5 321.6 465.6 320.7 467.3 322C469 323.3 466.7 326.9 462.3 328.5C457.9 330.1 446.8 332.8 446.8 332.8C446.8 332.8 449.8 337.2 445 341.5C445 341.5 448.3 346 440.3 350C440.3 350 438.1 356 432.7 357C427.3 358 412.3 353 412.3 353C412.3 353 415.2 334.7 412.5 328Z" fill="#EDF1FE"/>
<path d="M430.899 357.6C424.599 357.6 412.499 353.6 411.999 353.4C411.799 353.3 411.599 353.1 411.699 352.8C411.699 352.6 414.699 334.6 412.099 328.1C411.999 328 411.999 327.8 412.099 327.7C412.199 327.6 412.299 327.5 412.499 327.5C419.899 326.1 431.399 319.9 434.499 317.8C435.899 316.9 437.699 317.1 438.799 318.4C440.199 320 440.699 323.2 437.699 327.3C440.699 326.6 447.899 324.8 454.199 323.3L456.299 322.8C463.099 321.1 465.999 320.4 467.699 321.8C468.299 322.3 468.599 323.1 468.399 323.8C468.099 325.8 465.599 328 462.499 329.1C458.699 330.5 449.999 332.6 447.499 333.2C448.099 334.6 449.199 338.1 445.499 341.7C445.999 342.7 446.199 343.9 445.899 345C445.399 347.1 443.599 348.9 440.499 350.5C440.099 351.6 437.699 356.7 432.499 357.6C431.999 357.6 431.499 357.6 430.899 357.6ZM412.699 352.6C415.099 353.4 427.699 357.3 432.399 356.5C437.499 355.6 439.599 349.9 439.599 349.8C439.599 349.7 439.699 349.6 439.799 349.5C442.699 348.1 444.399 346.4 444.799 344.6C444.999 343.6 444.899 342.6 444.299 341.7C444.199 341.5 444.199 341.2 444.399 341C448.799 337 446.299 333.1 446.199 332.9C446.099 332.8 446.099 332.6 446.199 332.4C446.199 332.2 446.399 332.1 446.499 332.1C446.599 332.1 457.699 329.4 461.999 327.8C465.099 326.7 466.999 324.6 467.199 323.2C467.299 322.8 467.099 322.4 466.799 322.2C465.399 321.1 462.599 321.8 456.299 323.4L454.199 323.9C445.999 325.9 436.399 328.2 436.299 328.3C436.099 328.4 435.899 328.3 435.799 328.1C435.699 327.9 435.699 327.7 435.799 327.5C439.299 323.3 439.099 320.2 437.799 318.8C437.099 317.9 435.799 317.7 434.799 318.3C432.399 319.9 421.199 326.4 412.999 328.1C415.399 335 413.099 349.8 412.699 352.6Z" fill="#0C41E2"/>
<path d="M424.5 330.7C424.2 330.7 424 330.5 424 330.2C424 329.9 424.2 329.7 424.5 329.7C429 329 436.1 327.6 436.2 327.6C436.5 327.5 436.7 327.7 436.8 328C436.9 328.3 436.7 328.5 436.4 328.6C436.3 328.6 429.2 330 424.5 330.7Z" fill="#0C41E2"/>
<path d="M441.099 334.5C440.799 334.5 440.599 334.3 440.499 334.1C440.399 333.9 440.699 333.6 440.899 333.5C442.699 333 446.399 332.3 446.499 332.3C446.799 332.3 446.999 332.4 447.099 332.7C447.099 333 446.999 333.2 446.699 333.3C446.699 333.3 442.899 334 441.199 334.5H441.099Z" fill="#0C41E2"/>
<path d="M440.2 342.2C439.9 342.2 439.7 342 439.7 341.7C439.7 341.4 439.9 341.2 440.1 341.2C442.5 341 444.7 341 444.8 341C445.1 341 445.3 341.2 445.3 341.5C445.3 341.8 445.1 342 444.8 342C444.9 342 442.7 342.1 440.2 342.2Z" fill="#0C41E2"/>
<path d="M435.3 351.5C435.1 351.5 434.8 351.3 434.8 351.1C434.8 350.8 434.9 350.6 435.2 350.5C435.2 350.5 437.5 350.1 440.1 349.5C440.4 349.4 440.6 349.6 440.7 349.9C440.8 350.2 440.6 350.4 440.3 350.5C437.7 351.1 435.4 351.5 435.3 351.5Z" fill="#0C41E2"/>
<path d="M344.1 201.4C343.2 211.4 342.9 221.4 343.3 231.4C343.4 233.8 345.2 235.8 347.5 236.3C351.4 237 357.5 237.4 363 234.4C364.8 233.4 365.9 231.5 365.8 229.4L364.8 217.7L344.1 201.4Z" fill="#EDF1FE"/>
<path d="M353 237.3C351.1 237.3 349.3 237.1 347.5 236.8C344.9 236.3 343 234.1 342.9 231.4C342.6 221.4 342.8 211.4 343.7 201.4C343.7 201.2 343.8 201.1 344 201C344.2 200.9 344.4 201 344.5 201.1L365.2 217.4C365.3 217.5 365.4 217.6 365.4 217.8L366.4 229.5C366.6 231.8 365.4 233.9 363.4 235C360.2 236.6 356.6 237.4 353 237.3ZM344.5 202.4C343.7 212 343.4 221.7 343.8 231.4C343.9 233.6 345.5 235.4 347.6 235.8C351.6 236.6 357.5 236.9 362.8 234C364.5 233.1 365.4 231.3 365.3 229.4L364.3 218L344.5 202.4Z" fill="#0C41E2"/>
<path d="M466.8 219.7C465.3 239.7 461.6 256.8 453.2 258.1H453.1L451.2 258.4L449.9 258.6L447.6 258.9H447.5C446.7 259 445.9 259.1 445.1 259.3L443.6 259.5H443.5C442.8 259.6 442.1 259.7 441.4 259.8L440.7 259.9L439.5 260.1H439.4L437.9 260.3L437.4 260.4L436.3 260.6L435.5 260.7L434.7 260.8L431.2 261.3L430.4 261.4L428.9 261.6L428.3 261.7L427.2 261.9L426.6 262L424.8 262.2V219.2L435.4 219.3H435.5L434.1 174.6C434 172.6 435.6 170.9 437.6 170.9H437.7H457.5C459 170.9 460.3 171.8 460.9 173.2C463 178.9 468.6 195.6 466.8 219.7Z" fill="#6A90FF"/>
<path d="M377.9 165.4C377.9 165.4 403.6 207 378.5 218.2C353.4 229.4 332.5 213.5 332.5 213.5C324.4 219.2 315.8 212.6 319.8 208C323.8 203.4 330 209 330 209C330 209 338.5 200.8 332.6 185.9C332.6 185.9 345.9 186.9 349.5 175.6C349.5 175.6 376.7 172.9 381.2 159.5" fill="#EDF1FE"/>
<path d="M360.1 222.6C350.3 222.5 340.7 219.5 332.5 214.1C327.4 217.5 322.1 216.4 319.6 213.6C317.9 212 317.8 209.3 319.4 207.6C320.4 206.4 321.8 205.7 323.3 205.6C326.2 205.4 328.9 207.4 329.9 208.2C331.3 206.5 337.1 198.7 332 185.9C331.9 185.7 332 185.6 332.1 185.4C332.2 185.3 332.4 185.2 332.5 185.2C332.6 185.2 345.4 186.1 348.8 175.3C348.9 175.1 349 175 349.2 174.9C349.5 174.9 376.2 172.1 380.5 159.2C380.6 158.9 380.9 158.8 381.1 158.9C381.4 159 381.5 159.3 381.4 159.5C380.7 161.5 379.5 163.4 378 164.9V165C380.8 169.7 383.2 174.7 385.2 179.8C388.2 187.5 391.3 198.6 388.6 207.2C387 212.3 383.3 216.5 378.3 218.5C372.8 221.2 366.5 222.6 360.1 222.6ZM332.4 212.9C332.5 212.9 332.6 212.9 332.7 213C332.9 213.2 353.6 228.6 378.2 217.6C382.9 215.7 386.5 211.8 388 206.9C392.8 191.5 378.7 167.6 377.5 165.7C374.4 168.6 369.8 171 363.7 172.9C359.1 174.3 354.4 175.3 349.7 175.9C348.1 180.5 344.4 184 339.7 185.3C337.6 185.9 335.4 186.3 333.2 186.2C336 193.7 335.1 199.5 333.9 203C333.1 205.3 331.9 207.4 330.3 209.2C330.1 209.4 329.8 209.4 329.6 209.2C329.6 209.2 326.4 206.3 323.3 206.5C322.1 206.6 320.9 207.2 320.1 208.1C318.9 209.4 318.9 211.4 320.2 212.7C322.1 214.9 327.1 216.3 332.1 212.8C332.2 213 332.3 212.9 332.4 212.9Z" fill="#0C41E2"/>
<path d="M328.8 212C328.7 212 328.5 211.9 328.4 211.8C328.3 211.7 325.2 208.2 322.3 210.4C322.1 210.6 321.8 210.6 321.6 210.4C321.4 210.2 321.4 209.9 321.6 209.7C324.5 207.5 327.7 209.7 329 211.2C329.2 211.4 329.2 211.7 329 211.9C329.1 212 329 212 328.8 212Z" fill="#0C41E2"/>
<path d="M354.7 188.4C353.9 188.4 353 188.5 352.2 188.6C351.4 188.7 350.5 188.8 349.7 189C348.9 189.2 348.1 189.4 347.2 189.6C346.3 189.8 345.6 190.1 344.7 190.4C344.4 190.5 344.2 190.4 344.1 190.1C344 189.9 344.1 189.7 344.3 189.5C345 188.9 345.8 188.4 346.7 188.1C347.6 187.7 348.4 187.4 349.4 187.2C350.3 187 351.2 186.9 352.2 186.9C353.1 186.9 354.1 187 355 187.3C355.3 187.3 355.5 187.6 355.4 187.9C355.3 188.2 355.1 188.5 354.7 188.4Z" fill="#0C41E2"/>
<path d="M379.3 179.9C378.4 180.1 377.4 180.4 376.5 180.7C375.6 181 374.6 181.3 373.7 181.6C372.8 181.9 371.8 182.3 370.9 182.6C370 182.9 369 183.3 368.1 183.6C367.8 183.7 367.5 183.6 367.5 183.3C367.4 183.1 367.5 182.9 367.7 182.7C368.5 182.1 369.4 181.6 370.3 181.1C372.1 180.2 374.1 179.5 376.2 179.1C377.2 178.9 378.3 178.8 379.3 178.9C379.6 178.9 379.8 179.1 379.8 179.4C379.7 179.6 379.5 179.8 379.3 179.9Z" fill="#0C41E2"/>
<path d="M372 200.3C369.9 200.4 368 198.9 367.5 196.9C367.4 196.6 367.6 196.4 367.9 196.3C368.2 196.2 368.4 196.4 368.5 196.7C369 198.4 370.6 199.5 372.4 199.3C373.7 199.2 374.6 198.2 374.5 196.9C374.5 196.8 374.5 196.8 374.5 196.7C374.5 196.1 374.2 195.5 373.7 195.1C372.3 194 369.5 194.5 369.5 194.5C369.2 194.5 369 194.4 368.9 194.1C368 190.5 367.5 186.9 367.3 183.2C367.3 182.9 367.5 182.7 367.8 182.7C368.1 182.7 368.3 182.9 368.3 183.2C368.5 186.6 369 190.1 369.8 193.4C370.8 193.3 373 193.2 374.3 194.2C375 194.8 375.4 195.7 375.4 196.6C375.6 198.4 374.3 200 372.5 200.2H372.4L372 200.3Z" fill="#0C41E2"/>
<path d="M350.4 196.3C351 198 352.4 199.1 353.6 198.7C354.8 198.3 355.3 196.6 354.7 194.9C354.5 194.4 354.3 194 354 193.5L352.3 195.3L352.4 192.5C352.1 192.4 351.8 192.4 351.5 192.5C350.3 192.9 349.8 194.6 350.4 196.3Z" fill="#0C41E2"/>
<path d="M373.9 188.5C374.5 190.2 375.9 191.3 377.1 190.9C378.3 190.5 378.8 188.8 378.2 187.1C378 186.6 377.8 186.2 377.5 185.7L375.8 187.5L375.9 184.7C375.6 184.6 375.3 184.6 375 184.7C373.8 185.1 373.3 186.8 373.9 188.5Z" fill="#0C41E2"/>
<path d="M365.5 210.7H365.3C363.4 210.5 361.8 209.5 360.9 207.8C360.8 207.6 360.8 207.3 361.1 207.1C361.3 207 361.6 207 361.8 207.3C362.5 208.7 363.9 209.6 365.4 209.7C367 209.8 368.6 208.7 370 206.8C370.2 206.6 370.5 206.5 370.7 206.7C370.9 206.9 371 207.1 370.8 207.4C369.3 209.5 367.4 210.7 365.5 210.7Z" fill="#0C41E2"/>
<path d="M58.3997 168.1C63.6997 164.2 62.9997 162.1 68.3997 157.3C70.5997 155.2 73.3997 153.8 76.3997 153.4C77.4997 153.2 78.2997 152.2 78.0997 151.1C78.0997 151 78.0997 150.8 77.9997 150.7C77.1997 148.8 75.5997 146.6 71.7997 147.5C68.0997 148.3 64.5997 149.9 61.5997 152.1C61.5997 152.1 64.3997 136.2 64.2997 129.3C64.1997 122.4 60.4997 121.1 58.4997 127.6C56.9997 133.1 55.8997 138.8 55.0997 144.5C55.0997 144.5 52.5997 131.3 50.8997 125.9C49.1997 120.5 44.7997 119.6 45.8997 126.4C46.9997 133.2 47.6997 144.1 47.6997 144.1L45.3997 143.9C45.3997 143.9 41.8997 134.1 38.3997 128.8C34.8997 123.5 31.7997 128.3 34.5997 135.1C36.2997 139.1 37.7997 143.2 38.9997 147.4C38.9997 147.4 32.7997 143 27.6997 141.8C22.5997 140.6 24.9997 146.6 29.2997 148.8C31.7997 150 33.8997 151.8 35.4997 154C35.4997 154 32.9997 164.6 41.4997 169.1C41.3997 169.1 51.6997 173.8 58.3997 168.1Z" fill="#EDF1FE"/>
<path d="M49.9999 171.5C46.9999 171.5 43.9999 170.8 41.1999 169.6C33.1999 165.3 34.5999 155.8 34.8999 154.2C33.2999 152.1 31.2999 150.5 28.9999 149.3C25.9999 147.7 23.6999 144.3 24.3999 142.4C24.5999 141.8 25.3999 140.8 27.7999 141.4C31.5999 142.3 35.9999 145 38.0999 146.3C37.4999 144.3 36.0999 140.2 34.0999 135.4C32.1999 130.9 32.7999 127.2 34.4999 126.3C35.0999 126 36.6999 125.6 38.6999 128.6C41.8999 133.5 45.0999 141.8 45.6999 143.5L47.1999 143.6C46.9999 141.3 46.3999 132.3 45.4999 126.6C44.7999 122.3 46.2999 121.5 46.8999 121.3C48.4999 120.9 50.3999 122.9 51.3999 125.9C52.5999 129.7 54.2999 137.5 55.0999 141.7C55.7999 136.9 56.7999 132.2 58.0999 127.6C59.0999 124.5 60.4999 122.8 61.9999 123C63.4999 123.2 64.7999 125.7 64.7999 129.4C64.8999 135.2 62.9999 147.2 62.2999 151.1C65.1999 149.2 68.2999 147.9 71.6999 147.1C74.8999 146.4 77.2999 147.6 78.4999 150.6C78.7999 151.3 78.6999 152.1 78.2999 152.7C77.8999 153.4 77.1999 153.8 76.4999 153.9C73.5999 154.3 70.8999 155.7 68.6999 157.7C66.8999 159.3 65.2999 161 63.9999 163C62.5999 165.1 60.7999 167 58.6999 168.5C56.2999 170.5 53.1999 171.5 49.9999 171.5ZM26.3999 142.2C25.8999 142.2 25.4999 142.3 25.2999 142.7C24.8999 143.9 26.4999 146.9 29.3999 148.4C31.9999 149.6 34.1999 151.5 35.7999 153.8C35.8999 153.9 35.8999 154 35.8999 154.2C35.7999 154.6 33.5999 164.5 41.5999 168.7C41.6999 168.7 51.5999 173.1 57.9999 167.8C59.9999 166.4 61.7999 164.6 63.0999 162.5C64.4999 160.5 66.0999 158.6 67.8999 157C70.1999 154.8 73.0999 153.4 76.1999 152.9C76.6999 152.8 77.0999 152.6 77.2999 152.2C77.4999 151.8 77.5999 151.4 77.3999 151C76.3999 148.4 74.4999 147.5 71.7999 148.1C68.1999 148.9 64.7999 150.4 61.7999 152.6C61.5999 152.8 61.2999 152.7 61.0999 152.5C60.9999 152.4 60.9999 152.2 60.9999 152.1C60.9999 152 63.7999 136.2 63.6999 129.4C63.5999 125.8 62.5999 124.1 61.6999 124C60.9999 123.9 59.7999 124.9 58.8999 127.9C57.3999 133.4 56.2999 139 55.4999 144.7C55.4999 145 55.2999 145.2 54.9999 145.2C54.6999 145.2 54.4999 145 54.4999 144.7C54.4999 144.6 51.8999 131.4 50.2999 126.2C49.3999 123.3 47.7999 122.1 46.9999 122.3C46.1999 122.5 45.8999 123.8 46.2999 126.5C47.3999 133.2 48.0999 144.1 48.0999 144.2C48.0999 144.5 47.8999 144.7 47.5999 144.7C47.5999 144.7 47.5999 144.7 47.4999 144.7L45.1999 144.5C44.9999 144.5 44.7999 144.4 44.7999 144.2C44.7999 144.1 41.2999 134.4 37.7999 129.2C36.6999 127.6 35.5999 126.9 34.8999 127.2C33.7999 127.8 33.1999 130.8 34.8999 135C36.5999 139 38.0999 143.1 39.2999 147.3C39.3999 147.6 39.1999 147.8 38.9999 147.9C38.8999 147.9 38.6999 147.9 38.5999 147.8C38.4999 147.7 32.3999 143.5 27.4999 142.3C27.0999 142.2 26.6999 142.2 26.3999 142.2Z" fill="#0C41E2"/>
<path d="M37.8 149.3C37.6 149.3 37.5 149.2 37.4 149.1C37.2 148.9 37.3 148.6 37.5 148.4C44.8 142.9 52.2 142.2 59.7 146.2C59.9 146.3 60 146.6 59.9 146.9C59.8 147.1 59.5 147.2 59.2 147.1C52 143.2 45.1 143.9 38.1 149.2C38 149.2 37.9 149.3 37.8 149.3Z" fill="#0C41E2"/>
<path d="M61.6995 152.7C61.5995 152.7 61.4995 152.7 61.4995 152.6C58.7995 151.3 55.7995 151 52.8995 151.7C52.5995 151.8 52.3995 151.6 52.2995 151.3C52.1995 151 52.3995 150.8 52.6995 150.7C55.7995 150 59.0995 150.3 61.9995 151.7C62.1995 151.8 62.2995 152.1 62.1995 152.4C61.9995 152.6 61.7995 152.7 61.6995 152.7Z" fill="#0C41E2"/>
<path d="M29 214.6C30.5 234.6 34.2 251.7 42.6 253H42.7C43.4 253.1 44 253.2 44.6 253.3L45.9 253.5L48.2 253.8H48.3L50.7 254.2H50.8L52.3 254.4H52.5L54.6 254.7L55.3 254.8L56.5 255H56.6L58.1 255.2C58.2 255.2 58.4 255.2 58.6 255.3L59.7 255.5L60.5 255.6L61.3 255.7L64.8 256.2L65.6 256.3L67 256.5L67.6 256.6L68.7 256.7L69.3 256.8L71.1 257C79.7 258.2 80.3 260.7 80.3 260.7L68.3 357.1C68.3 357.1 108.6 354.6 137.2 354.6H195.1L188.2 300.7C188.2 300.7 195.9 276.6 191.3 259.2C186.7 241.8 164.8 221.2 129.5 216C108.1 212.9 81.9 213.4 60.6 214H60.5C47.5 214.6 36.2 215 29 214.6Z" fill="#6A90FF"/>
<path d="M81.5996 257.7C81.2996 257.7 81.0996 257.4 81.0996 257.2C81.0996 257 82.6996 235.2 84.6996 223.6C84.6996 223.3 84.9996 223.1 85.2996 223.2C85.5996 223.2 85.7996 223.5 85.6996 223.8C83.6996 235.3 82.0996 257 82.0996 257.3C82.0996 257.5 81.8996 257.7 81.5996 257.7Z" fill="#0C41E2"/>
<path d="M83.5998 320.6C83.4998 320.6 83.3998 320.6 83.2998 320.5C83.0998 320.3 82.9998 320 83.1998 319.8C84.1998 318.4 89.3998 317.2 99.1998 315C107 313.2 116.8 311 125.3 308.2C150 300 161.6 281.7 164.1 268.6C164.2 268.3 164.4 268.1 164.7 268.2C165 268.3 165.2 268.5 165.1 268.8C162.6 282.2 150.8 300.8 125.7 309.2C117.2 312 107.4 314.2 99.4998 316C91.9998 317.7 84.8998 319.3 84.0998 320.4C83.8998 320.5 83.6998 320.6 83.5998 320.6Z" fill="#0C41E2"/>
<path d="M89.5996 352.2C86.5996 352.2 84.6996 351.6 84.1996 350.5C84.0996 350.3 84.1996 350 84.4996 349.9C84.7996 349.8 84.9996 349.9 85.1996 350.2C86.1996 352.7 103.9 351.3 134.3 339.7C162.5 328.9 184.6 304.8 184.9 304.6C185.1 304.4 185.4 304.4 185.6 304.6C185.8 304.8 185.8 305.1 185.6 305.3C185.4 305.5 163 329.8 134.7 340.7C115.4 347.9 98.0996 352.2 89.5996 352.2Z" fill="#0C41E2"/>
<path d="M83.3999 323C75.5999 321.6 64.0999 315.2 61.1999 313.2C58.2999 311.2 53.2999 315.6 59.5999 323.1C59.5999 323.1 49.9999 320.8 41.6999 318.7C33.3999 316.6 30.2999 315.7 28.5999 317C26.8999 318.3 29.2999 321.9 33.5999 323.5C37.8999 325.1 49.0999 327.8 49.0999 327.8C49.0999 327.8 46.0999 332.2 50.8999 336.5C50.8999 336.5 47.5999 341 55.5999 345C55.5999 345 57.7999 351 63.1999 352C68.5999 353 83.5999 348 83.5999 348C83.5999 348 80.6999 329.7 83.3999 323Z" fill="#EDF1FE"/>
<path d="M64.9996 352.6C64.3996 352.6 63.8996 352.6 63.2996 352.5C58.0996 351.6 55.7996 346.5 55.2996 345.4C52.1996 343.8 50.3996 342 49.8996 339.9C49.5996 338.8 49.7996 337.6 50.2996 336.6C46.5996 333.1 47.6996 329.5 48.2996 328.1C45.8996 327.5 37.0996 325.3 33.2996 324C30.1996 322.9 27.6996 320.6 27.3996 318.7C27.1996 318 27.4996 317.2 28.0996 316.7C29.8996 315.3 32.6996 316 39.4996 317.7L41.5996 318.2C47.8996 319.8 55.0996 321.5 58.0996 322.2C55.0996 318.1 55.5996 314.9 56.9996 313.3C58.0996 312 59.8996 311.8 61.2996 312.7C64.3996 314.8 75.7996 321.1 83.2996 322.4C83.3996 322.4 83.5996 322.5 83.5996 322.6C83.6996 322.7 83.6996 322.9 83.5996 323C80.9996 329.5 83.9996 347.5 83.9996 347.7C83.9996 347.9 83.8996 348.2 83.6996 348.3C83.2996 348.6 71.2996 352.6 64.9996 352.6ZM30.7996 316.9C30.0996 316.8 29.4996 317 28.8996 317.4C28.5996 317.6 28.4996 318 28.4996 318.4C28.6996 319.8 30.5996 321.9 33.6996 323C37.9996 324.5 49.0996 327.2 49.1996 327.3C49.3996 327.3 49.4996 327.5 49.4996 327.6C49.5996 327.8 49.4996 327.9 49.3996 328.1C49.2996 328.3 46.6996 332.2 51.1996 336.2C51.3996 336.4 51.3996 336.7 51.2996 336.9C50.6996 337.8 50.5996 338.8 50.7996 339.8C51.1996 341.6 52.8996 343.2 55.7996 344.7C55.8996 344.8 55.9996 344.8 55.9996 345C55.9996 345.1 58.1996 350.8 63.2996 351.7C68.0996 352.5 80.5996 348.6 82.9996 347.8C82.5996 345 80.2996 330.1 82.4996 323.6C74.2996 321.9 63.0996 315.5 60.6996 313.8C59.6996 313.1 58.3996 313.3 57.6996 314.3C56.3996 315.7 56.1996 318.8 59.6996 323C59.7996 323.2 59.7996 323.4 59.6996 323.6C59.5996 323.8 59.3996 323.9 59.1996 323.8C59.0996 323.8 49.4996 321.5 41.2996 319.4L39.1996 318.9C35.1996 317.6 32.4996 316.9 30.7996 316.9Z" fill="#0C41E2"/>
<path d="M71.2996 325.7C66.6996 325 59.4996 323.6 59.4996 323.6C59.1996 323.5 59.0996 323.3 59.0996 323C59.1996 322.7 59.3996 322.6 59.6996 322.6C59.7996 322.6 66.8996 324 71.3996 324.7C71.6996 324.7 71.8996 325 71.7996 325.3C71.7996 325.5 71.5996 325.7 71.2996 325.7Z" fill="#0C41E2"/>
<path d="M54.7998 329.5H54.6998C52.9998 329 49.1998 328.3 49.1998 328.3C48.8998 328.2 48.7998 328 48.7998 327.7C48.8998 327.4 49.0998 327.2 49.3998 327.3C49.5998 327.3 53.2998 328 54.9998 328.5C55.2998 328.5 55.4998 328.8 55.3998 329.1C55.2998 329.3 54.9998 329.5 54.7998 329.5Z" fill="#0C41E2"/>
<path d="M55.7 337.2C53.2 337 51 337 51 337C50.7 337 50.5 336.8 50.5 336.5C50.5 336.2 50.7 336 51 336C51 336 53.2 336.1 55.7 336.2C56 336.2 56.2 336.4 56.2 336.7C56.2 337 56 337.2 55.7 337.2Z" fill="#0C41E2"/>
<path d="M60.6002 346.5C60.5002 346.5 58.2002 346.1 55.6002 345.5C55.3002 345.4 55.2002 345.2 55.2002 344.9C55.3002 344.6 55.5002 344.5 55.8002 344.5C58.3002 345.1 60.6002 345.5 60.6002 345.5C60.9002 345.5 61.1002 345.8 61.0002 346.1C61.0002 346.4 60.8002 346.5 60.6002 346.5Z" fill="#0C41E2"/>
<path d="M151.8 196.4C152.7 206.4 153 216.4 152.6 226.4C152.5 228.8 150.7 230.8 148.4 231.3C144.5 232 138.4 232.4 132.9 229.4C131.1 228.4 130 226.4 130.1 224.3L131.1 212.6L151.8 196.4Z" fill="#EDF1FE"/>
<path d="M142.9 232.3C139.3 232.4 135.8 231.5 132.6 229.8C130.6 228.7 129.4 226.5 129.6 224.3L130.6 212.6C130.6 212.5 130.7 212.3 130.8 212.2L151.5 195.9C151.6 195.8 151.8 195.8 152 195.8C152.2 195.9 152.3 196 152.3 196.2C153.2 206.2 153.4 216.2 153.1 226.3C153 228.9 151.1 231.2 148.5 231.7C146.6 232.1 144.7 232.3 142.9 232.3ZM131.5 213L130.5 224.4C130.4 226.3 131.3 228.1 133 229C138.3 231.9 144.2 231.6 148.2 230.8C150.3 230.4 151.9 228.6 152 226.4C152.3 216.7 152.1 207 151.3 197.4L131.5 213Z" fill="#0C41E2"/>
<path d="M137 141.1C155.4 138.4 168.1 149.3 171.8 162.9C175.5 176.5 169 190.1 169 190.1L152.1 201.8L105.9 174.7C105.9 174.7 98.8998 171.3 103.1 161.3C107.3 151.3 126.2 127.3 137 141.1Z" fill="#EDF1FE"/>
<path d="M152.1 202.3C152 202.3 151.9 202.3 151.9 202.2L105.7 175.1C105.7 175.1 98.2997 171.5 102.7 161.1C104.5 156.8 108.3 151.1 112.5 146.5C116.3 142.4 121.9 137.3 127.7 136.5C131.4 136 134.7 137.4 137.2 140.6C156.5 137.9 168.7 149.8 172.3 162.8C176 176.4 169.5 190.2 169.4 190.4C169.4 190.5 169.3 190.5 169.2 190.6L152.3 202.3C152.4 202.3 152.3 202.3 152.1 202.3ZM129.1 137.4C128.7 137.4 128.2 137.4 127.8 137.5C118 138.8 106.6 154 103.5 161.5C99.5997 171 105.8 174.1 106.1 174.3L152.1 201.3L168.6 189.9C169.2 188.5 174.8 175.8 171.3 163.2C167.8 150.6 155.9 139 137 141.8C136.8 141.8 136.6 141.8 136.5 141.6C134.9 139 132.2 137.5 129.1 137.4Z" fill="#0C41E2"/>
<path d="M171.8 191.1C170.8 201.1 160.4 198.8 160.4 198.8C160.4 198.8 142.3 223 120 216.4C100.6 210.7 100.1 191.1 107.4 170.1C114.9 165 127.7 158.3 127.7 158.3C127.7 158.3 135 176 144.7 180.2C154.4 184.4 158.5 185.3 158.6 187.3C158.7 189.3 155.6 194.6 155.6 194.6L159.8 195.4L166.3 183.3C166.4 183.4 172.5 184.3 171.8 191.1Z" fill="#EDF1FE"/>
<path d="M127.799 218C125.099 218 122.499 217.6 119.899 216.9C113.099 214.9 108.299 211.1 105.499 205.7C101.199 197.4 101.699 185.1 106.999 170C106.999 169.9 107.099 169.8 107.199 169.8C114.699 164.7 127.499 158 127.599 158C127.699 157.9 127.899 157.9 127.999 158C128.099 158 128.199 158.2 128.299 158.3C128.399 158.5 135.599 175.8 144.999 179.9C147.699 181.1 149.999 182 151.899 182.7C156.999 184.8 159.099 185.6 159.299 187.4C159.499 189.2 157.499 192.9 156.599 194.4L159.799 195L166.199 183.3C166.299 183.1 166.499 183 166.699 183.1C166.799 183.1 173.199 184.1 172.499 191.4C172.399 194 171.199 196.4 169.099 198C165.999 200.2 161.999 199.8 160.799 199.6C158.899 201.6 145.299 218 127.799 218ZM107.799 170.4C102.699 185.1 102.199 197.1 106.299 205.2C108.999 210.4 113.599 214 120.099 215.9C141.799 222.3 159.799 198.8 159.999 198.5C160.099 198.3 160.299 198.3 160.499 198.3C160.599 198.3 165.099 199.3 168.299 197C170.099 195.6 171.199 193.4 171.299 191.1C171.799 185.6 167.899 184.3 166.699 184L160.299 195.7C160.199 195.9 159.999 196 159.799 195.9L155.599 195.1C155.399 195.1 155.299 195 155.199 194.8C155.099 194.7 155.099 194.5 155.199 194.3C155.999 192.9 158.199 188.9 158.099 187.3C157.999 186.1 155.799 185.2 151.399 183.4C149.599 182.7 147.299 181.7 144.499 180.5C135.599 176.6 128.799 161.8 127.499 158.9C125.099 160.3 114.399 166 107.799 170.4Z" fill="#0C41E2"/>
<path d="M131.7 181.9C132.7 181.3 133.7 181 134.8 180.9C135.9 180.8 137.1 180.9 138.2 181.4C139.3 181.8 140.2 182.5 141 183.4C141.4 183.8 141.7 184.3 141.9 184.8C142.1 185.3 142.3 185.8 142.5 186.3C142.6 186.6 142.5 186.8 142.2 186.9C142 187 141.8 186.9 141.6 186.7L141.5 186.6C141.2 186.2 140.9 185.8 140.6 185.4L140.1 184.9C140 184.7 139.8 184.5 139.6 184.4L139.1 183.9L138.5 183.5C138.3 183.4 138.1 183.3 137.9 183.2C137.7 183.1 137.5 183 137.3 182.9C136.5 182.6 135.6 182.4 134.7 182.4C133.8 182.4 132.8 182.5 131.9 182.8C131.6 182.9 131.4 182.7 131.3 182.5C131.4 182.2 131.5 182 131.7 181.9Z" fill="#0C41E2"/>
<path d="M112.4 171.5C112.9 171.1 113.6 170.8 114.3 170.7C114.9 170.6 115.6 170.6 116.2 170.7C117.5 170.9 118.7 171.3 119.8 172C120.9 172.7 121.8 173.5 122.6 174.5C123.3 175.5 123.9 176.6 124.3 177.7C124.4 178 124.3 178.2 124 178.3C123.8 178.4 123.5 178.3 123.4 178.1C122.8 177.2 122.1 176.3 121.4 175.5C120.7 174.7 119.9 174 119 173.4C118.1 172.8 117.1 172.4 116.1 172.2C115.6 172.1 115.1 172 114.5 172C114 172 113.6 172 113.1 172.2L113 172.3C112.7 172.4 112.5 172.3 112.4 172C112.2 171.9 112.3 171.7 112.4 171.5Z" fill="#0C41E2"/>
<path d="M117.1 195C116.6 195 116.1 194.9 115.7 194.8C113.9 194.3 112.8 192.5 113.2 190.6V190.5C113.4 189.5 114 188.7 114.8 188.3C116.4 187.4 118.7 188 119.7 188.3C121.1 184.9 122.3 181.5 123.2 177.9C123.3 177.6 123.5 177.5 123.8 177.5C124.1 177.6 124.2 177.8 124.2 178.1C123.3 181.9 122 185.6 120.5 189.1C120.4 189.3 120.1 189.4 119.9 189.3C119.9 189.3 117.1 188.2 115.4 189.1C114.8 189.4 114.4 190 114.3 190.7C113.9 192 114.6 193.3 115.9 193.8C116 193.8 116 193.8 116.1 193.9C117.9 194.5 119.8 193.7 120.6 192C120.7 191.8 121 191.6 121.2 191.7C121.5 191.8 121.6 192.1 121.5 192.3C120.8 194 119 195.1 117.1 195Z" fill="#0C41E2"/>
<path d="M135.5 191C134.8 192.7 133.2 193.7 132 193.2C130.8 192.7 130.4 190.9 131.1 189.2C131.3 188.7 131.6 188.2 132 187.8L133.6 189.8L133.7 186.9C134 186.8 134.3 186.9 134.6 187C135.8 187.5 136.2 189.3 135.5 191Z" fill="#0C41E2"/>
<path d="M116.9 180.9C116.3 182.7 114.9 183.8 113.6 183.4C112.3 183 111.8 181.3 112.4 179.5C112.6 179 112.8 178.5 113.1 178.1L114.9 179.9L114.7 177C115 176.9 115.3 176.9 115.6 177C116.9 177.4 117.5 179.1 116.9 180.9Z" fill="#0C41E2"/>
<path d="M129.1 206.8C125.9 206.7 122.9 204.9 121.2 202.1C121 201.9 121.1 201.6 121.3 201.4C121.4 201.3 121.5 201.3 121.6 201.3L134.1 201.4C134.2 201.4 134.4 201.5 134.5 201.6C134.6 201.7 134.6 201.8 134.6 202C134.5 204.3 132.8 206.2 130.6 206.6C130.2 206.7 129.6 206.8 129.1 206.8ZM122.7 202.3C125.1 205.3 128.3 206.1 130.5 205.6C132.1 205.2 133.3 204 133.6 202.4L122.7 202.3Z" fill="#0C41E2"/>
<path d="M28.9998 214.6C30.4998 234.6 34.1998 251.7 42.5998 253H42.6998L44.5998 253.3L45.8998 253.5L48.1998 253.8H48.2998C49.0998 253.9 49.8998 254 50.6998 254.2H50.7998L52.2998 254.4H52.4998C53.1998 254.5 53.8998 254.6 54.5998 254.7L55.2998 254.8L56.4998 255H56.5998L58.0998 255.2C58.1998 255.2 58.3998 255.2 58.5998 255.3L59.6998 255.5L60.4998 255.6L61.2998 255.7L64.7998 256.2L65.5998 256.3L66.9998 256.5L67.5998 256.6L68.6998 256.7L69.2998 256.8L71.0998 257V214L60.4998 214.1H60.3998L61.7998 169.4C61.8998 167.4 60.2998 165.7 58.2998 165.7H58.1998H38.5998C37.0998 165.7 35.7998 166.6 35.1998 168C32.8998 173.9 27.2998 190.6 28.9998 214.6Z" fill="#6A90FF"/>
<path d="M290.5 260.9L281.8 207.7L282.4 207.6C287 200.5 288.8 191.9 287.6 183.5C285.4 169.5 275 166.4 268.5 170.1C268.5 170.1 245.8 161.2 230.1 172.2C214.4 183.2 211 202 206.5 216.8L190.9 273.1L290.5 260.9Z" fill="#EDF1FE"/>
<path d="M190.9 273.7C190.8 273.7 190.6 273.6 190.5 273.5C190.4 273.4 190.3 273.2 190.4 273L206 216.7C206.6 214.8 207.1 212.9 207.7 210.9C211.6 197.2 216 181.7 229.8 171.9C244.7 161.4 266 168.7 268.4 169.6C271.8 167.8 275.8 167.8 279.2 169.5C283.8 171.7 287 176.7 288.1 183.5C289.4 192 287.5 200.8 282.8 208C282.7 208.1 282.6 208.2 282.5 208.2H282.4L291 260.8C291 260.9 291 261.1 290.9 261.2C290.8 261.3 290.7 261.4 290.6 261.4L190.9 273.7ZM249.7 167.3C243.6 167.3 236.5 168.5 230.5 172.7C217 182.3 212.6 197.6 208.8 211.1C208.2 213.1 207.7 215.1 207.1 216.9L191.7 272.5L290 260.4L281.4 207.8C281.4 207.5 281.6 207.3 281.8 207.2L282.2 207.1C286.6 200.1 288.4 191.8 287.2 183.6C286.2 177.1 283.2 172.4 278.9 170.3C275.7 168.7 272 168.8 268.9 170.5C268.8 170.6 268.6 170.6 268.5 170.5C264.2 169 259.8 168 255.3 167.5C253.3 167.4 251.5 167.3 249.7 167.3Z" fill="#0C41E2"/>
<path d="M326.9 361.7C317 365.8 314.8 366.9 308.8 366.9V383L192.7 381.2V362.6C192.7 362.6 177.9 364.5 168.9 357.9C168.9 357.9 154.2 341.1 158.4 318.4C162.6 295.7 179.4 242.8 237.4 237.3C295.4 231.8 326.9 275.5 333.2 302C339.5 328.5 342 349.5 326.9 361.7Z" fill="#6A90FF"/>
<path d="M194.1 254.5C193.9 254.5 193.8 254.4 193.7 254.3C193.5 254.1 193.6 253.8 193.8 253.6C206 244 220.6 238.3 237.4 236.7C257.8 234.8 276.5 238.7 292.9 248.5C293.1 248.6 293.2 249 293.1 249.2C293 249.4 292.7 249.5 292.4 249.4C276.2 239.8 257.8 235.9 237.5 237.8C221 239.4 206.5 244.9 194.5 254.4C194.4 254.5 194.3 254.5 194.1 254.5Z" fill="#0C41E2"/>
<path d="M168.9 358.4C168.8 358.4 168.6 358.3 168.5 358.2C168.4 358 153.7 340.9 157.9 318.3C160.3 305.5 168.5 273.6 193.8 253.7C194 253.5 194.3 253.6 194.5 253.8C194.7 254 194.6 254.3 194.4 254.5C169.4 274.3 161.2 305.9 158.9 318.6C154.8 340.8 169.1 357.5 169.3 357.7C169.5 357.9 169.5 358.2 169.3 358.4C169.2 358.3 169 358.4 168.9 358.4Z" fill="#0C41E2"/>
<path d="M326.9 362.2C326.7 362.2 326.6 362.1 326.5 362C326.3 361.8 326.4 361.5 326.6 361.3C340.8 349.9 339.6 330.9 332.7 302.1C329 286.7 316.2 263.6 292.3 249.4C292.1 249.3 292 249 292.1 248.7C292.2 248.5 292.5 248.4 292.8 248.5C317 263 330 286.2 333.7 301.8C339.5 326.1 343.3 349 327.2 362C327.1 362.1 327 362.2 326.9 362.2Z" fill="#0C41E2"/>
<path d="M206.5 320.7L194.2 325.6C194.2 325.6 199.3 317.7 196.9 319.1C194.5 320.5 188 329.6 185.5 327.3C183 325 189.6 316.8 189.6 316.8C182.4 320.8 180.1 319.8 183.5 314.5C186.9 309.2 200.1 305 200.1 305C195.1 302.3 196 298.3 197.5 297.5C199 296.7 211.5 297.9 220.8 303.9C220.9 304 209.3 306.7 206.5 320.7Z" fill="#EDF1FE"/>
<path d="M186.4 328.2C185.9 328.2 185.5 328 185.1 327.7C183.1 325.8 186 320.9 187.9 318.3C184.7 319.9 182.7 320.2 181.8 319.3C180.9 318.4 181.4 316.8 183 314.3C185.9 309.8 195.6 306.1 198.9 304.9C196.9 303.6 195.8 301.8 195.8 300C195.7 298.8 196.3 297.7 197.3 297.1C199 296.2 211.7 297.5 221.1 303.5C221.3 303.6 221.4 304 221.3 304.2C221.2 304.3 221.1 304.4 221 304.4C220.9 304.4 209.7 307.3 207 320.8C207 321 206.9 321.1 206.7 321.2L194.3 326.1C194.1 326.2 193.9 326.1 193.7 326C193.6 325.8 193.6 325.6 193.7 325.4C194.9 323.6 196 321.7 196.8 319.7C195.7 320.6 194.7 321.6 193.8 322.6C191.3 325.3 188.4 328.2 186.4 328.2ZM189.6 316.4C189.9 316.4 190.1 316.6 190.1 316.9C190.1 317 190.1 317.1 190 317.2C187.6 320.2 184.3 325.6 185.8 327C187.1 328.2 190.7 324.4 193.1 321.9C194.1 320.7 195.3 319.6 196.6 318.7C197.1 318.4 197.5 318.4 197.8 318.7C198.1 319 198.6 319.5 195.4 324.6L206 320.3C208.4 308.9 216.7 304.9 219.6 303.8C210.2 298.3 198.8 297.4 197.7 298C197 298.5 196.7 299.2 196.7 300.1C196.7 301.8 198 303.5 200.2 304.7C200.4 304.8 200.5 305.1 200.4 305.4C200.3 305.5 200.2 305.6 200.1 305.6C200 305.6 187 309.9 183.8 314.9C181.9 317.8 182.3 318.5 182.4 318.6C182.5 318.7 183.5 319.5 189.2 316.4C189.4 316.4 189.5 316.4 189.6 316.4Z" fill="#0C41E2"/>
<path d="M206.5 321.2C206.2 321.2 206 320.9 206 320.7C206.8 310.6 217.9 303.8 220.8 303.5C223.7 303.2 235.2 307.6 235.7 307.8C235.9 307.9 236 308.2 235.9 308.5C235.8 308.7 235.6 308.8 235.3 308.7C232.1 307.4 223.3 304.2 220.9 304.5C218.1 304.8 207.7 311.3 207 320.8C207 321 206.7 321.2 206.5 321.2Z" fill="#0C41E2"/>
<path d="M189.6 317.4C189.5 317.4 189.3 317.3 189.2 317.2C189 317 189 316.7 189.2 316.5C191.9 314.3 195.1 312.8 198.5 312.1C198.8 312 199 312.2 199.1 312.5C199.2 312.8 199 313 198.7 313.1C195.5 313.8 192.4 315.2 189.8 317.3C189.8 317.3 189.7 317.4 189.6 317.4Z" fill="#0C41E2"/>
<path d="M196.8 319.6C196.7 319.6 196.5 319.5 196.4 319.5C196.2 319.3 196.2 319 196.4 318.8C198 317.3 199.9 316.2 202 315.6C202.3 315.5 202.5 315.6 202.6 315.9C202.7 316.2 202.6 316.4 202.3 316.5C200.4 317.1 198.6 318.2 197.1 319.5C197.1 319.6 197 319.7 196.8 319.6Z" fill="#0C41E2"/>
<path d="M192.7 363.1C192.4 363.1 192.2 362.9 192.2 362.6C192.2 362.3 192.4 362.1 192.7 362.1C216.4 361.9 242.4 349.7 254.9 338.4C264.5 329.6 277.5 325.2 290.5 326.4C294.6 319.5 290.9 308.3 290.4 306.7C278.6 301.3 259.4 302.8 233 311.3C214.4 317.3 190 328 189.8 328.1C189.5 328.2 189.3 328.1 189.1 327.8C188.9 327.5 189.1 327.3 189.4 327.1C189.6 327 214 316.3 232.7 310.3C259.4 301.7 279 300.1 291 305.8C291.1 305.9 291.2 306 291.3 306.1C291.5 306.6 296.2 319.3 291.3 327.1C291.2 327.3 291 327.4 290.8 327.3C278 326 265.2 330.3 255.7 339C242.9 350.6 216.6 362.9 192.7 363.1Z" fill="#0C41E2"/>
<path d="M291.4 308.3C298 303.3 302.1 303 303.9 304C305.7 305 304.8 307.1 300.5 311.1C300.5 311.1 314.1 315.7 313.7 331L290.8 327C290.8 327 293.9 315.7 291.4 308.3Z" fill="#EDF1FE"/>
<path d="M313.7 331.5L290.7 327.5C290.6 327.5 290.4 327.4 290.4 327.3C290.3 327.2 290.3 327 290.3 326.9C290.3 326.8 293.3 315.7 290.9 308.5C290.8 308.3 290.9 308.1 291.1 307.9C299 301.9 302.9 302.9 304.1 303.5C304.7 303.8 305.1 304.3 305.2 305C305.4 306.3 304.2 308.1 301.4 310.9C304.3 312.2 314.5 317.6 314.2 331C314.2 331.1 314.1 331.3 314 331.4C313.9 331.5 313.8 331.5 313.7 331.5ZM291.4 326.5L313.2 330.4C313.3 316.1 300.5 311.6 300.4 311.6C300.2 311.5 300.1 311.4 300.1 311.2C300.1 311 300.1 310.9 300.2 310.7C303 307.9 304.4 306.1 304.3 305.1C304.2 304.8 304 304.5 303.7 304.4C301.9 303.4 297.9 304 292 308.5C294 315 292 324.2 291.4 326.5Z" fill="#0C41E2"/>
<path d="M300.5 316.4C305.8 321.7 306.5 329.7 306.5 329.7Z" fill="#EDF1FE"/>
<path d="M306.5 330.2C306.2 330.2 306 330 306 329.7C306 329.6 305.3 321.8 300.2 316.7C300 316.5 300 316.2 300.2 316C300.4 315.8 300.7 315.8 300.9 316C306.3 321.4 307 329.3 307 329.6C307 330 306.8 330.2 306.5 330.2Z" fill="#0C41E2"/>
<path d="M296.9 319.5C299.8 322.6 299.8 328.5 299.8 328.5Z" fill="#EDF1FE"/>
<path d="M299.8 329C299.5 329 299.3 328.8 299.3 328.5C299.3 328.4 299.3 322.7 296.5 319.8C296.3 319.6 296.3 319.3 296.5 319.1C296.7 318.9 297 318.9 297.2 319.1C300.2 322.3 300.2 328.2 300.2 328.5C300.2 328.8 300 329 299.8 329Z" fill="#0C41E2"/>
<path d="M290.8 306.9C290.5 306.9 290.3 306.7 290.3 306.4C290.3 306.2 289.1 284.4 285.2 273.1C285.1 272.8 285.2 272.6 285.5 272.5C285.8 272.4 286 272.5 286.1 272.8C290 284.2 291.2 306.1 291.2 306.3C291.3 306.6 291.1 306.9 290.8 306.9Z" fill="#0C41E2"/>
<path d="M299.8 367.3C281.3 366.1 259.1 358.9 241.9 348.6C241.7 348.5 241.6 348.2 241.7 347.9C241.8 347.7 242.1 347.6 242.4 347.7C259.5 358 281.5 365.1 299.9 366.3C300.2 366.3 300.4 366.5 300.4 366.8C300.4 367.1 300.1 367.3 299.8 367.3Z" fill="#0C41E2"/>
<path d="M200.3 297.8C200 297.8 199.8 297.6 199.8 297.3C199.8 297.1 200.2 279.1 201.7 267.3C201.7 267 202 266.8 202.3 266.9C202.6 266.9 202.8 267.2 202.7 267.4C201.2 279.1 200.8 297.1 200.8 297.3C200.8 297.6 200.6 297.8 200.3 297.8Z" fill="#0C41E2"/>
<path d="M229 223.3C229 234.4 227.9 247.4 227.9 247.4C227.9 247.4 231.1 257.8 242.1 258.2C253.1 258.6 253 249.2 252.9 247.3C252.8 245.4 250.9 239.2 250.6 237.1C250.3 235 229 223.3 229 223.3Z" fill="#EDF1FE"/>
<path d="M242.8 258.7H242.1C230.9 258.3 227.5 247.7 227.4 247.6C227.4 247.5 227.4 247.5 227.4 247.4C227.4 247.3 228.5 234.3 228.5 223.3C228.5 223.1 228.6 223 228.7 222.9C228.9 222.8 229 222.8 229.2 222.9C234.2 225.7 250.6 235 251 237.1C251.1 237.9 251.5 239.4 252 241C252.6 243.1 253.1 245.2 253.4 247.3C253.5 248.9 253.4 253.1 250.6 255.9C248.9 257.8 246.2 258.7 242.8 258.7ZM228.4 247.4C228.8 248.5 232 257.4 242.1 257.7C245.5 257.8 248.2 257 249.9 255.2C252.4 252.6 252.5 248.8 252.4 247.3C252.1 245.2 251.6 243.2 251 241.2C250.6 239.6 250.2 238.1 250 237.2C249.6 236 239.4 229.6 229.4 224.1C229.5 234.5 228.6 246.2 228.4 247.4Z" fill="#0C41E2"/>
<path d="M281.2 194.8C281.2 194.8 286.8 224.8 273.5 234.8C260.2 244.8 231.4 238.4 225.6 218C225.6 218 218.7 223.8 214.8 216C210.9 208.2 218.4 201.6 225.8 206.3C225.8 206.3 229.9 199 245.1 196.2C260.3 193.4 269.1 185.3 269.1 185.3C269.1 185.3 271 190.8 281.2 194.8Z" fill="#EDF1FE"/>
<path d="M257.8 240C253.6 240 249.4 239.3 245.5 237.9C235.5 234.5 228.2 227.6 225.5 218.9C224.4 219.7 221.9 221.1 219.3 220.5C217.3 220.1 215.7 218.7 214.5 216.3C212.6 212.6 213.1 208.7 215.8 206.2C218.5 203.7 222.3 203.6 225.8 205.7C227 204 231.9 198.2 245.2 195.7C260 192.9 268.8 185.1 268.9 185C269 184.9 269.2 184.8 269.4 184.9C269.6 184.9 269.7 185.1 269.8 185.2C269.8 185.2 271.8 190.4 281.6 194.3C281.8 194.4 281.9 194.5 281.9 194.7C282.8 200.1 283.2 205.6 283.1 211.1C282.8 222.7 279.6 231.1 274.1 235.2C269.7 238.4 264 240 257.8 240ZM225.7 217.6H225.8C226 217.6 226.1 217.8 226.1 217.9C228.5 226.6 235.7 233.5 245.7 236.9C255.7 240.3 266.6 239.3 273.2 234.4C285.4 225.2 281.2 198.2 280.7 195.2C272.6 191.9 269.7 187.8 268.9 186.3C262 191.7 253.8 195.3 245.2 196.8C230.5 199.5 226.3 206.6 226.3 206.7C226.2 206.8 226.1 206.9 226 206.9C225.9 206.9 225.7 206.9 225.6 206.8C222.4 204.7 218.7 204.8 216.4 207C214.6 208.7 213.3 211.9 215.3 215.9C216.4 218 217.7 219.2 219.4 219.6C222.3 220.2 225.3 217.8 225.3 217.7C225.4 217.6 225.6 217.6 225.7 217.6Z" fill="#0C41E2"/>
<path d="M253.2 204.4C252.5 203.8 251.8 203.3 251 202.9C250.3 202.5 249.4 202.3 248.6 202.2C247.8 202.1 246.9 202.2 246.1 202.4C245.9 202.4 245.7 202.5 245.5 202.6L244.9 202.8C244.5 203 244.1 203.2 243.7 203.4H243.6C243.3 203.5 243.1 203.4 243 203.1C242.9 202.9 243 202.7 243.1 202.5C243.5 202.2 243.9 201.8 244.3 201.5C244.7 201.2 245.2 201 245.7 200.8C246.7 200.4 247.8 200.2 248.9 200.3C250 200.4 251 200.8 251.9 201.4C252.8 202 253.5 202.7 254.1 203.6C254.2 203.8 254.2 204.1 253.9 204.3C253.6 204.5 253.3 204.5 253.2 204.4Z" fill="#0C41E2"/>
<path d="M278.5 203.6C278.2 203.3 277.9 203 277.5 202.8C277.1 202.6 276.6 202.4 276.1 202.3C275.1 202.1 274.2 202 273.2 202.1C272.2 202.2 271.2 202.4 270.3 202.7C269.3 203.1 268.4 203.5 267.5 204C267.2 204.1 266.9 204 266.8 203.7C266.7 203.5 266.8 203.3 266.9 203.1C267.7 202.3 268.7 201.7 269.7 201.2C270.8 200.7 271.9 200.4 273.1 200.3C274.3 200.2 275.5 200.4 276.6 200.8C277.2 201 277.7 201.3 278.2 201.7C278.8 202.1 279.2 202.6 279.4 203.2C279.5 203.5 279.4 203.7 279.1 203.8C278.9 203.9 278.7 203.8 278.5 203.7V203.6Z" fill="#0C41E2"/>
<path d="M267.2 221C267 221 266.7 221 266.5 220.9C264.3 220.5 262.7 218.5 262.8 216.3C262.8 216 263.1 215.8 263.3 215.9C263.6 215.9 263.8 216.2 263.7 216.5C263.6 218.2 264.9 219.8 266.6 220.1C267.8 220.4 269 219.7 269.3 218.5C269.3 218.4 269.3 218.4 269.3 218.3C269.5 217.7 269.4 217.1 269.1 216.5C268.3 215.3 266.1 214.8 265.3 214.7C265 214.7 264.8 214.4 264.8 214.2C265 210.6 265.6 207 266.5 203.5C266.6 203.2 266.8 203.1 267.1 203.1C267.4 203.2 267.5 203.4 267.5 203.7C266.7 207 266.1 210.3 265.9 213.7C266.8 213.9 268.9 214.4 269.9 215.8C270.4 216.6 270.5 217.5 270.3 218.4C270.1 219.9 268.8 221 267.2 221Z" fill="#0C41E2"/>
<path d="M246.1 208.7C245.4 210.3 245.8 212.1 246.9 212.5C248 212.9 249.5 212 250.2 210.4C250.4 209.9 250.5 209.4 250.5 208.9L248.1 209.1L250 207.1C249.8 206.8 249.6 206.7 249.3 206.5C248.2 206.1 246.7 207.1 246.1 208.7Z" fill="#0C41E2"/>
<path d="M270.6 207.8C269.8 209.4 270 211.1 271.1 211.7C272.2 212.3 273.7 211.5 274.6 209.9C274.8 209.5 275 209 275.1 208.5H272.7L274.8 206.7C274.6 206.4 274.4 206.2 274.1 206.1C273 205.4 271.4 206.2 270.6 207.8Z" fill="#0C41E2"/>
<path d="M216.9 212C216.8 212 216.8 212 216.7 212C216.4 211.9 216.3 211.6 216.4 211.4C216.9 210.1 217.9 209.1 219.2 208.7C220.8 208.3 222.6 208.5 224.1 209.3C224.3 209.4 224.4 209.7 224.3 210C224.2 210.2 223.9 210.3 223.6 210.2C222.4 209.5 220.9 209.3 219.5 209.6C218.5 210 217.7 210.8 217.3 211.8C217.3 211.9 217.1 212 216.9 212Z" fill="#0C41E2"/>
<path d="M220.9 216.9C220.8 216.9 220.8 216.9 220.7 216.9C219.6 216.5 218.8 215.6 218.5 214.5C217.9 212.7 218.1 210.7 218.9 208.9C219 208.7 219.3 208.6 219.6 208.7C219.8 208.8 219.9 209.2 219.8 209.4C219.1 210.9 219 212.6 219.5 214.1C219.7 214.9 220.3 215.6 221.1 215.9C221.4 216 221.5 216.3 221.4 216.5C221.2 216.7 221.1 216.9 220.9 216.9Z" fill="#0C41E2"/>
<path d="M253.3 228.4C252.6 228.4 251.8 228.2 251.2 227.9C249.2 226.8 248.2 224.5 248.7 222.3C248.7 222 249 221.8 249.3 221.9C249.6 221.9 249.8 222.2 249.7 222.5C249.3 224.3 250.1 226.1 251.7 227C253.3 227.8 255.4 227.3 257 225.7C257.2 225.5 257.5 225.5 257.7 225.7C257.9 225.9 257.9 226.2 257.7 226.4C256.6 227.6 255 228.3 253.3 228.4Z" fill="#0C41E2"/>
<path d="M281.7 194.5C276.4 181.2 270.2 178.8 270.2 178.8C270.2 178.8 267.9 176.1 272.1 175.7C276.3 175.3 287.5 182.2 287.7 193.7C287.7 193.7 284.9 203.6 282.9 206.5L281.7 194.5Z" fill="#6A90FF"/>
<path d="M225.8 204C240.2 184.3 267 178.6 267 178.6C267 178.6 267.5 176.1 263.4 175.5C259.3 174.9 237.5 182 229.4 190.5C221.3 199 220.5 203.4 220.5 203.4C220.5 203.4 222.2 202.7 225.8 204Z" fill="#6A90FF"/>
<path d="M264.2 174.4C262.1 171.6 258.6 170.1 255.1 170.6C253.1 170.8 253 170.5 253 170.5C253 170.5 256.6 176.2 259.6 176.9C262.6 177.6 264.2 174.4 264.2 174.4Z" fill="#6A90FF"/>
<path d="M268.9 174.5C271.7 172.1 273.3 172.4 275.4 172.3C276.3 172.3 277.2 172.2 278.1 172C278.1 172 274.6 177.8 271.3 177.6C270 177.7 268.9 176.8 268.8 175.6C268.7 175.2 268.7 174.8 268.9 174.5Z" fill="#6A90FF"/>
<path d="M267.6 173.2C263.8 171.7 260.6 174.6 261 176.8C261.4 179 266.1 180.9 268.8 180.8C270.7 180.8 272.5 179.8 273.6 178.3C274.5 177.2 271 173.5 267.6 173.2Z" fill="#6A90FF"/>
<path d="M272.3 179.8C272.1 179.8 272 179.7 271.9 179.6C271.7 179.4 271.8 179.1 272 178.9C272.7 178.3 272.8 177.3 272.4 176.5C272.3 176.3 272.4 176 272.6 175.8C272.8 175.7 273.1 175.8 273.3 176V176.1C273.8 177.3 273.5 178.7 272.5 179.6C272.5 179.7 272.4 179.8 272.3 179.8Z" fill="#0C41E2"/>
<path d="M261.1 178.4C260.9 178.4 260.7 178.3 260.6 178.1C259.8 176.3 260.499 174.2 262.299 173.3C262.499 173.2 262.8 173.2 263 173.5C263.1 173.7 263.099 174 262.799 174.2C261.499 174.8 260.899 176.3 261.399 177.6C261.399 177.7 261.5 177.7 261.5 177.8C261.6 178.1 261.4 178.3 261.2 178.4H261.1Z" fill="#0C41E2"/>
<path d="M261.2 175.5C261.1 175.5 261.1 175.5 261 175.5C258.9 174.6 256.9 173.4 255.1 172C254.9 171.8 254.9 171.5 255.1 171.3C255.3 171.1 255.6 171.1 255.8 171.3C257.5 172.7 259.4 173.8 261.4 174.6C261.7 174.7 261.9 174.9 261.8 175.2C261.7 175.5 261.5 175.6 261.2 175.5Z" fill="#0C41E2"/>
<path d="M272 175.5C271.8 175.5 271.6 175.4 271.5 175.2C271.4 174.9 271.5 174.7 271.8 174.6C273.2 174.1 274.5 173.4 275.8 172.7C276 172.5 276.3 172.6 276.5 172.8C276.7 173 276.6 173.3 276.4 173.5C275.1 174.3 273.6 175 272.2 175.6L272 175.5Z" fill="#0C41E2"/>
</svg>
