<svg width="500" height="500" viewBox="0 0 500 500" fill="none" xmlns="http://www.w3.org/2000/svg">
<path fill-rule="evenodd" clip-rule="evenodd" d="M225.971 25.1972C173.856 13.8562 116.212 -16.105 70.4645 11.0927C24.7489 38.2716 21.1298 101.923 10.041 153.572C0.0699445 200.015 -6.38105 247.92 10.0414 292.529C26.1018 336.155 65.4619 363.588 99.2206 395.814C139.531 434.294 170.623 490.277 225.971 498.653C283.22 507.317 337.501 472.641 384.381 438.967C431.293 405.271 474.641 363.383 490.959 308.315C507.034 254.067 502.281 191.754 471.801 143.951C443.903 100.197 385.622 92.1429 338.658 69.456C301.429 51.4716 266.428 34.0013 225.971 25.1972Z" fill="#EDF1FE"/>
<path d="M299 214.4H89.5C89.2 214.4 89 214.2 89 213.9C89 213.6 89.2 213.4 89.5 213.4H299C299.3 213.4 299.5 213.6 299.5 213.9C299.5 214.2 299.3 214.4 299 214.4Z" fill="#0C41E2"/>
<path d="M408.399 378.5C414.299 382 416.399 387.3 417.699 391.1C418.999 394.9 425.199 393.4 423.799 387.5C422.399 381.6 421.699 375.7 422.399 371.4C423.099 367.1 408.399 378.5 408.399 378.5Z" fill="#EDF1FE"/>
<path d="M420.5 393.7C419 393.7 417.6 392.8 417.2 391.3C415.7 387 413.6 382.2 408.1 379C407.9 378.9 407.8 378.6 407.9 378.3C407.9 378.2 408 378.2 408 378.2C410.9 376 420.4 368.8 422.5 370.1C422.9 370.4 423.1 371 423 371.5C422.3 375.2 422.8 380.6 424.3 387.4C425.1 390.9 423.5 393 421.5 393.6C421.2 393.6 420.9 393.7 420.5 393.7ZM409.2 378.5C415 382.2 417 387.9 418.1 391C418.5 392.3 419.9 393 421.2 392.6C422.7 392.2 423.9 390.5 423.3 387.6C421.7 380.5 421.3 375.2 421.9 371.3C421.9 371 421.9 370.9 421.9 370.9C421.2 370.2 415.4 373.8 409.2 378.5Z" fill="#0C41E2"/>
<path d="M251.499 392C246.799 396.9 246.199 402.6 245.899 406.6C245.599 410.6 239.299 410.8 238.999 404.7C238.699 398.6 237.899 392.7 235.999 388.8C234.099 384.9 251.499 392 251.499 392Z" fill="#EDF1FE"/>
<path d="M242.8 410C240.8 410 238.7 408.3 238.5 404.8C238.2 397.8 237.2 392.5 235.6 389.1C235.3 388.7 235.3 388.1 235.7 387.6C237.4 385.8 248.4 390.2 251.8 391.6C252 391.7 252.1 391.8 252.1 392C252.1 392.2 252.1 392.3 252 392.5C247.6 397.1 246.9 402.3 246.5 406.8C246.3 408.6 244.7 410.1 242.8 410ZM236.3 388.3C236.3 388.3 236.3 388.4 236.4 388.6C238.1 392.2 239.1 397.5 239.5 404.7C239.6 407.6 241.3 408.9 242.8 409C244.2 409.1 245.3 408 245.4 406.6C245.6 403.3 246.1 397.3 250.7 392.2C243.5 389.3 236.9 387.5 236.3 388.3Z" fill="#0C41E2"/>
<path d="M223 338.7C230 379.3 230.6 392.6 236.6 393.3C242.6 394 330.9 403.9 343.5 402.6C356.1 401.3 424.3 385.4 428.3 370.7C432.3 356 413.3 321.7 414.3 297.8C414.3 297.8 437.3 280.7 436.3 244.8C435.3 208.9 425.2 166.1 378.8 166.9C332.4 167.7 267 260.3 267 260.3L260 287.2C260 287.2 235.4 296.2 232.1 300.5C228.8 304.8 223 338.7 223 338.7Z" fill="#6A90FF"/>
<path d="M352.899 398.9C352.899 398.9 352.399 406.2 335.399 421.8C335.399 421.8 330.099 412.6 316.399 413.4L320.599 404.9L338.599 388.7C342.299 393.7 347.499 395.6 350.699 397.4C351.499 397.8 352.299 398.3 352.899 398.9Z" fill="#EDF1FE"/>
<path d="M335.399 422.2C335.199 422.2 335.099 422.1 334.999 422C334.999 421.9 329.599 413.1 316.499 413.8C316.299 413.8 316.199 413.7 316.099 413.6C315.999 413.4 315.999 413.3 316.099 413.1L320.299 404.6L320.399 404.5L338.399 388.3C338.499 388.2 338.599 388.2 338.799 388.2C338.899 388.2 339.099 388.3 339.199 388.4C341.999 392.3 345.799 394.2 348.799 395.8C349.599 396.2 350.399 396.6 351.099 397C351.899 397.5 352.599 398 353.299 398.5C353.399 398.6 353.499 398.8 353.499 398.9C353.499 399.2 352.699 406.5 335.799 422.1C335.699 422.2 335.599 422.3 335.399 422.2ZM317.999 412.8C322.799 412.7 327.399 414.1 331.399 416.9C332.999 418 334.399 419.4 335.599 421C350.199 407.5 352.199 400.4 352.499 399.1C351.899 398.6 351.299 398.2 350.599 397.8C349.899 397.4 349.199 397 348.299 396.6C345.299 395.1 341.499 393.1 338.599 389.4L321.099 405.2L317.299 412.9L317.999 412.8Z" fill="#0C41E2"/>
<path d="M355.499 404.9C354.899 408.2 334.899 429.1 334.899 429.1C334.899 429.1 321.799 441.4 314.299 444.2C306.799 447 303.999 443.3 304.199 440.4C304.199 440.4 308.699 444.3 316.199 438.2C323.699 432.1 335.399 421.7 335.399 421.7C352.399 406.1 352.899 398.8 352.899 398.8C354.899 400.5 355.899 402.4 355.499 404.9Z" fill="#6A90FF"/>
<path d="M309.4 445.8C308 445.9 306.7 445.5 305.5 444.7C304.2 443.7 303.4 442.1 303.6 440.4C303.6 440.2 303.8 440.1 303.9 440C304.1 439.9 304.3 440 304.4 440.1C304.6 440.2 308.6 443.6 315.8 437.9C323.3 431.8 334.9 421.5 335 421.4C351.6 406.1 352.3 398.9 352.4 398.8C352.4 398.6 352.5 398.4 352.7 398.4C352.9 398.3 353.1 398.4 353.2 398.5C355.5 400.4 356.3 402.5 355.9 405C355.3 408.4 337.3 427.4 335.2 429.5C334.6 430 321.9 441.9 314.4 444.7C312.9 445.4 311.2 445.8 309.4 445.8ZM304.7 441.4C304.8 442.4 305.4 443.3 306.2 443.9C307.9 445.2 310.7 445.1 314.1 443.9C321.5 441.1 334.4 429 334.6 428.9C342.6 420.5 354.6 407.3 355 404.9C355.3 403 354.7 401.2 353.3 399.9C352.6 402.3 349.6 409.5 335.8 422.2C335.7 422.3 324 432.6 316.5 438.7C310.5 443.5 306.4 442.3 304.7 441.4Z" fill="#0C41E2"/>
<path d="M335.399 421.8C335.399 421.8 323.699 432.1 316.199 438.3C308.699 444.5 304.199 440.5 304.199 440.5C304.199 440.5 301.799 436.1 304.199 429.3C306.599 422.5 311.099 415.5 312.299 414.6C313.599 413.9 314.999 413.5 316.399 413.4C330.099 412.6 335.399 421.8 335.399 421.8Z" fill="#6A90FF"/>
<path d="M308.1 442.2C306.6 442.3 305 441.8 303.8 440.8L303.7 440.7C303.6 440.5 301.3 436.1 303.7 429.1C306 422.3 310.6 415.2 312 414.2C313.4 413.5 314.9 413 316.4 412.9C321.7 412.4 327 413.9 331.3 416.9C333.1 418.1 334.6 419.7 335.8 421.5C335.9 421.7 335.9 422 335.7 422.1C335.6 422.2 323.9 432.5 316.5 438.6C313.1 441.4 310.2 442.2 308.1 442.2ZM304.6 440.1C305.2 440.6 309.2 443.2 315.9 437.8C322.6 432.4 332.9 423.3 334.8 421.6C333.7 420 328.2 413.1 316.5 413.7C315.1 413.8 313.8 414.2 312.6 414.8C311.4 415.6 306.9 422.5 304.6 429.2C302.6 435.4 304.3 439.5 304.6 440.1Z" fill="#0C41E2"/>
<path d="M296.9 284.8C296.9 284.8 255.7 311 260.3 327.8C264.8 344.6 304.1 408.8 312.8 408.6C321.5 408.4 339.8 394.6 341.3 388.6L312.2 331C312.2 331 331.8 323.8 339.8 317.8C339.8 317.8 329.8 294.4 338.9 283.6C348 272.8 367.1 264.1 367.1 264.1L366 257.5L296.9 284.8Z" fill="#EDF1FE"/>
<path d="M312.8 409.1C303.3 409.1 264.2 343.9 259.8 327.9C255.2 310.9 295 285.4 296.7 284.3H296.8L365.9 257.1C366 257 366.2 257 366.3 257.1C366.4 257.2 366.5 257.3 366.5 257.5L367.6 264.1C367.6 264.3 367.5 264.5 367.3 264.6C367.1 264.7 348.2 273.4 339.3 283.9C330.4 294.4 340.1 317.3 340.2 317.6C340.3 317.8 340.2 318.1 340 318.2C332.6 323.7 316 330.1 312.8 331.3L341.6 388.4C341.6 388.5 341.6 388.6 341.6 388.8C340.2 395.1 321.7 408.9 312.8 409.1ZM297.2 285.2C295.7 286.2 256.5 311.6 260.8 327.7C265.5 345.3 304.6 408.2 312.8 408.2C321.1 408 339 394.7 340.8 388.7L311.8 331.3C311.7 331.2 311.7 331 311.8 330.9C311.8 330.8 312 330.7 312.1 330.6C312.3 330.5 331.2 323.6 339.3 317.7C338 314.6 330 293.6 338.7 283.4C347.1 273.5 364.1 265.2 366.7 264L365.7 258.4L297.2 285.2Z" fill="#0C41E2"/>
<path d="M258.899 309C258.899 309 258.399 316.3 241.399 331.9C241.399 331.9 236.099 322.7 222.399 323.5L226.599 315L244.599 298.8C248.299 303.8 253.499 305.7 256.699 307.5C257.499 308 258.199 308.5 258.899 309Z" fill="#EDF1FE"/>
<path d="M241.399 332.5C241.199 332.5 241.099 332.4 240.999 332.3C240.999 332.2 235.599 323.4 222.499 324.1C222.299 324.1 222.199 324 222.099 323.9C221.999 323.7 221.999 323.6 222.099 323.4L226.299 314.9C226.299 314.8 226.399 314.8 226.399 314.8L244.399 298.6C244.499 298.5 244.599 298.5 244.799 298.5C244.899 298.5 245.099 298.6 245.199 298.7C247.999 302.6 251.799 304.5 254.799 306.1C255.599 306.5 256.399 306.9 257.099 307.3C257.899 307.7 258.599 308.3 259.299 308.8C259.399 308.9 259.499 309.1 259.499 309.2C259.499 309.5 258.699 316.8 241.799 332.4C241.599 332.4 241.499 332.5 241.399 332.5ZM223.999 323C228.799 322.9 233.399 324.3 237.399 327.1C238.999 328.2 240.399 329.6 241.599 331.2C256.199 317.7 258.199 310.6 258.499 309.3C257.899 308.8 257.299 308.4 256.599 308C255.899 307.6 255.199 307.2 254.299 306.8C251.299 305.3 247.499 303.4 244.599 299.6L226.999 315.3L223.199 323H223.999Z" fill="#0C41E2"/>
<path d="M261.4 315.1C260.8 318.4 240.8 339.3 240.8 339.3C240.8 339.3 227.7 351.6 220.2 354.4C212.7 357.2 209.9 353.5 210.1 350.6C210.1 350.6 214.5 354.5 222.1 348.4C229.7 342.3 241.3 332 241.3 332C258.3 316.4 258.8 309.1 258.8 309.1C260.8 310.7 261.9 312.6 261.4 315.1Z" fill="#6A90FF"/>
<path d="M215.4 356C214 356.1 212.7 355.7 211.5 354.9C210.2 353.9 209.4 352.3 209.6 350.6C209.6 350.4 209.7 350.3 209.9 350.2C210.1 350.1 210.3 350.2 210.4 350.3C210.6 350.4 214.7 353.8 221.8 348.1C229.3 342.1 240.9 331.8 241 331.7C257.6 316.4 258.4 309.2 258.4 309.1C258.4 308.9 258.5 308.7 258.7 308.7C258.9 308.6 259.1 308.7 259.2 308.8C261.5 310.7 262.3 312.8 261.9 315.3C261.3 318.7 243.3 337.7 241.2 339.8C240.6 340.3 227.9 352.2 220.4 355C218.8 355.6 217.1 356 215.4 356ZM210.7 351.6C210.9 352.6 211.4 353.5 212.2 354.1C213.9 355.4 216.7 355.3 220.1 354.1C227.5 351.3 240.5 339.2 240.6 339.1C248.6 330.7 260.6 317.4 261 315.1C261.3 313.2 260.7 311.3 259.3 310.1C258.6 312.5 255.6 319.7 241.8 332.4C241.7 332.5 230 342.8 222.6 348.9C216.5 353.6 212.4 352.5 210.7 351.6Z" fill="#0C41E2"/>
<path d="M241.399 332C241.399 332 229.699 342.3 222.199 348.5C214.699 354.7 210.199 350.7 210.199 350.7C210.199 350.7 207.799 346.3 210.199 339.5C212.599 332.7 217.099 325.7 218.299 324.8C219.599 324.1 220.999 323.7 222.399 323.6C236.099 322.8 241.399 332 241.399 332Z" fill="#6A90FF"/>
<path d="M214.1 352.4C212.6 352.4 211 351.9 209.8 351L209.7 350.9C209.6 350.7 207.3 346.3 209.7 339.3C212 332.5 216.6 325.4 218 324.4C219.4 323.7 220.8 323.2 222.4 323.1C227.7 322.6 233 324.1 237.3 327.1C239.1 328.3 240.6 329.9 241.8 331.7C241.9 331.9 241.9 332.2 241.7 332.3C241.6 332.4 229.9 342.7 222.5 348.8C219 351.6 216.2 352.4 214.1 352.4ZM210.5 350.3C211.1 350.8 215.1 353.4 221.8 348C228.5 342.6 238.7 333.5 240.7 331.8C239.6 330.2 234.1 323.3 222.4 324C221 324.1 219.7 324.5 218.5 325.1C217.3 325.9 212.8 332.8 210.5 339.5C208.5 345.6 210.2 349.7 210.5 350.3Z" fill="#0C41E2"/>
<path d="M285.2 298C272.7 298.8 251.3 294.1 237 281.3L248.3 300.2C248.3 300.2 236.2 316.2 220.8 318.4C220.8 318.4 140.9 252.1 163.5 231.4C186.1 210.7 206.199 224.7 225.899 239.3C245.599 253.9 292 278.3 292 278.3L302.5 287.9L285.2 298Z" fill="#EDF1FE"/>
<path d="M220.8 318.9C220.7 318.9 220.6 318.9 220.5 318.8C209.9 309.8 199.7 300.3 190.1 290.3C169.8 269.1 159.3 252.7 159 241.5C158.7 237.6 160.3 233.7 163.2 231.1C186.7 209.6 207.7 225.2 226.2 239C245.7 253.5 291.8 277.7 292.2 277.9L292.3 278L302.8 287.7C302.9 287.8 303 288 303 288.1C303 288.3 302.9 288.4 302.8 288.5L285.6 298.6C285.5 298.6 285.5 298.7 285.4 298.7C272.4 299.6 252.8 294.7 239.1 283.8L248.9 300.1C249 300.3 249 300.5 248.9 300.7C248.5 300.6 236.2 316.7 220.8 318.9ZM187.2 221.5C179.7 221.5 171.8 224.4 163.7 231.8C161 234.3 159.6 237.8 159.8 241.4C160.4 266.8 217.2 314.9 220.8 317.9C234.6 315.8 245.9 302.3 247.5 300.2L236.4 281.6C236.3 281.4 236.3 281.1 236.5 281C236.7 280.8 237 280.8 237.2 281C250.7 293.1 271.4 298.5 284.9 297.6L301.4 287.9L291.5 278.8C289.6 277.8 244.6 254.1 225.4 239.8C213.7 231 201 221.5 187.2 221.5Z" fill="#0C41E2"/>
<path d="M381.7 241C381 250.7 369.5 252.7 369.5 252.7C369.5 252.7 371 256.5 369.5 258.8C368 261.1 353.6 264.7 353.6 264.7L309.4 274.1C309.4 274.1 252.4 255.7 254.4 226.7C256.4 197.7 279.6 170.2 313.2 165.8C317.7 165.2 322.2 164.9 326.8 165C326.9 170 329.1 174.9 332.6 176.5C336.1 178 339.9 178.6 343.7 178.2C339.3 180.9 334.3 192.6 337.5 193.6C340.7 194.6 343.1 185.2 347 181.5C350.9 177.8 359.1 177.4 359.5 177.3C363.3 181 366.6 185.4 369 190.1C372.8 197.5 376.3 208.4 378.7 218.5C380.8 227.8 382 236.4 381.7 241Z" fill="#6A90FF"/>
<path d="M366.6 261.1C366.4 261.1 366.2 261 366.1 260.8C366 260.5 366.1 260.3 366.3 260.1C368.3 259.2 368.9 258.7 369 258.5C370.4 256.4 369 252.9 369 252.8C368.9 252.7 368.9 252.5 369 252.4C369.1 252.3 369.2 252.2 369.4 252.2C369.5 252.2 380.5 250.1 381.1 241C381.4 236.5 380.3 228.2 378.1 218.7C378 218.4 378.2 218.1 378.5 218.1C378.8 218 379.1 218.2 379.1 218.5C381.3 228.1 382.4 236.5 382.1 241.1C381.5 249.8 372.5 252.5 370.1 253.1C370.5 254.3 371.2 257.1 369.9 259.2C369 260.1 368 260.8 366.8 261.2C366.7 261.1 366.7 261.1 366.6 261.1Z" fill="#0C41E2"/>
<path d="M323.9 287.9L355.5 265.4L354.2 260.3L322.5 282.6L323.9 287.9Z" fill="#6A90FF"/>
<path d="M323.9 288.4C323.8 288.4 323.8 288.4 323.7 288.4C323.5 288.3 323.4 288.2 323.4 288.1L322 282.8C321.9 282.6 322 282.4 322.2 282.3L354 259.9C354.1 259.8 354.3 259.8 354.5 259.8C354.7 259.9 354.8 260 354.8 260.2L356.1 265.4C356.2 265.6 356.1 265.8 355.9 265.9L324.3 288.4C324.1 288.4 324 288.4 323.9 288.4ZM323.1 282.8L324.2 287.1L355 265.2L354 261.1L323.1 282.8Z" fill="#0C41E2"/>
<path d="M354.2 260.3L316.6 259.5L322.5 282.6L354.2 260.3Z" fill="#EDF1FE"/>
<path d="M322.5 283.1H322.3C322.1 283 322 282.9 322 282.8L316.1 259.6C316.1 259.5 316.1 259.3 316.2 259.2C316.3 259.1 316.4 259 316.6 259L354.2 259.8C354.4 259.8 354.6 260 354.7 260.2C354.8 260.4 354.7 260.6 354.5 260.7L322.8 283C322.7 283.1 322.6 283.1 322.5 283.1ZM317.2 260L322.8 281.8L352.7 260.7L317.2 260Z" fill="#0C41E2"/>
<path d="M332.3 243.1C327.5 243.1 321.7 241.9 318.7 241.8C315.7 241.7 316.4 247.8 321.7 247.6C327 247.4 332.3 243.1 332.3 243.1Z" fill="#EDF1FE"/>
<path d="M321.399 248.2C319.599 248.3 317.899 247.4 316.999 245.9C316.299 244.9 316.199 243.5 316.799 242.4C317.199 241.7 317.899 241.4 318.699 241.4C319.899 241.4 321.599 241.6 323.599 241.9C326.499 242.3 329.399 242.6 332.299 242.7C332.499 242.7 332.699 242.8 332.799 243C332.899 243.2 332.799 243.4 332.699 243.6C332.499 243.8 327.199 248.1 321.799 248.3L321.399 248.2ZM318.599 242.4C318.199 242.4 317.799 242.6 317.599 242.9C317.199 243.7 317.299 244.7 317.799 245.4C318.599 246.7 320.099 247.4 321.599 247.2C325.199 247.1 328.899 244.9 330.799 243.6C328.299 243.5 325.799 243.2 323.399 242.8C321.499 242.6 319.799 242.4 318.599 242.4Z" fill="#0C41E2"/>
<path d="M340.6 239.1C340.6 239.1 336.3 240.5 331.7 242.1C329.7 242.8 327.6 243.6 325.8 244.2C320 246.4 315.4 250.6 314.4 254.4C313.4 258.2 316.5 258 317.6 255.9C318.7 253.8 325.9 248.8 325.9 248.8C325.9 248.8 321.5 253.4 322.4 259.5C323.3 265.6 325.1 269.7 327.3 268.7C329.5 267.7 327.4 260.4 327.3 258C327.2 255.6 329.4 251.7 329.4 251.7C329.4 251.7 328 258 329.7 262C331.4 266 334.2 269.3 335.8 268.2C337.4 267.1 333.8 262.1 333.3 258.7C333 256.9 333.1 254.9 333.6 253.1C333.6 253.1 333.6 261.6 338.9 261.7C344.2 261.8 345 258.4 343.9 257.7C342.8 257 339.8 258.3 338.9 257.3C338.4 256.5 338.1 255.5 338.2 254.5C338.2 254.5 342.7 254.2 343.4 250.4C343.6 250.5 343.1 241.3 340.6 239.1Z" fill="#EDF1FE"/>
<path d="M326.8 269.4C326.4 269.4 326.1 269.3 325.8 269.1C323.6 267.9 322.5 262.6 322 259.6C321.6 256.6 322.2 253.6 323.8 251C321.5 252.7 318.7 255 318.1 256.2C317.4 257.5 316 258.3 314.9 257.9C314.4 257.7 313.3 257 313.9 254.4C314.9 250.4 319.7 246.1 325.6 243.8C327.2 243.2 329.2 242.5 331.5 241.7C336 240.1 340.4 238.7 340.4 238.7C340.6 238.6 340.7 238.7 340.9 238.8C343.6 241 344.1 250.1 344.1 250.5V250.6C343.4 254 340.1 254.9 338.9 255.1C338.9 255.8 339.1 256.5 339.4 257.1C339.7 257.4 340.7 257.3 341.5 257.2C342.4 257 343.4 257 344.2 257.4C344.8 257.9 345.1 258.7 344.8 259.5C344.4 260.9 342.6 262.4 338.9 262.4C335.7 262.3 334.3 259.7 333.6 257.2C333.6 257.7 333.7 258.2 333.7 258.8C334 260.3 334.6 261.8 335.3 263.3C336.4 265.8 337.3 267.9 336 268.8C335.5 269.1 334.9 269.2 334.4 269C332.6 268.5 330.5 265.7 329.2 262.4C328.4 260 328.2 257.5 328.5 255.1C328.1 256.1 327.8 257.1 327.8 258.2C327.8 258.8 328 259.7 328.2 260.7C328.8 264.2 329.5 268.5 327.5 269.4C327.3 269.4 327 269.4 326.8 269.4ZM326 248.4C326.1 248.4 326.3 248.5 326.4 248.6C326.6 248.8 326.6 249.1 326.4 249.3C326.4 249.3 322.2 253.9 323.1 259.6C323.8 264.4 325.1 267.7 326.4 268.4C326.7 268.5 327 268.5 327.3 268.4C328.6 267.8 327.8 263.3 327.4 260.8C327.2 259.7 327.1 258.8 327 258.1C326.9 255.6 329.1 251.7 329.2 251.5C329.3 251.3 329.6 251.2 329.9 251.3C330.1 251.4 330.2 251.6 330.1 251.8C330.1 251.9 328.8 258 330.3 261.8C331.5 264.8 333.5 267.4 334.9 267.8C335.2 267.9 335.5 267.9 335.7 267.7C336.3 267.3 335.4 265.1 334.6 263.4C333.9 261.9 333.3 260.3 333 258.7C332.6 256.8 332.8 254.8 333.4 252.9C333.5 252.7 333.7 252.6 334 252.6C334.2 252.6 334.4 252.8 334.4 253.1C334.4 253.2 334.4 261.1 339.2 261.2C342.3 261.3 343.8 260.1 344.1 259.1C344.2 258.8 344.2 258.4 343.9 258.2C343.2 258 342.5 258 341.8 258.2C340.7 258.3 339.4 258.5 338.8 257.8C338.2 256.9 337.9 255.7 338 254.6C338 254.4 338.2 254.2 338.5 254.2C338.7 254.2 342.5 253.9 343.3 250.5C343.2 248 342.5 241.6 340.7 239.7C339.7 240 335.9 241.3 332.1 242.6C329.8 243.4 327.8 244.1 326.2 244.7C320.6 246.8 316.1 250.9 315.1 254.6C314.8 255.8 314.9 256.7 315.5 256.9C316.1 257.1 317 256.7 317.5 255.7C318.6 253.5 325.7 248.6 326 248.4C325.9 248.4 325.8 248.4 326 248.4Z" fill="#0C41E2"/>
<path d="M323.9 287.9L235.3 286.8L217 227.9L307.8 225L323.9 287.9Z" fill="#EDF1FE"/>
<path d="M323.899 288.4L235.299 287.3C235.099 287.3 234.899 287.2 234.799 286.9L216.399 228C216.399 227.9 216.399 227.7 216.499 227.6C216.599 227.5 216.699 227.4 216.899 227.4L307.699 224.5C307.899 224.5 308.099 224.7 308.199 224.9L324.299 287.9C324.299 288 324.299 288.2 324.199 288.3C324.199 288.4 323.999 288.4 323.899 288.4ZM235.699 286.3L323.299 287.4L307.499 225.4L217.699 228.3L235.699 286.3Z" fill="#0C41E2"/>
<path d="M342 257C341.8 257 341.7 256.9 341.6 256.8C341.4 256.6 341.5 256.3 341.7 256.1C343.2 255 343.4 248.6 342.2 243.8C341.1 239.5 339.1 236.9 336.2 236.2C335.9 236.1 335.8 235.9 335.8 235.6C335.9 235.3 336.1 235.2 336.4 235.2C339.7 236 341.9 238.8 343.1 243.5C344.3 248.4 344.2 255.3 342.3 256.8C342.2 257 342.1 257 342 257Z" fill="#0C41E2"/>
<path d="M332.499 242.4C332.299 242.4 331.999 242.3 331.999 242C331.999 241.7 330.999 235.4 334.099 233.7C336.999 232 361.699 228.6 371.399 228.3C371.699 228.3 371.899 228.5 371.899 228.8C371.899 229.1 371.699 229.3 371.399 229.3C361.199 229.6 337.099 233 334.599 234.5C332.499 235.7 332.699 240.2 332.999 241.8C332.999 242.1 332.799 242.4 332.499 242.4C332.599 242.4 332.599 242.4 332.499 242.4Z" fill="#0C41E2"/>
<path d="M344.5 257C344.2 257 344 256.8 344 256.5C344 256.2 344.2 256 344.5 256C344.6 256 358.5 255.1 368.4 252.8C368.7 252.7 369 252.9 369 253.2C369 253.5 368.9 253.8 368.6 253.8C358.6 256.1 344.7 257 344.5 257Z" fill="#0C41E2"/>
<path d="M356.399 230.6C356.199 230.6 355.999 230.5 355.899 230.3C351.399 221.3 348.399 198.9 348.399 188.1C348.399 187.8 348.599 187.6 348.899 187.6C349.199 187.6 349.399 187.8 349.399 188.1C349.399 198.8 352.399 221 356.799 229.9C356.899 230.1 356.799 230.4 356.599 230.6C356.599 230.6 356.499 230.6 356.399 230.6Z" fill="#0C41E2"/>
<path d="M272.999 224.8C272.699 224.8 272.499 224.5 272.599 224.2C272.599 224 275.799 199.3 278.599 188C278.699 187.7 278.899 187.6 279.199 187.6C279.499 187.7 279.599 187.9 279.599 188.2C276.799 199.5 273.599 224.1 273.599 224.3C273.499 224.6 273.299 224.8 272.999 224.8Z" fill="#0C41E2"/>
<path d="M314.9 122.8C319.2 128 331.4 139.8 331.4 139.8C334 140.2 336.7 139.9 339.2 138.9C341.4 138 343.3 136.4 344.6 134.3C349.1 127.2 345.7 110.9 329.5 106.4C317.1 103 312.7 111.2 313.1 117.6C313.1 119.6 313.7 121.3 314.9 122.8Z" fill="#EDF1FE"/>
<path d="M333.699 140.5C332.899 140.5 332.099 140.4 331.299 140.3C331.199 140.3 331.099 140.2 331.099 140.2C330.999 140.1 318.899 128.2 314.599 123.1C313.399 121.6 312.699 119.7 312.599 117.7C312.299 113.9 313.699 110.1 316.599 107.6C318.799 105.8 322.799 104.1 329.599 106C339.999 108.9 343.999 116 345.599 119.9C347.599 125.2 347.399 131 345.099 134.7C343.799 136.8 341.799 138.5 339.499 139.4C337.599 140.2 335.599 140.5 333.699 140.5ZM331.599 139.4C334.099 139.8 336.599 139.5 338.999 138.6C341.099 137.7 342.899 136.2 344.199 134.2C346.399 130.8 346.599 125.3 344.599 120.3C343.099 116.5 339.199 109.8 329.299 107C324.199 105.6 320.099 106.1 317.199 108.4C314.599 110.7 313.199 114.2 313.599 117.7C313.699 119.4 314.299 121.1 315.299 122.5C319.299 127.3 330.399 138.1 331.599 139.4Z" fill="#0C41E2"/>
<path d="M314.9 122.8C319.2 128 331.4 139.8 331.4 139.8C334 140.2 336.7 139.9 339.2 138.9C336.4 128.1 325.1 116.7 313.1 117.7C313.1 119.6 313.7 121.3 314.9 122.8Z" fill="#6A90FF"/>
<path d="M333.7 140.5C332.9 140.5 332.1 140.4 331.3 140.3C331.2 140.3 331.1 140.2 331.1 140.2C331 140.1 318.9 128.2 314.6 123.1C313.4 121.6 312.7 119.7 312.6 117.7C312.6 117.4 312.8 117.2 313.1 117.2C325.2 116.3 336.9 127.9 339.7 138.8C339.8 139 339.6 139.3 339.4 139.4C337.5 140.2 335.6 140.5 333.7 140.5ZM331.6 139.4C333.9 139.7 336.3 139.5 338.6 138.7C335.7 128.4 324.9 117.6 313.6 118.2C313.7 119.8 314.3 121.3 315.3 122.5C319.3 127.3 330.4 138.1 331.6 139.4Z" fill="#0C41E2"/>
<path d="M321.1 164.5C349.7 153.2 333.6 133 323.9 124.6C314.2 116.2 298.5 120.6 298.5 120.6C294.4 117.8 287.3 119.1 284.9 128.3C283.5 133.8 284.2 139.6 286.7 144.7L321.1 164.5Z" fill="#EDF1FE"/>
<path d="M321.1 165C321 165 320.9 165 320.9 164.9L286.6 145.1C286.5 145.1 286.5 145 286.4 144.9C283.7 139.7 283 133.8 284.5 128.2C285.7 123.7 288.1 120.5 291.4 119.3C293.8 118.4 296.5 118.7 298.6 120.1C301.5 119.4 304.6 119 307.6 119C312.4 119 319.1 119.8 324.2 124.3C327.8 127.4 339.4 138.5 337.5 149.6C336.4 156 330.9 161.2 321.2 165C321.3 165 321.2 165 321.1 165ZM287.2 144.3L321.2 163.9C330.4 160.2 335.6 155.3 336.6 149.3C338.4 138.8 327.1 128 323.6 125C314.2 116.9 298.8 121.1 298.7 121.1C298.6 121.1 298.4 121.1 298.3 121C296.4 119.7 294 119.4 291.8 120.2C288.8 121.3 286.6 124.2 285.5 128.4C284.2 133.8 284.8 139.4 287.2 144.3Z" fill="#0C41E2"/>
<path d="M320.7 155.1C321.7 162.5 323.6 171 323.6 171C323.6 171 322.4 178.2 315.2 179.4C308 180.6 307.2 174.5 307.1 173.2C307 171.9 307.7 167.7 307.7 166.2C307.7 164.7 320.7 155.1 320.7 155.1Z" fill="#EDF1FE"/>
<path d="M313.4 180.1C311.9 180.1 310.5 179.7 309.3 178.8C307.7 177.4 306.7 175.4 306.6 173.2C306.6 171.8 306.7 170.3 307 168.9C307.1 167.8 307.2 166.8 307.3 166.2C307.3 164.8 315.6 158.4 320.5 154.7C320.6 154.6 320.8 154.6 321 154.6C321.2 154.7 321.3 154.8 321.3 155C322.3 162.3 324.2 170.8 324.2 170.9C324.2 171 324.2 171 324.2 171.1C324.2 171.2 322.9 178.6 315.4 180C314.7 180 314 180.1 313.4 180.1ZM320.4 156C314.5 160.4 308.5 165.4 308.3 166.3C308.3 166.8 308.2 167.9 308 169C307.8 170.4 307.7 171.8 307.6 173.1C307.7 175 308.5 176.7 309.9 178C311.4 179 313.4 179.4 315.2 178.9C321.7 177.8 323 171.8 323.2 171C323 170 321.4 162.7 320.4 156Z" fill="#0C41E2"/>
<path d="M288.5 136.2C288.5 136.2 282.8 155.8 290.9 163.3C299 170.8 318.7 168.5 323.9 155.3C323.9 155.3 328.1 159.6 331.2 154.7C334.3 149.8 329.8 144.9 324.5 147.5C324.5 147.5 322.3 142.4 312.3 139.5C306.6 137.9 301.3 134.9 297.1 130.7C297.1 130.7 295.5 134.2 288.5 136.2Z" fill="#EDF1FE"/>
<path d="M303.5 168.1C298.4 168.1 293.6 166.6 290.5 163.7C282.2 156.1 287.7 136.9 287.9 136.1C287.9 135.9 288.1 135.8 288.3 135.8C295 133.9 296.6 130.7 296.6 130.6C296.7 130.4 296.8 130.3 297 130.3C297.2 130.3 297.3 130.3 297.4 130.5C301.6 134.6 306.7 137.6 312.4 139.2C320.8 141.6 323.8 145.7 324.6 147.1C326.8 146 329.5 146.4 331.3 148.2C332.9 150 333 152.8 331.5 155.2C330.8 156.6 329.4 157.5 327.9 157.8C326.5 157.8 325 157.4 323.9 156.4C321.5 162 316.2 166 309.3 167.6C307.5 167.8 305.5 168.1 303.5 168.1ZM288.9 136.6C288.3 138.9 283.9 156.2 291.3 163C295.3 166.7 302.4 168.1 309.3 166.5C316.2 164.9 321.3 160.8 323.5 155.3C323.6 155.1 323.7 155 323.9 155C324.1 155 324.2 155 324.4 155.1C324.4 155.1 326.2 156.9 328.1 156.7C329.3 156.5 330.4 155.7 331 154.6C332.5 152.2 332 150 330.9 148.8C329.5 147.3 327.2 147 325 148.1C324.9 148.2 324.7 148.2 324.6 148.1C324.5 148.1 324.4 148 324.3 147.8C324.3 147.7 322 142.8 312.5 140C306.9 138.4 301.7 135.5 297.5 131.5C296.4 132.6 294.2 135 288.9 136.6Z" fill="#0C41E2"/>
<path d="M306.099 143.7C306.599 143.4 307.199 143.1 307.899 143C308.499 142.8 309.099 142.8 309.799 142.8C310.399 142.8 311.099 142.9 311.699 143C312.299 143.1 312.899 143.4 313.399 143.7C313.599 143.8 313.699 144.1 313.599 144.4C313.499 144.6 313.299 144.7 313.099 144.6C311.899 144.6 310.899 144.5 309.799 144.5C309.299 144.5 308.699 144.5 308.199 144.5L306.599 144.6H306.499C306.199 144.6 305.999 144.4 305.999 144.1C305.899 144 305.999 143.8 306.099 143.7Z" fill="#0C41E2"/>
<path d="M289.299 141.5C289.999 141.3 290.699 141.2 291.399 141.1C292.099 141.1 292.799 141.1 293.499 141.2C294.899 141.4 296.199 141.8 297.399 142.4C297.599 142.5 297.699 142.8 297.599 143.1C297.499 143.3 297.299 143.4 297.099 143.4C295.799 143.3 294.499 143.1 293.299 142.9L291.399 142.7L289.499 142.5H289.399C289.099 142.5 288.899 142.2 288.899 142C288.999 141.7 289.099 141.6 289.299 141.5Z" fill="#0C41E2"/>
<path d="M296.3 154.7C295.1 154.7 294.1 153.8 293.9 152.6C293.8 152 293.9 151.3 294.4 150.8C295.2 150.1 296.1 149.7 297.2 149.6C297.2 147.4 297.1 145.2 296.8 143C296.8 142.7 296.9 142.5 297.2 142.4C297.5 142.4 297.7 142.5 297.8 142.8C298.2 145.2 298.3 147.6 298.2 150.1C298.2 150.4 298 150.6 297.7 150.6C296.8 150.6 295.9 150.9 295.2 151.5C295 151.8 294.9 152.1 295 152.5C295 153.2 295.7 153.8 296.4 153.8H296.5C297.6 153.7 298.4 152.9 298.5 151.8C298.5 151.5 298.7 151.3 299 151.3C299.3 151.3 299.5 151.5 299.5 151.8C299.4 153.4 298.2 154.7 296.6 154.8L296.3 154.7Z" fill="#0C41E2"/>
<path d="M311.8 149.3C311.7 150.5 310.9 151.4 310.1 151.3C309.3 151.2 308.7 150.2 308.9 149C308.9 148.7 309 148.3 309.2 148L310.5 148.9L310 147.1C310.2 147 310.4 147 310.6 147C311.4 147.1 311.9 148.1 311.8 149.3Z" fill="#0C41E2"/>
<path d="M295.6 147.5C295.5 148.7 294.7 149.6 293.9 149.5C293.1 149.4 292.5 148.4 292.7 147.2C292.7 146.9 292.8 146.5 293 146.2L294.3 147.1L293.8 145.3C294 145.2 294.2 145.2 294.4 145.2C295.1 145.3 295.7 146.4 295.6 147.5Z" fill="#0C41E2"/>
<path d="M301.899 160.5C300.599 160.4 299.399 159.9 298.599 158.9C298.399 158.7 298.399 158.4 298.599 158.2C298.799 158 299.099 158 299.299 158.2C300.099 159.1 301.299 159.6 302.499 159.4C303.399 159.1 304.099 158.4 304.399 157.5C304.499 157.2 304.799 157.1 304.999 157.2C305.299 157.3 305.399 157.6 305.299 157.8C304.899 159 303.999 160 302.699 160.4C302.399 160.5 302.099 160.5 301.899 160.5Z" fill="#0C41E2"/>
<path d="M330.1 152.1C329.9 152.1 329.7 152 329.6 151.7C329.4 151.1 329 150.5 328.4 150.2C327.5 149.9 326.6 150 325.8 150.3C325.5 150.4 325.3 150.3 325.1 150C325 149.8 325.1 149.5 325.4 149.4C326.5 148.9 327.7 148.9 328.8 149.3C329.7 149.7 330.3 150.5 330.6 151.4C330.7 151.7 330.5 151.9 330.3 152C330.3 152 330.2 152.1 330.1 152.1Z" fill="#0C41E2"/>
<path d="M327.2 155C327 155 326.8 154.8 326.7 154.6C326.6 154.3 326.8 154.1 327.1 154C327.6 153.8 328 153.5 328.2 153C328.6 152 328.6 151 328.3 150C328.2 149.8 328.3 149.5 328.5 149.3C328.7 149.2 329 149.3 329.2 149.5C329.6 150.8 329.6 152.1 329.1 153.4C328.8 154.1 328.1 154.7 327.4 154.9L327.2 155Z" fill="#0C41E2"/>
<path d="M328.399 168.3C323.399 169.8 314.099 176.3 316.199 179.8C318.299 183.3 326.199 171.9 329.699 172.3C333.199 172.7 328.399 168.3 328.399 168.3Z" fill="#EDF1FE"/>
<path d="M317.4 180.9H317.1C316.6 180.8 316.1 180.5 315.8 180C315.3 179.2 315.3 178.2 315.7 177.3C317.1 173.5 324.2 169 328.3 167.8C328.5 167.7 328.7 167.8 328.8 167.9C330 169 332 171.1 331.5 172.2C331.1 173 330.1 172.8 329.7 172.8C328.3 172.6 325.8 174.9 323.6 176.8C321.2 178.9 319 180.9 317.4 180.9ZM328.3 168.8C324.5 170.1 317.9 174.3 316.7 177.7C316.4 178.3 316.4 178.9 316.7 179.5C316.8 179.7 317 179.9 317.3 179.9C318.5 180.1 320.9 177.9 323 176.1C325.6 173.8 328 171.6 329.9 171.8C330.5 171.9 330.6 171.8 330.6 171.8C330.6 171.4 329.6 170.1 328.3 168.8Z" fill="#0C41E2"/>
<path d="M384.199 219.5C382.299 219.6 380.399 219.3 378.699 218.5C376.299 208.4 372.899 197.5 368.999 190.1C366.599 185.3 363.399 181 359.499 177.3C359.099 177.3 350.699 177.8 346.999 181.5C343.299 185.2 340.699 194.7 337.499 193.6C334.299 192.5 339.299 180.9 343.699 178.2C339.899 178.6 336.099 178 332.599 176.5C329.099 174.9 326.899 170 326.799 165C326.699 162 327.499 159 329.099 156.5C329.099 156.5 324.999 148.4 327.899 146.7C330.799 145 331.699 150.4 336.799 151.3C341.899 152.2 346.699 152.5 351.999 155.6C351.999 155.6 359.899 155.6 361.799 156.2C363.699 156.8 359.299 159.9 359.299 159.9C359.299 159.9 378.699 159.4 385.299 167C391.899 174.6 392.499 184.2 388.199 190.7C383.899 197.2 376.599 204.2 378.499 210C380.399 215.8 385.199 212.8 385.399 210C385.599 207.2 389.899 206.9 390.999 210.3C392.099 213.7 387.599 219.4 384.199 219.5Z" fill="#EDF1FE"/>
<path d="M383.6 220C381.8 220 380.1 219.7 378.5 219C378.4 218.9 378.3 218.8 378.3 218.7C375.7 207.5 372.2 197.1 368.7 190.4C366.3 185.7 363.2 181.5 359.4 177.8C358 177.9 350.7 178.5 347.4 181.8C345.8 183.7 344.4 185.8 343.3 188.1C341.3 191.7 339.7 194.8 337.4 194.1C336.6 193.8 336.1 193 336.1 192.2C335.7 189 338.8 182.1 342.2 178.9C338.9 179 335.6 178.4 332.5 177C329 175.4 326.5 170.5 326.4 165C326.3 162 327 159 328.6 156.4C327.8 154.8 324.7 148 327.8 146.2C329.7 145.1 330.9 146.4 332.2 147.7C333.4 149.3 335.1 150.3 337.1 150.8C338 151 338.9 151.1 339.8 151.2C343.8 151.8 348 152.5 352.3 155C353.4 155 360.3 155.1 362.1 155.7C362.5 155.8 362.8 156.1 362.9 156.6C363 157.5 361.9 158.6 360.9 159.4C365.6 159.5 380.1 160.2 385.8 166.7C392.1 174 393.3 184 388.7 191C387.7 192.6 386.4 194.2 385.2 195.8C381.5 200.7 377.7 205.7 379 209.8C379.7 211.9 380.8 212.9 382.2 212.8C383.6 212.5 384.7 211.4 384.9 210C385 208.6 386.1 207.5 387.4 207.4C389.2 207.2 390.9 208.4 391.4 210.2C391.9 211.8 391.4 214.1 389.9 216.2C388.3 218.5 386.1 220 384.3 220.1L383.6 220ZM379.1 218.2C380.7 218.8 382.4 219.1 384.2 219C385.7 218.9 387.6 217.6 389 215.6C390.3 213.8 390.8 211.8 390.4 210.5C390.1 209.2 388.8 208.3 387.4 208.4C386.5 208.5 385.8 209.2 385.7 210.1C385.5 212 384 213.5 382.1 213.9C381.2 214 379.1 213.9 377.9 210.3C376.4 205.7 380.4 200.4 384.2 195.3C385.4 193.7 386.6 192.1 387.7 190.5C392.1 183.9 390.9 174.4 384.8 167.4C378.5 160.1 359.4 160.4 359.2 160.4C359 160.4 358.8 160.3 358.7 160.1C358.6 159.9 358.7 159.7 358.9 159.5C360.4 158.5 361.7 157.1 361.6 156.7C361.6 156.7 361.5 156.7 361.5 156.6C360 156.1 354 156 351.9 156C351.8 156 351.7 156 351.7 155.9C347.5 153.4 343.5 152.8 339.4 152.1C338.5 152 337.6 151.8 336.7 151.7C334.6 151.2 332.7 150 331.3 148.3C329.9 146.9 329.3 146.3 328.2 147C326.1 148.2 328.5 154.1 329.6 156.1C329.7 156.3 329.7 156.5 329.6 156.6C328 159.1 327.2 162 327.4 165C327.5 170.1 329.8 174.7 332.9 176.1C336.3 177.6 340 178.2 343.7 177.8C344 177.8 344.2 178 344.3 178.2C344.3 178.4 344.2 178.6 344.1 178.7C340.6 180.8 336.8 188.8 337.2 192.1C337.3 193 337.7 193.2 337.8 193.2C339.3 193.7 340.9 190.6 342.5 187.7C343.6 185.3 345.1 183.2 346.8 181.2C350.6 177.4 358.7 176.9 359.7 176.9C359.9 176.9 360.1 177 360.2 177.1C364.1 180.9 367.3 185.2 369.7 190C373 196.7 376.5 207 379.1 218.2Z" fill="#0C41E2"/>
<path d="M370.1 192.8C369.9 192.8 369.7 192.6 369.6 192.4C368.9 188.9 369.9 185.3 372.4 182.7C374.9 180.1 378.2 179.1 380.1 179.5C380.4 179.6 380.6 179.8 380.5 180.1C380.5 180.4 380.2 180.6 379.9 180.5C378.3 180.2 375.3 181.1 373.1 183.4C370.8 185.7 369.9 189 370.6 192.2C370.6 192.5 370.5 192.7 370.2 192.8H370.1Z" fill="#0C41E2"/>
<path d="M374.499 204.1C374.199 204.1 373.999 203.9 373.999 203.6C373.699 198.2 375.499 193.4 378.499 191.8C378.699 191.7 378.999 191.8 379.199 192C379.299 192.2 379.199 192.5 378.999 192.7C376.799 193.9 374.799 198 375.099 203.5C374.999 203.8 374.799 204 374.499 204.1Z" fill="#0C41E2"/>
<path d="M336.3 165.7C339.3 166.6 339.6 166.8 339.1 167.4C338.5 168.2 337.5 168.4 336.7 168.1C335.6 167.8 335.3 165.6 336.3 165.7Z" fill="#EDF1FE"/>
<path d="M337.499 168.8C337.199 168.8 336.899 168.7 336.599 168.7C335.599 168.3 335.099 167.2 335.299 166.2C335.399 165.7 335.799 165.3 336.399 165.3H336.499C338.899 166 339.599 166.3 339.799 166.9C339.899 167.2 339.799 167.6 339.599 167.8C339.099 168.4 338.299 168.8 337.499 168.8ZM336.199 166.2C336.099 166.4 336.099 166.6 336.199 166.9C336.299 167.2 336.499 167.5 336.799 167.7C337.499 168 338.199 167.8 338.699 167.2C337.899 166.8 337.099 166.5 336.199 166.2Z" fill="#0C41E2"/>
<path d="M338.9 172.2C338.3 172.2 337.8 172 337.4 171.7C336.9 171.3 336.6 170.8 336.4 170.2L336.2 170.3C335.6 170.7 334.9 170.7 334.2 170.5C332.8 170.2 331.8 169 331.8 167.6C331.8 167.3 332 167.1 332.3 167.1C332.6 167.1 332.8 167.3 332.8 167.6C332.8 168.5 333.5 169.4 334.4 169.5C334.8 169.6 335.2 169.6 335.6 169.4C336 169.1 336.3 168.8 336.4 168.3C336.4 168.2 336.5 168.1 336.5 168C336.6 167.7 336.9 167.6 337.1 167.6C337.4 167.7 337.5 168 337.5 168.2C337.5 168.3 337.4 168.4 337.4 168.5C337 169.3 337.3 170.3 338 170.8C338.3 171 338.7 171.1 339.1 171.1C339.8 171 340.5 170.5 340.9 169.9C341.1 169.7 341.4 169.6 341.6 169.8C341.8 170 341.9 170.2 341.7 170.5C341.1 171.4 340.2 172 339.2 172.1L338.9 172.2Z" fill="#0C41E2"/>
<path d="M345.8 167.4C345.5 167.4 345.2 167.4 344.8 167.3C343.3 166.9 342 165.8 341.5 164.3C341.5 164.2 341.5 164.1 341.5 163.9C341.6 163.6 341.8 163.5 342.1 163.5C342.3 163.6 342.4 163.7 342.5 163.9C342.9 165.1 344 166 345.2 166.3C346.6 166.8 348.4 165.4 349 164.9C349.2 164.7 349.5 164.7 349.7 164.9C349.9 165.1 349.9 165.4 349.7 165.6C348.6 166.6 347.2 167.2 345.8 167.4Z" fill="#0C41E2"/>
<path d="M333.999 162.6C333.399 162.6 332.799 162.5 332.199 162.2C330.599 161.5 330.399 159.2 330.399 159.1C330.399 158.8 330.599 158.6 330.899 158.6C331.199 158.6 331.399 158.8 331.399 159.1C331.399 159.1 331.599 160.9 332.599 161.3C333.799 161.8 335.099 161.7 336.099 161C336.299 160.9 336.499 160.9 336.699 160.9C336.899 161 336.999 161.3 336.899 161.6C336.799 161.7 336.799 161.8 336.599 161.8C335.899 162.3 334.999 162.6 333.999 162.6Z" fill="#0C41E2"/>
<path d="M343.2 168.6C344.9 168.6 346.6 168.9 348.1 169.5C348.9 169.8 349.6 170.2 350.3 170.7C351 171.2 351.6 171.8 352 172.6C352.1 172.7 352 172.8 352 172.8H351.8C351.3 172.2 350.6 171.7 350 171.3C349.3 170.9 348.6 170.5 347.9 170.2C347.2 169.9 346.4 169.6 345.6 169.4C344.8 169.2 344 169 343.2 168.9C343.1 168.9 343.1 168.8 343.1 168.7C343.1 168.7 343.1 168.6 343.2 168.6Z" fill="#0C41E2"/>
<path d="M342.8 169.9C343.7 170 344.6 170.2 345.4 170.6C346.2 170.9 347 171.4 347.8 171.9C348.5 172.4 349.2 173 349.8 173.7C350.4 174.4 350.9 175.1 351.4 175.9C351.5 176 351.4 176.1 351.3 176.1C351.2 176.1 351.1 176.1 351.1 176.1C350.6 175.4 350 174.8 349.3 174.2C348.7 173.6 348 173 347.3 172.6C346.6 172.1 345.9 171.7 345.1 171.3C344.3 170.9 343.5 170.6 342.7 170.4C342.6 170.4 342.6 170.3 342.6 170.2C342.6 169.9 342.6 169.9 342.8 169.9C342.8 169.8 342.8 169.8 342.8 169.9Z" fill="#0C41E2"/>
<path d="M332.5 165.3C331.8 164.9 331 164.6 330.3 164.3C329.6 164 328.8 163.7 328 163.5C327.2 163.3 326.5 163.1 325.7 163.1C324.9 163 324.1 163.1 323.3 163.2C323.2 163.2 323.1 163.1 323.1 163.1C323.1 163 323.1 163 323.2 162.9C324 162.6 324.9 162.4 325.7 162.5C326.5 162.5 327.4 162.7 328.2 162.9C329.8 163.4 331.3 164.1 332.7 165.1C332.8 165.2 332.8 165.3 332.7 165.3C332.6 165.4 332.6 165.4 332.5 165.3Z" fill="#0C41E2"/>
<path d="M332.1 166.6C331.3 166.3 330.5 166 329.6 165.9C327.9 165.6 326.2 165.5 324.5 165.7C323.6 165.8 322.8 166 322 166.1C321.9 166.1 321.8 166.1 321.8 166C321.8 165.9 321.8 165.8 321.9 165.8C323.6 165.1 325.3 164.7 327.1 164.8C328 164.8 328.9 165 329.8 165.2C330.7 165.4 331.5 165.7 332.3 166.2C332.4 166.3 332.4 166.4 332.4 166.4C332.3 166.5 332.2 166.6 332.1 166.6Z" fill="#0C41E2"/>
<path d="M364.7 178.6C364.6 178.6 364.5 178.6 364.5 178.5C362.9 177.9 361.2 177.6 359.5 177.7C359.2 177.7 359 177.5 359 177.2C359 176.9 359.2 176.7 359.5 176.7C361.3 176.6 363.2 176.9 364.9 177.6C365.2 177.7 365.3 177.9 365.3 178.2C365.2 178.6 364.9 178.8 364.7 178.6Z" fill="#0C41E2"/>
<path d="M343.699 178.7C343.499 178.7 343.299 178.5 343.199 178.3C343.199 178 343.299 177.8 343.599 177.7C344.899 177.5 351.699 176 354.699 171.4C355.999 169.4 356.499 166.9 355.899 164.5C355.799 164.2 355.999 164 356.299 163.9C356.599 163.8 356.799 164 356.899 164.3C357.499 166.9 357.099 169.7 355.499 172C352.299 176.9 345.199 178.4 343.699 178.7Z" fill="#0C41E2"/>
<path d="M329.1 156.9C328.8 156.9 328.6 156.7 328.6 156.4C328.6 156.3 328.6 156.1 328.7 156L330.2 154.4C330.4 154.2 330.7 154.2 330.9 154.4C331.1 154.6 331.1 154.9 330.9 155.1L329.4 156.7C329.3 156.9 329.2 156.9 329.1 156.9Z" fill="#0C41E2"/>
<path d="M329.3 152.7C329.1 152.7 328.9 152.5 328.8 152.3C328.7 151.8 328 149.1 328.7 147.9C328.9 147.6 329.1 147.4 329.5 147.3C329.8 147.2 330.1 147.4 330.1 147.7C330.1 148 330 148.3 329.7 148.3C329.7 148.3 329.6 148.3 329.6 148.4C329.2 149 329.5 150.9 329.8 152.1C329.9 152.4 329.7 152.6 329.4 152.7H329.3Z" fill="#0C41E2"/>
<path d="M353.799 158.9C353.599 158.9 353.399 158.7 353.299 158.5C353.099 157.5 352.499 156.6 351.699 156C351.499 155.8 351.399 155.5 351.599 155.3C351.699 155.1 351.999 155 352.199 155.1C353.299 155.9 353.999 157 354.299 158.3C354.399 158.6 354.199 158.8 353.899 158.9C353.899 158.9 353.899 158.9 353.799 158.9Z" fill="#0C41E2"/>
<path d="M355.3 163C355 163 354.8 162.8 354.8 162.5C354.8 162.3 354.9 162.1 355.1 162C356.5 161.3 357.8 160.4 359 159.4C359.2 159.2 359.5 159.2 359.7 159.5C359.9 159.7 359.9 160 359.6 160.2C358.3 161.2 357 162.1 355.5 162.9C355.5 163 355.4 163 355.3 163Z" fill="#0C41E2"/>
<path d="M356.1 160.4C355.9 160.4 355.7 160.3 355.6 160.1C355.5 159.8 355.6 159.6 355.8 159.4C358.1 158.3 359.7 156.4 359.7 155.9C359.6 155.6 359.8 155.4 360.1 155.3C360.4 155.2 360.6 155.4 360.7 155.7C361 156.8 358.6 159.2 356.2 160.3C356.2 160.4 356.2 160.4 356.1 160.4Z" fill="#0C41E2"/>
<path d="M431.1 264.8C430.9 264.8 430.7 264.6 430.6 264.4C428 252 415 243.7 407.8 244.4C400.2 245.1 385.3 253.7 369.3 263.2C369.1 263.3 368.8 263.3 368.6 263C368.5 262.8 368.5 262.5 368.8 262.3C385.5 252.4 400 244.1 407.8 243.4C411.8 243 417.1 245.1 421.7 248.8C426.7 252.6 430.2 258.1 431.7 264.2C431.8 264.5 431.6 264.7 431.3 264.8H431.1Z" fill="#0C41E2"/>
<path d="M411.5 239.6C411.2 239.6 411 239.4 411 239.1C411.4 228.5 405.3 198.8 391.5 189.3C391.3 189.1 391.2 188.8 391.4 188.6C391.6 188.4 391.9 188.3 392.1 188.5C400 193.9 404.8 205 407.5 213.4C410.8 223.8 412.1 234 411.9 239.1C412 239.4 411.8 239.6 411.5 239.6Z" fill="#0C41E2"/>
<path d="M353.5 324.6C348.9 324.6 344.4 322.7 341.2 319.4C341 319.2 341 318.9 341.2 318.7C341.4 318.5 341.7 318.5 341.9 318.7C346.1 323 352.4 324.6 358.3 322.9C364.6 321 369.3 315.4 370.7 308.1C372.7 297.4 367.3 287.1 361.4 282C357.5 278.6 353.2 277.4 349.7 278.6C349.4 278.7 349.2 278.5 349.1 278.3C349 278 349.2 277.8 349.4 277.7C353.3 276.4 357.9 277.7 362.1 281.3C368.2 286.6 373.8 297.3 371.7 308.4C370.2 316.1 365.3 321.9 358.6 324C356.9 324.3 355.2 324.6 353.5 324.6Z" fill="#0C41E2"/>
<path d="M360.4 323.1C360.2 323.1 360 322.9 359.9 322.7C359.8 322.4 360 322.2 360.3 322.1C370 319.9 400.6 307 411.8 299.1C412 298.9 412.3 298.9 412.5 299.1C412.7 299.3 412.7 299.6 412.5 299.8L412.4 299.9C401.2 307.8 370.3 320.9 360.6 323.1H360.4Z" fill="#0C41E2"/>
<path d="M344.699 386.9C344.399 386.9 344.199 386.7 344.199 386.4C346.299 357 349.699 326.5 349.699 326.2C349.699 325.9 349.999 325.7 350.299 325.8C350.599 325.9 350.799 326.1 350.699 326.4C350.699 326.7 347.299 357.2 345.199 386.5C345.199 386.7 344.999 386.9 344.699 386.9Z" fill="#0C41E2"/>
<path d="M126.9 346.9L170.2 359V363.8L126.9 351.6V346.9Z" fill="#6A90FF"/>
<path d="M170.2 364.3H170.1L126.8 352.2C126.6 352.1 126.4 351.9 126.4 351.7V346.9C126.4 346.6 126.6 346.4 126.9 346.4H127L170.3 358.5C170.5 358.6 170.7 358.8 170.7 359V363.8C170.7 364 170.6 364.1 170.5 364.2C170.4 364.3 170.3 364.3 170.2 364.3ZM127.4 351.3L169.7 363.2V359.4L127.4 347.5V351.3Z" fill="#0C41E2"/>
<path d="M126.901 346.9L83.6006 359V363.8L126.901 351.6V346.9Z" fill="#6A90FF"/>
<path d="M83.6006 364.3C83.5006 364.3 83.4006 364.3 83.3006 364.2C83.2006 364.1 83.1006 364 83.1006 363.8V359C83.1006 358.8 83.2006 358.6 83.5006 358.5L126.801 346.4C127.001 346.4 127.101 346.4 127.201 346.5C127.301 346.6 127.401 346.7 127.401 346.9V351.7C127.401 351.9 127.201 352.1 127.001 352.2L83.7006 364.4L83.6006 364.3ZM84.1006 359.4V363.1L126.401 351.2V347.5L84.1006 359.4Z" fill="#0C41E2"/>
<path d="M170.2 359L126.9 371.2V376L170.2 363.8V359Z" fill="#6A90FF"/>
<path d="M126.9 376.5C126.8 376.5 126.7 376.5 126.6 376.4C126.5 376.3 126.4 376.2 126.4 376V371.2C126.4 371 126.5 370.8 126.8 370.7L170.1 358.6C170.3 358.6 170.4 358.6 170.5 358.7C170.6 358.8 170.7 358.9 170.7 359.1V363.9C170.7 364.1 170.5 364.3 170.3 364.4L127 376.4L126.9 376.5ZM127.4 371.6V375.3L169.7 363.4V359.7L127.4 371.6Z" fill="#0C41E2"/>
<path d="M83.6006 359L126.901 371.2V376L83.6006 363.8V359Z" fill="#6A90FF"/>
<path d="M126.901 376.5H126.801L83.5006 364.3C83.3006 364.2 83.1006 364 83.1006 363.8V359C83.1006 358.8 83.2006 358.7 83.3006 358.6C83.4006 358.5 83.6006 358.5 83.7006 358.5L127.001 370.7C127.201 370.8 127.401 371 127.401 371.2V376C127.401 376.3 127.101 376.5 126.901 376.5ZM84.1006 363.5L126.401 375.4V371.7L84.1006 359.8V363.5Z" fill="#0C41E2"/>
<path d="M123.2 298.8H130.6L128.4 420.6C128.4 421.4 127.7 422.1 126.9 422.1C126.1 422.1 125.4 421.5 125.4 420.6L123.2 298.8Z" fill="#EDF1FE"/>
<path d="M126.9 422.6C125.8 422.6 124.9 421.7 124.9 420.6L122.7 298.8C122.7 298.7 122.8 298.5 122.8 298.4C122.9 298.3 123 298.3 123.2 298.3H130.6C130.9 298.3 131.1 298.5 131.1 298.8L128.9 420.6C128.8 421.7 128 422.6 126.9 422.6ZM123.7 299.3L125.9 420.6C125.9 421.2 126.3 421.6 126.9 421.6C127.5 421.6 127.9 421.2 127.9 420.6L130.1 299.3H123.7Z" fill="#0C41E2"/>
<path d="M150.8 292.2H158.2L181.5 405.4C181.6 406 181.3 406.6 180.7 406.7C180.6 406.7 180.5 406.7 180.4 406.7C179.6 406.7 178.8 406.1 178.6 405.3L150.8 292.2Z" fill="#EDF1FE"/>
<path d="M180.3 407.3C179.2 407.3 178.3 406.6 178 405.6L150.3 292.4C150.3 292.3 150.3 292.1 150.4 292C150.5 291.9 150.6 291.8 150.8 291.8H158.2C158.4 291.8 158.6 292 158.7 292.2L182 405.3C182.1 405.8 182 406.3 181.7 406.7C181.3 407.1 180.8 407.3 180.3 407.3ZM151.4 292.7L179 405.3C179.2 405.9 179.7 406.3 180.3 406.3C180.5 406.3 180.7 406.2 180.9 406.1C181 406 181.1 405.8 181 405.6L157.8 292.7H151.4Z" fill="#0C41E2"/>
<path d="M103 292.2H95.6002L72.3002 405.4C72.2002 406 72.5002 406.6 73.1002 406.7C73.2002 406.7 73.3002 406.7 73.5002 406.7C74.3002 406.7 75.1002 406.1 75.3002 405.3L103 292.2Z" fill="#EDF1FE"/>
<path d="M73.5002 407.3C73.0002 407.3 72.5002 407.1 72.1002 406.7C71.8002 406.3 71.7002 405.8 71.8002 405.3L95.1002 292.1C95.1002 291.9 95.4002 291.7 95.6002 291.7H103C103.2 291.7 103.3 291.8 103.4 291.9C103.5 292 103.5 292.2 103.5 292.3L75.7002 405.5C75.4002 406.6 74.5002 407.3 73.5002 407.3ZM96.0002 292.7L72.8002 405.5C72.8002 405.7 72.8002 405.9 72.9002 406C73.1002 406.2 73.3002 406.2 73.5002 406.2C74.1002 406.2 74.6002 405.8 74.8002 405.2L102.3 292.6L96.0002 292.7Z" fill="#0C41E2"/>
<path d="M169.5 284.8C169.5 286.9 150.4 288.7 126.9 288.7C103.4 288.7 84.2998 287 84.2998 284.8C84.2998 282.6 103.4 280.9 126.9 280.9C150.4 280.9 169.5 282.6 169.5 284.8Z" fill="#EDF1FE"/>
<path d="M126.9 289.1C126.5 289.1 83.7998 289.1 83.7998 284.7C83.7998 280.3 126.5 280.3 126.9 280.3C127.3 280.3 170 280.3 170 284.7C170 289.1 127.3 289.1 126.9 289.1ZM126.9 281.4C100.9 281.4 85.4998 283.4 84.6998 284.8C85.3998 286.1 100.8 288.1 126.9 288.1C152.7 288.1 168 286.1 169 284.7C168 283.4 152.6 281.4 126.9 281.4Z" fill="#0C41E2"/>
<path d="M169.5 284.8V295.8C169.5 297.9 150.4 299.7 126.9 299.7C103.4 299.7 84.2998 298 84.2998 295.8V284.8C84.2998 286.9 103.4 288.7 126.9 288.7C150.4 288.7 169.5 286.9 169.5 284.8Z" fill="#6A90FF"/>
<path d="M126.9 300.1C126.5 300.1 83.7998 300.1 83.7998 295.7V284.7C83.7998 284.4 83.9998 284.2 84.2998 284.2C84.5998 284.2 84.7998 284.4 84.7998 284.7C85.4998 286.1 100.9 288.1 126.9 288.1C152.9 288.1 168.2 286.1 169 284.7C169 284.7 169 284.7 169 284.6C169 284.4 169.2 284.2 169.5 284.2C169.8 284.2 170 284.4 170 284.7V295.7C170 300.1 127.3 300.1 126.9 300.1ZM84.6998 285.8V295.7C85.3998 297.1 100.8 299.1 126.8 299.1C152.8 299.1 168.2 297.1 168.9 295.7V285.8C162.5 289.1 127.2 289.1 126.8 289.1C126.4 289.1 91.1998 289.1 84.6998 285.8Z" fill="#0C41E2"/>
<path d="M99.7006 269.7H145.001C145.601 269.7 146.101 270.2 146.101 270.8V279.2C146.101 282.7 143.201 285.6 139.701 285.6H99.7006C99.1006 285.6 98.6006 285.1 98.6006 284.5V270.8C98.5006 270.2 99.0006 269.7 99.7006 269.7Z" fill="#EDF1FE"/>
<path d="M139.7 286.1H99.7C98.8 286.1 98 285.4 98 284.5V270.8C98 269.9 98.7 269.2 99.6 269.2H144.9C145.8 269.2 146.5 269.9 146.5 270.8V279.2C146.5 283 143.5 286.1 139.7 286.1ZM99.7 270.1C99.3 270.1 99.1 270.4 99.1 270.7V284.4C99.1 284.8 99.4 285 99.7 285H139.7C143 285 145.6 282.4 145.6 279.1V270.7C145.6 270.3 145.3 270.1 145 270.1H99.7Z" fill="#0C41E2"/>
<path d="M162 273.1C162 278.3 162 281.3 159.1 282.2L157.8 282.4L142.3 285.2C143.5 284.7 144.3 283.7 144.5 282.4C144.8 280.3 145 278.2 144.9 276.2C144.9 269.8 139.3 269.6 139.3 269.6H97.2002L114.2 266.5H156.4C156.3 266.5 162 266.8 162 273.1Z" fill="#6A90FF"/>
<path d="M142.3 285.8C142 285.8 141.8 285.7 141.7 285.4C141.7 285.1 141.8 284.9 142.1 284.8C143.1 284.4 143.9 283.5 144 282.4C144.3 280.4 144.4 278.3 144.4 276.3C144.4 270.5 139.5 270.2 139.3 270.2H97.2002C96.9002 270.2 96.7002 270 96.7002 269.7C96.7002 269.4 96.9002 269.2 97.2002 269.2L114.2 266.1H156.4C156.5 266.1 162.5 266.4 162.5 273.2C162.5 278.6 162.5 281.8 159.3 282.8L157.9 283H157.8L142.3 285.8ZM102.7 269.2H139.4C139.5 269.2 145.5 269.5 145.5 276.3C145.6 278.4 145.5 280.6 145.1 282.7C145 283.3 144.7 283.9 144.3 284.5L157.7 282.1H157.8L159 281.9C161.3 281.2 161.4 278.8 161.4 273.3C161.4 267.5 156.5 267.2 156.3 267.2H114.2L102.7 269.2Z" fill="#0C41E2"/>
<path d="M139.9 286.1H97.2002C96.9002 286.1 96.7002 285.9 96.7002 285.6C96.7002 285.3 96.9002 285.1 97.2002 285.1H139.9C140.7 285.1 141.4 285 142.2 284.8C142.5 284.7 142.8 284.9 142.9 285.1V285.2C142.9 285.4 142.7 285.6 142.5 285.7C141.6 286 140.7 286.2 139.9 286.1Z" fill="#0C41E2"/>
<path d="M157.8 283C157.5 283 157.3 282.8 157.3 282.5C157.3 282.2 157.5 282 157.8 282C158.2 282 158.6 281.9 159 281.8C159.3 281.7 159.5 281.8 159.7 282.1C159.8 282.4 159.7 282.6 159.4 282.8H159.3C158.8 282.9 158.3 283 157.8 283Z" fill="#0C41E2"/>
<path d="M142.3 285.8C142 285.8 141.8 285.6 141.8 285.3C141.9 285 142.1 284.8 142.4 284.9C142.6 284.9 142.8 285.1 142.8 285.3C142.8 285.5 142.6 285.8 142.3 285.8Z" fill="#0C41E2"/>
<path d="M159.101 282.7C158.901 282.7 158.701 282.5 158.601 282.3C158.601 282 158.701 281.8 159.001 281.7H159.101C159.401 281.6 159.601 281.8 159.701 282.1C159.801 282.4 159.601 282.6 159.301 282.7H159.101Z" fill="#0C41E2"/>
<path d="M141 272.6H98.5C98.2 272.6 98 272.4 98 272.1C98 271.8 98.2 271.6 98.5 271.6H141C141.3 271.6 141.5 271.8 141.5 272.1C141.5 272.4 141.3 272.6 141 272.6Z" fill="#0C41E2"/>
<path d="M142.7 276.2H98.5C98.2 276.2 98 276 98 275.7C98 275.4 98.2 275.2 98.5 275.2H142.7C143 275.2 143.2 275.4 143.2 275.7C143.2 276 143 276.2 142.7 276.2Z" fill="#0C41E2"/>
<path d="M142.7 279.9H98.5C98.2 279.9 98 279.7 98 279.4C98 279.1 98.2 278.9 98.5 278.9H142.7C143 278.9 143.2 279.1 143.2 279.4C143.2 279.7 143 279.9 142.7 279.9Z" fill="#0C41E2"/>
<path d="M141 283.6H98.5C98.2 283.6 98 283.4 98 283.1C98 282.8 98.2 282.6 98.5 282.6H141C141.3 282.6 141.5 282.8 141.5 283.1C141.5 283.4 141.3 283.6 141 283.6Z" fill="#0C41E2"/>
<path d="M57.3994 111.6V49.5H222.899V122.9V177.3H207.099H182.399H57.3994V111.6Z" fill="#EDF1FE"/>
<path d="M222.999 177.8H57.3994C57.0994 177.8 56.8994 177.6 56.8994 177.3V49.5C56.8994 49.2 57.0994 49 57.3994 49H222.999C223.299 49 223.499 49.2 223.499 49.5V177.3C223.499 177.6 223.299 177.8 222.999 177.8ZM57.9994 176.8H222.399V50H57.8994L57.9994 176.8Z" fill="#0C41E2"/>
<path d="M204.199 57.2998C201.999 92.8998 197.599 135.9 185.599 169.7C183.099 176.9 179.999 183.8 176.399 190.5C176.399 190.5 162.599 186.7 149.799 190.5C136.999 194.3 129.299 198.9 118.599 193C107.899 187.1 101.799 190.9 91.3994 193.9C80.9994 196.9 76.3994 196.3 70.5994 192.1C64.7994 187.9 54.6994 189.7 49.1994 192.7C43.6994 195.7 32.3994 188.1 32.3994 188.1C32.3994 188.1 68.1994 100.1 65.9994 57.2998H204.199Z" fill="#6A90FF"/>
<path d="M80.8996 196.4C76.8996 196.4 73.8996 195.2 70.2996 192.5C64.4996 188.3 54.3996 190.4 49.3996 193.1C43.6996 196.3 32.4996 188.8 32.0996 188.5C31.8996 188.4 31.7996 188.1 31.8996 187.9C32.1996 187 67.5996 99.5002 65.4996 57.3002C65.4996 57.2002 65.4996 57.0002 65.5996 56.9002C65.6996 56.8002 65.7996 56.7002 65.9996 56.7002H204.2C204.3 56.7002 204.5 56.8002 204.6 56.9002C204.7 57.0002 204.8 57.1002 204.7 57.3002C200.5 123 192 153 186 169.8C183.5 177 180.4 184 176.8 190.7C176.7 190.9 176.5 191 176.2 190.9C176.1 190.9 162.4 187.2 149.9 190.9C147.6 191.6 145.5 192.3 143.4 193C134 196.1 127.3 198.3 118.3 193.4C109.3 188.5 103.8 190.4 95.9996 192.9C94.5996 193.4 93.0996 193.8 91.4996 194.3C88.0996 195.6 84.4996 196.2 80.8996 196.4ZM61.6996 189.1C64.9996 189 68.1996 189.9 70.8996 191.7C76.6996 196 81.2996 196.4 91.1996 193.5C92.7996 193 94.2996 192.6 95.6996 192.1C103.7 189.5 109.5 187.6 118.8 192.6C127.4 197.3 133.9 195.1 143.1 192.1C145.2 191.4 147.3 190.7 149.6 190C161.2 186.6 173.7 189.3 176.1 189.9C179.6 183.3 182.6 176.5 185 169.5C191 152.8 199.4 123 203.6 57.8002H66.4996C68.2996 99.0002 35.4996 181.5 32.9996 187.9C34.8996 189.1 44.2996 194.9 48.9996 192.3C52.8996 190.2 57.2996 189.1 61.6996 189.1Z" fill="#0C41E2"/>
<path d="M214 61.9998V165C214 167.6 211.9 169.7 209.3 169.7H185.6C197.7 135.9 202 92.8998 204.2 57.2998H209.3C211.8 57.2998 214 59.3998 214 61.9998Z" fill="#0C41E2"/>
<path d="M209.2 170.2H185.5C185.3 170.2 185.2 170.1 185.1 170C185 169.9 185 169.7 185 169.5C191 152.7 199.5 122.8 203.6 57.2998C203.6 56.9998 203.8 56.7998 204.1 56.7998H209.2C212.1 56.7998 214.4 59.0998 214.4 61.9998V165C214.4 167.9 212.1 170.2 209.2 170.2ZM186.2 169.2H209.2C211.5 169.2 213.4 167.3 213.4 165V61.9998C213.4 59.6998 211.5 57.7998 209.2 57.7998H204.6C200.6 122.3 192.2 152.2 186.2 169.2Z" fill="#0C41E2"/>
<path d="M158.099 189.5C157.999 189.5 157.899 189.5 157.899 189.4C157.699 189.3 157.499 189 157.699 188.7C179.199 145 170.999 116.7 163.099 89.2002C160.099 79.0002 157.099 68.4002 155.699 57.3002C155.699 57.0002 155.899 56.8002 156.099 56.7002C156.399 56.7002 156.599 56.8002 156.699 57.1002C157.999 68.3002 160.999 78.8002 163.999 89.0002C171.999 116.6 180.199 145.2 158.599 189.2C158.499 189.4 158.299 189.5 158.099 189.5Z" fill="#0C41E2"/>
<path d="M106.7 190.5C106.6 190.5 106.5 190.5 106.5 190.4C106.3 190.3 106.2 190 106.3 189.7C139.9 126.1 120.8 58.1 120.6 57.4C120.5 57.1 120.7 56.9 120.9 56.8C121.2 56.7 121.4 56.9 121.5 57.1C121.7 57.8 141 126.2 107.1 190.2C107 190.4 106.8 190.5 106.7 190.5Z" fill="#0C41E2"/>
<path d="M54.9999 191C54.8999 191 54.7999 191 54.6999 190.9C54.4999 190.7 54.4999 190.4 54.5999 190.2C70.3999 171.2 90.8999 70.8998 91.5999 58.2998C91.5999 57.9998 91.7999 57.7998 92.0999 57.7998C92.3999 57.7998 92.5999 57.9998 92.5999 58.2998C91.8999 70.9998 71.1999 171.7 55.2999 190.8C55.2999 190.9 55.0999 191 54.9999 191Z" fill="#0C41E2"/>
<path d="M64.8998 102.9C64.5998 102.9 64.3998 102.8 64.2998 102.5C64.2998 102.2 64.3998 102 64.6998 101.9C69.1998 100.2 73.9998 99.0998 78.8998 98.7998C79.1998 98.7998 79.3998 98.9998 79.3998 99.2998C79.3998 99.5998 79.1998 99.7998 78.9998 99.7998C74.1998 100.1 69.5998 101.1 65.0998 102.8L64.8998 102.9Z" fill="#EDF1FE"/>
<path d="M90.7998 100.1C90.4998 100.1 90.2998 99.9001 90.2998 99.6001C90.2998 99.3001 90.4998 99.1001 90.7998 99.1001C101.1 97.8001 111.5 97.5001 121.8 98.0001C122.1 98.0001 122.3 98.2001 122.3 98.5001C122.3 98.8001 122.1 99.0001 121.8 99.0001C111.4 98.5001 101.1 98.8001 90.7998 100.1Z" fill="#EDF1FE"/>
<path d="M136.799 99.2998C135.199 99.2998 133.699 99.2998 132.199 99.2998C131.899 99.2998 131.699 99.0998 131.699 98.7998C131.699 98.4998 131.899 98.2998 132.199 98.2998C142.399 98.4998 152.499 97.9998 162.599 96.7998C162.899 96.7998 163.099 96.9998 163.199 97.1998C163.299 97.3998 162.999 97.6998 162.799 97.7998C154.099 98.8998 145.399 99.3998 136.799 99.2998Z" fill="#EDF1FE"/>
<path d="M196.599 97.8001C189.099 96.6001 180.699 95.3001 172.899 97.0001C172.599 97.1001 172.399 96.9001 172.299 96.6001C172.199 96.3001 172.399 96.1001 172.699 96.0001C180.699 94.2001 189.199 95.6001 196.699 96.8001C196.999 96.8001 197.199 97.1001 197.199 97.3001C197.099 97.6001 196.899 97.8001 196.599 97.8001Z" fill="#EDF1FE"/>
<path d="M62.0997 109.2C66.9997 106.3 72.3997 104.5 77.9997 104C78.5997 104 78.6997 103 77.9997 103C72.1997 103.5 66.5997 105.3 61.5997 108.3C60.9997 108.7 61.5997 109.6 62.0997 109.2Z" fill="#EDF1FE"/>
<path d="M85.2993 105.1C89.7993 103.6 94.4993 102.9 99.1993 103C104.099 102.9 108.999 103 113.999 103L122.699 103.1C122.999 103.1 123.199 102.9 123.199 102.6C123.199 102.3 122.999 102.1 122.699 102.1C117.599 102 112.499 102 107.299 102C102.499 101.8 97.5993 102 92.7993 102.4C90.1993 102.7 87.5993 103.3 85.0993 104.2C84.3993 104.4 84.6993 105.4 85.2993 105.1Z" fill="#EDF1FE"/>
<path d="M130.099 104.2C138.699 104.1 147.299 103.8 155.999 103.4L163.399 103.1C163.999 103.1 163.999 102.1 163.399 102.1C154.799 102.5 146.199 102.8 137.599 103L130.199 103.2C129.899 103.2 129.699 103.4 129.699 103.7C129.699 104 129.899 104.2 130.099 104.2Z" fill="#EDF1FE"/>
<path d="M172.4 103.8C179.9 102.4 187.6 102.4 195.1 103.7C195.7 103.8 196 102.8 195.4 102.7C187.7 101.4 179.9 101.4 172.2 102.9C171.5 102.9 171.8 103.9 172.4 103.8Z" fill="#EDF1FE"/>
<path d="M55.1 130.1C61.5 127.2 68.3 125.2 75.2 124.2C75.8 124.1 75.6 123.2 74.9 123.2C67.9 124.2 61 126.2 54.6 129.2C54 129.5 54.5 130.3 55.1 130.1Z" fill="#EDF1FE"/>
<path d="M81.8995 125.1C87.0995 124.4 92.3995 124.2 97.6995 124.4C100.3 124.5 102.9 124.8 105.5 125.2C108.1 125.6 110.6 126.2 113.2 126.7C116 127.4 118.9 127.6 121.8 127.5C122.4 127.4 122.5 126.4 121.8 126.5C116.5 126.9 111.3 125.1 106.1 124.3C100.9 123.5 95.6995 123.2 90.3995 123.4C87.3995 123.5 84.4995 123.8 81.5995 124.2C80.9995 124.2 81.2995 125.2 81.8995 125.1Z" fill="#EDF1FE"/>
<path d="M128.5 127.6C138.4 126.9 148.3 125.8 158.1 124.2C160.9 123.7 163.7 123.2 166.5 122.7C167.1 122.6 166.9 121.6 166.2 121.7C156.5 123.5 146.7 124.9 136.8 125.9C134 126.2 131.3 126.4 128.5 126.6C127.9 126.6 127.9 127.6 128.5 127.6Z" fill="#EDF1FE"/>
<path d="M173.8 122C180.5 120.9 187.4 121.2 193.9 122.8C194.5 123 194.8 122 194.2 121.8C187.4 120.2 180.4 119.9 173.5 121C172.8 121.1 173.1 122.1 173.8 122Z" fill="#EDF1FE"/>
<path d="M193.2 124.4C187.5 122.9 181.6 122.5 175.8 123.1C175.2 123.2 175.2 124.2 175.8 124.1C181.5 123.4 187.4 123.9 193 125.3C193.3 125.4 193.6 125.2 193.6 124.9C193.7 124.7 193.5 124.4 193.2 124.4Z" fill="#EDF1FE"/>
<path d="M167.7 124.4C157.7 126.5 147.7 129.5 137.5 130.5C134.6 130.8 131.7 131 128.8 130.9C128.5 130.9 128.3 131.1 128.3 131.4C128.3 131.7 128.5 131.9 128.8 131.9C139.2 132 149.3 129.6 159.3 127.3C162.2 126.6 165 126 167.9 125.3C168.6 125.2 168.4 124.3 167.7 124.4Z" fill="#EDF1FE"/>
<path d="M122.4 130.3C116.9 131.2 111.4 129.5 106.1 128.1C100.8 126.6 95.2996 125.9 89.6996 126.2C86.5996 126.4 83.4996 126.9 80.4996 127.7C80.1996 127.8 80.0996 128.1 80.0996 128.3C80.1996 128.6 80.4996 128.7 80.6996 128.7C86.0996 127.2 91.7996 126.8 97.3996 127.5C103 128.1 108.2 130.1 113.7 131.1C116.6 131.7 119.6 131.8 122.6 131.3C123.3 131.2 123.1 130.3 122.4 130.3Z" fill="#EDF1FE"/>
<path d="M73.3999 127.7C69.8999 128.1 66.3999 128.7 62.8999 129.6C59.6999 130.2 56.5999 131.3 53.7999 132.9C53.2999 133.2 53.7999 134.1 54.2999 133.8C57.0999 132.3 59.9999 131.2 63.1999 130.6C66.5999 129.8 69.9999 129.1 73.3999 128.7C73.9999 128.7 73.9999 127.7 73.3999 127.7Z" fill="#EDF1FE"/>
<path d="M47.2999 154.2C53.1999 150.6 59.7999 148.4 66.6999 147.7C67.2999 147.6 67.2999 146.6 66.6999 146.7C59.5999 147.3 52.7999 149.6 46.7999 153.3C46.1999 153.7 46.7999 154.5 47.2999 154.2Z" fill="#EDF1FE"/>
<path d="M75.7998 147.8C86.4998 145.5 97.3998 147.4 108.1 148.2C111.1 148.4 114.2 148.6 117.2 148.5C117.5 148.5 117.7 148.3 117.7 148C117.7 147.7 117.5 147.5 117.2 147.5C106.3 147.7 95.3998 145.3 84.4998 145.7C81.4998 145.8 78.4998 146.2 75.4998 146.8C74.8998 147 75.0998 147.9 75.7998 147.8Z" fill="#EDF1FE"/>
<path d="M124.399 148.4C135.899 148.5 147.299 147.3 158.499 144.9C161.699 144.2 164.799 143.4 167.899 142.5C168.199 142.4 168.299 142.1 168.299 141.9C168.199 141.6 167.899 141.5 167.699 141.5C156.699 144.6 145.399 146.5 133.999 147.1C130.799 147.3 127.599 147.3 124.399 147.3C124.099 147.3 123.899 147.5 123.899 147.8C123.899 148.1 124.099 148.4 124.399 148.4Z" fill="#EDF1FE"/>
<path d="M174.7 141.7C180 140.4 185.6 140.6 190.8 142.2C191.4 142.4 191.7 141.4 191.1 141.2C185.7 139.5 180 139.3 174.5 140.6C174.2 140.7 174.1 141 174.1 141.2C174.1 141.6 174.4 141.8 174.7 141.7Z" fill="#EDF1FE"/>
<path d="M189.4 143.5C184.8 142.4 179.9 141.3 175.2 142.3C174.6 142.4 174.8 143.4 175.5 143.3C180.1 142.3 184.7 143.4 189.2 144.5C189.7 144.7 190 143.7 189.4 143.5Z" fill="#EDF1FE"/>
<path d="M168.5 144.6C158.2 147.8 147.7 150.7 136.9 151.1C133.9 151.2 130.8 151.1 127.8 150.8C127.2 150.7 127.2 151.7 127.8 151.8C138.6 152.9 149.4 151 159.9 148.1C162.9 147.3 165.9 146.4 168.8 145.5C169.3 145.4 169.1 144.4 168.5 144.6Z" fill="#EDF1FE"/>
<path d="M118.4 150.5C112.5 151.3 106.5 152.1 100.5 151.6C94.6997 151.2 88.8997 149.9 82.9997 150.3C79.8997 150.5 76.7997 151.2 73.7997 152.3C73.1997 152.5 73.4997 153.5 74.0997 153.3C76.6997 152.3 79.4997 151.7 82.2997 151.4C85.1997 151.2 87.9997 151.3 90.8997 151.6C93.7997 151.9 96.5997 152.3 99.4997 152.6C102.4 152.9 105.4 152.9 108.3 152.7C111.7 152.5 115 152 118.3 151.6C118.9 151.5 118.9 150.5 118.3 150.6L118.4 150.5Z" fill="#EDF1FE"/>
<path d="M65.0996 151.6C58.2996 152.9 51.7996 155.2 45.6996 158.5C45.0996 158.8 45.5996 159.7 46.1996 159.4C52.1996 156.1 58.6996 153.8 65.3996 152.5C65.9996 152.4 65.6996 151.5 65.0996 151.6Z" fill="#EDF1FE"/>
<path d="M40.5 174.2C47.1 174.1 53.5 172.7 59.6 170.2C60.2 170 59.9 169 59.3 169.2C53.3 171.7 47 173 40.5 173.1C40.2 173.1 40 173.3 40 173.6C40 173.9 40.2 174.1 40.5 174.2Z" fill="#EDF1FE"/>
<path d="M69.2998 169.2C79.5998 167.3 90.0998 165.3 100.6 165.6C103.6 165.7 106.5 166 109.5 166.4C110.1 166.5 110.4 165.5 109.8 165.4C99.1998 163.6 88.4998 164.8 77.9998 166.5C74.9998 167 71.9998 167.6 68.9998 168.1C68.3998 168.3 68.5998 169.3 69.2998 169.2Z" fill="#EDF1FE"/>
<path d="M119.299 168.7C129.199 171.4 139.299 172.7 149.599 172.6C152.499 172.6 155.399 172.4 158.199 172.1C158.799 172 158.799 171 158.199 171.1C148.099 172.1 137.899 171.6 127.899 169.7C125.099 169.2 122.299 168.5 119.599 167.7C119.299 167.6 118.999 167.8 118.999 168.1C118.899 168.3 118.999 168.6 119.299 168.7Z" fill="#EDF1FE"/>
<path d="M170.8 171.8C174.3 171.5 177.7 171 181.2 170.3C181.8 170.2 181.6 169.2 180.9 169.3C177.6 170 174.2 170.4 170.8 170.7C170.2 170.8 170.2 171.8 170.8 171.8Z" fill="#EDF1FE"/>
<path d="M230.5 185.3C231.9 152.5 237.5 131.5 246.5 132.3C255.5 133.1 240.5 172.1 234.1 185.9L230.5 185.3Z" fill="#6A90FF"/>
<path d="M234 186.3L230.4 185.7C230.2 185.7 230 185.4 230 185.2C231.2 157.4 235.3 139 241.6 133.5C242.9 132.2 244.7 131.6 246.5 131.7C247.5 131.8 248.4 132.4 248.9 133.3C253.2 140.7 239.8 174.6 234.5 186.1C234.4 186.2 234.2 186.4 234 186.3ZM231 184.8L233.8 185.2C240.5 170.6 251.8 140 248.1 133.7C247.8 133.1 247.2 132.7 246.5 132.7C245 132.6 243.4 133.2 242.3 134.3C236.2 139.6 232.2 157.6 231 184.8Z" fill="#0C41E2"/>
<path d="M228.3 185C224 156.3 218.7 131.7 225.6 129.1C232.5 126.5 236.2 145.1 234.9 162.6C233.6 180.1 232.5 185 232.5 185H228.3Z" fill="#EDF1FE"/>
<path d="M232.5 185.5H228.3C228.1 185.5 227.8 185.3 227.8 185.1C227.1 180.5 226.4 176.1 225.7 171.8C221.9 148.1 219.2 131 225.4 128.7C226.7 128.2 228.1 128.4 229.2 129.3C233.1 132.2 236.6 145 235.3 162.7C234 180.1 232.9 185 232.9 185.2C232.9 185.3 232.7 185.5 232.5 185.5ZM228.8 184.5H232.1C232.4 183 233.3 177.2 234.4 162.6C235.5 147.6 233 133.3 228.7 130C227.9 129.3 226.8 129.2 225.8 129.6C220.4 131.6 223.4 150.2 226.8 171.7C227.4 175.8 228.1 180.1 228.8 184.5Z" fill="#0C41E2"/>
<path d="M224.801 185C223.001 172.4 218.501 156.2 212.101 150.4C205.701 144.6 204.301 159.7 209.201 168.4C212.601 174.2 216.501 179.8 220.901 185H224.801Z" fill="#6A90FF"/>
<path d="M224.8 185.5H220.9C220.8 185.5 220.6 185.4 220.5 185.3C216.1 180.1 212.2 174.5 208.8 168.6C205.2 162.3 204.7 151.7 207.9 149.2C208.8 148.5 210.3 148.1 212.5 150C218.8 155.7 223.5 171.6 225.4 184.9C225.4 185 225.4 185.2 225.3 185.3C225.1 185.4 224.9 185.5 224.8 185.5ZM221.1 184.5H224.2C222.3 171.5 217.8 156.2 211.7 150.8C210.4 149.6 209.3 149.3 208.4 150C205.8 152.1 206 161.9 209.6 168.2C213 173.9 216.9 179.4 221.1 184.5Z" fill="#0C41E2"/>
<path d="M230.5 213.9C204.3 213.9 206.4 189.4 208.1 185.7C209.8 182 219.6 182.5 219.6 182.5H241.6C241.6 182.5 251.4 182 253.1 185.7C254.8 189.4 256.7 213.9 230.5 213.9Z" fill="#EDF1FE"/>
<path d="M230.501 214.4C221.101 214.4 214.301 211.3 210.301 205.2C205.501 197.8 206.401 188.1 207.601 185.5C209.401 181.5 219.101 182 219.501 182H241.401C241.801 182 251.501 181.5 253.301 185.5C254.501 188.1 255.401 197.8 250.601 205.2C246.701 211.3 239.901 214.4 230.501 214.4ZM218.301 183C215.101 183 209.601 183.5 208.501 185.9C207.701 187.7 206.301 197.2 211.101 204.7C214.901 210.5 221.401 213.5 230.501 213.5C239.601 213.5 246.101 210.6 249.901 204.7C254.701 197.3 253.301 187.7 252.501 185.9C251.301 183.1 244.201 182.8 241.501 183H219.501H218.301Z" fill="#0C41E2"/>
<path d="M253.801 191H211.301C211.001 191 210.801 190.8 210.801 190.5C210.801 190.2 211.001 190 211.301 190H253.801C254.101 190 254.301 190.2 254.301 190.5C254.201 190.8 254.001 191 253.801 191Z" fill="#0C41E2"/>
</svg>
