<svg width="500" height="500" viewBox="0 0 500 500" fill="none" xmlns="http://www.w3.org/2000/svg">
<path fill-rule="evenodd" clip-rule="evenodd" d="M271.344 499.628C335.282 503.228 399.683 480.623 443.993 436.101C487.507 392.379 500.302 330.436 499.995 269.886C499.689 209.691 481.835 151.933 442.314 105.287C397.863 52.8211 341.665 -0.830043 271.344 0.00971271C201.434 0.844549 153.18 60.9491 104.562 109.32C57.1413 156.502 -2.71452 204.288 0.0953584 269.886C2.85777 334.375 67.4377 375.099 117.773 417.732C163.448 456.417 210.613 496.208 271.344 499.628Z" fill="#EDF1FE"/>
<path d="M146.5 281.6C146.5 281.6 126.6 279.5 125.3 280.5C124 281.5 117.4 293.5 116.6 301.9C115.8 310.3 140.1 316.2 140.1 316.2L146.5 281.6Z" fill="#EDF1FE"/>
<path d="M147.2 280.4C142.8 279.9 138.4 279.5 134 279.2C131.5 279 128.9 278.9 126.3 279C125.1 279 124 279.3 123.1 279.9C122.4 280.6 121.8 281.4 121.4 282.3C119.5 285.4 118 288.7 116.7 292.1C115.9 294.1 115.3 296.1 114.8 298.2C114.3 299.7 114.1 301.3 114.2 302.9C114.5 305.2 116.3 307 118.1 308.4C120.5 310.2 123.1 311.6 125.8 312.8C130 314.6 134.4 316.1 138.9 317.2C140 317.5 142.4 317.5 142.7 316L148.3 285.8L149.1 281.5C149.4 279.9 144.5 279.7 144.1 281.6L138.5 311.8L137.7 316.1L141.5 314.9C138.2 314.1 134.9 313.1 131.7 311.8C129.2 310.8 126.7 309.7 124.4 308.3C122.5 307.3 120.9 305.8 119.7 304C118.5 301.7 119.7 298.3 120.5 295.8C121.6 292.2 123.1 288.7 124.9 285.3C125.5 284.1 126.2 282.9 126.9 281.8L127.3 281.3C127.5 281.1 127.4 281.3 127.4 281.2C127.4 281.1 127.9 280.9 127.3 281.2C127.3 281.2 126.4 281.5 126.6 281.4C126.8 281.3 126.9 281.4 127 281.4C126.7 281.4 126.2 281.6 127 281.4H128.5H130.1H131H131.8C136.5 281.7 141.2 282.1 145.9 282.6C146.8 282.7 148.5 282.6 149 281.6C149.5 280.6 147.9 280.4 147.2 280.4Z" fill="#6A90FF"/>
<path d="M116.5 302.699C116.5 302.699 101.7 299.299 97.5001 293.099C93.3001 286.899 109.4 287.199 96.3001 282.099C83.2001 276.999 67.7001 273.999 72.7001 267.199C77.7001 260.399 125.3 280.499 125.3 280.499L116.5 302.699Z" fill="#EDF1FE"/>
<path d="M115.2 301C111.5 300.2 108 299 104.6 297.4C103.4 296.9 102.2 296.2 101.1 295.5C100.7 295.2 100.2 294.9 99.8 294.6C99.6 294.4 99.5 294.3 99.3 294.1C98.5 293.1 98.6 291.6 99.7 290.7C100.6 289.8 101.9 289.2 102.9 288.3C104.3 286.9 102.8 285.2 101.7 284.1C99.4 281.9 96.3 280.8 93.4 279.7C89.7 278.3 86 277.1 82.3 275.8C79.4 274.9 76.6 273.6 74 272C74.1 272 74 271.9 74 272C73.8 271.8 74.1 272 74.1 272.1C74.1 272.1 74.1 272.2 74.1 272C74 271.8 74 271.7 73.9 271.5C73.8 270.5 74.1 269.6 74.8 268.9C76.3 267.1 79.6 267.5 81.6 267.7C85.8 268.2 89.9 269.1 93.9 270.3C98.6 271.7 103.3 273.2 108 274.8C114.3 277 120.4 279.6 126.6 281.9C126.7 281.9 126.8 282 126.9 282L123.7 278.6L116 298L114.9 300.8C114.4 302.1 118.4 304.7 118.6 304.2L126.3 284.8L127.4 282C127.6 281.4 126.8 280.6 126.5 280.3C125.9 279.6 125.1 279 124.2 278.6C118.7 276.3 113.2 274.2 107.6 272.1C98.5 268.8 89.2 265.5 79.6 264.1C77.2 263.8 73.6 263.2 71.5 264.9C70.2 266.1 69.8 268 70.5 269.6C71.8 272.4 74.7 274.4 77.3 275.8C84.1 279.4 91.8 281 98.9 284C99.5 284.3 100.1 284.5 100.7 284.9C100.9 285 101 285 101.2 285.2C100.9 284.8 100.3 284.4 100 284C99.8 283.7 100 283.8 99.9 284.1C99.8 284.3 99.6 284.5 99.5 284.7C98.5 285.7 97.2 286.2 96.2 287.2C94.9 288.5 95 290.1 95.9 291.7C97.6 294.4 100 296.6 102.7 298.2C107.2 300.9 112.1 302.8 117.2 304L118.2 304.2C119.2 304.4 118.5 303.2 118.2 302.9C117.2 302.1 116.3 301.4 115.2 301Z" fill="#6A90FF"/>
<path d="M137.1 295.6C137.1 295.6 108.8 292.6 106.9 294C105 295.4 95.6 312.5 94.5 324.5C93.4 336.5 128 344.8 128 344.8L137.1 295.6Z" fill="#EDF1FE"/>
<path d="M136.2 293.5C130 292.8 123.8 292.3 117.6 291.9C114.2 291.6 110.7 291.5 107.3 291.6C106.5 291.6 105.7 291.8 105.1 292.3C104.1 293.4 103.3 294.6 102.6 296C99.9 300.6 97.7 305.4 95.9 310.4C94.8 313.2 94 316.1 93.4 319C93 321.1 92.4 323.3 92.9 325.4C93.7 329.2 96.6 332.3 99.6 334.6C103 337.1 106.7 339.2 110.6 340.8C116.4 343.4 122.4 345.4 128.6 346.9L128.9 347C129.5 347.1 129.8 346.8 129.9 346.3L133 329.7L137.9 303.1L139 297C139.3 295.5 135.8 292.1 135.4 294.3L132.3 310.9L127.4 337.4L126.3 343.5L127.3 342.8C122.5 341.6 117.9 340.1 113.3 338.4C109.5 337 105.9 335.3 102.4 333.2C101.7 332.8 101 332.4 100.4 331.9C100 331.6 99.7 331.4 99.3 331.1L98.8 330.7L98.5 330.4C98.7 330.6 98.7 330.6 98.5 330.4C98.3 330.2 98 329.9 97.8 329.7L97.4 329.3C97.8 329.8 97.4 329.3 97.4 329.2C97.4 329.1 96.6 328.1 97 328.7L96.7 328.2C96.4 327.6 96.7 328.3 96.6 328L96.4 327.5C96.2 327 96.5 327.9 96.4 327.4C96.3 327.1 96.3 326.9 96.3 326.6C96.3 326.9 96.3 326.1 96.3 325.9C96.3 325.2 96.4 324.6 96.5 323.9C96.9 321.2 97.6 318.6 98.5 316C100.2 310.9 102.4 305.9 105 301.1C105.8 299.6 106.7 298.1 107.7 296.7C107.9 296.4 108.1 296.2 108.3 296C108.5 295.8 108.3 295.9 108.3 295.9C108.5 295.8 108.7 295.8 108.9 295.8C111.7 295.3 114.8 295.7 117.7 295.9C124.5 296.3 131.2 296.9 137.9 297.6C140.1 298 137.8 293.7 136.2 293.5Z" fill="#6A90FF"/>
<path d="M94.2 325.7C94.2 325.7 73 320.9 67.1 312C61.2 303.1 84 303.6 65.4 296.4C46.8 289.2 24.7 284.7 31.8 275.1C38.9 265.5 106.8 294 106.8 294L94.2 325.7Z" fill="#EDF1FE"/>
<path d="M95.5001 325C93.9001 324.6 92.2001 324.2 90.9001 323.8C87.3001 322.7 83.8001 321.4 80.4001 319.9C76.8001 318.4 73.6001 316.3 70.8001 313.6C69.3001 312 67.6 309.6 69.1 307.4C70.2 305.8 71.9 305 73.5 303.8C74.8 302.8 76 301.4 74.6 299.9C73.5 298.8 72.3001 298 70.9001 297.4C68.5001 296.3 66 295.3 63.5 294.4C58.2 292.4 52.8 290.7 47.5 288.8C43.5 287.3 39.2001 285.8 35.7001 283.2C33.5001 281.6 31.9 279.2 33.3 276.5C33.6 276 33.9 275.5 34.3 275.1C34.3 275 34.7001 274.7 34.4001 275C34.5001 274.9 34.7 274.8 34.8 274.7L35.2001 274.5C35.3001 274.5 34.9001 274.6 35.4001 274.4L35.9001 274.2C36.3001 274.1 35.5 274.3 35.8 274.2C36.1 274.1 36.1001 274.1 36.2001 274.1L36.8 274C36 274.1 36.8 274 37 274H37.7001C38.3001 274 37.2 274 38 274H39.5C40.2 274 39.1 274 39.8 274L40.8 274.1C41.4 274.2 42 274.2 42.6 274.3L43.5 274.4L43.9001 274.5L44.3 274.6C45.7 274.8 47.2 275.1 48.6 275.4C51.8 276.1 54.9 276.9 58.1 277.8C64.7 279.7 71.4001 281.9 77.9001 284.2C83.7001 286.3 89.5001 288.4 95.3001 290.7C98.4001 291.9 101.4 293.3 104.5 294.4C104.7 294.5 104.8 294.5 104.9 294.6L104.3 293.7L93.3001 321.4L91.7 325.3C91.2 326.6 96.0001 327 96.5001 325.8L107.5 298.1L109.1 294.2C109.3 293.7 108.9 293.5 108.5 293.3C100.8 290.1 92.9 287 85 284.2C78.1 281.7 71.2 279.3 64.2 277.3C57.8 275.3 51.3001 273.7 44.7001 272.7C42.0001 272.3 39.3 272.1 36.6 272.2C34.5 272.2 32.5001 272.7 30.6001 273.6C28.6001 274.9 27.6 277.2 27.9 279.5C28.7 282.7 32.1 284.7 34.8 286.1C44.6 291.2 55.6 293.4 65.6 297.8C67 298.3 68.4 299.1 69.5 300.1C70 300.6 70.2001 301.2 69.9001 301.7C69.1001 303.1 67.1001 303.9 65.8001 305C64.1001 306.4 62.8 308.1 63.6 310.4C64.7 313.7 68.1001 316.1 70.9001 317.9C77.1001 321.8 84.3001 324.3 91.4001 326.1L92.7001 326.4C93.7001 326.6 95.3001 326.8 96.1001 326.1C96.9001 325.4 96.1001 325.1 95.5001 325Z" fill="#6A90FF"/>
<path d="M147 280C147 280 125.9 303.8 126.2 342.7C126.2 342.7 150.6 380.7 253.9 393.7C357.2 406.7 469.1 379.3 469.6 370.6C470.1 361.9 336.6 278.6 147 280Z" fill="#6A90FF"/>
<path d="M144.8 279.3C140 284.7 136.4 291.5 133.3 298C130.1 305 127.6 312.3 126 319.8C125 324.3 124.4 328.9 124 333.5C123.8 335.9 123.7 338.3 123.7 340.7C123.6 341.6 123.6 342.4 123.9 343.3C124.3 344 124.8 344.7 125.4 345.3C126.4 346.6 127.5 347.8 128.7 348.9C133.2 353.3 138.2 357.3 143.5 360.8C152.2 366.5 161.5 371.3 171.1 375.2C185.4 381 200.2 385.6 215.3 388.8C235.3 393.2 255.7 396.1 276.1 397.6C296.9 399 317.7 399.2 338.5 398.1C357.4 397.2 376.3 395.4 395.1 392.7C410 390.6 424.9 387.9 439.6 384.3C448.6 382.1 458 379.8 466.3 375.7C469 374.4 473.6 371.9 471.2 368.4C468.9 365.2 465.3 362.8 462.2 360.5C456.4 356.4 450.5 352.7 444.3 349.3C435.7 344.4 426.8 339.9 417.8 335.7C406.4 330.3 394.7 325.4 382.9 320.8C369.1 315.5 355.2 310.7 341 306.4C324.9 301.5 308.7 297.2 292.2 293.6C274.1 289.6 255.9 286.4 237.6 284C217.7 281.3 197.8 279.6 177.8 278.8C167.5 278.4 157.2 278.2 146.9 278.3C145.9 278.3 144.5 279.1 144.6 280.2C144.7 281.3 146.3 281.7 147.2 281.7C167.6 281.6 188 282.4 208.4 284.2C227.2 285.9 245.9 288.4 264.5 291.7C281.6 294.7 298.5 298.5 315.3 302.9C330.3 306.8 345.1 311.3 359.8 316.3C372.5 320.7 385.2 325.5 397.5 330.7C407.7 335.1 417.9 339.7 427.8 344.8C435.4 348.7 442.9 352.8 450.2 357.3C452.9 359 455.5 360.7 458.1 362.5L458.9 363.1L459.3 363.4C459.7 363.7 459.1 363.3 459.5 363.5C459.9 363.7 460.5 364.2 461 364.6C461.9 365.2 462.7 365.9 463.5 366.6C464.7 367.6 465.8 368.7 466.8 369.8C467.1 370.1 466.6 369.4 466.8 369.8C466.9 369.9 466.9 370 467 370.1C467.1 370.2 467.2 370.5 467.3 370.6C467.5 371 467.1 370.2 467.3 370.6C467.5 370.9 467.1 370.4 467.3 370.4C467.3 370.4 466.9 371.1 467.4 370.4C467.3 370.5 467.3 370.6 467.2 370.7C466.8 371.1 467.3 370.6 467.2 370.8C467.1 371 466.6 371.3 466.2 371.6C465.8 371.9 466.6 371.4 466 371.8L465.2 372.3C464.6 372.6 464 372.9 463.4 373.2C460 374.7 456.6 376 453 377.1C441.3 380.7 429.3 383.6 417.2 385.7C400.5 388.8 383.7 391.1 366.8 392.7C347.1 394.6 327.3 395.5 307.6 395.4C286.8 395.3 266.1 393.7 245.5 390.8C227.8 388.3 210.4 384.5 193.3 379.2C181.4 375.6 169.9 370.9 158.9 365.2C151.8 361.5 145 357.2 138.8 352.1C135.5 349.5 132.5 346.6 129.8 343.4L129.3 342.8C129 342.4 129.5 343.2 129.2 342.7C129.1 342.5 128.9 342.4 128.8 342.2C128.8 341.4 128.8 340.7 128.9 339.9C128.9 337.5 129.1 335.1 129.3 332.7C129.7 328.2 130.4 323.7 131.4 319.2C134.1 307 139.1 295.4 146.1 285.1C147.1 283.6 148.3 282.1 149.5 280.7C150.3 279.8 149.2 278.7 148.4 278.5C146.9 278 145.6 278.4 144.8 279.3Z" fill="#6A90FF"/>
<path d="M228 339.7L313.6 361.2C313.6 361.2 285.8 380.3 269.9 380.2C254 380.1 142.4 348.2 141.8 341.6C141.2 335 210.6 351 228 339.7Z" fill="#6A90FF"/>
<path d="M227.8 340.3L236.3 342.4L256.8 347.5L281.6 353.7L302.9 359.1C306.4 360 309.8 361.1 313.3 361.7H313.4L311.3 360.3C303.9 365.4 296.1 369.8 288 373.6C282.4 376.2 276.3 378.6 270.1 379.1C269.3 379.1 268.5 379.1 267.7 379.1C267.4 379.1 268.3 379.1 267.8 379.1H267.5L266.7 379H265C265.8 379.1 264.8 379 264.5 378.9L263.5 378.7C261.9 378.4 260.4 378.2 258.8 377.8L256.1 377.3L255.4 377.2C255.3 377.2 254.5 377 255.2 377.2L253.7 376.9C249.2 375.9 244.8 374.8 240.3 373.7C229.7 371.1 219.1 368.2 208.5 365.2L200.6 362.9L192.4 360.5C187.2 358.9 181.9 357.3 176.7 355.6C172.1 354.1 167.5 352.6 163 351L159.9 349.9L159.5 349.7L159 349.5L157.5 349C155.8 348.4 154.1 347.7 152.5 347C151.8 346.7 151.1 346.4 150.3 346.1L149.4 345.7L148.9 345.5L148.8 345.4C147.8 344.9 146.8 344.4 145.8 343.8L145.5 343.6C145.7 343.7 145.7 343.7 145.5 343.6L145 343.3L144.6 343C144.4 342.8 144.3 342.7 144.5 342.9C144.1 342.4 144 342.4 144.2 341.9C144.4 341.4 145.2 341.3 145.7 341.2L146.4 341.1H146.8H147.2C147.5 341.1 148.6 341 149.2 341C151.1 341 152.8 341.1 154.3 341.2C156.6 341.3 158.9 341.5 161.2 341.7C172.6 342.7 183.9 344 195.2 344.6C200.8 344.9 206.4 345 212 344.8C216.6 344.7 221.2 344 225.6 342.8C227.2 342.3 228.8 341.6 230.2 340.7C230.8 340.3 228.9 339.6 228.7 339.5C228 339.3 226.4 338.7 225.6 339.2C222.3 341.3 218.3 342.1 214.5 342.6C209.3 343.2 204 343.4 198.7 343.2C187 342.9 175.3 341.6 163.7 340.5C159 340 154.2 339.6 149.5 339.4C146.7 339.3 143.4 339 140.7 339.9C136.3 341.4 144.4 345.2 145.6 345.8C153 349.1 160.5 352 168.2 354.4C178.7 357.9 189.3 361.2 199.9 364.3C211 367.6 222.2 370.7 233.5 373.6C242.4 375.9 251.4 378.1 260.4 379.9C263.3 380.5 266.2 381 269.2 381.3C273.8 381.6 278.4 381 282.7 379.4C293.8 375.9 304.3 369.9 314 363.6C314.6 363.2 315.3 362.8 315.9 362.3C316.5 361.8 313.9 361 313.8 360.9L305.3 358.8L284.8 353.7L260.1 347.5L238.8 342.1C235.3 341.2 231.8 340.3 228.4 339.5H228.2C227.8 339.4 225.8 338.9 225.6 339.5C225.4 340.1 227.6 340.3 227.8 340.3Z" fill="#EDF1FE"/>
<path d="M382.2 322C382.7 332.4 383.2 342.9 381.7 353.2C381 358.3 379.7 363.2 377.8 368C375.8 372.7 373.2 377.1 370.1 381.2C366.5 385.9 362.6 390.4 358.5 394.7C357.4 395.9 361.8 398.1 362.8 397C369.9 389.3 377.1 381.5 381.5 371.9C385.9 362.3 387.2 351.8 387.4 341.4C387.5 335.4 387.2 329.4 386.9 323.4C386.8 321.9 382.1 320.4 382.2 322Z" fill="#EDF1FE"/>
<path d="M412.2 388.6C424 376.4 429.3 359.4 426.7 342.6C426.7 342.5 421.9 343.6 422 344.4C424.7 361.1 419.4 378 407.7 390.2C407.4 390.5 409.3 390 409.5 389.9C410.4 389.6 411.4 389.2 412.2 388.6Z" fill="#EDF1FE"/>
<path d="M299.2 336.801C299.2 336.801 332.5 337.601 338.2 328.401C349.4 310.101 269.1 294.801 269.1 294.801L299.2 336.801Z" fill="#EDF1FE"/>
<path d="M297.2 337.7C306.3 338 315.3 337.3 324.2 335.5C327.3 334.9 330.3 334 333.3 332.8C335.7 332 337.9 330.6 339.8 328.8C341.8 326.7 342.2 323.6 340.9 321C339.4 318 336.4 315.8 333.6 314C329.5 311.5 325.3 309.4 320.8 307.7C310.8 303.8 300.5 300.6 290 298.1C283.9 296.6 277.8 295.1 271.6 294H271.3C270.8 293.9 266.3 295.1 266.7 295.6L276.9 309.8L293.1 332.4L296.8 337.6C297.4 338.5 301.7 336.3 301.6 336.1L291.4 321.9L275.2 299.3L271.5 294.1L266.9 295.7C271.7 296.6 276.5 297.7 281.3 298.9C291.2 301.2 301 304 310.7 307.4C315.4 309 320.1 311 324.5 313.2C328 314.8 331.2 317 334 319.7C335.8 321.6 337.4 324.2 336.8 326.9C336.5 328.4 335.7 329.7 334.5 330.7C333.8 331.3 333 331.8 332.2 332.2C331.8 332.4 331.4 332.6 331 332.7L330.6 332.9C331 332.8 330.2 333 330.6 332.9L329.6 333.2C329.5 333.2 329.1 333.3 329.6 333.2L329.1 333.3L328 333.6C327.6 333.7 326.9 333.9 326.2 334C324.8 334.3 323.4 334.5 322.1 334.7C319.2 335.1 316.4 335.4 313.5 335.6C309.6 335.8 305.7 336 301.8 335.9H301.2C300 336 298.9 336.3 297.9 336.8C297.6 336.9 296.2 337.7 297.2 337.7Z" fill="#0C41E2"/>
<path d="M244.5 193.401L244.6 149.901C245.1 141.301 247.3 129.001 244 119.301C240.9 110.001 237.6 122.301 237.6 122.301C237.6 122.301 238.5 110.301 234.8 109.601C231.1 108.901 229.4 124.001 229.4 124.001C229.4 124.001 228.5 112.001 224.5 112.701C220.8 113.301 223.3 137.101 223.3 137.101C223.3 137.101 218.9 132.701 214 133.201C209.1 133.701 212.6 138.701 216 141.701C219.4 144.701 221.6 148.701 222.9 153.701L221.7 177.601C221.2 187.901 219 198.001 215.3 207.601L203.4 237.901L218.4 265.101C218.4 265.101 220.8 261.701 230 242.901C235.4 232.001 244.7 215.201 244.5 193.401Z" fill="#EDF1FE"/>
<path d="M246.3 193.101L246.4 162.601C246.4 158.401 246.3 154.101 246.4 149.801C246.5 145.901 247.1 142.001 247.3 138.201C247.7 132.601 247.8 126.901 246.5 121.301C246 119.301 245.4 116.301 243.6 115.001C242.1 114.001 240.2 114.701 239 115.901C237.3 117.601 236.5 120.201 235.9 122.401L239.4 122.001C239.5 120.201 239.5 118.301 239.4 116.501C239.3 114.201 239.1 110.801 237.2 109.101C235.2 107.201 232.3 108.701 231 110.801C229.7 113.201 228.8 115.801 228.5 118.601C228.1 120.501 227.8 122.501 227.6 124.401L231.2 123.601C231 120.901 230.5 118.301 229.7 115.801C229.3 114.301 228.5 113.001 227.4 112.001C226 111.001 224 111.101 222.7 112.201C220.8 113.901 220.8 117.201 220.6 119.501C220.5 123.201 220.5 126.901 220.8 130.601C220.9 132.901 221.1 135.201 221.4 137.401L224.8 136.001C222.7 133.901 220.1 132.501 217.2 131.901C214.1 131.301 208.7 132.501 210 136.701C211.2 140.501 215.1 142.701 217.4 145.801C218.7 147.701 219.8 149.801 220.5 152.001C220.9 152.801 221.1 153.601 221.1 154.401L220.4 168.601C220.2 173.201 220.1 177.801 219.6 182.401C218.7 191.201 216.6 199.801 213.4 208.001L208.8 219.801L203.1 234.401C202.6 235.401 202.2 236.501 201.8 237.601C201.6 238.501 202.3 239.301 202.7 240.101L216.4 264.901L216.8 265.601C217.5 266.801 219.5 266.101 220.1 265.201C220.7 264.301 221.2 263.501 221.7 262.601C223.8 258.801 225.8 255.001 227.7 251.101C233.2 240.201 239.1 229.301 242.6 217.601C245 209.801 246.3 201.401 246.3 193.101C246.3 191.301 242.7 192.301 242.7 193.901C242.8 207.701 238.9 220.801 233.1 233.201C228.7 242.701 224 252.301 218.9 261.401C218.3 262.601 217.6 263.701 216.9 264.801L220.2 264.401L207 240.501L205.1 237.101V237.701L211.3 222.001C213.5 216.401 215.8 210.901 217.9 205.201C220.6 197.901 222.3 190.301 223.1 182.601C223.5 179.301 223.6 176.101 223.7 172.801L224.3 161.001C224.6 158.401 224.7 155.801 224.7 153.201C224.6 152.201 224.3 151.201 223.8 150.201C223.2 148.601 222.5 147.201 221.7 145.701C220.9 144.401 220 143.101 218.9 142.001C217.9 140.901 216.8 140.001 215.8 138.901C214.9 138.001 214.1 136.801 213.6 135.601C213.5 135.201 213.4 134.801 213.4 134.401C213.4 134.301 213.5 134.201 213.5 134.201C213.4 134.601 213.2 134.301 213.5 134.301C214 134.401 214.8 134.201 215.4 134.401C216.1 134.501 216.8 134.801 217.5 135.101C218.6 135.601 219.6 136.201 220.6 136.901C221 137.201 221.4 137.501 221.8 137.901C222.7 138.701 225.3 137.901 225.2 136.501C224.7 131.701 224.4 126.901 224.4 122.101C224.4 119.501 224.3 116.501 225.1 114.101C225.2 113.901 225.2 113.701 225.3 113.501C225.4 113.401 225.5 113.301 225.4 113.301C225.3 113.301 225.4 113.401 225.3 113.401C225.6 113.301 224.6 113.801 224.8 113.701C224.6 113.801 224.4 113.801 224.2 113.801C224.3 113.801 224.3 113.801 224.3 113.801C225.3 114.301 225.8 115.601 226.2 116.601C227 119.101 227.5 121.601 227.7 124.201C227.8 126.001 231.1 124.901 231.3 123.401C231.6 119.801 232.3 116.201 233.5 112.701C233.7 112.201 233.9 111.701 234.1 111.301L234.3 110.901C234.3 110.801 234.7 110.301 234.5 110.501C234.7 110.201 234.6 110.401 234.6 110.401C234.4 110.501 234.2 110.501 234 110.601C234 110.601 233.8 110.501 233.9 110.601C234 110.701 234.2 110.801 234.3 110.901C235.7 112.401 235.7 115.201 235.8 117.101C235.9 118.901 235.9 120.701 235.8 122.401C235.7 124.101 239 123.101 239.3 122.001C239.7 120.201 240.4 118.501 241.4 117.001C241.6 116.801 241.6 116.901 241.7 116.701C241.8 116.501 241.5 116.701 241.7 116.701C241.5 116.701 241.4 116.901 241.2 116.901C241 116.901 240.8 116.901 240.6 116.901C240.7 116.801 240.7 117.101 240.7 116.901C240.8 117.101 241.2 117.401 241.3 117.601C242.4 119.701 243.1 122.101 243.4 124.501C244.1 130.001 244.1 135.601 243.5 141.101C243.2 144.201 242.8 147.301 242.7 150.401C242.6 160.901 242.7 171.401 242.7 181.901V193.501C242.7 195.601 246.3 194.601 246.3 193.101Z" fill="#0C41E2"/>
<path d="M230.6 132.4C230.6 131.7 230.6 131 230.6 130.4C230.7 127.8 230.9 125.2 231.1 122.6C231.1 122.5 230.7 122.3 230.6 122.3C230.2 122.1 229.8 121.9 229.4 121.8C229.3 121.8 227.6 121.2 227.6 121.4C227.4 124 227.2 126.6 227.1 129.2C227.1 129.9 227 130.6 227.1 131.3C227.1 131.4 227.5 131.6 227.6 131.6C228 131.8 228.4 132 228.8 132.1C229.3 132.2 229.9 132.4 230.6 132.4Z" fill="#0C41E2"/>
<path d="M237 120.9C236.4 124.2 236 127.6 235.7 131C235.7 131.6 236 132.2 236.5 132.6C236.9 132.9 237.2 132.7 237.2 132.2C237.5 129 237.9 125.8 238.4 122.6C238.5 122 238.3 121.4 237.9 121C237.7 120.7 237.1 120.3 237 120.9Z" fill="#0C41E2"/>
<path d="M230.1 142C229.9 141.6 229.6 141.2 229.3 140.9C228.9 140.4 228.6 140 228.2 139.5C227.1 138.2 226 137 224.7 135.9C223.9 135.3 222.9 135.4 222.2 136C221.6 136.5 221.1 137.6 221.9 138.3C223.7 139.8 225.3 141.6 226.7 143.5L226.5 143.2C226.6 143.4 226.7 143.6 226.9 143.7C227.4 144.5 228.5 144.7 229.3 144.2C229.8 143.8 230.6 142.9 230.1 142Z" fill="#0C41E2"/>
<path d="M219.4 276.801L236.8 238.401L206 216.601L194.3 251.901" fill="#EDF1FE"/>
<path d="M221.8 276.8L237 243.2L239.2 238.4C239.3 238 239.1 237.6 238.8 237.4L211.8 218.3L208 215.6C206.9 214.8 204 215.1 203.5 216.5L193.3 247.4L191.9 251.8C191.3 253.7 196.2 253.5 196.8 251.8L207 221L208.4 216.6L203.9 217.5L230.9 236.6L234.7 239.3L234.3 238.3L219.1 271.9L216.9 276.7C216.4 277.7 218.2 278.1 218.9 278.1C219.9 278.1 221.3 277.8 221.8 276.7V276.8Z" fill="#0C41E2"/>
<path d="M179.7 301.501C179.7 301.501 202.5 239.101 221.1 240.101C239.7 241.101 256.9 313.601 256.9 313.601L232.7 327.601C232.8 327.601 182.9 312.901 179.7 301.501Z" fill="#EDF1FE"/>
<path d="M182.2 301.8C182.3 301.6 182.3 301.5 182.4 301.3C182.5 301.1 182.5 300.9 182.6 300.8C182.8 300.4 182.6 300.8 182.6 300.9L182.8 300.4C183.5 298.7 184.1 297.1 184.8 295.4C187 289.9 189.4 284.6 191.9 279.3C194.9 272.9 198.2 266.7 201.9 260.6C205.2 255.2 208.5 250.3 213.2 246.1L213.9 245.5L214.3 245.1C214.2 245.1 213.9 245.4 214.3 245.1C214.8 244.7 215.3 244.3 215.9 244C216.5 243.7 216.9 243.4 217.3 243.1C217.7 242.8 217 243.2 217.5 243L218.3 242.7L219 242.5L219.4 242.4C219.7 242.3 218.7 242.5 219.3 242.4C219.9 242.3 220.3 242.3 220.9 242.2C220.3 242.3 220.6 242.2 221 242.2C221.2 242.2 221.4 242.2 221.6 242.3C222.3 242.4 221.4 242.2 221.7 242.3C222 242.4 222.2 242.4 222.4 242.5L223 242.7C223.4 242.9 222.6 242.5 222.9 242.7C223 242.7 223.1 242.8 223.2 242.8C223.6 243 224.1 243.3 224.5 243.6L225.1 244L225.4 244.2C225 243.9 225.2 244.1 225.3 244.1C225.8 244.5 226.2 244.9 226.6 245.3C227.5 246.2 228.3 247.1 229 248C229.8 249 230.5 250 231.2 251C234.7 256.5 237.6 262.2 240 268.2C242.7 274.6 245 281.1 247.1 287.7C248.9 293.3 250.5 298.7 252.1 304.5C252.9 307.5 253.5 310.6 254.5 313.6C254.5 313.7 254.6 313.9 254.6 314L255.6 312.1L234.4 324.3L231.4 326L233.9 325.7C228.3 324 222.7 322.2 217.2 320.2C207.6 316.8 198.2 313.2 189.6 307.9C188.6 307.3 187.6 306.6 186.7 305.9L186.1 305.4C186 305.3 185.9 305.2 185.7 305.1C185.3 304.8 184.9 304.5 184.6 304.1C184 303.5 183.4 302.9 182.9 302.2C182.7 302 183.1 302.5 183 302.3L182.8 302L182.6 301.5C182.5 301.3 182.1 300.3 182.3 300.9C182 299.7 180.8 299 179.6 299.3C178.7 299.4 177 300.3 177.4 301.6C178.3 304.1 179.9 306.2 182 307.7C184.8 309.9 187.8 311.8 191 313.4C198.4 317.2 206.1 320.4 214 323.2C219.5 325.2 225 327.1 230.6 328.8L231.9 329.2C232.9 329.4 234 329.3 234.9 328.7C237.2 327.4 239.5 326.1 241.8 324.7L258.7 314.9C259.4 314.5 259.8 313.8 259.7 313C257.8 305.2 255.6 297.5 253.2 289.9C249.1 276.7 244.5 263.2 237.4 251.3C234.8 246.9 231.5 242.1 227 239.5C222.5 236.9 217.6 237.6 213.3 240.3C208.1 243.5 204.2 248.7 200.7 253.6C196.7 259.6 193.1 265.8 189.9 272.3C185.3 281.5 181.2 290.9 177.6 300.6L177.4 301.1C177 302.3 178.5 303.2 179.4 303.3C180.6 303.6 181.7 302.9 182.2 301.8Z" fill="#0C41E2"/>
<path d="M247.1 244.8C236.1 251.5 230.1 247.9 229.7 256.1C229.7 256.1 221.1 263 213.4 252.5C212 250.6 205.8 224.3 223.2 213.8C223.2 213.8 233.2 208.5 230.8 199C230.8 199 238.2 206.6 245.8 205.9C253.4 205.2 267.8 201.7 269.9 209.1C272 216.5 262 219.8 255.5 219L255.1 230.2C248.1 232.3 244.8 224.8 244.8 224.8C244.8 224.8 240.4 231.9 242 235C243.6 238.1 250.9 238.6 250.9 238.6C250.8 241.2 249.4 243.5 247.1 244.8Z" fill="#EDF1FE"/>
<path d="M245.3 244.4C243 245.8 240.5 247 237.9 247.8C236.1 248.4 234.3 248.8 232.5 249.5C231.1 249.9 229.8 250.7 228.7 251.8C227.7 253.2 227.2 254.8 227.2 256.5L227.5 256C227.3 256.2 227.3 256.1 227.6 256C227.3 256.2 227 256.4 226.8 256.5C226.6 256.6 226.4 256.7 226.3 256.8L226 256.9L225.3 257.2C225.7 257 224.8 257.3 224.7 257.3C225.2 257.2 224.4 257.3 224.2 257.4C224.7 257.4 223.8 257.4 223.7 257.4C224 257.4 223.3 257.4 223.3 257.4C222.9 257.3 222.5 257.2 222.1 257.1C220.3 256.5 218.7 255.4 217.4 253.9C216.8 253.3 216.3 252.6 215.8 251.9C215.9 252.1 215.7 251.7 215.8 251.9C215.7 251.7 215.7 251.7 215.7 251.6C215.5 251 215.3 250.4 215.1 249.8C213.2 242.3 213.4 234.4 215.5 226.9C217.2 221.5 220.8 217 225.6 214.1C230.9 210.9 235 205.2 233.5 198.7L228.7 199.7C231.1 202.1 233.9 204 236.9 205.4C239.4 206.5 242.1 207.1 244.8 207.1C247 207 249.2 206.7 251.3 206.4C255.3 205.9 259.4 205.1 263.4 206C264.9 206.3 266.3 207.1 267.2 208.4C268.2 210.1 268.3 212.2 267.4 213.9C266.4 215.6 264.7 216.9 262.8 217.5C260.9 218.1 258.9 218.3 256.9 218.1C256 218 253.3 218.2 253.3 219.5L252.9 230.7L254.6 229.5C252.8 230 250.9 228.9 249.6 227.4C249 226.8 248.5 226.1 248 225.4C247.9 225.2 247.7 224.9 247.6 224.7C247.7 224.9 247.6 224.7 247.6 224.6C247 223.2 243.4 224 242.7 225C241.9 226.3 241.2 227.7 240.6 229.1C239.8 231 238.9 233.5 239.8 235.5C240.7 237.5 243.4 238.4 245.4 239C246.9 239.4 248.5 239.7 250 239.9L248.6 239.2C248.4 241.2 247.2 243.2 245.3 244.4C244.6 244.9 244.6 245.5 245.6 245.8C246.8 246.1 248 245.9 249.1 245.3C251.5 243.7 253.5 241.2 253.6 238.2C253.6 237.7 252.6 237.6 252.3 237.5H252C251.8 237.5 251.1 237.4 251.5 237.4C250.6 237.3 249.7 237.1 248.9 236.8C247.3 236.4 245.1 235.6 244.6 233.9C244.1 232.2 245 229.8 245.7 228.2C246.2 227 246.8 225.8 247.5 224.6L242.6 225C243.3 226.6 244.4 228 245.7 229.1C248.6 231.6 252.6 231.9 256.2 230.9C256.8 230.7 257.9 230.4 257.9 229.7L258.3 218.5L254.7 219.9C259.6 220.5 265.5 219.5 269.6 216.6C271.4 215.4 272.6 213.6 273 211.5C273.3 209.5 272.6 207.5 271.2 206.1C268 203.1 262.4 203.3 258.4 203.6C255.8 203.8 253.3 204.1 250.8 204.4C248.7 204.7 246.7 205.2 244.7 204.8C240.5 204.1 236.4 201.3 233.5 198.4C232.9 197.8 231.5 197.9 230.7 198.1C230.2 198.2 228.5 198.6 228.7 199.4C229.6 203.5 228.3 207.7 225.2 210.6C223.3 212.5 221.7 213.2 219.5 214.8C212.7 219.8 209.6 227.8 209 236C208.8 239.4 208.9 242.7 209.4 246.1C209.6 248.2 210.1 250.3 210.9 252.3C211.6 253.8 212.7 255.1 214 256.1C215.7 257.6 217.8 258.7 220.1 259.1C223.9 259.7 227.7 259 231 257C231.4 256.8 231.8 256.5 232.1 256.2C232.6 255.6 232.4 254.8 232.6 254C232.7 253.2 233 252.5 233.5 251.9C233.6 251.8 234.1 251.3 234.1 251.3L234.4 251.1C234.5 251.1 235.1 250.7 234.8 250.9C235.2 250.7 235.6 250.6 236 250.5C236.4 250.4 236.2 250.4 236.1 250.5L237 250.2C238.2 249.9 239.4 249.5 240.5 249.1C243.6 248.1 246.5 246.8 249.3 245.1C250.1 244.6 250 244 249.1 243.7C247.6 243.6 246.3 243.8 245.3 244.4Z" fill="#0C41E2"/>
<path d="M205.8 240.3C205.8 240.3 196.6 245.8 193.4 240.9C190.2 236 197 235.4 197 235.4C197 235.4 186.4 226.5 196 221.5C196 221.5 185.1 215.6 189.6 205.8C194.1 196 208.8 197.3 208.8 197.3C208.8 197.3 205 185.4 215.8 183.9C226.6 182.4 226.2 190.4 226.2 190.4C226.2 190.4 233.1 189.4 234.5 193.5C235.9 197.6 231.4 200.7 231.4 200.7C231.4 200.7 232.9 213.1 223.4 214L218.9 231.4C221.7 234.4 222.8 238.5 221.8 242.5C219.9 248.9 207.6 248.1 205.8 240.3Z" fill="#0C41E2"/>
<path d="M204.5 238.601C204.2 238.801 203.9 239.001 203.5 239.101C204.1 238.901 203 239.401 203.5 239.101L202.9 239.301C202.4 239.501 202 239.701 201.5 239.901C200.6 240.301 199.7 240.501 198.8 240.601C198.4 240.701 198 240.701 197.5 240.701C197.1 240.701 196.7 240.601 196.3 240.401C196.5 240.501 196 240.201 196 240.201C195.9 240.101 195.8 240.001 195.7 239.901C195.4 239.501 195.1 239.001 195 238.501C195 238.401 195 238.201 195 238.101C195 238.501 195 238.001 195.1 237.901C194.7 238.301 195.3 237.601 195 238.201C195.1 238.001 195.3 237.901 195 238.101C195.1 238.001 195.3 237.901 195.4 237.801C195.8 237.501 194.9 237.901 195.5 237.801C195.7 237.701 196.8 237.401 196 237.601C196.3 237.501 196.7 237.501 197.1 237.401C199 237.201 200.3 235.001 198.7 233.601L198.3 233.301C198.7 233.601 198.4 233.401 198.2 233.201L197.7 232.701C196.8 231.801 196 230.701 195.3 229.601C195 229.001 194.7 228.401 194.6 227.801C194.5 227.301 194.4 226.701 194.5 226.201C194.6 225.701 194.8 225.301 195.1 224.901C195.7 224.201 196.5 223.601 197.4 223.201C198.5 222.601 199.1 220.601 197.8 219.801C194.2 217.801 190.8 214.101 191.1 209.601C191.4 206.501 193.2 203.701 195.9 202.001C196.2 201.801 196.6 201.601 196.9 201.401C196.9 201.401 197.3 201.201 197 201.301L197.5 201.101C198.3 200.801 199 200.501 199.8 200.301C200.3 200.101 200.9 200.001 201.4 199.901C202.1 199.801 202.8 199.701 203.6 199.601C204.4 199.501 205 199.501 205.6 199.401H206.5C207 199.401 206 199.401 206.8 199.401C207.3 199.401 207.8 199.401 208.3 199.501C209.9 199.601 211.8 198.301 211.2 196.501C211.1 196.201 211 195.901 211 195.601L210.9 195.201C211 195.801 210.9 195.201 210.9 195.101C210.8 194.701 210.8 194.301 210.8 193.801C210.8 193.301 210.8 192.801 210.8 192.401C210.8 192.201 210.8 191.901 210.8 191.601C210.8 191.301 210.8 191.301 210.8 191.201C210.8 191.401 210.8 191.301 210.8 191.201C210.9 190.701 211 190.101 211.2 189.601C211.3 189.201 211.5 188.701 211.8 188.401C212 188.001 212.3 187.701 212.6 187.501C212.9 187.201 212.7 187.401 212.6 187.501C212.7 187.401 212.8 187.301 213 187.201L213.4 186.901C213.8 186.701 213.3 186.901 213.6 186.801C215 186.201 216.5 185.901 218.1 186.001C218.8 186.001 219.6 186.101 220.3 186.201L220.9 186.401L221.3 186.601C221.7 186.701 221.3 186.601 221.5 186.701C221.7 186.801 221.9 187.001 222.2 187.101C222.3 187.201 222.7 187.601 222.4 187.301C222.7 187.601 223 188.001 223.3 188.401C223.5 188.701 223.1 188.001 223.3 188.301C223.4 188.401 223.4 188.501 223.5 188.601C223.6 188.801 223.7 189.001 223.7 189.201C223.7 189.401 223.8 189.601 223.8 189.801C224 190.301 223.8 189.501 223.8 189.901C223.8 190.201 223.9 190.601 223.9 190.901C223.8 192.201 225.3 192.901 226.4 192.701L227.1 192.601H227.8C228.4 192.601 227.5 192.601 227.8 192.601H228.3L229.3 192.701C229.6 192.701 229.8 192.801 230.1 192.901C230.4 193.001 230.8 193.101 231.1 193.301C230.8 193.201 231.7 193.801 231.5 193.601C232.4 194.701 232.5 196.201 231.7 197.401C231.4 198.001 230.9 198.501 230.5 198.901L230 199.001C229.8 199.201 230.5 198.601 230.1 198.901L229.9 199.101C229.2 199.501 228.7 200.301 228.8 201.101C228.9 201.701 228.9 202.301 228.9 202.801C228.9 204.001 228.8 205.201 228.5 206.401C228.4 206.701 228.3 207.101 228.2 207.401C228.1 207.601 228.1 207.801 228 208.001C228 208.001 227.7 208.601 227.9 208.301C227.8 208.601 227.6 209.001 227.4 209.301C227.3 209.501 227.2 209.701 227 209.901C226.7 210.301 227.2 209.701 226.8 210.101C226.6 210.401 226.3 210.601 226 210.901C226.4 210.601 225.8 211.001 225.8 211.101L225.3 211.401C225.1 211.501 225.5 211.301 225.1 211.501C224.9 211.601 224.6 211.701 224.4 211.801C224 211.901 223.5 212.001 223.1 212.001C222 212.101 221.1 212.801 220.8 213.901L216.7 230.201C216.5 231.201 216.1 232.001 216.8 232.901C217.7 233.901 218.4 235.101 218.9 236.301C219.3 237.301 219.5 238.401 219.6 239.501C219.6 240.101 219.6 240.601 219.5 241.101C219.4 241.501 219.3 241.901 219.2 242.301C219.2 242.301 219 243.001 219.1 242.601C219 242.801 218.9 243.001 218.8 243.201C218.8 243.301 218.4 243.801 218.7 243.401C218.6 243.501 217.9 244.201 218.3 243.901L217.8 244.301C217.2 244.701 218.3 244.101 217.6 244.401L217 244.601C216.9 244.601 216.2 244.801 216.8 244.701C215 245.101 213.1 244.901 211.5 244.001C209.9 243.101 208.7 241.501 208.3 239.701C207.7 237.101 202.9 238.701 203.6 241.401C204.9 246.901 210.9 249.701 216.2 249.101C218.9 248.801 221.4 247.501 223.1 245.301C225 242.701 225 238.901 224.2 235.801C223.6 233.701 222.6 231.801 221.1 230.201L221.4 231.801L225.9 214.401L223.6 216.201C228.3 215.801 232.2 212.401 233.4 207.801C234.1 205.401 234.3 203.001 234 200.501L232.8 202.501C236.2 200.101 239.1 195.101 236.2 191.201C234 188.401 229.7 188.001 226.4 188.501L228.9 190.301C229.1 185.601 225 182.401 220.6 181.901C216.6 181.501 211.9 182.301 209 185.201C207 187.301 205.9 190.201 206 193.101C206 194.901 206.2 196.601 206.7 198.301L209.6 195.301C204.2 194.801 198.8 195.901 194 198.501C190.4 200.501 187.7 203.901 186.7 207.901C185.8 211.701 186.8 215.701 189.3 218.701C190.8 220.501 192.5 222.101 194.6 223.301L195 219.901C192.7 221.001 190.9 222.901 190.1 225.301C189.6 227.201 189.8 229.101 190.7 230.801C191.9 233.201 193.5 235.301 195.6 237.101L197.2 233.301C193.9 233.601 189.7 235.801 190.4 239.701C190.9 242.401 193.1 244.401 195.8 244.901C198.2 245.201 200.6 245.001 202.8 244.101C204.4 243.601 205.9 242.901 207.3 242.001C208.3 241.501 208.7 240.201 208.2 239.101L208.1 239.001C207 238.001 205.6 237.901 204.5 238.601Z" fill="#0C41E2"/>
<path d="M225.4 215.701C225.4 215.701 221.7 208.001 216.3 211.301C210.9 214.601 214 233.501 224.2 229.901" fill="#EDF1FE"/>
<path d="M227.4 216.6C226 214 224 211.8 221.4 210.3C219.7 209.3 217.7 208.5 215.7 209.2C214.5 209.6 213.4 210.4 212.8 211.5C211.5 213.8 211.5 216.8 211.8 219.3C212.1 222.3 213.4 225.1 215.3 227.4C218 230.4 222.1 232.6 226.1 231.3C226.8 231.1 225.3 229.8 225.1 229.7C224.5 229.3 223.1 228.1 222.3 228.4C221.2 228.8 219.9 228.9 218.7 228.7C219.1 228.8 217.9 228.5 218.6 228.7C218.3 228.6 218.4 228.5 218.5 228.6L218.6 228.7C218.4 228.6 218.4 228.6 218.8 228.8C218.4 228.5 219.3 229.2 218.9 228.8C218.5 228.4 219.2 229.1 219 228.9C218.9 228.8 218.7 228.6 219 228.9C218.9 228.8 218.7 228.6 218.6 228.5C218.5 228.4 218.5 228.4 218.6 228.5L218.3 228.1C218.2 227.9 218 227.7 217.9 227.4C217.6 226.9 217.3 226.3 217.1 225.8C216.6 224.6 216.3 223.4 216.1 222.2C215.6 219.9 215.8 217.5 216.5 215.3C217.2 213.2 219.1 211.4 221.5 211.9C221.8 212 221.8 212 221.6 211.9C222.1 212.2 221.2 211.7 221.2 211.7C221.2 211.7 221.7 212.1 221.3 211.8C221.3 211.8 221.8 212.2 221.4 211.9C221.5 212 221.7 212.2 221.8 212.3C222 212.5 222.1 212.7 222.3 212.9C222.7 213.5 223.1 214.1 223.4 214.7C224.1 215.6 225 216.4 226.1 216.8C226.7 217.1 227.9 217.6 227.4 216.6Z" fill="#0C41E2"/>
<path d="M237.7 213.101C237.8 213.201 237.9 213.401 238.1 213.601C238.2 213.701 238.1 213.501 238.1 213.501C238.1 213.401 238 213.301 238 213.301C238 213.101 238 212.901 238 212.701V212.801C238 212.501 238.2 212.101 238.5 211.901C238.8 211.801 239.2 211.701 239.5 211.701H239.4C239.8 211.701 240.3 211.801 240.6 212.001C240.8 212.101 240.9 212.201 241.1 212.301C241.2 212.401 241 212.201 241.1 212.301C241 212.201 240.8 212.001 240.7 211.801L240.6 211.701L240.5 211.601C240.8 212.101 241.2 212.601 241.6 213.001L241.9 213.201C241.9 213.201 241.8 212.901 241.8 212.801C241.4 212.201 241 211.601 240.4 211.101C240.1 210.801 239.8 210.501 239.4 210.301C238.9 210.001 238.2 209.801 237.6 209.801C237.3 209.801 236.9 209.801 236.7 210.001C236.5 210.201 236.3 210.501 236.3 210.801C236.3 211.801 236.8 212.701 237.5 213.401C237.7 213.601 237.9 213.801 238.1 214.001C238.1 214.001 238.3 214.201 238.4 214.201C238.5 214.201 237.8 213.201 237.7 213.101Z" fill="#0C41E2"/>
<path d="M210.7 318.5C210.7 318.5 242.6 269 275.1 271.7C307.6 274.4 299.3 336.8 299.3 336.8C299.3 336.8 250.6 342.9 210.7 318.5Z" fill="#0C41E2"/>
<path d="M212.8 319.8C217.2 313.2 222.1 306.9 227.5 301C236.9 290.6 248.2 280.3 261.7 275.6C264.9 274.5 268.2 273.8 271.6 273.6C273.1 273.5 274.6 273.6 276.1 273.8C276.8 273.9 277.4 274 278.1 274.1C278.2 274.1 278.7 274.2 278.2 274.1L278.6 274.2L279.6 274.5C280.2 274.7 280.8 274.9 281.4 275.2L282.2 275.6C281.6 275.3 282.5 275.8 282.7 275.9C283.2 276.2 283.7 276.5 284.2 276.8C284.5 277 284.7 277.2 285 277.4C285.3 277.6 285.9 278.1 285.4 277.7C286.4 278.5 287.3 279.4 288.1 280.4L288.6 281C288.7 281.1 289.3 281.9 289 281.5C289.4 282 289.8 282.5 290.1 283.1C292.9 287.7 294.8 292.7 295.8 298C296.9 303.4 297.6 308.9 297.8 314.4C298 319.1 297.9 323.9 297.6 328.6C297.5 331.1 297.1 333.6 297 336.1C297 336.2 297 336.3 297 336.5L298.9 334.6C297.2 334.8 295.6 334.9 293.9 335C289.3 335.3 285.2 335.3 280.8 335.2C266.5 334.9 252.4 332.7 238.7 328.5C229.4 325.7 220.5 321.7 212.2 316.8C211.1 316 209.7 316.2 208.8 317.2C208.1 318.2 208.4 319.5 209.4 320.2L209.5 320.3C224.2 329.3 240.8 334.8 257.8 337.6C269.5 339.5 281.4 340.2 293.3 339.6C295.5 339.5 297.7 339.4 299.8 339.1C300.8 339 301.6 338.2 301.7 337.2C302.5 330.9 302.8 324.6 302.6 318.3C302.4 306.9 301.2 294.6 295.8 284.3C293.3 279.5 289.7 275.1 284.8 272.5C279 269.4 272.2 268.9 265.7 270.1C250.7 272.9 238 283.2 227.5 293.9C220.5 300.9 214.2 308.6 208.8 316.9L208.5 317.3C207 319.6 211.3 322.1 212.8 319.8Z" fill="#0C41E2"/>
<path d="M266.8 303.6L258.6 332.5L257.5 336.5C257.3 337.3 259.2 336.8 259.5 336.7C260.2 336.5 261.9 336 262.2 335.1L270.4 306.2L271.5 302.2C271.7 301.4 269.8 301.9 269.5 302C268.7 302.2 266.9 302.7 266.8 303.6Z" fill="#EDF1FE"/>
<path d="M161.8 200.501L159.1 157.101C158.1 148.601 155.2 136.301 157.9 126.501C160.5 117.001 164.5 129.201 164.5 129.201C164.5 129.201 162.9 117.301 166.6 116.301C170.3 115.301 172.8 130.301 172.8 130.301C172.8 130.301 173 118.301 177.1 118.701C180.8 119.101 179.7 143.001 179.7 143.001C179.7 143.001 183.8 138.301 188.7 138.501C193.6 138.701 190.4 143.901 187.2 147.101C184 150.301 182 154.401 181 159.501L183.6 183.301C184.7 193.501 187.5 203.501 191.8 212.901L205.5 242.401L192 270.501C192 270.501 189.4 267.301 179.1 249.001C173.2 238.401 162.9 222.301 161.8 200.501Z" fill="#EDF1FE"/>
<path d="M163.6 200.4L161.9 172L161 158C160.9 155.8 160.5 153.7 160.2 151.5C159.2 146 158.7 140.5 158.7 135C158.7 132 159.1 129 159.9 126.1C160.1 125.1 160.5 124.2 161.1 123.4C162.2 122.3 160.6 124.6 159 123.2C159.2 123.3 159.4 123.4 159.6 123.6C161.2 124.9 162 127.4 162.6 129.3C162.8 129.9 166.4 129.5 166.3 129.1C166.1 127.6 166 126.1 166 124.6C165.9 122.4 165.9 119.7 166.9 117.7C167.1 117.3 167.4 117 167.7 116.7C168 116.3 169.4 116.4 166.8 116.6C164.5 116.7 165.6 116.5 166 116.9C166.7 117.5 167.2 118.3 167.6 119.1C168.6 121.3 169.4 123.5 169.9 125.9C170.3 127.5 170.6 129 170.9 130.6C171 131.2 174.6 130.9 174.6 130.4C174.6 128.2 174.9 126 175.3 123.8C175.5 122.4 176.1 121 176.9 119.8C177.1 119.6 177.3 119.5 177.5 119.3L177.6 119.2C178.4 118.9 177.7 118.9 175.5 119.2C175.8 119.4 176 119.7 176.2 120C177.4 122.2 177.4 125.2 177.6 127.6C177.8 130.9 177.9 134.2 177.8 137.4C177.8 139.4 177.7 141.3 177.7 143.3C177.7 143.8 181.1 143.6 181.4 143.2C182.6 142 183.9 140.9 185.4 140.1C186.1 139.6 187 139.3 187.8 139.1C189.3 139.2 189.4 140.9 189 142C188.3 143.7 187.3 145.3 186 146.6C184.6 148 183.4 149.5 182.3 151.2C181.2 153.1 180.3 155.2 179.7 157.3C179.4 158.2 179.2 159.2 179.1 160.1C179.1 160.8 179.2 161.5 179.3 162.1L181 177.6C181.5 182.9 182.2 188.1 183.2 193.3C184.8 200.5 187.2 207.6 190.4 214.3L196.1 226.6L202.3 240.1L203.2 242C203.3 242.2 203.5 242.5 203.5 242.7C203.5 243.3 202.7 244.5 202.4 245L190.4 270.1L190.1 270.7L193.8 270.4L193.4 269.9C192.9 269.2 192.5 268.5 192 267.8C189.6 264.2 187.5 260.4 185.3 256.7C179.3 246.3 172.8 235.8 168.6 224.5C165.8 216.7 164.1 208.6 163.6 200.4C163.6 199.9 159.8 200.1 159.8 200.6C160.5 214.4 165.2 227.4 171.7 239.5C176.8 248.9 182.1 258.3 187.8 267.3C188.5 268.5 189.3 269.6 190.1 270.7C190.5 271.2 193.5 271 193.8 270.4L205.2 246.4L206.4 244C206.7 243.6 206.9 243.1 207.1 242.6C207.2 242 206.8 241.5 206.6 241L200.6 228.1C195.6 217.3 190.1 206.6 187.3 194.9C186.1 189.3 185.2 183.6 184.7 177.8L183 161.9C182.9 161.2 182.8 160.5 182.8 159.9C182.9 158.7 183.1 157.6 183.5 156.5C184.2 154.2 185.2 152.1 186.5 150.1C187.7 148.3 189.3 147 190.6 145.3C191.9 143.6 194.7 139.4 191 138.5C187.1 137.5 182.7 138.9 179.7 141.3C179 141.8 178.3 142.5 177.7 143.1L181.4 143C181.7 137.4 181.6 131.9 181.2 126.3C181.1 124.7 180.9 123.1 180.5 121.6C180.4 120.6 179.9 119.6 179.3 118.9C178.3 118 176 118.3 174.8 118.7C173.5 119.2 172.5 120.3 172.1 121.6C171.1 124.5 170.7 127.5 170.7 130.5L174.4 130.3C173.7 126.2 172.9 121.6 170.7 118C170.3 117.2 169.6 116.5 168.7 116.1C167.3 115.7 165.7 115.8 164.4 116.3C162.2 117.2 162.1 120.6 162 122.6C161.9 124.8 162 127.1 162.3 129.3L166 129.1C165.5 127.2 164.6 125.4 163.4 123.8C162.4 122.5 161 122.5 159.4 122.6C158 122.6 156.7 123.6 156.3 124.9C154.1 130 154.4 136.2 154.9 141.5C155.4 146.8 156.5 151.9 157 157.1C157.3 160.7 157.4 164.3 157.7 167.8L158.9 187.7L159.7 200.5C159.9 201.1 163.7 200.9 163.6 200.4Z" fill="#0C41E2"/>
<path d="M175.5 138.6C175.5 137.9 175.4 137.2 175.4 136.5C175.1 133.9 174.8 131.3 174.4 128.8C174.4 128.7 174 128.5 173.9 128.5C173.5 128.3 173.1 128.1 172.7 128C172.3 127.8 171.9 127.7 171.4 127.6C171.3 127.6 170.8 127.5 170.8 127.6C171.2 130.2 171.6 132.7 171.8 135.3C171.9 136 171.9 136.7 172 137.3C172 137.4 172.4 137.6 172.5 137.6C172.9 137.8 173.3 138 173.7 138.1C174.3 138.4 174.9 138.5 175.5 138.6Z" fill="#0C41E2"/>
<path d="M163.6 128.2C164.3 131.4 165 134.7 165.4 137.9C165.5 138.5 165.8 139 166.3 139.4C166.8 139.6 166.9 139 166.8 138.7C166.3 135.4 165.7 132.2 165 128.9C164.9 128.3 164.6 127.8 164.1 127.4C163.6 127.2 163.5 127.8 163.6 128.2Z" fill="#0C41E2"/>
<path d="M176.5 149.4L176.6 149.3V149.2C176.7 149 176.3 149.7 176.5 149.4C176.6 149.2 176.6 149.1 176.8 149C177.1 148.5 177.5 148 177.8 147.5C178.1 147 178.7 146.3 179.2 145.7C179.5 145.4 179.7 145.1 180 144.8C180.1 144.7 180.2 144.6 180.2 144.5C180.2 144.4 180.5 144.2 180.3 144.4L180.4 144.3C180.5 144.2 180.6 144.1 180.7 144.1C181 143.8 181.3 143.4 181.4 143C181.5 142.6 181.3 142.2 181 141.9C180.2 141.3 179.2 141.4 178.5 142C177.2 143.2 176 144.6 174.9 146C174.2 146.8 173.6 147.7 173.1 148.7C172.8 149.4 173.1 150.2 173.7 150.5C173.8 150.6 173.9 150.6 174.1 150.6C175 150.7 176 150.2 176.5 149.4Z" fill="#0C41E2"/>
<path d="M191.8 282.201L172.1 244.901L201.6 221.301L215.3 255.801" fill="#EDF1FE"/>
<path d="M193.2 283.3L176 250.7L173.5 246.1L173.7 246.9L199.5 226.3L203.1 223.4L199.8 220.1L211.8 250.3L213.5 254.6C214 255.6 214.7 256.6 215.6 257.3C215.8 257.5 217.1 258.4 216.7 257.5L204.7 227.2L203 222.9C202.8 222.3 200.4 219 199.7 219.6L173.9 240.2L170.2 243.1C170 243.2 170.4 243.8 170.4 243.9L187.6 276.5L190.1 281.2C190.7 282.2 191.5 283.2 192.5 283.8C193.4 284.2 193.7 284.1 193.2 283.3Z" fill="#0C41E2"/>
<path d="M52.7 239C49 230 45.2 220.6 44.7 210.8C44.4 206.1 45.1 201.3 46.8 196.9C48.5 192.7 50.9 188.8 53.8 185.3C64.5 172 80.3 163.8 96.4 159C112.9 154.2 130.1 152 147.2 152.7C164.4 153.2 181.5 156.3 197.9 161.8C214.2 167.3 229.7 175.2 243.6 185.3C245.3 186.5 246.9 187.8 248.6 189.1C249.5 189.8 250.9 190.4 252 189.5C252.8 188.7 252.8 187.4 252 186.7C251.9 186.6 251.9 186.6 251.8 186.5C237.6 175.3 221.8 166.4 204.9 160C188.1 153.7 170.5 149.8 152.6 148.7C134.7 147.5 116.7 149.1 99.3 153.5C82.4 157.9 65.6 165.5 53.4 178.4C46.9 185.3 41.5 193.5 40.3 203.1C39 213.3 42 223.4 45.6 232.8C46.5 235.1 47.4 237.4 48.4 239.7C48.9 240.9 50.1 241.6 51.4 241.5C52.4 241.4 53.1 240.6 53 239.6C52.8 239.3 52.7 239.2 52.7 239Z" fill="#6A90FF"/>
<path d="M265.7 139.301C280 136.001 294.8 136.101 309 139.501C323.2 142.801 336.4 149.401 347.5 158.801C352.6 163.201 358 168.601 359.6 175.401C360.2 177.901 360 181.301 357.7 182.901C356.1 183.801 354.1 183.801 352.6 182.901C352.2 182.701 351.7 182.401 351.4 182.101C351.1 181.801 350.8 181.501 350.5 181.101C350 180.201 349.7 179.101 349.5 178.101C348.8 173.701 350.5 169.401 354 166.701C359.1 162.401 366.5 161.501 373 162.701C385.2 165.101 395.3 175.701 396.5 188.301C396.6 189.901 396.7 191.501 396.5 193.001C396.4 194.101 397.5 195.301 398.2 196.001C398.7 196.401 399.7 197.001 399.8 195.901C400.8 181.001 390.4 166.101 376.9 160.301C370.2 157.401 362.3 156.901 355.5 159.901C352.2 161.301 349.4 163.701 347.6 166.801C346.1 169.701 345.6 173.001 346.3 176.101C346.9 179.601 348.7 182.801 351.4 185.201C353.9 187.401 358.2 189.201 361.1 186.701C363.5 184.601 363.5 180.801 362.9 177.901C361.9 173.801 360 169.901 357.5 166.501C352.6 159.701 345.9 154.101 339 149.501C318.5 135.701 293.5 130.201 269.1 134.101C267.1 134.401 265.2 134.801 263.3 135.301C261.8 135.501 264.3 139.701 265.7 139.301Z" fill="#6A90FF"/>
<path d="M75.2001 146.1C79.2001 137.8 84.8001 130.4 91.6001 124.2C98.5001 118.1 107.1 112.5 116.4 110.9C120.7 110.1 125.6 110.1 129.6 112.2C132.9 113.9 135.3 117.3 134.7 121.2C134.5 122.5 133.8 124.2 132.5 124.7C132.8 124.9 132.4 124.7 132.5 124.7C132.3 124.6 132.2 124.4 132.1 124.2C131.8 123.5 131.6 122.6 131.7 121.8C131.8 118.1 134.1 114 136.6 111.3C139.7 107.8 144 105.6 148.6 105.1C153.6 104.6 158.6 105.9 162.6 108.9C164.7 110.4 168.5 107.3 166 105.6C156.7 99.0004 144.1 99.5004 135.3 106.7C131.3 110 128.5 114.5 127.2 119.5C126.5 121.6 126.6 123.9 127.4 126C128.8 128.8 131.9 129.3 134.6 128C139 125.8 140.5 120.2 139.1 115.7C137.5 110.6 132.5 107.9 127.6 106.8C116 104.2 103.8 110 94.6001 116.6C84.6001 123.8 76.5001 133.4 71.1001 144.5C69.6001 147.4 74.1001 148.4 75.2001 146.1Z" fill="#6A90FF"/>
</svg>
