<svg width="500" height="500" viewBox="0 0 500 500" fill="none" xmlns="http://www.w3.org/2000/svg">
<path fill-rule="evenodd" clip-rule="evenodd" d="M245.446 0.497493C312.144 -5.51341 369.004 43.9981 415.693 92.0659C461.585 139.313 501.497 196.635 499.957 262.524C498.443 327.291 455.242 381.017 407.905 425.185C362.573 467.482 307.41 499.764 245.446 499.999C183.269 500.235 126.433 469.714 81.7502 426.422C36.2232 382.313 -4.11879 325.797 0.337509 262.524C4.61567 201.779 61.7401 164.663 103.316 120.218C147.313 73.1837 181.343 6.27453 245.446 0.497493Z" fill="#EDF1FE"/>
<path d="M148.5 342.9C152.3 342.7 156.1 342.9 159.8 343.6C160.5 343.7 161.8 343.9 162.4 343.2L166.4 338.2C167.1 337.1 168.2 336.3 169.5 336.1C170.1 336.1 170.6 336.3 171.1 336.6L178 340C178.8 340.3 179.6 340.8 180.2 341.4C181.2 342.7 181.6 344.4 181.2 346C180.7 348.2 180.1 350.5 179.6 352.7C179.5 353.1 179.9 353.5 180.1 353.7C183.1 356.4 185.8 359.5 188.1 362.8C188.9 363.7 190.2 364.1 191.4 363.9L197.7 363.2C198.6 363 199.5 363.3 200.1 364C200.7 364.7 201.2 365.6 201.4 366.5L203.9 373.7C204.3 374.6 204.5 375.6 204.6 376.6C204.6 378.4 203.7 380.1 202.2 381C200.3 382.2 198.3 383.4 196.4 384.6C196.1 384.8 195.9 385.1 196 385.5C196.2 389.6 196 393.7 195.2 397.7C195.2 398.1 195.4 398.5 195.7 398.7L200.9 402.9C203.1 404.7 203.3 407.1 202.1 409.6L198.6 416.8C197.7 418.6 196.5 421.2 194.1 420.7C191.7 420.2 189.4 419.6 187.1 419C186.2 418.7 185.3 418.9 184.5 419.4C181.8 422.5 178.7 425.2 175.3 427.5C175 427.7 174.8 428 174.9 428.4C175.3 432.6 177.1 438.9 171.8 440.7C169.5 441.5 167.2 442.3 164.9 443C164.2 443.3 163.5 443.5 162.7 443.7C161.3 443.9 160.4 442.9 159.7 441.8C158.5 440 157.4 438.1 156.3 436.2C155.7 435.2 154 435 153.1 435.1C149.3 435.3 145.5 435.1 141.8 434.4C141.1 434.3 139.8 434.1 139.2 434.8C137.9 436.4 136.6 438 135.3 439.6C134.5 440.7 133.4 441.5 132.1 441.7C131.4 441.8 130.8 441.6 130.2 441.2L123.6 438C122.8 437.7 122 437.1 121.4 436.5C120.3 435.1 120 433.3 120.4 431.6C120.9 429.5 121.4 427.4 121.9 425.2C122 424.8 121.6 424.4 121.4 424.2C118.4 421.5 115.7 418.4 113.4 415.1C112.6 414.2 111.4 413.8 110.2 414L104 414.7C101.8 414.9 100.8 413.2 100.1 411.3L97.6999 404.2C97.2999 403.2 97.0999 402.2 97.0999 401.1C97.1999 399.3 98.1999 397.7 99.6999 396.7C101.6 395.5 103.5 394.4 105.4 393.2C105.7 393 105.9 392.7 105.8 392.3C105.6 388.2 105.8 384.1 106.6 380.1C106.6 379.7 106.4 379.3 106.1 379.1C104.7 378 103.3 376.9 101.9 375.7C99.3999 373.6 98.7999 370 100.3 367.2C101.1 365.4 102.1 363.6 103 361.8C104.1 359.6 106.1 357.3 108.9 357.5C110.9 357.8 112.9 358.3 114.8 358.9C115.7 359.2 116.6 359 117.4 358.5C120.1 355.4 123.2 352.7 126.6 350.4C126.9 350.2 127.1 349.9 127 349.5C126.8 347.4 126.5 345.3 126.3 343.2C125.9 340.6 127.4 338.1 129.9 337.2C132.2 336.4 134.6 335.6 136.9 334.8C137.6 334.5 138.4 334.2 139.2 334.1C140.4 333.9 141.3 334.9 141.9 335.9C143.1 337.8 144.3 339.7 145.5 341.7C146.1 342.3 146.9 342.7 147.8 342.8C148.3 342.9 149.7 343 150 342.3C150.9 340.5 146.1 339.2 145.4 340.7L149.9 341.3C148.7 339.4 147.6 337.4 146.3 335.5C144 331.9 139 330.6 135 331.9C132.5 332.7 130 333.6 127.4 334.5C126.3 334.8 125.2 335.3 124.2 335.9C122.4 337.1 121.3 339.2 121.2 341.4C121.3 344 121.6 346.6 122 349.2L122.4 348.3C118.8 350.7 115.5 353.6 112.6 356.9L115.2 356.5C113.2 356 111.2 355.4 109.2 355.1C104.9 354.4 100.4 356 98.3999 360.1C97.4999 362 96.4999 363.9 95.5999 365.9C93.9999 369 94.2999 372.8 96.5999 375.5C98.2999 377.3 100.2 378.9 102.3 380.3L101.8 379.3C101 383.6 100.7 387.9 101 392.2L101.4 391.3C99.4999 392.4 97.5999 393.6 95.7999 394.8C92.7999 396.7 91.4999 400.4 92.8999 403.7L95.4999 411.3C96.8999 415.2 100.6 417.8 104.7 417.7C107.3 417.6 109.8 417.3 112.3 416.9L109.1 415.8C111.5 419.4 114.5 422.7 117.8 425.6L117.3 424.6C116.8 426.7 116.2 428.8 115.8 431C115 434.8 117.2 438.1 120.5 439.8C122.9 441 125.3 442.1 127.6 443.3C131.3 445.1 135.8 445.7 139.1 442.8C141 441.1 142.4 438.8 144 436.9L141.4 437.3C146 438.2 150.6 438.5 155.3 438.2L152 437.1C153.1 439 154.3 440.9 155.4 442.7C157.8 446.3 162.8 447.7 166.9 446.4C169.4 445.6 171.9 444.7 174.3 443.9C175.5 443.6 176.6 443.1 177.6 442.4C179.4 441.1 180.5 439 180.5 436.8C180.4 434.3 180.1 431.7 179.7 429.2L179.3 430.1C182.9 427.7 186.2 424.8 189.1 421.5L186.5 421.9C188.8 422.4 191.1 423 193.4 423.5C197.3 424.4 200.9 423.2 202.7 419.5C204 417 205.2 414.4 206.5 411.9C207 411 207.4 410.1 207.7 409.1C208.1 406.7 207.1 404.3 205.2 402.8C203.3 401.2 201.4 399.7 199.5 398.2L200 399.2C200.8 394.9 201.1 390.6 200.8 386.3L200.4 387.2C202.3 386 204.3 384.9 206.2 383.7C209.3 381.7 210.2 378.4 209 375L206.3 367.2C205.9 365.9 205.2 364.7 204.3 363.7C202.3 361.8 199.7 360.8 197 360.9C194.5 361 192 361.4 189.5 361.7L192.8 362.8C190.3 359.2 187.4 355.9 184.1 353L184.6 354C185.1 351.8 185.7 349.5 186.2 347.3C187 343.5 184.8 340.5 181.6 338.9L174 335C170.3 333.2 165.7 332.5 162.5 335.7C160.7 337.5 159.3 339.6 157.7 341.6L160.3 341.2C155.7 340.3 151.1 340 146.4 340.3C145.5 340.4 144.6 340.9 145.2 341.8C145.8 342.7 147.5 342.9 148.5 342.9Z" fill="#0C41E2"/>
<path d="M140.8 363.199C130.1 366.899 122.3 376.899 122.2 388.399C122.1 400.399 130.1 410.899 141.4 414.799C152.5 418.599 165.3 415.899 173 406.799C180 398.399 181.3 386.699 176.3 376.999C170.4 365.599 157.4 359.899 144.9 362.099C143.5 362.399 142.1 362.699 140.8 363.199C139.9 363.499 139.6 364.199 140.4 364.899C141.4 365.699 142.7 365.899 143.9 365.599C153.9 361.899 165.1 365.899 170.5 375.099C175.8 383.499 175.7 394.199 170.4 402.599C165.2 410.599 155.4 415.499 145.8 413.499C135.6 411.399 128.3 402.299 127.2 392.099C126.1 380.499 132.9 369.699 143.9 365.699C144.8 365.399 145.1 364.599 144.3 363.999C143.3 363.099 142 362.899 140.8 363.199Z" fill="#0C41E2"/>
<path d="M151.1 459C160.9 460.2 170.7 458.8 179.7 454.8C180.1 454.6 178.1 454.2 178 454.2C177 454 175.9 454 174.9 454.2C167.5 457.7 159.3 459.1 151.1 458.3C150.8 458.3 148.6 458 148.6 458.4C148.6 458.8 151 459 151.1 459Z" fill="#0C41E2"/>
<path d="M191.3 450C192.9 449.3 194.4 448.3 195.8 447.1C196.5 446.5 197.2 445.8 197.8 445C198.4 444.2 199 443.4 199.4 442.5C199.6 441.9 199.6 441.3 199.4 440.7C199.2 440.1 198.7 439.6 198.1 439.2C197.6 438.9 196.9 438.8 196.3 439L195.8 439.3C195.5 439.5 195.2 439.8 195.1 440.2L195 440.3L195.3 439.8C194.5 441.1 193.6 442.3 192.5 443.3L192.9 442.9C191.8 444 190.5 444.8 189.1 445.5L189.6 445.3H189.5C188.9 445.5 188.5 445.9 188.2 446.5C188 447.1 188 447.7 188.2 448.3C188.4 448.9 188.9 449.4 189.5 449.8C190.1 450.1 190.7 450.1 191.3 450Z" fill="#0C41E2"/>
<path d="M347.7 52.2993C350.1 52.0993 352.5 52.2993 354.9 52.7993L357.4 49.6993C358.4 48.4993 360.1 48.0993 361.5 48.7993L366.6 51.2993C368 51.9993 368.8 53.5993 368.4 55.0993L367.5 58.9993C369.3 60.5993 370.9 62.3993 372.3 64.3993L376.2 63.9993C377.8 63.7993 379.3 64.7993 379.8 66.2993L381.6 71.5993C382.1 73.0993 381.5 74.7993 380.1 75.5993L376.7 77.6993C376.9 80.0993 376.7 82.4993 376.2 84.8993L379.5 87.5993C380.6 88.4993 381 90.0993 380.3 91.3993L377.6 96.8993C377 98.1993 375.5 98.8993 374.1 98.5993L370 97.5993C368.4 99.3993 366.6 100.999 364.6 102.399L365 106.199C365.2 107.899 364.2 109.499 362.5 109.999L357.5 111.699C355.9 112.199 354.1 111.599 353.3 110.199L351.3 106.999C348.9 107.199 346.5 106.999 344.1 106.499L341.7 109.399C340.6 110.699 338.8 111.099 337.2 110.399L332.5 108.099C331 107.299 330.2 105.599 330.6 103.999L331.5 100.299C329.7 98.6994 328.1 96.8993 326.7 94.8993L322.9 95.2994C321.2 95.4994 319.7 94.4993 319.1 92.8993L317.4 87.8993C316.9 86.2993 317.5 84.5993 318.9 83.6993L322.2 81.6993C322 79.2993 322.2 76.8993 322.7 74.4993L320.2 72.4993C318.6 71.1993 318.1 68.8993 319 67.0993L320.8 63.4993C321.7 61.5993 323.8 60.6993 325.8 61.0993L328.9 61.7993C330.5 59.9993 332.3 58.3993 334.3 56.9993L334 52.9993C333.8 51.3993 334.8 49.8993 336.4 49.2993L341.6 47.4993C343.1 46.9993 344.8 47.5993 345.7 48.9993L347.7 52.2993ZM344.7 65.3993C336.9 68.0993 332.7 76.5993 335.4 84.3993C338.1 92.1993 346.6 96.3993 354.4 93.6993C362.2 90.9993 366.4 82.4993 363.7 74.6993C363.2 73.2993 362.5 71.9993 361.6 70.6993C357.8 65.3993 350.9 63.2993 344.7 65.3993Z" fill="#0C41E2"/>
<path d="M298.3 71.7001C298.3 93.0001 311.8 113.1 330.8 122.3C350.9 132 375.4 128.2 393.3 115.5C397.8 112.3 401.8 108.6 405.3 104.3C408.9 99.8001 411.8 93.5001 408.5 88.0001C407.2 85.7001 404.9 84.0001 402.3 83.5001C399.6 83.2001 396.8 84.2001 394.9 86.2001C391.3 90.0001 390.7 95.6001 390.9 100.6C391.4 110.8 396.5 121.3 405.7 126.2C414.2 130.7 425.4 128.7 432.1 121.9C435.5 118.7 437.4 114.3 437.6 109.7C437.7 106.9 436.8 104.2 435 102C433.1 99.9001 430.2 99.2001 427.6 100.2C425.1 101.1 422.8 103.4 422.9 106.2C423 109 425.9 111.2 428.1 112.7C435.1 117.2 444 117.6 451.4 113.8C452.5 113.4 453.1 112.1 452.7 111C452.3 109.9 451 109.3 449.9 109.7C449.7 109.8 449.5 109.9 449.3 110C445.4 112 441 112.5 436.8 111.4C434.7 110.9 432.6 110 430.8 108.8C430 108.2 429.2 107.5 428.4 106.8C427.8 106.2 427.5 105.6 427.8 105.1C428.5 104.1 429.9 104.1 431 105.1C432.3 106.6 432.9 108.5 432.7 110.4C432.5 113.9 430.9 117.1 428.3 119.4C422.7 124.5 414.5 125.5 407.8 121.9C400.3 117.6 396.3 108.8 395.7 100.4C395.4 96.8001 395.6 92.1001 398 89.3001C398.3 89.0001 398.6 88.7001 398.9 88.5001C398.9 88.5001 399.4 88.3001 399.6 88.2001C400.4 88.0001 401.2 88.0001 401.9 88.4001C403.6 89.4001 404.8 91.1001 405 93.1001C405.8 97.8001 401.6 102.3 398.6 105.3C395.4 108.6 391.8 111.6 387.8 114C372.3 123.7 352 126.6 335 119C318.7 111.7 306.2 96.0001 303.6 78.2001C303.3 76.0001 303.1 73.8001 303.1 71.6001C303.2 68.5001 298.3 68.9001 298.3 71.7001Z" fill="#0C41E2"/>
<path d="M305.8 56.1998C307.2 50.5998 311 45.7998 316.1 43.0998C316.5 42.8998 314.1 38.4998 313.6 38.7998C308.4 41.4998 304.6 46.3998 303.2 52.0998C303.1 52.2998 303.5 52.9998 303.6 53.1998C303.9 53.7998 304.2 54.2998 304.5 54.8998C304.7 55.2998 305 55.6998 305.4 56.0998C305.5 56.2998 305.7 56.4998 305.8 56.1998Z" fill="#0C41E2"/>
<path d="M98.7982 70.9485L22.1848 339.207L385.728 443.033L462.341 174.775L98.7982 70.9485Z" fill="#EDF1FE"/>
<path d="M386.7 441.2L377 438.4L350.5 430.8L311.5 419.7L263.6 406L211.5 391.1L158.6 376L109.3 362L67.8001 350.1L37.8001 341.5C33.1001 340.2 28.4001 338.4 23.6001 337.5C23.4001 337.5 23.2001 337.4 23.0001 337.3L24.6001 339.1L32.2001 312.3L50.6001 248L72.7001 170.8L91.9001 103.7L98.1001 81.7998C99.1001 78.3998 100.5 74.7998 101.1 71.2998C101.1 71.0998 101.2 70.9998 101.2 70.7998L98.0001 72.7998L107.7 75.5998L134.2 83.1998L173.2 94.2998L221 108L273.1 122.9L326 138L375.3 152L416.8 163.9L446.8 172.5C451.5 173.8 456.2 175.6 461 176.5C461.2 176.5 461.4 176.6 461.6 176.7L460 174.9L452.4 201.7L434 265.9L411.9 343.1L392.7 410.2L386.5 432.1C385.5 435.6 384.2 439.1 383.5 442.6C383.5 442.8 383.4 442.9 383.4 443.1C382.7 445.6 387.7 445.3 388.3 443L395.9 416.2L414.2 352L436.3 274.8L455.5 207.7L461.7 185.8C462.7 182.3 464 178.8 464.7 175.3C464.7 175.1 464.8 175 464.8 174.8C465.1 173.8 463.9 173.2 463.2 173L453.5 170.2L427 162.6L388 151.5L340.2 137.8L288.1 122.9L235.2 107.8L185.9 93.6998L144.4 81.8998L114.4 73.2998C109.7 71.9998 105 70.4998 100.2 69.2998C100 69.1998 99.8001 69.1998 99.6001 69.0998C98.2001 68.7998 96.8001 69.5998 96.3001 70.9998L88.7001 97.7998L70.4001 162L48.3001 239.3L29.1001 306.4L22.8001 328.3C21.8001 331.8 20.5001 335.3 19.8001 338.8C19.8001 338.9 19.7001 339.1 19.7001 339.3C19.4001 340.3 20.6001 340.9 21.3001 341.1L31.0001 343.9L57.5001 351.5L96.5001 362.6L144.3 376.3L196.5 391.2L249.4 406.3L298.7 420.4L340.2 432.2L370.2 440.8C374.9 442.2 379.6 443.7 384.4 444.8L385 445C387.4 445.6 389.8 442.1 386.7 441.2Z" fill="#0C41E2"/>
<path d="M256.6 209.899C242.3 206.799 227.4 209.799 215.5 218.199C203.1 227.099 195.6 241.199 195.1 256.399C194.9 266.099 197.5 275.599 202.7 283.799C203.4 284.899 206 284.499 206.9 283.899L220.1 274.599L240.4 260.299C241.8 259.499 243.1 258.499 244.4 257.499C244.8 257.099 245 256.499 245.1 255.999L246 252.899L252.7 229.399C254.4 223.399 256.3 217.499 257.8 211.499L257.9 211.199C258.4 209.399 253.5 209.499 253 211.099L248.6 226.599L241.5 251.299L239.9 256.999L240.5 256.399L227.9 265.299L207.9 279.399L203.3 282.699L207.5 282.799C198.8 269.099 197.8 251.999 204.6 237.299C210.2 225.499 220.5 216.699 233 212.999C240 210.999 247.3 210.899 254.4 212.399C255.6 212.699 256.8 212.399 257.8 211.599C258.4 210.499 257.4 209.999 256.6 209.899Z" fill="#0C41E2"/>
<path d="M258 209C256.7 208.6 255.4 208.3 254.1 208C253.3 207.8 251.2 207.8 250.9 208.9L246.6 223.8L239.6 248.2L238.4 252.3C238.1 253 237.9 253.8 237.8 254.5C237.8 254.6 237.7 254.7 237.7 254.7C237.8 255 237.9 254.2 238.1 254.3C238 254.3 237.9 254.5 237.8 254.5C237.1 254.9 236.4 255.5 235.7 255.9L216.6 269.3L206.5 276.4C204.7 277.7 202.8 278.9 201 280.3C200.9 280.4 200.8 280.4 200.7 280.5C199.6 281.2 200.3 282.5 200.8 283.3C208.9 295.9 222.4 304.4 237.1 307.3C249.6 309.7 262.5 307.5 273.5 301C284.1 294.6 291.8 284.5 295.2 272.6C298.6 260.6 297.3 247.7 291.7 236.6C285.5 224.7 275.3 215.5 262.8 210.7C261.4 210 259.7 209.4 258 209C256.7 208.6 253.4 208.1 253.5 210.3C253.6 212.5 256.7 214 258.3 214.5C259 214.7 259.7 214.9 260.3 215.1L261.3 215.5C261.5 215.6 262.7 216.1 262 215.7L262.5 215.9C262.8 216 263.1 216.2 263.5 216.3C264.2 216.6 264.9 216.9 265.5 217.3C265.8 217.4 266.1 217.6 266.4 217.8C267.3 218.2 265.6 217.3 266.4 217.8L268.3 218.9C268.9 219.3 269.4 219.7 270 220L270.8 220.6C270.9 220.7 271.1 220.8 271.2 220.9C271 220.8 270.5 220.4 271 220.8C272.1 221.7 273.2 222.6 274.2 223.5C274.7 224 275.2 224.4 275.6 224.9L276 225.3C276 225.3 275.5 224.8 275.8 225.1L276.6 226C277.6 227.1 278.5 228.2 279.3 229.4C279.7 229.9 280.1 230.5 280.4 231L280.9 231.8L281.2 232.2C281.5 232.7 280.9 231.8 281.2 232.3C287 241.9 289 253.2 287 264.2C284.9 275.5 278.7 285.5 269.6 292.5C265.3 295.8 260.5 298.3 255.4 299.9C254.1 300.3 252.7 300.7 251.4 300.9C250.7 301 250.1 301.2 249.4 301.3L248.7 301.4C249.1 301.3 248.5 301.4 248.5 301.4L247.8 301.5C246.4 301.7 245 301.8 243.6 301.8C242.9 301.8 242.2 301.8 241.6 301.8H240.6C240.3 301.8 239.3 301.7 240.1 301.8C238.7 301.7 237.2 301.5 235.8 301.3C235.1 301.2 234.4 301.1 233.7 300.9C233.6 300.9 233.2 300.9 233.2 300.8C233.2 300.7 234.1 301 233.5 300.9L232.3 300.6C231.5 300.4 230.7 300.1 229.9 299.9L228.8 299.5L228.2 299.3C227.6 299.1 228 299.3 228.3 299.4C226.7 298.9 225.3 298.3 223.9 297.4C223.7 297.3 222.7 296.7 223.3 297.1L222.7 296.8C222 296.4 221.3 295.9 220.6 295.5C219.9 295.1 219.4 294.6 218.7 294.2C219.4 294.7 218.8 294.3 218.5 294L217.5 293.2C216.3 292.2 215.2 291.1 214.1 290C213.5 289.4 214.4 290.3 213.8 289.7L213 288.9C212.5 288.3 212 287.7 211.4 287C210.4 285.8 209.5 284.5 208.7 283.2L208.8 286L221.9 276.8L242.3 262.5C243.6 261.7 244.9 260.8 246.1 259.8C246.5 259.3 246.8 258.8 246.9 258.2L247.8 255L254.5 231.5L257.8 219.9C258.4 217.8 259.2 215.7 259.6 213.6C259.6 213.5 259.6 213.4 259.7 213.3L256.5 214.2C255.9 214.1 256.6 214.2 256.9 214.3L258 214.6C259.3 215 262.5 215.5 262.5 213.3C262.5 211.1 259.6 209.4 258 209Z" fill="#0C41E2"/>
<path d="M124.6 135C124.4 135.6 124.8 134.9 125 134.7C125.4 134.3 125.9 133.9 126.3 133.5C127.7 132.3 129.1 131.2 130.6 130.2C134.2 127.7 138.3 125.1 142.7 124.4C143.6 124.2 144.5 124.2 145.4 124.2C145.6 124.2 145.8 124.2 146 124.3C146.4 124.4 146.1 124.3 146 124.3L146.4 124.4C146.5 124.4 147.2 124.7 146.7 124.5L147.3 124.8C146.7 124.5 147.4 124.9 147.5 125C147.1 124.7 147.4 125 147.6 125.1C148 125.5 147.5 125 147.8 125.3C148.1 125.6 148.2 125.8 148.2 125.8C148.8 126.8 149.3 128 149.5 129.2C150.6 133.6 149.2 138.4 147.4 142.4C145.2 147.1 142.3 151.4 138.8 155.2C136.2 158.1 133.2 161.1 129.6 162.7C129.3 162.8 129 163 128.7 163.1C128.4 163.2 128.8 163.1 128.6 163.1L128.1 163.2C128 163.2 127.9 163.2 127.7 163.2C128.1 163.3 127.5 163.2 127.7 163.2C127.3 163.1 127.9 163.3 127.8 163.2C127.3 163 128.2 163.4 127.9 163.3C128.3 163.5 128.6 163.8 128.9 164.1C129.2 164.5 128.8 164 128.9 164C129 164 129 164.4 128.9 163.9C128.9 163.8 128.9 163.6 128.8 163.5C128.7 163.1 128.8 163.5 128.8 163.3C128.8 162.9 128.8 162.5 128.9 162.1C129.4 157.5 132 153.5 135.3 150.4C142.2 143.8 153 139.9 162.4 140C163.4 140 164.5 140.1 165.5 140.2C166.3 140.3 167.1 140.5 167.9 140.7L168.5 140.9C169.1 141.1 168.2 140.7 168.7 141L169.2 141.2C169.6 141.4 169.6 141.4 169.4 141.3L169.8 141.6C170.4 141.9 169.6 141.4 169.9 141.6L170.3 141.9C170.7 142.2 170.1 141.5 170.4 142C170.5 142.1 170.8 142.5 170.6 142.2C170.4 141.9 170.7 142.4 170.8 142.5C170.9 142.6 171 142.8 171 142.9C170.8 142.5 171.1 143.1 171.1 143.2C171.3 143.9 171.4 144.6 171.3 145.3C171.1 148.4 170.1 151.4 168.5 154.1C167.3 156.3 165.6 158.1 163.6 159.7C162.8 160.3 162 160.8 161.1 161.1C160.9 161.2 160.8 161.2 160.6 161.3C160.4 161.4 160.7 161.3 160.3 161.4L159.9 161.5C159.5 161.6 159.8 161.5 159.7 161.5C159.5 161.4 160 161.6 160 161.6C160.4 161.8 160.8 162 161.1 162.4C161.2 162.5 161.7 162.9 161.4 162.7C161.4 162.7 161.5 163.1 161.5 162.9C161.5 162.8 161.5 162.5 161.5 162.8C161.5 163.1 161.5 162.6 161.5 162.5C161.5 162.4 161.6 162.1 161.6 161.9C161.7 161.5 161.9 161.1 162 160.7C163.1 158.5 164.5 156.6 166.2 154.9C170.1 150.8 175 147.8 180.4 146.3C182.7 145.6 185.2 145.6 187.6 146.1C188.5 146.3 189.4 146.8 190.2 147.4C191.1 148.2 191.9 149.2 192.5 150.2C195.3 154.9 197.7 162.5 194.4 167.6C194 168.3 193.5 168.8 192.8 169.3C192.5 169.5 192.1 169.7 191.8 169.8C191.5 169.9 192 169.8 191.6 169.9C191.4 169.9 191.2 170 191 170C190.7 170 191.4 170 190.9 170C190.6 169.9 190.4 170 190.9 170C191.3 170.2 190.4 169.7 190.9 170C190.9 170 191.5 170.4 191.2 170.1C190.9 169.8 191.4 170.3 191.4 170.3C191.1 170.1 191.5 170.4 191.5 170.5C191.5 170.4 191.4 170.4 191.3 170.3C191.3 170.3 191.6 170.7 191.4 170.4C191.3 170.3 191.3 170.2 191.3 170.1C191.4 170.5 191.1 169.8 191.3 170.1C191.2 169.7 191.3 170 191.3 169.9C191.5 168.4 192.2 167 193.3 165.9C194.8 164.2 196.4 162.8 198.3 161.5C200.3 160.1 202.4 159.1 204.7 158.3C205.7 158 206.6 157.8 207.6 157.7C208 157.7 208.5 157.7 208.9 157.7L209.5 157.8C209.7 157.8 209.5 157.8 209.4 157.8L209.9 158L210 158.1C210 158.1 210.5 158.4 210.1 158.2L210.4 158.4L210.3 158.3C210.4 158.4 210.5 158.5 210.6 158.6C210.6 158.6 210.3 158.3 210.5 158.5C211.1 159.3 211.5 160.1 211.8 161.1C212.2 162.2 213.2 163.1 214.3 163.4C215 163.6 216.4 163.6 216.1 162.4C214.6 156.6 208.8 153.1 203 154.4C197.7 155.6 192.9 158.5 189.3 162.6C188.1 163.9 186.8 165.7 186.7 167.6C186.6 170 188.8 172.1 190.8 173C195.6 175 199 170.4 199.7 166.2C200.2 162.4 199.6 158.6 198.2 155.1C196.7 151.2 194.7 147.7 191.3 145.1C185.8 141 178.8 141.5 172.8 144.1C167.1 146.6 162.2 150.6 158.6 155.8C157.5 157.5 156.1 160 157 162C158.1 164.2 160.5 165.3 162.9 164.8C168.1 163.6 172.1 158.2 173.8 153.5C174.8 150.8 175.7 147.6 175 144.8C174.4 142.6 173.1 140.7 171.3 139.4C167.4 136.4 162.2 135.9 157.5 136.2C151.8 136.6 146.1 138 140.9 140.5C135.8 142.9 130.8 146.3 127.6 151C126.1 153.2 125 155.6 124.4 158.2C123.9 159.9 124 161.8 124.7 163.5C125.8 165.4 127.9 166.6 130.2 166.4C131.9 166.1 133.4 165.5 134.8 164.5C139.1 161.5 142.8 157.9 145.8 153.6C149.2 149 152.1 143.8 153.3 138.2C154.5 132.6 153.4 126.2 148.7 122.6C144.3 119.2 138.7 120.2 133.9 122.3C129.5 124.4 125.4 127 121.7 130.3C120.8 130.9 120.1 131.7 119.6 132.6C119 134.2 123.3 136.7 124 134.8L124.6 135Z" fill="#0C41E2"/>
<path d="M208.4 254.3L200 255.6L179.9 258.8L155.5 262.7L134.5 266.1C131.1 266.6 127.6 267 124.3 267.7H124.1C122.8 268 121.9 269.1 122 270.4C122.2 271.8 123.6 272.1 124.7 271.9L133.1 270.6L153.2 267.4L177.6 263.5L198.6 260.1C202 259.6 205.5 259.2 208.8 258.5H208.9C210.2 258.2 211.1 257.1 211 255.8C211 254.5 209.6 254.2 208.4 254.3Z" fill="#0C41E2"/>
<path d="M119 266.8C117.2 267.1 115.2 267.6 114.1 269.1C113.7 269.8 113.6 270.6 113.9 271.3C114.2 272.1 114.8 272.7 115.6 273.1C117.5 274.1 119.6 274.6 121.8 274.3C122.8 274.3 123.9 274 124.8 273.5C125.6 273.1 126.2 272.5 126.6 271.7C126.9 270.9 126.9 270.1 126.6 269.4C126 268.3 125 267.6 123.8 267.5C123.2 267.4 122.5 267.4 121.9 267.5C121.4 267.6 121 267.9 120.7 268.2C120.3 269.2 121.6 269.8 122.4 269.9C122.7 270 121.8 269.7 122.1 269.8L121.7 269.6C121.8 269.7 121.8 269.6 121.6 269.5C121.4 269.4 121.7 269.6 121.7 269.7L121.5 269.4C121.7 269.6 121.8 269.9 121.8 270.2L121.7 269.8C121.8 270.2 121.7 270.6 121.6 271L121.7 270.7C121.6 271 121.5 271.2 121.3 271.5L121.6 271.2C121.5 271.3 121.4 271.4 121.3 271.5L121.1 271.6C121.1 271.6 121.6 271.4 121.3 271.5C121.2 271.5 121 271.6 120.9 271.6C119.8 271.7 119 272.6 119.1 273.6C119.2 274.7 120.1 275.5 121.1 275.4C122.2 275.3 123 274.4 122.9 273.4C122.8 272.4 122.1 271.6 121.1 271.6H120.9C120.4 271.6 121.5 271.6 121 271.6H120.5C120.4 271.6 119.8 271.5 120.3 271.6C120.8 271.7 120.3 271.6 120.2 271.6C120.1 271.6 119.9 271.5 119.8 271.5C119.5 271.4 120.1 271.6 120.1 271.6C120.1 271.6 119.9 271.6 119.9 271.5C119.8 271.4 119.6 271.4 119.5 271.4C119.3 271.3 119.9 271.6 119.7 271.5L119.5 271.4C119.4 271.3 119.3 271.2 119.1 271.2C119.1 271.2 119.4 271.5 119.3 271.3L119.2 271.2C119.1 271.1 119 271 118.9 270.9L119.1 271.2C119 271 118.9 270.8 118.8 270.5L118.9 270.9C118.8 270.6 118.8 270.3 118.9 270L118.8 270.3C118.9 270.1 119 269.8 119.2 269.7L118.9 270C119.1 269.8 119.3 269.7 119.4 269.5C119.2 269.6 119 269.9 119.4 269.5L119.7 269.3C120 269.2 119.1 269.5 119.7 269.3L120.1 269.2L120.5 269.1C121.1 269 120 269.2 120.4 269.1C120.9 269.1 121.5 268.9 121.9 268.6C122.2 268.4 122.3 268 122.2 267.6C121.6 266.9 119.9 266.6 119 266.8Z" fill="#0C41E2"/>
<path d="M256 233.9C262.8 231.2 269.6 228.8 276.4 226.5C279.4 225.5 273 218.1 270.1 219.1C263.2 221.4 256.4 223.9 249.7 226.5C247.8 227.2 249.6 229.9 250.4 230.9C251.2 231.9 252.3 232.7 253.4 233.3C254.2 233.7 255.2 234.2 256 233.9Z" fill="#0C41E2"/>
<path d="M250 245.7C251.3 245.1 252.6 244.6 253.8 244.1L255.8 243.4C256.6 243.1 255.1 243.6 255.8 243.4L256.9 243C259.5 242.1 262.2 241.3 264.9 240.6C267.5 239.9 270.2 239.4 272.8 238.9C274.2 238.7 275.5 238.5 276.9 238.3L278 238.2C277.5 238.3 277.8 238.2 278.1 238.2C278.9 238.1 279.6 238 280.4 238C282.8 237.8 285.6 236.3 285.9 233.6C286.1 231.4 284.6 229.5 282.4 229.3C282.2 229.3 281.9 229.3 281.7 229.3C269.4 230.4 257.4 233.4 246.1 238.4C244 239.3 242.3 242.2 243.5 244.4C245 246.5 247.7 246.7 250 245.7Z" fill="#0C41E2"/>
<path d="M243.1 259.899C250.1 257.299 257.3 255.199 264.5 253.299C266.3 252.899 268 252.399 269.8 251.999L272.4 251.399L273.1 251.299L274.5 250.999C278.2 250.299 282 249.599 285.8 249.099C288 248.799 290.8 247.499 291.6 245.299C292.4 243.099 290.1 242.299 288.3 242.499C272.9 244.599 257.8 248.399 243.2 253.599C241.4 254.299 238.4 255.699 238.5 257.999C238.6 260.299 241.6 260.399 243.1 259.899Z" fill="#0C41E2"/>
<path d="M217.1 283.4C235.7 276.8 254.7 271.5 274.1 267.6L275 267.4C275.4 267.3 275.6 267.3 275.1 267.4L277.2 267L281.2 266.3C284 265.8 286.8 265.3 289.7 264.9C291.9 264.6 294.7 263.1 294.3 260.4C293.8 258 291.4 256.4 289 256.8C269 260 249.2 264.5 229.9 270.5C224.5 272.2 219.1 274 213.8 275.9C211.8 276.6 209.6 278.9 210.8 281.2C212.1 283.3 214.8 284.3 217.1 283.4Z" fill="#0C41E2"/>
<path d="M213.9 294.9C222.8 293.7 231.5 292 240.2 289.6C248.4 287.5 257 285.1 264.9 283.5C269.7 282.5 274.5 281.9 279.3 281.6C281.6 281.4 283.8 280.6 285.8 279.3C286.4 278.9 287.4 278.3 287.6 277.6C287.8 276.9 287.2 276.8 286.7 276.8C268.7 277.8 251.6 283.8 234 287.7C229.3 288.8 224.5 289.6 219.6 290.2C217.2 290.5 215 291.5 213.2 293.1C212.8 293.4 212 294.1 212.3 294.6C212.6 295.1 213.5 294.9 213.9 294.9Z" fill="#0C41E2"/>
<path d="M238.5 305.8C249.8 301.7 261.3 298.5 273.1 296.1C277.9 295.2 271.4 287.9 268.1 288.6C255.8 291 243.7 294.4 232 298.7C229.9 299.5 231.7 302.6 232.6 303.5C234 304.9 236.4 306.6 238.5 305.8Z" fill="#0C41E2"/>
<path d="M287 348.799C280.8 333.399 273 318.599 265.2 303.999C264.6 302.899 263.4 302.299 262.2 302.599C261 303.099 261.1 304.499 261.6 305.499C269.2 319.799 276.9 334.099 282.9 349.199C283.3 350.399 284.4 351.299 285.7 351.299C286.6 351.199 287.3 350.299 287.2 349.299C287.1 349.099 287.1 348.999 287 348.799Z" fill="#0C41E2"/>
<path d="M99.4 212.5C100.3 203.3 104.6 194.9 108.8 186.9C109.2 186.1 109.6 185.3 110.2 184.5C111.1 183.5 112.2 183.8 113.4 184.1C115.7 184.6 118 185.2 120.2 185.8C124.7 187 129.2 188.4 133.7 190C138.2 191.6 142.6 193.3 146.9 195.2L148.6 196C148.8 196.1 149 196.2 149.2 196.3C150.6 196.8 147.6 195.3 147.9 195.2C147.9 195.8 147.8 196.3 147.7 196.9C147.5 197.6 147.3 198.3 147 199C146.2 201.4 145.5 203.7 144.7 206C143.1 210.7 141.6 215.3 139.9 220C139.3 221.7 138.9 224.7 136.8 225.2C134.7 225.7 132.4 224.8 130.5 224.1C128.1 223.2 125.7 222.1 123.3 221.1C120.9 220.1 118.4 219.2 115.9 218.5C110.9 217 105.8 215.8 100.6 214.9C99.9 214.8 101.5 216.5 101.6 216.5C102.3 217.3 103.2 217.9 104.3 218.2C109.4 219 114.5 220.2 119.5 221.8C124.2 223.3 128.6 225.4 133.2 227.1C135.3 228 137.6 228.5 139.9 228.5C142.4 228.3 142.9 226.1 143.6 224.1C145.4 219.1 147.1 214 148.8 208.9C149.6 206.4 150.4 203.9 151.2 201.4C151.7 200.4 151.9 199.3 151.9 198.2C151.7 197 150.6 196 149.6 195.3C147.5 193.9 145.3 192.8 143 191.9C140.6 190.9 138.2 189.9 135.9 189C131.1 187.2 126.3 185.5 121.4 184.1C119 183.4 116.6 182.7 114.1 182.1C112.9 181.8 111.7 181.5 110.4 181.2C109.4 180.8 108.2 180.7 107.1 180.9C106 181.3 105.5 182.4 104.9 183.4C104.3 184.6 103.6 185.8 103 187C101.8 189.4 100.6 191.9 99.5 194.3C97.2 199.3 95.8 204.5 95.1 209.9C95 210.6 96.8 211.8 97.3 212.1C97.9 212.2 99.4 213.2 99.4 212.5Z" fill="#0C41E2"/>
<path d="M124.3 222.5C131.6 220.3 138.6 217.1 145.1 213C145.7 212.6 142.7 208.7 141.7 209.3C135.2 213.4 128.2 216.6 120.9 218.8C120.3 219 121.9 220.9 122.1 221.1C122.6 221.6 123.5 222.7 124.3 222.5Z" fill="#0C41E2"/>
<path d="M121.6 212.4L143.1 199C143.6 198.8 143.8 198.3 143.6 197.8C143.5 197.5 143.2 197.3 142.9 197.2C141.7 196.8 140.5 196.9 139.4 197.5L118 210.9C117.5 211.2 117.3 211.8 117.6 212.3C117.7 212.5 117.9 212.7 118.1 212.7C119.3 213.2 120.6 213.1 121.6 212.4Z" fill="#0C41E2"/>
<path d="M105.8 213.7C113.7 206.7 122.4 200.6 131.7 195.6C134.1 194.3 130.4 191.2 128.6 192.2C119 197.3 110.1 203.5 101.9 210.7C100.1 212.3 104.2 215 105.8 213.7Z" fill="#0C41E2"/>
<path d="M108.1 197.6C112.1 194.5 116.2 191.8 120.6 189.3C121 189.1 122.1 188.1 121 187.9C119.8 187.8 118.7 188.2 117.7 188.8C113 191.4 108.6 194.4 104.3 197.7C104.1 197.8 103.7 198.2 103.8 198.5C103.9 198.8 104.5 198.8 104.7 198.8C106 198.7 107.1 198.3 108.1 197.6Z" fill="#0C41E2"/>
<path d="M179.4 356.7C191.5 356.9 204.3 356.4 215.2 350.5C220 348 224.2 344.4 227.4 340.1C228.8 338.3 229.6 336.1 229.5 333.8C229.2 331.1 226.9 329.1 224.3 329.1C221.3 329 218.9 331.1 216.8 333C214.6 335 212.5 337.1 210.7 339.4C207.2 343.7 203.7 348.9 203.5 354.6C202.9 367.1 219 369 228.1 368.6C234.6 368.4 241 367 247.1 364.6C250.2 363.4 253.1 361.9 255.9 360.1C258.3 358.6 260.6 356.1 260.1 353C259.8 351.8 258.7 350.9 257.5 350.9C252.9 351.2 250.1 354.5 248.2 358.4C246.3 362.3 244.8 367 247.4 370.9C249.8 374.4 254.1 374.9 258 374.8C261.2 374.7 264.8 374.2 267 376.8C268.2 378.4 269.3 380.2 270.3 381.9C271.4 383.8 273 385.3 274.9 386.4C276 387 277.4 386.8 278.2 385.9C278.9 384.8 278 383.7 277.1 383.2C274.6 381.8 273.4 378.5 271.9 376.2C269.9 373.3 266.7 371.3 263.1 371C260 370.6 256.5 371.5 253.6 370.7C252.5 370.5 251.5 369.6 251.2 368.5C250.8 366.8 250.9 365 251.5 363.4C252.1 361.5 253 359.6 254.1 358C254.9 356.8 256.2 355 257.9 354.9L255.3 352.8C255.6 354.8 253.7 356.2 252.2 357.2C250.1 358.5 248 359.6 245.7 360.6C241.2 362.5 236.5 363.8 231.7 364.4C227.1 365 222.4 364.9 217.9 364.1C214.3 363.4 210.4 362 209 358.3C207.4 354 210 349 212.4 345.5C215.2 341.4 218.5 337.6 222.4 334.5C223.1 333.9 223.9 333.4 224.8 333C225 332.9 224.7 333 224.6 332.8C224.7 333 224.8 333.3 224.8 333.5C225 335.3 223.9 336.9 222.9 338.3C220.2 341.8 216.9 344.7 213 346.7C202.7 352.4 190.8 352.8 179.3 352.6C178.2 352.6 176.9 353.2 177 354.5C177 355.9 178.2 356.7 179.4 356.7Z" fill="#0C41E2"/>
<path d="M301.9 203.9C307.9 200.8 313.7 197.2 319 193C321.6 190.9 324.2 188.8 326.6 186.4C327.9 185.2 329.1 184 330.3 182.8C331.5 181.7 332.5 180.4 333.3 178.9C334.9 175.4 332.4 172.3 328.8 171.8C325.6 171.4 322.3 172.3 319.7 174.3C314.3 178.5 312.4 185.9 311 192.3C310 195.9 309.5 199.6 309.4 203.3C309.4 206.8 312.1 209.1 315.4 209.7C318.5 210.1 321.7 210 324.7 209.3C328 208.7 331.3 207.7 334.3 206.3C337.2 205 339.9 203.3 342.4 201.4C343.6 200.4 345.2 199.4 345.5 197.8C345.8 196.2 345 194.5 343.6 193.7C338.2 190.1 330.8 194.8 328.8 200.1C326.4 206.5 330.5 213.7 336.7 216.1C343.3 218.7 350.7 215.7 354.5 209.8C355.2 208.7 354 207.3 353.1 206.8C350.2 205.4 346.7 206.3 344.8 208.9C342.7 211.6 343.1 215.1 345.2 217.8C350.2 224.3 359.2 222.6 365.8 220.1C368.8 219 366.4 214.9 363.9 215.9C359.8 217.5 354 219.6 350.1 216.6C348.9 215.7 347.9 214.2 348.5 212.6C348.8 211.9 349.3 211.2 350 210.8C350.7 210.4 351 210.4 351.4 210.7L350 207.7C347.9 211 343.6 213.3 339.6 212.5C335.8 211.7 333 208.3 333 204.4C333.1 202.4 334 200.4 335.5 199C336.9 197.7 338.7 196.9 340.6 196.9C340.7 196.9 340.9 197 341 196.9C341.1 196.8 340.9 196.3 340.8 196.3L340.3 196.8C339.4 197.6 338.4 198.4 337.3 199.1C335.2 200.5 333 201.7 330.7 202.7C326.4 204.5 321.2 205.9 316.5 205.5C315.8 205.5 315 205.3 314.4 204.9C313.9 204.3 314.2 202.8 314.3 202C314.6 199.1 315.1 196.2 315.8 193.3C316.9 188.4 318.3 182.6 321.8 178.9C323.2 177.3 325.2 176.3 327.3 176.1C327.7 176.1 328.7 176.3 328.9 176.2C329 176.2 328.9 176 328.8 176C328.6 176.3 328.5 177 328.3 177.3C328 177.8 327.5 178.4 327.1 178.8C318.9 187.5 309.3 194.7 298.7 200.2C297.8 200.8 297.5 202 298.1 203C298.2 203.1 298.2 203.2 298.3 203.2C299.1 204.2 300.6 204.5 301.7 204L301.9 203.9Z" fill="#0C41E2"/>
<path d="M61.9 304.499C66.4 298.499 73.1 294.499 80.5 293.399C81.4 293.199 82.2 293.099 83.1 293.099C83.9 293.099 83.9 293.299 84.2 294.099C84.7 295.799 85 297.5 85.1 299.2C85.3 302.7 84.7 306.299 83.4 309.599C82 313.299 79.7 316.499 76.7 319.099L80.1 319.399C77.5 316.799 79 313.199 81.2 310.899C84 308.099 87.4 305.899 91.1 304.399C92.8 303.599 94.6 303.299 96.5 303.299C98.2 303.399 99.6 304.399 100.2 305.999C101.6 309.299 102.1 312.899 101.5 316.399C100.9 320.399 99 324.099 96.2 326.899L100.1 326.799C97.8 323.599 100 319.399 102.6 317.099C104.1 315.899 105.8 314.799 107.5 313.799C109.2 312.799 111.2 311.499 113.3 311.399C116.5 311.299 118.6 314.599 119.1 317.399C119.9 321.899 117.4 326.399 115.4 330.299C113.9 333.099 118.5 334.299 119.8 331.799C122 327.599 124.2 323.199 124.1 318.399C124.1 314.699 122.4 311.199 119.4 308.899C115.7 306.099 111.1 307.099 107.2 309.099C103.3 311.099 99.4 313.3 96.8 316.7C94 320.4 92.9 325.699 95.8 329.599C96.7 330.899 98.7 330.399 99.7 329.499C106 323.099 108.7 312.099 104.5 303.899C99.1 293.099 83.6 302.299 77.8 307.999C74.1 311.499 71.7 318 75.9 322.2C76.8 323.1 78.3 323.299 79.3 322.499C86.3 316.699 90.2 308.099 89.9 298.999C89.8 296.899 89.5 294.7 88.9 292.7C88.4 290.3 86.2 288.6 83.7 288.7C79.1 288.8 74.5 289.999 70.3 292.099C65.5 294.399 61.4 297.799 58.1 301.999C57.3 302.799 57.3 303.999 58.1 304.799C58.2 304.899 58.3 304.999 58.4 304.999C59.6 305.599 61 305.399 61.9 304.499Z" fill="#0C41E2"/>
<path d="M352.5 315.201C352.5 315.201 343.4 304.601 334.3 309.001C325.2 313.401 303.4 358.901 309.5 359.701C315.6 360.501 332.9 354.701 337 349.801C341.1 344.901 341.7 332.201 341.7 332.201L345.1 341.901L392.3 310.801C392.3 310.801 384.9 294.801 385.5 282.101C386 271.001 374.3 260.601 369.7 281.101C368.5 286.601 368.3 292.301 368.9 297.901L369.9 306.301C370 306.401 351.6 293.601 352.5 315.201Z" fill="#EDF1FE"/>
<path d="M354.8 314.9C349.1 308.2 337.4 302.7 329.9 309.8C327.1 312.6 324.7 315.7 322.6 319.1C319.9 323.4 317.4 327.7 315.2 332.2C313 336.6 310.9 341.1 309.1 345.7C307.6 349 306.6 352.5 306 356C305.8 357 305.9 358 306.2 359C306.9 360.8 308.9 361.1 310.6 361.2C313.2 361.2 315.8 360.9 318.3 360.3C321.4 359.6 324.4 358.6 327.4 357.5C330.2 356.4 332.9 355.1 335.5 353.6C337.5 352.5 339.2 350.8 340.4 348.9C342.9 344.4 343.6 338.8 344 333.8C344 333.4 344.1 333 344.1 332.7L339.2 332.3L342.6 342C343.1 343.6 345.8 343.9 347.1 343.1L363 332.7L388.5 315.9L394.3 312.1C394.7 311.9 394.8 311.4 394.7 311C392.6 306.3 390.9 301.5 389.7 296.5C388.6 292.4 388 288.2 388 283.9C388.2 281.2 387.8 278.4 386.9 275.8C385.2 271.3 381 267 375.7 268.2C373.2 268.9 371.1 270.7 370 273.1C368 277.2 366.8 281.6 366.5 286.1C365.8 292.9 366.8 299.7 367.5 306.4L371.9 305.6C366.7 302 356.8 298 352.2 304.5C350.1 307.4 350 311.4 350.1 314.9C350.1 316 351.3 316.6 352.3 316.8C352.9 316.9 355 316.8 355 315.7C354.9 312.9 354.9 309.7 356.2 307.1C356.4 306.7 356.7 306.3 356.9 305.9C357.1 305.6 357.4 305.3 357.7 305.1L358.1 304.8C358.5 304.5 358.1 304.8 358.3 304.7C358.5 304.6 358.7 304.5 358.9 304.5C359.4 304.3 358.8 304.5 359.1 304.4L359.7 304.3C360.3 304.2 359.5 304.3 359.8 304.3H360.3C360.4 304.3 360.5 304.3 360.6 304.3C360.9 304.3 360 304.2 360.5 304.3C361 304.4 361.3 304.4 361.7 304.5C362.2 304.6 362.1 304.6 361.7 304.5L362.4 304.7C362.8 304.8 363.2 304.9 363.5 305.1L364.1 305.3C364.7 305.5 363.8 305.2 364.3 305.4C364.9 305.7 365.6 306 366.2 306.3C366.8 306.6 367.2 306.9 367.8 307.2C367.9 307.3 368.5 307.6 368 307.3C369 308 372.6 308.8 372.4 306.5C371.7 301.8 371.3 297 371.1 292.3C371.1 287.6 371.8 282.8 373.1 278.3C373.9 275.8 375 273.1 377.2 271.6C377.5 271.4 377.7 271.3 378.1 271.2C377.6 271.4 378.2 271.2 378.3 271.2C378.3 271.2 377.7 271.2 378.1 271.2C378.5 271.2 377.6 271.1 378 271.2C378.5 271.3 378.2 271.1 378 271.2C378.1 271.2 378.9 271.6 378.2 271.2L378.7 271.5C378.8 271.5 379.1 271.7 378.8 271.6C378.5 271.5 378.9 271.7 379 271.7C380.4 272.9 381.5 274.5 382.1 276.3C383 278.8 383 281.2 383 283.8C383.1 287.7 383.6 291.6 384.5 295.3C385.7 300.7 387.5 306 389.8 311L390.2 309.9L374.3 320.4L348.9 337L343.1 340.8L347.6 341.9L344.2 332.2C343.7 331.3 342.7 330.7 341.7 330.7C341 330.7 339.4 330.8 339.3 331.8C339.1 335.5 338.6 339.2 337.6 342.8C337.1 345.2 336 347.4 334.5 349.2C332.9 350.6 331.2 351.8 329.2 352.7C324.3 355.2 319 357 313.5 358C313 358.1 312.4 358.2 311.8 358.2C311.7 358.2 311.6 358.2 311.5 358.2C311.2 358.2 310.9 358.2 310.6 358.2H310C309.5 358.2 310.4 358.3 309.8 358.2C309.2 358.1 310.4 358.4 310.1 358.3C310.4 358.4 310.6 358.5 310.9 358.7C310.8 358.6 311.3 359 311 358.7C311.3 358.9 311.1 358.9 311 358.6C311 358.4 310.9 358.2 310.9 358.1C310.9 358.4 310.9 358 310.9 357.7C311 354.7 312.1 351.7 313.1 349C314.6 344.9 316.3 341 318.2 337.1C322 329.2 326.2 321.2 331.7 314.4C332.2 313.8 332.8 313.1 333.3 312.5C333.4 312.3 333.6 312.2 333.8 312C334.1 311.8 334.3 311.5 334.6 311.3C335 310.9 335.5 310.6 335.9 310.3C335.7 310.4 335.6 310.4 335.8 310.3C336 310.2 336.6 310 336.9 309.8C337.5 309.6 338 309.5 338.6 309.4C342.7 309 346.8 312.2 349.7 315.1C350.1 315.5 349.6 315 349.9 315.3L350.1 315.5C350.9 316.4 352.2 316.8 353.4 316.6C354.4 316.6 355.6 315.8 354.8 314.9Z" fill="#0C41E2"/>
<path d="M357.6 317.4C355.1 315.2 352.7 313 350.1 310.9C348.6 309.7 347 308.7 345.2 308C344.9 307.8 344.4 307.7 344.1 307.9C343.8 307.9 343.6 308.2 343.7 308.5C343.8 309 344 309.5 344.3 309.9C344.7 310.5 345.1 311.1 345.6 311.6C346.9 313 348.3 314.4 349.9 315.5L351.4 316.5C352.2 317 353 317.4 353.9 317.7L352.8 317.2H352.9L351.6 316.4L351.8 316.5L350.3 315.5L350.9 316L349.4 314.8C350.9 315.9 352.2 317.2 353.6 318.5L352.1 317.1L352.3 317.3C353.7 318.6 355.2 319.8 356.8 320.9C357.4 321.3 358 321.6 358.7 321.9C359.1 322.1 359.6 322.3 360.1 322.3L360.6 322.1C360.8 321.6 360.7 321.1 360.4 320.7L359.8 319.7C359.1 319 358.4 318.2 357.6 317.4Z" fill="#0C41E2"/>
<path d="M295.6 369.6C295.6 369.6 373.8 316 377.3 316.1C380.8 316.2 387.7 325.3 386.7 329C385.7 332.7 308.5 384.5 306.3 385.2C304.1 385.9 280.5 390 280.5 390L295.6 369.6Z" fill="#0C41E2"/>
<path d="M296.5 371.3L306.9 364.2C314.8 358.8 322.8 353.4 330.7 348.1C339.5 342.2 348.4 336.2 357.3 330.4C363.3 326.5 369.3 322.4 375.6 319C376.3 318.6 377 318.3 377.7 318L378 317.9C377.5 318 377.8 317.9 377.9 317.9C378.8 318.2 379.5 318.6 380.2 319.2C382.4 321.1 384.2 323.5 385.2 326.2C385.4 326.8 385.5 327.4 385.5 328C385.7 327.8 385.5 327.7 385.5 328L385.2 328.3C383.7 329.8 382.1 331.2 380.4 332.4C377.4 334.7 374.3 337 371.2 339.2C362.7 345.3 354.1 351.2 345.5 357.1C337 362.9 328.5 368.6 320 374.3C315.4 377.4 310.8 380.7 305.9 383.4C305.8 383.5 305.6 383.5 305.5 383.6C305.3 383.7 305.8 383.5 305.6 383.6L305.3 383.7L304.4 383.9C302.3 384.3 300.2 384.7 298.2 385.1C293.1 386 288 387 283 387.9L280.1 388.4L281.7 391.6L294.9 373.7L296.8 371.1C297.7 369.9 295.6 366.8 294.6 368.2L281.4 386L279.5 388.6C278.8 389.5 279.8 392.1 281.1 391.8C289.3 390.3 297.6 389 305.8 387.2C307.2 386.9 308.5 386.3 309.6 385.4C312.1 383.8 314.7 382.2 317.2 380.5C325.4 375.1 333.6 369.6 341.8 364C350.8 357.9 359.8 351.6 368.7 345.3C374.6 341.1 380.7 337 386.2 332.2C386.7 331.8 387.2 331.3 387.7 330.7C388.8 329.1 388 326.7 387.4 325.1C386.1 322 384.2 319.2 381.7 316.9C380.4 315.7 378.4 313.9 376.5 314.4C374.8 314.8 373.1 316 371.7 316.9C368.6 318.7 365.6 320.6 362.6 322.5C353.9 328 345.4 333.7 336.8 339.5C328.1 345.3 319.4 351.2 310.7 357.1C305.6 360.5 300.6 364 295.6 367.4C295.4 367.6 295.1 367.7 294.9 367.9C293.5 368.9 295.2 372.2 296.5 371.3Z" fill="#0C41E2"/>
<path d="M405.5 323.9C405.5 323.9 477 392.4 475.6 405.8C471.5 446.4 429.7 451.6 429.7 451.6C429.7 451.6 400.6 413.2 396.3 411.6C396.3 411.6 384.9 417.4 368.2 411.9C351.5 406.4 330 396 318.4 387.1C306.8 378.2 305.5 363.5 319.7 364.7C333.9 365.9 348 373.3 353.8 370.7C359.6 368.1 355.8 356.4 355.8 356.4" fill="#EDF1FE"/>
<path d="M404.8 325.7C410.3 330.9 415.6 336.2 420.9 341.6C422.1 342.9 423.3 344 424.3 345L428.1 348.8C430.8 351.5 433.4 354.3 436.1 357C441.5 362.7 446.9 368.4 452.1 374.3C456.8 379.6 461.4 385 465.7 390.6C466.6 391.8 467.5 392.9 468.3 394.1C468.7 394.6 469.1 395.2 469.4 395.7C469.5 395.8 469.6 396 469.7 396.1C469.6 396 469.3 395.5 469.7 396.1C469.9 396.4 470.1 396.7 470.2 396.9C470.8 397.9 471.4 398.9 472 399.9C472.2 400.3 472.5 400.8 472.7 401.2L473 401.8L473.1 402.1C473.3 402.5 472.8 401.4 473.1 402C473.2 402.4 473.4 402.7 473.5 403.1C473.5 403.3 473.6 403.4 473.6 403.6C473.8 404.3 473.6 403.4 473.6 403.7C473.6 404 473.7 404.3 473.7 404.6C473.8 404.9 473.8 404 473.7 404.5C473.6 405 473.6 405.5 473.5 406C472.9 410.7 471.7 415.3 469.8 419.7C466.7 426.8 461.8 432.9 455.7 437.6C450.7 441.4 445.1 444.3 439.2 446.4C437.8 446.9 437.2 447.1 436 447.4C435 447.7 434.1 447.9 433.1 448.2C431.9 448.5 430.7 448.7 429.4 448.9L428.9 449L430.8 450C424.8 442.2 418.8 434.4 412.6 426.8C408.8 422.2 405.1 417.5 401 413.2C399.8 411.7 398.4 410.5 396.8 409.5C396.1 409.1 395.3 409.1 394.7 409.5L393.8 409.9L393.1 410.1L392.4 410.3C388.7 411.4 384.8 411.9 380.9 411.7C375.2 411.6 369.7 410.1 364.4 408.2C354.1 404.5 344 400 334.4 394.7C330 392.4 325.7 389.8 321.6 387C318.1 384.6 314.8 381.8 312.9 378.2C311.5 375.7 310.6 372.8 311.8 370.1C312.3 369 313.2 368.1 314.3 367.6C315.9 366.9 317.7 366.6 319.5 366.7C325.4 367 331.2 368.7 336.8 370.2C341.3 371.5 345.9 373.1 350.7 373.3C354.3 373.4 357.4 372 358.5 368.3C359.5 364.9 359 361.2 358.2 357.8C358.1 357.2 357.9 356.5 357.7 355.9C357.4 354.9 356.4 353.6 355.2 353.8C354 354 353.9 355.4 354.2 356.3C354.3 356.6 354.4 356.9 354.5 357.2L354.7 358.2C354.8 358.6 354.7 357.9 354.8 358.4C354.8 358.6 354.9 358.9 354.9 359.1C355.3 361.1 355.4 363.1 355 365.1C354.7 366.9 353.2 368.3 351.4 368.4C348.9 368.7 346.3 368.1 343.8 367.5C336.4 365.7 329.2 363.2 321.7 362.2C316.8 361.6 310.8 361.7 308.4 366.8C306.3 371.2 308.1 376.8 310.6 380.7C314 386.1 319.1 389.7 324.4 393.1C336.7 400.8 349.8 407.1 363.5 412C370.5 414.5 377.5 416.5 385 416.1C389.1 416 393.2 415.1 397 413.6L397.5 413.4L396.1 413.3C396.2 413.3 396.7 413.6 396.3 413.4C395.9 413.2 396.4 413.5 396.6 413.6C397.1 414 397.5 414.4 397.9 414.7L398.2 415C398.4 415.2 397.8 414.6 398.3 415.1C398.6 415.4 398.8 415.7 399.1 416C399.7 416.7 400.4 417.4 401 418.1C404.1 421.6 407.1 425.2 410 428.9C415.7 435.9 421.2 443 426.7 450.1C427.6 451.3 428.9 453.7 430.6 453.5C432.1 453.3 433.7 453 435.1 452.6C442.4 450.8 449.4 447.8 455.7 443.6C464.7 437.6 471.4 428.8 474.9 418.6C475.9 415.5 476.7 412.3 477.1 409.1C477.5 407.5 477.5 405.8 477.3 404.1C476.6 401.4 475.5 398.8 474 396.4C469.6 389.2 464.1 382.6 458.6 376.2C451.8 368.3 444.8 360.7 437.6 353.3C431 346.4 424.3 339.6 417.5 332.9C413.9 329.3 410.2 325.7 406.5 322.1L406 321.6C405.4 321 404.5 320.9 403.9 321.5C403.8 321.6 403.6 321.8 403.5 322C403.1 323.5 403.9 324.9 404.8 325.7Z" fill="#0C41E2"/>
<path d="M369.5 315.8C369.5 315.8 377.2 309.6 381.6 291.4C386 273.2 410.9 248 435 261.7C459.1 275.4 461.2 301.8 443.4 317.5C425.6 333.2 400.5 329.6 395.2 331.1C389.9 332.6 384.1 344.1 381.6 343.5C379.1 342.9 362.5 315.5 366 315.7C369.5 315.9 386.3 343.1 379.2 345.7C372.1 348.3 357.4 321.6 359.6 320.5C361.8 319.4 383 347.8 371 349.9" fill="#EDF1FE"/>
<path d="M371.3 317.5C374 315.3 376 311.8 377.6 308.8C379.7 304.8 381.3 300.7 382.5 296.4C383.6 292.5 384.5 288.8 386.4 285.1C393.4 271.2 408.6 257.7 425.2 259.8C433.4 260.8 441.2 265.9 446.3 272.3C450.9 278 453.3 285.2 453.1 292.5C452.5 309.8 437.6 321.8 421.9 326.1C414.9 328 407.6 328.6 400.4 328.8C398.3 328.8 396.2 328.9 394.1 329.2C391.2 329.7 388.9 332.3 387.1 334.5C385.9 335.9 384.8 337.3 383.7 338.6C382.9 339.7 382 340.7 380.8 341.5C380.7 341.6 380.5 341.6 380.4 341.7C380.3 341.8 380.1 341.7 380.4 341.8L381.2 342.3C381.1 342.2 381.8 342.8 381.3 342.4C381.7 342.9 380.8 342 381.3 342.4L381 342C380.8 341.8 380.7 341.6 380.5 341.5C380.9 342 380.4 341.4 380.3 341.2C377 336.7 374 332 371.4 327.1C370.2 324.9 369.1 322.7 368.1 320.5C367.8 319.7 367.5 319 367.3 318.1C367.3 317.9 367.3 318.3 367.3 318C367.3 317.9 367.3 317.8 367.3 317.7C367.3 317.6 367.4 317.6 367.3 317.6C367.4 317.6 367.1 317.5 367 317.5C366.6 317.3 367.5 318 366.7 317.3C367.2 317.7 366.6 317.1 366.7 317.3L367.1 317.7C367.5 318.1 366.7 317.3 367.2 317.8C367.7 318.3 368 318.7 368.3 319.1C368.6 319.5 368.4 319.2 368.3 319.1L368.5 319.4C368.7 319.6 368.9 319.9 369 320.1C369.4 320.6 369.8 321.2 370.2 321.8C371 323 371.8 324.2 372.5 325.4C374.1 328 375.5 330.8 376.7 333.6C377.7 335.8 378.4 338.1 378.7 340.5C378.8 341.9 378.6 343.7 377.1 344.1C376.8 344.2 376.5 344.2 376.2 344.2C375.8 344.2 375.5 344.1 375.1 343.9C374.6 343.7 375.2 344 374.8 343.7C374.7 343.6 374 343.2 374.5 343.5L373.9 343.1L373.5 342.8C373.4 342.7 373.8 343.1 373.4 342.7C371.5 340.9 369.7 338.8 368.2 336.6C366.5 334.2 365 331.7 363.6 329.1C362.5 327.3 361.7 325.4 361.1 323.4C361.1 323.2 361 323.1 361 322.9C360.9 322.6 361 323.1 361 322.8C361 322.7 361 322.6 361 322.5C361 322.5 361 322.5 360.9 322.5C360.6 322.5 360.8 322.5 360.4 322.3C360.9 322.6 360.1 322.1 360.3 322.2C360.4 322.3 360.8 322.7 360.4 322.3C360 321.9 360.5 322.4 360.6 322.5L361 322.9C360.6 322.6 360.9 322.8 361.2 323.1C361.5 323.4 361.9 323.9 362.2 324.2C362.4 324.4 362.5 324.6 362.7 324.8L363.1 325.2C364.8 327.3 366.3 329.5 367.7 331.8C369.2 334.1 370.4 336.6 371.4 339.2C372.3 341.1 372.6 343.2 372.4 345.3C372.1 346.9 370.8 348.1 369.2 348.3C368.3 348.5 369.5 350 369.7 350.3C370.2 350.9 371.4 352.1 372.4 351.9C377.7 350.9 376.5 344.9 375.1 341.2C372.7 335.3 369.5 329.9 365.4 325.1C364 323.2 362.4 321.6 360.5 320.1C359.7 319.5 357.2 317.9 357.2 320C357.2 322.1 358.4 324.2 359.3 325.9C360.7 328.8 362.4 331.7 364.2 334.4C366 337.3 368.1 339.9 370.4 342.4C372.5 344.6 375 346.9 378 347.8C379.8 348.3 381.7 347.9 382.4 346C383.2 344 382.4 341.4 381.8 339.4C379.7 333.2 376.7 327.3 372.8 322C371.3 319.7 369.5 317.6 367.4 315.8C366.7 315.2 363.7 312.9 363.3 314.9C363 316.6 364.3 318.9 365 320.3C366.3 323 367.7 325.7 369.2 328.3C372.1 333.3 375.1 338.6 379 342.8C380.5 344.4 382.5 346.4 384.7 344.8C385.9 343.7 386.9 342.5 387.8 341.2C389.1 339.6 390.3 338 391.7 336.6C392.8 335.2 394.2 334.1 395.8 333.3C396.7 333 397.6 332.8 398.5 332.7C401.3 332.5 404 332.5 406.8 332.3C415.2 331.9 423.7 330.7 431.6 327.5C440.1 324 447.9 318.2 452.5 310.1C456.4 303.3 457.7 295.2 456.1 287.5C454.2 278.7 448.6 271.2 441.8 265.5C434.4 259.3 425.2 255 415.3 256.2C406.5 257.3 398.4 262.2 392.3 268.4C386.5 274.2 381.6 281.6 379.5 289.7C377.5 297.6 374.8 305.6 369.5 312C368.9 312.8 368.2 313.5 367.4 314.2C366.8 314.7 370.2 318.3 371.3 317.5Z" fill="#0C41E2"/>
<path d="M384.3 319.5C391.7 314.5 394.2 305.6 398.2 298C400.1 294.2 402.9 289.6 407 288.1C411.1 286.6 414.1 290.7 414.5 294.4C415.1 299.1 412.1 304.6 408.3 307.2C407.9 307.5 407.4 307.8 406.8 308C406.4 308.1 406.3 308.1 406.5 308.2C405.9 307.8 405.7 306.5 405.8 305.8C406 303.5 408.2 301.8 410.1 300.9C413.7 299.1 418.6 299.3 421.6 302.2C425.3 305.7 421 311.4 417.9 313.7C412.9 317.3 406.6 317.8 400.8 318.7C395.2 319.7 389.6 321.2 385.4 325.3C384.6 326.1 385.9 327.3 386.6 327.6C387.6 328.2 388.9 328.1 389.8 327.4C394.2 323.1 400.5 322.2 406.2 321.3C412.4 320.3 418.6 319.1 423.4 314.8C425.4 313 426.9 310.7 427.6 308C428.4 304.8 427.1 302.1 424.6 300.1C419.8 296.4 413.5 295.4 407.8 297.5C405.2 298.5 402.6 300.2 401.4 302.8C400.3 305.3 401 308.3 403.3 309.9C409.3 314.2 415.4 307.5 417.8 302.5C420.4 297.2 419.6 291 415 287.1C412.7 285.2 409.8 284.2 406.9 284.4C403.9 284.7 401.2 286 399.1 288.2C390.7 296.2 390.4 310.1 380.5 316.8C378.4 318.4 382.8 320.6 384.3 319.5Z" fill="#0C41E2"/>
<path d="M421.9 244.4L424.6 232.3C424.9 231 424.2 229.7 423 229.2C421.9 228.7 420.7 229.2 420.2 230.3C420.2 230.4 420.1 230.4 420.1 230.5L417.4 242.6C417.1 243.9 417.8 245.2 419 245.7C420.1 246.2 421.3 245.7 421.8 244.6C421.9 244.5 421.9 244.5 421.9 244.4Z" fill="#0C41E2"/>
<path d="M455 261.5L461.8 256C462.7 255.3 462.3 253.8 461.6 253C460.9 252.2 459.7 251.3 458.7 252.1L451.9 257.6C451 258.3 451.4 259.8 452.1 260.6C452.8 261.4 454 262.2 455 261.5Z" fill="#0C41E2"/>
<path d="M469.1 285.8L469.6 285.7C470.1 285.7 469 285.7 469.7 285.7H470H470.4C470.8 285.7 470.1 285.7 470.6 285.7L471.6 285.8H471.9L472.4 285.9C472.7 286 473.1 286 473.4 286.1C474.1 286.3 474.7 286.5 475.4 286.8C475.8 286.9 476.2 287 476.6 287C477.2 287 477.9 287 478.5 287C479 287 479.5 286.9 480 286.8C480.1 286.8 480.5 286.6 480.2 286.5C476.2 285 471.9 284.4 467.7 285C467.5 285 465.6 285.2 466 285.6C466.2 285.8 466.9 285.8 467.2 285.8C467.8 285.9 468.4 285.9 469.1 285.8Z" fill="#0C41E2"/>
<path d="M457 316.3L462.3 322.2C462.7 322.5 463.2 322.6 463.7 322.6C464.4 322.5 465 322.3 465.5 322C466.3 321.5 467.1 320.5 466.4 319.6L461.1 313.7C460.7 313.4 460.2 313.3 459.7 313.3C459 313.4 458.4 313.6 457.9 313.9C457.1 314.4 456.2 315.4 457 316.3Z" fill="#0C41E2"/>
</svg>
