<svg width="500" height="500" viewBox="0 0 500 500" fill="none" xmlns="http://www.w3.org/2000/svg">
<path fill-rule="evenodd" clip-rule="evenodd" d="M274.236 5.10104e-06C345.739 0.0174027 412.045 39.9678 457.014 95.2811C497.911 145.586 499.147 212.441 499.548 277.142C499.952 342.434 505.894 415.302 459.278 461.257C412.768 507.107 339.706 499.802 274.236 499.257C209.58 498.72 142.407 498.819 92.2623 458.204C37.4323 413.795 0.173598 347.487 0.000536978 277.142C-0.17286 206.661 41.6714 145.417 91.3693 95.1921C141.543 44.4861 202.72 -0.0173957 274.236 5.10104e-06Z" fill="#EDF1FE"/>
<path d="M430 387.8C429.6 387.9 429 388.1 430 387.8C430.2 387.8 430.3 387.8 429.9 387.8H430.9C431 387.8 431.4 387.9 430.7 387.8L431.2 387.9C431.3 387.9 432.2 388.1 431.7 388C432.5 388.2 433.2 388.5 433.9 389C437.2 391.1 439.4 395.1 440.1 398.9C440.7 402.6 440.6 406.4 439.8 410C439.2 413.4 437.7 416.6 435.4 419.2C434.9 419.8 434.3 420.2 433.7 420.7C433.5 420.8 433.3 420.9 433.2 421C433.1 421.1 432.6 421.3 432.7 421.2C432.8 421.1 431.5 421.6 432 421.4L431.6 421.5C431.5 421.5 430.6 421.6 431.2 421.6H430.7C430.1 421.6 430.8 421.6 430.3 421.6C429.3 421.5 428.4 421.2 427.5 420.7C426.4 420.2 425 420.4 424.1 421.2C423.3 422.1 424.1 422.9 425 423.2C429 425 434 425.2 437.8 422.6C441.2 420.2 443.2 416.4 444.4 412.5C446.9 403.9 446.2 393 438.3 387.4C435.3 385.3 431.5 384.5 427.8 385.3C426.9 385.5 426.2 386.5 426.9 387.3C427.6 388.1 429 388.1 430 387.8Z" fill="#0C41E2"/>
<path d="M429.9 379.7C429.9 379.7 435 420.2 422.3 430.2C422.3 430.2 409.1 433.4 402.1 430.4C395.1 427.4 389.7 406 392.1 380.2C392.1 380.2 419.4 373.3 429.9 379.7Z" fill="#0C41E2"/>
<path d="M428.5 377.8C429.4 384.9 429.7 392.1 429.5 399.3C429.5 405 428.8 410.7 427.5 416.2C426.9 418.6 426 421 424.9 423.3C424.4 424.3 423.8 425.2 423.1 426.1C422.6 426.9 421.9 427.6 421 428.2C420.5 428.4 420 428.5 419.5 428.5C418.3 428.7 417.1 428.9 415.9 429.1C412.6 429.6 409.3 429.8 406 429.5C403.6 429.3 400.9 428.8 399.1 427.2C399.2 427.3 399 427 398.9 427C399.1 427.2 398.7 426.8 398.9 427C398.7 426.8 399 427.1 399 427.1C398.7 426.7 399 427.1 399 427.2C398.9 427.1 398.7 427 399 427.2C398.9 427.1 398.8 426.8 399 427.2C398.8 426.9 398.8 426.8 398.6 426.6C398 425.4 397.5 424.2 397 422.9C394.4 415.8 393.5 408 393.2 400.5C393 395.7 393 390.9 393.4 386.1C393.4 385.5 393.5 384.8 393.5 384.2C393.5 383.7 393.5 383.1 393.6 382.6C393.8 382.3 393.6 382.5 393.8 382.4C394.3 382.2 394.7 382.1 395.2 382.1C400 381 404.8 380.2 409.7 379.7C415.6 379.1 422.1 378.7 427.8 380.5C429 380.8 430.1 381.3 431.2 382C431.6 382.2 430.6 380.4 430.5 380.3C430 379.4 429.4 378.6 428.5 377.9C423.5 374.9 416.9 375 411.3 375.3C405.5 375.6 399.8 376.4 394.1 377.6C392.9 377.8 391.7 378.1 390.5 378.4V378.5C389.3 391.6 389.5 405.5 393.5 418.2C394.9 422.7 397.2 426.9 400.3 430.5C403.2 433.6 407.5 434 411.6 434C414.2 434 416.7 433.7 419.2 433.3C420.6 433.2 422 432.9 423.4 432.5C424.5 432 425.5 430.6 426.2 429.6C427.2 428.1 428.1 426.4 428.7 424.7C431.8 416.7 432.2 407.7 432.1 399.2C432.1 393.4 431.8 387.6 431.1 381.8C430.8 380.8 430.2 379.9 429.5 379.1C429.7 378.8 428.4 377.4 428.5 377.8Z" fill="#0C41E2"/>
<path d="M427.4 379C419.3 381.1 411 382 402.6 381.5C401.2 381.4 399.7 381.2 398.3 380.9C397.1 380.7 395.9 380.3 394.8 379.8C393.8 379.4 392.3 378.9 391.4 379.6C390.5 380.3 391.2 381.1 391.9 381.5C397.8 384.1 404.4 384.5 410.8 384.2C416.3 383.9 421.8 383.2 427.2 382.1C428.3 381.9 429.4 381.6 430.6 381.4C431.8 381.2 431.7 380.3 430.9 379.7C429.9 379 428.6 378.7 427.4 379Z" fill="#EDF1FE"/>
<path d="M410.9 367.4C411 364.4 409.1 362.2 406.7 360.6C404.4 359.1 401.8 358.2 401 355.3C400.2 352.4 401.8 349.6 401.5 346.7C401.2 343.9 399.8 341.3 397.6 339.5C396.6 338.7 395.2 338.7 394.1 339.4C393.2 339.9 392.6 341.3 393.6 342C395.5 343.5 396.6 345.9 396.6 348.3C396.5 351.1 395.3 353.6 396.2 356.5C397 359 398.8 361.1 401.2 362.4C402.9 363.4 406.1 364.7 406 367.2C406 368.3 406.8 369.2 407.9 369.2C408 369.2 408 369.2 408.1 369.2C408.9 369.2 410.8 368.6 410.9 367.4Z" fill="#0C41E2"/>
<path d="M395.3 365.5C393.8 363.9 392.6 362 391.8 359.9C391 357.9 391.2 355.7 392.2 353.8C392.3 353.6 392 353.2 391.9 353.1C391.5 352.6 391.1 352.2 390.7 351.8C390.5 351.7 388.7 350.1 388.5 350.5C385.8 355.1 389.5 360.2 392.3 363.7C393 364.6 393.9 365.4 394.9 366C395 366.1 395.5 366.4 395.7 366.2C395.9 366 395.4 365.6 395.3 365.5Z" fill="#0C41E2"/>
<path d="M105.9 341.3C98.1 335.1 93.7 349.3 93.7 349.3C92.3 338.1 79.5 332.5 79.5 344.9C79.5 357.3 90.9 362.5 90.9 362.5C85.3 366.1 86.1 385.5 86.1 385.5L89.4 385.1C89.4 385.1 87.3 374.7 89.4 369.1C91.5 363.5 93.8 363.5 93.8 363.5C96.5 369.1 96.5 382.5 96.5 382.5C96.5 382.5 94.7 390.3 97.7 383.9C100.7 377.5 94.7 362.5 94.7 362.5C98.5 362.5 113.7 347.5 105.9 341.3ZM85.9 344.5C89.9 343.9 91.9 359.7 91.9 359.7C86.1 358.3 81.9 345.1 85.9 344.5ZM94.9 359.7C93.7 352.8 100.5 343.1 102.9 346.7C105.3 350.3 94.9 359.7 94.9 359.7Z" fill="#0C41E2"/>
<path d="M104.4 380.4L108.1 365.4L104.4 363.5L99 380.4H104.4Z" fill="#6A90FF"/>
<path d="M104.8 380.9H98.3999L104.1 362.8L108.7 365.1L104.8 380.9ZM99.6999 379.9H104L107.6 365.6L104.8 364.2L99.6999 379.9Z" fill="#6A90FF"/>
<path d="M108.1 359L104.4 363.5L108.1 365.4V359Z" fill="#EDF1FE"/>
<path d="M108.1 365.9C108 365.9 107.9 365.9 107.9 365.8L104.2 364C104.1 363.9 104 363.8 103.9 363.6C103.9 363.5 103.9 363.3 104 363.2L107.7 358.7C107.8 358.5 108.1 358.5 108.3 358.6C108.5 358.7 108.6 358.9 108.6 359.1V365.5C108.6 365.7 108.4 365.9 108.1 365.9ZM105.1 363.3L107.5 364.5V360.3L105.1 363.3Z" fill="#0C41E2"/>
<path d="M106.7 360.6L108.1 361.2C108.1 361.2 108.8 358.4 108.1 358.7C107.4 359 106.7 360.6 106.7 360.6Z" fill="#0C41E2"/>
<path d="M108.1 361.8C108 361.8 108 361.8 107.9 361.8L106.6 361.2C106.4 361.1 106.2 360.8 106.3 360.6C106.4 360.3 107 358.8 107.9 358.5C108.1 358.4 108.4 358.4 108.6 358.6C108.8 358.7 109.2 359.1 108.5 361.6C108.5 361.7 108.4 361.9 108.2 361.9C108.2 361.8 108.2 361.8 108.1 361.8ZM107.4 360.4L107.7 360.6C107.8 360.3 107.8 359.9 107.9 359.6C107.7 359.8 107.5 360.1 107.4 360.4Z" fill="#0C41E2"/>
<path d="M76 380.399C76 380.399 68.5 351.799 68.5 350.499C68.5 349.199 75.3 347.899 75.3 347.899L84.4 380.499L76 380.399Z" fill="#6A90FF"/>
<path d="M85 380.9H75.6L75.5 380.5C74.7 377.6 68 351.8 68 350.4C68 348.9 72.5 347.8 75.2 347.3L75.6 347.2L85 380.9ZM76.4 379.9H83.7L74.9 348.4C71.9 349 69.2 350 69 350.5C69 351.5 73.4 368.5 76.4 379.9Z" fill="#6A90FF"/>
<path d="M72.1846 348.555L71.2258 348.839L80.6329 380.575L81.5917 380.291L72.1846 348.555Z" fill="#EDF1FE"/>
<path d="M80.6 380.999C80.5 380.999 80.4 380.999 80.4 380.899C80.3 380.799 80.2 380.699 80.2 380.599L70.8 348.999C70.7 348.699 70.9 348.499 71.1 348.399L72.1 348.099C72.2 347.999 72.4 347.999 72.5 348.099C72.6 348.199 72.7 348.299 72.7 348.399L82.1 380.099C82.2 380.399 82 380.599 81.8 380.699L80.8 380.999C80.7 380.999 80.7 380.999 80.6 380.999Z" fill="#0C41E2"/>
<path d="M107.6 379.7H70.8V431.8H107.6V379.7Z" fill="#0C41E2"/>
<path d="M107.7 432.3H70.8C70.5 432.3 70.3 432.1 70.3 431.8V379.7C70.3 379.4 70.5 379.2 70.8 379.2H107.6C107.9 379.2 108.1 379.4 108.1 379.7V431.8C108.2 432.1 108 432.3 107.7 432.3ZM71.4 431.3H107.2V380.2H71.3L71.4 431.3Z" fill="#0C41E2"/>
<path d="M156.8 430C156.8 430 114.8 397.7 129 364.8C143.2 331.9 197.3 296.2 235.9 290C274.5 283.8 360.4 343.8 355.9 381.8C351.4 419.8 320.7 431.7 320.7 431.7L290.7 397.1L206.2 398.8L180.7 431.7C180.7 431.7 168.7 436.2 156.8 430Z" fill="#EDF1FE"/>
<path d="M158.6 428.7C158 428.2 157.4 427.7 156.8 427.2C157.1 427.5 156.6 427 156.8 427.2L156.3 426.8C155.9 426.5 155.6 426.2 155.2 425.8C154.3 425 153.5 424.2 152.6 423.4C147.9 419 143.6 414.1 139.8 408.9C135.3 402.8 131.9 395.9 129.8 388.6C127.7 380.9 128.2 372.7 131.2 365.3C134.3 357.9 139 351.3 144.2 345.3C150.3 338.3 157 331.9 164.3 326.2C179.4 314.1 196.3 304.4 214.4 297.5C222 294.5 229.9 292.3 238 291.2H238.5L239.4 291.1C240.1 291.1 240.8 291 241.5 291C242.9 291 244.2 291 245.6 291.1C245 291.1 246.1 291.1 246.2 291.2L247.2 291.3C248 291.4 248.8 291.5 249.5 291.6C251 291.8 252.5 292.1 254 292.4C260.5 293.9 266.9 296 273.1 298.7C280.1 301.7 286.9 305.1 293.4 309C306.9 316.9 319.4 326.5 330.5 337.5C339.5 346.6 348.4 357.2 352.2 369.6C352.9 372 353.4 374.4 353.6 376.9C353.7 380.3 353.4 383.6 352.6 386.9C351 395.1 347.8 402.9 343.1 409.9C339.5 415.1 335.2 419.7 330.2 423.5C328.4 424.9 326.5 426.2 324.6 427.3L323.4 428L322.9 428.3L322.7 428.4C322.1 428.7 321.6 429 321 429.3C320.4 429.6 320.1 429.7 319.6 429.9L323 430.5L313.7 419.8L298 401.7L293.4 396.4C292.8 395.5 291.8 395 290.7 395C290.5 395 290.3 395 290.1 395L277.5 395.2L254.8 395.7L230.1 396.2L211.4 396.6L207 396.7C206.7 396.7 206.4 396.7 206.1 396.7C205.1 396.8 204.2 397.4 203.7 398.2L191.7 413.6L179.5 429.5L178.8 430.4L179.7 429.8L179.2 430C178.9 430.1 178.6 430.2 179.1 430L178.2 430.2C176.7 430.6 175.1 430.9 173.6 431C168.3 431.9 163.2 431 158.6 428.7C157.5 428 156.2 428 155.1 428.7C154.4 429.1 154.2 429.9 154.6 430.5C154.7 430.7 154.9 430.9 155.1 431C162.6 434.8 171.3 435.8 179.5 433.7C180.7 433.4 182.1 433.2 182.9 432.2C183.6 431.4 184.2 430.5 184.8 429.7L202.8 406.5L208.2 399.6L206.1 400.5L234.8 399.9L280.2 399L290.5 398.8L288.3 398L298.4 409.6L314.6 428.3L318.3 432.6C319.2 433.4 320.6 433.7 321.7 433.2C323.9 432.3 325.9 431.2 327.9 430C332.6 427.1 336.9 423.7 340.7 419.7C346 414.2 350.2 407.7 353.2 400.7C355 396.5 356.3 392 357.2 387.5C358 384 358.3 380.5 358.2 377C357.4 364.6 349.6 353.2 341.8 344C331.6 331.9 319.1 321.6 306 312.9C293.1 304.3 279.1 296.8 264.3 292C258 289.9 251.4 288.5 244.7 288C237.9 287.5 231.3 288.9 224.8 290.6C205.9 295.7 188.1 304.8 172 315.7C163.7 321.3 156 327.6 148.7 334.5C142.2 340.5 136.5 347.3 131.6 354.7C127.1 361.7 123.7 369.3 123.4 377.7C123.1 385.8 125.6 393.8 129.2 400.9C135 412 143.6 421.8 153.1 429.9C153.7 430.4 154.2 430.8 154.8 431.3C156.8 432.5 161 430.6 158.6 428.7Z" fill="#0C41E2"/>
<path d="M179 408.099C179 408.099 195.2 385.999 204.4 387.599C213.6 389.199 221.1 429.699 217.3 430.699C213.5 431.699 171.5 437.199 170.9 431.799C170.3 426.399 170.9 422.699 179 408.099Z" fill="#EDF1FE"/>
<path d="M180.6 410.1C182.9 407 185.4 404 188.1 401.1C190.3 398.7 192.6 396.5 195.1 394.4C197.3 392.5 199.7 391 202.5 390C203.6 389.6 204.7 389.5 205.8 389.7C206.1 389.7 206.3 389.8 206.6 390C206.9 390.2 206.4 389.9 206.8 390.1C207.2 390.3 206.6 390.1 207 390.3C207.2 390.4 206.8 390 207.1 390.4C207.4 390.8 206.8 390 207 390.3L207.3 390.6C207.6 390.9 207 390.2 207.4 390.7C207.5 390.8 208 391.5 207.7 391.1C208.3 392 208.8 393 209.3 394C211.8 399.4 213.6 405.1 214.7 411C215.8 415.9 216.8 421.1 216.6 426.1C216.6 427.1 216.6 428.5 215.8 429C215.4 429.1 215.1 429.2 214.7 429.3C213.9 429.4 213.2 429.6 212.4 429.7C207.2 430.5 201.9 431.1 196.6 431.6C190.6 432.2 184.6 432.5 178.6 432.5C176.5 432.5 174.4 432.3 172.3 431.9C172 431.8 171.7 431.8 171.4 431.7L171 431.5C170.6 431.4 170.9 431.5 170.9 431.5C170.7 431.3 171.3 431.8 171.1 431.6C170.9 431.4 171.9 432.5 171.8 432.3C172.2 432.7 172.5 433.2 172.7 433.7C172.7 433.6 172.7 433.5 172.7 433.4L172.6 432.5C172.3 427 174.6 422 177 417.2C178.2 414.6 179.4 412.3 180.6 410.1C181.3 408.9 177.7 405.9 177.4 406.3C173.8 412.7 161.3 433.3 175.9 435.8C181.3 436.7 187.1 436.3 192.6 435.9C198.9 435.5 205.2 434.8 211.5 434C213.5 433.7 215.4 433.5 217.4 433.1C218.5 432.9 219.3 432.9 219.6 431.7C220 430 220.1 428.2 219.8 426.4C219.6 423.6 219.2 420.8 218.7 418.1C217.6 411.6 215.9 405.2 213.5 399.1C212.5 396.4 211.1 393.8 209.5 391.4C208.1 389.4 206.2 387.1 203.9 386.1C201.6 385.1 199.1 386 197.1 387C194.2 388.6 191.6 390.5 189.3 392.8C185.1 396.7 181.3 400.9 177.8 405.5L177.2 406.3C176.7 407.2 180.2 410.6 180.6 410.1Z" fill="#0C41E2"/>
<path d="M313.3 407.099C313.3 407.099 297.1 384.999 288 386.599C278.9 388.199 271.3 428.699 275 429.699C278.7 430.699 320.9 436.199 321.4 430.799C321.9 425.399 321.4 421.599 313.3 407.099Z" fill="#EDF1FE"/>
<path d="M315.1 405.8C312.5 402.3 309.8 399 306.8 395.9C304.4 393.3 301.7 390.8 298.9 388.6C296.4 386.5 293.5 385.1 290.4 384.4C284.9 383.4 281.8 388 279.6 392.3C276.9 398 274.9 404.1 273.7 410.3C272.6 415.5 271.3 421.2 271.7 426.7C271.8 428.7 272.2 430.9 274.2 431.8C275.6 432.3 277 432.6 278.5 432.7C284.1 433.6 289.7 434.2 295.4 434.7C301.8 435.4 308.2 435.6 314.5 435.5C316.7 435.5 318.8 435.1 320.9 434.5C322.8 434 324 432.2 323.9 430.3C324.3 424.3 321.9 418.8 319.3 413.6C318.1 411.2 316.8 408.8 315.5 406.4C314.9 405.2 313.5 404.6 312.3 405C311.2 405.4 310.7 406.6 311.2 407.7C311.2 407.8 311.3 407.9 311.3 408C313.6 412 315.6 416 317.4 420.2C317.5 420.6 317.7 420.9 317.8 421.3L318 421.9C318.2 422.6 318.4 423.3 318.6 423.9C318.7 424.4 318.8 424.9 319 425.4L319.1 426.2C319.2 426.8 319.1 426 319.1 426.6C319.2 427.5 319.2 428.5 319.1 429.4C319.1 429.6 319.1 429.9 319.1 430.1C319.1 430.7 319.1 430.2 319.1 430.1C319 430.5 319.4 429.6 319.2 429.9C318.9 430.4 319.6 429.5 319.3 429.8C319.2 429.9 319.1 430 319 430C318.7 430.1 319.6 429.8 319.1 429.9C318.6 430 318.4 430.1 318.1 430.3C318 430.3 317.3 430.5 318 430.3L317.5 430.4C317 430.5 316.5 430.6 315.9 430.6C310.5 431 305.1 431 299.8 430.4C293.9 430 288.1 429.4 282.3 428.6C280.4 428.3 278.5 428.1 276.6 427.7C276.4 427.7 275.4 427.3 275.2 427.4C275.4 427.3 276.2 427.8 276.1 427.8C276.4 428 276.6 428.2 276.7 428.5C276.4 428 276.7 429.1 276.6 428.3C276.6 428 276.5 427.7 276.4 427.4C276.5 427.9 276.4 427.7 276.4 427.4C276.4 427.1 276.4 426.9 276.4 426.7C276.4 425.7 276.4 424.7 276.5 423.6C276.7 421.1 277.1 418.2 277.5 416.1C278.5 410 280.2 404 282.4 398.3C282.9 397 283.4 395.8 284 394.6L284.2 394.2C284.3 393.9 284.5 393.7 284.6 393.4C284.9 392.9 285.2 392.4 285.5 391.9C285.8 391.4 286.1 391 286.4 390.7L286.8 390.2C287.2 389.7 286.6 390.3 287 390L288 389.2C288.5 388.8 287.7 389.3 288.1 389.1C288.3 389 288.5 389 288.6 388.9C288.9 388.8 288.1 388.9 288.7 388.9H289.4C288.8 388.9 289.6 388.9 289.8 389C290.1 389 290.5 389.1 290.8 389.2C290.3 389.1 291 389.3 291.2 389.3C291.4 389.3 291.8 389.5 292.1 389.7L293 390.1L293.4 390.3C292.9 390 293.6 390.4 293.6 390.4C296.1 392 298.5 393.9 300.6 396C304.3 399.7 307.8 403.6 310.9 407.8L311.4 408.5C312.2 409.5 313.7 409.8 314.8 409.1C315.8 408.2 316 406.8 315.1 405.8Z" fill="#0C41E2"/>
<path d="M224.7 344.7C221.9 338.6 218.8 332.6 215.4 326.8C214.8 325.6 213.5 325 212.2 325.3C211.1 325.6 210.5 326.7 210.8 327.8C210.8 327.9 210.9 328 210.9 328.1C214.2 333.9 217.3 339.9 220.2 346C220.8 347.2 222.1 347.8 223.4 347.5C224.5 347.2 225.1 346.1 224.8 345C224.7 344.9 224.7 344.8 224.7 344.7Z" fill="#6A90FF"/>
<path d="M246.3 346.3V329C246.3 327.9 245.4 327 244.3 327C244.2 327 244.2 327 244.1 327C243.1 327 241.4 327.7 241.4 329V346.3C241.4 347.4 242.3 348.3 243.4 348.3C243.5 348.3 243.5 348.3 243.6 348.3C244.5 348.3 246.3 347.6 246.3 346.3Z" fill="#6A90FF"/>
<path d="M268.5 346.1C270.7 341.9 272.7 337.6 274.7 333.3C275.1 332 274.4 330.6 273.1 330.1C272 329.7 270.8 330.1 270.2 331.1C268.2 335.4 266.1 339.7 264 343.9C262.7 346.5 267.2 348.7 268.5 346.1Z" fill="#6A90FF"/>
<path d="M315.8 423.2C315.8 423.2 336.1 398.6 331.1 393.8C326.1 389 309.9 406.2 309.9 406.2" fill="#EDF1FE"/>
<path d="M317.8 423.4C323.2 416.9 328.5 409.8 332.2 402.1C333.6 399.3 336.1 393.7 332.2 391.9C330 390.9 327.3 391.6 325.2 392.5C322.5 393.7 320 395.2 317.8 397.1C314.3 399.8 311 402.8 307.9 406.1C307.2 406.9 307.8 407.7 308.7 407.9C309.9 408 311.1 407.4 311.9 406.5C311.2 407.2 311.9 406.5 312.2 406.2C312.7 405.7 313.2 405.2 313.8 404.6C315.5 403 317.2 401.4 318.9 400C320.7 398.4 322.7 397 324.8 395.8L325.2 395.6C325.1 395.6 324.8 395.8 325.2 395.6C325.5 395.5 325.7 395.4 326 395.2L326.7 394.9C327 394.8 326.3 395 326.6 394.9L327 394.8C327.2 394.8 327.9 394.6 327.3 394.7L327.9 394.6H328C328.5 394.7 327.9 394.5 328.3 394.6C328.8 394.7 329.2 395.1 329.4 395.5C329.6 396 329.7 396.6 329.6 397.2C329.3 399 328.7 400.8 327.8 402.5C325.5 407 322.9 411.2 319.8 415.2C317.9 417.9 315.9 420.5 313.8 423.1C313.1 423.9 313.6 424.7 314.6 424.9C315.9 424.8 317.1 424.3 317.8 423.4Z" fill="#0C41E2"/>
<path d="M183.3 362.3L305.8 360.7L291.7 433L198.4 434.6L183.3 362.3Z" fill="#6A90FF"/>
<path d="M184.5 364.4L196.7 364.2L225.9 363.8L261.3 363.3L291.9 362.9L301.9 362.8C303.5 362.8 305.1 362.9 306.7 362.7H307L304.2 358.8L299.4 383.3L291.9 422.1L290.2 431L290.6 430.7L281.3 430.9L259 431.3L232 431.8L208.8 432.2L201.1 432.3C199.9 432.3 198.7 432.3 197.5 432.4H197.3L200.1 435.5L195 411L186.9 372.1L185 363.2C184.7 362 184 361 182.9 360.3C182.1 359.8 181.5 360.2 181.7 361.1L186.8 385.6L195 424.5L196.9 433.4C197.1 434.5 198.4 436.5 199.7 436.5L209 436.3L231.2 435.9L258.2 435.4L281.4 435L289.1 434.9C290.3 435 291.5 435 292.7 434.8H292.9C293.1 434.8 293.3 434.7 293.3 434.5L298.1 410L305.6 371.2L307.3 362.3C307.5 361 306 358.4 304.5 358.4L292.3 358.6L263.1 359L227.7 359.5L197.1 359.9L187 360C185.4 360 183.8 359.9 182.2 360.1H182C180.8 360.2 183 364.4 184.5 364.4Z" fill="#6A90FF"/>
<path d="M242.4 393.5C242.6 393.4 242.9 393.4 242.2 393.6L242.7 393.4C243.3 393.2 243.8 393.1 244.4 393C244.8 392.9 245.1 392.9 245.5 392.8H246.1C246.3 392.8 246 392.9 245.9 392.8C246 392.8 246.2 392.8 246.3 392.8C246.7 392.8 247.1 392.8 247.5 392.9H247.8C248.1 392.9 247.6 392.9 247.5 392.9C247.7 393 248 393.1 248.2 393.1L248.5 393.2C248.9 393.3 247.9 392.9 248.3 393.1C248.5 393.2 248.7 393.3 248.9 393.4C248.3 393.2 248.5 393.1 248.7 393.3L248.9 393.4C249 393.5 249.1 393.6 249.1 393.6C248.7 393.3 248.7 393.2 248.9 393.4L249.1 393.6L249.3 393.9C249.6 394.3 249 393.4 249.2 393.8C249.3 394 249.4 394.3 249.6 394.5C249.4 394.3 249.5 394.1 249.5 394.3C249.5 394.5 249.6 394.6 249.6 394.7C249.7 395.1 249.8 395.4 249.9 395.8C249.8 395.3 249.9 395.8 249.9 395.9C249.9 396 249.9 396.2 249.9 396.3C249.9 396.6 249.9 396.9 249.9 397.2C249.9 397.3 249.8 397.5 249.9 397.1C249.9 397.2 249.9 397.4 249.8 397.5C249.7 397.8 249.6 398.1 249.5 398.4L249.4 398.8C249.6 398.5 249.2 399.2 249.4 398.8C249.3 399 249.2 399.2 249 399.3C248.9 399.5 248.7 399.7 248.5 399.9L248.2 400.2C248.1 400.3 248.1 400.3 248.3 400.2L248.1 400.4C247.6 400.7 247.1 401 246.6 401.2C247 401.1 246.2 401.4 246.6 401.2L246.1 401.3C245.8 401.4 245.4 401.4 245.1 401.5C245 401.5 244.8 401.5 244.7 401.5C245.1 401.6 244.8 401.5 244.6 401.5C244.3 401.5 243.9 401.5 243.6 401.4L243.2 401.3H243.3L243 401.2C242.6 401.1 242.3 401 241.9 400.9C241 400.6 239.7 401 239.7 402.1C239.9 403.3 240.8 404.4 242 404.7C244.8 405.8 248 405.7 250.7 404.3C253.1 403 254.5 400.4 254.4 397.7C254.3 394.5 252.6 391.6 249.8 389.9C247.8 388.8 245.4 388.4 243.1 388.8C241.8 389 240.5 389.3 239.3 389.8C238.9 390 238.6 390.5 238.7 391C238.8 391.6 239 392.1 239.4 392.5C240.1 393.4 241.3 393.8 242.4 393.5Z" fill="#EDF1FE"/>
<path d="M175.2 426.3C175.2 426.3 157.5 402.2 163 397C168.5 391.8 182.8 408.6 182.8 408.6" fill="#EDF1FE"/>
<path d="M176.8 425.8C172.4 420 168.7 413.8 165.7 407.2C165.5 406.7 165.3 406.2 165.1 405.7C164.9 405.1 164.8 405 164.7 404.5C164.4 403.6 164.2 402.7 164.1 401.8C164.1 401.7 164 401.4 164.1 401.8C164.1 401.7 164.1 401.6 164.1 401.5C164.1 401.4 164.1 401.1 164.1 401C164.1 400.9 164.1 400.6 164.1 400.5C164.1 400.1 164.1 400.5 164.2 400.3C164.4 399.5 164.4 399.4 165 399C166 398.1 167.7 398.5 168.7 399C170.7 399.9 172.5 401.1 174.2 402.6L175 403.2L175.4 403.5C175.7 403.8 175 403.1 175.5 403.6C176 404.1 176.4 404.5 176.9 404.9C177.8 405.7 178.6 406.5 179.4 407.4C180.2 408.3 181 409.1 181.8 410C182.4 410.7 183.8 411.5 184.6 410.8C185.4 410.1 184.5 408.6 184 407.9C181.7 405.2 179.2 402.8 176.5 400.5C174.5 398.7 172.3 397.1 169.9 395.8C167.9 394.8 165.6 393.9 163.3 394.5C159 395.6 159.8 400.9 160.8 404.1C162.6 409.2 165 414 168 418.5C169.8 421.4 171.7 424.3 173.7 427.1C174.3 427.9 175.5 429 176.6 428.6C177.7 428.2 177.3 426.5 176.8 425.8Z" fill="#0C41E2"/>
<path d="M281.5 265.5C281.5 265.5 302.8 268.5 305.8 259.8C308.8 251.1 295.3 253.8 295.3 253.8C295.3 253.8 310.1 235.4 288.4 233.4C288.4 233.4 305.6 219.2 290.8 207.5C276 195.8 248.4 205.4 248.4 205.4C248.4 205.4 248.2 186.3 226.4 189.9C204.6 193.5 210.6 204.7 210.6 204.7C210.6 204.7 196.7 206.8 196.6 213.4C196.5 220 207.2 222 207.2 222C207.2 222 212.1 240.6 231.1 236.8L250.7 259.4C250.7 259.4 244.6 268.3 252.2 276.8C259.8 285.3 283.1 277.6 281.5 265.5Z" fill="#0C41E2"/>
<path d="M282.3 266.9C288.3 267.7 294.9 268 300.7 266.4C304 265.5 307.5 263.7 308.3 260.1C308.9 258.4 308.5 256.5 307.3 255.1C305.8 253.6 303.9 252.6 301.8 252.2C299.1 251.7 296.3 251.7 293.6 252.3L297.6 254.8C301.7 249.6 305.3 241.1 299.1 236C295.7 233.2 291.3 232.3 287.1 231.9L290.4 234.7C293 232.5 295.2 229.9 296.8 226.9C298.2 224.6 298.9 221.9 299 219.2C299 216 297.8 212.9 295.7 210.4C291.1 204.7 283.7 201.7 276.6 200.7C270.2 199.9 263.6 200.1 257.3 201.3C253.7 201.9 250.2 202.8 246.7 203.9L250.7 206.1C250.4 199.3 246.5 193.2 240.5 190.2C234.1 186.9 226.4 187.6 219.7 189.5C215.2 190.7 209.6 193 207.9 197.8C207.2 199.9 207.3 202.2 208.3 204.2L208.8 203.2C204.7 203.8 200 205.1 196.8 207.8C194.6 209.4 193.7 212.3 194.6 214.9C195.7 217.9 198.7 219.9 201.4 221.2C203.4 222.2 205.6 222.9 207.8 223.4L204.8 221.2C207 229.1 213 235.3 220.8 237.7C224.7 238.8 228.7 238.9 232.7 238.1L229.1 236.6L246.3 256.3L248.8 259.2L248.5 258.2C243.5 265.6 246.9 276.2 254.9 280C262.4 283.5 272.3 281.6 278.7 276.6C281.9 274.1 284.3 270.4 283.8 266.1C283.6 264.5 279 263 279.2 264.6C280.1 271.7 272.5 276.3 266.6 277.9C264.9 278.4 263.1 278.7 261.4 278.7C260.6 278.7 259.8 278.7 258.9 278.6C258.6 278.6 258.2 278.5 257.9 278.4C257.6 278.3 257.3 278.3 257 278.2L256.4 278C255.7 277.8 256.7 278.1 256.3 278L255.8 277.8C255.2 277.5 256.1 278 255.7 277.8C255.2 277.5 254.8 277.2 254.4 276.8C252.5 274.8 251.3 272.3 251 269.6C250.6 266.4 251.4 263.1 253.2 260.4C253.4 260.1 253 259.6 252.9 259.4L236.6 241L233.5 237.5C233.2 237.1 232.9 236.8 232.5 236.5C230.4 235 228.2 235.9 225.9 236C224.4 236.1 222.9 236 221.5 235.7C220.3 235.5 219.2 235.1 218.2 234.5C218.6 234.7 217.8 234.3 217.8 234.2L217.1 233.8C216.7 233.5 216.3 233.2 215.9 232.9C215.1 232.2 214.3 231.4 213.6 230.5C212.4 228.9 211.3 227.2 210.5 225.3C210.2 224.7 210 224.1 209.8 223.4C209.7 223 209.9 223.6 209.7 223.2L209.6 223C209.3 221.8 207.7 221.1 206.6 220.8L206.3 220.7L206 220.6C205.4 220.5 206.4 220.7 205.9 220.6L204.7 220.2L203.9 219.9C203.9 219.9 203.5 219.8 203.8 219.9L203.5 219.8L202.7 219.4L202.2 219.1C201.8 218.9 201.4 218.6 201.1 218.4C200.3 217.8 199.7 217 199.3 216C197.6 211 204.4 208.3 208 207.3C209.5 206.9 210.9 206.5 212.4 206.3C212.8 206.3 213 205.9 213 205.6C213 205.5 213 205.4 212.9 205.3C212.8 205.2 212.8 205.1 212.8 205L212.7 204.6C212.8 204.9 212.7 204.6 212.6 204.4C212.4 203.4 212.3 202.4 212.4 201.5C213 197.6 216.7 195.2 220.1 193.8C223.5 192.4 227.1 191.5 230.7 191.1C233.3 190.8 236 191.1 238.6 191.9C239.1 192.1 238.7 192 238.6 191.9L239 192.1L239.7 192.4C240 192.5 239.6 192.4 239.6 192.3L240 192.5C240.2 192.6 240.5 192.8 240.7 192.9C240.9 193 240.8 193 240.7 192.9L241 193.1L241.5 193.5C241.8 193.7 242 194 242.3 194.3C243.4 195.5 244.3 197 244.9 198.5C245.7 200.4 246.2 202.5 246.2 204.6C246.2 205.9 249.1 207.2 250.2 206.8C257.9 204.1 266 202.9 274.2 203.2C280 203.4 285.8 204.8 290.2 208.6C292.5 210.6 294.1 213.3 294.4 216.4C294.6 218.9 294.1 221.4 292.9 223.7C291.3 226.9 289.1 229.8 286.3 232.1C284.8 233.3 288.9 234.8 289.6 234.9C291.2 235 292.7 235.3 294.2 235.8C294.2 235.8 294.7 236 294.3 235.8L294.7 235.9C294.8 236 295.5 236.3 295.4 236.2C295.7 236.4 296 236.6 296.3 236.8C296.6 237 296.8 237.3 297 237.6C296.9 237.4 297.2 237.9 297.2 238C297.7 238.9 298 240 298 241C298.1 244.4 296.4 247.7 294.6 250.5C294.1 251.2 293.7 251.9 293.1 252.6C292.6 253.2 294 254.2 294.3 254.4C295.1 255 296.1 255.2 297.1 255.1C298.8 254.7 300.5 254.6 302.3 254.8C302.7 254.8 301.8 254.7 302.4 254.8L302.9 254.9L303.3 255C303.9 255.1 302.8 254.9 303.4 255C304 255.1 303.2 254.8 303.8 255.1C302.9 254.6 304.1 255.4 303.4 254.9C303.5 255 303.8 255.3 303.5 255C303.8 255.3 303.6 255 303.8 255.4C303.9 255.6 304 255.9 304 256.1C304.1 257 304 257.8 303.6 258.6C302.6 261.5 299.6 262.8 296.8 263.5C293.5 264.2 290.1 264.5 286.7 264.4C285.2 264.4 283.7 264.3 282.3 264.1H281.9C281.5 264.1 282.3 264.1 282 264.1L281.4 264L280.9 263.9C280.2 263.8 279 263.9 279.4 264.9C279.8 265.9 281.3 266.8 282.3 266.9Z" fill="#0C41E2"/>
<path d="M206.3 284.8C193.9 268.7 209 225.2 209 225.2C224.2 228 248.2 212.3 248.2 212.3C241.1 226.6 254.9 252.4 254.9 252.4C260.9 239.6 274.6 239.9 273.5 252.5C272.4 265.1 260.3 266.3 260.3 266.3C260.3 266.3 265.4 296.7 264.1 301.7C262.8 306.7 235.2 322.3 227.3 297.7C227.3 297.8 217.2 298.8 206.3 284.8Z" fill="#EDF1FE"/>
<path d="M208.4 286C203.8 280 203.3 271.7 203.6 264.5C204 256.4 205.2 248.4 207.2 240.5C207.9 237.5 208.7 234.5 209.6 231.5C209.9 230.5 210.2 229.5 210.5 228.5C210.6 227.9 210.8 227.4 211.1 226.8C211.1 226.7 211.1 226.6 211.2 226.5C211.5 226.5 211.8 226.6 212.1 226.7C212.7 226.8 213.2 226.8 213.7 226.8C215.8 226.9 217.9 226.7 219.9 226.4C224.4 225.6 228.8 224.3 233 222.6C239 220.2 244.8 217.2 250.3 213.7L246.1 211C243.1 217.1 243.9 224.4 245.3 230.9C246.7 236.7 248.6 242.4 251.2 247.8C251.7 248.9 252.3 250.1 252.9 251.2C253.1 251.6 256.9 254.1 257.1 253.8C259.3 249.2 263.9 243.7 269.7 244.4C270.2 244.4 270.6 244.6 271 244.7C271.1 244.7 271.1 244.8 271.2 244.8C271.3 244.8 269.2 243.3 269.3 243.6C269.4 243.9 269.7 244 269.8 244.2C270.5 245.2 271 246.3 271.2 247.6C271.7 250.6 271.3 253.8 270.1 256.6C268.3 260.5 264.8 263.4 260.6 264.6C260 264.8 259.5 264.9 258.9 265C258.8 265 258.2 265 258.1 265.1C258 265.2 258.4 266.8 258.4 267C259.9 276 261.3 285.1 261.9 294.3C262.1 296.7 262.7 300 261 302C258.9 304.5 255.7 306.2 252.8 307.5C248.9 309.3 244.6 310.2 240.3 309.9C239.2 309.8 238.2 309.6 237.2 309.4C236.7 309.3 236.2 309.1 235.7 308.9L235.1 308.7C235 308.6 234.6 308.3 234.9 308.6C235.4 309 235.4 309 234.9 308.6C234.4 308.2 234 307.7 233.6 307.3C232.7 306.3 231.9 305.1 231.3 303.9C230.5 302.5 229.9 301 229.4 299.4C229.2 298.8 228 298.2 227.4 297.8C226.8 297.4 225.9 296.6 225.2 296.7C223.4 296.7 221.6 296.4 219.8 295.8C214.9 293.9 211.5 290.1 208.4 286C207.6 285.3 206.7 284.7 205.8 284.2C205.4 283.9 205 283.6 204.5 283.5C204.5 283.5 204 283.3 204.2 283.5C208.8 289.6 214.8 294.4 221.8 297.5C224.2 298.6 226.8 299.2 229.4 299.1L225.2 296.4C226.1 299.4 227.6 302.2 229.6 304.6C231.8 307 234.5 309 237.4 310.5C241.7 312.6 246.6 313.2 251.2 312C255.4 311.1 259.3 309.3 262.8 306.8C264 306 265 305 265.8 303.9C266.3 302.9 266.5 301.7 266.4 300.6C266.3 295.7 265.8 290.7 265.1 285.8C264.4 280.9 263.7 276 263 271.1L262.6 268.9C262.6 268.7 262.3 268 262.4 267.7C262.5 267.4 263.7 267.3 264.1 267.2C268.5 266.2 272.2 263.3 274.2 259.2C275.6 256.2 276 252.8 275.4 249.6C274.7 246.5 272.5 244.7 269.9 243.2C267.7 241.8 265.4 241.1 262.8 241.7C260 242.4 257.6 244.1 255.8 246.3C254.6 247.7 253.6 249.3 252.9 251L257.1 253.6C255.5 250.6 254.1 247.4 252.9 244.2C250.5 237.9 248.5 231.1 248.4 224.3C248.2 220.6 248.9 217 250.4 213.7C250.6 213.3 246.7 210.7 246.2 211C243.3 212.8 240.3 214.5 237.3 216.1C231.3 219.3 224.9 221.8 218.2 223.4C214.6 224.3 210.8 224.5 207.1 223.9H207C205.3 229.1 203.8 234.3 202.6 239.7C200.4 249.5 198.7 259.8 199.7 269.9C200.2 274.7 201.4 279.7 204.4 283.6C205.1 284.4 206 285 206.9 285.4C207.3 285.7 207.7 286 208.2 286.1C208.1 286.1 208.6 286.3 208.4 286Z" fill="#0C41E2"/>
<path d="M226.9 271.9C226.9 271.9 201.4 288.4 190 276.4C178.6 264.4 195.1 248.7 215.9 253.5" fill="#EDF1FE"/>
<path d="M225.7 270.8C225 271.2 224.3 271.6 223.6 272L222.6 272.6L222 272.9C222.6 272.6 221.8 273 221.6 273.1C220.6 273.6 219.6 274.1 218.6 274.6C213.6 276.9 208.7 278.7 203.3 279C197.9 279.3 192.7 277.2 190 272.2C187.4 267.4 189.3 262.3 193.2 259.1C195.8 257.1 198.8 255.7 202 255.1C206.2 254.3 210.6 254.4 214.8 255.4C216.1 255.6 217.3 255 218 254C218.4 253.5 218.4 252.7 217.8 252.2C217.6 252 217.3 251.9 217.1 251.9C208.9 250.1 199.9 250.9 192.6 255.4C187.4 258.6 182.8 264.4 184.1 270.9C185.4 277.4 191.4 281.7 197.7 282.4C204.2 283.2 210.8 281.3 216.8 278.9C220.7 277.3 224.5 275.4 228.1 273.1C228.9 272.6 229.7 271.5 228.9 270.6C228.1 269.7 226.6 270.3 225.7 270.8Z" fill="#0C41E2"/>
<path d="M249.3 263.1C249.3 263.1 250.5 271.4 240.3 273.4Z" fill="#EDF1FE"/>
<path d="M247.8 262.1C248.1 265.2 246.7 268.3 244.1 270.1C242.5 271.1 240.8 271.8 239 272.1C238.4 272.2 239.4 273.3 239.6 273.5C239.9 273.8 240.3 274.1 240.8 274.4C241.1 274.6 241.4 274.7 241.7 274.7C244.6 274.1 247.6 272.8 249.3 270.3C250.3 268.8 250.9 267.1 250.9 265.3C250.9 264.9 250.9 264.6 250.9 264.2C250.8 263.5 249.9 262.8 249.3 262.4C249.1 262.3 247.7 261.5 247.8 262.1Z" fill="#0C41E2"/>
<path d="M233.4 243.7C233.7 244.8 233.1 246 231.9 246.4C231.8 246.4 231.7 246.5 231.6 246.5C229.2 246.8 228.8 243.9 230.7 243C231.5 242.4 232.7 242.7 233.2 243.5C233.4 243.6 233.4 243.6 233.4 243.7Z" fill="#0C41E2"/>
<path d="M220.1 244.5C220.4 245.6 219.8 246.8 218.6 247.2C218.5 247.2 218.4 247.3 218.3 247.3C215.9 247.6 215.5 244.7 217.4 243.8C218.2 243.2 219.4 243.5 219.9 244.3C220 244.3 220 244.4 220.1 244.5Z" fill="#0C41E2"/>
<path d="M218.1 312.4C218.1 312.4 206.2 300.5 211.9 297.7C217.6 294.9 238 301.7 252.7 293.7C267.4 285.7 273.7 280.7 275.4 289.2C277.1 297.7 273.7 316.4 273.7 316.4" fill="#EDF1FE"/>
<path d="M220 311.4C218.5 309.9 217.1 308.3 215.9 306.6C215 305.4 214.1 304.2 213.5 302.8C213.4 302.5 213.2 302.2 213.1 301.8C212.9 301.2 213.2 302.2 213 301.6C213 301.5 212.9 301.3 212.9 301.1C212.9 300.9 212.8 300.1 212.8 300.5C212.8 300.4 212.8 300.3 212.8 300.2C212.8 299.7 212.8 300.1 212.8 300.1C212.8 300.1 212.9 299.9 212.9 299.8C213.2 299.4 212.6 300.2 213 299.8C213.1 299.7 213.2 299.7 213.2 299.6C212.8 299.9 213.3 299.6 213.3 299.5L213.6 299.4C214.1 299.2 213.2 299.5 213.7 299.4C214 299.3 214.4 299.2 214.7 299.2C215.3 299.1 215.8 299.1 216.4 299.1C217.3 299.1 218.3 299.1 219.2 299.1C223.8 299.3 228.5 299.8 233.1 299.8C238.4 300 243.7 299.3 248.7 297.8C254.3 296 259.2 292.7 264.3 289.9C266.1 288.9 267.9 288 269.8 287.3L270.5 287.1C270.8 287 271.2 287 271.5 286.9C271.8 286.8 271 286.9 271.5 286.9C271.6 286.9 271.8 286.9 271.9 286.9C272 286.9 272.5 286.9 271.8 286.9L272.1 287C272.3 287.1 272.3 287 272.1 287C271.9 287 271.9 286.9 272.2 287.1C271.5 286.8 272 287 272.1 287.1C272.2 287.2 272.6 287.5 272 287C272.1 287.1 272.2 287.2 272.3 287.4C272 286.8 272.4 287.7 272.5 287.8C272.6 288.1 272.7 288.4 272.8 288.7C273.2 290.4 273.4 292.1 273.4 293.8C273.4 301.3 272.7 308.8 271.2 316.1C270.7 318.6 275.5 320 276 317.3C277.3 310.4 278.1 303.5 278.2 296.5C278.2 292.9 278.3 288.1 275.8 285.1C273.3 282.1 269.1 282.9 265.8 284.3C260.6 286.5 255.8 289.7 250.8 292.3C245.8 294.9 240.2 295.7 234.7 295.9C229.6 296 224.6 295.5 219.5 295.3C216.4 295.1 211.8 294.6 209.2 296.9C206.1 299.8 209 304.6 210.8 307.3C212.4 309.6 214.1 311.7 216.1 313.7C216.9 314.7 218.3 315.1 219.5 314.6C220.4 314.1 220.7 313 220.2 312.1C220.1 312 220 311.9 219.9 311.7L220 311.4Z" fill="#0C41E2"/>
<path d="M58.7 436H70.4H99L140.3 435.9L190.2 435.8L244.5 435.7L299.1 435.6L349.9 435.5L392.8 435.4L423.6 435.3C428.5 435.3 433.3 435.4 438.2 435.3H438.8C441.7 435.3 442.4 431.5 439.2 431.5H429.2H402L361.7 431.6L312.4 431.7L258.3 431.8L203.5 431.9L152.2 432L108.4 432.1L76.4 432.2H60.2H59.1C56.2 432.2 55.4 436.1 58.7 436Z" fill="#0C41E2"/>
<path d="M318.8 127.8H372C375 127.8 377.4 130.2 377.4 133.2V164.2C377.4 167.2 375 169.6 372 169.6H318.8C315.8 169.6 313.4 167.2 313.4 164.2V133.2C313.4 130.2 315.8 127.8 318.8 127.8Z" fill="#0C41E2"/>
<path d="M372 170.1H318.8C315.6 170.1 312.9 167.5 312.9 164.2V133.2C312.9 130 315.5 127.3 318.8 127.3H372C375.2 127.3 377.9 129.9 377.9 133.2V164.2C377.9 167.4 375.2 170.1 372 170.1ZM318.8 128.3C316.1 128.3 313.9 130.5 313.9 133.2V164.2C313.9 166.9 316.1 169.1 318.8 169.1H372C374.7 169.1 376.9 166.9 376.9 164.2V133.2C376.9 130.5 374.7 128.3 372 128.3H318.8Z" fill="#0C41E2"/>
<path d="M327.3 140.9C324.9 143.1 322.6 145.4 320.4 147.7C319.5 148.6 320.4 150.1 321.3 150.6L331.5 156.9C332.5 157.5 334.1 157.6 334.9 156.5C335.5 155.6 335.2 154.3 334.3 153.7C334.2 153.7 334.1 153.6 334.1 153.6L323.9 147.3L324.8 150.2C326.8 148.1 328.9 146.1 330.9 144.2C331.3 143.9 331.6 143.4 331.6 142.8C331.6 142.2 331.3 141.7 330.9 141.3C329.9 140.6 328.2 140 327.3 140.9Z" fill="#EDF1FE"/>
<path d="M347 137.6C345.6 145.4 343.8 153.2 341.6 160.8C341.3 161.9 343.3 161.7 343.8 161.6C344.9 161.4 345.9 160.7 346.4 159.7C348.7 152.1 350.5 144.3 351.9 136.5C352.1 134.8 347.3 136 347 137.6Z" fill="#EDF1FE"/>
<path d="M358.1 143.3C359.5 144.2 360.9 145.2 362.2 146.2C362.9 146.7 363.5 147.2 364.2 147.7L365.2 148.5C365.6 148.8 365.2 148.4 365.3 148.6L365.4 148.7C365.5 148.8 365.5 148.8 365.3 148.6C365.2 148.4 365.2 148.1 365.3 147.8C365.3 147.7 365.7 147.4 365.4 147.7L364.3 148.5L362.3 150L357.9 153.3C357 154 356.8 155.2 357.5 156.1C357.6 156.2 357.6 156.2 357.7 156.3C358.6 157.3 360 157.5 361.2 156.9L366.2 153.1C367 152.5 367.9 151.9 368.7 151.2C369.8 150.5 370.4 149.3 370.2 148C369.8 146.9 369.1 145.9 368.1 145.2C367.4 144.6 366.6 144 365.8 143.4C364.2 142.2 362.6 141 360.9 139.9C359.9 139.3 358.3 139.1 357.5 140.1C356.9 141.3 357.1 142.6 358.1 143.3Z" fill="#EDF1FE"/>
<path d="M58.6999 83.2002H173.7C179.4 83.2002 184 87.8002 184 93.5002V174.9C184 180.6 179.4 185.2 173.7 185.2H58.6999C52.9999 185.2 48.3999 180.6 48.3999 174.9V93.5002C48.3999 87.8002 52.9999 83.2002 58.6999 83.2002Z" fill="#6A90FF"/>
<path d="M172 183.9H57C55 183.9 53.9 183.6 52.7 182.1C51.3 180.3 50.5999 178.2 50.5999 175.9C50.4999 170.8 50.5999 165.8 50.5999 160.8V96.5004C50.5999 93.9004 50.7 91.4004 52.2 89.1004C54.2 86.1004 57.6 84.3004 61.2 84.4004H175.4C177.6 84.4004 178.7 84.8004 180 86.6004C181.6 88.9004 181.8 91.5004 181.8 94.1004V158.3C181.8 163.3 181.8 168.4 181.8 173.4C181.8 179.1 177.3 183.7 171.7 183.8C171 183.8 172.8 185.2 172.9 185.2C173.7 185.8 174.8 186.2 175.8 186.3C181.6 186.2 186.2 181.5 186.3 175.7C186.3 174 186.3 172.3 186.3 170.6V94.7004C186.3 91.7004 185 88.8004 182.9 86.7004C179.8 83.7004 175.7 82.0004 171.4 81.9004H57.5999C53.6999 81.9004 50.1 83.3004 47.9 86.6004C46.3 89.0004 46.2 91.5004 46.2 94.2004V169.6C46.2 170.9 46.2 172.3 46.2 173.6C46.3 180.8 53.6 186.3 60.5 186.4C63.9 186.4 67.2999 186.4 70.5999 186.4H175.5C176.5 186.4 175.4 185.5 175.1 185.3C174.2 184.6 173.1 184.1 172 183.9Z" fill="#6A90FF"/>
<path d="M169.1 91.7002C169.1 91.7002 172.5 92.5002 171.4 95.7002C170.3 98.9002 166.4 97.5002 166.5 94.5002C166.3 93.1002 167.4 91.8002 168.8 91.7002C168.8 91.7002 169 91.7002 169.1 91.7002Z" fill="#0C41E2"/>
<path d="M170.2 93.8001C170.4 93.9001 170.7 93.9001 170.9 94.1001L170.6 94.0001C170.8 94.1001 171 94.2001 171.1 94.3001L171.2 94.4001H171.3C171.4 94.5001 171.1 94.2001 171.1 94.2001L171.2 94.3001L171.3 94.4001C171.4 94.5001 171.5 94.7001 171 94.1001L171.1 94.2001C171.1 94.2001 170.6 93.6001 170.8 93.9001C170.9 94.0001 171 94.1001 170.7 93.7001C170.4 93.3001 170.5 93.4001 170.6 93.5001C170.7 93.6001 170.2 92.8001 170.3 93.1001C170.4 93.4001 170 92.4001 170.1 92.8001C170.2 93.2001 169.9 92.3001 170 92.5001V92.6001V92.7001C170.1 92.9001 169.9 92.3001 169.9 92.5001C169.9 92.7001 169.9 92.8001 170 92.9001V92.6001C170 93.3001 169.8 93.9001 169.5 94.5001L169.6 94.3001C169.2 95.0001 168.6 95.4001 167.8 95.5001H168C167.6 95.5001 167.1 95.5001 166.7 95.3001L167 95.4001L166.7 95.2001L166.6 95.1001C166.4 95.0001 166.9 95.4001 166.8 95.2001L166.7 95.1001C166.5 94.9001 167.1 95.5001 166.9 95.3001C166.7 95.1001 167.3 95.8001 167.1 95.6001C166.9 95.4001 167.5 96.3001 167.3 96.0001C167.1 95.7001 167.7 96.7001 167.5 96.4001C167.3 96.1001 167.8 97.0001 167.7 96.7001C167.6 96.4001 167.6 96.3001 167.8 97.0001L167.7 96.8001C167.6 96.6001 167.8 97.2001 167.7 97.0001V96.8001C167.7 96.7001 167.7 96.5001 167.7 96.4001V96.7001C167.7 96.1001 167.8 95.5001 168.1 94.9001L168 95.1001C168.4 94.4001 169.1 94.0001 169.9 93.9001H169.7C170 93.8001 170.1 93.8001 170.2 93.8001C171 93.8001 170 92.1001 169.9 91.8001C169.6 91.2001 169.2 90.7001 168.8 90.2001L168.4 89.8001C168.2 89.6001 168 89.5001 167.8 89.4001C166.9 89.3001 166.1 89.7001 165.5 90.3001C164.9 91.1001 164.7 92.0001 164.8 93.0001C164.9 93.6001 165 94.3001 165.3 94.9001C165.8 95.9001 166.4 96.9001 167.1 97.8001C167.7 98.6001 168.6 99.2001 169.6 99.5001C170.3 99.6001 171 99.5001 171.6 99.1001C172.3 98.5001 172.7 97.7001 172.8 96.8001C172.9 95.3001 172.4 93.9001 171.5 92.7001C170.7 91.2001 169.3 90.0001 167.7 89.5001C167.4 89.4001 167.4 89.8001 167.4 90.0001C167.5 90.5001 167.7 91.0001 168 91.4001C168.3 92.0001 168.7 92.5001 169.1 93.0001C169.5 93.4001 169.9 93.7001 170.2 93.8001Z" fill="#0C41E2"/>
<path d="M67.3001 112.1H63.3V115.3H67.3001V112.1Z" fill="#EDF1FE"/>
<path d="M110.4 112.1H77.2V115.3H110.4V112.1Z" fill="#EDF1FE"/>
<path d="M130.6 111.8H120.3V115H130.6V111.8Z" fill="#0C41E2"/>
<path d="M156.564 111.726L138.468 112.07L138.529 115.269L156.625 114.925L156.564 111.726Z" fill="#EDF1FE"/>
<path d="M67.3999 121.3H63.3999V124.5H67.3999V121.3Z" fill="#EDF1FE"/>
<path d="M98.1 121.3H77.3V124.5H98.1V121.3Z" fill="#0C41E2"/>
<path d="M110.7 120.9H104.3V124.1H110.7V120.9Z" fill="#EDF1FE"/>
<path d="M140.578 120.898L115.58 121.312L115.633 124.512L140.631 124.098L140.578 120.898Z" fill="#EDF1FE"/>
<path d="M67.3999 131.2H63.3999V134.4H67.3999V131.2Z" fill="#EDF1FE"/>
<path d="M99.6 131.1H77.3V134.3H99.6V131.1Z" fill="#EDF1FE"/>
<path d="M113.1 130.8H106.2V134H113.1V130.8Z" fill="#0C41E2"/>
<path d="M130.957 130.624L118.762 130.99L118.858 134.188L131.053 133.823L130.957 130.624Z" fill="#EDF1FE"/>
<path d="M67.3999 140.4H63.3999V143.6H67.3999V140.4Z" fill="#EDF1FE"/>
<path d="M103.1 140.3H77.3V143.5H103.1V140.3Z" fill="#0C41E2"/>
<path d="M118.8 140H110.8V143.2H118.8V140Z" fill="#EDF1FE"/>
<path d="M105.3 159.2H101.3V162.4H105.3V159.2Z" fill="#EDF1FE"/>
<path d="M137.5 159.2H115.2V162.4H137.5V159.2Z" fill="#0C41E2"/>
<path d="M151.1 158.9H144.2V162.1H151.1V158.9Z" fill="#EDF1FE"/>
<path d="M168.857 158.527L156.662 158.893L156.758 162.092L168.953 161.726L168.857 158.527Z" fill="#EDF1FE"/>
<path d="M105.3 168.4H101.3V171.6H105.3V168.4Z" fill="#EDF1FE"/>
<path d="M141 168.4H115.2V171.6H141V168.4Z" fill="#EDF1FE"/>
<path d="M156.7 168H148.7V171.2H156.7V168Z" fill="#0C41E2"/>
<path d="M380.5 271.7C380.5 271.7 437.2 272.1 442.9 270.9C448.6 269.7 455.3 260.1 449 248.9C442.7 237.7 433.1 240.9 433.1 240.9C433.1 240.9 433.9 225.2 414.1 226C394.3 226.8 395.1 244.8 395.1 244.8C395.1 244.8 380.2 245.4 382.1 257C382.1 257 375.2 254.6 371.5 263.1C367.8 271.7 380.5 271.7 380.5 271.7Z" fill="#6A90FF"/>
<path d="M380.6 273.3C384.7 273.3 388.8 273.3 392.9 273.3C401.4 273.3 409.9 273.3 418.4 273.3C425.5 273.2 432.6 273.2 439.7 272.8C442.5 272.6 445.1 272.3 447.5 270.7C452.2 267.6 454.5 261.6 453.9 256.1C453.2 249.9 449.3 243.4 443.6 240.6C440.2 238.9 436.4 238.5 432.7 239.3C432.3 239.4 432 239.5 431.6 239.6L435.4 240.7C435.7 233.7 430.7 227.8 424.3 225.6C420.9 224.5 417.2 224.1 413.6 224.4C410.1 224.5 406.7 225.3 403.5 226.7C399 228.7 395.6 232.5 393.8 237.1C392.8 239.6 392.4 242.2 392.4 244.9L394.8 243.2C391.8 243.3 388.9 244.1 386.2 245.3C381.4 247.6 378.6 251.7 379.4 257.1L383.1 255.5C378.2 253.8 372.7 256.2 370.1 260.5C368.6 262.9 367.2 266.2 369 268.9C370.3 270.9 372.8 272 375.1 272.6C377 273.1 378.8 273.3 380.6 273.3C381.5 273.3 383.1 272.8 383 271.6C382.9 270.4 381.3 270.2 380.4 270.2C380.1 270.2 380.3 270 380.8 270.2C380.6 270.2 380.4 270.2 380.2 270.2C379.5 270.2 378.9 270.1 378.2 270L377.8 269.9L377.4 269.8C376.9 269.7 376.5 269.5 376 269.4C375.5 269.3 376.1 269.4 375.7 269.3L375.2 269.1C374.9 269 374.6 268.8 374.3 268.5C373.8 268.1 373.4 267.4 373.3 266.8C373.2 265.7 373.3 264.7 373.8 263.7C374.4 262.2 375.3 260.8 376.5 259.7C376.8 259.4 377.2 259.2 377.6 258.9L378.2 258.6L378.5 258.5C378.8 258.4 378.2 258.6 378.6 258.5C378.8 258.5 379.5 258.3 378.9 258.4C379.1 258.4 379.4 258.4 379.6 258.4H379.9C380.2 258.4 379.3 258.3 379.8 258.4C380 258.4 380.1 258.4 380.3 258.4C380.5 258.4 380.6 258.5 380.8 258.5C381 258.5 380.2 258.3 380.7 258.5L381 258.6C382 258.9 384.9 258.7 384.7 257.1C384.3 255 384.6 252.8 385.7 251C386.2 250.3 386.8 249.7 387.5 249.2C388.1 248.7 388.8 248.3 389.6 248C390 247.8 390.5 247.6 390.9 247.5C391 247.5 391.6 247.3 391 247.4L391.5 247.3C392.2 247.1 393 246.9 393.8 246.8C394.2 246.7 394.8 246.7 394 246.8L394.7 246.7H395.3C396.2 246.7 397.8 246.2 397.7 245C397.7 244.5 397.7 243.9 397.7 243.4C397.8 242.2 398 240.9 398.4 239.7C399.3 236 401.5 232.8 404.6 230.6C408.9 227.7 415.5 227.1 420.6 228.4C424.5 229.2 427.7 231.8 429.4 235.4C430 236.7 430.4 238 430.5 239.4C430.6 240.1 430.6 240.7 430.6 241.4C430.5 243.1 433.5 242.8 434.4 242.5C434.1 242.6 433.3 242.9 434.4 242.5C434.7 242.4 434.8 242.4 435 242.4C435.2 242.4 435.6 242.4 434.9 242.4C435.1 242.4 435.3 242.3 435.5 242.3H436.3C436.4 242.3 437 242.3 436.4 242.3H437C437.4 242.3 437.8 242.4 438.2 242.5C437.7 242.4 438.4 242.6 438.5 242.6C438.8 242.7 439.1 242.8 439.4 242.9C444.4 244.6 448.1 250.7 448.9 255.9C449.7 260.8 448.1 266.4 443.7 269.1C443.2 269.4 442.6 269.6 442.1 269.8C441.3 270 442.8 269.8 441.8 269.8C440.8 269.8 440 269.9 439 270C424.1 270.8 409.1 270.5 394.2 270.5C389.6 270.5 385 270.5 380.3 270.4C379.4 270.4 377.8 271 377.9 272.1C378 273.2 379.7 273.2 380.6 273.3Z" fill="#6A90FF"/>
<path d="M425.6 245.8C425.6 245.8 429.8 237 441.8 241.9Z" fill="#6A90FF"/>
<path d="M427.7 246C427.8 245.7 428 245.5 428.2 245.2L428.4 244.8C428.5 244.7 428 245.3 428.3 245L428.5 244.8C428.8 244.5 429.1 244.2 429.4 243.9C429.7 243.6 429 244.3 429.3 244L429.6 243.8C429.8 243.6 430 243.5 430.2 243.3C430.6 243 430.4 243.3 430.1 243.3C430.2 243.2 430.3 243.2 430.4 243.1C430.7 243 430.9 242.8 431.2 242.7C431.5 242.6 430.7 242.9 431.1 242.7C431.2 242.7 431.4 242.6 431.5 242.6L431.9 242.5C432.4 242.3 431.6 242.6 432 242.5C432.4 242.4 432.7 242.4 433.1 242.3H433.6C433.8 242.3 433.5 242.3 433.5 242.3H433.9C436.1 242.4 438.2 242.8 440.1 243.7C441.2 244.1 442.7 243.4 443.4 242.6C444.1 241.8 444.3 240.8 443.2 240.3C439.3 238.7 435 238.1 430.9 239.5C428.2 240.5 425.8 242.2 424.1 244.6C423.8 245 423.6 245.3 423.4 245.7C422.9 246.7 423.3 247.5 424.4 247.6C425.8 247.7 427 247.1 427.7 246Z" fill="#6A90FF"/>
<path d="M419.3 248.2H395.7V250.5H419.3V248.2Z" fill="#EDF1FE"/>
<path d="M410.6 254.8H395.8V257.1H410.6V254.8Z" fill="#0C41E2"/>
<path d="M419.6 254.6H415V256.9H419.6V254.6Z" fill="#EDF1FE"/>
<path d="M440.897 254.562L423.099 254.857L423.137 257.157L440.935 256.862L440.897 254.562Z" fill="#EDF1FE"/>
<path d="M411.7 261.8H395.8V264.1H411.7V261.8Z" fill="#EDF1FE"/>
<path d="M421.3 261.6H416.4V263.9H421.3V261.6Z" fill="#0C41E2"/>
<path d="M433.763 261.577L425.067 261.82L425.131 264.119L433.828 263.876L433.763 261.577Z" fill="#EDF1FE"/>
<path d="M214.8 100.1C226.2 84.3002 243 73.2002 262 68.8002C281.2 64.4002 303.8 66.9002 319.4 79.7002C328.6 87.2002 334.9 99.1002 333.5 111.2C333.3 113.3 338.2 112.9 338.4 111.2C339.6 99.9002 334.8 88.6002 326.8 80.7002C318.5 72.6002 307.6 67.9002 296.4 65.6002C276 61.4002 254 65.6002 236.1 76.1002C226 82.0002 217.3 89.9002 210.5 99.4002C209 101.4 213.8 101.5 214.8 100.1Z" fill="#6A90FF"/>
<path d="M397.5 165C401.4 164 406.2 164.7 409.1 167.7C412 170.7 412.4 175.6 411.3 179.5C410.8 181.6 409.6 183.5 407.9 185C407.1 185.7 406.1 186.1 405 186.1C404.5 186 404.3 185.7 404.6 186.2C405.2 187.1 404.8 186.1 405 185.6C405.7 184.1 407.4 183.4 409 183.9C409.5 184.3 409.9 184.8 410.1 185.4C410.6 186.5 411.1 187.7 411.5 188.9C413.5 194.8 414.3 201.1 413.7 207.4C413.6 208.4 414.7 209.5 415.4 210.1C415.7 210.3 417.4 211.4 417.5 210.4C418.2 202.9 417.1 195.4 414.3 188.4C413 185.2 410.9 182 407.6 180.5C405.5 179.6 402.5 179.9 401.4 182.1C399.9 185.1 403.5 188.5 406 189.5C408.9 190.6 411.6 189.1 413.2 186.7C416.8 181.6 416.3 174.5 412.9 169.3C409 163.4 401.5 159.6 394.4 161.4C393.1 161.6 396.1 165.4 397.5 165Z" fill="#6A90FF"/>
</svg>
