<svg width="500" height="500" viewBox="0 0 500 500" fill="none" xmlns="http://www.w3.org/2000/svg">
<path fill-rule="evenodd" clip-rule="evenodd" d="M248.073 0.833525C323.611 -5.72996 400.016 26.9808 449.824 80.8921C497 131.955 504.902 203.635 497.667 270.992C491.202 331.179 459.51 384.706 412.738 426.147C367.566 466.171 309.683 485.539 248.073 492.137C176.198 499.834 93.1202 513.377 41.1794 465.937C-11.0395 418.243 -1.62267 339.144 5.9488 270.992C12.5676 211.414 39.3722 158.759 80.39 112.992C126.365 61.6943 177.116 6.99899 248.073 0.833525Z" fill="#EDF1FE"/>
<path d="M362.1 159.399L473.4 149.199L483.6 260.499L372.3 270.699L368.7 231.699C368.7 231.699 381.7 234.799 389.3 228.299C395.7 222.999 397.5 218.399 396.8 209.899C396.1 202.399 391.3 192.799 379.4 192.399C370.4 192.099 365.5 195.999 365.5 195.999L362.1 159.399Z" fill="#EDF1FE"/>
<path d="M361.6 161.2L372.7 160.2L399.3 157.8L431.4 154.9L459.2 152.3L468.3 151.5C469.8 151.4 471.2 151.3 472.7 151.1C472.8 151.1 472.8 151.1 472.9 151.1L471.1 150L472.1 161.1L474.5 187.7L477.4 219.8L480 247.6L480.8 256.7C480.9 258.1 480.9 259.7 481.2 261.1C481.2 261.2 481.2 261.2 481.2 261.3L484.1 258.8L473 259.8L446.4 262.2L414.3 265.2L386.5 267.7L377.4 268.5C375.9 268.6 374.5 268.7 373 268.9H372.8L374.6 270L371.5 235.8L371 230.9L367.1 233.3C371.5 234.4 376.2 234.5 380.6 233.7C387.8 232.3 394.6 227.5 397.6 220.8C400.1 215.2 399.6 207.9 397.3 202.3C394.9 196.2 389.4 191.8 382.9 190.9C378.5 190.3 374 190.7 369.9 192.1C367.8 192.7 365.9 193.7 364.1 195L367.7 195.4L364.8 163.4L364.4 158.8C364.2 156.5 359.5 158.2 359.7 160.2L362.6 192.2L363 196.8C363.2 198.5 365.8 197.8 366.6 197.2C366.9 197 367.1 196.8 367.4 196.6C366.7 197.1 367.7 196.5 367.9 196.3C368.4 196 368.9 195.8 369.4 195.6C369.1 195.7 369.7 195.5 369.8 195.5C370.1 195.4 370.5 195.3 370.8 195.2C371.5 195 372.2 194.8 373 194.7C374.8 194.4 376.5 194.3 378.3 194.3C384 194.4 389.3 197.7 391.9 202.8C394.5 207.7 395.2 213.4 393.9 218.8C392.3 224.2 388.1 228.5 382.7 230.1C379.9 230.8 377 231 374.1 230.7C373.1 230.6 372 230.5 371 230.3L370 230.1C369.5 230 370 230.1 370.1 230.1C368.8 229.8 366 230.7 366.2 232.5L369.3 266.7L369.7 271.6C369.8 272.5 370.8 272.7 371.5 272.7L382.6 271.7L409.2 269.2L441.3 266.3L469.1 263.8C473.6 263.4 478.1 263.1 482.6 262.6H482.8C483.9 262.5 485.8 261.5 485.7 260.1L484.7 249L482.3 222.4L479.4 190.2L476.9 162.4C476.5 157.9 476.3 153.4 475.7 148.9C475.7 148.8 475.7 148.8 475.7 148.7C475.6 147.8 474.6 147.6 473.9 147.6L462.8 148.6L436.2 151L404 154L376.2 156.5C371.7 156.9 367.2 157.2 362.7 157.7H362.5C361.3 157.8 360.2 158.6 359.7 159.7C359.5 160.8 360.6 161.3 361.6 161.2Z" fill="#0C41E2"/>
<path d="M240.9 58.2996L351.9 48.0996L362.1 159.1L324.7 162.5C326.7 166.3 327.6 170.5 327.3 174.8C326.8 186.7 317.3 191.6 309.8 192.2C301.3 193 296.7 191.1 291.4 184.7C286.3 178.7 287.2 169.5 287.8 165.8L251.1 169.2L240.9 58.2996Z" fill="#EDF1FE"/>
<path d="M241.9 60.0998L253 59.0998L279.5 56.6998L311.6 53.7998L339.3 51.2998L348.5 50.4998C349.9 50.3998 351.4 50.2998 352.9 50.0998H353.1L349.9 47.7998L350.9 58.8998L353.3 85.3998L356.2 117.5L358.8 145.2L359.6 154.4C359.6 155.9 359.7 157.3 360 158.7C360 158.8 360 158.8 360 158.9L361.2 157.6L328.5 160.6L323.8 161C322.8 161.1 322.2 161.7 322.7 162.7C325.4 168.1 326.2 174.9 323.7 180.6C321.9 184.6 318.6 187.8 314.4 189.4C310.2 191.1 305.6 191.5 301.2 190.5C297.2 189.6 293.4 186 291.4 182.1C289.1 177.5 289.2 172 289.9 167.1C290.1 165.7 287.9 164.3 286.7 164.4L254.6 167.3L250 167.7L253.2 170L252.2 158.9L249.8 132.4L246.9 100.3L244.4 72.5998L243.6 63.3998C243.5 61.9998 243.5 60.4998 243.2 59.0998C243.2 58.9998 243.2 58.9998 243.2 58.8998C243.1 57.6998 241.1 56.4998 240 56.5998C237 56.7998 240 60.2998 241.9 60.0998L238.7 57.7998L239.7 68.8998L242.1 95.3998L245 127.5L247.5 155.2L248.3 164.4C248.4 165.8 248.4 167.3 248.7 168.7C248.7 168.8 248.7 168.8 248.7 168.9C248.8 170.1 250.8 171.3 251.9 171.2L284 168.3L288.6 167.9L285.4 165.2C284.6 170.2 284.7 175.7 286.6 180.4C289 186.1 293.6 190.6 299.3 193C304.5 194.9 310.2 195 315.5 193.4C320.3 192.1 324.4 189 327.1 184.8C331 178.1 330.1 169.4 326.7 162.8L325.6 164.5L358.3 161.5L363 161.1C363.9 161 364.3 160.7 364.2 159.8L363.2 148.7L360.8 122.2L357.9 89.9998L355.4 62.2998L354.6 53.0998C354.5 51.6998 354.5 50.1998 354.2 48.7998C354.2 48.6998 354.2 48.6998 354.2 48.5998C354.1 47.3998 352.1 46.1998 351 46.2998L339.9 47.2998L313.4 49.6998L281.3 52.6998L253.6 55.1998L240.1 56.3998H239.9C237 56.7998 240 60.2998 241.9 60.0998Z" fill="#0C41E2"/>
<path d="M473.4 149.2L463.2 38L351.9 48.1L355.5 86.3C355.5 86.3 349.9 83.3 341.1 85.2C329.5 87.7 326.4 98.1 327.1 105.6C327.9 114.1 330.5 118.3 337.8 122.4C346.5 127.4 358.7 122 358.7 122L362.1 159.3L399.4 155.9C399.4 155.9 396.3 168.8 402.8 176.5C408.1 182.9 412.7 184.8 421.3 184C428.8 183.3 438.3 178.5 438.8 166.6C439 157.8 435.2 152.7 435.2 152.7L473.4 149.2Z" fill="#EDF1FE"/>
<path d="M475.6 148.2L474.6 137.1L472.2 110.5L469.3 78.2996L466.8 50.4996L466 41.3996C466 39.8996 465.8 38.4996 465.6 36.9996C465.6 36.8996 465.6 36.8996 465.6 36.7996C465.6 36.1996 465 36.1996 464.6 36.2996L453.5 37.2996L426.9 39.6996L394.8 42.5996L367 45.0996C362.5 45.4996 358 45.7996 353.5 46.2996H353.3C352.4 46.3996 349.8 47.5996 349.9 48.7996L353.1 82.2996L353.6 87.0996L357.8 84.6996C356.3 83.9996 354.7 83.4996 353 83.2996C349.1 82.6996 345.1 82.8996 341.2 83.9996C334.7 85.6996 328.9 90.2996 326.5 96.7996C324.6 102.4 324.7 108.6 326.8 114.1C329.1 119.9 335.3 124.4 341.3 125.6C347.1 126.7 353.6 125.4 358.9 123.1L356.8 122.9L359.8 155.6L360.2 160.3C360.2 160.9 360.8 160.9 361.2 160.8L393.8 157.8L398.4 157.4L397.4 156.9C396.4 161.2 396.3 165.6 397.2 169.9C397.9 173.3 399.5 176.4 401.8 179C403.9 181.5 406.5 183.4 409.4 184.6C412.6 185.7 416 186 419.4 185.6C422.4 185.4 425.4 184.7 428.1 183.5C434.2 180.8 439.1 175.9 440.6 169.3C441.4 165.1 441.2 160.8 439.8 156.7C439.3 154.8 438.4 153 437.3 151.4L434 154.2L467.5 151.1L472.3 150.7C473.5 150.5 474.6 149.9 475.3 148.9C475.9 148.1 475.6 147.6 474.6 147.7L441.1 150.8L436.3 151.2C435.6 151.3 432.2 152.9 433 154C435.7 157.6 436.6 162.8 436.6 167.2C436.6 170.4 435.8 173.5 434.1 176.2C433.4 177.3 432.6 178.3 431.6 179.1C431.2 179.4 430.7 179.8 430.2 180.1C430.4 179.9 429.8 180.3 429.7 180.4L429.1 180.8C424.2 183.1 418.7 183.5 413.5 181.9C407.7 179.6 403.3 174.7 401.7 168.7C400.6 164.2 400.6 159.5 401.7 155.1C401.8 154.5 400.9 154.5 400.7 154.6L368.1 157.6L363.5 158L364.5 158.5L361.5 125.8L361.1 121.1C361 120.1 359.5 120.7 359 120.9C358.8 121 357.8 121.4 358.4 121.1C357.5 121.4 356.6 121.7 355.6 122C352.9 122.8 350.1 123.1 347.2 123C341.1 122.6 335.5 119.4 332.2 114.2C329.5 109.8 328.9 103.8 329.7 98.7996C330.5 93.9996 333.2 89.2996 337.7 87.4996C341.2 86.1996 345 85.7996 348.8 86.3996C350.5 86.5996 352.1 87.0996 353.6 87.7996C354.7 88.3996 357.9 86.6996 357.8 85.3996L354.6 51.8996L354.1 47.0996L350.7 49.5996L361.8 48.5996L388.4 46.1996L420.5 43.2996L448.3 40.7996L457.4 39.9996C458.9 39.9996 460.3 39.8996 461.8 39.5996C461.9 39.5996 461.9 39.5996 462 39.5996L461 39.0996L462 50.0996L464.4 76.6996L467.4 108.9L469.9 136.7L470.7 145.8C470.8 147.2 470.8 148.8 471.1 150.2C471.1 150.3 471.1 150.3 471.1 150.4C471.3 151.7 475.7 149.7 475.6 148.2Z" fill="#0C41E2"/>
<path d="M239 40.8C226.7 45.8 217.3 56 213.3 68.6C212.4 71.3 217 73.4 217.9 70.6C221.5 59.1 230 49.8 241.2 45.2C244 44.1 241.6 39.8 239 40.8Z" fill="#0C41E2"/>
<path d="M207.7 56.8992C204.7 60.0992 203.2 64.2992 203.4 68.6992C203.4 68.9992 205.6 67.8992 205.8 67.7992C206.3 67.4992 206.8 67.1992 207.3 66.7992C207.5 66.6992 207.8 66.3992 207.8 66.1992C207.6 62.0992 209 58.1992 211.7 55.0992C212.4 54.3992 210.8 54.9992 210.6 55.0992C209.6 55.4992 208.6 56.0992 207.7 56.8992Z" fill="#0C41E2"/>
<path d="M416 292.5C427.5 293.5 439.8 294.3 450.4 288.7C451.6 288.1 448.9 283.9 447.4 284.7C437 290.1 424.9 289.2 413.6 288.3C412.6 288.2 413.4 290.2 413.6 290.5C414 291.4 414.9 292.2 416 292.5Z" fill="#0C41E2"/>
<path d="M445.1 302.099C450.6 302.499 456 300.299 459.6 295.999C459.8 295.699 459.4 295.099 459.2 294.999C458.8 294.599 458.3 294.199 457.7 293.999C456.9 293.699 455.6 293.199 455 293.999C451.9 297.599 447.3 299.599 442.5 299.199C442.2 299.199 441.7 299.299 441.5 299.599C441.3 299.899 441.6 300.399 441.9 300.599C442.7 301.499 443.9 302.099 445.1 302.099Z" fill="#0C41E2"/>
<path d="M292.7 303C300.7 303.8 311.7 300.7 314.6 288.3C316.7 279 313.7 273 313.7 273L352.5 276.8L348.5 317.5C348.5 317.5 343.2 313.3 333.7 313.5C321 313.8 315.8 324 315.1 332.1C314.2 341.2 316.2 346 322.9 351.8C331 358.7 344.9 355.6 344.9 355.6L341 395.2L222.6 383.6L234.3 265.2L275.8 269.3C275.8 269.3 270 282.3 275.2 291.5C279.2 299.2 283.6 302.1 292.7 303Z" fill="#0C41E2"/>
<path d="M291.7 304.3C298 304.9 304.9 303.5 310 299.5C316.2 294.6 318.5 286.3 317.7 278.6C317.5 276.4 316.9 274.2 316 272.2L312.6 274.2L346.6 277.5L351.4 278L350 277L346.5 312.7L346 317.7L350.4 316.6C349.1 315.6 347.6 314.9 346 314.3C342.2 312.9 338.1 312.2 334 312.3C326.5 312.5 319.4 316 315.5 322.6C314 325.2 313 328 312.6 331C312 334.6 312.1 338.2 312.8 341.7C314.6 348.6 320.8 354.4 327.5 356.4C333.2 358 339.1 358.1 344.8 356.8L342.1 355.7L338.8 390.3L338.3 395.3L341.8 393.9L329.9 392.7L301.7 389.9L267.4 386.5L237.9 383.6L228.1 382.6C226.6 382.3 225 382.2 223.5 382.1H223.3L224.7 383.2L225.9 371.4L228.7 343.2L232.1 308.9L235 279.4L236 269.6C236.1 268.1 236.4 266.5 236.5 265C236.5 264.9 236.5 264.9 236.5 264.8L233 266.2L269.4 269.8L274.5 270.3L273.1 269.2C271.1 273.7 270.2 278.6 270.3 283.5C270.6 290.5 274.3 296.9 280.2 300.8C283.8 303.1 287.8 303.9 291.7 304.3C292.7 304.4 294.3 304.1 295 303.2C295.7 302.3 294.6 301.8 293.8 301.7C290.8 301.5 287.8 300.7 285 299.3C282.6 297.8 280.5 295.8 279 293.4C277 290.5 275.7 287 275.4 283.5C275.3 280.3 275.6 277.1 276.5 274.1C276.9 272.4 277.5 270.8 278.2 269.2C278.6 268.4 277.3 268.1 276.8 268.1L240.4 264.5L235.3 264C234.5 263.9 231.9 264.2 231.8 265.4L230.6 277.2L227.8 305.4L224.4 339.7L221.5 369.2C221 374 220.5 378.8 220.1 383.6C220.1 383.7 220.1 383.7 220.1 383.8C220 384.6 220.8 384.9 221.5 384.9L233.3 386.1L261.5 388.9L295.8 392.3L325.3 395.2C330.1 395.7 334.9 396.2 339.7 396.6H339.9C340.7 396.7 343.3 396.4 343.4 395.2L346.8 360.5L347.3 355.5C347.4 354.2 345.5 354.2 344.7 354.4C344.4 354.5 344 354.5 343.7 354.6L342.6 354.8C341.9 354.9 342.7 354.8 342.3 354.8L341.4 354.9C338.7 355.2 335.9 355.1 333.2 354.6C330.1 354.1 327.2 352.7 324.7 350.7C322.2 348.7 320.1 346.1 318.7 343.2C316.4 337.9 316.9 331 319 325.6C321.1 320.2 325.1 316 330.8 315.1C335.8 314.2 342.4 315.3 346.5 318.6C347.3 319.3 350.8 318.8 350.9 317.5L354.4 281.8L354.9 276.8C355 276 354.2 275.7 353.5 275.7L319.5 272.4L314.7 271.9C313.7 271.8 310.5 272.4 311.3 273.9C311.2 273.7 311.2 273.6 311.3 273.9C311.4 274.2 311.5 274.5 311.6 274.8C311.9 275.8 312.2 276.8 312.4 277.9C313 281.7 312.9 285.5 311.8 289.2C310.3 294.9 306.4 299.6 300.9 301.3C299.8 301.6 298.6 301.9 297.5 302C296.2 302.1 294.9 302.1 293.6 302C292.6 301.9 291 302.1 290.3 303C289.6 303.9 290.9 304.2 291.7 304.3Z" fill="#0C41E2"/>
<path d="M223.8 259.7C223.8 259.7 248.8 234.1 244.6 229.8C240.4 225.5 218.5 245.5 218.5 245.5C218.5 245.5 235.9 218.7 225.3 221.7C214.7 224.7 193.5 272.1 200.8 282.4C208.1 292.7 223.8 259.7 223.8 259.7Z" fill="#EDF1FE"/>
<path d="M225.7 261.4C228.3 258.8 230.7 256.1 233.1 253.4C237.4 248.8 241.2 243.8 244.7 238.6C245.8 236.7 247.1 234.6 247.2 232.4C247.2 229.9 245.3 227.7 242.8 227.3C240.5 226.9 238 228.1 236 229.2C233.2 230.8 230.6 232.5 228.1 234.4C224.1 237.4 220.3 240.5 216.7 243.9L220.4 247.3C222.2 244.5 224 241.6 225.6 238.6C226.9 236.3 228.1 233.8 229.2 231.4C230.1 229.4 230.7 227.3 231 225.1C231.1 222.8 229.8 220.7 227.6 219.9C225.7 219.4 223.7 219.7 222.2 220.8C218.2 223.3 215.4 227.7 212.9 231.6C209.4 237.3 206.4 243.2 203.9 249.3C201.4 255.3 199.4 261.5 198.1 267.8C197.3 272.2 196.5 277.6 198.6 281.8C199.6 284.1 201.6 285.8 204 286.4C205.9 286.7 207.9 286.2 209.5 284.9C213.8 281.9 216.8 277.2 219.5 272.8C221.7 269.2 223.8 265.5 225.6 261.7L225.9 261.1C226.7 259.3 222.8 256.4 221.8 258.5C218.5 265.4 214.6 272.4 209.5 278.1C208.3 279.7 206.7 281 205 281.9C204.7 282.1 204.3 282.2 204 282.3C204.4 282.2 203.9 282.3 203.8 282.3C203.7 282.3 203.4 282.3 203.2 282.3C203.6 282.3 203.3 282.3 203.1 282.3C203.2 282.4 202.6 282.3 203.1 282.3C203.3 282.5 202.6 282.1 203.1 282.3C202.6 281.9 203.5 282.6 203 282.2C202.5 281.8 203.1 282.4 202.9 282.1C202.7 281.8 202.6 281.8 202.5 281.6C203.1 282.4 202.1 280.6 202.4 281.4C202.3 281.1 202.2 280.7 202.1 280.3C202 280.1 202 279.9 202 279.7C201.9 279.2 202 279.8 201.9 279.3C201.7 277.2 201.7 275 202 272.9C202.8 267.3 204.3 261.8 206.3 256.6C208.5 250.6 211.1 244.8 214.1 239.3C216.4 234.8 219.3 230.5 222.7 226.7C223.3 226 224 225.4 224.7 224.8C224.9 224.6 225.2 224.4 225.4 224.3C225.7 224.1 226 224 226.3 223.8C226.5 223.7 227.2 223.5 227 223.5C227.2 223.5 227.4 223.4 227.6 223.4C227.7 223.4 227.8 223.4 227.9 223.4C228.3 223.4 228 223.3 227.9 223.4C228.7 223.8 228 223.3 227.9 223.4C228.4 223.6 227.3 223 227.3 223C227.5 223.1 227.4 223.2 227 222.7C227.1 222.9 227.1 222.9 226.8 222.4C227 222.9 226.6 221.9 226.8 222.4C227 222.9 226.8 222.2 226.8 222.4C226.8 222.6 226.8 222.7 226.8 222.9C226.8 223.1 226.8 223.2 226.8 223.4C226.8 223.9 226.8 223.3 226.8 223.8C226.6 224.7 226.3 225.7 226 226.6C225.2 228.8 224.2 231 223.1 233.1C221.3 236.6 219.4 239.9 217.3 243.2C217.2 243.4 217.1 243.6 216.9 243.8C215.8 245.6 219 248.6 220.6 247.2C223.4 244.7 226.2 242.3 229.2 239.9C231.6 238 234 236.2 236.6 234.6C238.6 233.2 240.8 232.1 243.2 231.4C242.9 231.5 243.4 231.4 243.5 231.4L244.1 231.3C244.3 231.3 243.9 231.1 244.2 231.3C244.5 231.5 243.8 231.1 244.3 231.3C243.9 231.2 243.6 230.9 243.4 230.6C243.6 230.9 243 230 243.3 230.4C243 229.8 243.2 230.5 243.2 230C243.2 230.2 243.2 230.3 243.2 230.5C243.2 230.7 243.2 230.8 243.2 230.7C243.2 230.9 243.1 231.1 243.1 231.3C243 231.7 242.8 232.2 242.7 232.6C242.3 233.5 241.8 234.5 241.3 235.3C238.1 240.3 234.5 244.9 230.5 249.2C227.8 252.2 225.1 255.2 222.3 258.1C220.5 259.5 224.2 262.9 225.7 261.4Z" fill="#0C41E2"/>
<path d="M189.5 307.5C189.5 307.5 196.7 265.2 209.3 252.1C221.9 239 264.8 249.2 261.9 256.7C259 264.2 249 262 239.5 262.3C230 262.6 218.2 277.9 234 283.5C249.8 289.1 263.7 291.5 261.7 297.3C259.7 303.1 232.3 303.3 232.3 303.3C232.3 303.3 237.2 309 229.5 314.9C221.8 320.8 189.5 307.5 189.5 307.5Z" fill="#EDF1FE"/>
<path d="M191.9 308.301C192.7 303.701 193.7 299.101 194.8 294.601C196.8 285.601 199.5 276.701 202.9 268.101C204.4 264.201 206.3 260.601 208.6 257.101C209.1 256.301 209.7 255.601 210.2 254.901C210.2 254.901 210.7 254.301 210.4 254.701L210.8 254.201C211.1 253.901 211.5 253.501 211.8 253.201C212.4 252.701 213 252.201 213.6 251.801C213.2 252.101 213.8 251.701 213.8 251.701L214.4 251.401C214.9 251.201 215.3 250.901 215.8 250.701C219.4 249.201 223.3 248.401 227.2 248.201C231.4 248.001 235.7 248.201 239.9 248.801C243.9 249.301 247.8 250.201 251.6 251.401C252.4 251.601 253.1 251.901 253.9 252.201C254.3 252.301 254.7 252.501 255 252.701L255.5 252.901C256.2 253.201 255.4 252.801 255.7 253.001C256.3 253.301 256.9 253.601 257.5 254.001C257.8 254.201 258 254.301 258.3 254.501C258.6 254.701 259.2 255.301 258.6 254.701C258.8 254.901 259 255.001 259.2 255.201C259.4 255.401 259.7 256.001 259.3 255.301C259.4 255.501 259.5 255.701 259.6 255.801C259.9 256.101 259.4 255.201 259.5 255.601C259.5 255.701 259.6 255.801 259.6 255.901C259.5 255.001 259.6 255.601 259.6 255.801C259.6 256.001 259.8 255.501 259.6 255.601C259.6 255.601 259.6 255.801 259.5 255.801C259.1 256.701 258.5 257.501 257.8 258.101C256.2 259.401 253.8 259.701 251.6 259.901C248.7 260.101 245.8 259.901 243 259.901C240.4 259.701 237.8 259.901 235.3 260.601C233.4 261.201 231.6 262.201 230 263.501C226.8 266.001 224.1 269.701 223.8 273.901C223.4 278.501 226.5 282.401 230.5 284.401C233.9 286.001 237.4 287.201 241.1 288.201C244.3 289.201 247.5 290.201 250.7 291.301C253 292.001 255.2 292.901 257.3 294.001C257.7 294.201 258.1 294.501 258.5 294.801C259.1 295.201 258.1 294.401 258.6 294.901L259 295.301C259.1 295.401 259.4 295.901 259.1 295.301L259.4 295.701C259.7 296.201 259.2 295.201 259.4 295.701C259.6 296.201 259.4 295.201 259.4 295.701C259.4 295.901 259.4 296.001 259.4 296.201C259.4 295.601 259.4 296.201 259.4 296.301C259 296.801 259.7 295.901 259.3 296.501C259.2 296.701 258.9 296.901 259.4 296.401C259.3 296.501 259.2 296.601 259.1 296.701C258.9 296.801 258.1 297.401 258.7 297.101C258.2 297.401 257.6 297.701 257 297.901C256.3 298.201 255.6 298.401 254.8 298.601C250.9 299.601 246.9 300.201 242.9 300.401C241.1 300.601 239.2 300.701 237.4 300.801H236.8C236.1 300.801 237.3 300.801 236.7 300.801H235.6H233.9C233.4 300.801 232.9 300.801 232.4 300.801C231.2 300.701 230.2 301.601 230.1 302.801C230 303.501 230.3 304.101 230.8 304.601C231 304.901 230.5 304.101 230.6 304.301C230.7 304.501 230.9 304.701 231 304.901C231.1 305.101 231.1 305.201 231.2 305.301C231.5 305.801 231.1 305.001 231.3 305.401L231.6 306.401C231.7 307.301 231.6 308.101 231.3 308.901C230.8 310.101 230 311.201 228.9 312.101C228.6 312.401 228.3 312.601 227.9 312.901C228.2 312.801 227.5 313.201 227.9 312.901C227.6 313.001 227.3 313.201 227 313.301C226.9 313.301 226.4 313.501 226.8 313.401C227.2 313.301 226.6 313.401 226.5 313.501C226.1 313.601 225.8 313.701 225.4 313.701C225 313.701 224.6 313.801 224.3 313.801C224 313.801 224.6 313.801 224.1 313.801H223.4C222.4 313.801 221.5 313.701 220.5 313.601C216.3 313.101 212.1 312.301 208.1 311.001C204.1 309.901 200.2 308.601 196.4 307.101C194.4 306.401 192.3 305.601 190.4 304.801C189.2 304.401 187.9 304.901 187.5 306.101V306.201C187.3 307.501 188 308.801 189.3 309.201C195.2 311.701 201.2 313.901 207.3 315.701C211.9 317.101 216.7 318.101 221.5 318.501C225.6 318.801 229.7 318.501 232.8 315.501C235.2 313.201 237 310.001 236.5 306.601C236.3 304.801 235.5 303.101 234.3 301.701L232.7 305.501C238.9 305.501 245 305.001 251.1 304.101C254.8 303.501 258.8 302.901 262 300.801C265.2 298.701 265.3 294.701 262.6 292.101C260.8 290.501 258.8 289.301 256.6 288.501C253.7 287.301 250.7 286.401 247.8 285.401C244.2 284.301 240.6 283.101 237 281.901C235.5 281.501 234.1 280.901 232.7 280.201C231.8 279.701 230.9 279.101 230.3 278.301C229.9 277.801 229.5 277.201 229.3 276.501C229.2 276.301 229.2 276.101 229.1 275.901C229 275.501 229.1 276.101 229.1 275.701C229.1 275.201 229.1 274.801 229.1 274.301C229.1 273.901 229 274.601 229.1 274.301C229.1 274.201 229.1 274.101 229.2 274.001C229.3 273.801 229.3 273.601 229.3 273.401C229.4 273.001 229.7 272.301 229.7 272.201C230.1 271.401 230.6 270.601 231.1 269.901C233.2 267.001 236.5 265.001 240.1 264.601C239.7 264.601 240.6 264.601 240.7 264.601H241.8H244.3C245.9 264.601 247.5 264.701 249.1 264.701C252 264.801 254.9 264.501 257.7 263.801C260.2 263.101 262.4 261.501 263.8 259.301C264.7 258.001 265 256.401 264.6 254.901C263.7 252.301 261 250.601 258.6 249.401C255.1 247.701 251.5 246.501 247.7 245.701C238.8 243.601 229.3 242.801 220.3 244.601C216.3 245.301 212.5 246.901 209.3 249.301C206.2 251.701 204 255.401 202.2 258.801C197.6 267.401 194.7 276.801 192.2 286.201C190.5 292.701 189 299.301 187.8 305.901L187.6 306.901C187.4 308.201 188.1 309.501 189.4 309.901C190.1 310.001 191.7 309.601 191.9 308.301Z" fill="#0C41E2"/>
<path d="M205.1 442.1C205.1 442.1 159.3 272.7 116.5 274.2C73.7 275.7 9.89998 429.8 17 453.9" fill="#EDF1FE"/>
<path d="M206.4 443.9C206 442.4 205.6 441 205.2 439.5C204 435.4 202.9 431.4 201.6 427.4C199.9 421.5 198 415.7 196.2 409.9C193.9 402.7 191.5 395.5 189 388.4C186.2 380.4 183.2 372.4 180.2 364.4C177.1 356.3 173.8 348.3 170.3 340.3C166.8 332.3 163.1 324.5 159.1 316.9C155.5 309.9 151.5 303.2 147.1 296.7C143.5 291.2 139.3 286.1 134.7 281.5C131.1 278 127 274.8 122.3 273.2C118.2 271.8 113.7 271.8 109.5 273.2C104.3 274.9 99.7 278.2 95.6 281.7C90.4 286.3 85.6 291.4 81.3 296.9C76 303.2 71.2001 310 66.9001 317C62.1001 324.7 57.6 332.6 53.3 340.6C48.9 348.9 44.8 357.3 41 365.8C37.3 374 33.8 382.3 30.5 390.7C27.5 398.3 24.8 406 22.3 413.8C20.3 420.2 18.4 426.7 17.1 433.2C16 437.8 15.4 442.6 15.3 447.3C15.3 448.9 15.5 450.4 15.9 451.9C16.2 453 16.7 454 17.4 455C17.5 455.2 18.6 456.5 18.3 455.5C17.4 452.3 17.8 448.3 18.3 444.8C19.1 439.1 20.3 433.4 21.9 427.8C26.3 412.4 31.6 397.2 38 382.5C45.1 365.5 53.2 349 62.3 333C70.3 319 79.2 305.1 90.2 293.2C94.4 288.5 99.1 284.4 104.3 281C108.3 278.5 112.9 276.4 117.7 276.2C127.6 275.8 136 284.1 141.7 291.1C145.9 296.4 149.8 301.9 153.1 307.8C153.6 308.6 154 309.4 154.5 310.2C154.5 310.2 154.9 310.9 154.6 310.4L154.9 311C155.2 311.5 155.4 312 155.7 312.4C156.7 314.1 157.6 315.9 158.5 317.6C160.2 320.9 161.9 324.3 163.7 328C170.9 343 177.2 358.9 183 374.8C188 388.6 192.7 402.5 197 416.6C198.5 421.5 200 426.4 201.4 431.3C203.5 438.7 201.4 431.4 201.5 431.7C201.6 432 201.6 432.1 201.7 432.4L202.1 433.8C202.3 434.6 202.5 435.3 202.7 436.1L203.6 439.2C203.7 439.5 203.8 439.9 203.9 440.2C204.2 441.3 204.7 442.3 205.4 443.3C205.5 443.5 206.6 444.8 206.4 443.9Z" fill="#0C41E2"/>
<path d="M147.7 414.301C147.7 414.301 174.1 421.301 186.1 428.001C198.1 434.701 203.1 442.801 200.4 446.801C200.4 446.801 207.3 455.501 198.2 457.001C198.2 457.001 197.7 465.401 188.8 460.401C179.9 455.401 160.2 450.001 157.9 450.301C155.6 450.601 128.9 453.601 125.5 450.701C122.1 447.801 133.1 415.601 147.7 414.301Z" fill="#EDF1FE"/>
<path d="M146.3 415.8C152.8 417.5 159.2 419.5 165.6 421.7C175.6 425.1 186.5 428.8 194.1 436.4C195.9 438.1 197.4 440.1 198.3 442.4C198.6 443.1 198.7 443.9 198.8 444.7C198.8 445.4 198.6 446.1 198.2 446.7C197.9 447.1 197.9 447.5 198.2 447.9C199.1 449 199.8 450.3 200.2 451.6C200.5 452.5 200.6 453.5 200.3 454.4C200.2 454.7 200 455 199.7 455.1C199.1 455.4 198.5 455.6 197.8 455.7C197.1 455.8 195.8 456.5 195.7 457.3C195.7 457.5 195.7 457.8 195.6 458C195.6 458.2 195.5 458.5 195.4 458.7C195.4 458.8 195.3 459 195.3 459.1C195.3 459.1 195.4 459 195.2 459.3C195.1 459.6 194.9 459.9 194.7 460.1C194.7 460.1 194.8 459.9 194.6 460.2C194.5 460.3 194.5 460.3 194.4 460.4C194.3 460.5 194.5 460.2 194.5 460.4C194.4 460.5 194.4 460.5 194.3 460.5C194.8 460.4 194.5 460.4 194.4 460.4C194.3 460.5 194.3 460.4 194.4 460.4C194.6 460.1 194.5 460.5 194.4 460.4C194.4 460.4 194.9 460.3 194.6 460.4C194.5 460.4 194.1 460.4 194.4 460.4C194.7 460.4 193.9 460.4 193.8 460.3C191.5 459.9 189.1 458.1 186.9 457.1C184.1 455.8 181.4 454.8 178.6 453.8C173.6 452 168.4 450.5 163.2 449.3C161.6 448.8 160 448.6 158.4 448.6C157.5 448.6 156.5 448.8 155.6 448.9C151.4 449.3 147.1 449.7 142.8 450C138.5 450.4 134.2 450.4 129.9 450.1C129.5 450.1 129.1 450 128.8 449.9C128.5 449.8 129.1 450 128.7 449.9L128.1 449.8C127.9 449.7 127.3 449.5 127.7 449.7C127.6 449.7 127.5 449.6 127.5 449.6C127.6 449.9 127.2 449.4 127.5 449.6C127.4 449.2 127.5 449.8 127.4 449.5C127.3 449.3 127.3 449.1 127.2 448.9C127.2 448.7 127.1 448.4 127.1 448.2C127.1 448.1 127.1 448.4 127.1 448.1C127.1 447.8 127.1 447.7 127.1 447.6C127.5 443.9 128.4 440.3 129.9 436.8C131.6 432.4 133.8 428.1 136.6 424.2C137.9 422.4 139.3 420.7 141 419.2C141.7 418.5 142.4 418 143.2 417.4L143.8 417L144.3 416.7L144.8 416.5C145 416.4 145.3 416.3 145.5 416.2C146.1 416 145.3 416.2 145.8 416.1L146.4 415.9L147 415.8C146.4 415.9 147.2 415.8 147.4 415.8C148.4 415.7 150 415.2 150.1 414C150.2 412.8 148.8 412.5 148 412.6C137.8 413.6 131.1 423.9 127.1 432.4C125.1 436.5 123.6 440.9 122.7 445.4C122.2 447.9 121.7 451.2 124.6 452.4C126.2 452.9 127.8 453.2 129.5 453.3C131.9 453.4 134.4 453.4 136.9 453.3C141.9 453.2 146.9 452.8 151.8 452.3L156.6 451.8L157.2 451.7C157.3 451.7 157.9 451.6 157.4 451.7C156.9 451.8 157.6 451.7 157.8 451.8C158 451.9 158.5 451.9 158.8 452C159.1 452.1 158.5 451.9 159 452L159.7 452.1L161.3 452.5C162.5 452.8 163.8 453.1 165 453.5C167.9 454.3 170.8 455.2 173.7 456.2C176.7 457.2 179.7 458.3 182.6 459.6C185.2 460.7 187.7 462.5 190.4 463.2C194.9 464.4 199.5 462.3 200.4 457.6C200.5 457.3 200.5 457.1 200.5 456.8L198.4 458.4C202.1 457.7 205.8 455.4 205.1 451.2C204.7 449.2 203.8 447.4 202.5 445.8V447C204.7 443.6 202.6 439.5 200.4 436.7C196.7 431.9 191.4 428.4 186 425.7C176.7 421.1 166.6 417.9 156.7 414.9C154.1 414.1 151.6 413.4 149 412.7C147.8 412.4 146.5 412.7 145.6 413.6C145.1 414 145 414.7 145.4 415.2C145.6 415.6 145.9 415.8 146.3 415.8Z" fill="#0C41E2"/>
<path d="M169.9 440.401L170.6 440.601L170.9 440.701H171L172.1 441.001C174.2 441.601 176.2 442.101 178.1 442.801C179.5 443.301 180.3 443.601 181.7 444.101H181.8L182.3 444.301L183.3 444.701H183.4L183.9 444.901L184.8 445.301C187.2 446.401 189.4 447.801 191.4 449.501C193.6 451.101 195.1 453.401 195.8 456.001C195.9 456.501 197.6 457.001 198 457.201C198.2 457.301 200.4 458.001 200.4 457.901C199.2 452.201 192.9 448.701 188.2 446.201C182.3 443.301 176.2 441.101 169.9 439.501C168.6 439.101 167.2 438.801 165.9 438.501C164.9 438.301 166.5 439.201 166.6 439.201C167.7 439.801 168.8 440.201 169.9 440.401Z" fill="#0C41E2"/>
<path d="M177 431.501C177.8 431.701 176.4 431.301 177.1 431.501C177.8 431.701 178.3 431.901 178.9 432.201C180.8 433.001 182.7 433.801 184.5 434.801C190 437.601 194.7 441.801 198.1 446.901C198.9 447.801 200.1 448.301 201.3 448.201C202.1 448.201 203.2 447.801 202.6 446.801C197.5 438.901 188.9 433.401 180.2 430.001C179.3 429.701 178.4 429.401 177.6 429.101C176.9 428.901 175.2 428.601 174.9 429.601C174.6 430.601 176.4 431.301 177 431.501Z" fill="#0C41E2"/>
<path d="M114 227.1C126.6 219.7 135.3 207.2 137.8 192.9L138.8 187.5C145.5 197.9 149.9 206 153.7 211.9C156.6 216.5 162 217.2 165.4 217.4C180.3 218.2 183.5 222.2 179.1 225.2C174.1 228.6 160.3 231.8 160.3 231.8C160.3 231.8 169.2 253.2 147.6 267.4C136.6 274.6 136.2 277.1 138 280.9C139.8 284.7 141.9 289.3 141.9 289.3C141.9 289.3 144.1 299.4 125.2 300.3C104.2 301.3 102.2 284.4 102.2 284.4C102.2 284.4 107 282.5 107.4 278.5C107.8 274.5 106.7 266.2 106.7 266.2C106.7 266.2 126.6 265.7 112.5 227.2" fill="#EDF1FE"/>
<path d="M115 228.6C128.2 220.9 137.4 207.8 140.2 192.7C140.5 190.9 140.8 189.1 141.2 187.3L136.6 188.6C140.7 195.1 144.6 201.7 148.6 208.2C150.2 210.8 151.6 213.7 154 215.7C156.5 217.6 159.4 218.7 162.6 219C166 219.4 169.5 219.4 172.9 220.1C174.1 220.3 175.2 220.7 176.3 221.1C176.5 221.2 176.8 221.3 177 221.4C177.2 221.5 176.9 221.3 177.3 221.6C177.6 221.8 177.9 222 178.2 222.3C178.2 222.3 178.1 222.1 178.3 222.4C178.4 222.5 178.5 222.6 178.5 222.8C178.5 223 178.4 222.4 178.5 222.8C178.6 223.4 178.5 222.9 178.5 222.8V223.1C178.5 223.1 178.5 223.1 178.6 222.9C178.6 223 178.6 223 178.5 223.1C178.4 223.2 178.3 223.4 178.2 223.5C178.1 223.6 178.6 223.2 178.1 223.6C178 223.7 177.9 223.8 177.7 223.9C177.5 224 177.3 224.2 177.1 224.3C177.5 224.1 176.7 224.5 176.6 224.6C175.5 225.2 174.3 225.7 173.1 226.2C168.8 227.8 164.4 229.2 159.9 230.2C159 230.4 157.5 231.5 157.9 232.6C162.3 243.7 158.9 256.3 149.6 263.8C146.7 266.2 143.3 268.1 140.4 270.4C138.4 271.8 136.8 273.6 135.5 275.7C134.8 277.1 134.6 278.7 135.1 280.2C135.4 281.1 135.8 282 136.2 282.8L138.5 287.8C138.9 288.7 139.3 289.6 139.6 290.4C139.7 290.5 139.6 289.9 139.6 290.4V290.9C139.6 291.3 139.5 291.8 139.4 292.2C139.5 291.8 139.3 292.5 139.4 292.2C139.4 292.3 139.3 292.5 139.3 292.6C139.3 292.7 139.1 293.1 138.9 293.4C138.9 293.5 138.6 293.9 138.8 293.7C139 293.5 138.7 293.9 138.6 294C138.4 294.3 138.1 294.6 137.9 294.9C137.7 295.2 138.1 294.7 137.8 295C137.6 295.1 137.5 295.3 137.3 295.4L136.8 295.8C136.7 295.9 136.1 296.3 136.5 296C136 296.3 135.6 296.5 135.1 296.7C134.7 296.9 134.2 297.1 133.7 297.2C127.9 299.1 121.7 299.1 115.9 297.3C112.2 296 109.1 293.5 107.1 290.1C106.9 289.8 106.7 289.4 106.5 289.1C106.4 288.9 106.3 288.6 106.2 288.4C105.9 287.8 105.7 287.2 105.5 286.6C105.2 285.8 105.1 285 104.9 284.2C104.9 284.1 104.9 284 104.8 283.8L103.5 285.9C107.3 284.4 110.1 281.1 110.2 277C110.2 273.1 110 269.3 109.4 265.5L106.8 268C109.6 267.8 112.3 266.7 114.5 264.9C119.6 260.7 120.7 253.7 120.3 247.5C119.8 240.3 117.8 233.3 115.3 226.6C114.5 224.4 109.7 225.7 110.5 227.9C112.8 233.8 114.4 239.9 115.2 246.1C115.5 248.2 115.5 250.2 115.4 252.3C115.4 253.1 115.3 253.9 115.2 254.6C115.1 255 115.1 255.4 115 255.8C115 256 114.9 256.2 114.9 256.3C114.9 256.4 114.7 257.1 114.8 256.7C114.4 258 113.9 259.2 113.3 260.3C113.1 260.8 113.5 260.1 113.1 260.7C112.9 260.9 112.8 261.1 112.6 261.3L112.1 261.9C112 262 111.3 262.7 111.9 262.2C111.6 262.5 111.2 262.8 110.9 263C110.7 263.1 110.6 263.2 110.4 263.4C110.2 263.6 110.7 263.2 110.7 263.2L110.4 263.4C110.1 263.6 109.7 263.7 109.4 263.9C109.2 264 109.1 264 108.9 264.1C109.6 263.9 109 264.1 108.9 264.1L108 264.3L107.6 264.4C107.2 264.5 108.4 264.3 107.9 264.4C107.7 264.4 107.5 264.5 107.3 264.5C106 264.5 104.5 265.6 104.7 267C105.2 270.2 105.4 273.4 105.5 276.7C105.5 278.5 105.4 280.2 104.1 281.5C103.8 281.8 103.4 282 103.1 282.3L102.8 282.5L102.6 282.6C102.3 282.8 101.9 283 101.6 283.1C100.7 283.4 100.2 284.3 100.3 285.2C101 290.8 105 296.2 109.8 299C115.4 302.2 122.1 302.8 128.4 302.1C133.5 301.5 139.6 300.1 142.9 295.8C144.3 294 145.3 291.4 144.8 289.1C144.4 287.9 143.9 286.7 143.3 285.6C142.2 283.3 140.7 280.9 140.2 278.4C140.2 278.3 140.1 277.8 140.1 278.1C140.1 278.4 140.1 277.9 140.1 277.8C140.1 277.7 140.1 277.5 140.2 277.3C140.3 277.1 140.2 277.1 140.2 277C140.3 276.8 140.1 277.4 140.2 277C140.3 276.7 140.5 276.3 140.7 276C140.5 276.3 140.7 276 140.8 275.9C140.9 275.8 141.2 275.4 141.4 275.2C143.6 273 146 271 148.7 269.4C154.6 265.5 159.7 260.7 162.6 254.2C164.5 249.7 165.4 244.9 165 240C164.9 237.2 164.4 234.4 163.4 231.7C163.3 231.6 163.3 231.4 163.3 231.3L161.4 233.7C165.6 232.7 169.7 231.5 173.7 230.1C176.4 229.2 179.1 228 181.5 226.4C182.9 225.4 184.2 223.8 183.9 222C183.6 220.2 181.9 219.1 180.4 218.4C177.6 217.2 174.6 216.5 171.6 216.2C168.4 215.8 165 216 161.9 215.1C160.4 214.7 159.1 213.9 157.9 212.9C156.9 211.8 156 210.5 155.2 209.2C150.6 201.8 146.3 194.1 141.5 186.8C140.4 185.1 137.1 186.3 136.8 188.1C136.2 192.7 135.1 197.3 133.6 201.8C131.2 208.3 127.3 214.3 122.4 219.2C119.7 221.9 116.7 224.2 113.4 226.1C112.5 226.6 111.6 227.6 112.3 228.7C113 229.8 114.7 229.6 115.6 229.1L115 228.6Z" fill="#0C41E2"/>
<path d="M144 212.701C144 212.701 141.4 213.901 142.8 216.301C144.2 218.701 147.1 217.001 146.6 214.601C146.5 213.401 145.5 212.601 144.3 212.701C144.2 212.701 144.1 212.701 144 212.701Z" fill="#0C41E2"/>
<path d="M142.5 236.9C145.1 240.8 149.7 243.9 154.4 243.7C157.2 243.6 160 242.9 162.5 241.7C163.2 241.4 161.9 241.6 161.8 241.6C160.9 241.7 160.1 241.9 159.3 242.3C159 242.4 158.7 242.6 158.4 242.7L158 242.8L158.2 242.7C158.2 242.6 158.5 242.7 158 242.7C157.8 242.7 157.6 242.7 157.5 242.7C156.5 242.7 155.6 242.6 154.7 242.4C153 241.9 151.4 241.2 150.1 240.1C148.6 239 147.2 237.6 146.2 236C146 235.7 144.6 236.2 144.3 236.2C143.7 236.4 143.1 236.6 142.5 236.9Z" fill="#0C41E2"/>
<path d="M138.8 187.5C138.8 187.5 127.7 157.7 86.0001 171.4C44.3001 185.1 31.7001 254.8 46.0001 271.3C51.9001 278.1 22.9001 297.8 43.3001 324.5C63.7001 351.2 134.3 321.3 102.2 284.2C102.2 284.2 123.8 283.8 111 263.5C111 263.5 133.5 258.5 120.1 239.8C120.1 239.8 134.4 231.5 124.8 220.4C124.9 220.4 141.4 210.8 138.8 187.5Z" fill="#0C41E2"/>
<path d="M67.3001 335.3C56.7001 335.3 48.1001 331.6 42.9001 324.8C29.3001 307 37.4001 292.2 42.7001 282.4C45.4001 277.5 47.4001 273.7 45.6001 271.6C38.8001 263.8 37.9001 244.1 43.5001 223.7C50.8001 197 66.7001 177.2 85.8001 171C127.4 157.3 139 187 139.2 187.3V187.4C140.6 199.6 136.7 208.1 133.2 213C131.1 216 128.6 218.5 125.6 220.6C128.1 223.6 129 226.7 128.5 229.8C127.6 235.2 122.4 239 120.8 240C124.6 245.5 125.7 250.3 124.2 254.5C121.8 260.7 114.1 263.3 111.8 263.9C115.6 270.2 116.5 275.2 114.5 278.9C112 283.5 105.7 284.5 103.2 284.8C110.5 293.6 112.7 302.7 109.5 311.3C105.2 322.8 90.9001 332.5 74.7001 334.9C72.3001 335.2 69.8001 335.3 67.3001 335.3ZM106.1 168.3C99.3001 168.4 92.5001 169.6 86.1001 171.9C67.2001 178.1 51.6001 197.6 44.4001 224C38.9001 244 39.7001 263.3 46.3001 271C48.6001 273.6 46.3001 277.7 43.5001 282.9C38.3001 292.5 30.4001 306.9 43.6001 324.3C49.7001 332.3 61.2001 335.8 74.6001 333.8C90.5001 331.4 104.4 322 108.6 310.8C111.7 302.4 109.4 293.3 101.8 284.6C101.7 284.4 101.7 284.2 101.7 284.1C101.8 283.9 101.9 283.8 102.1 283.8C102.2 283.8 110.8 283.6 113.6 278.4C115.5 275 114.4 270.1 110.5 263.9C110.4 263.7 110.4 263.4 110.6 263.2C110.7 263.2 110.7 263.1 110.8 263.1C110.9 263.1 120.6 260.8 123.2 254.1C124.7 250.2 123.5 245.5 119.6 240.1C119.5 240 119.5 239.8 119.5 239.7C119.5 239.6 119.6 239.4 119.7 239.4C119.8 239.4 126.4 235.4 127.4 229.6C127.9 226.6 126.8 223.7 124.3 220.8C124.2 220.7 124.2 220.5 124.2 220.4C124.2 220.3 124.3 220.1 124.4 220C127.5 218 130.1 215.4 132.2 212.4C135.6 207.6 139.3 199.5 138 187.6C137.8 186.4 130.1 168.4 106.1 168.3Z" fill="#0C41E2"/>
<path d="M78.5 398.601C97.3 396.201 116.4 399.001 133.8 406.701C134.7 407.101 136.1 407.801 137.2 407.401C138.3 407.001 137.1 406.401 136.6 406.201C121.5 399.401 105.1 395.801 88.5 395.801C83.8 395.801 79.2 396.101 74.6 396.701C73.5 396.801 74.8 397.801 75.2 397.901C76.1 398.401 77.3 398.701 78.5 398.601Z" fill="#0C41E2"/>
<path d="M186.4 308.601C183 318.001 179 327.201 174.4 336.101C174.3 336.301 176.7 336.701 176.9 336.701C177.3 336.701 179.2 337.101 179.4 336.601C184 327.701 188 318.501 191.4 309.101C191.3 309.001 186.7 307.801 186.4 308.601Z" fill="#0C41E2"/>
<path d="M317.8 248.3V236C317.8 235.7 317.2 235.5 317 235.4C316.4 235.3 315.8 235.2 315.2 235.3C314.6 235.4 312.8 235.5 312.8 236.4V248.7C312.8 249 313.4 249.2 313.6 249.3C314.2 249.4 314.8 249.5 315.4 249.4C315.9 249.3 317.8 249.1 317.8 248.3Z" fill="#0C41E2"/>
<path d="M330.5 251.2C331.2 249.8 332 248.5 332.8 247.3L332.6 247.6C333.9 245.9 335.3 244.3 337 242.9C337.8 242.2 336.4 241.2 335.9 240.9C335.3 240.6 334.7 240.4 334 240.3C333.5 240.2 333.1 240.3 332.7 240.6C329.8 243.1 327.5 246.1 325.8 249.5C325.6 249.9 326 250.3 326.2 250.6C326.6 251 327.2 251.3 327.7 251.5C328.5 251.7 330.1 252.1 330.5 251.2Z" fill="#0C41E2"/>
<path d="M338.6 257H344.1C344.7 257 345.3 256.9 345.9 256.7C346.2 256.6 346.7 256.3 346.6 255.9C346.5 255.5 346.3 255.2 345.9 255.1C345.3 254.9 344.7 254.7 344.1 254.7H338.6C338 254.7 337.4 254.8 336.8 255C336.5 255.1 336 255.4 336.1 255.8C336.2 256.2 336.5 256.5 336.8 256.6C337.4 256.9 338 257 338.6 257Z" fill="#0C41E2"/>
</svg>
