<svg width="500" height="500" viewBox="0 0 500 500" fill="none" xmlns="http://www.w3.org/2000/svg">
<path fill-rule="evenodd" clip-rule="evenodd" d="M285.73 0.185598C352.425 3.54825 401.118 54.5884 442.75 102.287C478.844 143.642 499.364 192.788 499.985 245.667C500.613 299.206 481.939 349.74 446.149 392.152C404.075 442.011 354.451 494.641 285.73 499.566C213.758 504.725 149.713 463.088 97.9821 417.106C45.4081 370.373 -2.40515 312.625 0.0937994 245.667C2.53871 180.157 58.0838 130.453 110.357 85.5286C160.502 42.4328 216.973 -3.28101 285.73 0.185598Z" fill="#EDF1FE"/>
<path d="M165.461 362H86.3916V457.2H165.461V362Z" fill="#EDF1FE"/>
<path d="M163.814 456.7H84.7443L88.8141 457.7V363.9C88.911 363.5 88.911 363 88.8141 362.6C88.8141 362.6 88.8141 362.5 88.8141 362.4L88.0389 362.5H167.109L163.039 361.5V455.2C162.942 455.6 162.942 456.1 163.039 456.5C163.039 456.5 163.039 456.6 163.039 456.7C163.039 457.5 167.787 457.8 167.787 457.5V363.8C167.787 363.4 167.787 362.9 167.787 362.5C167.787 362.4 167.787 362.4 167.787 362.3C167.787 361.6 164.299 361.3 163.717 361.3H84.7443C84.7443 361.3 83.9692 361.3 83.9692 361.4V455.1C83.8723 455.5 83.8723 456 83.9692 456.4C83.9692 456.4 83.9692 456.5 83.9692 456.6C83.9692 457.3 87.5544 457.6 88.0389 457.6H167.109C167.981 457.6 167.981 457.4 167.206 457.1C166.14 456.8 164.977 456.7 163.814 456.7Z" fill="#6A90FF"/>
<path d="M448.31 455.6H67.4962C62.3606 455.6 57.2249 455.5 52.0892 455.6H51.411C48.2133 455.6 49.6668 459.7 52.283 459.7H433.097C438.233 459.7 443.368 459.8 448.504 459.7H449.182C452.283 459.7 450.83 455.6 448.31 455.6Z" fill="#6A90FF"/>
<path d="M288.33 313.6H209.26V457H288.33V313.6Z" fill="#EDF1FE"/>
<path d="M287.651 454.7H208.582L211.198 457.6V320.1C211.295 318.2 211.295 316.3 211.198 314.5C211.198 314.4 211.198 314.3 211.198 314.3L209.938 315.8H289.008L286.392 312.9V450.4C286.392 452.3 286.295 454.2 286.392 456V456.3C286.392 458.4 290.268 460.6 290.268 457.6V320.1C290.268 318.2 290.364 316.3 290.268 314.5C290.268 314.4 290.268 314.3 290.268 314.3C290.074 312.8 289.008 311.7 287.651 311.4H208.582C207.613 311.4 207.322 312.1 207.322 312.9V450.4C207.322 452.3 207.225 454.2 207.322 456V456.3C207.516 457.8 208.582 458.9 209.938 459.2H289.008C291.624 459.1 289.589 454.7 287.651 454.7Z" fill="#6A90FF"/>
<path d="M417.109 258.7H338.039V457H417.109V258.7Z" fill="#6A90FF"/>
<path d="M416.527 454.6H337.457L340.074 457.4V267.1C340.074 264.5 340.268 261.9 340.074 259.4C340.074 259.3 340.074 259.2 340.074 259.1L338.523 261.2H417.593L414.977 258.4V448.6C414.977 451.2 414.88 453.8 414.977 456.3V456.6C414.977 457.9 415.849 459.1 417.109 459.4C418.175 459.5 419.047 458.8 419.24 457.7C419.24 457.6 419.24 457.5 419.24 457.3V267.1C419.24 264.5 419.337 261.9 419.24 259.4V259C419.24 257.5 418.078 256.3 416.624 256.2C416.624 256.2 416.624 256.2 416.527 256.2H337.457C336.488 256.2 335.907 257.4 335.907 258.3V448.6C335.907 451.2 335.81 453.8 335.907 456.3V456.6C335.907 458.1 337.07 459.3 338.426 459.4C338.426 459.4 338.426 459.4 338.523 459.4H417.593C418.853 459.4 419.337 457.7 419.047 456.7C418.853 455.5 417.787 454.6 416.527 454.6Z" fill="#6A90FF"/>
<path d="M210.713 337.2L254.996 315.1C255.287 315 257.128 314 256.934 313.5C256.74 313 254.706 314.1 254.609 314.2L210.326 336.3C210.035 336.4 208.194 337.4 208.388 337.9C208.582 338.4 210.52 337.3 210.713 337.2Z" fill="#6A90FF"/>
<path d="M214.299 357.6C223.019 351.3 233.097 347.5 242.787 343.2C253.155 338.6 263.33 333.6 273.31 328.2C278.736 325.3 284.066 322.2 289.299 319C290.364 318.4 289.88 316.9 289.105 316.3C288.136 315.5 286.779 315.4 285.713 316C276.314 321.7 266.721 327 256.837 331.9C246.663 336.9 236.198 341.2 226.023 346C220.694 348.4 215.558 351.3 210.713 354.6C210.035 355.2 209.938 356.3 210.519 357C210.616 357.1 210.713 357.2 210.907 357.3C211.876 358.2 213.233 358.3 214.299 357.6Z" fill="#6A90FF"/>
<path d="M214.977 386.6C233 374.4 253.446 366.6 272.729 356.8C278.058 354.1 283.388 351.2 288.523 348.1C289.492 347.5 289.008 346.2 288.329 345.6C287.36 344.8 286.101 344.7 284.938 345.3C266.333 356.8 245.791 364.5 226.605 374.8C221.372 377.5 216.333 380.5 211.488 383.8C210.519 384.4 210.907 385.7 211.682 386.3C212.554 387.1 213.911 387.2 214.977 386.6Z" fill="#6A90FF"/>
<path d="M210.52 413.1C231.353 403 252.089 392.5 272.632 381.8C278.349 378.8 284.066 375.8 289.686 372.8C292.496 371.3 289.977 367.4 287.361 368.8C267.012 379.7 246.469 390.2 225.83 400.5C219.919 403.4 214.105 406.3 208.194 409.2C205.384 410.5 207.903 414.4 210.52 413.1Z" fill="#6A90FF"/>
<path d="M213.717 439C233.581 431 252.961 421.9 271.857 411.7C276.895 409 281.934 406.1 286.973 403.2C287.361 403 288.426 402.5 287.554 402.3C286.682 402.1 285.132 403.1 284.454 403.4C266.818 413.6 248.698 422.8 230.093 431C224.57 433.4 218.95 435.8 213.426 438.1C213.136 438.2 211.198 439 211.392 439.5C211.585 440 213.523 439.1 213.717 439Z" fill="#6A90FF"/>
<path d="M234.26 458.6C251.896 453.7 269.144 447.3 285.713 439.3C286.779 438.8 287.361 437.5 286.876 436.3C286.295 435.1 284.841 435.2 283.872 435.7C267.69 443.5 250.83 449.8 233.582 454.5C232.419 454.8 231.547 455.9 231.644 457.2C231.934 458.3 233 458.9 233.969 458.7C234.163 458.7 234.26 458.7 234.26 458.6Z" fill="#6A90FF"/>
<path d="M353.833 103.9C353.833 103.9 370.403 89.2997 378.349 91.7997C386.295 94.2997 384.066 103.1 384.066 103.1C384.066 103.1 391.818 105.6 385.132 113.9C385.132 113.9 389.88 117.7 384.453 122.6C381.546 125.5 377.186 126.2 373.601 124.3C373.601 124.3 368.465 130.8 361.876 129.9L355.287 128.9L353.833 103.9Z" fill="white"/>
<path d="M355.287 105.9C358.872 102.8 362.651 99.9997 366.818 97.5997C369.531 95.9997 372.535 94.4997 375.635 93.9997C376.895 93.6997 378.155 93.8997 379.318 94.3997C379.996 94.6997 380.577 95.0997 381.159 95.5997C381.546 95.9997 381.837 96.3997 382.031 96.8997C382.031 96.8997 382.322 97.5997 382.128 97.1997C381.934 96.7997 382.225 97.4997 382.225 97.5997C382.225 97.6997 382.418 98.7997 382.418 98.2997C382.515 98.9997 382.515 99.5997 382.515 100.3C382.515 100.4 382.515 100.7 382.515 100.2C382.515 100.3 382.515 100.5 382.515 100.6C382.515 100.7 382.418 101.1 382.418 101.3C382.418 101.5 382.322 101.7 382.322 101.8C382.128 103.3 382.903 104.7 384.26 105.2C384.55 105.3 383.678 104.9 384.066 105.1L384.647 105.4L385.035 105.7C385.325 105.9 384.744 105.4 385.132 105.8C385.325 105.9 385.422 106.1 385.616 106.2C385.035 105.7 385.616 106.3 385.713 106.3L385.907 106.5C385.713 106.2 385.713 106.1 385.81 106.4C385.907 106.7 385.907 106.6 385.907 106.7C385.81 106.4 385.81 106.3 385.907 106.6C386.101 107.2 385.907 106.6 386.004 107C386.004 107.1 386.004 107.3 386.004 107.4C385.616 109 384.938 110.5 383.775 111.7C383 112.9 383.291 114.6 384.356 115.5C384.453 115.5 384.453 115.6 384.55 115.6C385.035 116 384.453 115.4 384.647 115.6C384.841 115.8 385.035 116 385.132 116.3C384.744 115.6 385.422 117.1 385.132 116.4C385.325 116.8 385.325 116.6 385.229 117.1C385.229 117.4 385.132 117.6 385.035 117.9C384.453 119.1 383.678 120.1 382.612 120.9C380.965 122.3 378.736 122.9 376.604 122.7C376.217 122.6 375.829 122.6 375.442 122.5C375.248 122.5 374.473 122.2 374.86 122.3C374.57 122.2 374.376 122.1 374.085 122C373.504 121.6 372.729 121.7 372.244 122.2C370.209 124.9 367.205 126.7 363.911 127.3C361.488 127.6 359.066 126.9 356.643 126.5L355.287 126.3L357.322 129.1L355.965 107.2L355.771 104C355.771 102.7 354.899 101.6 353.736 101.2C352.573 101 351.895 102 351.895 103.1L353.252 125L353.446 128.1C353.542 129.2 354.318 130.7 355.48 130.9L356.934 131.1C359.647 131.5 362.554 132.3 365.267 131.9C369.046 131.2 372.535 129.1 374.957 126L373.116 126.2C377.477 128.7 382.903 127.2 386.294 123.8C388.426 121.8 389.298 118.8 388.523 116C388.039 114.4 387.167 112.9 385.907 111.8L386.488 115.6C389.008 112.3 390.849 108.1 388.523 104.2C387.457 102.4 385.81 101.1 383.872 100.5L385.907 103.9C387.457 97.4997 383.872 89.9997 377.186 88.9997C373.794 88.4997 370.209 89.8997 367.205 91.3997C363.814 93.0997 360.616 95.1997 357.612 97.4997C355.771 98.7997 354.027 100.2 352.283 101.7C350.539 103.2 353.349 107.6 355.287 105.9Z" fill="#0C41E2"/>
<path d="M381.74 102.8C381.74 103 381.643 103.1 381.643 103.3L381.546 103.5C381.546 103.6 381.837 102.8 381.643 103.3C381.546 103.5 381.449 103.7 381.353 103.9C381.256 104.1 380.674 104.8 381.256 104.1C381.062 104.3 380.868 104.5 380.674 104.8L380.48 105C380.965 104.5 380.868 104.7 380.771 104.8L380.384 105.1L380.19 105.2C379.996 105.3 379.899 105.2 380.384 105.1C380.19 105.1 380.093 105.2 379.899 105.3L379.705 105.4C379.318 105.5 380.384 105.3 379.899 105.4L379.318 105.5C379.124 105.5 378.446 105.4 379.221 105.5C378.93 105.5 378.736 105.5 378.446 105.4C378.155 105.3 377.961 105.3 377.767 105.3H377.67C377.477 105.2 377.477 105.2 377.67 105.3H377.767C377.67 105.3 377.573 105.2 377.477 105.2C376.992 105 376.508 104.8 376.023 104.6C376.508 104.8 376.314 104.8 376.12 104.6C376.023 104.6 376.023 104.5 375.926 104.5C375.732 104.4 375.636 104.3 375.442 104.2L375.151 104C375.635 104.4 375.442 104.3 375.345 104.1C375.248 103.9 375.054 103.8 374.957 103.6C374.957 103.5 374.86 103.5 374.86 103.4C375.248 103.8 375.054 103.8 374.957 103.6C374.86 103.4 374.86 103.3 374.763 103.2C374.667 103.1 374.666 102.9 374.666 102.8C374.86 103.3 374.763 103.3 374.763 103.1C374.763 102.9 374.763 102.9 374.666 102.8C374.57 102.7 374.666 102.5 374.666 102.3C374.666 102.1 374.666 102.6 374.666 102.6C374.666 102.5 374.666 102.4 374.666 102.3C374.666 102.1 374.763 102 374.763 101.8C374.763 101.7 374.763 101.7 374.763 101.6C374.667 102.2 374.57 102 374.763 101.7C374.86 101.5 374.957 101.4 375.054 101.2L375.151 101C375.345 100.7 374.763 101.5 375.054 101.2C375.151 101.1 375.248 100.9 375.442 100.8L375.635 100.6C375.926 100.3 375.151 101 375.539 100.7C376.508 100.2 376.798 98.9998 376.314 97.9998C376.217 97.8998 376.217 97.7998 376.12 97.6998C375.248 96.6998 373.794 96.4998 372.729 97.2998C370.984 98.4998 369.918 100.5 369.822 102.6C369.822 104.7 370.887 106.6 372.535 107.8C373.698 108.6 375.054 109.2 376.411 109.6C377.573 109.9 378.833 110 380.093 109.9C382.225 109.6 384.163 108.5 385.325 106.7C385.907 105.9 386.294 104.9 386.488 104C386.682 102.8 385.81 101.7 384.647 101.5H384.55C383.484 100.9 382.031 101.5 381.74 102.8Z" fill="#0C41E2"/>
<path d="M384.26 112.2C383.969 112.4 383.581 112.5 383.291 112.7L382.806 112.9L382.515 113C382.128 113.2 383.097 112.7 382.709 112.9C382.322 113.1 381.837 113.2 381.353 113.4C380.868 113.6 380.384 113.7 379.802 113.9C379.512 113.9 379.318 114 379.027 114.1C379.608 113.9 379.415 114 379.124 114.1L378.639 114.2H377.864C377.767 114.2 377.67 114.2 377.477 114.2C377.283 114.2 377.864 114.2 377.767 114.2C377.671 114.2 377.574 114.2 377.477 114.2C377.283 114.2 376.992 114.1 376.798 114.1C376.411 114 376.798 114 376.895 114.2C376.798 114.1 376.605 114.1 376.508 114L376.12 113.8C376.508 114.1 375.733 113.6 376.12 113.8C376.023 113.7 375.926 113.6 375.829 113.5L375.733 113.4C375.539 113.2 375.829 113.4 375.829 113.5C375.733 113.2 375.539 113 375.442 112.8C375.442 112.7 375.345 112.7 375.345 112.6C375.248 112.3 375.442 112.9 375.345 112.7C375.248 112.5 375.248 112.3 375.248 112.1C374.764 109.4 370.209 111 370.694 113.5C370.984 115 371.76 116.4 373.019 117.3C374.279 118.1 375.733 118.4 377.186 118.4C379.705 118.2 382.225 117.6 384.55 116.4C385.035 116.2 385.519 115.9 386.004 115.7C386.876 115.2 387.845 113.9 387.264 112.8C386.585 111.8 385.229 111.5 384.26 112.2Z" fill="#0C41E2"/>
<path d="M353.833 103.9C353.833 103.9 292.593 115.6 278.058 116.5C263.523 117.4 280.384 122.7 280.384 122.7L267.98 156L356.934 132L353.833 103.9Z" fill="white"/>
<path d="M352.089 103.9C345.888 105.1 339.589 106.3 333.291 107.4C321.372 109.6 309.357 111.7 297.341 113.7C294.628 114.1 291.818 114.6 289.105 115C287.942 115.2 286.682 115.3 285.519 115.5C285.422 115.5 285.035 115.6 285.519 115.5L285.132 115.6L284.26 115.7L282.612 115.9L281.159 116.1L280.481 116.2C279.802 116.3 280.868 116.2 280.19 116.2L279.124 116.3H278.833H278.543C276.411 116.4 274.182 116.7 272.05 117.1C271.372 117.3 270.015 117.5 269.628 118.2C268.659 120.2 276.023 122.5 277.283 122.9C277.38 122.9 277.767 123 277.767 123.1C277.767 123.2 277.671 123 277.671 123.1C277.574 123.5 277.477 123.8 277.283 124.1L275.442 129L265.752 155.7L265.558 156.3C266.14 156.4 266.721 156.4 267.399 156.4C268.271 156.4 269.24 156.2 270.112 156L278.93 153.6L300.248 147.8L325.926 140.9L348.213 134.9C351.798 133.9 355.481 133.2 358.969 132H359.163C359.26 132 359.357 131.9 359.453 131.8L356.74 107.2L356.353 103.7C356.353 103.3 351.508 103.8 351.508 104.1L354.221 128.7L354.609 132.2L354.899 132L346.081 134.4L324.764 140.1L299.085 147L276.798 153C273.213 154 269.531 154.9 266.043 155.9H265.849L270.306 155.6L281.256 126.4L282.806 122.3L282.709 122.2C280.771 121.6 278.833 120.8 276.992 119.9C276.217 119.5 274.86 118.9 274.57 118C274.279 117.1 275.926 116.7 276.508 116.6C279.221 116.2 282.031 116.1 284.744 115.8C288.233 115.4 291.721 114.8 295.209 114.3C311.295 111.8 327.38 108.9 343.465 105.9C347.438 105.2 351.508 104.4 355.481 103.7C356.256 103.5 356.256 103.4 355.481 103.3C354.415 103.5 353.252 103.7 352.089 103.9Z" fill="#0C41E2"/>
<path d="M192.205 144.2C192.205 144.2 123.019 178.9 95.3062 183.6L104.996 219C104.996 219 180.771 197.2 205.771 179.4L201.798 212.3L163.426 224.8L174.667 263.2C174.667 263.2 233.872 237.3 235.326 230.9C236.779 224.5 238.136 185.2 238.136 185.2L188.233 143.3" fill="#0C41E2"/>
<path d="M191.624 142.8C183.388 146.9 175.054 150.9 166.624 154.8C150.829 162.1 134.55 169.4 118.465 175.2C114.298 176.7 110.132 178.1 105.965 179.4C104.124 180 102.283 180.5 100.442 180.9C99.5697 181.1 98.7945 181.3 97.9224 181.5L96.7596 181.7L96.1782 181.8C96.7596 181.7 95.9844 181.8 95.8875 181.9C94.6278 182.1 92.6898 183 93.0774 184.7L101.508 215.7L102.767 220.1C102.961 220.9 104.415 220.9 104.996 220.7C114.105 218.1 123.213 215.2 132.322 212.2C149.86 206.4 167.302 200.3 184.163 192.8C192.012 189.3 199.86 185.6 206.934 180.6L203.446 180.2L199.957 209L199.473 213.1L201.798 210.8L168.271 221.8L163.523 223.4C162.457 223.7 160.907 224.7 161.294 226.1L171.178 259.7L172.535 264.5C172.826 265.6 174.667 265.1 175.345 264.9C178.543 263.5 181.74 262.1 184.938 260.6C192.012 257.4 198.988 254.1 205.965 250.7C213.136 247.2 220.403 243.6 227.283 239.5C229.608 238.2 231.934 236.7 234.066 235C235.422 233.9 237.167 232.5 237.651 230.6C238.136 227.7 238.523 224.8 238.62 221.9C238.911 217.6 239.201 213.3 239.395 209C239.783 201.5 240.074 194 240.364 186.6C240.364 185.5 240.655 184.5 239.783 183.8C238.62 182.7 237.263 181.7 236.101 180.7L220.5 167.6L202.089 152.2L190.752 142.7L190.17 142.2C188.717 141 184.55 143.5 186.294 145L203.252 159.2L230.093 181.7L236.198 186.9L235.907 186.2C235.616 193.5 235.325 200.7 234.938 208C234.647 213.2 234.357 218.5 233.969 223.8C233.872 225.7 233.678 227.6 233.484 229.5C233.484 229.8 233.388 230.2 233.388 230.5C233.388 230.8 233.194 231.5 233.291 231.1C233.194 231.3 233.194 231.5 233.194 231.6C233.291 231.1 233.194 232 233.194 231.6C233.097 231.9 232.612 232.2 233.194 231.7C233 231.9 232.903 232.1 232.709 232.2L232.128 232.7C231.74 233 232.322 232.6 232.225 232.6L231.837 232.9C230.674 233.8 229.415 234.7 228.155 235.5C227.38 236 226.605 236.5 225.829 237L224.667 237.7C225.248 237.4 224.473 237.8 224.376 237.9L223.698 238.3C221.663 239.4 219.725 240.5 217.69 241.6C208.872 246.2 199.86 250.5 190.849 254.7C187.263 256.3 183.775 257.9 180.19 259.6C178.349 260.4 176.411 261.1 174.667 262.1L174.376 262.2L177.186 262.6L167.302 229L165.946 224.2L163.717 226.9L197.244 216L202.089 214.4C203.252 214.2 204.124 213.3 204.415 212.2L207.903 183.4L208.388 179.3C208.581 177.5 205.577 178.4 204.899 178.9C203.543 179.8 202.186 180.7 200.829 181.5L199.763 182.2L199.57 182.3L198.891 182C198.019 182.5 197.147 183 196.275 183.5C192.787 185.4 189.105 187.1 185.519 188.8C177.186 192.6 168.659 196 160.035 199.2C145.209 204.7 129.802 209.8 114.589 214.5C111.488 215.5 108.291 216.4 105.093 217.3L107.322 217.9L98.8914 186.9L97.7286 182.5L94.9185 185.3C101.992 183.9 108.872 182 115.655 179.5C124.085 176.5 132.419 173.2 140.655 169.7C155.287 163.5 169.822 156.8 184.163 149.9C187.167 148.5 190.074 147 193.077 145.5C193.853 145.1 195.112 144.1 194.628 143.1C194.143 142.1 192.399 142.4 191.624 142.8Z" fill="#0C41E2"/>
<path d="M367.884 97.7998C367.884 97.7998 377.186 103 377.186 109.6C377.186 116.2 372.341 115.4 369.24 113.2C369.24 113.2 369.24 118.8 364.977 120.3" fill="white"/>
<path d="M365.849 98.9998C369.046 100.8 372.244 103.4 373.988 106.7C374.57 107.8 374.957 109 374.957 110.3C374.957 111.1 374.86 111.9 374.667 112.7C374.57 113 374.279 113.6 374.182 113.8C374.085 114 373.988 114 374.182 113.8C374.376 113.7 374.473 113.6 374.667 113.6C374.86 113.5 374.957 113.5 375.151 113.4C374.957 113.4 374.957 113.4 375.151 113.4C374.763 113.3 374.57 113.4 374.085 113.3C373.116 113.1 372.147 112.6 371.275 112C370.694 111.6 369.434 112 368.853 112.3C368.271 112.6 367.012 113.2 367.012 113.9C367.012 114.7 366.915 115.5 366.624 116.3C366.43 117 366.236 117.6 365.849 118.2C365.655 118.5 365.461 118.8 365.17 119.1C364.977 119.3 364.686 119.3 365.17 119.2C364.492 119.5 362.748 120.1 362.651 121C362.554 121.9 364.201 121.6 364.686 121.4C367.302 120.6 369.531 118.6 370.694 116.1C371.178 115 371.469 113.7 371.469 112.5L367.205 114.4C368.853 115.7 370.984 116.3 373.019 116.1C375.636 115.8 378.252 114.2 379.124 111.6C380.674 106.5 376.992 102 373.407 99.0998C372.341 98.1998 371.178 97.3998 369.919 96.6998C369.046 96.1998 367.69 96.7998 366.915 97.2998C366.624 97.3998 365.074 98.4998 365.849 98.9998Z" fill="#0C41E2"/>
<path d="M187.36 144.5C187.36 144.5 269.531 93.4998 282.806 121.6C296.081 149.7 239.395 191.8 239.395 191.8C239.395 191.8 194.434 155.5 187.36 144.5Z" fill="white"/>
<path d="M188.814 146.5C190.849 145.2 192.98 144 195.112 142.8L198.213 141L199.957 140L200.829 139.5L201.314 139.2L201.605 139C204.511 137.4 207.515 135.8 210.519 134.3C224.182 127.3 238.523 120.6 253.542 117.1C256.74 116.3 259.938 115.8 263.232 115.5C264.783 115.4 266.333 115.3 267.884 115.4C268.562 115.4 269.24 115.5 269.918 115.6L270.5 115.7C270.887 115.8 271.275 115.8 271.663 115.9C272.244 116 272.825 116.2 273.407 116.3L274.182 116.5L274.57 116.7C274.957 116.8 274.182 116.5 274.763 116.8C275.345 117.1 275.829 117.3 276.314 117.6C276.605 117.7 276.798 117.9 277.089 118L277.477 118.2C276.895 117.8 277.477 118.2 277.574 118.3C278.058 118.7 278.446 119 278.833 119.4C278.93 119.5 279.027 119.6 279.124 119.7C278.542 119.2 278.93 119.5 279.027 119.7C279.124 119.9 279.511 120.2 279.705 120.5C279.899 120.8 280.093 121 280.19 121.2C280.287 121.4 280.384 121.5 280.384 121.6C280.287 121.4 279.996 121 280.384 121.6C280.771 122.3 281.062 123.1 281.449 123.9C281.546 124.1 281.546 124.3 281.643 124.5C281.837 125.2 281.546 124 281.74 124.7C281.837 125.1 281.934 125.5 282.031 125.9C282.225 126.7 282.322 127.5 282.418 128.4C282.418 128.5 282.515 129.1 282.418 128.6C282.418 128.8 282.418 129 282.418 129.2C282.418 129.6 282.418 130 282.418 130.5C282.418 131.4 282.322 132.4 282.225 133.3C282.128 134.1 282.031 134.8 281.837 135.5C281.643 136.5 281.353 137.4 281.159 138.3C280.577 140.2 279.899 142 279.124 143.8C275.829 151.2 270.5 158.3 265.073 164.4C256.934 173.6 247.922 182 238.136 189.4L237.651 189.8L240.267 190.1C235.035 185.9 229.802 181.5 224.667 177.2C215.461 169.4 206.256 161.6 197.632 153.2C196.566 152.2 195.597 151.2 194.531 150.2L193.271 148.9L192.593 148.2L192.302 147.9C191.915 147.4 192.69 148.3 192.205 147.8C190.849 146.4 189.686 144.9 188.62 143.3C187.942 142.3 186.585 141.9 185.616 142.6C184.55 143.4 184.841 144.9 185.519 145.8C187.748 149.2 190.849 152.2 193.756 155C197.922 159.1 202.186 163 206.546 166.9C214.977 174.4 223.698 181.7 232.418 188.9C234.26 190.5 236.198 192 238.039 193.5C238.717 194.2 239.783 194.3 240.655 193.8C243.271 191.8 245.887 189.7 248.407 187.6C254.221 182.7 259.841 177.4 265.073 171.9C271.081 165.5 276.701 158.6 280.965 150.9C284.744 144 287.651 136.1 286.585 128C285.81 121.6 282.322 115.7 276.508 113C270.791 110.4 264.298 110.6 258.291 111.5C250.636 112.7 243.174 114.8 235.907 117.6C228.349 120.4 220.887 123.8 213.62 127.3C207.515 130.3 201.411 133.5 195.403 136.9C192.302 138.7 189.201 140.5 186.101 142.3L185.713 142.6C184.647 143.3 184.938 145 185.616 145.8C186.391 146.9 187.748 147.2 188.814 146.5Z" fill="#0C41E2"/>
<path d="M213.426 71.4999C213.426 71.4999 209.938 76.6999 217.69 77.0999C225.442 77.4999 228.252 67.3999 228.252 67.3999C228.252 67.3999 232.903 67.6999 232.031 61.1999C232.031 61.1999 236.682 58.9999 232.031 50.9999C227.38 42.9999 216.527 41.1999 209.55 42.9999C202.573 44.7999 191.042 57.7999 191.042 57.7999C191.042 57.7999 205.287 73.9999 207.806 74.7999C210.325 75.5999 213.426 71.4999 213.426 71.4999Z" fill="white"/>
<path d="M211.101 71.0998C210.616 71.8998 210.326 72.7998 210.326 73.7998C210.519 76.0998 213.233 76.6998 215.074 76.9998C218.174 77.5998 221.663 78.0998 224.57 76.3998C226.411 75.1998 227.961 73.5998 229.027 71.5998C229.705 70.3998 230.287 69.0998 230.674 67.6998L229.415 67.7998C232.322 67.9998 234.453 66.4998 234.55 63.2998C234.55 62.9998 234.55 62.5998 234.55 62.2998C234.55 62.0998 234.453 61.7998 234.357 61.5998L234.55 61.4998C234.744 61.1998 235.132 60.9998 235.422 60.7998C236.391 59.5998 236.779 57.8998 236.391 56.3998C235.519 51.0998 231.45 46.7998 226.798 44.6998C221.76 42.4998 216.236 41.5998 210.81 42.0998C208.872 42.1998 207.031 42.6998 205.19 43.4998C203.349 44.4998 201.508 45.6998 199.86 46.9998C196.566 49.5998 193.465 52.4998 190.558 55.5998L189.395 56.8998C189.298 56.9998 188.814 57.3998 188.814 57.5998C188.814 57.7998 189.589 58.4998 189.783 58.6998C192.012 61.1998 194.337 63.7998 196.663 66.1998C199.182 68.8998 201.702 71.8998 204.802 74.0998C205.287 74.3998 205.771 74.6998 206.256 74.7998C208 75.2998 209.744 75.4998 211.488 75.1998C213.233 74.7998 214.88 73.1998 215.946 71.7998C215.171 71.4998 214.395 71.3998 213.62 71.1998C213.136 71.1998 211.488 70.6998 211.101 71.0998C210.422 72.0998 209.453 72.8998 208.484 73.5998C208 73.8998 207.612 74.0998 207.128 74.2998C205.674 74.8998 210.132 74.9998 210.035 74.8998C209.938 74.7998 209.453 74.4998 209.163 74.2998C207.128 72.5998 205.287 70.7998 203.446 68.8998C201.314 66.5998 199.182 64.2998 197.05 61.9998L194.822 59.4998C194.628 59.2998 193.756 58.4998 193.659 58.1998C193.562 57.8998 194.143 57.5998 194.24 57.3998C195.016 56.5998 195.791 55.6998 196.566 54.8998C198.988 52.3998 201.605 49.9998 204.318 47.7998C206.934 45.6998 209.744 43.7998 212.942 43.0998C216.14 42.2998 219.531 42.6998 222.535 44.0998C226.992 46.0998 230.287 50.0998 231.45 54.8998C231.837 56.7998 231.643 59.6998 229.705 60.6998H229.609C229.802 62.4998 229.802 64.7998 228.252 66.0998C227.864 66.3998 227.38 66.6998 226.798 66.7998C226.605 66.8998 226.411 66.8998 226.411 66.8998C226.12 66.9998 226.798 66.8998 226.992 66.8998C226.895 66.8998 225.829 66.6998 225.829 66.9998C224.86 70.4998 222.632 74.2998 219.337 75.8998C218.756 76.1998 218.078 76.3998 217.399 76.5998C217.109 76.5998 216.721 76.5998 216.43 76.6998C216.043 76.8998 217.593 77.1998 216.915 76.7998C216.043 76.1998 215.267 75.8998 215.074 74.7998C214.977 73.7998 215.171 72.6998 215.849 71.8998C215.074 71.5998 214.298 71.3998 213.523 71.2998C213.136 71.1998 211.295 70.6998 211.101 71.0998Z" fill="#0C41E2"/>
<path d="M222.728 61.7C223.019 61.8 223.31 61.9 223.601 62.1L223.116 61.9C223.697 62.2 224.279 62.6 224.763 63.1L224.376 62.7C224.86 63.1 225.248 63.6 225.539 64.2L225.248 63.7C225.539 64.2 225.732 64.8 225.829 65.5L225.732 65C225.829 65.8 225.926 66.6 225.829 67.4L225.926 66.9C225.926 67.1 225.926 67.2 225.829 67.3C225.732 67.8 225.829 68.4 226.12 68.9C226.508 69.3 226.992 69.6 227.573 69.6C228.252 69.7 228.833 69.5 229.415 69.1C229.899 68.8 230.287 68.3 230.48 67.7C230.771 66.3 230.674 65 230.384 63.6C230.19 62.6 229.705 61.8 229.221 61C228.252 59.8 227.089 58.8 225.635 58.2C225.442 58.1 225.151 58 224.957 57.9C224.376 57.7 223.697 57.7 223.116 57.9C222.535 58.1 222.05 58.5 221.76 59C221.275 59.8 221.469 60.9 222.244 61.4C222.438 61.5 222.632 61.6 222.728 61.7Z" fill="#0C41E2"/>
<path d="M225.829 52.4997C226.12 52.7997 226.314 53.0997 226.605 53.3997C226.895 53.6997 227.186 54.0997 227.38 54.3997L227.767 54.8997C228.058 55.3997 227.477 54.4997 227.671 54.7997L227.864 55.0997C228.155 55.4997 228.446 55.9997 228.736 56.3997C228.833 56.5997 229.027 56.8997 229.124 57.1997C229.415 57.7997 229.221 57.4997 229.124 57.1997C229.221 57.2997 229.221 57.3997 229.318 57.5997C229.512 58.0997 229.705 58.4997 229.899 58.9997C229.899 58.8997 229.705 58.4997 229.899 58.9997C229.899 59.0997 229.899 59.1997 229.996 59.2997C229.996 59.4997 230.093 59.6997 230.093 59.9997C230.19 60.4997 230.481 60.9997 230.868 61.3997C231.256 61.8997 231.74 62.2997 232.322 62.5997C232.709 62.8997 233.097 62.9997 233.581 62.8997C233.969 62.7997 233.969 62.3997 233.969 62.0997C233.775 60.1997 233 58.3997 231.934 56.7997C231.062 55.2997 229.996 53.8997 228.93 52.4997L228.252 51.6997C227.864 51.1997 227.38 50.7997 226.798 50.4997C226.411 50.2997 226.023 50.1997 225.539 50.1997C224.57 50.5997 225.539 52.0997 225.829 52.4997Z" fill="#0C41E2"/>
<path d="M216.527 66.0996C215.364 66.0996 214.298 66.3996 213.329 66.8996C212.264 67.3996 211.391 68.2996 210.81 69.3996C210.519 70.0996 210.326 70.7996 210.229 71.5996C210.132 71.6996 210.132 71.8996 210.326 71.9996C210.422 72.1996 210.519 72.2996 210.713 72.2996C211.198 72.4996 211.682 72.4996 212.264 72.4996C212.845 72.3996 213.523 72.2996 214.105 71.9996L214.589 71.6996C214.783 71.5996 214.977 71.2996 215.074 71.0996C215.171 70.1996 215.461 69.2996 215.946 68.5996L215.752 68.8996C215.946 68.5996 216.14 68.2996 216.43 68.0996L216.14 68.3996C216.236 68.2996 216.43 68.1996 216.527 68.0996L216.043 68.3996L216.43 68.1996L215.849 68.3996L216.14 68.2996C216.333 68.1996 215.267 68.4996 215.655 68.4996H215.752C216.043 68.3996 214.88 68.5996 215.267 68.5996H215.364H214.783C215.364 68.5996 216.043 68.4996 216.624 68.2996C216.915 68.1996 217.109 68.0996 217.399 67.8996C217.593 67.7996 217.787 67.5996 217.981 67.4996C218.174 67.1996 218.368 66.8996 218.078 66.5996C217.399 66.1996 217.012 66.0996 216.527 66.0996Z" fill="#0C41E2"/>
<path d="M276.508 114.3L199.085 93.8998L210.229 76.2998L190.364 54.7998C190.364 54.7998 155.287 95.3998 162.845 110.6C170.403 125.8 238.523 128.4 238.523 128.4" fill="white"/>
<path d="M278.252 113.8L252.089 106.9L210.422 95.9L200.829 93.4L201.411 94L212.554 76.4C212.651 76.3 212.651 76.2 212.554 76.1L195.209 57.3L192.69 54.6C192.205 54.1 190.946 54.1 190.364 54.1C189.783 54.1 188.523 54 188.039 54.6C182.806 60.7 177.864 67.1 173.407 73.9C169.725 79.2 166.43 84.8 163.62 90.6C161.391 95.3 159.26 100.6 159.356 106C159.453 110 161.488 112.9 164.686 115.1C168.756 117.9 173.601 119.5 178.252 120.9C190.17 124.4 202.477 126 214.783 127.3C222.341 128.1 229.996 128.7 237.554 129.1H238.523C238.911 129.1 240.946 129.1 240.946 128.5C240.946 127.9 238.814 127.9 238.523 127.8H238.717H237.651L233.678 127.6C229.221 127.3 224.763 127 220.306 126.5C208.678 125.4 196.953 123.9 185.422 121C180.577 119.9 175.829 118.2 171.372 116C168.271 114.4 165.267 112.1 164.492 108.5C163.426 103.7 165.17 98.5 166.915 94.2C169.337 88.4 172.341 82.8 175.829 77.6C180.965 69.9 186.391 62.5 192.302 55.4C192.399 55.3 192.496 55.2 192.593 55H187.942L202.574 70.8L206.256 74.8C206.74 75.4 207.225 76 207.806 76.5C207.515 76.3 208 76.1 207.709 76.3C207.612 76.4 207.515 76.7 207.418 76.8L206.256 78.6L202.767 84L196.663 93.6C196.469 94 197.05 94.2 197.244 94.2L223.407 101.1L265.073 112.1L274.667 114.6C275.829 114.9 276.992 114.9 278.058 114.6C279.027 114.4 279.124 114 278.252 113.8Z" fill="#0C41E2"/>
<path d="M320.112 88C320.112 88 320.5 97.8 325.829 102.1C331.159 106.4 342.98 112.9 339.88 119.3C336.779 125.7 328.252 121.7 324.376 117.1C324.376 117.1 314.395 132.4 303.155 129.5C291.915 126.6 289.104 123 283.969 128.4C283.969 128.4 274.182 116.8 274.473 116.2C275.442 114.2 288.135 89.9 306.062 93.6C306.159 93.3 315.946 95.9 320.112 88Z" fill="white"/>
<path d="M317.981 88.8999C318.078 91.2999 318.562 93.6999 319.337 95.9999C319.919 97.9999 320.888 99.8999 322.147 101.6C323.407 103.1 324.957 104.4 326.605 105.5C329.996 107.9 333.581 110.2 336.295 113.4C337.264 114.6 338.329 116 338.329 117.6C338.329 118.2 338.233 118.7 337.942 119.2C337.748 119.5 337.554 119.8 337.264 120C337.554 119.8 337.167 120.1 337.07 120.1C336.973 120.1 336.973 120.2 337.07 120.1L336.585 120.3C336.876 120.2 335.907 120.4 336.004 120.4C335.519 120.4 335.132 120.4 334.647 120.4C333.581 120.2 332.612 119.9 331.643 119.4C329.705 118.5 327.961 117.1 326.508 115.5C325.442 114.2 323.504 115.2 322.729 116.3C322.535 116.7 322.244 117 321.954 117.4L321.081 118.5L320.597 119.1C320.209 119.6 320.791 118.9 320.5 119.2C320.209 119.5 320.209 119.5 320.112 119.7C318.078 122.1 315.655 124.2 312.942 125.8C311.585 126.6 310.229 127.1 308.678 127.4C306.837 127.7 305.093 127.5 303.349 126.9C299.667 125.9 296.081 124.2 292.399 123.5C288.717 122.8 285.423 124.2 282.709 127L286.101 126.6C283.388 123.4 280.674 120.1 278.155 116.7C277.864 116.3 277.574 115.9 277.283 115.5C277.089 115.2 276.992 114.9 276.702 114.6C276.508 114.5 276.702 115 276.798 114.8C276.798 115 276.508 115.8 276.798 115.6C276.895 115.4 276.992 115.2 277.089 115L277.283 114.7C277.38 114.4 276.992 115.2 277.283 114.7C277.574 114.2 277.671 114 277.864 113.6C278.349 112.7 278.93 111.9 279.415 111C280.771 108.9 282.225 106.9 283.872 105C285.81 102.7 287.942 100.7 290.267 98.8999C292.496 97.0999 295.112 95.7999 297.923 95.0999C300.248 94.4999 302.767 94.4999 305.093 94.9999C311.488 96.2999 318.562 94.3999 321.954 88.1999C322.438 87.2999 322.632 86.1999 321.469 85.7999C320.306 85.5999 319.047 86.0999 318.368 87.1999C317.981 87.8999 317.496 88.5999 317.012 89.1999C316.818 89.3999 316.624 89.5999 316.527 89.6999L316.333 89.7999C316.236 89.8999 316.043 89.9999 315.849 90.0999C315.752 90.0999 315.171 90.4999 315.461 90.2999C314.298 90.8999 313.039 91.2999 311.779 91.3999H311.101H310.326C309.744 91.3999 309.163 91.2999 308.581 91.2999H308.388L307.903 91.1999L307.419 91.0999C300.733 89.6999 294.143 91.8999 288.717 95.7999C283.775 99.4999 279.609 104 276.217 109.2C275.054 110.9 274.085 112.6 273.116 114.4C272.923 114.8 272.729 115.2 272.535 115.6C272.244 116.4 272.438 117.3 273.019 118C275.829 121.9 278.833 125.7 282.031 129.3C282.903 130.4 284.55 129.8 285.423 128.9C285.713 128.6 286.004 128.3 286.391 128C286.101 128.3 286.682 127.8 286.779 127.7C286.876 127.6 287.361 127.3 287.07 127.5C286.682 127.7 287.36 127.4 287.36 127.4C287.457 127.3 287.554 127.3 287.748 127.2C287.264 127.4 287.845 127.2 287.942 127.2C288.523 127.1 287.942 127.1 288.426 127.1C288.717 127.1 289.008 127.1 289.298 127.1C289.88 127.2 290.558 127.3 291.14 127.5C295.112 128.6 298.891 130.4 302.864 131.1C310.423 132.5 317.496 127.4 322.341 122C323.795 120.5 325.054 118.9 326.217 117.1L322.438 117.9C325.248 121.2 329.609 124.1 334.066 124C338.523 123.9 343.174 120 342.593 115C342.012 110.7 337.651 107.3 334.55 105C331.062 102.4 326.798 100.3 324.764 96.1999C323.31 93.1999 322.438 89.7999 322.341 86.3999C322.341 85.1999 320.5 85.2999 319.822 85.5999C318.659 86.5999 317.981 87.6999 317.981 88.8999Z" fill="#0C41E2"/>
<path d="M278.736 100.5C278.736 100.5 269.337 98.4997 270.209 93.1997C271.081 87.8997 275.926 91.6997 275.926 91.6997C275.926 91.6997 274.279 78.9997 283.678 81.5997C283.678 81.5997 280.093 70.7997 288.911 66.8997C297.729 62.9997 306.643 72.9997 306.643 72.9997C306.643 72.9997 311.294 62.4997 319.337 68.1997C327.38 73.8997 322.244 79.0997 322.244 79.0997C322.244 79.0997 327.38 82.6998 325.829 86.2998C324.279 89.8998 319.434 89.1997 319.434 89.1997C319.434 89.1997 312.942 98.5998 306.159 93.2998L292.69 102.4C292.787 106.2 290.946 109.7 287.942 111.8C282.806 115.2 275.151 106.9 278.736 100.5Z" fill="#0C41E2"/>
<path d="M280.287 99.8001C277.961 99.3001 274.957 98.2001 273.31 96.1001C272.729 95.4001 272.438 94.6001 272.438 93.8001C272.438 93.2001 272.535 92.7001 272.729 92.1001C272.922 91.7001 273.116 91.3001 273.407 91.0001C273.601 90.6001 272.147 91.0001 271.857 91.2001C271.566 91.4001 271.469 91.0001 271.76 91.2001C272.05 91.4001 272.341 91.5001 272.632 91.6001C272.922 91.7001 273.213 91.9001 273.504 92.1001C274.376 92.5001 275.345 92.6001 276.217 92.4001C276.605 92.3001 278.349 92.1001 278.252 91.4001C278.058 89.7001 278.058 87.9001 278.446 86.2001C278.639 84.9001 279.221 83.7001 279.996 82.8001C280.19 82.6001 280.384 82.4001 280.577 82.3001C280.674 82.2001 280.868 82.1001 281.062 82.1001C280.868 82.1001 280.674 82.1001 280.577 82.2001C280.868 82.2001 280.287 82.3001 280.577 82.2001C281.062 82.3001 281.45 82.3001 281.934 82.5001C282.419 82.6001 286.295 82.5001 286.004 81.5001C284.938 78.3001 284.841 74.3001 286.391 71.3001C287.554 69.1001 289.88 67.0001 292.399 66.9001C295.209 66.9001 298.019 68.4001 300.151 70.0001C301.605 71.0001 302.961 72.2001 304.221 73.5001C304.899 74.3001 308.388 74.1001 308.872 73.0001C309.841 70.6001 311.585 68.7001 313.814 67.5001C314.008 67.4001 314.298 67.4001 313.911 67.4001C313.523 67.4001 314.298 67.5001 314.008 67.4001C314.298 67.5001 314.492 67.5001 314.783 67.6001C316.236 68.2001 317.593 69.0001 318.659 70.1001C320.306 71.7001 321.663 73.8001 321.275 76.2001C321.081 77.3001 320.597 78.4001 319.822 79.2001C319.725 79.3001 319.725 79.5001 319.822 79.6001C321.663 80.9001 323.795 83.1001 323.601 85.5001C323.407 86.8001 322.632 88.0001 321.372 88.5001C321.566 88.5001 320.984 88.6001 320.984 88.6001C321.178 88.6001 321.178 88.6001 320.984 88.6001C321.469 88.6001 320.888 88.6001 320.694 88.6001C321.275 88.6001 320.694 88.6001 320.403 88.6001C319.531 88.5001 317.496 88.6001 316.915 89.5001C316.043 90.7001 314.977 91.8001 313.814 92.7001C312.942 93.4001 311.973 93.9001 311.004 94.3001C311.391 94.2001 310.616 94.3001 311.004 94.3001L310.422 94.2001C309.647 93.9001 308.872 93.5001 308.291 92.9001C307.225 92.1001 304.899 92.5001 303.833 93.2001L291.818 101.4C291.333 101.7 290.849 102 290.364 102.4C289.977 103 290.17 104.2 289.977 104.9C289.686 106.7 288.911 108.5 287.651 109.9C287.457 110.1 285.519 112.1 285.326 111.8L285.81 111.7C285.422 111.6 285.132 111.5 284.744 111.4C280.868 109.6 278.736 104.4 280.771 100.5C281.256 99.6001 276.702 99.4001 276.12 100.6C273.795 105.1 276.217 110.6 280.577 112.6C285.81 115.1 292.012 112.1 294.046 106.8C294.628 105.3 294.919 103.8 294.919 102.2L294.628 102.6L308.097 93.5001L303.639 93.8001C309.55 98.2001 317.69 94.9001 321.566 89.2001L318.077 90.1001C321.178 90.5001 325.926 89.9001 327.67 86.8001C329.415 83.7001 326.701 80.3001 324.279 78.6001V79.0001C325.054 78.1001 325.636 77.0001 325.829 75.8001C326.411 72.9001 324.473 70.3001 322.341 68.6001C319.628 66.2001 316.139 65.2001 312.651 65.9001C310.229 66.3001 307.903 67.6001 306.256 69.5001C305.287 70.6001 304.512 71.8001 303.93 73.1001L308.581 72.6001C304.996 68.7001 299.86 65.6001 294.531 65.3001C290.461 65.0001 286.004 66.1001 283 69.1001C281.062 71.2001 279.996 74.0001 279.996 76.9001C279.996 78.6001 280.19 80.4001 280.771 82.0001L284.841 81.0001C280.771 79.9001 275.248 80.6001 273.698 85.2001C273.019 87.4001 272.826 89.8001 273.116 92.1001L277.864 91.4001C276.411 90.2001 274.57 89.6001 272.729 89.7001C271.178 89.8001 269.24 90.1001 268.271 91.5001C267.593 92.6001 267.302 94.0001 267.593 95.3001C268.562 99.0001 273.601 100.8 276.798 101.5C277.961 101.7 279.124 101.6 280.19 101.1C281.256 100.5 281.256 100 280.287 99.8001Z" fill="#0C41E2"/>
<path d="M321.372 102.2C321.953 102.8 321.856 103.7 321.372 104.3C321.275 104.4 321.275 104.4 321.178 104.4C319.919 105.3 318.756 103.7 319.628 102.6C319.918 102 320.694 101.8 321.275 102.1C321.275 102.1 321.372 102.1 321.372 102.2Z" fill="#0C41E2"/>
<path d="M312.36 113.3C311.294 116.4 311.682 119.9 313.329 122.7C314.201 124 315.364 125.1 316.818 125.8C317.496 126.2 318.562 126.2 318.853 125.3C319.143 124.4 318.756 123.4 317.98 122.8C317.69 122.7 317.496 122.5 317.205 122.4C316.915 122.3 316.721 122.1 316.527 121.9C316.527 121.9 316.818 122.1 316.624 122L316.527 121.9C316.43 121.8 316.333 121.7 316.236 121.6L316.042 121.4C316.236 121.6 315.752 121.1 316.042 121.4C315.849 121.2 315.752 121 315.655 120.8C315.655 120.7 315.558 120.6 315.461 120.5C315.558 120.8 315.267 120.1 315.461 120.5C315.364 120.2 315.267 120.1 315.267 119.9C315.267 119.7 315.17 119.5 315.073 119.3C315.073 119.3 315.17 119.7 315.17 119.5C315.17 119.3 315.17 119.4 315.17 119.3C315.17 119.2 315.17 119.1 315.17 119C315.17 118.8 315.073 118.6 315.073 118.4C315.073 118.2 315.073 118 315.073 117.8C315.073 117.6 315.073 118 315.073 117.9C315.073 117.8 315.073 117.7 315.073 117.6C315.073 117 315.17 116.3 315.267 115.7C315.267 115.6 315.267 115.5 315.364 115.4C315.461 115.1 315.267 115.9 315.364 115.5C315.364 115.4 315.364 115.3 315.461 115.3C315.752 114.4 315.364 113.4 314.589 112.8C314.008 112.3 313.136 112.5 312.651 113.1C312.554 113.1 312.457 113.2 312.36 113.3Z" fill="#0C41E2"/>
<path d="M275.539 99.8998C275.539 99.8998 310.423 79.3998 324.764 89.4998C324.764 89.4998 325.733 93.9998 323.019 95.2998C320.306 96.5998 277.671 105.6 276.12 103.6C275.248 102.6 274.957 101.1 275.539 99.8998Z" fill="#6A90FF"/>
<path d="M305.48 100.2C305.48 100.2 307.612 91.0996 301.992 89.6996C296.372 88.2996 288.039 100.8 297.244 105" fill="white"/>
<path d="M307.903 100.6C308.969 96.1997 308.581 89.7997 303.64 87.9997C297.729 85.9997 291.624 92.0997 290.946 97.8997C290.655 99.5997 290.946 101.3 291.721 102.8C292.787 104.7 294.337 106.1 296.275 106.9C297.438 107.4 298.795 107 299.57 105.9C300.054 105 299.764 103.8 298.795 103.3C298.698 103.2 298.601 103.2 298.504 103.2L298.019 103C298.504 103.2 298.019 103 297.923 102.9C297.632 102.7 297.341 102.5 297.147 102.3C296.76 102 297.438 102.6 297.05 102.3L296.76 102L296.469 101.7C296.372 101.6 296.081 101 296.372 101.6C296.178 101.1 295.985 100.7 295.791 100.2C295.985 100.8 295.791 99.9997 295.791 99.7997C295.791 99.5997 295.791 99.0997 295.791 98.7997C295.791 98.2997 295.694 99.2997 295.791 98.7997C295.791 98.6997 295.791 98.5997 295.791 98.4997C295.791 98.1997 295.888 97.8997 295.985 97.6997C296.081 97.3997 296.178 97.0997 296.275 96.8997C296.469 96.2997 296.275 96.7997 296.275 96.8997L296.469 96.4997C296.76 95.9997 297.05 95.3997 297.341 94.8997C297.438 94.7997 297.923 94.0997 297.535 94.5997C297.729 94.2997 298.019 94.0997 298.213 93.7997C298.407 93.4997 298.601 93.3997 298.795 93.1997C298.988 92.9997 299.473 92.4997 298.988 92.9997C299.182 92.7997 300.151 91.9997 300.442 92.0997C300.345 92.0997 299.861 92.2997 300.248 92.1997L300.539 92.0997L300.926 91.9997C301.314 91.8997 301.023 92.1997 300.733 91.9997C300.926 91.9997 301.217 91.9997 301.411 91.8997C301.023 92.0997 300.83 91.7997 301.12 91.8997C301.217 91.8997 301.411 91.8997 301.508 91.9997C301.895 91.9997 301.023 91.7997 301.508 91.9997L301.895 92.1997C302.38 92.3997 301.508 91.8997 301.895 92.1997L302.283 92.3997C302.38 92.3997 302.38 92.4997 302.477 92.5997C302.38 92.4997 301.992 92.1997 302.477 92.5997C302.574 92.6997 302.671 92.7997 302.767 92.8997C303.155 93.2997 302.671 92.6997 302.864 92.9997C303.058 93.4997 303.252 93.8997 303.446 94.3997C303.64 94.8997 303.349 93.8997 303.446 94.3997C303.446 94.4997 303.446 94.6997 303.543 94.7997C303.543 95.0997 303.64 95.3997 303.64 95.7997C303.64 96.3997 303.64 96.9997 303.64 97.5997C303.64 97.6997 303.64 97.7997 303.64 97.9997C303.64 98.2997 303.736 98.1997 303.64 97.8997C303.64 98.1997 303.64 98.3997 303.543 98.6997C303.446 99.1997 303.446 99.6997 303.252 100.2C302.574 102.7 307.322 103.2 307.903 100.6Z" fill="#0C41E2"/>
<path d="M275.539 132.9C275.539 132.9 262.263 133.3 251.12 124.8C239.977 116.3 238.232 100 226.895 91.4C215.558 82.8 205.384 81 205.384 81C205.384 81 192.012 86 192.108 87.7C192.205 89.4 198.504 99.2 199.763 99.9C201.023 100.6 208.775 97.7 219.628 106.1C230.481 114.5 242.012 131 254.802 136.9C267.593 142.8 279.027 136.2 279.027 136.2L284.357 132.9L280.287 125.4L272.535 127.6L275.539 132.9Z" fill="#6A90FF"/>
<path d="M171.663 230.4C171.663 230.4 147.825 231.1 147.825 231.8C147.825 232.5 148.988 243.1 148.988 243.1L158.484 242.4L148.407 248.4L152.864 283.7C152.864 283.7 156.353 284.6 159.647 276.3C162.942 268 167.302 254.8 167.302 254.8L181.449 253.4L171.663 230.4Z" fill="#0C41E2"/>
<path d="M171.953 230.2C167.012 230.3 162.07 230.5 157.128 230.8C154.512 230.9 151.798 231 149.182 231.4C148.794 231.5 147.825 231.5 147.438 231.8C147.05 232.1 147.438 233.4 147.438 234C147.729 237.1 148.116 240.2 148.407 243.3C148.407 243.4 148.698 243.4 148.698 243.4L158.194 242.7L158 242.4L147.922 248.4C147.922 248.4 147.825 248.5 147.825 248.6L151.701 279.5L152.283 283.9L152.38 284C155.384 284.7 157.903 281 159.066 278.8C160.616 275.6 161.876 272.3 162.942 268.9C164.008 265.9 165.074 262.8 166.139 259.8C166.721 258.1 167.302 256.5 167.884 254.8L167.012 255.2L181.159 253.8C181.256 253.8 182.128 253.6 182.031 253.4L173.504 233.3L172.244 230.4C172.147 230.1 170.984 230.5 171.081 230.7L179.608 250.7L180.868 253.6L181.74 253.2L167.593 254.6C167.399 254.6 166.818 254.7 166.721 255C164.395 261.9 162.07 268.8 159.356 275.6C158.581 278 157.419 280.2 155.868 282.1C155.287 282.9 154.415 283.4 153.543 283.6C153.349 283.6 153.446 283.5 153.446 283.6C153.446 283.5 153.446 283.4 153.446 283.2C153.446 282.6 153.349 281.9 153.252 281.3L149.182 249.1C149.182 248.9 149.085 248.7 149.085 248.5C149.085 248.3 148.891 248.6 149.085 248.5C150.054 247.8 151.023 247.2 152.089 246.7L159.066 242.6C159.356 242.4 159.066 242.3 158.872 242.3L149.376 243L149.667 243.1L148.891 235.7C148.794 235 148.794 234.3 148.698 233.6C148.698 233.3 148.698 232.4 148.504 232.1V232C148.698 232.2 147.825 231 148.407 232C148.504 232.2 148.019 232 148.31 232.1C148.698 232.1 149.085 232 149.376 232C154.996 231.4 160.616 231.3 166.236 231.1L171.469 230.9C171.76 230.7 172.729 230.2 171.953 230.2Z" fill="#0C41E2"/>
<path d="M102.864 189.4C102.864 189.4 79.0271 190 79.0271 190.8C79.0271 191.6 80.1899 202.1 80.1899 202.1L89.686 201.4L79.6085 207.4L84.0659 242.7C84.0659 242.7 87.5542 243.6 90.8488 235.3C94.1434 227 98.5038 213.8 98.5038 213.8L112.554 212.4L102.864 189.4Z" fill="#0C41E2"/>
<path d="M103.155 189.2C98.2131 189.3 93.2712 189.5 88.3294 189.8C85.7131 189.9 82.9999 190 80.3836 190.4C79.8991 190.5 78.9302 190.5 78.6395 190.8C78.3488 191.1 78.6395 192.4 78.6395 193C78.9302 196.1 79.3177 199.2 79.6084 202.3C79.6084 202.4 79.8991 202.4 79.8991 202.4L89.3953 201.7L89.2015 201.4L79.1239 207.4C79.1239 207.4 78.9302 207.5 79.0271 207.6L82.903 238.5L83.5813 242.9L83.6782 243C86.6821 243.7 89.2015 240 90.3643 237.8C91.9146 234.6 93.1743 231.3 94.2402 227.9C95.3061 224.9 96.372 221.8 97.4379 218.8C98.0193 217.1 98.6007 215.5 99.1821 213.8L98.31 214.2L112.457 212.8C112.554 212.8 113.426 212.6 113.329 212.4L104.802 192.3L103.543 189.4C103.446 189.1 102.283 189.5 102.38 189.7L110.907 209.7L112.167 212.6L113.039 212.2L98.8914 213.6C98.6976 213.6 98.1162 213.7 98.0193 214C95.6937 220.9 93.3681 227.8 90.655 234.6C89.8798 237 88.717 239.2 87.1666 241.1C86.5852 241.9 85.7131 242.4 84.841 242.6C84.6472 242.6 84.7441 242.6 84.7441 242.7C84.7441 242.6 84.7441 242.5 84.7441 242.3C84.7441 241.7 84.6472 241 84.5503 240.4L80.3836 208C80.3836 207.8 80.2867 207.6 80.2867 207.4C80.2867 207.2 80.0929 207.5 80.2867 207.4C81.2557 206.7 82.2247 206.1 83.2906 205.6L90.2674 201.5C90.5581 201.3 90.2674 201.2 90.0736 201.2L80.5774 201.9L80.8681 202L80.0929 194.6C79.996 193.9 79.8991 193.2 79.8991 192.5C79.8991 192 79.8991 191.5 79.7053 191V190.9C79.8991 191.1 79.0271 189.9 79.5115 190.9C79.6084 191.1 79.1239 190.9 79.4146 191C79.8022 191 80.0929 190.9 80.4805 190.9C86.1007 190.3 91.7208 190.2 97.341 190L102.574 189.8C102.961 189.7 103.93 189.2 103.155 189.2Z" fill="#0C41E2"/>
<path d="M148.504 123.6C139.686 126.9 130.965 130.6 122.535 134.7C121.372 135.3 123.891 139.5 125.442 138.7C133.969 134.5 142.593 130.8 151.411 127.6C152.573 127.2 150.151 123 148.504 123.6Z" fill="#6A90FF"/>
<path d="M121.76 113.7C113.717 115.9 105.965 119 98.5037 122.9C97.6316 123.4 96.8564 124.4 97.7285 125.3C98.6006 126.2 99.9572 126.4 101.023 125.9C108.097 122.2 115.461 119.2 123.116 117.1C124.085 116.9 125.248 116.1 124.763 114.9C124.279 113.7 122.729 113.4 121.76 113.7Z" fill="#6A90FF"/>
<path d="M138.717 111.7L144.725 110.1C144.919 110 144.628 109.3 144.628 109.3C144.434 108.7 144.143 108.2 143.853 107.7C143.562 107.2 143.174 106.7 142.787 106.3C142.593 106.1 142.399 105.8 142.109 105.9L136.101 107.5C135.907 107.6 136.198 108.3 136.198 108.3C136.392 108.9 136.682 109.4 136.973 109.9C137.264 110.4 137.651 110.9 138.039 111.3C138.136 111.4 138.426 111.8 138.717 111.7Z" fill="#6A90FF"/>
</svg>
