<svg width="500" height="500" viewBox="0 0 500 500" fill="none" xmlns="http://www.w3.org/2000/svg">
<path fill-rule="evenodd" clip-rule="evenodd" d="M263.499 2.04077C334.719 -4.90849 414.017 3.98623 462.65 58.6426C510.323 112.22 498.814 193.088 498.5 266.148C498.188 338.695 512.111 422.683 460.872 471.802C410.311 520.272 332.204 491.588 263.499 491.429C195.066 491.271 119.802 516.249 66.9989 470.892C11.5951 423.301 -4.98773 340.683 1.23569 266.148C6.98869 197.248 50.7254 142.243 98.4534 94.1789C145.108 47.1961 198.898 8.34418 263.499 2.04077Z" fill="#EDF1FE"/>
<path d="M77.2 120.2C77.2 120.2 321.2 86.6996 424.3 121C424.3 121 443.6 328.1 425.1 410.2C425.1 410.2 182.8 442.1 76.4 409.4C76.4 409.5 54.6 173.9 77.2 120.2Z" fill="#EDF1FE"/>
<path d="M77.0999 122.199C79.2999 121.899 81.4999 121.599 83.6999 121.299C89.7999 120.499 95.8999 119.799 102 119.099C111.3 117.999 120.7 116.999 130 116.099C141.8 114.899 153.6 113.899 165.4 112.899C179 111.799 192.7 110.799 206.3 109.999C220.9 109.099 235.6 108.499 250.2 107.999C265.3 107.599 280.3 107.399 295.4 107.499C310 107.599 324.6 108.099 339.1 108.999C352.8 109.899 366.5 111.199 380 113.199C391.9 114.799 403.6 117.299 415.1 120.399C417.7 121.099 420.2 121.899 422.8 122.799L421.7 121.199C422.3 128.299 422.9 135.399 423.5 142.499C424.9 160.399 426.1 178.399 427.1 196.399C428.5 220.099 429.5 243.799 430.1 267.599C430.7 292.399 430.8 317.199 429.8 342.099C429 362.899 427.7 383.899 423.8 404.399C423.4 406.399 423 408.499 422.5 410.499L425.1 408.399C422.9 408.699 420.7 408.899 418.6 409.199C412.5 409.899 406.4 410.599 400.3 411.299C391 412.299 381.7 413.299 372.4 414.099C360.6 415.199 348.8 416.199 337 417.099C323.4 418.099 309.8 419.099 296.2 419.799C281.5 420.599 266.8 421.199 252.1 421.699C237 422.099 221.9 422.299 206.8 422.199C192.1 422.099 177.3 421.599 162.6 420.699C148.8 419.799 135 418.599 121.2 416.699C109.1 415.099 97.0999 412.799 85.1999 409.799C82.5999 409.099 79.9999 408.399 77.3999 407.599L78.4999 409.199C77.7999 401.199 77.0999 393.299 76.4999 385.299C74.9999 365.699 73.5999 346.099 72.4999 326.499C70.9999 301.299 69.8999 275.999 69.3999 250.799C68.8999 226.399 68.7999 201.899 70.1999 177.399C70.7999 167.299 71.5999 157.199 72.8999 147.199C73.7999 139.599 75.3999 131.999 77.6999 124.699C78.1999 123.299 78.6999 121.899 79.1999 120.599C80.2999 117.899 75.3999 117.799 74.4999 119.999C71.6999 126.699 70.1999 133.799 68.9999 140.899C67.3999 150.299 66.3999 159.799 65.7999 169.299C64.0999 193.299 63.9999 217.399 64.2999 241.399C64.6999 266.899 65.6999 292.399 67.0999 317.899C68.1999 338.599 69.5999 359.399 71.1999 380.099C71.8999 389.799 72.6999 399.499 73.5999 409.199C73.5999 409.299 73.5999 409.499 73.5999 409.599C73.5999 410.299 74.0999 410.899 74.6999 411.099C86.1999 414.499 97.8999 417.199 109.7 418.999C123.1 421.199 136.6 422.599 150.2 423.699C164.8 424.799 179.5 425.499 194.2 425.799C209.4 426.099 224.5 426.099 239.7 425.799C254.6 425.499 269.6 424.999 284.5 424.299C298.5 423.599 312.5 422.799 326.5 421.699C338.8 420.799 351.2 419.799 363.5 418.699C373.5 417.799 383.6 416.799 393.6 415.699C400.6 414.999 407.6 414.199 414.6 413.399C417.8 412.999 421.1 412.699 424.3 412.199H424.7C425.9 412.099 427 411.299 427.3 410.099C431.7 390.499 433.2 370.099 434.2 350.099C435.4 325.499 435.5 300.899 435 276.299C434.6 252.199 433.6 228.099 432.3 203.999C431.3 185.099 430 166.099 428.6 147.199C427.9 138.599 427.3 129.899 426.5 121.299C426.5 121.199 426.5 121.099 426.5 120.999C426.5 120.299 426 119.699 425.4 119.399C414.3 115.799 402.9 112.999 391.3 110.999C378.1 108.699 364.7 107.199 351.4 105.999C336.9 104.799 322.4 104.199 307.9 103.799C292.8 103.499 277.7 103.499 262.6 103.799C247.7 104.099 232.7 104.599 217.8 105.399C203.8 106.099 189.8 106.999 175.8 108.099C163.4 108.999 151 110.099 138.7 111.299C128.6 112.299 118.5 113.299 108.4 114.399C101.4 115.199 94.4999 116.099 87.3999 116.899C84.1999 117.299 80.8999 117.699 77.6999 118.099L77.2999 118.199C76.1999 118.399 74.7999 118.999 74.6999 120.299C74.5999 121.599 75.9999 122.299 77.0999 122.199Z" fill="#0C41E2"/>
<path d="M116.7 130.1L116.5 129.999C116.2 129.899 117.1 130.2 116.7 130.1L116.4 129.999C115.8 129.699 115.2 129.4 114.6 129.1C114.2 128.9 115.1 129.399 114.7 129.199L114.5 129.1L113.9 128.699L113.3 128.299C113 128.099 112.5 127.7 113 128.1C112.6 127.8 112.1 127.399 111.7 127.099L111.3 126.799C111.7 127.199 110.9 126.399 111.3 126.799C111.1 126.599 110.8 126.299 110.6 126.099C110.4 125.899 110.1 125.599 109.9 125.299C110.3 125.699 109.7 125.099 109.6 124.899C109.4 124.599 109.1 124.299 108.9 123.999L108.7 123.699C108.6 123.599 108.5 123.499 108.5 123.299C107.7 122.099 107 120.699 106.5 119.299C105.3 115.699 105.1 111.799 105.8 107.999C106.8 102.599 108.8 97.3995 111.8 92.7995C114 89.0995 117.3 86.0995 121.3 84.2995C124.5 82.9995 128.1 82.6995 131.5 83.4995C133.2 83.8995 134.9 84.4995 136.4 85.2995C137.1 85.6995 137.8 86.0995 138.4 86.4995C138.6 86.5995 138.8 86.7995 139 86.8995L139.1 86.9995C139.6 87.3995 140 87.6995 140.5 88.0995L140.8 88.3995L141.3 88.8995C141.7 89.2995 142.1 89.6995 142.5 90.0995C143 90.5995 143.7 91.4995 144.3 92.2995C145.5 93.8995 146.5 95.6995 147.3 97.5995C149 101.399 149.5 105.699 148.8 109.799C148.5 111.199 152.6 113.799 152.9 112.399C154.5 103.799 150.3 95.1995 144.5 89.1995C138.7 83.1995 130 78.3995 121.3 79.9995C111.1 81.7995 105.3 92.4995 102.6 101.699C100.3 109.699 101.2 118.299 106.7 124.799C109.9 128.699 114 131.599 118.7 133.399C119.6 133.699 120 133.099 119.6 132.299C118.9 131.199 117.9 130.4 116.7 130.1Z" fill="#0C41E2"/>
<path d="M196.8 126.5C193.5 125.7 190.4 124.2 187.8 122.1C181.7 117.3 179.2 109.9 179.5 102.3C179.7 96.5997 181.1 90.8997 183.7 85.7997C184.6 83.8997 185.9 82.2997 187.3 80.7997C187.6 80.4997 187.9 80.2997 188.2 79.9997C188.4 79.8997 188.6 79.6997 188.8 79.5997C188.4 79.8997 189 79.4997 189.1 79.3997L189.7 78.9997L189.6 79.0997L189.9 78.8997L190.5 78.5997L190.8 78.3997C192.3 77.7997 193.9 77.3997 195.6 77.2997C197.4 77.1997 199.2 77.2997 201 77.6997C204.8 78.5997 208.4 80.1997 211.6 82.4997C218 87.1997 222.8 94.6997 223 102.8C223 103.9 223 104.9 222.9 106C222.8 107 224.7 106.2 225 106.1C225.8 105.7 227.1 104.9 227.2 103.8C228.2 95.0997 224 86.6997 217.5 81.1997C211.4 75.8997 202.9 72.5997 194.8 74.6997C190.2 75.8997 186.1 78.4997 183 82.1997C179.3 86.5997 177.4 92.0997 176.2 97.6997C174.4 106.4 175.2 116.1 181.6 122.8C184.7 126 188.6 128.3 192.9 129.4L193.1 129.5C194.2 129.6 195.3 129.2 196.1 128.4C196.3 128.3 197.8 126.7 196.8 126.5Z" fill="#0C41E2"/>
<path d="M271.9 128.7C271.6 128.7 271.4 128.7 271.1 128.6C270.8 128.6 270.5 128.5 270.1 128.5C270.7 128.6 269.7 128.5 270.1 128.5L269.4 128.4C268.4 128.2 267.3 127.9 266.3 127.6L265.5 127.3L265.1 127.1C264.5 126.9 265.6 127.3 265 127.1C264.4 126.9 263.8 126.5 263.2 126.2C262.6 125.9 262 125.5 261.3 125.1C261.7 125.4 260.9 124.8 261.3 125.1L260.9 124.8C260.6 124.6 260.3 124.3 260 124.1C259.7 123.9 259.5 123.6 259.2 123.4L258.7 122.9L258.5 122.7C258.8 123 258.3 122.5 258.5 122.7C258 122.1 257.5 121.4 257 120.8C256.6 120.2 256.2 119.5 255.9 118.8C255.5 117.9 255.2 117.1 254.9 116.2C254.4 114.2 254.1 112.1 254.1 110C254 104.7 255.1 99.5001 257.3 94.8001C258.2 93.0001 259.3 91.3001 260.6 89.8001C261.8 88.5001 263.2 87.3001 264.8 86.4001C265.6 85.9001 266.5 85.5001 267.3 85.2001L267.9 85.0001C268 85.0001 268.1 84.9001 268.2 84.9001C268.6 84.8001 269.1 84.7001 269.6 84.5001C271.3 84.1001 273 83.9001 274.7 84.0001C275.7 84.0001 276.6 84.1001 277.6 84.2001C277.7 84.2001 278.3 84.3001 277.9 84.2001L278.6 84.3001C279.1 84.4001 279.6 84.5001 280 84.6001C281 84.8001 281.9 85.1001 282.8 85.5001L283.4 85.7001C283.7 85.8001 283.4 85.7001 283.3 85.7001L283.6 85.8001C284.1 86.0001 284.5 86.2001 285 86.4001C285.9 86.8001 286.8 87.3001 287.6 87.9001C288 88.1001 288.4 88.4001 288.8 88.7001C288.4 88.5001 288.9 88.8001 289 88.9001L289.6 89.4001C290.4 90.0001 291.2 90.7001 291.9 91.4001C292.2 91.7001 292.5 92.1001 292.9 92.4001L293.1 92.6001L293.6 93.2001C294.2 94.0001 294.8 94.8001 295.4 95.6001C295.9 96.3001 296.3 97.0001 296.6 97.8001C297.4 99.5001 298 101.3 298.4 103.2C298.6 104.2 298.7 105.3 298.8 106.3C298.9 108.9 303.8 109.6 303.6 106.6C303.1 97.4001 297.5 89.4001 289.8 84.5001C282.6 79.9001 273.2 78.1001 265 81.1001C255.1 84.7001 250.8 94.8001 249.6 104.6C248.6 113.5 250.8 122.8 258.4 128.3C262.4 131.2 267.1 132.9 272 133.3H272.2C273.3 133.4 274.3 132.6 274.4 131.5C274.4 131.4 274.4 131.4 274.4 131.3C274.2 130 273.1 129.1 271.8 129L271.9 128.7Z" fill="#0C41E2"/>
<path d="M363.8 135.1C362.8 135.1 361.8 135.1 360.8 135C360.7 135 360 134.9 360.3 135L359.7 134.9C359.2 134.8 358.6 134.7 358.1 134.6C356.8 134.3 355.6 134 354.4 133.5C355 133.7 354.1 133.4 353.9 133.3C353.5 133.2 353.2 133 352.9 132.8C352.3 132.5 351.7 132.1 351.1 131.7C350.9 131.6 351.3 131.8 351.3 131.8L351 131.6L350.6 131.3C350.3 131.1 350 130.8 349.6 130.5L348.8 129.8C349.1 130.1 349 130 348.8 129.8C348.6 129.6 348.5 129.5 348.3 129.3C348.1 129.1 347.8 128.7 347.5 128.3L347.2 127.9C347.4 128.2 347.1 127.8 347.1 127.7C346.7 127 346.3 126.2 346 125.4C346.1 125.8 345.9 125.1 346 125.4C346 125.3 345.9 125.2 345.9 125.1C345.9 125 345.8 124.7 345.7 124.5C345.5 124 345.4 123.5 345.3 122.9C345.1 122 345 121.1 344.9 120.1C344.5 114.4 345.9 108.5 347.8 103.2C349.5 98.7001 352.1 94.4001 356.1 91.6001C357.7 90.6001 359.4 89.8001 361.2 89.4001C363 89.1001 364.8 89.0001 366.6 89.2001C366.3 89.2001 366.9 89.2001 367 89.3001C367.1 89.4001 367.5 89.4001 367.7 89.4001C368.2 89.5001 368.7 89.6001 369.2 89.7001C369.7 89.8001 370.1 89.9001 370.6 90.1001L371.3 90.3001C371.4 90.3001 372.1 90.6001 371.8 90.5001C373.7 91.2001 375.5 92.2001 377.2 93.3001L377.5 93.5001L378.1 94.0001C378.5 94.3001 379 94.6001 379.4 95.0001C380.2 95.7001 381 96.4001 381.8 97.1001L382.3 97.6001C382.6 97.9001 382.1 97.4001 382.5 97.9001C382.9 98.4001 383.2 98.7001 383.6 99.1001C384.3 99.9001 384.9 100.7 385.5 101.5C385.6 101.7 385.8 101.9 385.9 102.1C386.2 102.6 385.9 102 386.1 102.4C386.3 102.8 386.6 103.3 386.9 103.7C387.4 104.6 387.8 105.4 388.2 106.4C388.3 106.6 388.4 107 388.3 106.6L388.5 107.3C388.6 107.7 388.8 108.2 388.9 108.6C389 109 389.1 109.4 389.2 109.8C389.2 109.9 389.3 110.5 389.3 110.3C389.3 110.1 389.3 110.8 389.4 110.9C389.5 111.7 389.5 112.6 389.4 113.5C389.2 116 393.5 117.7 393.7 114.6C394.4 105.8 388.2 97.3001 381.7 92.0001C374.9 86.5001 365.1 82.7001 356.6 86.1001C352 88.1001 348.3 91.7001 346 96.1001C342.9 102 341.1 108.5 340.7 115.1C340.3 119.8 341.2 124.5 343.4 128.7C345.3 132 348.1 134.8 351.5 136.6C355.6 138.8 360.3 139.9 365 139.7H365.2C367.9 139.5 366.2 134.9 363.8 135.1Z" fill="#0C41E2"/>
<path d="M127.4 132.4C127.4 134.7 126 136.9 123.8 137.8C122.7 138.3 121.5 138.4 120.4 138.2C119.9 138.1 119.4 138 118.9 137.7C118.4 137.5 118 137.2 117.6 136.8C117.9 137.1 117.7 136.9 117.6 136.8L117.5 136.7C117.3 136.5 117.4 136.5 117.5 136.8C117.4 136.7 117.4 136.6 117.3 136.5C117.2 136.4 117.6 137.1 117.4 136.6C117.2 136.1 117.5 137.1 117.4 136.5C117.4 136.4 117.3 136.3 117.3 136.2C117.4 136.6 117.3 136 117.3 135.9C117.3 135.7 117.3 135.5 117.3 135.3C117.3 135 117.4 134.7 117.4 134.4C117.5 133.8 117.7 133.3 118 132.8C119.2 130.8 121.4 129.6 123.8 129.7C124.4 129.7 125.1 129.9 125.7 130.2C126 130.3 126.3 130.5 126.6 130.7C126.5 130.7 126.4 130.5 126.6 130.7L127 131C127.4 131.3 126.8 130.7 127.1 131.1C127.2 131.3 127.5 131.4 127.2 131.2L127.3 131.3C127.5 131.5 127.4 131.5 127.2 131.2L127.3 131.3C127.4 131.5 127.4 131.5 127.2 131.2C127.2 131.2 127.4 131.8 127.3 131.4C127.2 131 127.4 131.7 127.4 131.8C127.4 131.9 127.4 131.4 127.4 131.8C127.4 132 127.4 132.1 127.4 132.3C127.4 133.5 127.9 134.6 128.7 135.5C129 135.8 130.3 136.9 130.3 135.7C130.2 131.9 128.1 127.7 124.6 126C121.8 124.6 118.3 125.2 116.2 127.6C113.8 130.4 114.2 134.4 115.8 137.4C117.4 140.4 120.4 143.1 124.1 142.6C127.6 142.2 130.3 139.2 130.3 135.6C130.3 134.4 129.8 133.3 129 132.4C128.6 132.2 127.4 131.2 127.4 132.4Z" fill="#0C41E2"/>
<path d="M204.6 128.499C204.5 130.699 203.2 132.699 201.1 133.499C200.8 133.599 201.5 133.399 201 133.499L200.6 133.599L200.2 133.699C200.6 133.599 200.2 133.699 200.1 133.699H199.7C200 133.799 199.1 133.699 199.7 133.699C199.6 133.699 199.3 133.699 199.3 133.599H199C198.7 133.499 198.8 133.499 199.1 133.699L198.8 133.599L198.7 133.499C198.5 133.399 198.5 133.399 198.8 133.599C198.7 133.599 198.5 133.399 198.5 133.399L198.3 133.299C198.6 133.499 198.1 133.199 198.1 133.199C198 133.099 197.9 132.999 197.8 132.899C197.7 132.899 197.4 132.399 197.6 132.699C196.9 131.799 196.5 130.799 196.5 129.599C196.5 128.499 196.7 127.499 197.2 126.499C197.7 125.499 198.6 124.699 199.6 124.299L199.9 124.199C200.4 123.999 199.6 124.299 200.1 124.099C200.3 123.999 200.6 123.999 200.9 123.899C201.2 123.799 200.4 123.899 201 123.899H201.4C202 123.999 201.5 123.899 201.4 123.899C201.5 123.899 201.9 123.899 201.9 123.999C202 123.999 202.2 124.199 202.3 124.199C202.9 124.399 202.1 123.999 202.4 124.299L202.7 124.499C202.9 124.599 202.9 124.599 202.7 124.499L203 124.699C203.2 124.899 203.4 125.099 203.6 125.299C203.4 124.999 203.7 125.399 203.7 125.499C203.8 125.599 203.9 125.799 204 125.899C204.1 125.999 204.2 126.199 204.2 126.399C204.3 126.699 204.2 126.399 204.3 126.599C204.5 127.199 204.6 127.899 204.6 128.499C204.6 128.899 205.2 129.399 205.5 129.599C206 129.999 206.7 130.199 207.3 130.299C208.2 130.399 209.5 130.299 209.4 129.099C209.3 121.499 198.2 117.999 193.3 123.599C191.2 126.099 191 129.599 192.7 132.399C195 135.699 198.9 137.299 202.9 136.699C204.7 136.399 206.4 135.499 207.6 134.199C208.8 132.799 209.4 130.999 209.4 129.199C209.4 128.799 208.8 128.299 208.5 128.099C208 127.699 207.3 127.499 206.7 127.399C205.9 127.299 204.6 127.399 204.6 128.499Z" fill="#0C41E2"/>
<path d="M279.9 130.199C279.9 130.799 280 129.799 279.9 130.299C279.9 130.399 279.9 130.499 279.9 130.699C279.9 130.899 279.8 130.999 279.8 131.199C279.9 130.799 279.8 131.099 279.8 131.199C279.7 131.499 279.6 131.699 279.5 131.999C279.4 132.099 279.3 132.299 279.3 132.399C279.5 132.099 279.3 132.399 279.2 132.499C278.9 132.999 278.5 133.399 278 133.699L277.6 133.999C277.3 134.099 277 134.299 276.7 134.399L276.3 134.499C276.6 134.399 276.3 134.499 276.2 134.499C275.9 134.599 275.6 134.599 275.3 134.599H274.8C274.2 134.599 275 134.599 274.7 134.599C274.4 134.599 274.1 134.499 273.7 134.399L273.2 134.299C273.6 134.499 273.3 134.299 273.2 134.299L272.4 133.899C272.6 134.099 271.9 133.699 272.4 133.899C272.2 133.699 272.2 133.699 272.1 133.599C272 133.499 271.9 133.399 271.8 133.299C271.7 133.199 271.7 133.199 271.9 133.399L271.7 133.199L271.5 132.899L271.4 132.799C271.2 132.599 271.3 132.599 271.5 132.899C271.3 132.699 271.2 132.399 271.1 132.099C271.1 132.099 271.3 132.699 271.1 132.199C271.1 131.999 271 131.899 271 131.699C271 131.499 270.9 131.399 270.9 131.399C271 131.699 271 131.799 270.9 131.499V131.199C270.9 131.099 270.9 130.899 270.9 130.799C270.9 130.499 271 130.199 271 129.899C271.1 129.399 270.8 130.299 271 129.699L271.1 129.399C271.2 129.099 271.4 128.799 271.6 128.499C271.4 128.799 271.6 128.499 271.6 128.399L271.9 128.099C272.1 127.899 272.3 127.699 272.5 127.499C272.6 127.399 272.7 127.299 272.8 127.199C272.9 127.099 272.4 127.399 272.9 127.099C273.2 126.899 273.5 126.799 273.8 126.599C274.1 126.499 274.3 126.399 274.6 126.299C274.2 126.399 275 126.199 275.1 126.199C275.4 126.199 275.7 126.099 276 126.099C276.1 126.099 276.5 126.099 276.1 126.099C276.3 126.099 276.5 126.099 276.6 126.199C276.9 126.299 277.3 126.299 277.6 126.499C277.6 126.499 278 126.699 278.1 126.799L278.4 126.999C277.9 126.699 278.5 127.099 278.6 127.199L278.8 127.399C279.2 127.699 278.5 127.099 278.8 127.399C278.9 127.499 279 127.599 279.1 127.799L279.2 127.999C279.3 128.199 279.3 128.099 279.1 127.799L279.3 128.199L279.4 128.299C279.5 128.599 279.5 128.499 279.4 128.199C279.6 128.499 279.7 128.899 279.7 129.199C279.7 129.099 279.7 128.699 279.7 129.099C279.7 129.299 279.7 129.599 279.7 129.799C279.7 131.099 280.6 132.199 281.8 132.599C283 132.799 283.6 131.699 283.6 130.699C283.5 126.899 281.3 123.599 277.8 122.099C274.6 120.699 270.8 121.599 268.6 124.299C266.3 127.199 266.1 131.299 268 134.499C269.8 137.599 273.3 139.799 277 139.099C278.8 138.799 280.5 137.799 281.7 136.399C283 134.799 283.7 132.799 283.7 130.699C283.7 129.399 282.8 128.299 281.6 127.899C280.5 128.099 279.9 129.199 279.9 130.199Z" fill="#0C41E2"/>
<path d="M371.4 136.899C371.4 137.199 371.4 137.499 371.3 137.799C371.3 137.999 371.2 138.199 371.2 138.299C371.2 138.199 371.3 138.099 371.2 138.399C371 138.999 370.7 139.599 370.4 140.099C370.1 140.499 370.5 139.999 370.3 140.199L370 140.499C369.8 140.699 369.6 140.899 369.4 141.099C369 141.399 368.6 141.699 368.1 141.899C367.6 142.099 367.1 142.199 366.6 142.299C366.8 142.299 366.2 142.299 366.3 142.299C366.2 142.299 366 142.299 365.8 142.299H365.4C364.9 142.299 365.7 142.399 365.2 142.299C364.9 142.199 364.7 142.099 364.4 142.099C363.9 141.899 364.8 142.299 364.3 142.099L364 141.899C364 141.899 363.5 141.599 363.8 141.799C364.1 141.999 363.7 141.699 363.7 141.699C363.7 141.699 363.5 141.499 363.4 141.399L363 140.999L363.2 141.299C363.1 141.199 363.1 141.099 363 140.999C362.9 140.899 362.9 140.799 362.8 140.699C362.5 140.199 363 141.199 362.8 140.599C362.8 140.499 362.7 140.399 362.7 140.299C362.7 140.199 362.5 139.699 362.7 140.199C362.6 139.899 362.6 139.499 362.5 139.199C362.5 138.899 362.5 139.599 362.5 139.099C362.5 138.999 362.5 138.899 362.5 138.699C362.5 138.399 362.6 138.099 362.6 137.799C362.7 137.299 362.5 137.999 362.7 137.599C362.7 137.499 362.8 137.399 362.8 137.299C362.9 136.999 363.1 136.699 363.2 136.399C363.3 136.299 363.3 136.199 363.4 135.999C363.5 135.799 363.6 135.699 363.5 135.899C363.7 135.699 363.9 135.499 364.1 135.299C364.3 135.099 364.5 134.899 364.7 134.699L365 134.499L365.3 134.299C365.2 134.399 365.2 134.399 365.4 134.299C365.9 134.099 366.4 133.899 366.9 133.799L367.3 133.699C367 133.699 367.4 133.699 367.5 133.699C367.8 133.699 368.2 133.699 368.5 133.699C369 133.699 368.2 133.599 368.7 133.699L369.2 133.799C369.3 133.799 369.5 133.899 369.6 133.899C369.7 133.899 369.7 133.899 369.5 133.799L369.8 133.999L370.1 134.199C370.3 134.299 370.3 134.299 370 134.099L370.3 134.299L370.6 134.499C371 134.799 370.3 134.099 370.6 134.499L370.9 134.899C371 134.999 371.1 135.199 371.1 135.299L371 135.099C371 135.199 371.1 135.299 371.1 135.399C371.1 135.499 371.2 135.699 371.2 135.799C371.2 135.899 371.2 135.899 371.2 135.699C371.2 135.799 371.2 135.899 371.3 136.099C371.3 136.199 371.3 136.299 371.4 136.399C371.4 136.599 371.4 136.699 371.4 136.899C371.4 138.099 372.1 139.199 373.2 139.799C373.9 140.199 375.4 140.299 375.4 139.099C375.3 135.199 373 131.699 369.4 130.099C366.3 128.699 362.7 129.399 360.4 131.899C358.1 134.699 357.9 138.599 359.8 141.699C361.6 144.999 365.3 146.999 369.1 146.599C372.8 145.999 375.5 142.899 375.5 139.199C375.5 137.999 374.8 136.799 373.7 136.299C372.9 135.799 371.5 135.599 371.4 136.899Z" fill="#0C41E2"/>
<path d="M246.4 153.7V358.6C246.4 361.4 246.2 364.2 246.4 366.9V367.3C246.4 368.1 247.7 369.3 248.2 369.8C248.4 370 249.8 371.3 249.8 370.7V165.7C249.8 162.9 249.9 160.1 249.8 157.4C249.8 157.3 249.8 157.2 249.8 157C249.8 156.2 248.5 155 248 154.5C247.9 154.4 246.4 153.1 246.4 153.7Z" fill="#0C41E2"/>
<path d="M114.2 250.3H390.6C394.3 250.3 398.1 250.4 401.8 250.3C402 250.3 402.1 250.3 402.3 250.3C402.6 250.3 401 249.3 400.9 249.2C400 248.6 399.1 248.2 398 248H121.6C117.9 248 114.1 247.9 110.4 248C110.2 248 110.1 248 109.9 248C109.6 248 111.2 249 111.3 249.1C112.2 249.7 113.2 250.1 114.2 250.3Z" fill="#0C41E2"/>
<path d="M123.9 268.6L168.3 271.6C170.3 271.7 174.8 341.2 174.9 342.8C175 344.4 109.6 341 109.3 338.3C109 335.6 103.2 287.6 103.2 287.6C112.5 283.7 123.9 268.6 123.9 268.6Z" fill="#EDF1FE"/>
<path d="M123.8 271L146 272.5L161.3 273.5L166.3 273.9C166.8 273.9 167.3 274 167.7 274C167.8 274 168 274 168.1 274C167.8 274.1 166.9 273.3 166.7 273.1C166.5 272.9 166.3 272.3 166.5 272.8C166.3 272.4 166.3 272.2 166.4 272.7C166.5 273.2 166.6 273.6 166.7 274C166.9 275.4 167.1 276.7 167.3 278.1C167.5 280 167.7 281.9 167.9 283.7C168 284.8 168.1 285.9 168.2 287.1L168.3 288.7C168.3 288.8 168.3 289 168.3 289.1C168.3 288.7 168.3 289.1 168.3 289.2C168.3 289.6 168.4 290 168.4 290.3C169.4 301 170.2 311.6 171 322.3C171.3 326.6 171.6 331 171.9 335.3C172.1 337.6 172 339.9 172.4 342.2C172.4 342.3 172.4 342.4 172.4 342.5C172.6 342 172.8 341.6 173.1 341.1C173.3 341 173.7 340.8 173.4 340.9C173.9 340.7 174 340.8 173.5 340.9C172.5 341 171.5 341 170.5 341C166.7 341.1 163 340.9 159.2 340.8C148.7 340.4 138.7 339.9 128.1 339C123.8 338.6 119.5 338.3 115.3 337.7C113.9 337.5 112.6 337.3 111.2 337L110.5 336.8C109.8 336.6 110.8 337 110.4 336.8C110.3 336.7 110.1 336.7 110 336.6C110.3 336.7 110.5 336.9 110.7 337.2C110.8 337.4 111.1 338.5 111.2 338.1C111.2 337.9 111.2 337.8 111.1 337.6C111 337.1 111 336.6 110.9 336.1C110.7 334.4 110.5 332.8 110.3 331.1L108.7 316.4C107.6 307.3 106.5 298.2 105.4 289.1C105.3 288.6 105.3 288 105.2 287.5L104 289.9C109.6 287.4 114.2 282.9 118.3 278.6C120.9 275.9 123.3 273.1 125.6 270.1C127.3 267.9 123.5 264.7 121.7 267.1C119.7 269.7 117.5 272.3 115.2 274.7C111.4 278.8 107.1 283.2 101.9 285.4C101 285.8 100.5 286.8 100.7 287.8C101.6 295 102.4 302.2 103.3 309.4C104.4 318.6 105.6 327.9 106.6 337.1C106.7 338.3 106.8 339.4 107.9 340.2C108.8 340.8 109.9 341.2 111 341.4C114.4 342.1 117.8 342.5 121.2 342.8C131.9 343.9 142.6 344.5 153.3 345C157.9 345.2 162.6 345.4 167.2 345.5C169.7 345.7 172.2 345.6 174.7 345.3C176 345.3 176.9 344.2 176.9 342.9C176.9 342.1 176.8 341.4 176.7 340.6C176.5 337.1 176.2 333.7 176 330.2C175.2 319.5 174.5 308.8 173.6 298.1C173.2 293 172.7 287.9 172.2 282.7C171.9 279.5 171.6 276.2 170.9 273.1C170.8 272.1 170.4 271.1 169.8 270.2C169 269.2 167.9 269.1 166.7 269L154.8 268.2L125.6 266.2L123.7 266C120.8 266.1 121.1 270.8 123.8 271Z" fill="#6A90FF"/>
<path d="M123.9 268.6L124.3 288.6L103.2 287.7L123.9 268.6Z" fill="#EDF1FE"/>
<path d="M121.5 268.8L121.8 286.3V288.8L124.4 286.5L106 285.7L103.3 285.6L104.6 289.1L122.7 272.4L125.2 270C126.1 269.3 126.3 268 125.6 267.1L125.5 267C124.5 266.3 123 266.4 122.1 267.2L104.2 284L101.7 286.3C100.8 286.9 100.6 288.1 101.2 289C101.6 289.6 102.3 289.9 103 289.8L121.4 290.6L124.1 290.7C125.2 290.7 126.8 289.6 126.7 288.4L126.4 270.9V268.4C126.5 267.4 125.7 266.5 124.6 266.4C124.5 266.4 124.4 266.4 124.3 266.4C123.1 266.5 121.5 267.5 121.5 268.8Z" fill="#6A90FF"/>
<path d="M123.9 306.9C124.4 305.1 125.6 303.6 127.2 302.6C127.9 302.1 128.8 301.8 129.6 301.6C130.1 301.5 130.5 301.5 131 301.5C131.5 301.6 131.9 301.7 132.4 301.9C132.3 302 132 301.1 132.3 301.9C132.4 302.3 132.6 302.6 132.7 303C133.1 304.1 133.4 305.2 133.7 306.4C134.3 308.7 134.7 311 135 313.3C135.3 315.6 135.4 317.9 135.3 320.2C135.2 322 135.4 324.5 133.8 325.8C133.5 326.1 133.1 326.3 132.7 326.4C132.5 326.4 132.2 326.4 132 326.4C131.3 326.6 132.9 327.2 132.7 327.6C132.7 327.5 132.5 326.7 132.4 326.6C132.3 326.1 132.2 325.5 132.2 325C132 323.2 132.1 321.3 132.4 319.5C133.5 312.5 138.2 304.9 145.1 302.3C146.9 301.5 149 301.6 150.8 302.4C152 303.1 152.6 304.8 153 306.1C154.3 309.9 154.3 314.1 153.1 317.9C152.6 319.7 151.7 322.3 150.1 323.4C149.9 323.5 149.7 323.6 149.5 323.7C148.9 323.9 148.4 323.3 149.2 324.3C150 325.3 149.5 324.4 149.4 323.8C149.1 320.4 150.4 317.1 152.9 314.9C153.7 314.2 154.7 313.8 155.7 313.6C156.2 313.5 156.7 313.6 157.2 313.7C157.3 313.7 157.5 313.9 157.7 313.9C158.1 314.2 158 314 157.5 313.4C157.1 312.7 157 312.6 157.1 313.2C157.4 314.3 158 315.4 158.9 316.1C159.3 316.5 160.3 317.3 160.3 316.2C159.9 313.3 158 310.8 155.3 309.7C153 308.8 150.6 310.1 149 311.8C145.3 316 145.3 322.8 149.5 326.7C154.4 331.1 156.9 320.1 157.1 317C157.5 311.2 155.7 305.5 152 301C150.3 299 148.1 297.4 145.3 297.4C142.7 297.6 140.2 298.6 138.2 300.2C134.2 303.3 131.3 307.6 129.9 312.4C128.5 317 127.9 323.3 130.9 327.5C132.3 329.5 135.1 331.6 137.1 329C138.7 326.9 138.3 323.5 138.3 321.1C138.3 317.5 137.8 313.9 137 310.5C136.3 307.3 135.4 303.9 133.6 301.1C131.8 298.3 129.3 296.4 125.9 297.4C123.3 298.2 121.2 300.3 120.4 302.9C120.1 303.8 121.3 305.1 121.8 305.7C122.3 306.3 123.6 307.8 123.9 306.9Z" fill="#6A90FF"/>
<path d="M101.7 238.7C101.7 238.7 109 207.1 101.7 180.2H164.5C164.5 180.2 168.2 223.2 168.2 239.5L101.7 238.7Z" fill="#6A90FF"/>
<path d="M104 239.6C104.9 235.5 105.5 231.4 106 227.2C107.2 217.8 107.5 208.4 106.9 198.9C106.5 192.8 105.5 186.8 104 180.8L103.1 181.4H165.9L162.1 179.5C162.5 184.7 163 189.8 163.3 195C164.1 204.9 164.8 214.9 165.3 224.8C165.5 229.4 165.8 234.1 165.8 238.8L166.7 238.2L144.1 237.9L108.4 237.5L100.2 237.4C99.2 237.4 99.1 238 99.7 238.6C100.6 239.4 101.8 239.8 103 239.9L125.5 240.2L161.2 240.6L169.4 240.7C169.9 240.7 170.3 240.6 170.3 240.1C170.3 231 169.7 222 169.1 213C168.5 204.1 167.9 195.3 167.1 186.4C166.9 184.5 166.8 182.7 166.6 180.8C166.5 179.6 163.7 178.9 162.9 178.9H100.2C99.9 178.9 99.1 179 99.3 179.5C104 196.9 103.3 215.8 100.1 233.5C99.9 234.9 99.6 236.3 99.3 237.7C99 239.1 103.7 240.8 104 239.6Z" fill="#6A90FF"/>
<path d="M115 200.8C125.9 200.5 136.9 200.4 147.9 200.5C148.7 200.5 150.1 200.1 149.9 199C149.7 197.9 147.9 197.6 147 197.6C136 197.5 125.1 197.6 114.1 197.9C113.3 197.9 111.9 198.3 112.1 199.4C112.3 200.5 114.1 200.8 115 200.8Z" fill="#EDF1FE"/>
<path d="M116.8 219.6C131.2 219.7 145.5 219.4 159.9 218.9C160.9 218.9 161 218.1 160.3 217.6C159.3 216.9 158.1 216.6 156.9 216.7C142.9 217.2 128.9 217.4 114.8 217.4C114.1 217.4 113 217.6 113.6 218.5C114.2 219.4 115.9 219.6 116.8 219.6Z" fill="#EDF1FE"/>
<path d="M115.9 222.3C118.7 220.8 121.1 218.7 122.9 216.1C123.8 214.8 124.6 213.3 125.1 211.8C125.5 210.6 126.1 209 125.5 207.8C124.6 206.4 123.1 205.4 121.4 205.3C120 205.4 118.7 206.2 118 207.5C116.4 210 116.6 213.3 117.6 215.9C118.8 219 121.3 221.7 124.6 222.2C127.8 222.7 130.8 220.1 133 218.1C137.7 213.7 140.9 207.9 142.1 201.6C142.7 198.6 142.8 195.5 142.4 192.4C142.3 190.9 141.9 189.5 141.2 188.2C140.2 186.8 138.7 186 137 185.8C135.4 185.7 134.1 187.3 133.4 188.5C132.6 190 132 191.6 131.8 193.3C131.2 197.1 131.1 201 131.5 204.8C132 211.1 133.7 217.7 140 220.6C142.9 222 146.3 221.8 148.9 220C151.5 218.1 153.1 215.1 153.2 211.9C153.3 210.4 153.3 208.7 152.4 207.4C151.3 206.1 149.8 205.3 148.1 205.1C144.6 204.9 143.9 209.3 144 212C144.3 218.4 150.4 223.9 156.9 223.2C158.4 223 159.7 222.4 160.8 221.5C161.1 221.2 158.4 219 157.5 219.6C155.7 221.1 152.8 221.8 150.6 220.7C148.7 219.7 147.7 217 147.3 215C146.9 212.8 146.9 209.4 148.8 207.8C149 207.6 149.3 207.5 149.5 207.4C149.9 207.3 150.5 207.4 149.8 207C149.1 206.6 149.5 207 149.6 207.5C149.6 207.7 149.7 208 149.7 208.2C149.8 209.6 149.7 210.9 149.4 212.3C148.8 214.9 147.2 217.1 144.9 218.4C143.3 219.3 140.5 220.1 138.8 218.8C137.1 217.5 136.1 214.9 135.6 212.9C134.9 210.4 134.6 207.9 134.4 205.3C134.2 202.1 134.3 199 134.6 195.8C134.8 193.3 135.7 191 137.2 189C137.4 188.7 137.7 188.5 138 188.2C138.2 188.1 139 187.8 139 187.7L138 187L138.2 187.3C138.3 187.6 138.4 187.9 138.5 188.2C138.8 189.4 139 190.7 139.1 191.9C139.4 194.3 139.3 196.7 139 199C138.2 203.7 136.4 208.1 133.6 212C132.2 214 130.5 215.7 128.6 217.3C127.7 218.1 126.7 218.8 125.6 219.4C125 219.7 124.4 220 123.7 220.1C123.4 220.2 123.1 220.2 122.8 220.2C122.2 220.1 122.2 220.1 122.7 220.3L122.4 220C121.7 218.8 121.1 217.6 120.6 216.3C120.2 215 120.1 213.6 120.3 212.3C120.4 211.1 120.9 209.9 121.6 208.9C122 208.4 122.5 207.9 123 207.6L123.3 207.5C124.1 207.4 123.8 207 122.3 206.6C122.3 206.8 122.4 207.2 122.4 207.5C122.4 210.1 120.6 213 119.1 214.9C117.4 217.2 115.2 219 112.8 220.3C112.3 220.6 115.1 222.7 115.9 222.3Z" fill="#0C41E2"/>
<path d="M273.9 268.2C271 269.4 268.6 271.6 267.2 274.4C265.8 277.5 266.9 281.2 269.9 283C274.8 286.3 281.8 283.9 284.5 278.9C285.3 277.5 285.8 276 285 274.5C284.2 272.8 282.4 271.7 280.5 271.9C277.6 272.2 275.9 275.4 276.3 278.1C277 281.5 279.6 284.2 282.9 285C286.1 285.8 289.3 284.5 292 282.9C294.8 281.2 297.2 279 299.1 276.3C301 273.7 302.4 270.4 301 267.3C299.7 264.4 296.4 262 293.3 264C290.8 265.6 290 268.9 290 271.7C290.1 278 294.5 283.5 300.7 284.8C303.5 285.3 306.4 284.9 308.9 283.5C311.6 282 313.8 279.1 312.9 275.9C312 272.7 307.5 269.6 305.1 273.2C302.9 276.6 306.1 280.9 308.9 282.7C313.7 285.7 320.8 284.6 323.6 279.5C324.6 277.7 321.2 274.1 320.1 276.1C318.5 278.7 315.6 280.2 312.6 280C311.4 280 310.2 279.5 309.2 278.8C308.7 278.5 308.4 277.9 308.4 277.3C308.5 277 308.6 276.7 308.8 276.5C308.9 276.3 309.7 276 309.7 276.1C309.7 275.9 309.2 275.7 309.3 275.7C309.2 275.8 309.1 276.7 309 276.9C308.5 277.8 307.8 278.5 307 279C305.5 280 303.8 280.6 302 280.7C298.8 281 295.8 279.2 294.6 276.3C294 274.8 293.9 273.2 294.3 271.6C294.6 270.3 295.7 267.7 297.4 267.8C298.6 267.9 297.4 270.4 297 271C296 272.8 294.7 274.5 293.1 275.9C290.4 278.4 285.9 281.8 282 280.8C280.8 280.5 279.8 279.8 280.2 278.5C280.4 277.8 280.9 277.2 281.6 276.8C281.9 276.7 282.2 276.6 282.5 276.5C282.6 276.5 282.7 276.5 282.8 276.5C282.1 274.4 281.7 273.7 281.5 274.6C281.5 274.8 281.4 274.9 281.3 275.1C279.8 278.5 275.6 281.2 271.9 280.2C271.5 280.1 271.1 279.9 270.8 279.7C270.7 279.6 270.4 279.2 270.5 279.4C270.3 278.7 270.9 277.7 271.3 277.1C272.4 275.2 274.1 273.7 276.2 272.8C277.3 272.3 277.2 271.2 276.7 270.2C276.3 269.3 274.9 267.8 273.9 268.2Z" fill="#6A90FF"/>
<path d="M333.1 265.4C332.6 270.1 332.9 274.8 334 279.4C334.2 280.5 335.7 280.7 336.6 280.6C337.3 280.5 339.2 280 339 278.9C338 274.3 337.7 269.6 338.1 264.9C338.1 264.5 337.6 264.1 337.3 263.9C336.7 263.7 336.1 263.6 335.5 263.6C334.5 263.8 333.3 264.2 333.1 265.4Z" fill="#6A90FF"/>
<path d="M340.6 265.2V279.6C340.6 280.8 341.6 281.8 342.8 281.9C343.7 282 345.6 281.7 345.6 280.4V266C345.6 264.8 344.6 263.8 343.4 263.7C342.4 263.5 340.6 263.9 340.6 265.2Z" fill="#6A90FF"/>
<path d="M337 289L337.4 288.3C337.4 288.1 337.4 288 337.4 287.8C337.4 287.6 337.3 287.3 337.2 287.1C337.1 286.8 336.9 286.5 336.8 286.3C336.6 286 336.5 285.7 336.3 285.5L335.9 285C335.7 284.8 335.5 284.5 335.2 284.4L334.9 284.3C334.8 284.3 334.7 284.3 334.6 284.4C334.6 284.4 334.6 284.4 334.6 284.5L334.3 285.2C334.3 285.4 334.3 285.5 334.3 285.7C334.3 285.9 334.4 286.2 334.5 286.4C334.6 286.7 334.8 287 334.9 287.2C335.1 287.5 335.2 287.8 335.4 288L335.8 288.5C336 288.7 336.2 288.9 336.5 289.1L336.8 289.2C336.8 289.2 336.9 289.2 337 289Z" fill="#6A90FF"/>
<path d="M341 287.5C341.1 287.6 341.2 287.7 341.4 287.8H341.5C341.7 287.9 341.9 288 342.1 288H342.7H342.8C343 288 343.3 288 343.5 288H343.6L344.3 287.8H344.4L345 287.5H345.1L345.6 287.2H345.7L346.1 286.8V286.7C346.2 286.6 346.3 286.4 346.4 286.2C346.4 286.2 346.4 286.2 346.4 286.1C346.5 285.9 346.5 285.8 346.5 285.6V285.5C346.5 285.4 346.5 285.3 346.5 285.2C346.5 285.1 346.5 285 346.5 284.9C346.4 284.7 346.3 284.5 346.1 284.4C345.9 284.3 345.7 284.2 345.5 284.1C345.2 284 344.9 284 344.6 284.1C344.3 284.1 344 284.2 343.6 284.3L343 284.5C342.6 284.7 342.3 284.9 342.1 285.2L341.8 285.6C341.7 285.8 341.6 286.1 341.7 286.4V286.5V286.1C341.7 286.2 341.7 286.2 341.7 286.3L341.8 285.9C341.8 286 341.8 286 341.7 286L342 285.6L341.9 285.7L342.3 285.3L342.2 285.4L342.7 285.1L342.6 285.2L343.2 284.9H343.1L343.7 284.7H343.6H344.2H344.1H344.6H344.5L345 284.8C345 284.8 344.9 284.7 344.9 284.6L345.3 284.8C345.1 284.6 344.9 284.5 344.7 284.5C344.5 284.4 344.2 284.4 343.9 284.4C343.6 284.4 343.3 284.4 343 284.5C342.7 284.6 342.4 284.7 342.1 284.8L341.6 285.1C341.3 285.3 341.1 285.6 340.9 285.9L340.8 286.3C340.7 287 340.8 287.3 341 287.5Z" fill="#6A90FF"/>
<path d="M342.8 162.6H284.9V233.4H342.8V162.6Z" fill="#EDF1FE"/>
<path d="M342.2 231.2H284.3L287.3 233.8V163L285.5 164.9H343.4L340.4 162.3V233.1C340.4 235.8 345.2 236.9 345.2 233.8V163C345.1 161.5 343.8 160.3 342.2 160.4H284.3C283.3 160.5 282.5 161.3 282.5 162.3V233.1C282.6 234.6 283.9 235.8 285.5 235.7H343.4C344.5 235.6 345.3 234.7 345.2 233.6C345.2 233.5 345.2 233.3 345.1 233.2C344.8 232 343.6 231.1 342.2 231.2Z" fill="#6A90FF"/>
<path d="M295 176.3C294.7 177 294.5 177.7 294.5 178.4C294.5 178.9 294.5 179.3 294.6 179.8C294.7 180.3 294.9 180.7 295.1 181.1C295.3 181.5 295.6 181.9 295.9 182.3C296.2 182.6 296.5 182.9 296.8 183.2C297.2 183.6 297.8 183.6 298.3 183.4C298.4 183.4 298.5 183.3 298.5 183.2C298.7 183 298.8 182.8 298.8 182.6C299 181.9 299 181.1 298.8 180.4C298.6 179.4 298.1 178.5 297.4 177.7C296.9 177 296.2 176.6 295.4 176.4L297.7 180.7C297.9 180.7 298.2 180.6 298.4 180.5C298.6 180.4 298.8 180.2 298.9 180C299 179.8 299 179.6 298.9 179.4C298.9 179.1 298.8 178.9 298.7 178.7C298.5 178.1 298.1 177.5 297.7 177.1L297.3 176.7C297.1 176.5 296.8 176.3 296.5 176.1L296.2 176C296 176 295.8 176.1 295.8 176.3L296 176.1C295.9 176.3 295.7 176.4 295.5 176.5L295.8 176.4H295.7C295.6 176.4 295.4 176.4 295.4 176.6C295.3 176.7 295.2 176.9 295.3 177C295.3 177.2 295.3 177.5 295.4 177.7C295.5 178 295.6 178.3 295.7 178.5C296 179.1 296.4 179.6 296.8 180C297.1 180.3 297.5 180.5 297.9 180.6H298L297.7 180.5H297.8L297.4 180.3H297.5L297.1 180L297.2 180.1L296.8 179.7L296.9 179.8L296.5 179.3L296.6 179.4L296.3 178.8V178.9L296.1 178.3C296.1 178.4 296.2 178.4 296.2 178.5L296 178C296 178.1 296.1 178.3 296.1 178.4V178C296.1 178.3 296.1 178.6 296.1 178.9V178.6C296.1 178.8 296 179 295.9 179.2L296.1 179C296 179.1 295.9 179.2 295.7 179.3L296 179.2C295.9 179.2 295.8 179.2 295.7 179.2L296 179.3H295.9L296.3 179.5H296.2L296.6 179.8L296.5 179.7L296.9 180.1L297.3 180.6L297.6 181.2V181.1L297.8 181.7V181.6L297.9 182.1C297.9 182 297.9 181.9 297.9 181.9V182.3C297.8 181.9 297.8 181.4 297.9 181V181.3C298 180.9 298.1 180.4 298.3 180C298.4 179.8 298.4 179.6 298.3 179.4C298.3 179.1 298.2 178.9 298.1 178.7C297.9 178.1 297.5 177.5 297.1 177.1L296.7 176.7C296.5 176.5 296.2 176.3 295.9 176.1C295.4 176 295.1 176 295 176.3Z" fill="#6A90FF"/>
<path d="M309.1 182.6C311.1 181.2 312.9 179.6 314.6 177.8C315.2 177.2 316.3 176.3 316.2 175.4C316.2 174.2 314.7 173.6 313.7 173.5C311.6 173.1 309.1 173.8 308.2 176C307.6 177.8 308.3 179.9 310 180.9C313.2 183.4 320.6 184.2 322.5 179.5C323.5 176.9 321 175.4 318.6 175.6C317.5 175.6 316.5 176.2 316 177.2C315.4 178.3 315.3 179.6 315.7 180.8C316.8 183.1 320.2 183.4 322.4 183.4C325.3 183.5 328.1 182.8 330.7 181.5L326.8 181.1C329.2 183 332.5 183.3 335.3 182C336.2 181.5 336.2 180.7 335.4 180.2C334.3 179.6 333 179.6 331.9 180.1C331.5 180.3 331.4 180.2 331.7 180.3C331.6 180.2 331.4 180.2 331.3 180C330.2 179.2 328.7 179 327.4 179.6C325.8 180.5 324 180.9 322.2 180.8C321.6 180.8 321 180.8 320.7 180.2C320.3 179.4 320.8 178.1 321.3 177.4L320.6 178L317.9 177.8V178.2C317.8 178.4 317.8 178.7 317.7 178.9C317.5 179.4 317.1 179.7 316.7 180C316 180.3 315.3 180.2 314.7 179.8C313.9 179.4 313.3 178.7 313.1 177.8C313 177.4 313.1 176.9 313.3 176.5C313.4 176.3 313.5 176.2 313.6 176C313.6 175.9 313.7 175.9 313.8 175.8C314.4 175.3 313.8 175.3 311.9 175.7L311.3 175.1C311.6 175.5 309 177.7 308.6 178.1C307.5 179.2 306.3 180.1 305 181C304 181.7 305.1 182.6 305.8 182.8C306.8 183.3 308.1 183.1 309.1 182.6Z" fill="#6A90FF"/>
<path d="M296.4 197.3C296.1 198 295.9 198.7 295.7 199.4C295.6 199.9 295.5 200.4 295.5 200.9C295.5 201.3 295.7 201.7 296 202.1C296.3 202.4 296.7 202.7 297.2 202.8C297.8 202.9 298.5 202.9 299.2 202.8C299.9 202.6 300.5 202.4 301.1 202C301.6 201.6 302.1 201.2 302.5 200.6C302.8 200.1 303 199.5 303 198.9C303 198.7 303 198.6 303 198.4C303 198.1 302.9 197.8 302.8 197.5C302.6 197.1 302.4 196.7 302 196.3C301.6 195.9 301.1 195.7 300.5 195.8C300.2 195.8 299.9 195.8 299.6 195.9C299.3 196 299 196.1 298.7 196.3C298.2 196.6 297.8 197.1 297.6 197.6C297.4 198.1 297.5 198.6 297.9 198.9C298 199 298.1 199.1 298.2 199.3L298 198.9C298.1 199.1 298.2 199.4 298.3 199.6L298.2 199.1C298.2 199.3 298.2 199.6 298.2 199.8L298.3 199.3C298.3 199.5 298.2 199.6 298.2 199.8L298.4 199.3C298.3 199.4 298.3 199.6 298.2 199.7L298.6 199.3C298.5 199.4 298.4 199.5 298.3 199.6L298.8 199.2L298.5 199.4L299.1 199.1C299 199.2 298.9 199.2 298.8 199.2L299.4 199L299 199.1L299.6 199C299.5 199 299.4 199 299.2 199L299.8 199.1C299.7 199.1 299.7 199.1 299.6 199.1L300.1 199.3L300 199.2L300.4 199.5L300.3 199.4L300.6 199.8V199.7L300.7 200.2C300.7 199.8 300.7 199.5 300.8 199.1L300.7 199.6C300.8 198.9 301.1 198.1 301.4 197.5C301.6 197 301.5 196.5 301.1 196.1C300.7 195.7 300.2 195.5 299.6 195.6C298.9 195.6 298.3 195.8 297.7 196.2L297.2 196.6C296.9 196.9 296.7 197.2 296.6 197.5L296.4 197.3Z" fill="#6A90FF"/>
<path d="M309 202.9C312.5 202 316.1 200.1 318.3 197.1C319.4 195.6 320 193.5 318.6 192C317.2 190.7 315.1 190.4 313.4 191.2C311.8 192.1 310.6 193.5 310 195.3C309.3 197.1 309.7 199.2 311.1 200.7C313.6 203.2 318 204.2 321.4 204.2C323.6 204.2 326.1 203.3 327.2 201.2C328.1 199.4 327.4 197.2 325.6 196.2C324.4 195.6 323 195.9 322.1 196.9C321.3 197.8 321.2 199.1 321.8 200.2C322.6 201.2 323.7 202 324.9 202.3C327.3 203 329.9 202.9 332.3 202C333.4 201.6 333.9 200.4 333.6 199.4C333.6 199.3 333.6 199.3 333.5 199.2C332.8 198 331.3 198 330.2 198.4C329.4 198.7 328.6 198.7 327.9 198.6C327.3 198.5 326.8 198.3 326.3 198C326.5 198.2 326.5 198.6 326.3 198.9L322.8 199.6C322.2 199.2 322.9 199.5 322.7 199.7C322.6 199.8 322.5 199.8 322.4 199.9C321.5 200.2 320.1 199.8 319.2 199.6C317.8 199.3 314.2 198.5 314.6 196.5C314.7 196.2 315.5 194.8 315.4 194.7C315.3 194.6 314.5 194.6 314.6 194.6C314.4 194.6 314.6 194.4 314.4 194.5C314.2 194.6 313.9 195.2 313.8 195.4C312.2 197 310.3 198.2 308.1 198.8C307 199.1 305.8 200 306.1 201.3C306.6 202.6 307.8 203.3 309 202.9Z" fill="#6A90FF"/>
<path d="M295.5 215.1C295.4 215.3 295.4 215.6 295.3 215.8C295.3 215.9 295.3 216 295.3 216.2C295.3 216.5 295.3 216.8 295.3 217.1C295.4 217.7 295.6 218.2 295.8 218.7C295.9 218.8 296 218.9 296 219.1C296 219.3 296.2 219.3 296.3 219.5C296.5 219.7 296.6 219.9 296.8 220L296.9 220.1L297.5 220.5C297.6 220.6 297.7 220.6 297.9 220.6C298 220.7 298.1 220.7 298.3 220.7C298.5 220.8 298.7 220.8 298.9 220.8H299C299.2 220.8 299.4 220.8 299.5 220.7C299.6 220.7 299.7 220.7 299.7 220.6C299.9 220.5 300.1 220.4 300.3 220.2C300.5 220 300.6 219.9 300.7 219.7C300.7 219.6 300.8 219.5 300.8 219.5V219.4C300.9 219.2 300.9 219 301 218.8C301 218.5 301 218.2 301 217.9C301 217.8 301 217.6 301 217.5C300.9 217.1 300.8 216.6 300.7 216.2C300.6 215.9 300.5 215.6 300.2 215.4C300 215.1 299.8 214.9 299.5 214.7C299.3 214.5 299 214.4 298.7 214.3C298.5 214.2 298.2 214.1 297.9 214.1L297.4 214.2C297.1 214.3 296.9 214.5 296.7 214.8L296.6 215.2C296.6 215.6 296.6 215.9 296.7 216.3C296.8 216.5 296.8 216.7 296.9 216.9L296.8 216.3C296.8 216.5 296.9 216.7 296.9 216.9V216.4C296.9 216.5 296.9 216.7 296.8 216.8L296.9 216.3C296.9 216.5 296.8 216.6 296.7 216.7L297 216.3C296.9 216.4 296.8 216.5 296.7 216.6L297.1 216.4C297 216.4 296.9 216.5 296.8 216.5L297.3 216.4H297.1L297.6 216.5L297.4 216.4L297.9 216.6L297.8 216.5L298.3 216.8C298.2 216.8 298.2 216.7 298.2 216.7L298.7 217.2C298.7 217.2 298.6 217.1 298.6 217L299 217.6C299 217.5 298.9 217.5 298.9 217.4L299.1 218C299.1 217.9 299 217.8 299 217.7L299.1 218.3C299.1 218.2 299.1 218 299.1 217.9V218.4C299.1 218 299.2 217.7 299.3 217.3C299.3 217 299.3 216.8 299.3 216.5C299.3 216.2 299.1 215.9 299 215.6C298.8 215.3 298.6 215 298.4 214.8C298.2 214.6 297.9 214.4 297.6 214.2L297.1 214C296.8 213.9 296.4 213.9 296.1 214L295.7 214.2C295.8 214.6 295.6 214.8 295.5 215.1Z" fill="#6A90FF"/>
<path d="M311.6 220.6C314.6 220 317.1 218 318.5 215.2C319.2 213.9 319.4 212.5 319.2 211.1C318.9 210.3 318.4 209.7 317.7 209.4C316.6 208.7 315.3 208.2 314 207.9C312.3 207.7 311.3 209.6 311.2 211C311.1 212.6 311.7 214.2 312.9 215.3C314.5 216.7 316.3 217.8 318.3 218.5C320.1 219.2 321.9 219.5 323.8 219.4C324.8 219.3 325.8 219.1 326.8 218.7C327.5 218.4 328.6 218 328.9 217.2C329.1 216.5 328.8 215.8 328.2 215.4C327 214.5 325.5 213.9 324 213.6C323.9 213.5 323.7 213.6 323.6 213.7C323.1 215.1 324.8 216 325.8 216.6C326.8 217.2 327.8 217.6 328.9 217.8C329.8 217.9 330.7 218 331.5 218C332.5 218.1 331.1 217.2 330.9 217.1C329.9 216.5 328.9 216 327.7 215.8C327.1 215.7 326.5 215.6 325.9 215.7L328.1 216.8L328 216.6C328 216.2 327.9 216.2 328 215.8L327.6 215.9H327.8L325.8 215.2L326 215.3L324.1 214.2C324.7 214.7 324 215.6 323.6 216C322.9 216.5 322.1 216.8 321.3 217C320.5 217.2 319.7 217.3 318.9 217.4C318.4 217.4 317.9 217.4 317.4 217.3C317.1 217.3 316.2 216.9 317.2 217.4C318.2 217.9 317.4 217.4 317.2 217.2C316.9 216.9 316.6 216.6 316.4 216.2C316 215.5 315.7 214.8 315.6 214C315.5 213.3 315.6 212.6 315.9 211.9C316 211.5 316.3 211.2 316.5 210.8C316.6 210.6 316.8 210.5 317 210.4C317.5 210.3 317.6 210.2 317.1 210L314.8 209C314 208.5 314.4 208.8 314.6 209.2C314.7 209.5 314.7 209.8 314.7 210.1C314.7 210.7 314.6 211.2 314.5 211.7C314.2 212.8 313.7 213.9 313 214.8C311.6 216.7 309.6 218.1 307.3 218.6C306.8 218.7 308.6 219.7 308.7 219.8C309.4 220 310.7 220.8 311.6 220.6Z" fill="#6A90FF"/>
<path d="M300 309.5L269.5 309.9C268.1 309.9 270.2 360.1 270.2 361.2C270.2 362.3 315.2 362.6 315.2 360.6C315.2 358.6 315.7 324.2 315.7 324.2C309 320.9 300 309.5 300 309.5Z" fill="#EDF1FE"/>
<path d="M299.5 307.3L282.9 307.5L272.3 307.6C270.9 307.6 268.1 307.1 267.5 308.8C267.1 310.5 267 312.2 267.1 313.9C267.1 317 267.1 320.1 267.1 323.1C267.2 330.8 267.4 338.5 267.7 346.3C267.8 350.9 267.9 355.6 268.2 360.2C268.4 362.9 270.3 363.6 272.6 363.8C275.1 364 277.7 364.1 280.2 364.2C287.7 364.4 295.3 364.4 302.8 364.2C306 364.1 309.2 364 312.3 363.7C313.6 363.6 316.1 363.6 316.9 362.4C317.2 361.7 317.3 360.9 317.2 360.2V356.8C317.2 353.2 317.3 349.7 317.3 346.1C317.4 339.4 317.5 332.8 317.6 326.1C317.6 325.7 317.6 325.3 317.6 324.9C317.5 323.6 316.8 322.5 315.6 322C312.1 320.3 308.9 316.9 306.1 314C304.8 312.7 303.6 311.3 302.4 309.9L301.8 309.1L301.6 308.9C301.3 308.5 302 309.4 301.7 309L301.3 308.5C300.7 307.7 299.5 306.7 298.5 307.4C297.5 308.1 297.9 309.7 298.5 310.4C300.4 312.7 302.3 315 304.4 317.1C307.7 320.6 311.3 324 315.6 326.2L313.6 323.3C313.4 334.8 313.2 346.3 313.1 357.8C313 358.4 313 359 313.1 359.7C312.8 359.5 313.5 358.7 313.6 358.6C313.5 358.7 313.2 358.7 313.8 358.5C313.5 358.6 313.3 358.7 313 358.7C310.8 359.1 308.6 359.3 306.3 359.3C299.5 359.6 292 359.7 285 359.6C281.8 359.6 278.6 359.5 275.4 359.4C273.6 359.3 271.8 359 270 359C269.8 359 270.6 359.2 270.2 359C271.2 359.6 271.8 360.6 272.1 361.8C272.1 361.6 272.1 361.5 272.1 361.3C272.1 360.6 272.1 359.9 272 359.3L271.7 351.8C271.5 344.5 271.2 337.2 271.1 329.8C271 324 270.7 318.2 271.1 312.5C271.1 312.2 271.2 311.9 271.2 311.5C271.2 311.1 271 312.1 271.2 311.6C271.2 311.5 271.2 311.4 271.3 311.3C271.2 311.5 270.7 312.1 270.1 312C270.4 312 270.7 312 270.9 312L279.1 311.9L299.1 311.6H300.4C303.3 311.8 301.7 307.2 299.5 307.3Z" fill="#0C41E2"/>
<path d="M300 309.5L301.2 324L315.7 324.2L300 309.5Z" fill="#EDF1FE"/>
<path d="M297.6 309L298.6 321.6L298.7 323.4C298.7 323.9 299.5 324.3 299.9 324.5C300.6 324.9 301.3 325.1 302 325.1L314.6 325.3H316.4C317.4 325.3 318.4 325 317.4 324L303.6 311.2L301.7 309.4C300.8 308.6 299.6 308.2 298.3 308.3C297.3 308.4 297.2 309 297.9 309.6L311.7 322.5L313.6 324.3L314.6 323L301.9 322.8H300.1L303.4 324.5L302.3 311.9L302.2 310.1C302.2 309.7 301.5 309.3 301.3 309.2C300.7 308.9 300.1 308.6 299.5 308.5C299.1 308.3 297.5 308.1 297.6 309Z" fill="#0C41E2"/>
<path d="M278.5 338.6C278.1 340.5 277.7 342.6 278.9 344.1C280.1 345.4 282 345.8 283.6 345.1C285.2 344.4 286.5 343.3 287.5 341.9C288.3 340.9 289 339.8 289.3 338.6C289.6 337.3 289.2 336 288.3 335.1C287.3 334.3 285.9 334.4 285 335.4L284.9 335.5C284.6 336.2 284.5 337.1 284.7 337.9C285.1 340.4 286 342.8 287.2 345C287.4 345.4 287.7 345.7 288.1 346C288.5 346.2 288.9 346.2 289.3 346.1C293.2 345.6 296.1 342.2 297.8 338.6C299.1 335.9 299.7 333 299.6 330C299.6 329.1 299.3 328.2 298.8 327.4C298.3 326.6 297.4 326.2 296.4 326.4C294.9 326.8 294.5 328.6 294.5 330.1C294.5 335.2 296.1 340.1 299.1 344.3C299.7 345.4 300.7 346.2 301.8 346.6C303.1 346.8 304.4 346.5 305.3 345.6C306.2 344.7 307 343.7 307.6 342.6" fill="#EDF1FE"/>
<path d="M276.1 338.7C275.7 340.6 275.3 342.8 276.3 344.6C277.3 346.3 279.2 347.3 281.2 347.2C285.5 347.3 289.6 343.4 291.2 339.6C292.1 337.8 291.9 335.7 290.7 334.1C289.4 332.5 287 332.3 285.2 333.1C280.4 335.1 282.6 341.2 284.4 344.7C284.8 345.6 285.3 346.3 285.9 347C286.8 347.7 288 348 289.2 347.7C291.3 347.4 293.3 346.6 294.9 345.2C298.1 342.5 300.4 338.8 301.4 334.7C302.3 331.3 302.8 324.3 297.6 324.3C295.4 324.3 293.5 325.6 292.7 327.6C292.1 329.4 292 331.4 292.3 333.2C292.8 338 294.7 342.5 297.6 346.2C299.1 348.1 301.6 348.8 303.9 348C306.6 347.1 308.3 345.1 309.8 342.8C310.2 342.2 310.1 341.3 309.4 340.9C309.2 340.8 309 340.7 308.8 340.7C307.5 340.5 306.3 341.1 305.6 342.2C305.1 342.9 304.5 344.2 303.7 344.6C302.9 345 302.1 344 301.6 343.4C300 341.3 298.8 338.9 298.1 336.4C297.2 334 296.9 331.4 297 328.8C297 328.5 297.3 327.9 297.3 327.7C297 327.5 296.6 327.7 296.3 328.1C296.3 328.4 296 327.4 296.4 328.2C296.6 328.7 297 328.9 297.1 329.5C297.3 330.2 297.3 331 297.3 331.7C297.2 334.3 296.5 336.9 295.2 339.2C294.2 341 292.9 342.9 291 343.7C290.7 343.9 290.4 344 290 344C290 344 290 344.1 289.8 343.9C289.6 343.7 289.5 343.4 289.4 343.1C288.7 341.9 288.2 340.6 287.8 339.2C287.6 338.5 287.4 337.8 287.3 337.1C287.3 336.8 287.2 336.6 287.2 336.3C287.2 335.7 287.4 335.8 287 335.9C287 335.9 286.4 336.5 286.3 336.3L286.5 336.4C286.6 336.8 287.1 337.1 287.2 337.6C287.4 339 286.6 340.2 285.7 341.2C285.1 342.1 284.3 342.8 283.4 343.2C282.4 343.5 281.4 343 281 342.1C280.4 340.9 280.8 339.4 281 338.2C281.3 335.7 276.6 336.6 276.1 338.7Z" fill="#0C41E2"/>
<path d="M213.7 149.9L183.2 150.3C181.8 150.3 183.9 200.5 183.9 201.6C183.9 202.7 228.9 203 228.9 201C228.9 199 229.4 164.6 229.4 164.6C222.8 161.3 213.7 149.9 213.7 149.9Z" fill="#EDF1FE"/>
<path d="M214.4 148L197.8 148.2L187.2 148.3C185.1 148.3 181.9 147.9 181 150.4C180.6 152 180.5 153.6 180.6 155.3C180.5 158.3 180.6 161.4 180.6 164.4C180.7 172.2 181 179.9 181.2 187.7C181.3 192.4 181.3 197.1 181.7 201.8C181.9 203.7 184 203.6 185.5 203.8C188.1 204 190.8 204.1 193.4 204.2C201 204.4 208.5 204.4 216.1 204.2C219.1 204.1 222 204 225 203.7C227 203.5 230 203.5 231.2 201.6C231.5 200.9 231.6 200.2 231.5 199.5V196.1C231.6 192.5 231.6 188.9 231.6 185.3C231.7 178.6 231.8 172 231.9 165.3C231.9 164.9 231.9 164.5 231.9 164.1C231.9 163.6 231.6 163.2 231.2 163C227.3 161 224.1 157.8 221.1 154.6C219.3 152.7 217.5 150.7 215.9 148.6C214.5 146.9 210.2 149.3 211.8 151.3C213.5 153.5 215.4 155.5 217.2 157.5C220.3 160.8 223.8 164.2 227.8 166.2L227 165C226.8 176.5 226.6 188 226.5 199.6C226.4 200.2 226.4 200.8 226.5 201.5C226.3 201 227.2 200.2 227.6 199.9C227.3 200.1 228.4 199.5 227.9 199.7C227.4 199.9 228.7 199.6 228.2 199.6C228 199.6 227.8 199.7 227.6 199.7C227.2 199.8 226.8 199.8 226.4 199.9C226.2 199.9 225.5 200 226.2 199.9L225.2 200C223.9 200.1 222.6 200.2 221.2 200.2C214 200.6 206.7 200.6 199.5 200.5C196.4 200.5 193.2 200.4 190.1 200.3C189 200.2 187.9 200.2 186.7 200.1L186.1 200C186.9 200.1 186.3 200 186.1 200C185.8 199.9 185.6 199.9 185.3 199.9C184.9 199.9 185.7 200.1 185.6 200C185.8 200.1 186.4 200.7 186.3 201C186.3 200.9 186.3 200.7 186.3 200.6C186.3 199.9 186.3 199.3 186.2 198.6C186.1 196.2 186 193.7 185.9 191.3C185.6 184 185.4 176.6 185.3 169.3C185.2 163.5 184.9 157.7 185.3 151.9C185.3 151.5 185.3 151.2 185.4 150.9C185.4 150.8 185.4 150.7 185.4 150.5C185.4 150.3 185.2 151 185.4 150.6C185.5 150.4 185.5 150.5 185.2 150.9C184.8 151.5 182 152.1 182.7 152.2C183 152.2 183.3 152.2 183.6 152.2L191.7 152.1L211.8 151.8H213.1C214.4 151.8 215.5 151.1 216 149.9C216.4 148.8 215.4 148 214.4 148Z" fill="#6A90FF"/>
<path d="M213.7 149.9L214.9 164.3L229.4 164.6L213.7 149.9Z" fill="#EDF1FE"/>
<path d="M211.3 150.3L212.4 162.9L212.6 164.7C212.7 165.5 214 165.7 214.6 165.7L227.3 165.9H229.1C229.9 165.9 230.8 165.6 231.4 165.1C231.7 164.8 232.3 164.1 231.8 163.7L218 150.9L216.1 149.1C215.2 148.4 214 148.2 212.9 148.7C212.4 148.9 210.6 149.9 211.5 150.7L225.3 163.6L227.2 165.4L229.9 163.2L217.2 163H215.4L217.4 164L216.4 151.4L216.2 149.6C216.1 148.5 214.2 148.5 213.5 148.7C212.8 148.9 211.2 149.2 211.3 150.3Z" fill="#6A90FF"/>
<path d="M195.1 186.3C195.1 184.1 195.9 181.9 197.5 180.3C198.3 179.5 199.4 178.9 200.5 178.6C201.4 178.4 202 178.2 202.4 178.9C203.9 181 204.7 183.5 204.7 186.1C204.7 187.2 204.5 188.3 204.1 189.4C203.9 190 202.9 192 202.2 192.1L204.1 192.2C205.1 192.4 204.7 192 204.7 191.3C204.7 190.9 204.8 190.5 204.9 190C205.1 189.2 205.4 188.4 205.8 187.7C206.5 186.3 207.4 184.9 208.5 183.7C208.8 183.4 209 183.1 209.3 182.8L209.6 182.5C210.3 182.1 210 181.9 208.7 181.9C209 182.3 209.7 182.7 210.1 183.1C211 184.2 211.7 185.4 212 186.8C212.3 188.1 212.4 189.5 212.1 190.8C212.1 191 212 191.3 211.9 191.5L214.4 192C214.4 191.9 214.2 191 214.2 190.7C214.3 189.9 214.5 189.2 214.9 188.5C216.1 186.1 218.4 184.4 221 183.9C221.7 183.8 222.8 183.4 222.1 182.6C221.4 181.8 219.7 181.6 218.8 181.7C215.6 182 212.8 183.6 210.9 186.2C210 187.4 209.4 188.9 209.3 190.4C209.3 192.3 210.9 193.2 212.5 193.6C214.1 194 216.3 193.9 216.9 192C217.3 190.6 217.3 189 217 187.6C216.4 184.4 214.3 181.6 211.3 180.3C209.5 179.6 207.2 179.5 205.5 180.7C204.2 181.8 203.1 183.1 202.2 184.6C200.7 186.9 197.8 192.1 201.7 193.7C203.5 194.5 205.5 194.2 207.1 193.1C208.3 192 209.2 190.5 209.5 188.8C210.3 185.5 209.2 181.7 207.3 178.8C205 175.3 199.3 175.5 195.9 176.9C192.4 178.3 190.1 181.7 190.1 185.5C190.2 187.1 195.1 187.6 195.1 186.3Z" fill="#6A90FF"/>
<path d="M162.1 354.7C162.1 354.7 165.6 339.4 162.1 326.5H192.4C192.4 326.5 194.2 347.3 194.2 355.1L162.1 354.7Z" fill="#0C41E2"/>
<path d="M164.4 354.9C166.6 345.5 166.9 335 164.4 325.7L161.4 328.5H191.7L189.9 326.9C190.7 336.4 191.7 346 191.7 355.5L194.8 353.2L166.7 352.8H162.7C161.4 352.7 160.2 353.4 159.7 354.6C159.5 355.5 160 356.4 160.9 356.6C161.1 356.6 161.3 356.7 161.4 356.7L189.5 357.1H193.5C194.7 357.1 196.6 356.3 196.6 354.8C196.6 345.3 195.6 335.7 194.8 326.2C194.7 325.3 193.9 324.6 193 324.6H162.7C161.3 324.6 159.2 325.6 159.7 327.4C161.2 333.5 161.6 339.7 161 345.9C160.8 348.8 160.4 351.8 159.8 354.7C159.1 357.4 163.9 357.1 164.4 354.9Z" fill="#0C41E2"/>
<path d="M170.2 344.5C172.4 345.8 174.3 347.5 175.8 349.6C176.2 350.2 176.8 350.7 177.6 350.9C178 351 178.8 351.2 179.2 350.7C182.4 345.8 185.5 340.8 188.5 335.7C188.7 335.3 188.5 334.6 188.3 334.2C188 333.6 187.6 333.1 187 332.7C186.1 332.1 185 331.9 184.4 332.9C181.6 337.7 178.6 342.5 175.6 347.1L178.9 348.2C176.9 345.4 174.3 343.1 171.4 341.3C170.6 340.8 169.2 340.4 168.8 341.5C168.4 342.6 169.3 343.9 170.2 344.5Z" fill="#EDF1FE"/>
<path d="M356.2 213.1C356.2 213.1 359.7 197.8 356.2 184.9H386.5C386.5 184.9 388.3 205.7 388.3 213.5L356.2 213.1Z" fill="#0C41E2"/>
<path d="M358.1 214.1C358.8 210.9 359.2 207.7 359.5 204.5C360.1 197.9 359.6 191.2 358 184.7L356.8 187.2H387.1L384.5 184.4C385.3 193.9 386.3 203.5 386.3 213L387.6 211.1L359.5 210.7L355.5 210.6C354.3 210.6 354.1 212.3 354.3 213.2C354.6 214.4 355.6 215.3 356.8 215.4L384.9 215.8L388.9 215.9C389.9 215.9 390.2 214.7 390.2 214C390.2 204.4 389.2 194.9 388.4 185.4C388.4 183.9 387.2 182.8 385.8 182.6H355.5C354.3 182.6 354.1 184.3 354.3 185.1C355.7 191 356.1 197.2 355.5 203.2C355.3 206.2 354.8 209.2 354.2 212.1C353.7 214.3 357.4 217.1 358.1 214.1Z" fill="#0C41E2"/>
<path d="M367 193.7H373L371 192.6C370.4 194.2 369.6 195.8 368.8 197.3C368.4 197.9 369.5 198.2 369.9 198.3C370.8 198.4 371.8 198.3 372.7 197.9C372.7 197.9 373.4 197.6 373 197.7C373.5 197.5 373 197.7 372.9 197.7C373.2 197.6 373.1 197.8 372.9 197.7C373.1 197.8 373.1 197.8 373.2 197.8C373.8 198.1 374.3 198.6 374.5 199.3C375.1 201 375 202.9 374.1 204.5C374 204.8 373.8 205.1 373.5 205.4C373.5 205.4 373.1 205.7 373.3 205.6L373.2 205.7L373.4 205.6C373.7 205.5 373.7 205.5 373.4 205.6H373.6C373.6 205.6 372.9 205.6 373.3 205.6C373.1 205.6 372.9 205.6 372.6 205.6C372.5 205.6 372 205.5 372.3 205.6C371 205.5 369.8 204.8 369.1 203.6C368.7 202.7 367.2 202.8 366.4 202.9C366 203 363.8 203.6 364.1 204.4C364.9 206.1 366.5 207.2 368.3 207.6C370.7 208.3 373.3 208.1 375.7 207.2C377.7 206.3 379.1 204.5 379.4 202.4C379.9 200.4 379.5 198.3 378.1 196.8C375.9 194.7 372.2 195.3 369.6 196.5L373.4 197.1C374.3 195.6 375 194 375.6 192.4C376 191.4 374.1 191.3 373.6 191.3H367.6C366.7 191.3 365 191.7 364.7 192.6C364.4 193.5 366.1 193.7 366.7 193.7H367Z" fill="#EDF1FE"/>
<path d="M340.4 391.2C340.4 391.2 347.7 359.5 340.4 332.7H403.2C403.2 332.7 406.9 375.7 406.9 392L340.4 391.2Z" fill="#6A90FF"/>
<path d="M342.8 390.6C343.7 386.6 344.3 382.5 344.8 378.3C346 369 346.3 359.5 345.7 350.1C345.3 344 344.3 338 342.7 332.1L338.6 333.4H401.4L400.6 333.2C401 338.4 401.4 343.5 401.8 348.7C402.6 358.6 403.3 368.6 403.8 378.5C404 383.1 404.3 387.8 404.3 392.5L408.4 391.2L385.9 390.9L350.2 390.4L342 390.3C340.8 390.3 339.6 390.6 338.5 391.1C337.7 391.5 337.7 391.7 338.6 391.8L361.1 392.1L396.8 392.5L405 392.6C405.6 392.6 409.1 392.2 409.1 391.3C409.1 382.3 408.5 373.2 407.9 364.2C407.3 355.3 406.7 346.5 405.9 337.6C405.8 335.7 405.6 333.9 405.4 332.1C405.4 331.9 404.6 331.9 404.6 331.9H342C341.5 331.9 337.7 332.5 337.9 333.2C342.6 350.7 341.9 369.7 338.7 387.4C338.5 388.8 338.2 390.2 337.9 391.6C337.8 392 340.3 391.5 340.4 391.5C341 391.5 342.7 391.3 342.8 390.6Z" fill="#6A90FF"/>
<path d="M356.4 356.1C356.7 355.4 357.2 354.9 357.9 354.8C357.9 354.8 358.5 354.7 358.3 354.7C358.4 354.7 359 354.7 358.6 354.7C360 354.7 357.6 354.6 357.6 354.5C357.6 354.6 358 354.9 358.1 355C361.2 359.5 360.1 365.7 355.6 368.8C354.8 369.4 353.8 369.8 352.8 370.1C351.9 370.4 353.1 370.8 353.4 370.9C354.5 371.2 355.6 371.3 356.7 371.1C360 370.5 363.4 370.3 366.8 370.3C367.1 370.3 368.9 370.4 368.6 369.7C368.5 369.4 367.7 369.3 367.5 369.2C366.9 369.1 366.2 369 365.6 369C361.5 368.9 357.4 369.2 353.3 369.9L357.2 371C362.7 369.5 366.1 363.9 364.6 358.3C364.3 357.3 363.9 356.3 363.4 355.4C362.3 353.6 360.2 353.4 358.3 353.3C356.2 353.2 352.5 353.1 351.6 355.5C351.4 356 353.8 356.3 354 356.3C354.3 356.5 356.1 356.8 356.4 356.1Z" fill="#0C41E2"/>
<path d="M371.9 351.9C369.9 353.7 368.5 356.1 368 358.8C367.7 360.1 367.6 361.5 367.7 362.9C367.6 364.4 368 365.9 368.9 367.2C370.1 368.5 371.7 369.4 373.4 369.8C375.2 370.4 377 370.5 378.8 370.2C381.8 369.4 383.3 366.4 383.3 363.5C383.3 360 381 357 378.6 354.6C377.7 353.8 376.4 353.5 375.2 353.7C374.2 353.9 374 354.8 374.7 355.5C376.5 357 377.7 359 378.3 361.3C378.7 363.3 378.3 365.8 376.6 367.1C376.3 367.3 376 367.5 375.6 367.6C375.2 367.6 374.8 367.6 374.5 367.4L374.1 367.3H374C374.3 367.4 373.9 367.3 373.9 367.3C373.9 367.3 373.6 367.2 373.5 367.1C373.9 367.3 373.3 366.9 373.5 367.1C373.3 367 373.2 366.8 373.1 366.6C372.7 365.6 372.5 364.5 372.6 363.4C372.6 362.3 372.7 361.2 373 360.2C373.4 357.8 374.7 355.7 376.5 354.1C377.4 353.4 375.7 352.3 375.2 352.1C374.1 351.3 372.8 351.3 371.9 351.9Z" fill="#0C41E2"/>
<path d="M390.4 351.5C390 355.5 389.2 359.5 388.1 363.3C387.1 367.2 386.1 371 385.1 374.9C384.8 376.1 389.6 375.6 389.9 374.3C390.9 370.3 392 366.3 393 362.2C394.1 358.3 394.8 354.3 395.3 350.3C395.3 349.4 390.5 349.9 390.4 351.5Z" fill="#0C41E2"/>
<path d="M382.2 352.5C381.8 352.7 381.6 353.1 381.6 353.5C381.6 354.2 381.9 354.9 382.3 355.5C382.8 356.3 383.5 357 384.2 357.6C384.6 357.9 385 358.2 385.4 358.4C385.9 358.6 386.4 358.7 386.9 358.7C388.7 358.5 390 356.9 389.9 355.1C389.7 354.2 389.3 353.3 388.7 352.6C388.2 352 387.7 351.4 387.1 350.9C386.7 350.5 386.2 350.2 385.6 350.1C385.3 350 385.4 350.5 385.4 350.6C385.6 351.1 385.9 351.5 386.2 351.9C386.6 352.4 387 352.9 387.5 353.3C387.8 353.6 388.1 353.8 388.5 353.9H388.6L388.3 353.8H388.4C388.6 353.9 388.2 353.7 388.2 353.7C388 353.5 387.7 353.3 387.5 353.1C387.1 352.7 386.7 352.2 386.3 351.7C386.2 351.5 386.2 351.5 386.2 351.6C386.2 351.7 386.2 351.6 386.2 351.5C386.2 351.4 386.2 351.4 386.2 351.5C386.2 351.6 386.3 351.7 386.3 351.8L386.2 351.5C386.3 352 386.3 352.4 386.2 352.9V352.7C385.9 353.8 384.9 354.7 383.8 355H384C383.6 355.1 383.1 355.1 382.7 354.9L383 355L382.8 354.9C382.7 354.8 382.7 354.9 383 355C382.9 354.9 382.9 355 383.1 355.1C383.9 355.7 384.5 356.4 385 357.3L385.1 357.6C385 357.4 385 357.1 385.1 356.9L385 357.1C385.1 356.8 385.3 356.6 385.5 356.5C385.7 356.4 385.3 355.7 385.3 355.7C385 355.2 384.6 354.7 384.2 354.3C383.8 353.8 383.4 353.4 382.9 353.1C382.7 353 382.4 352.7 382.1 352.8L382.2 352.5Z" fill="#0C41E2"/>
<path d="M392.1 369C391.9 369.8 391.9 370.7 392.1 371.5C392.2 371.9 392.5 372.2 392.8 372.5C393 372.6 393.2 372.7 393.4 372.7C394.1 372.8 394.8 372.8 395.6 372.8C396.6 372.8 397.7 372.7 398.7 372.4C399 372.3 399.3 372.2 399.6 372C400 371.7 400.4 371.4 400.6 370.9C401.1 369.9 401.1 368.8 400.7 367.8C400.5 367.3 400 366.9 399.5 366.7C398.8 366.6 398 366.5 397.3 366.6C396.1 366.6 395 366.8 393.9 367.1C393.6 367.2 394.3 367.3 394.2 367.3C394.7 367.3 395.2 367.3 395.7 367.3C396.7 367.3 397.8 367.2 398.7 366.9L394.7 367.2C394.6 367.2 394.6 367.2 394.6 367.2H394.8C394.9 367.2 395 367.3 395.1 367.4L395 367.3C395.7 367.9 396 368.8 395.9 369.7C395.9 370.6 395.5 371.4 394.9 372.1L395 372C394.9 372.1 394.8 372.2 394.7 372.2L394.5 372.3C393.2 372.8 398.2 371.9 398.2 372.1C398.3 372.1 398.2 372.3 398.2 372.1H398C397.9 372.1 397.7 372 397.6 371.9L397.7 372C396.6 371.3 396.8 369.7 397.1 368.6C397.1 368.4 394.8 368.5 394.6 368.5C394 368.5 393.4 368.6 392.8 368.7C392.7 368.8 392.2 368.9 392.1 369Z" fill="#0C41E2"/>
<path d="M261.4 390.1C257.5 401 244.6 403.8 234.3 403.7C231.8 403.7 229.4 403.4 227 402.7C226.5 402.6 226.1 402.3 225.6 402.2C225.1 402.1 225.9 402.5 225.4 402.1C224.4 401.3 223.5 400.3 222.8 399.3C221.4 396.9 220.6 394.3 220.4 391.6C220.2 389.7 219.4 385.5 222.6 385.9C222.8 385.9 222.9 386 223.1 386C219.9 385.7 220.9 384.4 221.5 385.2C221.8 385.6 222.1 385.9 222.3 386.2C224 389 223.6 392.6 221.3 395C217.9 398.6 212.2 399.1 207.6 397.8C203 396.5 199.4 392.6 196.8 388.7C193.6 384 191.4 378.6 189.4 373.2C189.2 372.7 188.4 371.2 188.7 370.7C189 370.3 189.5 370.1 190 370.1C190.3 370.1 190.5 370.1 190.8 370.1C192.1 370.2 190.4 370.8 189.6 369.2C189.8 369.6 190.2 369.9 190.5 370.2C191.9 372.4 190.8 375.1 189.1 376.7C188.2 377.6 187.1 378.3 185.9 378.8C185.3 379.1 184.6 379.3 183.9 379.5C183.6 379.6 183.3 379.6 183 379.7C182.7 379.8 182.3 379.8 182 379.7C184.3 381.4 185.1 381.8 184.4 380.9C183.9 380 183.6 378.9 183.5 377.9C183.5 376.7 183.6 375.6 183.9 374.4C184.1 373.5 179.5 371.9 179.5 372C179.1 373.6 179 375.2 179.3 376.8C179.6 378.3 180.5 379.5 181.8 380.2C183.9 381.5 185.9 382.5 188.4 381.8C190.2 381.3 191.8 380.5 193.2 379.3C195.9 377 196.5 373.4 193.8 370.8C192.2 369.3 190.2 368.2 188.1 367.6C186.8 367.1 185.3 367.3 184.3 368.3V368.4C188 378.5 192.1 388.7 201.2 395.1C205.4 398 210.4 400.4 215.5 400.7C219.7 400.9 224.8 399.5 226.9 395.5C228.9 391.9 227.2 387.7 224 385.5C222.3 384.4 219.2 382.4 217.1 383.3C215 384.2 215.9 387.6 216.1 389.3C216.3 391.8 217 394.2 218.2 396.4C219.4 398.4 221 400.1 223 401.3C227.1 404 231.8 405.6 236.8 405.9C247.5 406.5 261.7 403.8 265.8 392.3C266 391.7 261.5 389.7 261.4 390.1Z" fill="#6A90FF"/>
<path d="M183.1 212.5L180.7 227C180.5 228 185.5 228.9 185.6 227.9L188 213.4C188.2 212.4 183.2 211.5 183.1 212.5Z" fill="#6A90FF"/>
<path d="M178 234.6C178 234.7 178 234.8 178 235C178 235.1 178 235.3 178.1 235.4C178.2 235.6 178.3 235.8 178.3 236V236.1C178.4 236.3 178.6 236.5 178.7 236.6L178.8 236.7C179 236.9 179.1 237 179.3 237.2H179.4C179.6 237.4 179.9 237.5 180.2 237.6L180.8 237.8H180.9H181C181.2 237.8 181.4 237.9 181.6 237.9H181.7C181.9 237.9 182.1 237.9 182.3 237.8H182.4H182.5L183 237.6L183.1 237.5C183.2 237.4 183.4 237.3 183.5 237.1C183.6 237 183.7 236.8 183.7 236.7C183.8 236.6 183.9 236.4 183.9 236.3C183.9 236.1 184 235.9 184 235.7V235.6V235.5C184 235.3 183.9 235.1 183.9 234.9C183.9 234.9 183.9 234.8 183.8 234.8C183.7 234.6 183.6 234.4 183.6 234.2V234C183.5 233.7 183.3 233.5 183.1 233.3C182.9 233.1 182.8 233 182.6 232.8C182.6 232.8 182.6 232.8 182.5 232.8H182.4C182.2 232.7 182 232.5 181.8 232.4L181.7 232.3L181.1 232.1H181H180.9L180.3 232H180C179.7 232 179.4 232 179.2 232.1C178.9 232.2 178.7 232.3 178.4 232.4L178.3 232.5C178.1 232.6 178 232.8 177.8 232.9C177.6 233.1 177.5 233.3 177.6 233.6C177.5 233.9 177.6 234.1 177.7 234.4C177.8 234.7 177.9 235 178.1 235.2C178.3 235.5 178.5 235.7 178.8 235.9L179.4 236.3C179.8 236.5 180.2 236.6 180.6 236.6L181.1 236.5C181.4 236.4 181.7 236.2 181.9 236L181.5 236.3C181.6 236.1 181.8 236 182 236L181.5 236.2C181.6 236.2 181.7 236.1 181.9 236.1L181.4 236.2C181.5 236.2 181.6 236.2 181.7 236.2L181.1 236.1H181.3L180.7 235.9L180.9 236L180.3 235.6L180.4 235.7L179.9 235.3L180 235.4L179.6 234.9C179.6 235 179.7 235 179.7 235.1L179.5 234.6C179.5 234.7 179.6 234.8 179.6 234.8L179.5 234.3C179.5 234.4 179.5 234.5 179.5 234.6L179.6 234.1C179.6 234.2 179.6 234.3 179.5 234.4L179.7 234C179.7 234.1 179.6 234.2 179.5 234.2L179.9 233.9C179.8 233.9 179.8 234 179.7 234L180.2 233.8C180.1 233.8 180.1 233.8 180 233.8L180.5 233.7H180.3L180.9 233.8L180.7 233.7L181.3 233.9L181.1 233.8L181.7 234.2L181.6 234.1L182.1 234.6L182 234.5L182.4 235L182.3 234.9L182.5 235.4C182.5 235.4 182.5 235.3 182.4 235.3L182.5 235.8V235.7C182.5 235.4 182.4 235.2 182.3 234.9C182.2 234.6 182 234.4 181.8 234.1C181.6 233.8 181.3 233.6 181 233.5C180.7 233.3 180.4 233.2 180.1 233.1L179.5 233C179.1 233 178.8 233.1 178.5 233.2L178.1 233.5C177.9 233.8 177.8 234.1 177.8 234.4L178 234.6Z" fill="#6A90FF"/>
<path d="M195.4 212.1L191.2 230C191.2 230.2 191.6 230.9 191.7 231.1C192 231.7 192.4 232.2 192.8 232.7C193 232.9 194.1 234.3 194.2 233.9L198.4 216C198.5 215.8 198 215.1 197.9 214.9C197.6 214.3 197.2 213.8 196.8 213.3C196.6 213.1 195.5 211.7 195.4 212.1Z" fill="#6A90FF"/>
<path d="M188 238.7C189.3 239.9 191.3 239.8 192.9 239.6C193.7 239.5 194.5 239.2 195.2 238.7C195.6 238.5 196 238.1 196.2 237.7C196.3 237.5 196.3 237.3 196.1 237.2C195.9 237 195.7 236.9 195.5 236.8C195.1 236.6 194.7 236.5 194.2 236.4C193.8 236.3 193.3 236.3 192.9 236.3C192.2 236.3 191.6 236.4 191 236.6C190.8 236.7 190.5 236.8 190.3 236.9C190.1 237 190 237.1 189.9 237.3C189.8 237.6 189.9 237.9 190.2 238C190.7 238.2 191.2 238.3 191.7 238.3C192.3 238.3 193 238.2 193.6 238L193 238.1H193.1L192.5 238.2H192.6H191.9H192L191.4 238.1H191.6L191.1 238L191.3 238.1L190.9 237.9C191 238 191.1 238 191.3 238.1L191 237.9L191.1 238V237.5C191 237.6 190.9 237.8 190.8 237.9L191 237.7C190.9 237.8 190.7 238 190.6 238.1L191 237.9C190.9 238 190.8 238 190.6 238.1L191.1 237.9L190.8 238L191.4 237.9L191.1 238L191.8 237.9H191.6H192.3H192.1L192.7 238H192.4L192.9 238.1C192.8 238.1 192.7 238 192.5 238L192.9 238.2C192.7 238.1 192.6 238.1 192.4 238L192.7 238.2L192.6 238.1C192.3 237.8 191.8 237.7 191.4 237.6C190.8 237.5 190.1 237.5 189.5 237.7L188.9 237.8C188.6 237.9 188.3 238 188 238.2C188 238.2 187.8 238.5 188 238.7Z" fill="#6A90FF"/>
<path d="M390.4 180.7C390.8 179 391.4 177.3 392.3 175.7C392.5 175.4 392.3 174.7 392.2 174.5C392 173.9 391.8 173.3 391.4 172.7C391.2 172.4 390.2 170.8 389.9 171.5C389.1 173.1 388.4 174.8 388 176.5C387.9 176.9 388 177.3 388.1 177.7C388.3 178.3 388.5 178.9 388.9 179.5C389.1 180 389.4 180.4 389.8 180.7C390 180.8 390.4 181 390.4 180.7Z" fill="#6A90FF"/>
<path d="M395.2 183.5L397.9 182.5C398 182.5 398.2 182.4 398.2 182.3C398.3 182.2 398.3 182.2 398.2 182.1C398.1 182 397.9 181.9 397.8 181.9C397.6 181.8 397.4 181.7 397.1 181.7C396.5 181.6 395.8 181.5 395.2 181.5H394.6C394.3 181.5 394 181.6 393.7 181.6L391 182.6C390.9 182.6 390.8 182.7 390.7 182.8C390.6 182.9 390.6 182.9 390.7 183C390.8 183.1 391 183.2 391.1 183.2C391.3 183.3 391.6 183.4 391.8 183.4C392.4 183.5 393.1 183.6 393.7 183.6H394.3C394.6 183.7 394.9 183.6 395.2 183.5Z" fill="#6A90FF"/>
</svg>
