<svg width="500" height="500" viewBox="0 0 500 500" fill="none" xmlns="http://www.w3.org/2000/svg">
<path fill-rule="evenodd" clip-rule="evenodd" d="M239.319 0.159582C306.764 -2.38624 371.763 25.7258 418.268 70.3303C463.664 113.87 474.26 173.879 482.572 233.469C492.687 305.988 521.885 388.089 470.408 444.14C417.328 501.937 321.853 502.885 239.319 498.338C162.532 494.108 82.6997 474.836 34.568 420.129C-10.2459 369.193 -1.43059 298.385 6.28442 233.469C12.9405 177.463 32.9948 124.955 74.5985 83.3027C118.525 39.3238 174.13 2.62021 239.319 0.159582Z" fill="#EDF1FE"/>
<path d="M260.7 140.4C258.9 138 257.2 135.4 255.7 132.8C254.2 130.3 252.9 127.7 251.8 125C251.4 123.8 250.2 123 248.9 123.1C247.8 123.5 247.1 124.7 247.5 125.8C247.5 125.9 247.5 125.9 247.6 126C250.1 131.9 253.2 137.5 257 142.6C257.7 143.6 259 144.4 260.1 143.6C261.2 142.8 261.4 141.4 260.7 140.4Z" fill="#0C41E2"/>
<path d="M244.4 119.1C243 121 242.3 123.3 242.5 125.7C242.5 126.2 242.7 126.7 243 127.1C243.6 127.6 244.3 127.9 245.1 127.8C247.4 127.7 249.6 126.9 251.4 125.5C252.4 124.7 253.2 123.7 253.7 122.4C254.2 121.2 254 119.8 253.2 118.7C252.4 117.8 251.2 117.2 250 117C248.6 116.7 247.1 116.7 245.6 116.9" fill="#EDF1FE"/>
<path d="M242 119.6C240.5 121.6 239.8 124 240.1 126.4C240.2 127.6 241.1 128.5 242.2 128.6C243.7 128.8 245.3 128.7 246.8 128.3C249.7 127.6 252.8 126.3 254.7 124C256.2 122.2 256.9 119.6 255.2 117.7C254.2 116.8 253 116.2 251.7 116.1C250 115.8 248.2 115.8 246.5 116C245.3 116.1 244.2 116.5 243.3 117.2C242.5 118 244 118 244.4 117.9C245.4 117.7 246.3 117.7 247.3 117.9C248.2 118 249.1 118.3 249.9 118.8C251.4 119.9 251.8 122 250.8 123.6C250.4 124.4 249.7 125.1 249 125.7C248.8 125.8 248.8 125.8 248.6 126C248.4 126.2 248 126.4 248.2 126.2L247.6 126.5C248 126.4 247.3 126.7 247.6 126.5C247.5 126.6 247.3 126.6 247.2 126.7C247.7 126.6 247.4 126.6 247.3 126.7C246.8 126.9 247.4 126.7 247.4 126.7C247.4 126.7 246.5 127 247.1 126.8C246.9 126.9 246.6 126.9 246.3 126.9C246.7 126.9 245.9 126.9 246 126.9C246.1 126.9 245.7 126.8 245.6 126.8C245.4 126.7 245.2 126.6 245.1 126.5C244.8 126.1 244.7 125.6 244.7 125.2C244.5 122.9 245.2 120.7 246.6 118.9C246.8 118.6 246.4 118.5 246.2 118.4C245.7 118.3 245.2 118.4 244.7 118.5C243.7 118.4 242.7 118.9 242 119.6Z" fill="#0C41E2"/>
<path d="M251.7 196.5C251.7 196.5 235.7 184.8 230.7 191.5C225.5 198.5 252 208.5 252 208.5C252 208.5 228.6 202.4 230.3 212C231.7 219.8 262.8 226.4 266.5 225.2C270.2 224 251.7 196.5 251.7 196.5Z" fill="#EDF1FE"/>
<path d="M254 197.2C251.2 195.2 248.3 193.4 245.2 192C242.4 190.6 239.4 189.6 236.3 188.9C234.2 188.5 231.9 188.2 229.9 189.3C228.5 190 227.6 191.5 227.7 193.1C228.1 194.7 229 196.1 230.2 197.1C233.5 200.3 237.8 202.5 241.8 204.5C244.9 206 248 207.4 251.2 208.6L250.8 207.9C248.4 207.3 245.9 206.8 243.4 206.4C239.7 205.8 235.6 205.3 231.8 206.2C230.4 206.4 229.1 207.2 228.2 208.3C227.5 209.5 227.5 211 228.1 212.2C229.7 215.4 233.9 217.2 236.9 218.5C241.8 220.6 246.8 222.3 252 223.6C256.2 224.7 260.5 225.6 264.8 226.1C266 226.3 267.2 226.3 268.3 226.2C269.1 226 269.2 225.5 269.1 224.7C268.9 223.4 268.5 222.2 267.9 221.1C267.1 219.4 266.3 217.7 265.4 216.1C263.3 212.2 261 208.5 258.6 204.8C257.1 202.4 255.6 199.9 253.9 197.6L254 197.2C253.5 196.6 251.9 196.3 251.2 196C251 195.9 249.2 195.5 249.4 195.8C252.6 200.6 255.7 205.4 258.6 210.4C260.6 213.6 262.3 216.9 263.8 220.4C264.2 221.5 265.6 224.4 263.7 224.6C260.8 224.9 257.7 224.1 254.9 223.6C252.8 223.2 250.7 222.7 248.6 222.1C246.4 221.5 244.6 221 242.7 220.3C242 220.1 241.1 219.7 240.3 219.4C239.5 219.1 238.8 218.7 237.9 218.3C236.5 217.6 235.2 216.6 234 215.5C232.2 213.6 232 210.5 234.5 209C237.4 207.3 241.5 207.7 244.6 208C247.4 208.3 250.3 208.8 253 209.5H253.2C252.8 209.4 253 209.5 253.1 209.5C253.2 209.5 254.4 209.9 254.3 209.6C254.2 209.3 252.9 208.8 252.7 208.8L252.2 208.6L251.7 208.4C251.5 208.3 250.7 208 251.4 208.3C250 207.7 248.5 207.1 247.2 206.5C243.5 204.9 240 202.9 236.7 200.5C234.7 199 231.3 196.3 232.6 193.4C233.4 191.9 234.9 190.9 236.6 190.8C237.5 190.7 238.5 190.7 239.4 190.9C239.9 191 240.1 191.1 240.3 191.1C239.9 191 240.5 191.2 240.6 191.2C240.2 191.1 241 191.3 240.9 191.3C242.9 192.1 244.8 193.2 246.6 194.3C247.3 194.7 248 195.2 248.6 195.6L249.2 196C249.5 196.2 249.1 196 249.2 196C250.1 196.6 251 197 252 197.2C252.5 197.4 253 197.5 253.5 197.6C253.6 197.3 254.2 197.4 254 197.2Z" fill="#0C41E2"/>
<path d="M227.9 160.9C227.5 159.5 232.7 154.3 238 152C249.8 147 280.2 133.8 282.3 137.1C285 141.4 317.8 218.3 315.3 226.4C312.8 234.5 267.4 249.9 264 248.4C261.3 247.1 234.9 183.9 227.9 160.9Z" fill="#EDF1FE"/>
<path d="M230.4 160.5C230.4 160.5 230.3 160.8 230.4 160.7C230.5 160.6 230.5 160.5 230.6 160.4C230.8 160.1 230.4 160.6 230.6 160.3C231.1 159.6 231.7 159 232.3 158.4C233.8 157 235.5 155.7 237.3 154.8C239.9 153.5 242.6 152.3 245.4 151.3C251.8 148.6 258.2 145.9 264.6 143.5C267.6 142.4 270.7 141.3 273.8 140.3L275.6 139.7C275.1 139.8 275.9 139.6 276 139.6L277 139.3C278 139 279 138.9 280 138.7C280.2 138.7 280.4 138.7 280.5 138.6C280.4 138.6 280 138.6 280.5 138.6C280.6 138.6 280.8 138.6 280.9 138.6C281.1 138.5 280.3 138.4 280.8 138.6C280.5 138.5 280.2 138.3 280.1 138C280.1 138.1 280.2 138.2 280.3 138.3C280.7 139.1 281.1 139.9 281.5 140.7C285.2 148.6 288.5 156.6 291.9 164.7C296.5 175.9 301 187.1 305.2 198.5C307.1 203.6 308.7 208.1 310.2 213.1C311.4 216.5 312.3 220 312.9 223.6C313 224.2 313 224.7 313.1 225.3C313.2 225.9 313.2 224.8 313.1 225.5C313.1 225.7 313.1 225.9 313 226.1C313 226.6 313.3 225.7 313 226.2C312.9 226.3 312.9 226.5 312.8 226.6C313.1 226.2 312.7 227 312.8 226.6C312.5 227 312.4 227.1 312.1 227.4L311.7 227.8C311.5 228 312.1 227.5 311.6 227.9C309.9 229.2 308.2 230.4 306.3 231.4L305.6 231.8L305 232.1L303.1 233.1C301.8 233.7 300.5 234.4 299.2 235C293.6 237.6 287.8 239.8 282 241.8C279.4 242.7 276.7 243.6 274.1 244.4L273.3 244.6L272.9 244.7C273.3 244.6 272.3 244.9 272.9 244.7L271.2 245.2C270.2 245.5 269.2 245.7 268.3 245.9C267.6 246.1 266.8 246.2 266.1 246.3C265.8 246.3 265.5 246.3 265.2 246.4C265.2 246.4 265.9 246.4 265.4 246.4C265.3 246.4 265.2 246.4 265 246.4C264.5 246.4 265.5 246.5 265.3 246.5C265.1 246.5 265 246.3 265.7 246.7C265.7 246.7 266.3 247.2 265.9 246.8C265.5 246.4 266.1 247.1 265.9 246.9C265.7 246.7 265.7 246.5 265.5 246.3C263.8 243.4 262.3 240.4 261 237.3C255.8 226 251 214.5 246.3 203C241.4 191 236.7 179 232.5 166.8C232.2 166 231.8 164.8 231.5 163.7C231.2 162.6 230.7 161.6 230.4 160.5C230 159.3 228.8 158.6 227.6 158.9C226.6 159.1 225.1 160.1 225.5 161.3C229.1 173.1 233.7 184.7 238.3 196.1C243.3 208.7 248.5 221.3 254.1 233.8C255.9 237.9 257.7 241.9 259.8 245.9C260.9 248.1 262 250.5 264.8 250.5C266.4 250.4 268.1 250.2 269.7 249.8C272.2 249.2 274.6 248.5 277 247.8C282.9 246 288.6 243.9 294.3 241.7C299.9 239.5 305.4 236.9 310.6 233.9C313.4 232.2 317.6 229.8 318.2 226.2C318.6 223.5 317.6 220.4 316.9 217.8C315.7 213.1 314.1 208.5 312.5 203.9C308.4 192.3 303.9 180.8 299.2 169.3C295.4 159.9 291.5 150.6 287.3 141.4C286.8 140.2 286.2 139 285.6 137.8C285.3 137 284.8 136.3 284.3 135.6C282.8 134.2 280.3 134.6 278.4 134.9C275.7 135.4 273.1 136.1 270.6 137C263.9 139.2 257.3 141.9 250.8 144.6C247.7 145.9 244.6 147.2 241.6 148.5C238.2 149.8 235 151.4 232 153.4C230.3 154.6 228.8 155.9 227.5 157.5C226.6 158.5 225.5 160 225.8 161.5C226 164 230.9 163.1 230.4 160.5Z" fill="#0C41E2"/>
<path d="M239.3 153L274.5 243.5C274.5 243.5 316 227.6 316.4 226.4C316.8 225.2 287.1 135.5 281.9 135.5C276.7 135.5 239.7 150.4 239.3 153Z" fill="#EDF1FE"/>
<path d="M238 152.4L241.5 161.4L249.8 183L260 209.2L268.8 231.8C270.2 235.5 271.7 239.2 273.1 242.8L273.2 242.9C273.5 243.7 274.6 246.2 275.9 245.7C280.8 243.8 285.6 241.9 290.5 240C298.1 237 305.7 234.1 313.2 230.9C314.3 230.4 315.4 230 316.5 229.4C317 229.2 317.8 228.9 318 228.4C318.5 227.5 317.6 225.8 317.4 225C315.9 220 314.3 215.1 312.7 210.2C310.1 202.4 307.5 194.6 304.7 186.8C301.8 178.5 298.8 170.2 295.7 162C293.2 155.4 290.7 148.8 287.7 142.4C286.8 140.4 285.7 138.4 284.5 136.5C283.7 135.2 282.4 133.2 280.7 133.3C279.6 133.4 278.5 133.6 277.5 134C275.9 134.4 274.3 134.9 272.7 135.5C268.5 136.9 264.4 138.5 260.3 140.1C256 141.8 251.8 143.5 247.6 145.5C244.7 146.7 241.9 148.1 239.3 149.8C238.6 150.1 238.1 150.7 237.9 151.5C237.7 152.8 240.6 156.6 241 154.7C240.9 155 240.9 154.9 241.1 154.8C240.9 155.1 241.2 154.7 241.3 154.6C241.6 154.3 242 154.1 242.3 153.9C243.4 153.2 244.6 152.5 245.8 152C249.4 150.2 253 148.6 256.7 147.1C264.3 143.8 272 140.9 279.9 138.6C280.8 138.3 281.8 138.1 282.8 138C282.9 138 283 138 283.2 138C283.3 138 282.8 137.8 283.1 138C283.4 138.2 282.7 137.7 283 137.9C283.3 138.1 282.5 137.5 282.9 137.8C283.3 138.1 282.8 137.6 282.8 137.7C282.9 137.8 283 138 283.1 138.1C283.5 138.6 282.8 137.6 283 138L283.3 138.5C283.5 138.9 283.8 139.3 284 139.7C284.4 140.3 283.8 139.3 284.1 139.8L284.5 140.5C285.7 142.9 286.8 145.4 287.9 147.9C288.6 149.4 289.2 151 289.8 152.6C290 153 290.1 153.4 290.3 153.7C290.4 153.9 290.5 154.1 290.5 154.3C290.5 154.5 290.5 154.3 290.5 154.2C290.6 154.4 290.6 154.5 290.7 154.7L291.7 157.4C294.7 165.2 297.6 173.2 300.4 181.1C303.2 189 305.9 196.8 308.5 204.6C310.4 210.2 312.3 215.8 314 221.5C314.2 222.3 314.5 223.1 314.7 223.9C314.8 224.2 314.9 224.5 314.9 224.8C314.9 224.9 314.9 225 315 225.1C315.1 225.4 314.9 224.5 315 224.9C315 225 315 225.2 315.1 225.3C314.9 225.1 315.2 224.8 315.1 224.6C315 224.4 315.4 224.5 315.1 224.5C314.4 224.8 313.8 225.1 313.2 225.5C306.6 228.5 299.8 231.1 293.1 233.7C286.9 236.2 280.6 238.6 274.4 241L273.3 241.4L276 244.2L272.5 235.2L264.1 213.6L253.9 187.4L245.1 164.8C243.7 161.1 242.2 157.4 240.8 153.8L240.7 153.7C240.3 152.8 239.7 151.3 238.6 150.9C237.5 150.5 237.7 151.7 238 152.4Z" fill="#0C41E2"/>
<path d="M279.1 205.3C289.262 205.3 297.5 197.062 297.5 186.9C297.5 176.738 289.262 168.5 279.1 168.5C268.938 168.5 260.7 176.738 260.7 186.9C260.7 197.062 268.938 205.3 279.1 205.3Z" fill="#0C41E2"/>
<path d="M281.8 201.4C290.581 201.4 297.7 193.699 297.7 184.2C297.7 174.701 290.581 167 281.8 167C273.019 167 265.9 174.701 265.9 184.2C265.9 193.699 273.019 201.4 281.8 201.4Z" fill="#6A90FF"/>
<path d="M295.2 184.6C295.1 190.8 291.9 197.3 286 199.9C280.8 202.2 274.5 198.3 271.5 194C267.8 188.5 267.4 181.4 270.4 175.5C271.8 172.8 274 170.5 276.6 169C278.8 167.8 281.4 167.5 283.8 168.3C290.9 170.3 295.2 177.5 295.2 184.6C295.2 185.4 300.1 184.9 300.1 183.8C300 176.4 295.6 169.5 288.5 167.1C281.4 164.7 272.3 167.2 267.5 173C262.7 179 262.1 187.3 265.9 193.9C267.7 196.9 270.5 199.3 273.7 200.7C277.4 202.1 281.5 202.4 285.4 201.4C293.9 199.7 300 192.2 300 183.6C300.2 183.1 295.2 183.5 295.2 184.6Z" fill="#0C41E2"/>
<path d="M253 156.5C253.3 156.2 253.6 155.9 254 155.7L253.6 155.9C253.9 155.7 254.3 155.5 254.6 155.4L254.1 155.6C254.3 155.5 254.6 155.4 254.9 155.4C255.2 155.3 255.4 155.2 255.6 155.1C255.8 155 255.9 154.9 256 154.7C256.2 154.4 256.1 154 255.8 153.8C255.4 153.5 254.8 153.3 254.3 153.3H253.6C253.2 153.3 252.8 153.4 252.3 153.5C252 153.6 251.8 153.6 251.5 153.7C251.1 153.8 250.7 154 250.3 154.2C249.7 154.5 249.1 154.9 248.7 155.4C248.5 155.5 248.4 155.7 248.4 155.8C248.3 156 248.3 156.1 248.5 156.3C248.6 156.5 248.8 156.6 248.9 156.7C249.1 156.8 249.3 157 249.6 157C250.2 157.2 250.9 157.2 251.5 157.1L252.1 157C252.5 156.9 252.8 156.7 253 156.5Z" fill="#0C41E2"/>
<path d="M259.8 153C260.1 153 260.5 153 260.8 152.9C261.2 152.9 261.5 152.8 261.9 152.7C262.6 152.5 263.3 152.3 263.9 152C264.1 151.9 264.3 151.7 264.5 151.6C264.7 151.5 264.8 151.3 264.9 151.1C265 150.9 264.9 150.8 264.8 150.6C264.7 150.4 264.6 150.3 264.4 150.2L264 150.1C263.6 150 263.2 150 262.9 150L262.3 150.1C261.9 150.2 261.5 150.3 261.1 150.5L260.9 150.6L261.4 150.4C261.2 150.5 261.1 150.5 260.9 150.6L261.5 150.4C261.3 150.4 261.2 150.5 261 150.5L261.6 150.4C261.4 150.4 261.3 150.4 261.1 150.5H261.7C261 150.5 260.4 150.6 259.8 150.8C259.5 150.9 259.3 151 259 151.2C258.8 151.3 258.6 151.5 258.5 151.7L258.3 152C258.2 152.2 258.3 152.5 258.4 152.6L258.7 152.8C259.1 152.9 259.4 153 259.8 153Z" fill="#0C41E2"/>
<path d="M271.6 147.9L272.1 147.6L272.2 147.5L272.7 147.2L272.9 147.1L272.6 147.3L272.7 147.2L273.2 147L273.3 146.9L272.9 147.1L273.1 147L273.4 146.9L273.5 146.8L273 147L273.6 146.8C274.2 146.6 274.8 146.4 275.4 146.1C275.6 146 275.8 145.9 276 145.7C276.1 145.6 276.3 145.5 276.4 145.4C276.5 145.1 276.2 145.1 276 145.1C275.5 145.1 275 145.2 274.5 145.4C272.2 146.1 269.9 147.1 267.9 148.5C267.8 148.6 267.3 148.9 267.4 149.1C267.5 149.3 268.1 149.2 268.2 149.2C268.8 149.1 269.4 148.9 269.9 148.7C270.5 148.5 271.1 148.2 271.6 147.9Z" fill="#0C41E2"/>
<path d="M343.7 231.8C343.7 231.8 332.2 200.4 319.5 186.6C306.8 172.8 290.1 171.1 285.1 175C280.1 178.9 283.2 184.9 290.1 185.8C297 186.7 304.6 192.5 304.6 192.5C304.6 192.5 300 193.2 296.6 200.3C293.2 207.4 293.1 220.3 301.7 219.6C302.6 223.4 305.2 226.6 308.8 228.3C314.8 230.9 316.6 229 316.6 229L319.6 244.7L343.7 231.8Z" fill="#EDF1FE"/>
<path d="M346.1 231.2C344.3 226.4 342.3 221.6 340.2 217C336.2 208.1 331.8 199.2 326.1 191.2C319.9 182.4 311.3 175.4 300.7 172.4C296.7 171.2 292.5 170.9 288.4 171.5C284.8 172.1 280.9 174.4 280.3 178.3C279.9 180.9 281 183.4 283 185.1C285.4 187.2 288.3 187.5 291.3 188.2C295.5 189.4 299.5 191.4 302.9 194.1L303.9 190.6C302.3 191 300.8 191.7 299.5 192.8C296.8 195 294.8 198 293.6 201.3C291.7 206.3 291 213 293.8 217.8C295.5 220.5 298.6 222 301.8 221.7L299.2 219.7C300 223.6 302.3 226.9 305.6 229.1C308.2 230.8 311.3 231.8 314.5 231.8C315.9 231.8 317.3 231.4 318.4 230.5L314.1 229.2L317.1 244.9C317.4 246.3 318.8 247.2 320.1 246.9C320.4 246.8 320.6 246.7 320.9 246.6L342 235.3L345 233.7C346 233.2 346.4 232 345.9 231C345.9 230.9 345.8 230.9 345.8 230.8C344.9 229.8 343.5 229.5 342.4 230.2L321.3 241.5L318.3 243.1L322.1 244.8L319.1 229.1C318.8 227.7 317.4 226.8 316 227.1C315.6 227.2 315.2 227.4 314.8 227.7C315.4 227.4 314.5 228 314.8 227.7C315.3 227.5 315 227.6 314.7 227.7C314.4 227.8 314.5 227.7 314.8 227.7H314.2C314 227.7 313.9 227.7 314.1 227.7C313.8 227.7 313.5 227.6 313.2 227.6C312.7 227.5 312.2 227.4 311.7 227.2C310.5 226.8 309.3 226.3 308.2 225.5C306.8 224.5 305.7 223.1 305 221.6C304.7 221.1 304.5 220.5 304.4 219.9C304.3 219.6 304.1 218.5 304.3 219.6C304.1 218.4 303 217.5 301.7 217.6C301.4 217.6 301.2 217.6 300.9 217.6C300.9 217.6 300.5 217.6 300.7 217.6C300.9 217.6 300.5 217.6 300.4 217.5C300.3 217.4 299.7 217.3 299.9 217.4C300.1 217.5 299.5 217.2 299.4 217.2C299.7 217.4 299.3 217.1 299.2 217.1C299.1 217.1 298.7 216.7 298.8 216.7C298.5 216.4 298.3 216 298.1 215.7C298.2 215.9 298 215.5 298 215.4C297.9 215.2 297.8 214.9 297.7 214.6C297.5 214.1 297.4 213.6 297.3 213C297.1 212 297.1 210.9 297.1 209.9C297.1 205 298.9 199.5 302.6 196.2C303.3 195.7 304 195.2 304.8 194.8C305.1 194.6 304.3 194.9 304.8 194.8C304.9 194.8 305 194.7 305.1 194.7L305.4 194.6C306.5 194.4 307.3 193.4 307.1 192.3C307 191.8 306.8 191.4 306.4 191C303.5 188.8 300.4 187 297.1 185.6C295.9 185.1 294.6 184.6 293.3 184.3C292 183.9 290.7 183.9 289.3 183.5C287.6 183.2 286.2 182.1 285.5 180.6C284.9 179.1 285.5 177.9 286.8 176.7C286.9 176.6 287.6 176.1 286.9 176.6C287 176.5 287.1 176.5 287.2 176.4C287.4 176.3 287.7 176.2 287.9 176C288.5 175.7 287.7 176 288.3 175.9C288.7 175.8 289 175.7 289.4 175.6C289.6 175.6 290.5 175.4 290 175.5C290.4 175.4 290.7 175.4 291.1 175.4C292 175.3 292.9 175.3 293.7 175.4C295.6 175.6 297.4 175.9 299.2 176.4C308.5 178.9 316.2 185.4 321.7 193.1C327 200.5 331.2 208.8 334.9 217.1C337.2 222.2 339.4 227.3 341.3 232.6C342.2 234.9 347 233.9 346.1 231.2Z" fill="#0C41E2"/>
<path d="M305.2 204.6C301.8 208.8 300.6 214.3 301.7 219.5Z" fill="#EDF1FE"/>
<path d="M303.2 203.4C302 204.7 301.1 206.2 300.4 207.9C298.9 211.7 298.5 215.8 299.3 219.8C299.8 222.3 304.7 222 304.2 219.3C303.8 217.4 303.7 215.5 304 213.6C304.1 212.8 304.3 211.9 304.5 211.1C304.4 211.6 304.6 210.9 304.6 210.8L304.8 210.3C304.9 210 305 209.7 305.2 209.3C305.4 208.7 305.7 208.2 306 207.7C306.1 207.5 306.2 207.3 306.4 207L306.6 206.7C306.7 206.6 306.9 206.4 306.7 206.6C306.5 206.8 306.8 206.5 306.9 206.4L307.1 206.1C307.2 206 307.2 205.9 307.3 205.8C307.9 205 307.8 203.9 307.1 203.2C307 203.1 306.9 203 306.8 203C305.5 202.4 304.1 202.5 303.2 203.4Z" fill="#0C41E2"/>
<path d="M316.6 228.9C316.6 228.9 327.2 227.1 323.2 218.8C320.3 213 312.8 219.3 312.8 219.3" fill="#EDF1FE"/>
<path d="M316.8 230C318 229.8 319.1 229.5 320.3 229C322.6 228.2 324.5 226.7 325.8 224.8C327.1 222.5 326.5 219.8 325.2 217.6C323.4 214.6 319.3 214.9 316.4 215.8C314.4 216.5 312.5 217.5 310.8 218.9C310.6 219.1 310.2 219.4 310.2 219.8C310.2 220.2 310.8 220.4 311.1 220.4C312.3 220.6 313.5 220.4 314.6 219.7C314.9 219.4 315.2 219.2 315.6 219C315.7 218.9 315.9 218.8 316.1 218.7L316.4 218.5C316.6 218.3 315.9 218.8 316.3 218.6C316.7 218.4 317.2 218.1 317.7 217.9L317.9 217.8C317.9 217.8 317.4 218 317.6 217.9L318 217.8L318.3 217.7C318.8 217.5 317.7 217.8 318.2 217.7L318.6 217.6C319.1 217.5 318 217.7 318.4 217.6H318.8C319.1 217.6 318.2 217.6 318.7 217.6H318.9C319.2 217.6 318.7 217.6 318.7 217.6C318.8 217.6 318.9 217.7 319.1 217.7C319.2 217.7 319.2 217.7 319.3 217.7C319.3 217.7 318.9 217.5 319.1 217.6L319.5 217.8C319.6 217.9 319.9 218.1 319.6 217.9C319.7 218 319.8 218 319.9 218.1C320.1 218.3 320.3 218.5 320.5 218.7C321.2 219.7 321.7 220.9 321.8 222.1C321.8 222.4 321.8 222.6 321.8 222.9C321.8 223 321.8 223.3 321.8 223.2C321.8 223.1 321.8 223.4 321.8 223.5C321.7 223.9 321.6 224.4 321.4 224.8L321.3 225.1C321.4 225 321.1 225.4 321.3 225.1C321.2 225.2 321.1 225.5 320.9 225.6C320.8 225.8 320.6 225.9 320.5 226C320.5 226.1 320.1 226.3 320.4 226.1C320.7 225.9 320.3 226.2 320.3 226.2C320.1 226.3 320 226.4 319.8 226.6L319.6 226.8L319.5 226.9C319.3 227.1 319.9 226.7 319.7 226.8C319.5 226.9 319 227.2 318.6 227.4C318.5 227.4 318.1 227.6 318.5 227.4C318.9 227.2 318.6 227.4 318.5 227.4C318.4 227.4 318.1 227.5 317.9 227.6L317.4 227.8L317.2 227.9L317.6 227.8C317.3 227.9 317 227.9 316.7 228C316.1 228.1 314.3 228.7 314.5 229.6C314.7 230.5 316.6 230.2 317.2 230.2L316.8 230Z" fill="#0C41E2"/>
<path d="M363.9 187.6C382.8 192 389.8 183.9 394.1 195.4C394.1 195.4 420.7 210 416.9 187.1C416.3 183.6 413.1 138.5 383.2 131.9C383.2 131.9 366.4 129.1 365.2 114.4C365.2 114.4 358.2 128.8 347.1 131.5C336 134.2 313.5 136 314.1 147.6C314.7 159.2 330.5 159.1 339.4 154.8L345.3 170.6C356.3 170.2 357.4 158 357.4 158C357.4 158 367.1 166.1 366.3 171.2C365.5 176.3 355.4 180.7 355.4 180.7C356.8 184.2 360 186.8 363.9 187.6Z" fill="#EDF1FE"/>
<path d="M362.2 188.6C367 189.7 371.9 190.2 376.8 190.2C378.5 190.2 380.3 190.1 382 190C382.7 190 383.3 190 384 190H385H385.4C384.8 190 385.5 190 385.6 190C385.7 190 386.1 190.1 386.4 190.1C387 190.2 386 190 386.5 190.1L386.8 190.2C387.2 190.3 387.7 190.5 388 190.7C389 191.3 389.8 192.2 390.3 193.2C390.8 194.1 391.1 195.6 391.9 196.1C392.2 196.3 392.6 196.5 393 196.7C396.9 198.7 401 200.1 405.3 200.8C410.1 201.5 416.7 200.7 418.7 195.5C420.2 191.6 419.2 187.3 418.7 183.3C418.1 178.5 417.2 173.8 416 169.2C412.8 156.6 407.1 143.5 396.1 135.9C393.1 133.8 389.9 132.3 386.4 131.3C385.6 131.1 384.8 130.9 384 130.7C383.9 130.7 383.4 130.6 383.9 130.7C384.4 130.8 383.5 130.6 383.3 130.6C382.9 130.5 382.5 130.4 382.1 130.3C376.7 128.7 371.2 125.2 368.8 119.8C368 118 367.5 116.1 367.4 114.1C367.3 112.5 363 113.4 362.5 114.4C360.3 118.9 357.2 123 353.4 126.3C350.8 128.6 347.6 130.2 344.2 130.9C340.7 131.6 337.3 132.2 333.8 133C330 133.7 326.3 134.7 322.7 136C319.5 137 316.6 138.7 314.2 141C310.5 144.9 310.6 151 314.5 154.8C315.1 155.4 315.8 155.9 316.5 156.3C319.9 158.3 324.2 158.8 328.1 158.6C332.4 158.4 336.7 157.4 340.6 155.6L336.7 155.1L342.6 170.9C342.9 171.6 343.9 171.8 344.6 171.7C349.9 171.5 354.8 169.3 357.5 164.6C358.7 162.5 359.5 160.1 359.7 157.7L354.9 158.6C357.8 160.9 360.3 163.7 362.3 166.9C363.4 168.7 364.2 170.8 363.1 172.8C362 174.8 359.9 176.4 358 177.6C357 178.3 355.9 178.9 354.8 179.4L354.3 179.7C354.7 179.5 354.4 179.7 354.2 179.7L353.8 179.9C353.5 180 352.5 180.5 352.7 181C354.3 184.8 358.2 187.6 362.2 188.6C363.4 188.8 364.7 188.7 365.8 188.1C366.6 187.6 366.6 186.8 365.6 186.6C363.2 186 361 184.7 359.5 182.8C358.8 182 358.3 181.1 357.9 180.2L356.8 181.3C360.6 179.6 364.8 177.3 367.4 173.9C368.9 172.1 369.3 169.6 368.3 167.4C367.2 165 365.6 162.8 363.7 160.9C362.5 159.6 361.2 158.4 359.9 157.2C358.9 156.4 355.2 156.4 355.1 158.1C354.9 160 354.3 161.8 353.5 163.5C352.8 165 351.7 166.4 350.4 167.5C349.2 168.6 347.6 169.2 346 169.3L348 170.1L342.1 154.4C341.6 153.2 339.2 153.5 338.2 153.9C335.5 155.2 332.5 156 329.5 156.2C326.7 156.5 323.8 156 321.2 154.7C318.6 153.2 316.9 150.5 316.7 147.5C316.5 145 317.6 142.5 319.6 140.9C321.9 139.1 324.6 137.8 327.4 137C330.7 136 334.1 135.2 337.5 134.5C340.7 133.9 343.9 133.3 347.1 132.6C350.9 131.7 354.4 130 357.4 127.5C361.7 123.9 365.3 119.4 367.8 114.3L362.9 114.6C363.8 125 372.7 131 382 133H382.2C381.6 132.9 382.5 133.1 382.6 133.1C383 133.2 383.4 133.3 383.8 133.4C385.1 133.8 386.4 134.3 387.7 134.8C390.2 136 392.5 137.4 394.6 139.2C398.8 142.8 402.2 147.2 404.8 152.1C409.4 160.6 412 170.2 413.5 179.7C413.9 182.1 414.2 184.6 414.5 187.1C414.9 189.3 415 191.6 414.7 193.9C414.5 194.9 414.2 195.8 413.7 196.6C413.5 196.9 413.3 197.2 413.1 197.5L412.7 197.9L412.5 198.1C412.6 198 412.6 198 412.5 198.1L412 198.4C411.8 198.5 412.3 198.3 411.8 198.5C411.6 198.6 411 198.8 411.7 198.6L411 198.8C411 198.8 411.5 198.8 410.9 198.8L410.3 198.9C411 198.8 410.3 198.9 410.1 198.9H409.3C408.7 198.9 409.6 198.9 409 198.9C408.8 198.9 408.6 198.9 408.4 198.8C407.9 198.7 407.4 198.7 406.9 198.6L406.5 198.5L405.9 198.4C405.4 198.3 404.9 198.2 404.4 198C403.5 197.7 402.6 197.4 401.7 197.1L400.6 196.7L400.2 196.5L399.7 196.3C398.7 195.9 397.7 195.3 396.7 194.9L396.3 194.7L396.7 195.2C395.3 191.5 393.1 188.8 389 188.1C384.9 187.4 380.4 188.1 376.2 188C372.6 187.9 369.1 187.5 365.6 186.7C364.4 186.4 363.2 186.5 362.1 187.1C361.3 187.6 361.2 188.4 362.2 188.6Z" fill="#0C41E2"/>
<path d="M420.7 161.3C420.7 161.3 436.5 164.7 438.7 156.2C440.9 147.7 430.9 150.1 430.9 150.1C430.9 150.1 441.7 132.3 425.7 129.8C425.7 129.8 438.4 116.1 427.3 104.3C416.2 92.4998 395.9 101.3 395.9 101.3C395.9 101.3 395.6 82.3998 379.5 85.4998C363.4 88.5998 367.8 99.7998 367.8 99.7998C367.8 99.7998 357.5 101.6 357.5 108.1C357.5 114.6 365.4 116.8 365.4 116.8C365.4 116.8 369.2 135.2 383.2 131.9L397.9 154.6C397.9 154.6 393.4 163.3 399.1 171.8C404.8 180.3 421.9 173.3 420.7 161.3Z" fill="#0C41E2"/>
<path d="M418.7 162.7C423.3 163.7 428.6 164 433.1 162.4C436.5 161.2 439.8 158.9 440.8 155.3C441.6 152.5 441 149.4 437.9 148.6C436 148.1 433.9 148.1 432 148.6L432.9 149.4C435.7 144.7 438.7 136.7 434.7 131.9C432.8 129.7 430 128.8 427.2 128.3L427.4 129.5C432.7 123.7 436 114.6 432.3 107.2C427.1 96.7998 414.7 95.3998 404.5 97.4998C401.5 98.0998 398.6 98.9998 395.9 100.1L398 100.2C398 94.8998 396 88.8998 391.6 85.6998C387.2 82.4998 381.3 83.3998 376.6 84.8998C371.9 86.3998 367 89.3998 365.4 94.2998C364.7 96.3998 364.8 98.7998 365.6 100.9L369 98.1998C365.1 98.8998 361.4 100.6 358.3 103.1C356.3 104.7 355.2 107.1 355.2 109.6C355.5 112.1 356.8 114.4 358.9 115.9C360.2 116.9 361.6 117.7 363.2 118.1C363.4 118.1 363.2 117.8 363.2 118.2C363.2 118.6 363.3 119 363.5 119.3C364.4 122.6 365.9 125.7 368 128.4C371.3 132.7 376.8 134.6 382 133.2L381 133L393.9 152.8L395.7 155.6L395.8 155C394.6 157.6 394 160.4 394.1 163.2C394.1 167.4 395.6 172.5 399.3 175.1C405.2 179.2 414.1 175.4 418.6 171C421.7 168.2 423.3 164.2 423.1 160C423 158.6 418.5 160.6 418.7 162C419 164.9 418.2 167.7 416.4 170C416 170.5 415.6 170.9 415.2 171.3L414.8 171.6C414.5 171.9 415 171.4 414.7 171.7C414.6 171.8 413.8 172.3 414.1 172.1C413.1 172.8 412 173.2 410.9 173.5C408.6 174.1 406.2 173.8 404.1 172.7C400.9 170.9 399.2 166.7 398.8 163.2C398.4 160.2 398.8 157.1 400 154.3C400.2 153.9 400.5 153.5 400.3 153C400.1 152.6 399.9 152.3 399.7 152L392.1 140.3L385.6 130.3C385.4 130 384.9 130 384.6 130.1C380.4 131.1 375.9 129.7 373.1 126.4C370.9 123.8 369.3 120.7 368.3 117.5C368.1 116.8 367.9 116 367.7 115.3L367.5 115.1C363.5 114 359.3 110.6 359.9 106C360.1 104.9 360.6 103.9 361.3 103.2C361.9 102.7 362.6 102.2 363.3 102L364.1 101.7C363.6 101.9 364.4 101.6 364.5 101.6C365 101.4 365.4 101.3 365.9 101.2C366 101.2 366.7 101 366 101.2C366.1 101.2 366.3 101.1 366.4 101.1L366.7 101C367.6 100.8 370.6 99.5998 370.1 98.2998C369.6 96.8998 369.4 95.2998 369.7 93.8998C369.9 92.5998 370.4 91.2998 371.2 90.1998C371.6 89.5998 372.1 89.1998 372.7 88.7998L373.5 88.3998C374.1 88.0998 374.7 87.8998 375.3 87.6998C379.4 86.2998 384.1 85.8998 387.9 88.4998C390.5 90.3998 392.1 93.4998 393 96.4998C393.6 98.2998 393.9 100.2 393.9 102.2C393.9 103.2 395.6 102.5 396 102.3L396.4 102.1C397 101.9 395.9 102.3 396.4 102.1L397.1 101.8C398.4 101.4 400 100.9 401.1 100.6C405.3 99.4998 409.7 99.1998 414.1 99.6998C419.3 100.4 424.1 103.2 427.1 107.6C430 111.9 430.5 117.4 428.6 122.2C427.6 125 426 127.6 424 129.9C423.5 130.4 423.5 131 424.2 131.1C428.4 131.8 432.1 134.2 432.4 138.8C432.4 142.2 431.6 145.5 430.1 148.4C429.8 149.1 429.4 149.8 429 150.5C428.6 151.2 429.4 151.4 429.9 151.3C431 151 432.2 150.9 433.4 151.1C435.4 151.1 437 152.8 437 154.8C437 154.8 437 154.8 437 154.9C437 156.2 436.7 157.5 436 158.6C435.8 158.8 435.6 159.1 435.6 159.1C435.6 159.1 435.2 159.5 435.4 159.2C435.6 158.9 435 159.4 435.4 159.2C435.8 159 435.3 159.3 435.2 159.3C435.6 159.1 434.9 159.5 435.2 159.3L434.8 159.5C434.6 159.6 435 159.4 434.6 159.6C432.2 160.3 429.8 160.5 427.3 160.3C426.2 160.2 425.1 160.1 424 159.9L423 159.7C422.7 159.6 422.4 159.6 422.9 159.7C421.8 159.6 420.7 160 419.9 160.7C419.4 161 417.8 162.5 418.7 162.7Z" fill="#0C41E2"/>
<path d="M380.9 135.6C380.9 135.6 382.5 122.8 391.8 124.9C401.1 127 405.7 155.5 389.4 155.3" fill="#EDF1FE"/>
<path d="M382.7 137.2C383.1 134.6 384 132.1 385.5 129.9C387.2 127.1 390.6 125.8 393.7 126.8C394 126.9 394.2 127 394.5 127.1C394.7 127.2 394.9 127.3 395.1 127.4L395 127.3C395.2 127.5 394.6 126.9 394.9 127.2C395.2 127.5 394.7 127 394.8 127C394.9 127 395.1 127.4 394.9 127.1C395 127.2 395.1 127.3 395.1 127.4C395 127.3 395 127.2 395.1 127.4C395.6 128.1 396 128.8 396.3 129.5C397.1 131.3 397.7 133.1 398.1 135C399 138.9 398.8 143 397.5 146.8C396.1 150.8 392.3 153.5 388 153.4C387.4 153.4 388.7 154.9 388.8 155C389.2 155.5 390.4 157 391.2 157C395.4 157.2 399.2 154.7 400.8 150.9C402.5 147 402.5 142.4 401.6 138.2C400.8 133.8 398.7 129.7 395.5 126.4C394.1 124.8 392.3 123.6 390.3 122.9C388 122.3 385.6 122.8 383.7 124.3C381 126.5 379.7 130.4 379.2 133.7C379.1 134.4 380.6 135.7 381.1 136.1C381.3 136.5 382.6 137.7 382.7 137.2Z" fill="#0C41E2"/>
<path d="M360.7 134.2C359.6 134.6 359 135.8 359.4 136.9C359.4 137 359.5 137.1 359.5 137.2C360.6 139.3 363.1 138 362.8 135.9C362.8 134.9 362 134.1 361 134.2C360.9 134.2 360.8 134.2 360.7 134.2Z" fill="#0C41E2"/>
<path d="M346.7 420L351.6 324.9C351.6 324.9 324.8 323.7 311.2 247.5L348.4 215.6L364.6 252C364.6 252 368.1 210.6 383.6 198.7L382.3 193.8L423.8 179.2C423.8 179.2 472.8 247.8 466 415.7" fill="#EDF1FE"/>
<path d="M349.1 419.5L349.6 410.1L350.8 387.4L352.2 359.8L353.4 336.1L353.8 328.2C353.9 327 354 325.7 354 324.5C354 324.4 354 324.4 354 324.3C354 323.3 352.9 322.8 352.1 322.8C351.7 322.8 352.7 322.9 352.5 322.8C352.3 322.7 352.1 322.8 352 322.7C351.9 322.6 351.4 322.6 351.1 322.5L350.6 322.3C350.4 322.2 349.6 321.9 350.4 322.3C349.3 321.9 348.3 321.4 347.3 320.8C346.7 320.4 346.1 320 345.4 319.6L344.9 319.2C344.4 318.9 345 319.3 344.8 319.1C344.4 318.8 344 318.5 343.6 318.2C340 315.1 336.9 311.5 334.3 307.5C330.1 300.8 326.6 293.7 323.9 286.3C319.3 273.5 315.9 260.3 313.6 246.8L312.5 248.7L325.1 237.9L345.1 220.7L349.7 216.7L346.1 216.3L360.2 248.1L362.2 252.7C362.7 253.7 364 253.8 364.9 253.5C366 253.2 366.8 252.3 366.9 251.1L367 250.5C367.1 249.5 367.2 248.4 367.4 247.4C367.8 243.9 368.4 240.5 369 237C370.7 228 372.9 218.8 377 210.5C378 208.4 379.2 206.3 380.5 204.4C381.2 203.5 381.9 202.6 382.7 201.7C383.1 201.3 383.5 200.9 383.8 200.6L384 200.4C383.9 200.5 383.8 200.6 384 200.4L384.7 199.8C385.5 199.3 385.9 198.3 385.6 197.4L384.3 192.5L382.9 195.2L396.9 190.3L419.2 182.4L424.4 180.6L421.6 180.3C421.6 180.3 421.6 180.4 421.7 180.4C422.1 180.7 421.4 180 421.7 180.4C422 180.8 422.4 181.4 422.7 181.9C423.9 183.9 425.1 185.9 426.2 188C428 191.4 429.7 194.9 431.4 198.4C433.6 203.2 435.7 208.2 437.6 213.1C440 219.5 442.3 225.9 444.3 232.5C446.7 240.4 448.9 248.4 450.8 256.4C453.1 266 455 275.7 456.6 285.4C458.5 296.8 460 308.2 461.1 319.7C462.4 332.8 463.3 345.9 463.7 359.1C464.2 374.1 464.3 389.1 463.9 404.1C463.8 408 463.7 412 463.5 415.9C463.5 417.1 465.1 417.5 466 417.3C467.2 417.1 468.2 416.1 468.3 414.8C468.9 399.4 469.1 383.9 468.8 368.4C468.5 354.7 467.8 341 466.7 327.4C465.7 315.5 464.3 303.7 462.6 291.9C461.1 281.7 459.2 271.5 457 261.4C455.1 252.8 452.9 244.3 450.5 235.8C448.5 228.9 446.3 222 443.8 215.3C441.8 209.9 439.7 204.6 437.4 199.3C435.7 195.4 433.9 191.6 431.9 187.9C430.6 185.5 429.3 183.1 427.9 180.8C427.3 179.6 426.5 178.5 425.7 177.4C425.7 177.4 425.7 177.3 425.6 177.3C425 176.5 423.6 176.7 422.8 177L408.8 181.9L386.5 189.7L381.3 191.5C380.2 191.9 379.5 193.1 379.8 194.3L381.1 199.2L382 196.8C374.5 202.6 370.7 212.2 368 221C365.5 229.3 363.7 237.7 362.6 246.3C362.4 248.2 362.1 250.1 362 252L366.7 250.5L352.6 218.7L350.6 214.1C350 212.8 347.9 212.9 347 213.7L327.2 230.7L314.3 241.8L310.6 245L309.9 245.6C309.4 246 309 246.5 308.9 247C308.8 247.8 308.9 248.6 309.2 249.4C309.3 250.2 309.5 250.9 309.6 251.7C312.9 268.9 317.4 286.4 325.6 302C329.6 309.7 334.7 317.3 341.9 322.5C343.7 323.8 345.8 324.9 347.9 325.7C348.9 326.1 350 326.4 351.1 326.5H351.2L349.3 325L348.8 334.4L347.6 357.1L346.2 384.7L345 408.4L344.6 416.3C344.5 417.5 344.4 418.8 344.4 420C344.4 420.1 344.4 420.1 344.4 420.2C344.3 421.4 346 421.8 346.9 421.6C348.1 421.4 349.1 420.4 349.2 419.1L349.1 419.5Z" fill="#0C41E2"/>
<path d="M405.6 265.6C404.3 273 402.3 280.2 399.5 287.1C394.6 299.6 387.3 312.4 375.4 319.3C368 323.5 359.4 324.8 351 323.2C350.1 323 349.1 323.4 349.4 324.4C349.7 325.4 351.2 326.2 352.2 326.4C360.2 328 368.5 327.1 376 323.9C382.5 320.7 388.2 316 392.6 310.2C400.4 300.2 405.3 287.9 408.4 275.7C409.1 272.9 409.8 270 410.3 267.2C410.5 265.5 406 263.6 405.6 265.6Z" fill="#0C41E2"/>
<path d="M398.8 195.4H389.2C387 195.4 383.6 194.9 382.1 196.9C381.2 198.1 384.5 201.7 385 200.9C385.7 200.1 386.7 199.6 387.8 199.6C389.2 199.5 390.6 199.5 392 199.5H401.3C402.2 199.5 401.3 197.8 401.1 197.5C400.7 196.8 399.8 195.4 398.8 195.4Z" fill="#0C41E2"/>
<path d="M388.5 352.7C402.2 352.8 415.9 352.4 429.6 351.4C430.6 351.3 432.2 351 432.8 350C433.4 349 432.3 348.7 431.5 348.8C417.8 349.8 404.1 350.2 390.4 350.1C389.4 350.1 387.8 350.6 387.2 351.5C386.6 352.4 387.7 352.7 388.5 352.7Z" fill="#0C41E2"/>
<path d="M286.6 165.4L284.8 159.8C284.7 159.4 284 158.9 283.6 158.7C283 158.4 282.4 158.2 281.7 158.2C281.2 158.1 280.7 158.3 280.3 158.6L280.1 158.9C280 159.2 280.1 159.5 280.2 159.7L282 165.3C282.1 165.7 282.8 166.2 283.2 166.4C283.8 166.7 284.4 166.9 285.1 166.9C285.6 167 286.1 166.8 286.5 166.5L286.7 166.2C286.8 166 286.7 165.7 286.6 165.4Z" fill="#0C41E2"/>
<path d="M276.1 169.9L270.2 167.7C270 167.6 270.1 167.9 270.1 168C270.3 168.5 270.5 168.9 270.7 169.4C271 170 271.3 170.5 271.7 171.1L272 171.5C272.1 171.7 272.3 171.8 272.4 172L278.3 174.2C278.5 174.3 278.4 174 278.4 173.9C278.2 173.4 278 173 277.8 172.5C277.5 171.9 277.2 171.4 276.8 170.8L276.5 170.4C276.4 170.2 276.2 170 276.1 169.9Z" fill="#0C41E2"/>
<path d="M357.2 341.9L357.3 343L357.4 343.4C357.5 343.6 357.7 343.7 357.9 343.8C358 343.9 358.2 344 358.4 344C358.7 344.1 359 344.2 359.3 344.1H360L360.6 344C360.9 343.9 361.2 343.8 361.4 343.6C361.6 343.5 361.8 343.3 362 343.1C362.1 343 362.1 342.9 362.2 342.9C362.3 342.7 362.4 342.5 362.5 342.3V342.2C362.5 342.1 362.5 342 362.5 341.9C362.5 341.8 362.5 341.7 362.5 341.6C362.5 341.5 362.5 341.4 362.5 341.3C362.5 341.1 362.4 340.9 362.2 340.8C362.1 340.6 361.9 340.5 361.6 340.4C361.3 340.3 361.1 340.2 360.8 340.2C360.5 340.1 360.1 340.1 359.8 340.2L359.1 340.3C358.7 340.4 358.4 340.6 358.1 340.8L357.7 341.1C357.5 341.3 357.4 341.6 357.5 341.9C357.5 342 357.5 342.2 357.5 342.3V341.9C357.5 342.1 357.4 342.2 357.4 342.4L357.6 342C357.5 342.1 357.5 342.2 357.4 342.2L362.1 342.3L362 341.2C362 341 361.9 340.8 361.7 340.7C361.6 340.5 361.4 340.4 361.1 340.3C360.8 340.2 360.5 340.1 360.3 340.1C360 340 359.6 340 359.3 340.1L358.7 340.2C358.3 340.3 358 340.5 357.7 340.7L357.3 341C357.1 341.2 357 341.5 357.1 341.8L357.2 341.9Z" fill="#0C41E2"/>
<path d="M357.6 360.9V362.6L362.3 361.5C362.1 361.2 361.9 361 361.7 360.8C361.5 360.6 361.3 360.5 361.2 360.4C361 360.3 360.8 360.1 360.6 360C360.3 359.9 360 359.7 359.7 359.6C359.4 359.5 359 359.5 358.7 359.6C358.3 359.6 358 359.7 357.7 359.9C357.4 360 357.2 360.2 357 360.5C356.8 360.7 356.6 361 356.5 361.3L356.4 361.9C356.4 362.3 356.5 362.7 356.7 363L357.1 363.5C357.4 363.8 357.8 364 358.1 364.1H358.3L357.7 363.9C357.9 364 358.1 364.1 358.2 364.2L357.7 363.9C357.9 364 358 364.2 358.2 364.3L357.8 363.8L357.9 363.9L358.3 364.4C358.5 364.6 358.8 364.8 359.1 364.9C359.3 365 359.5 365.1 359.7 365C360 365.1 360.4 365.1 360.7 365L361.3 364.8L361.8 364.4C362 364.2 362.2 364 362.3 363.7C362.5 363.4 362.6 363.2 362.6 362.9V361.2C362.6 360.9 362.6 360.6 362.4 360.3C362.3 360 362.2 359.8 361.9 359.6C361.7 359.4 361.4 359.2 361.1 359.1C360.8 359 360.5 358.9 360.2 358.9L359.5 359C359.1 359.1 358.7 359.3 358.3 359.6L357.9 360.1C357.7 360.4 357.5 360.8 357.5 361.2L357.6 360.9Z" fill="#0C41E2"/>
<path d="M358 387.1V388.5C358 388.7 358 388.9 358.1 389.1C358.2 389.3 358.3 389.5 358.5 389.6L359 389.9C359.3 390 359.6 390.2 359.9 390.2C360.4 390.4 361 390.4 361.5 390.3L362 390.2C362.3 390.1 362.6 389.9 362.8 389.7C363.1 389.3 363.2 388.8 363.3 388.2C363.3 387.9 363.3 387.6 363.3 387.3C363.3 387.1 363.2 386.9 363.2 386.7C363 386.3 362.6 385.9 362.2 385.7C361.9 385.5 361.6 385.4 361.3 385.4C361 385.3 360.6 385.2 360.3 385.3H359.7C359.3 385.3 359 385.4 358.7 385.6L358.4 385.9C358.2 386.1 358.2 386.4 358.3 386.7C358.4 386.9 358.4 387.2 358.4 387.5V387.1C358.4 387.5 358.3 388 358.2 388.3L358.3 387.9C358.3 388 358.2 388 358.2 388.1L363 389.3V388C363 387.8 363 387.6 362.9 387.4C362.8 387.2 362.7 387 362.5 386.9C362.3 386.7 362 386.6 361.8 386.5C361.5 386.3 361.2 386.3 360.9 386.2L360.2 386.1C359.8 386.1 359.4 386.1 359.1 386.3L358.7 386.5C358.2 386.6 358 386.9 358 387.1Z" fill="#0C41E2"/>
<path d="M242.1 83.2998C237.6 71.8998 225.5 66.8998 214.1 65.3998C207.4 64.4998 200.7 64.3998 194 64.9998C187.8 65.4998 181.5 66.7998 176.2 70.1998C171.8 72.9998 168.1 77.3998 166.7 82.4998C165.5 87.2998 166.5 93.3998 172.1 94.6998C174.5 95.1998 178 95.4998 180 93.7998C181.8 92.2998 181.6 89.7998 180.4 87.9998C178.7 85.4998 175.2 84.8998 172.4 84.7998C169.4 84.6998 166.3 85.0998 163.5 86.0998C157.7 87.9998 152.8 91.9998 149.7 97.1998C146.4 103.1 145.6 110.1 147.6 116.5C148 117.7 152.7 117.1 152.6 116.8C149.6 107.1 153 96.5998 160.9 90.4998C162.7 89.0998 164.7 87.9998 166.9 87.0998C168.5 86.4998 171.1 85.4998 172.8 85.7998C174.9 86.3998 176.4 88.2998 176.5 90.4998C176.5 91.4998 176.1 92.3998 175.3 93.0998C175 93.2998 174.7 93.4998 174.3 93.6998C174.4 93.5998 173.8 93.7998 173.8 93.7998C174.1 93.2998 175.2 94.0998 174.7 93.7998C173.9 93.2998 173.1 92.5998 172.5 91.7998C171.9 90.7998 171.5 89.5998 171.3 88.3998C171 86.1998 171.2 83.9998 171.9 81.8998C173.4 77.4998 176.3 73.7998 180.1 71.1998C184.5 68.3998 189.4 66.6998 194.6 66.1998C199.9 65.5998 205.2 65.5998 210.5 66.0998C221.3 67.0998 232.8 72.1998 236.9 82.9998C237.2 83.6998 238.8 83.6998 239.4 83.6998C239.8 83.7998 242.3 83.7998 242.1 83.2998Z" fill="#0C41E2"/>
<path d="M37.1 204.2C37.8 205.7 38.6 207.1 39.4 208.5C39.7 208.9 40 209.4 40.3 209.8C43.7 215.1 48.6 219.2 54.3 221.7C55.9 222.4 57.5 222.9 59.2 223.3C64.1 224.3 69.1 224.4 74 223.5C78 222.8 82 221.6 85.7 219.9L89.2 199.8C89.2 199.8 80.9 204.3 72.1 204.9C69.5 205.1 66.9 204.9 64.4 204.3C63.4 204 62.4 203.6 61.4 203.2C60.3 202.6 59.2 201.9 58.3 201.1C57.4 200.4 56.7 199.5 56.1 198.5C55.4 197.5 54.9 196.3 54.6 195.1C54.1 193.5 53.9 191.8 53.9 190.1C53.9 188.9 54 187.6 54.2 186.4C54.5 184.2 55.1 182 55.8 179.8C56.3 178.4 56.8 177 57.3 175.7C58.2 173.4 59.3 171.3 60.5 169.1L45.5 156.9C43.2 159.6 41.3 162.6 39.6 165.7C38.7 167.4 37.8 169.1 37.1 170.9C35.3 175.1 34.2 179.5 33.7 184C33.5 185.9 33.5 187.7 33.5 189.6C33.7 194.7 34.9 199.6 37.1 204.2Z" fill="#EDF1FE"/>
<path d="M35.4999 204.9C38.7999 211.8 43.7999 218.2 50.4999 222.1C57.5999 226.2 65.9999 227.2 73.9999 226C77.4999 225.5 80.9999 224.5 84.2999 223.3C85.5999 222.8 87.2999 222.4 87.5999 220.9C88.2999 217.7 88.6999 214.5 89.2999 211.2L91.0999 200.9C91.2999 199.6 89.8999 196.6 88.1999 197.6C82.2999 200.8 75.0999 203 68.3999 202.6C63.8999 202.4 58.7999 200.5 56.7999 196.1C54.7999 191.7 55.9999 186.4 57.2999 182.1C58.4999 178.2 60.0999 174.4 62.1999 170.9C62.7999 169.9 62.0999 168.2 61.2999 167.5L46.2999 155.2C45.6999 154.7 44.6999 154.3 43.9999 155C40.3999 159.3 37.4999 164.1 35.3999 169.2C32.3999 176.2 31.0999 183.9 31.7999 191.5C32.1999 196.2 33.4999 200.7 35.4999 204.9C35.8999 205.8 36.9999 206.9 38.0999 206.5C39.1999 206.1 38.9999 204.4 38.5999 203.5C34.7999 195.2 34.2999 185.7 37.0999 177C39.0999 170.4 42.3999 164.3 46.7999 159.1L44.4999 158.9L59.4999 171.2L58.5999 167.8C56.5999 171.3 54.9999 175 53.7999 178.8C52.0999 184.2 50.9999 190.2 52.7999 195.7C54.5999 201.1 58.9999 205.3 64.4999 206.7C69.7999 208.2 75.4999 207.4 80.6999 205.9C83.9999 205 87.1999 203.8 90.1999 202.2L87.2999 198.9L83.7999 219L84.5999 217.8C79.2999 220.3 73.4999 221.7 67.6999 221.8C59.8999 222.2 52.1999 219.5 46.2999 214.3C43.0999 211.2 40.4999 207.6 38.5999 203.6C38.1999 202.7 37.0999 201.6 35.9999 202.1C34.8999 202.6 35.0999 204.1 35.4999 204.9Z" fill="#0C41E2"/>
<path d="M57.2 175.9C52.6 173.4 42.8 168 39.5 165.8C38.6 167.5 37.7 169.3 37 171.1C41 172.9 51.3 177.9 55.7 180C56.2 178.5 56.7 177.1 57.2 175.9Z" fill="#0C41E2"/>
<path d="M55.9999 180.6L55.4999 180.4C51.1999 178.3 40.8999 173.4 36.7999 171.5L36.3999 171.3L36.5999 170.9C37.2999 169.1 38.1999 167.3 39.0999 165.6L39.3999 165.1L39.8999 165.4C43.1999 167.6 53.3999 173.2 57.4999 175.4L57.8999 175.6L57.6999 176C57.0999 177.4 56.5999 178.7 56.1999 180L55.9999 180.6ZM37.6999 170.8C41.7999 172.7 51.0999 177.1 55.3999 179.2C55.6999 178.2 56.1999 177.1 56.5999 176C52.3999 173.7 43.3999 168.8 39.7999 166.4C38.9999 168 38.2999 169.4 37.6999 170.8Z" fill="#0C41E2"/>
<path d="M54.0999 186.6L33.5999 184.2C33.3999 186.1 33.3999 187.9 33.3999 189.8L53.7999 190.3C53.8999 189 53.9999 187.8 54.0999 186.6Z" fill="#0C41E2"/>
<path d="M54.3999 190.7L32.9999 190.2V189.7C32.8999 187.8 32.9999 185.9 33.1999 184.1V183.6L54.6999 186.1L54.5999 186.6C54.3999 187.8 54.2999 189 54.2999 190.2L54.3999 190.7ZM33.9999 189.3L53.3999 189.7C53.3999 188.8 53.4999 187.9 53.5999 187L34.0999 184.8C33.9999 186.2 33.9999 187.8 33.9999 189.3Z" fill="#0C41E2"/>
<path d="M89.1999 199.9C89.1999 199.9 80.8999 204.4 72.0999 205L73.9999 223.5C77.9999 222.8 81.9999 221.7 85.6999 220L89.1999 199.9Z" fill="#0C41E2"/>
<path d="M73.5999 224.1L71.5999 204.5H72.0999C80.6999 203.9 88.8999 199.5 88.9999 199.5L89.8999 199L86.1999 220.3L85.9999 220.4C82.1999 222.1 78.2999 223.3 74.1999 224L73.5999 224.1ZM72.6999 205.4L74.4999 222.9C78.1999 222.2 81.7999 221.1 85.2999 219.6L88.5999 200.8C83.4999 203.2 78.1999 204.8 72.6999 205.4Z" fill="#0C41E2"/>
<path d="M54.4999 195.2L37.0999 204.3C37.7999 205.8 38.5999 207.2 39.4999 208.6C39.7999 209 40.0999 209.5 40.2999 209.9L55.9999 198.6C55.2999 197.5 54.7999 196.4 54.4999 195.2Z" fill="#0C41E2"/>
<path d="M40.1999 210.6L39.8999 210.2C39.5999 209.8 39.2999 209.3 38.9999 208.9C38.0999 207.5 37.2999 206 36.5999 204.5L36.3999 204.1L54.7999 194.5L54.9999 195C55.2999 196.1 55.7999 197.2 56.4999 198.2L56.6999 198.6L40.1999 210.6ZM37.7999 204.5C38.3999 205.8 39.0999 207.1 39.8999 208.3C40.0999 208.6 40.2999 208.9 40.4999 209.2L55.3999 198.5C54.8999 197.7 54.4999 196.9 54.1999 196L37.7999 204.5Z" fill="#0C41E2"/>
<path d="M61.3999 203.2L54.3999 221.7C55.9999 222.4 57.5999 222.9 59.2999 223.3L64.3999 204.3C63.3999 204 62.3999 203.7 61.3999 203.2Z" fill="#0C41E2"/>
<path d="M59.5999 223.9L59.0999 223.8C57.3999 223.4 55.6999 222.9 54.0999 222.2L53.7 222L61.0999 202.5L61.5999 202.7C62.4999 203.2 63.5 203.5 64.5 203.8L65 204L59.5999 223.9ZM55 221.4C56.3 221.9 57.6 222.3 58.9 222.6L63.7999 204.6C63.0999 204.4 62.4 204.1 61.7 203.8L55 221.4Z" fill="#0C41E2"/>
<path d="M42.6998 151.9C43.1998 150.9 38.4998 135.2 42.9998 126.9C47.4998 118.6 51.1998 122.9 50.7998 126.9C50.4998 129.3 49.9998 131.7 49.1998 134L51.1998 144.4C51.1998 144.4 57.6998 129.2 62.0998 126.8C66.4998 124.4 69.8998 125.3 69.2998 128.3C68.6998 131.3 64.5998 134.2 64.5998 134.2C64.5998 134.2 60.8998 143 60.5998 143.2L60.8998 143C60.8998 143 71.7998 146 71.3998 154.3C71.3998 154.3 76.5998 153.4 78.8998 152C81.1998 150.6 86.0998 149.6 86.1998 152.9C86.2998 156.2 72.1998 163.8 69.7998 166.1C67.3998 168.4 61.5998 175.3 51.9998 172C42.3998 168.7 40.3998 156.3 42.6998 151.9Z" fill="#0C41E2"/>
<path d="M44.7999 153.4C45.0999 152.7 44.6999 151.4 44.4999 150.6C44.1999 148.7 43.7999 146.7 43.5999 144.8C42.9999 140.1 42.5999 135 44.1999 130.4C44.9999 128.2 46.3999 125.6 48.3999 124.2C48.9999 123.9 49.5999 123.7 50.2999 123.7L48.0999 122.2C47.9999 122.1 48.0999 122.1 48.1999 122.3C48.2999 122.5 48.3999 122.6 48.3999 122.7C48.4999 123.1 48.6999 123.4 48.6999 123.8C49.0999 126.2 48.1999 129 47.4999 131.2C47.1999 131.9 47.1999 132.7 47.2999 133.5L49.0999 142.9C49.1999 143.6 52.8999 146.3 53.0999 145.7C55.3999 140.4 57.8999 134.8 61.5999 130.3C62.5999 129 63.9999 128 65.4999 127.4C66.5999 127 67.6999 126.8 68.7999 126.8C70.4999 126.8 67.1999 128.4 66.9999 125.2C66.9999 125.3 67.0999 125.4 67.0999 125.5C67.0999 126 67.0999 126.6 66.8999 127.1C66.0999 129 64.6999 130.7 62.9999 131.9C62.4999 132.3 62.0999 132.8 61.8999 133.4C61.1999 135 60.4999 136.6 59.7999 138.2C59.4999 139 59.0999 139.7 58.7999 140.5C58.6999 140.9 58.4999 141.2 58.1999 141.5C57.9999 141.7 61.2999 145.1 62.1999 144.5L62.5999 144.2H62.1999C62.2999 144.2 62.3999 144.3 62.5999 144.3C62.6999 144.4 62.8999 144.4 63.0999 144.5L63.3999 144.6C63.8999 144.8 64.3999 145 64.7999 145.2C64.9999 145.3 65.1999 145.4 65.2999 145.5L65.7999 145.8C66.0999 146 65.2999 145.5 65.9999 145.9L66.3999 146.1C66.0999 145.9 66.3999 146.1 66.4999 146.2C66.7999 146.5 66.1999 146 66.4999 146.2C66.6999 146.3 66.3999 146.1 66.6999 146.4C67.0999 146.8 67.4999 147.3 67.8999 147.8C68.7999 149.3 69.2999 151 69.1999 152.7C69.1999 153.3 70.5999 154.2 70.8999 154.5C71.1999 154.8 72.3999 155.7 73.0999 155.6C75.3999 155.2 77.6999 154.5 79.8999 153.6C81.0999 152.9 82.3999 152.4 83.6999 152.1C84.2999 152 84.8999 151.9 85.4999 152C87.2999 152.2 83.7999 151.2 83.7999 150.5C83.8999 150.8 83.8999 151.1 83.9999 151.3C83.8999 152.9 81.5999 154.5 80.3999 155.4C78.1999 157.1 75.8999 158.7 73.4999 160.2C71.6999 161.4 69.6999 162.5 67.9999 163.9C66.4999 165.1 65.1999 166.6 63.6999 167.8C61.3999 169.7 58.4999 170.8 55.5999 171C53.6999 171.1 51.7999 170.8 49.9999 170.1C49.0999 169.8 48.2999 169.3 47.6999 168.6C45.6999 166.3 44.3999 163.4 43.9999 160.4C43.5999 158.2 43.7999 155.7 44.7999 153.4C45.1999 152.5 40.9999 149.9 40.7999 150.4C39.7999 152.7 39.5999 155.2 40.0999 157.7C40.4999 160.8 41.7999 163.7 43.5999 166.2C48.2999 172.4 56.9999 176.5 64.5999 173.1C67.0999 171.8 69.3999 170.2 71.2999 168.1C72.8999 166.7 74.5999 165.4 76.4999 164.3C79.1999 162.5 81.9999 160.8 84.4999 158.8C85.7999 157.8 88.2999 156.1 88.2999 154.2C88.2999 152 85.2999 150.2 83.5999 149.5C81.8999 148.9 80.0999 149 78.4999 149.8C76.7999 150.4 75.2999 151.4 73.4999 151.9C72.1999 152.3 70.8999 152.6 69.5999 152.8L73.4999 155.7C73.6999 150.7 69.6999 147.1 65.7999 144.6C64.2999 143.6 62.6999 142.8 60.9999 142.2C60.0999 141.8 59.2999 141.3 58.4999 141.9L62.4999 144.9C62.6999 144.7 62.8999 144.4 62.9999 144C63.2999 143.3 63.6999 142.5 63.9999 141.8C64.6999 140.2 65.3999 138.6 66.0999 136.9C66.1999 136.5 66.3999 136.1 66.5999 135.8C66.8999 135.5 67.1999 135.2 67.5999 134.9C69.1999 133.5 71.0999 131.6 71.3999 129.4C71.6999 127 68.4999 124.9 66.4999 124.2C64.2999 123.4 61.5999 124.3 59.6999 125.6C58.3999 126.6 57.2999 127.9 56.3999 129.3C55.1999 131 54.1999 132.8 53.1999 134.7C51.7999 137.4 50.3999 140.1 49.1999 143L53.1999 145.8L51.3999 136.7C51.2999 136.3 51.1999 135.9 51.1999 135.5C51.1999 135.7 51.1999 135.4 51.2999 135.3C51.4999 134.8 51.5999 134.3 51.7999 133.7C52.3999 131.4 53.2999 128.5 52.6999 126.1C52.0999 123.7 49.7999 122 47.6999 121.1C45.5999 120.2 43.9999 121.4 42.6999 123C39.1999 127.4 38.7999 133.1 39.1999 138.5C39.3999 141.2 39.6999 143.9 40.1999 146.5C40.3999 147.4 40.4999 148.3 40.6999 149.2C40.7999 149.6 40.7999 150 40.7999 150.4C40.2999 151.4 44.5999 153.8 44.7999 153.4Z" fill="#0C41E2"/>
<path d="M223.6 229.7C223.1 228.2 222.4 226.6 221.7 225.2C221.5 224.7 221.2 224.3 221 223.8C218.1 218.2 213.7 213.6 208.2 210.6C206.7 209.8 205.1 209.1 203.5 208.5C198.8 207 193.8 206.4 188.8 206.8C184.7 207.1 180.7 207.9 176.8 209.2L171.4 228.8C171.4 228.8 180.1 225.2 188.9 225.4C191.5 225.4 194.1 225.9 196.5 226.8C197.5 227.2 198.5 227.7 199.4 228.2C200.5 228.9 201.4 229.7 202.3 230.6C203.1 231.4 203.8 232.4 204.3 233.4C204.9 234.5 205.3 235.7 205.5 236.9C205.8 238.6 205.8 240.2 205.7 241.9C205.6 243.1 205.4 244.3 205.1 245.5C204.5 247.7 203.8 249.8 202.9 251.9C202.3 253.3 201.6 254.6 201 255.8C199.9 257.9 198.6 260 197.2 262L210.9 275.7C213.4 273.2 215.7 270.5 217.6 267.6C218.7 266 219.7 264.3 220.6 262.6C222.8 258.6 224.3 254.3 225.2 249.9C225.6 248.1 225.8 246.2 225.9 244.4C226 239.5 225.3 234.4 223.6 229.7Z" fill="#EDF1FE"/>
<path d="M225.7 228.5C223.2 221.5 218.8 214.9 212.7 210.7C205.9 206 197.6 204.3 189.4 204.8C185.8 205 182.3 205.6 178.8 206.6C177.3 207 175.1 207.5 174.4 209.1C174 210.2 173.8 211.4 173.5 212.5L171.8 218.6L169 228.7C168.6 229.7 169.1 230.7 170.1 231.1C170.6 231.3 171.1 231.2 171.6 231C178 228.4 185.6 226.8 192.4 228.2C196.9 229.1 201.3 232 202.6 236.6C204 241.4 202.5 246.5 200.7 251C199.2 254.7 197.2 258.2 194.9 261.4C194.3 262.1 194.3 263.2 195 263.9L208.7 277.6C209.6 278.5 211.3 278 212 277.3C216 273.4 219.4 268.9 222 264C225.8 257.4 227.9 249.9 228 242.3C228 237.8 227.3 233.4 225.8 229.1C225.5 228 224.3 227.5 223.3 227.8C223.2 227.8 223.2 227.8 223.1 227.9C222.2 228.2 220.7 229.4 221.1 230.6C224.2 239.5 223.9 249.1 220.3 257.8C217.8 264.1 213.9 269.9 209.1 274.7L212.4 274.4L198.7 260.7L198.8 263.2C201.1 259.9 203.1 256.5 204.7 252.8C206.9 247.8 208.6 242 207.6 236.5C206.5 231.2 202.6 226.9 197.5 225.1C192.3 223.2 186.5 223.3 181.1 224.3C177.6 224.9 174.2 225.9 170.9 227.2L173.5 229.5L178.9 209.9L177 211.5C182.5 209.5 188.3 208.7 194.1 209.2C202 209.7 209.4 213.3 214.6 219.3C217.5 222.8 219.8 226.9 221.3 231.2C221.7 232.4 223.6 232.1 224.4 231.7C225.6 230.9 226.2 229.6 225.7 228.5Z" fill="#0C41E2"/>
<path d="M200.7 255.9C205.1 258.9 214.2 265.1 217.3 267.6C218.4 266 219.4 264.3 220.3 262.6C216.5 260.4 206.7 254.5 202.6 252C202 253.4 201.4 254.7 200.7 255.9Z" fill="#0C41E2"/>
<path d="M217.4 268.4L217 268C213.9 265.5 204.4 259 200.4 256.3L200 256.1L200.2 255.7C200.9 254.4 201.5 253.1 202.1 251.8L202.3 251.3L202.8 251.6C207.9 254.7 216.9 260.1 220.5 262.2L220.9 262.4L220.7 262.8C219.8 264.5 218.8 266.2 217.7 267.8L217.4 268.4ZM201.4 255.7C205.4 258.4 213.8 264.2 217.2 266.9C218.1 265.6 218.9 264.2 219.7 262.8C215.9 260.6 207.8 255.7 202.9 252.7C202.4 253.7 201.9 254.7 201.4 255.7Z" fill="#0C41E2"/>
<path d="M204.8 245.6L225 250C225.4 248.2 225.6 246.3 225.7 244.5L205.5 242C205.3 243.2 205.1 244.4 204.8 245.6Z" fill="#0C41E2"/>
<path d="M225.4 250.6L204.3 246L204.4 245.5C204.7 244.3 204.9 243.1 205 241.9L205.1 241.4L226.3 244V244.5C226.2 246.4 225.9 248.3 225.6 250.1L225.4 250.6ZM205.4 245.2L224.6 249.3C224.9 247.8 225.1 246.3 225.2 244.8L206 242.5C205.8 243.4 205.6 244.3 205.4 245.2Z" fill="#0C41E2"/>
<path d="M171.3 228.9C171.3 228.9 180 225.3 188.8 225.5L188.7 206.9C184.6 207.2 180.6 208 176.7 209.3L171.3 228.9Z" fill="#0C41E2"/>
<path d="M170.5 229.7L176.3 208.8L176.5 208.7C180.4 207.3 184.5 206.5 188.6 206.3H189.1L189.2 226H188.7C180 225.8 171.5 229.3 171.4 229.4L170.5 229.7ZM177.1 209.6L172 228C177.1 226.1 182.5 225.1 187.9 225H188.3L188.2 207.4C184.4 207.7 180.7 208.4 177.1 209.6Z" fill="#0C41E2"/>
<path d="M205.3 237L223.5 229.7C222.9 228.2 222.3 226.6 221.6 225.2C221.4 224.7 221.1 224.3 220.9 223.8L204.1 233.5C204.7 234.6 205.1 235.8 205.3 237Z" fill="#0C41E2"/>
<path d="M204.9 237.6L204.8 237C204.6 235.8 204.2 234.7 203.7 233.6L203.5 233.2L221.1 223L221.3 223.4C221.5 223.9 221.8 224.3 222 224.8C222.8 226.3 223.4 227.8 224 229.4L224.2 229.9L204.9 237.6ZM204.8 233.6C205.2 234.4 205.5 235.3 205.7 236.2L222.9 229.3C222.4 227.9 221.8 226.6 221.2 225.3C221 225 220.9 224.7 220.7 224.4L204.8 233.6Z" fill="#0C41E2"/>
<path d="M199.2 228.3L208 210.5C206.5 209.7 204.9 209 203.3 208.5L196.3 226.9C197.3 227.3 198.3 227.7 199.2 228.3Z" fill="#0C41E2"/>
<path d="M199.4 229L198.9 228.7C198 228.1 197.1 227.7 196.1 227.3L195.6 227.1L202.9 207.9L203.3 208C205 208.6 206.6 209.3 208.1 210.1L208.5 210.3L199.4 229ZM197 226.6C197.7 226.9 198.4 227.2 199 227.6L207.4 210.8C206.2 210.2 204.9 209.6 203.6 209.2L197 226.6Z" fill="#0C41E2"/>
<path d="M117.7 303.8H98.3999L104.5 245.7H123.9L117.7 303.8Z" fill="#EDF1FE"/>
<path d="M116.6 301.6H97.2L99.5 305.9L102.7 275.1L104.8 255L105.4 249.1C105.4 248.7 105.4 248.3 105.5 247.9C105.6 247.7 105.4 248 105.5 247.9C105.8 247.9 106 247.9 106.3 247.9H125L122.7 243.6L120.6 263.3L117.3 294.6L116.6 301.6C116.5 302.5 117.4 303.8 117.8 304.5C117.9 304.7 118.9 306.2 119 305.9L121.1 286.3L124.4 255L125.2 247.8C125.3 247 124.5 245.9 124.2 245.2C124 244.8 123.4 243.4 122.9 243.4H103.5V243.5L101.4 263.2L98 294.6L97.2 301.8C97.1 302.6 97.9 303.7 98.2 304.3C98.4 304.7 99 306.1 99.5 306.1H118.9C119.1 306.1 118.1 303.9 118.1 303.7C117.8 303.3 117.2 301.6 116.6 301.6Z" fill="#0C41E2"/>
<path d="M113.4 274.9C113.4 275.1 113.4 275.3 113.3 275.6C113.3 275.7 113.2 275.9 113.2 276C113.2 276 113.4 275.5 113.2 275.8C113.1 276 113 276.2 113 276.4C113 276.5 112.9 276.5 112.9 276.6C113.1 276.3 113.1 276.2 113 276.4L112.8 276.6C112.7 276.8 112.6 276.9 112.4 277C112.2 277.1 112.1 277.1 112.5 276.9C112.4 276.9 112.4 277 112.3 277.1C112.1 277.2 112 277.3 111.8 277.5C111.6 277.6 111.4 277.6 111.9 277.5C111.8 277.5 111.7 277.6 111.5 277.6C111.3 277.7 111.1 277.7 110.9 277.8C110.7 277.9 111 277.8 111.1 277.8C111 277.8 110.8 277.8 110.7 277.8C110.5 277.8 110.2 277.8 110 277.8C110 277.8 110.6 277.9 110.2 277.8L109.8 277.7C109.7 277.6 109.6 277.6 109.4 277.6C109.4 277.6 110 277.8 109.6 277.7C109.4 277.6 109.2 277.5 109 277.4C108.8 277.3 108.6 277.1 108.9 277.4L108.7 277.2L108.5 277C108.3 276.8 108.4 276.9 108.7 277.2C108.6 277 108.5 276.9 108.4 276.7C108.4 276.6 108.3 276.5 108.2 276.4C108.6 276.9 108.4 276.9 108.3 276.6C108.2 276.3 108.1 276.2 108.1 276C107.9 275.5 108.2 276.6 108.1 276.1C108.1 276 108.1 275.8 108 275.7C107.9 275.6 108 275.2 108 275.6C108 276 108 275.6 108 275.5C108.1 275.3 108.1 275.1 108.1 274.9C108.1 274.9 107.9 275.4 108.1 275.1C108.1 275 108.2 274.9 108.2 274.7C108.2 274.6 108.3 274.5 108.3 274.5C108.3 274.4 108.4 274.3 108.4 274.3L108.2 274.6C108.3 274.4 108.5 274.3 108.6 274.1C108.7 274 108.8 273.9 108.8 273.8C108.8 273.7 109 273.7 108.6 273.9C108.8 273.8 108.9 273.6 109.1 273.5L109.3 273.4C109.8 273.1 109 273.5 109.3 273.4L109.9 273.2L110.2 273.1C110.5 273 110 273.1 110 273.1C110.2 273.1 110.5 273.1 110.7 273.1C110.8 273.1 111 273.1 111.1 273.1L111.4 273.2C112 273.5 111.6 273.3 111.4 273.2C111.6 273.3 111.8 273.4 112 273.5L112.3 273.7C111.7 273.4 112 273.5 112.2 273.6L112.4 273.8C112.6 274 112.7 274.3 112.4 273.7C112.5 273.9 112.7 274.1 112.8 274.3C112.9 274.5 112.9 274.7 112.7 274.1C112.7 274.2 112.8 274.3 112.9 274.5L113.4 274.9C113.5 275.4 113.2 274.3 113.3 274.8C113.3 275.1 113.4 275.3 113.4 275.6C113.5 276.3 113.8 276.9 114.3 277.3C114.8 277.7 115.4 278 116 277.9C116.6 277.9 117.2 277.6 117.6 277.1C117.9 276.6 118.1 276 118 275.4C117.8 272.3 115.8 269.6 112.9 268.7C110.2 267.8 107.1 268.6 105.3 270.9C103.4 273.3 103.3 276.6 104.9 279.1C106.5 281.7 109.6 283.1 112.6 282.5C115.7 281.9 118 279.2 118 276C118.1 275.4 117.9 274.7 117.6 274.2C117.2 273.7 116.7 273.3 116.1 273.1C115 272.8 113.8 273.5 113.5 274.6C113.4 274.7 113.4 274.8 113.4 274.9Z" fill="#0C41E2"/>
<path d="M142.3 304.4H161.7L155.6 246.3H136.2L142.3 304.4Z" fill="#EDF1FE"/>
<path d="M143 306.6H162.4C163 306.7 163.6 306.2 163.7 305.6C163.7 305.5 163.7 305.3 163.7 305.2L161.6 285.5L158.3 254.2L157.5 247C157.4 245.9 156.2 244 154.9 244H135.5C134.9 243.9 134.3 244.4 134.2 245C134.2 245.1 134.2 245.2 134.2 245.4L136.3 265.1L139.6 296.4L140.4 303.6C140.6 304.8 141.4 305.9 142.5 306.4C143.1 306.7 143.8 306.5 144.1 306C144.2 305.7 144.3 305.5 144.2 305.2L142.1 285.5L138.8 254.2L138 247L136.8 248.4H156.2L153.6 245.4L155.7 265.1L159 296.5L159.8 303.7L161 302.3H141.7C139 302.2 141.1 306.6 143 306.6Z" fill="#0C41E2"/>
<path d="M142.8 274.8C142.9 278.1 144.7 281.1 147.6 282.5C149.8 283.5 152.5 282.9 154.1 281.1C156 278.9 155.6 275.6 154.3 273.2C153 270.8 150.5 268.7 147.5 269.1C146.2 269.3 145 269.9 144.1 271C143.3 272 142.8 273.4 142.8 274.8C142.8 276 143.4 277.2 144.4 278C144.7 278.2 145.1 278.5 145.4 278.3C145.7 278.1 145.8 277.6 145.8 277.3C145.8 277.2 145.9 276.8 145.8 277.2C145.8 277.1 145.8 277 145.8 276.9C145.8 276.7 145.9 276.5 145.9 276.3C146 275.9 145.8 276.4 145.9 276.2C146 276 146 276 146 275.9C146.1 275.7 146.2 275.5 146.4 275.3C146.6 275 146.8 274.8 147.1 274.6C147.5 274.3 147.9 274.1 148.3 273.9C149.1 273.6 149.9 273.5 150.7 273.7L151 273.8C151.2 273.9 150.7 273.7 151.1 273.8C151.3 273.9 151.5 274 151.7 274.1L151.9 274.2C152.3 274.4 151.7 274 151.9 274.2C152.1 274.4 152.1 274.3 152.1 274.4C152.4 274.7 152.1 274.5 152.1 274.4C152.1 274.5 152.3 274.6 152.3 274.7C152.3 274.8 152.3 274.9 152.2 274.5C152.5 275 152.2 274.6 152.2 274.5C152.4 274.9 152.1 274.2 152.1 274.2C152.1 274.2 152.2 274.9 152.1 274.1L152.2 274.4C152.2 274.5 152.2 274.6 152.2 274.6C152.2 274.3 152.2 274.2 152.2 274.4C152.2 274.6 152.2 274.8 152.2 275C152.2 274.5 152.2 275.2 152.1 275.3C152 275.4 152 275.5 152 275.7C152 275.9 151.9 275.9 152 275.7C151.9 275.9 151.8 276.2 151.6 276.4C150.7 277.8 149.1 278.6 147.5 278.4C147.2 278.4 147 278.3 146.7 278.3L146.3 278.1L146 278L145.8 277.9C145.7 277.8 145.7 277.9 145.9 278C145.8 278 145.7 277.8 145.6 277.8L145.5 277.7C145.3 277.6 145.4 277.6 145.6 277.8C145.6 277.8 145.5 277.7 145.4 277.6C145.3 277.5 145.3 277.5 145.2 277.4C145.4 277.7 145.5 277.8 145.4 277.6C145.3 277.4 145.2 277.2 145.5 277.8C145.5 277.7 145.4 277.6 145.3 277.5L145.5 277.9C145.5 277.8 145.4 277.7 145.4 277.7L145.5 278C145.5 277.9 145.4 277.8 145.4 277.8C145.4 277.8 145.4 277.6 145.4 277.5C145.4 277.8 145.4 277.9 145.4 277.6C145.4 277.5 145.4 277.4 145.4 277.3C145.3 276.1 144.8 274.9 143.8 274.1C143.5 273.9 143.1 273.6 142.7 273.8C142.3 274 142.8 274.5 142.8 274.8Z" fill="#0C41E2"/>
<path d="M102 132.9H160C162.5 132.9 164.4 134.9 164.4 137.3V180.3C164.4 182.8 162.4 184.7 160 184.7H102C99.4998 184.7 97.5998 182.7 97.5998 180.3V137.3C97.4998 134.9 99.4998 132.9 102 132.9Z" fill="#EDF1FE"/>
<path d="M159.4 182.7H103.3C102.7 182.7 102.1 182.7 101.5 182.7C100.2 182.7 99.7 182.2 99.7 180.9C99.6 173.3 99.7 165.7 99.7 158.1V144.2C99.5 142 99.5 139.9 99.7 137.7C99.8 136.9 100.2 136.3 100.8 135.8C101.1 135.6 101.3 135.4 101.6 135.3C101.8 135.2 102.8 135 102.4 135.1H157C158.2 135.1 161.5 134.6 162.1 135.8C162.3 136.5 162.4 137.3 162.3 138V155.9C162.3 163.7 162.4 171.5 162.3 179.3C162.4 181.1 161 182.7 159.2 182.8C159.1 182.8 159.1 182.8 159 182.8C157.8 182.9 157.7 184.4 158.1 185.2C158.7 186.3 159.8 187 161.1 187C164.2 186.9 166.7 184.3 166.7 181.1C166.7 180.2 166.7 179.4 166.7 178.5V139.4C166.8 138.1 166.6 136.8 166.1 135.6C164.9 132.9 162.3 131.1 159.3 131C157 131 154.7 131 152.4 131H122.9C115.8 131 108.8 131 101.7 131C99.5 130.8 97.4 131.8 96.2 133.6C95.5 134.8 95.2 136.3 95.3 137.7V176.8C95.3 177.7 95.3 178.6 95.3 179.6C95.4 182.8 97.5 185.7 100.6 186.7C102.6 187.3 104.9 187 107 187H160.5C163.6 186.9 161.6 182.7 159.4 182.7Z" fill="#0C41E2"/>
<path d="M171.8 188.6H88.7998V198.7H171.8V188.6Z" fill="#EDF1FE"/>
<path d="M172.2 196.6H89.2L91.3 198.4V188.3L88.5 190.8H171.5L169.4 189V199.1C169.4 200.4 171.1 201 172.2 200.9C173.5 200.8 174.4 199.7 174.4 198.4V188.2C174.4 187.3 173.2 186.4 172.3 186.4H89.3C87.7 186.4 86.5 187.2 86.5 188.9V199C86.5 199.9 87.7 200.8 88.6 200.8H171.6C172.9 200.9 174.1 200.1 174.4 198.9C174.5 197.7 173.6 196.7 172.5 196.6C172.3 196.6 172.2 196.6 172.2 196.6Z" fill="#0C41E2"/>
<path d="M132.4 256.6C101.2 256.6 75.8999 231.3 75.8999 200.1V198.6H188.8V200.1C188.8 231.3 163.5 256.6 132.4 256.6Z" fill="#EDF1FE"/>
<path d="M132.7 254.4C109 254.4 88.0999 239.1 80.8999 216.5C79.0999 210.6 78.1999 204.4 78.2999 198.2L75.4999 200.7H183.8C185.2 200.7 186.8 200.8 188.2 200.7H188.4L186.3 198.9C186.5 209.9 183.4 220.7 177.4 230C171.2 239.4 162.2 246.7 151.7 250.8C145.7 253.1 139.2 254.4 132.7 254.4C131.4 254.3 130.2 255.1 129.9 256.4C129.8 257.6 130.7 258.7 131.9 258.8C132 258.8 132 258.8 132.1 258.8C144.8 258.8 157.2 254.8 167.5 247.3C177.4 240 184.8 229.8 188.6 218.1C190.6 211.7 191.5 205 191.5 198.3C191.5 197.3 190.2 196.5 189.4 196.5H90.0999C85.4999 196.5 80.9999 196.5 76.3999 196.5H76.1999C74.7999 196.3 73.5999 197.3 73.3999 198.7C73.3999 198.8 73.3999 198.9 73.3999 199C73.3999 210.9 76.3999 222.6 83.0999 232.5C89.9999 242.8 99.8999 250.6 111.4 255C118 257.5 124.9 258.7 131.9 258.7C133.2 258.8 134.4 258 134.7 256.7C134.8 255.5 133.9 254.4 132.7 254.4Z" fill="#0C41E2"/>
<path d="M145.8 222.6C145.7 229 141.8 234.8 135.9 237.4C130.3 239.8 123.1 238.8 118.8 234.2C114.7 229.8 114.9 222.7 117.9 217.6C121.2 212 127.6 208.9 134 209.7C137.3 210.1 140.3 211.5 142.6 213.9C144.8 216.2 145.9 219.3 145.8 222.6C146 223.8 146.6 224.8 147.5 225.6C147.9 226 149.1 226.7 149.1 225.6C148.9 217.5 144.1 210.2 136.7 206.8C129.7 203.7 121.6 205.6 116.6 211.4C111.6 217.4 111.3 225.8 115.2 232.5C119.1 239.2 126.4 244 134.4 242.8C142.9 241.5 149.1 234.2 149.2 225.7C149.1 224.5 148.5 223.5 147.6 222.7C147 222.1 145.8 221.4 145.8 222.6Z" fill="#0C41E2"/>
<path d="M92.9998 225.9L112.6 226.4L115.4 226.5C116.1 226.5 114.5 224.9 114.5 224.9C113.8 224.3 112.8 223.4 111.8 223.3L92.1998 222.8L89.3998 222.7C88.6998 222.7 90.2998 224.3 90.2998 224.3C90.9998 224.9 91.9998 225.9 92.9998 225.9Z" fill="#0C41E2"/>
<path d="M148.6 227.3L169.8 227.5H172.9C174 227.5 175.5 226.9 175.7 225.7C175.9 224.5 174.6 223.9 173.6 223.9L152.4 223.7H149.3C148.2 223.7 146.7 224.3 146.5 225.5C146.3 226.7 147.6 227.3 148.6 227.3Z" fill="#0C41E2"/>
<path d="M137.2 225C137.2 225.7 137.1 226.4 136.8 227.1C136.5 227.8 136.2 228.5 135.7 229.1C135.9 228.8 135.6 229.2 135.5 229.3C135.4 229.4 135.2 229.6 135.1 229.7L134.8 230C134.8 230 134.2 230.5 134.6 230.2C134.3 230.4 133.9 230.7 133.6 230.9L133.2 231.1C133.6 230.9 132.9 231.2 132.8 231.3L132.2 231.5C132.2 231.5 131.5 231.7 131.8 231.6C132.1 231.5 131.3 231.7 131.4 231.7C131.2 231.7 131 231.7 130.8 231.8C130.6 231.9 130.4 231.8 130.2 231.8C130.6 231.8 130.1 231.8 130 231.8C129.5 231.7 129.1 231.7 128.7 231.5C129.2 231.6 128.4 231.4 128.4 231.4L128 231.2C127.8 231.1 127.6 231 127.4 230.9C127.5 231 127.7 231.1 127.3 230.8C126.7 230.4 126.1 229.9 125.6 229.3C123.8 227 123.6 223.7 125.1 221.2C125.4 220.6 125.9 220.1 126.4 219.6C126.4 219.6 126.9 219.2 126.7 219.3C126.5 219.4 127.1 219 127 219.1L127.4 218.9C127.5 218.9 128.3 218.5 127.9 218.6C128.3 218.4 128.7 218.3 129 218.2L129.5 218.1C129.1 218.2 129.6 218.1 129.7 218.1C130.1 218 130.5 218 131 218C131.5 218 130.4 217.9 131.2 218C131.4 218 131.7 218.1 131.9 218.1C133.3 218.4 134.6 219.2 135.6 220.3C136.7 221.6 137.3 223.3 137.2 225C137.2 227.9 142.2 227.5 142.2 224.6C142.1 219.9 139.1 215.8 134.7 214.1C130 212.4 124.8 213.8 121.5 217.5C118.4 221.2 118 226.5 120.5 230.7C124 236.2 131.2 237.8 136.7 234.3C140 232.2 142.1 228.5 142.1 224.6C142.1 223.3 140.6 222.5 139.4 222.5C138.3 222.6 137.3 223.7 137.2 225Z" fill="#0C41E2"/>
<path d="M94.2 221.6C95.415 221.6 96.4 220.615 96.4 219.4C96.4 218.185 95.415 217.2 94.2 217.2C92.985 217.2 92 218.185 92 219.4C92 220.615 92.985 221.6 94.2 221.6Z" fill="#0C41E2"/>
<path d="M93.8998 219.3C93.8998 219.7 93.7998 220.1 93.5998 220.4L93.6998 220.2C93.4998 220.5 93.1998 220.8 92.8998 221L93.1998 220.9L92.9998 221C92.8998 221 92.5998 221.1 92.8998 221C93.1998 220.9 92.9998 221 92.8998 221C92.6998 221 93.2998 220.9 93.1998 220.9C92.8998 220.9 93.6998 220.9 93.5998 220.9C93.2998 220.9 94.2998 220.9 93.9998 220.9L94.4998 221C94.5998 221 94.7998 221.1 94.8998 221.1C94.6998 221.1 95.4998 221.3 95.1998 221.2H95.0998C95.0998 221.2 95.4998 221.4 95.2998 221.3L95.1998 221.2C94.8998 221 94.6998 220.7 94.4998 220.3L94.5998 220.5C94.2998 219.9 94.3998 219.1 94.6998 218.5L94.5998 218.7C94.7998 218.4 95.0998 218.1 95.3998 217.9L95.0998 218L95.2998 217.9C95.6998 217.8 95.3998 217.9 95.2998 217.9C95.1998 217.9 94.8998 218 95.2998 217.9C95.4998 217.8 94.8998 218 94.9998 218C95.2998 218 94.4998 218 94.5998 218C94.8998 218 93.8998 218 94.1998 218C93.9998 218 93.8998 218 93.6998 217.9C93.5998 217.9 93.3998 217.8 93.2998 217.8C93.4998 217.8 92.6998 217.6 92.9998 217.7H93.0998C93.0998 217.7 92.6998 217.5 92.8998 217.6H92.9998C93.2998 217.8 93.4998 218.1 93.6998 218.5L93.5998 218.3C93.7998 218.6 93.7998 218.9 93.8998 219.3C93.8998 219.5 94.3998 219.7 94.5998 219.7C95.6998 220 96.9998 220.1 98.0998 219.9C98.2998 219.9 98.8998 219.8 98.8998 219.5C98.8998 218.9 98.6998 218.4 98.3998 218C97.9998 217.5 97.3998 217.2 96.7998 217C95.9998 216.8 95.2998 216.6 94.4998 216.6C93.6998 216.5 92.8998 216.6 92.1998 216.7C91.4998 216.8 90.8998 217.1 90.3998 217.6C89.5998 218.4 89.4998 219.7 90.1998 220.6C90.5998 221.2 91.1998 221.6 91.7998 221.8C92.2998 222 92.8998 222.1 93.4998 222.2C94.3998 222.3 95.2998 222.3 96.1998 222.2C96.9998 222.1 97.7998 221.8 98.3998 221.2C98.7998 220.7 99.0998 220.2 99.0998 219.5C99.0998 219.2 98.5998 219 98.3998 219C97.7998 218.8 97.1998 218.7 96.5998 218.7C95.9998 218.6 95.3998 218.7 94.7998 218.8C94.3998 218.9 93.8998 219 93.8998 219.3Z" fill="#0C41E2"/>
<path d="M105.5 221.4C106.715 221.4 107.7 220.415 107.7 219.2C107.7 217.985 106.715 217 105.5 217C104.285 217 103.3 217.985 103.3 219.2C103.3 220.415 104.285 221.4 105.5 221.4Z" fill="#0C41E2"/>
<path d="M105.4 220C105.4 220.1 105.4 220.2 105.4 220.4V220.2C105.3 220.6 105.2 221 104.9 221.3L105.1 221.1C105 221.2 104.9 221.3 104.8 221.4C105.1 221.2 105.1 221.2 105 221.3C104.8 221.4 104.9 221.4 105.3 221.1C105.1 221.2 105.2 221.1 105.7 220.9L105.9 220.8C106.2 220.7 106.4 220.6 106.7 220.5C107.2 220.4 107.3 220.3 107.1 220.4L107.4 220.3H107.5H107.3H107.6C107.2 220.2 106.9 220.1 106.5 219.9L106.6 220C106 219.5 105.7 218.7 105.8 217.9V218.1C105.9 217.7 106.1 217.3 106.3 217L106.1 217.2C106.2 217.1 106.3 217 106.4 216.9L106.2 217C106.4 216.9 106.3 216.9 105.9 217.2C106.1 217.1 106 217.2 105.5 217.4L105.3 217.5C105.1 217.6 104.8 217.7 104.5 217.8L104.1 217.9L103.8 218H103.7H103.9H103.6C104 218.1 104.4 218.2 104.7 218.4L104.6 218.3C105.1 218.7 105.4 219.3 105.4 220C105.4 220.2 106.2 220.1 106.3 220.1C106.9 220 107.5 219.9 108 219.6C108.6 219.4 109.1 219.1 109.6 218.8C109.8 218.7 110.2 218.5 110.2 218.2C110.2 217.1 109.4 216.2 108.4 216C107.4 215.8 106.3 215.9 105.3 216.3C104.4 216.6 103.5 217 102.6 217.5C102.3 217.7 101.9 218 101.7 218.3C100.9 219.1 100.8 220.3 101.4 221.2C102.2 222.4 103.8 222.5 105.1 222.1C106.1 221.9 107.1 221.5 108 221C108.5 220.8 108.9 220.4 109.3 220.1C109.8 219.6 110.1 219 110.1 218.3C110.1 218.1 109.3 218.2 109.3 218.2C108.7 218.3 108.1 218.4 107.6 218.7C107 218.9 106.5 219.2 106 219.5C105.7 219.6 105.4 219.7 105.4 220Z" fill="#0C41E2"/>
<path d="M160.6 221.4C161.815 221.4 162.8 220.415 162.8 219.2C162.8 217.985 161.815 217 160.6 217C159.385 217 158.4 217.985 158.4 219.2C158.4 220.415 159.385 221.4 160.6 221.4Z" fill="#0C41E2"/>
<path d="M160.6 218C160.6 218.2 160.6 218.4 160.5 218.5L160.6 218.2C160.5 218.7 160.2 219.1 159.8 219.4L160 219.2C159.7 219.4 159.4 219.6 159 219.6L159.3 219.5C159.1 219.5 158.9 219.5 158.7 219.5L159.1 219.6L158.9 219.5C158.6 219.4 159.4 219.7 159.2 219.6C159 219.5 159.8 219.9 159.5 219.7C159.2 219.5 160.2 220.1 159.9 219.9C159.6 219.7 160.6 220.4 160.2 220.1C160.6 220.5 160.7 220.5 160.5 220.4L160.4 220.3C160.3 220.2 160.8 220.8 160.6 220.5L160.5 220.3L160.7 220.7C160.6 220.5 160.5 220.4 160.5 220.2L160.6 220.5C160.5 220.1 160.5 219.8 160.6 219.4L160.5 219.7C160.6 219.2 160.9 218.8 161.3 218.5L161.1 218.7C161.4 218.5 161.7 218.3 162.1 218.3H161.8C162 218.3 162.2 218.3 162.4 218.3L162 218.2L162.2 218.3C162.5 218.4 161.7 218.1 161.9 218.2C162.1 218.3 161.3 217.9 161.6 218.1C161.9 218.3 160.9 217.7 161.2 217.9C161.5 218.1 160.5 217.4 160.9 217.7C160.5 217.3 160.4 217.3 160.6 217.4L160.7 217.5C160.8 217.6 160.3 217 160.5 217.3C160.5 217.4 160.6 217.4 160.6 217.5L160.4 217.1C160.5 217.3 160.6 217.4 160.6 217.6L160.5 217.3C160.6 217.6 160.6 217.8 160.6 218C160.7 218.4 160.9 218.8 161.2 219.1C161.7 219.6 162.2 220 162.8 220.3C163.2 220.6 163.8 220.7 164.3 220.8C164.6 220.8 164.9 220.7 164.9 220.3C164.9 219.6 164.6 218.9 164.2 218.3C163.3 217.2 162.2 216.3 160.9 215.8C159.6 215.1 158 215.3 156.9 216.3C156.5 216.7 156.3 217.3 156.3 217.8C156.3 218.5 156.5 219.2 156.9 219.8C157.2 220.2 157.5 220.6 157.9 220.9C158.4 221.4 159 221.8 159.7 222.2C160.5 222.7 161.5 222.9 162.5 222.9C163.2 222.8 163.9 222.5 164.4 222C164.8 221.5 165.1 220.9 165 220.2C164.9 219.8 164.7 219.4 164.4 219.1C164 218.6 163.4 218.2 162.9 217.9C162.5 217.6 161.9 217.5 161.4 217.4C160.9 217.6 160.6 217.7 160.6 218Z" fill="#0C41E2"/>
<path d="M171.9 221.1C173.115 221.1 174.1 220.115 174.1 218.9C174.1 217.685 173.115 216.7 171.9 216.7C170.685 216.7 169.7 217.685 169.7 218.9C169.7 220.115 170.685 221.1 171.9 221.1Z" fill="#0C41E2"/>
<path d="M172.1 217.8C172.1 218 172.1 218.2 172 218.3L172.1 217.8C172.1 218.2 171.9 218.4 171.8 218.7L172 218.4C171.8 218.6 171.6 218.8 171.3 219L171.7 218.8C171.5 218.9 171.2 219 170.9 219.1L171.3 219C171.1 219 170.9 219 170.6 219L171.1 219.1C170.9 219.1 170.8 219 170.7 219L171.2 219.2C171.1 219.1 170.9 219.1 170.8 219L171.3 219.3C171.2 219.2 171.1 219.1 171 219.1L171.5 219.6C171.4 219.5 171.3 219.4 171.3 219.3L171.7 219.8C171.6 219.7 171.6 219.6 171.5 219.5L171.8 220.1C171.8 220 171.7 219.9 171.7 219.7L171.8 220.2C171.8 220 171.7 219.8 171.7 219.7V220.2C171.7 220 171.7 219.8 171.8 219.6L171.7 220C171.8 219.7 171.9 219.5 172.1 219.2L171.9 219.6C172.1 219.4 172.3 219.1 172.6 219L172.2 219.2C172.4 219.1 172.7 219 173 218.9L172.6 219C172.8 219 173 219 173.3 219L172.8 218.9C173 218.9 173.1 219 173.2 219L172.7 218.8C172.8 218.9 173 218.9 173.1 219L172.6 218.7C172.7 218.8 172.8 218.9 172.9 218.9L172.4 218.4C172.5 218.5 172.6 218.6 172.6 218.7L172.2 218.2C172.3 218.3 172.3 218.4 172.4 218.5L172.1 217.8C172.1 218 172.1 218.1 172.2 218.3L172.1 217.8C172.1 217.9 172.1 218.1 172.1 218.2V217.8C172.1 218.4 172.2 218.9 172.5 219.4C172.8 220 173.3 220.4 173.9 220.7C174.3 221 174.9 221.1 175.4 220.9C175.8 220.8 176.1 220.4 176.1 219.9C176.1 219.3 176 218.8 175.8 218.2C175.7 217.8 175.5 217.4 175.2 217C174.8 216.5 174.4 216 173.9 215.6C173.6 215.3 173.2 215.1 172.8 214.9C172.3 214.7 171.7 214.5 171.2 214.5C170.8 214.5 170.4 214.5 170.1 214.6C169.7 214.7 169.4 214.9 169.1 215.1C168.9 215.2 168.7 215.4 168.5 215.6C168 216.2 167.7 216.9 167.6 217.6C167.5 218.6 167.8 219.6 168.3 220.5C168.6 221 168.9 221.4 169.3 221.8C169.7 222.2 170.1 222.5 170.6 222.8C171.4 223.2 172.3 223.4 173.1 223.3C173.8 223.2 174.5 222.9 175 222.3C175.6 221.7 175.9 220.9 175.9 220.1C175.9 219.5 175.8 219 175.5 218.5C175.2 217.9 174.7 217.5 174.1 217.2C173.7 216.9 173.1 216.8 172.6 217C172.4 217 172.1 217.4 172.1 217.8Z" fill="#0C41E2"/>
<path d="M158.5 139.1H107.3V163.3H158.5V139.1Z" fill="#6A90FF"/>
<path d="M159.3 137.1H108.1C106.5 137 105 138.2 104.9 139.9V164.1C104.9 164.8 105.7 165.2 106.3 165.2H157.5C159.2 165.3 160.6 164.1 160.7 162.4V138.2C160.7 137 158.9 137 158.1 137.2C156.9 137.6 156.1 138.6 156.1 139.8V164L159.3 161.2H108L109.4 162.3V138.1L106.2 140.9H157.4C158.7 140.9 159.9 140.2 160.5 139.1C160.9 138.4 160.6 137.5 159.9 137.2C159.8 137.2 159.6 137.1 159.3 137.1Z" fill="#0C41E2"/>
<path d="M126.1 147.5C125 147.9 124.4 149.1 124.8 150.2C124.8 150.3 124.9 150.4 124.9 150.5C126 152.5 128.5 151.3 128.2 149.2C128.2 148.2 127.4 147.4 126.4 147.5C126.3 147.4 126.2 147.4 126.1 147.5Z" fill="#EDF1FE"/>
<path d="M142.2 147.3C141.1 147.7 140.5 148.9 140.9 150C140.9 150.1 141 150.2 141 150.3C142.1 152.4 144.6 151.1 144.3 149C144.3 148 143.5 147.2 142.5 147.3C142.4 147.3 142.3 147.3 142.2 147.3Z" fill="#EDF1FE"/>
<path d="M199.3 302.1H60.8999V434.7H199.3V302.1Z" fill="#EDF1FE"/>
<path d="M197.6 433.1H76.0999C70.4999 433.1 64.8999 432.8 59.2999 433.1H59.0999L62.9999 436V305.4C63.0999 304.8 63.0999 304.2 62.9999 303.6C62.9999 303.5 62.9999 303.4 62.9999 303.4L62.7999 303.7H184.2C189.8 303.7 195.4 304 201 303.7H201.2L197.3 300.8V428C197.3 429.7 197.1 431.5 197.3 433.2C197.3 433.3 197.3 433.3 197.3 433.4C197.3 434.3 198.8 435.3 199.5 435.6C199.8 435.8 201.4 436.7 201.4 435.9V308.8C201.4 307.1 201.6 305.3 201.4 303.6V303.4C201.4 302.7 200.3 301.9 199.8 301.5C199.2 300.9 198.4 300.6 197.6 300.5H61.1999C60.5999 300.4 59.9999 300.4 59.2999 300.5C59.1999 300.5 59.0999 300.5 59.0999 300.5C58.9999 300.5 58.8999 300.6 58.8999 300.8V428C58.8999 429.7 58.6999 431.5 58.8999 433.2C58.8999 433.3 58.8999 433.3 58.8999 433.4C58.8999 434.1 60.0999 434.9 60.4999 435.3C61.0999 435.9 61.8999 436.2 62.7999 436.3H199.1C199.7 436.4 200.3 436.4 201 436.3H201.2C202.1 436.3 200.4 434.6 200.3 434.5C199.6 433.8 198.6 433.3 197.6 433.1Z" fill="#0C41E2"/>
<path d="M212.8 281.2C212.2 282.1 215.4 298.2 210 306C204.6 313.8 201.4 309.1 202.3 305.3C202.8 302.9 203.6 300.6 204.6 298.4L203.6 287.9C203.6 287.9 195.7 302.4 191 304.3C186.3 306.2 183.1 305 184 302.1C184.9 299.2 189.3 296.7 189.3 296.7C189.3 296.7 193.9 288.3 194.2 288.1L193.9 288.3C193.9 288.3 183.4 284.3 184.6 276C184.6 276 179.4 276.4 176.9 277.6C174.4 278.8 169.5 279.3 169.7 276C169.9 272.7 184.7 266.5 187.3 264.5C189.9 262.5 196.4 256.1 205.6 260.4C214.8 264.7 215.5 277 212.8 281.2Z" fill="#0C41E2"/>
<path d="M210.5 280.9C210 281.9 210.3 283.3 210.4 284.3C210.5 286.2 210.7 288 210.7 289.9C210.8 294.4 210.7 299.3 208.9 303.5C208.4 304.6 207.8 305.5 207.1 306.5C206.6 307.1 206.1 307.7 205.6 308.2C205.3 308.5 204.8 308.6 204.8 308.7L205 308.6C204.7 308.7 204.7 308.7 205.1 308.6C205.9 308.6 204.8 308.8 205.4 308.6C205.4 308.6 205.1 308.3 205.3 308.6C204.9 308.1 204.6 307.5 204.6 306.8C204.3 304.8 205.5 302 206.3 300C206.6 299.4 206.9 298.6 206.9 297.9C206.9 297.6 206.8 297.3 206.8 296.9L205.9 287.3C205.8 286.4 204.4 286.1 203.8 286.1C202.8 286.1 201.8 286.6 201.2 287.5C198.5 292.4 195.5 297.6 191.5 301.5C191.1 301.9 190.7 302.3 190.2 302.6C189.7 303 190.5 302.6 189.9 302.8C189.3 303 188.6 303.2 188 303.4C187.5 303.5 187 303.5 186.5 303.3C186.1 303.1 186.1 302.5 186.4 301.9C187.3 300.4 188.5 299.1 190 298.3C190.8 297.8 191.4 297.1 191.9 296.3C192.7 294.8 193.6 293.3 194.4 291.8C194.8 291.1 195.2 290.4 195.6 289.7C195.7 289.4 195.9 289.2 196.1 288.9C196.4 288.4 195.6 289.3 195.8 289.2C196.5 288.9 196.9 288 196.5 287.3C196.4 287.1 196.3 286.9 196.1 286.8C195.1 286 193.6 286.4 192.6 287L192.2 287.2L195.2 286.8C194.7 286.6 194.2 286.4 193.8 286.1C193.3 285.9 194 286.2 193.7 286.1L193.3 285.9L192.4 285.4C191.8 285 191.2 284.6 190.7 284.2C188.2 282.2 186.4 279.3 186.8 276C186.9 274.8 185.6 274.3 184.6 274.4C182.1 274.6 179.7 275 177.3 275.7C176.5 275.9 175.9 276.2 175.1 276.5C174.9 276.6 174.8 276.6 174.6 276.6C174.4 276.7 174.2 276.7 174.1 276.7C174 276.7 173.7 276.8 174 276.7C173.6 276.8 173.3 276.8 172.9 276.8C173.3 276.8 172.3 276.7 172.6 276.8C172.4 276.8 172.2 276.6 172.1 276.5C172 276.3 172 276.1 172 275.9C172 275.6 171.9 276.3 172 275.9C172 275.7 172.3 275.5 172 275.8C172.1 275.6 172.3 275.5 172.4 275.3C172.6 275.1 172.8 275 172.9 274.8C172.6 275.1 173.1 274.7 173.2 274.6C173.7 274.2 174.1 273.9 174.6 273.6C176.8 272.2 179.2 270.8 181.5 269.7C183.6 268.6 185.8 267.5 187.9 266.3C189.5 265.3 190.9 263.9 192.6 262.8C194.8 261.2 197.6 260.6 200.3 260.9C203.5 261.4 206.4 263.1 208.4 265.7C210.2 268.2 211.3 271.2 211.5 274.4C212 276.6 211.6 278.9 210.5 280.9C209.9 282 211 282.9 211.9 283C213.1 283.2 214.4 282.7 215.1 281.6C216.4 279.3 216.9 276.7 216.7 274.1C216.6 270.9 215.8 267.8 214.2 265.1C210.1 257.9 200.8 255.5 193.3 258.5C190.7 259.7 188.2 261.3 186 263.2C185.7 263.4 185.4 263.6 185.1 263.8C184.9 263.9 184.7 264 184.5 264.1L183.9 264.4L183.2 264.8L182.4 265.3L180.5 266.3C177.6 267.8 174.8 269.3 172.1 271C170.4 272.1 167.5 273.8 167.2 276.1C166.5 280.7 173 280.6 175.8 279.8C177.7 279.3 178.8 278.6 180.7 278.3C181.8 278.1 183 277.9 184.2 277.8L182 276.2C181.4 280.7 183.9 284.5 187.4 287.2C188.7 288.1 190 288.9 191.4 289.6C192.8 290.3 194.5 290.2 195.8 289.3L192.7 287.1C192.1 287.6 191.5 288.2 191.2 289C190.6 290 190.1 291 189.5 292C188.6 293.5 187.8 295 187 296.5L187.7 295.7C185.2 297.2 182.4 299.5 181.5 302.3C180.1 306.9 186.3 307.4 189.3 306.7C195.7 305.2 199.5 298.7 202.7 293.5C203.8 291.8 204.8 290.1 205.7 288.4L201 288.6L202 299.1L202.1 298.2C201.5 299.6 200.9 301 200.5 302.5C199.9 304.4 199.3 306.3 199.7 308.3C200.4 312 204.4 312.9 207.4 311.2C211.3 309.1 213.6 304.7 214.6 300.6C215.4 296.7 215.7 292.7 215.5 288.8C215.4 287.1 215.3 285.3 215.2 283.6C215.2 283 215.1 282.4 215.1 281.8C215.1 282.2 215.1 281.8 215.1 281.6C215.1 281.3 215.2 281.2 215 281.6C215.6 280.6 214.6 279.7 213.6 279.6C212.4 279.3 211.2 279.8 210.5 280.9Z" fill="#0C41E2"/>
</svg>
