<svg width="500" height="500" viewBox="0 0 500 500" fill="none" xmlns="http://www.w3.org/2000/svg">
<path fill-rule="evenodd" clip-rule="evenodd" d="M213.675 0.0765952C292.37 -2.61428 349.003 66.0972 399.409 126.923C451.808 190.154 517.126 261.141 495.884 340.626C475.037 418.635 382.561 443.074 307.341 471.432C243.586 495.468 174.905 514.605 113.638 484.733C52.5392 454.944 18.2638 390.722 4.61994 323.837C-8.60752 258.994 7.28474 194.623 43.133 139.106C85.0617 74.1713 136.724 2.70785 213.675 0.0765952Z" fill="#EDF1FE"/>
<path d="M78.1999 450.999C78.1999 450.999 30.5999 127.299 34.4999 123.599C38.3999 119.899 266.3 68.1993 275.4 77.8993C284.5 87.5993 336.9 399.299 331.2 409.999C325.5 420.699 78.3999 456.999 78.1999 450.999Z" fill="#0C41E2"/>
<path d="M79.8 452C79.5 449.9 79.2 447.7 78.9 445.6C78 439.7 77.2 433.8 76.3 427.9C75 419 73.7 410 72.4 401.1C70.8 389.9 69.2 378.7 67.6 367.5C65.8 354.8 64 342.1 62.1 329.4C60.2 315.9 58.3 302.5 56.4 289C54.5 275.5 52.6 262 50.8 248.5C49.1 235.8 47.3 223 45.6 210.3C44.1 199.1 42.6 187.8 41.2 176.5C40.1 167.6 39 158.6 38 149.7C37.3 143.7 36.7 137.7 36.2 131.7C36.1 130.1 36 128.4 36 126.8C36 126.4 36 125.9 36.1 125.5C36.1 125.9 36 125.6 36.1 125.5C36.2 125.4 35.8 125.7 36.1 125.5C37.1 124.9 38.2 124.6 39.4 124.3C41.9 123.5 44.4 122.9 46.9 122.2C55.2 120 63.5 118 71.8 116C83.3 113.3 94.8 110.6 106.3 108.1C119.5 105.1 132.8 102.3 146.1 99.5C159.7 96.6 173.3 93.9 186.9 91.2C199.4 88.8 212 86.4 224.5 84.3C234.5 82.6 244.6 81 254.7 79.8C260.8 79.1 267.1 78.2 273.2 78.8C273.5 78.8 273.9 78.9 274.2 79C274.5 79.1 274.9 79.1 275.2 79.2C275.8 79.4 275.1 79 275.6 79.4C275.3 79.2 275 78.9 274.8 78.6C274.8 78.7 274.4 77.9 274.8 78.6C275.1 79.1 274.7 78.3 274.7 78.5L274.9 78.9C275.2 79.6 275.5 80.3 275.7 81.1L275.9 81.7C275.9 81.8 276.2 82.5 276.1 82.2C276 81.9 276.2 82.6 276.3 82.8L276.5 83.6C276.9 84.8 277.2 86 277.5 87.3C278.3 90.4 279.1 93.5 279.8 96.6C281.8 105.2 283.6 113.8 285.4 122.4C287.7 133.5 289.8 144.5 291.9 155.6C294.3 168.4 296.6 181.2 298.9 194C301.3 207.7 303.7 221.4 306 235.1C308.3 248.9 310.6 262.8 312.9 276.7C315 289.9 317.1 303.1 319.1 316.4C320.9 328.2 322.6 340 324.3 351.8C325.6 361.4 326.9 371 328 380.6C328.8 387.1 329.5 393.6 329.8 400.2C329.9 402.1 330 404.1 329.9 406L329.8 407C329.8 407.3 329.6 408 329.8 407.5C329.8 407.7 329.7 407.9 329.7 408C329.6 408.3 329.5 408.3 329.6 408.2C328.6 409.1 327.3 409.8 326 410.2C323.6 411.1 321.2 411.9 318.7 412.6C310.7 414.9 302.5 416.6 294.3 418.3C283.1 420.6 271.8 422.8 260.5 424.8C247.4 427.1 234.4 429.4 221.2 431.5C207.6 433.7 193.9 435.8 180.3 437.8C167.4 439.7 154.5 441.5 141.6 443.2C130.7 444.7 119.8 446 108.9 447.2C101.3 448 93.7 448.8 86.1 449.3C84 449.4 81.9 449.5 79.8 449.4L78.7 449.3H78.3C78.5 449.3 78.5 449.3 78.3 449.3C78.1 449.3 77.9 449.1 77.7 449.2C78.5 449 79.8 451.4 79.9 452.3C79.8 451.1 79.1 450 78.2 449.3C77.8 448.9 76.4 448.3 76.5 449.5C76.9 454.6 83.2 453.7 86.6 453.6C93.9 453.3 101.1 452.5 108.3 451.7C119 450.6 129.7 449.2 140.5 447.8C153.5 446.1 166.4 444.3 179.4 442.4C193.2 440.4 206.9 438.3 220.6 436.1C233.9 434 247.3 431.7 260.6 429.4C272.1 427.4 283.6 425.2 295.1 422.9C303.6 421.2 312 419.4 320.3 417C323 416.3 325.7 415.5 328.3 414.5C329.8 414.1 331.1 413.4 332.3 412.4C334.1 410.6 333.3 406.3 333.2 404C332.9 397.5 332.2 391.1 331.4 384.6C330.3 375 329.1 365.4 327.7 355.9C326.1 344 324.4 332.2 322.6 320.4C320.6 307.1 318.5 293.8 316.4 280.5C314.1 266.5 311.8 252.4 309.4 238.4C307.1 224.5 304.7 210.7 302.2 196.8C299.9 183.8 297.5 170.8 295.1 157.9C293 146.7 290.8 135.5 288.6 124.3C286.8 115.6 285 107 283 98.4C281.7 92.9 280.4 87.4 278.6 82C277.5 78.7 276 75.5 272.2 74.8C266.5 73.8 260.4 74.7 254.7 75.3C244.8 76.3 235 77.9 225.2 79.5C212.7 81.6 200.2 83.9 187.7 86.3C173.9 89 160.1 91.7 146.4 94.6C132.9 97.5 119.5 100.4 106.1 103.4C94.3 106 82.6 108.7 70.8 111.5C62.3 113.5 53.7 115.6 45.2 117.8C42.6 118.5 39.9 119.2 37.3 120C35.9 120.3 34.6 120.7 33.3 121.4C31.8 122.4 32.6 126.5 32.8 128C33.2 133.9 33.8 139.7 34.5 145.6C35.5 154.6 36.6 163.6 37.7 172.6C39.1 183.9 40.6 195.1 42.1 206.3C43.8 219.2 45.6 232 47.3 244.9C49.2 258.5 51.1 272.1 53 285.7C54.9 299.3 56.8 313 58.8 326.7C60.6 339.6 62.5 352.4 64.3 365.2C65.9 376.5 67.6 387.9 69.2 399.3C70.5 408.3 71.8 417.3 73.1 426.3C74 432.2 74.8 438.1 75.7 444.1C76 446.1 76.3 448.1 76.6 450.2C76.9 451.4 77.6 452.4 78.7 453.1C79.5 453.4 80 453 79.8 452Z" fill="#0C41E2"/>
<path d="M51.7 137.2L273.5 94C273.5 94 311.8 348.9 287.4 408.4C287.4 408.4 88.4 436.6 65.9 431.4C65.9 431.4 80.3 209.5 51.7 137.2Z" fill="white"/>
<path d="M52.3999 139.4L74.5999 135L127.6 124.7L191.6 112.2L246.9 101.4L265.1 97.8001C268 97.2001 271 96.9001 273.7 96.1001C273.8 96.1001 273.9 96.0001 274.1 96.0001L270.9 93.8001C271.3 96.1001 271.6 98.4001 271.9 100.7C272.8 107 273.7 113.3 274.5 119.6C275.8 129.1 277 138.6 278.2 148.1C279.7 159.9 281.1 171.7 282.4 183.5C283.9 196.8 285.3 210.2 286.5 223.6C287.8 237.6 289 251.5 290 265.5C291 279.4 291.8 293.2 292.3 307.1C292.8 319.9 293 332.7 292.8 345.5C292.7 356.4 292.2 367.6 291.1 378.3C290.4 386.7 288.8 395 286.4 403.2C285.9 404.8 285.4 406.3 284.8 407.8L286.5 406.3C279.9 407.2 273.3 408.1 266.7 409C250.5 411.2 234.3 413.4 218.1 415.5C197.9 418.1 177.8 420.6 157.6 422.9C139.1 425 120.6 427 102 428.5C94.9999 429 88.0999 429.5 81.0999 429.8C76.5999 430 72.0999 430 67.5999 429.6C66.7999 429.5 68.0999 429.7 67.1999 429.5C66.8999 429.4 66.5999 429.4 66.2999 429.3L68.1999 431.4C68.6999 423.8 69.0999 416.2 69.3999 408.6C70.2999 389.7 70.9999 370.8 71.3999 351.8C71.8999 327 72.0999 302.2 71.4999 277.4C70.8999 252.2 69.7999 227 67.1999 202C65.0999 182 62.3999 161.4 55.8999 142.1C55.2999 140.2 54.5999 138.4 53.8999 136.6C52.8999 134 47.9999 134.8 49.1999 137.7C56.1999 155.6 59.0999 175.1 61.3999 194.1C64.2999 218.7 65.6999 243.5 66.3999 268.3C67.0999 293.4 67.0999 318.4 66.6999 343.5C66.2999 363.4 65.6999 383.3 64.7999 403.2C64.4999 409.5 64.1999 415.8 63.8999 422.1C63.6999 425 63.3999 428 63.3999 430.9C63.3999 431 63.3999 431.2 63.3999 431.3C63.2999 432.3 64.3999 433.3 65.2999 433.4C69.8999 434.4 74.7999 434.2 79.3999 434.1C87.2999 433.9 95.1999 433.3 103.1 432.7C124.9 430.9 146.7 428.5 168.5 425.9C191.1 423.2 213.7 420.4 236.3 417.4C251.4 415.4 266.6 413.4 281.7 411.3L286.6 410.6C288 410.4 289.1 410.4 289.8 408.9C292.6 402.9 293.8 395.7 294.8 389.2C297.9 369.8 298.1 349.8 297.9 330.2C297.7 305.8 296.3 281.4 294.4 257C292.5 232.6 290.2 208.2 287.5 183.9C285.3 164.3 282.9 144.7 280.3 125.2C279 115.2 277.6 105.2 276.1 95.3001C276 94.9001 276 94.4001 275.9 94.0001C275.7 92.5001 274.3 91.6001 272.9 91.8001C272.8 91.8001 272.8 91.8001 272.7 91.8001L250.5 96.1001L197.5 106.4L133.5 118.9L78.0999 129.7C69.1999 131.4 60.0999 132.9 51.1999 134.9L50.7999 135C47.6999 135.7 49.5999 139.9 52.3999 139.4Z" fill="#0C41E2"/>
<path d="M47.3 418.8C47.3 418.8 210.3 408.7 269.6 386.7C269.6 386.7 309.5 343.3 261.1 90.7998C261.1 90.7998 54.5001 136 51.7001 137.2C48.9001 138.4 82 308.9 47.3 418.8Z" fill="white"/>
<path d="M45.4 420.2C54.4 419.6 63.3 419 72.3 418.2C93.3 416.5 114.3 414.5 135.3 412.2C160.1 409.5 184.9 406.3 209.5 402.1C220.5 400.2 231.5 398.1 242.4 395.5C247.2 394.4 252.1 393.1 256.8 391.7C258.9 391.1 260.9 390.5 263 389.8C265.3 389 267.9 388.4 269.9 387.1C271.9 385.8 273 383.6 274.1 381.6C276.5 376.9 278.3 372 279.6 366.9C282.2 357.2 284 347.4 285.1 337.5C286.8 321.4 287.4 305.2 287.1 289C286.8 265 285.1 241 282.6 217.1C279.1 184 274.2 151 268.4 118.1C266.7 108.5 265 99.0002 263.1 89.4002C263 89.3002 262.8 89.3002 262.7 89.4002L245.3 93.2002L202.2 102.6L147.7 114.6C130.4 118.4 113 122.3 95.7 126.1C84 128.7 72.3 131.3 60.6 134C58.3 134.5 56 135 53.7 135.6C52.2 136 49.9 137.1 49.6 138.7C49.5 139.7 49.5 140.7 49.7 141.7C50.7 153.7 52.6 165.7 54 177.6C56.5 199.1 58.5 220.7 59.8 242.4C61.5 268.9 61.8 295.6 60.7 322.1C59.5 348.9 56.6 375.9 50.3 402C48.9 408 47.2 414 45.4 419.9C45.2 420.5 47.1 419.5 47.2 419.4C47.9 419 49.2 418.2 49.5 417.4C57.4 392.3 61.4 366.1 63.5 340C65.5 313.4 66 286.7 64.8 260C63.9 236.8 62.1 213.6 59.7 190.5C58.1 175.5 56.2 160.5 54.4 145.5C54.1 142.5 53.7 139.4 53.6 136.5C53.6 136.4 53.6 136.3 53.6 136.1C53.6 135.9 53.6 136 53.6 136C53.7 136.9 49.9 140.2 50.4 138.4C50.4 138.6 49.9 138.5 50.3 138.5L50.7 138.4L53.6 137.7C63.5 135.3 73.5 133.2 83.4 130.9C99.8 127.2 116.2 123.6 132.7 120L187.2 108L233.6 98.0002L258.1 92.6002L259.2 92.4002H258.8C263.1 115 267.1 137.6 270.5 160.4C273.4 179.3 275.9 198.3 277.9 217.4C279.6 233 280.9 248.6 281.7 264.3C282.4 276.9 282.7 289.6 282.6 302.2C282.5 312 282.1 321.9 281.3 331.7C280.7 339.1 279.8 346.6 278.6 353.9C277.7 359.2 276.5 364.5 275.1 369.7C274.1 373.2 273 376.7 271.6 380.1C271.1 381.2 270.6 382.4 270 383.5L269.6 384.2L269.4 384.6C269.2 385 269 385.3 268.8 385.7C268.5 386.2 268.2 386.7 267.8 387.2C267.7 387.3 267.6 387.5 267.5 387.6C267.4 387.7 267.2 387.8 267.5 387.5L267.4 387.6L270.3 385.6C255.9 390.9 240.8 394.1 225.8 397.1C207.2 400.7 188.4 403.5 169.6 405.9C150.8 408.3 132.1 410.4 113.3 412.2C98.6 413.6 83.9 414.9 69.2 416C62.5 416.5 55.6 416.7 48.9 417.5H49C48 417.7 47 418.2 46.3 418.9C46.3 418.8 44.8 420.3 45.4 420.2Z" fill="#0C41E2"/>
<path d="M137.5 346.4L146.8 344.9C154.4 343.7 161.9 342.5 169.5 341.2C178.7 339.7 187.9 338.2 197.2 336.6C205.4 335.2 213.6 333.8 221.9 332.3C224.8 331.8 227.6 331.2 230.5 330.7C232.1 330.4 233.7 330.1 235.2 329.6C235.4 329.5 235.7 329.4 235.9 329.3C237.1 328.7 234.4 324.6 232.8 325.4C232.5 325.5 233 325.3 232.9 325.4L232.6 325.5L231.8 325.7C231 325.9 230.2 326.1 229.4 326.3C226.8 326.9 224.2 327.3 221.6 327.8C213.7 329.3 205.9 330.6 198 331.9C188.8 333.5 179.5 335 170.3 336.5C162.4 337.8 154.6 339.1 146.7 340.3L139 341.5C137.8 341.6 136.6 341.8 135.4 342.1H135C133.4 342.5 136 346.7 137.5 346.4Z" fill="#6A90FF"/>
<path d="M136 333.6L145.7 331.7L169.1 327.1C178.6 325.2 188.1 323.4 197.6 321.5C205.9 319.8 214.2 318.2 222.5 316.5C227 315.6 231.5 314.9 235.9 313.7L236.3 313.6C237.2 313.3 235.5 313.2 235.4 313.2C234.3 313.1 233.1 313.2 232 313.5C231.6 313.6 231.3 313.7 230.9 313.8H230.8L230.2 313.9L228.9 314.2C226.3 314.7 223.8 315.3 221.2 315.8C213.2 317.4 205.2 319 197.2 320.6C187.7 322.5 178.3 324.4 168.8 326.2L144.4 331C140.5 331.8 136.5 332.5 132.6 333.3H132.4C131.6 333.5 131.6 333.7 132.4 333.8C133.6 333.9 134.8 333.8 136 333.6Z" fill="#6A90FF"/>
<path d="M84.9999 335.299C84.1999 344.299 83.4999 353.399 83.0999 362.499C82.9999 363.899 82.8999 365.299 82.9999 366.699C83.2999 368.999 85.2999 369.599 87.1999 369.499C92.2999 369.199 97.2999 368.499 102.3 367.399C107.5 366.599 112.6 365.399 117.7 363.999C119.1 363.499 120.8 363.099 121.6 361.699C122.4 359.799 122.7 357.799 122.8 355.799C123.3 349.799 123.2 343.799 122.6 337.799C122.4 335.699 122.2 333.299 121.2 331.499C120.2 329.699 118.4 329.399 116.6 329.399C111.4 329.399 106 330.399 100.9 331.199C96.3999 331.999 91.8999 332.799 87.3999 333.699L86.6999 333.799C83.6999 334.399 85.4999 338.899 88.1999 338.399C96.4999 336.699 104.9 335.099 113.3 334.199L114.9 334.099H115.7H116C116.8 334.099 117.5 334.099 118.3 334.199C118.8 334.199 117.9 334.099 118.1 334.199C118.2 334.199 118.3 334.299 118.4 334.299C118.1 334.199 117.8 333.999 117.6 333.799C117.4 333.599 117.1 333.199 117.4 333.599C117.4 333.599 117.2 332.999 117.3 333.399C117.3 333.499 117.4 333.699 117.4 333.899C117.4 334.099 117.5 334.299 117.5 334.399C117.7 334.999 117.5 333.999 117.6 334.699C118.4 339.999 118.7 345.299 118.4 350.599C118.4 352.899 118.2 355.199 117.9 357.499C117.8 357.899 117.8 358.299 117.7 358.699C117.7 358.899 117.6 358.999 117.6 359.199C117.8 358.499 117.7 359.099 117.6 359.199C117.3 359.599 117.9 358.899 118 358.899C117.8 358.999 117.6 359.099 117.4 359.199C117.1 359.299 116.4 359.499 117 359.399C116.6 359.499 116.2 359.599 115.8 359.799C114.8 360.099 113.9 360.299 112.9 360.599C110.4 361.199 107.8 361.799 105.3 362.299C100.1 363.299 94.7999 364.299 89.4999 364.899L88.0999 364.999H87.4999H87.1999C86.7999 364.999 87.5999 364.999 87.2999 364.999C86.7999 364.899 86.1999 364.899 85.6999 364.999C86.4999 364.799 87.9999 367.099 87.7999 367.199V366.699C87.7999 366.099 87.7999 365.399 87.7999 364.799C87.7999 364.399 87.7999 363.899 87.7999 363.499C87.7999 363.299 87.7999 362.999 87.7999 362.799C87.7999 362.599 87.7999 362.399 87.7999 362.199C87.8999 360.999 87.8999 359.799 87.9999 358.699C88.1999 355.899 88.3999 353.099 88.5999 350.299C88.8999 346.099 89.1999 341.899 89.5999 337.799L89.6999 337.099C89.8999 335.799 89.0999 334.499 87.7999 334.099C86.6999 333.499 85.0999 333.999 84.9999 335.299Z" fill="#0C41E2"/>
<path d="M135.9 270.199L145.2 268.699C152.8 267.499 160.3 266.299 167.9 265.099C177.1 263.599 186.4 262.099 195.6 260.499C203.8 259.099 212.1 257.699 220.3 256.199C224.8 255.499 229.2 254.599 233.6 253.399C234 253.299 234.3 253.199 234.7 252.999C235.7 252.499 236.7 251.399 236.2 250.199C235.7 248.999 234.1 248.999 233.1 249.399C232.7 249.599 232.5 249.499 233.2 249.399C232.9 249.499 232.7 249.499 232.4 249.599C231.6 249.799 230.8 249.999 230 250.199C227.4 250.799 224.8 251.299 222.2 251.799C214.3 253.299 206.5 254.599 198.6 255.999C189.4 257.599 180.1 259.099 170.9 260.599C163 261.899 155.2 263.199 147.3 264.399C143.5 264.999 139.7 265.399 135.9 266.199H135.7C134.4 266.399 133.5 267.399 133.5 268.699C133.4 269.999 134.8 270.399 135.9 270.199Z" fill="#6A90FF"/>
<path d="M134.4 259.5L144.1 257.6L167.5 253L196 247.4C204.3 245.8 212.6 244.1 220.9 242.4C225.3 241.5 229.7 240.7 233.9 239.7C234.2 239.6 234.5 239.6 234.8 239.5C236 239.1 236.1 237.6 235.5 236.7C234.8 235.6 233.4 235.1 232.2 235.5C231.7 235.7 232.9 235.4 232.3 235.5L231.6 235.7L229.3 236.2C226.7 236.7 224.2 237.3 221.6 237.8C213.6 239.4 205.6 241 197.6 242.6C188.1 244.5 178.7 246.4 169.2 248.2L144.8 253C140.9 253.8 136.9 254.5 133 255.3H132.8C129.8 255.8 131.8 260 134.4 259.5Z" fill="#6A90FF"/>
<path d="M84.3001 259.5C83.6001 268.4 82.8001 277.3 82.4001 286.3C82.2001 287.8 82.2001 289.4 82.3001 290.9C82.6001 293.2 84.8001 293.5 86.7001 293.5C91.8001 293.1 96.9001 292.4 101.9 291.4C107.1 290.6 112.2 289.4 117.2 288C118.7 287.5 120.3 287.1 121.1 285.6C122 283.9 122.1 281.6 122.3 279.7C122.8 273.7 122.7 267.7 122.1 261.7C122 259.7 121.6 257.7 120.9 255.9C119.9 253.9 117.9 253.5 115.9 253.5C110.7 253.5 105.3 254.5 100.1 255.4C95.6001 256.1 91.1001 257 86.6001 257.9L85.9001 258C84.8001 258.3 84.1001 259.5 84.4001 260.6C84.4001 260.7 84.4001 260.8 84.5001 260.8C85.0001 262 86.4001 262.7 87.7001 262.4C90.7001 261.8 93.8001 261.2 96.8001 260.7C102.2 259.7 107.1 258.9 112.4 258.3C113.4 258.2 114.5 258.1 115.5 258.1C115.9 258.1 116.3 258.1 116.7 258.1H117.2C117.8 258.1 116.7 258 117.2 258.1C117.3 258.1 117.4 258.2 117.5 258.2C117.9 258.2 117.1 258 117.2 258.1C116.8 257.9 116.4 257.5 116.4 257.3C116.5 257.6 116.6 257.8 116.7 258.1C116.9 258.7 116.7 257.8 116.7 258.2C116.7 258.6 116.8 258.7 116.9 259C117.7 264.2 118 269.4 117.7 274.6C117.7 277 117.5 279.4 117.1 281.8C117 282.2 116.9 282.6 116.9 283C116.9 283.4 116.7 283.4 116.9 283C116.8 283.1 116.8 283.3 116.7 283.5C116.6 283.9 116.9 283.2 116.8 283.3C116.6 283.5 117.1 283.1 117 283.1C116.9 283.1 116.2 283.5 116.7 283.3C117.2 283.1 116.6 283.3 116.5 283.3L116 283.5L114.8 283.9C113.8 284.2 112.9 284.4 111.9 284.7C109.4 285.3 106.8 285.9 104.3 286.4C101.5 287 98.6001 287.5 95.8001 288C94.5001 288.2 93.3001 288.4 92.0001 288.6L90.7001 288.8C90.1001 288.9 89.5001 288.9 89.0001 289C88.2001 289.1 87.3001 289.2 86.4001 289.2H85.5001C84.7001 289.2 85.9001 289.3 85.4001 289.2C84.9001 289.1 86.0001 289.4 85.8001 289.4C86.3001 289.7 87.4001 290.7 87.1001 291.2C87.1001 291 87.1001 290.9 87.1001 290.7C87.1001 290.4 87.1001 290.2 87.1001 289.9C87.1001 289.8 87.1001 289.2 87.1001 289.6C87.1001 290 87.1001 289.3 87.1001 289.2C87.4001 280 88.3001 270.9 89.0001 261.7L89.1001 261C89.2001 259.7 88.3001 258.5 87.0001 258.2C86.0001 257.5 84.4001 258.1 84.3001 259.5Z" fill="#0C41E2"/>
<path d="M133 192.9L142.4 191.4C150 190.2 157.6 189 165.1 187.7C174.4 186.2 183.6 184.7 192.9 183.1C201.1 181.7 209.3 180.3 217.4 178.8C220.5 178.2 223.5 177.7 226.5 177C228.1 176.7 229.7 176.3 231.2 175.9C231.5 175.8 231.9 175.6 232.2 175.5C233.1 175.1 233.5 174 233.1 173.1C233 173 233 172.9 232.9 172.7C232 171.8 230.5 171.7 229.4 172.3C230 172 229.9 172.1 229.4 172.2L228.6 172.4C227.8 172.6 227 172.8 226.1 173L225.4 173.1C225.1 173.2 224.3 173.3 225.1 173.2L223.2 173.6L218.9 174.4C211 175.9 203.1 177.2 195.1 178.6C185.9 180.2 176.7 181.7 167.5 183.2C159.7 184.5 151.8 185.7 144 187C140.2 187.6 136.4 188.1 132.6 188.8H132.4C131.3 189 130 189.7 130.1 191C130.6 192.3 131.7 193.1 133 192.9Z" fill="#6A90FF"/>
<path d="M131.8 182.2L141.5 180.3L164.9 175.7L193.4 170.1C201.7 168.5 210 166.8 218.3 165.1C222.7 164.2 227 163.4 231.4 162.4C231.6 162.3 231.8 162.3 232 162.2C233.2 161.8 231 157.4 229.4 157.9C229.2 158 229.1 158 229.3 157.9L228.6 158.1L226.3 158.6C223.7 159.1 221.2 159.7 218.6 160.2C210.6 161.8 202.6 163.4 194.6 165C185.1 166.9 175.7 168.7 166.2 170.6L141.9 175.4L133.9 177C132.7 177.2 131.3 177.4 130.1 177.7H129.9C128.1 178.1 130.4 182.4 131.8 182.2Z" fill="#6A90FF"/>
<path d="M81.6001 183.6C80.9001 192.5 80.1 201.4 79.7 210.3C79.5 211.7 79.5 213 79.7 214.4C80 215.8 81.9001 215.6 83.0001 215.5C88.1001 215.1 93.2 214.4 98.2 213.3C103.3 212.5 108.4 211.3 113.3 209.9C115.1 209.3 117.1 208.7 118.1 206.9C119.1 205.1 119.1 203 119.3 201.1C119.8 195.2 119.7 189.4 119.1 183.5C118.9 181.7 118.8 179.4 117.9 177.8C117.2 176.5 115.5 176.5 114.2 176.5C109 176.5 103.6 177.5 98.5001 178.4C94.0001 179.1 89.6001 180 85.1001 180.8L84.4001 180.9C83.2001 181.1 82.2 182 81.7 183.1C81.5 184.2 82.6001 184.5 83.5001 184.3C91.7001 182.5 100 181.1 108.4 180.2C109.4 180.1 110.5 180 111.5 180H112.7H113.2C112.8 180 113.1 180 113.3 180L113.6 180.1C113.9 180.1 113.6 180.2 113.5 180.1C113.7 180.3 113.6 180.1 113.6 180.1C113.6 180.1 113.6 180.1 113.7 180.3C113.7 180.4 113.8 180.5 113.9 180.6C114.1 181 113.9 180.5 114 180.8C114.1 181.2 114.2 181.6 114.3 182.1C115.1 187.3 115.4 192.6 115.1 197.9C115.1 200.3 114.9 202.7 114.6 205.1C114.5 205.5 114.5 205.9 114.4 206.3L114.3 206.8C114.2 207.2 114.1 207.1 114.3 206.9C114.1 207.1 114.2 207 114.4 206.8C114.6 206.6 114.9 206.4 115.1 206.2C114.7 206.5 115.4 206 115.4 206.1C115.4 206.2 115 206.3 115 206.3L114.1 206.6C114.8 206.4 113.6 206.7 113.3 206.8C112.3 207.1 111.3 207.3 110.3 207.6C107.7 208.2 105.1 208.8 102.5 209.3C99.7001 209.8 96.9 210.4 94.1 210.8C91.5001 211.2 89.7 211.5 87.2 211.8C86.4 211.9 85.6 212 84.7 212H83.9001C83.5001 212 84.3001 212.1 84.0001 212H83.8001C83.8001 212 84.5001 212.3 84.3001 212.6C84.3001 212.5 84.3001 212.1 84.3001 212C84.3001 211.4 84.3001 210.7 84.3001 210C84.6001 200.8 85.5 191.6 86.2 182.5L86.3001 181.8C86.4001 180.7 84.5001 181 83.9001 181.2C82.7001 181.5 81.8001 182.5 81.6001 183.6Z" fill="#0C41E2"/>
<path d="M140.8 341.8C142.3 339.2 143.9 336.7 145.8 334.4C147 332.7 148.5 331.2 150.2 329.9C149.8 330.2 150.3 329.9 150.4 329.8C150.5 329.7 151 329.5 150.5 329.7C150.6 329.7 151.2 329.4 150.8 329.6C150.6 329.7 151 329.6 150.7 329.6C150.9 329.6 150.6 329.6 150.5 329.6C150.4 329.6 150.7 329.6 150.8 329.6C151.1 329.7 150.5 329.4 150.9 329.6C151.3 329.8 150.9 329.6 151.1 329.7C151.3 329.9 151.5 330 151.7 330.2C153.5 332.3 154.1 335.1 153.5 337.8C153.4 338.3 153.2 338.7 153 339.2C152.9 339.4 152.8 339.5 152.8 339.6C152.7 339.7 152.7 339.7 152.6 339.8C152.7 339.5 152.5 339.8 152.7 339.7C153.1 339.4 153.9 339.5 154.2 339.2C154.3 339.3 154.3 339.1 154.2 339.2C154.1 339.1 153.9 339 153.8 338.9C154 339.1 153.8 338.9 153.8 338.8C153.8 338.4 153.8 338 154 337.7C154.3 337 154.7 336.3 155.2 335.7C157.2 333.2 159.6 330.9 162.3 329.1C162.8 328.8 163.2 328.5 163.7 328.2L164.4 327.8H164.5L164.8 327.7L165.5 327.4C165.6 327.3 166.3 327.1 165.7 327.3C165.9 327.2 166.1 327.2 166.3 327.1L166.6 327C167 326.9 166.3 327 166.6 327C166.9 327 167 327 167.1 327C166.7 327 167 327 167.2 327C166.9 326.9 167.6 327.2 167.5 327.1C169.5 328.4 170.4 331.1 170.6 333.4C170.7 334.4 170.6 335.5 170.4 336.5C170.3 336.7 170.2 336.9 170.2 337.1C170.2 337.2 170.2 337.2 170.1 337.2C170 337.1 170.5 337 170.2 337.1C170.7 336.8 171.2 336.5 171.8 336.4C172.2 336.4 172.3 336.6 171.9 336.3C172.1 336.4 171.8 336.3 171.8 336.2C171.5 336 171.8 336.2 171.7 336.1C171.5 335.8 171.6 335.9 171.6 335.5C171.7 334.7 172 334 172.5 333.3C173.7 331.4 175.2 329.6 177 328.2C177.8 327.5 178.8 326.8 179.7 326.3C179.8 326.2 180 326.1 180.1 326.1C180.1 326.1 179.8 326.2 180 326.1L180.8 325.8C181.2 325.6 180.6 325.8 181.1 325.7L181.5 325.6C181.9 325.5 181 325.7 181.6 325.6C181.7 325.6 182.2 325.6 181.8 325.6C182 325.6 182.2 325.6 182.4 325.6C182.9 325.7 183.4 325.9 183.8 326.1C184.8 326.7 185.6 327.5 186.1 328.5C187 330 187.8 332.3 187.4 333.7C187.3 334 187.5 333.7 187.3 333.8C187.9 333.4 188.6 333.1 189.3 332.9C189.5 332.9 189.1 332.8 189 332.8C188.9 332.8 188.8 332.8 188.8 332.3C188.9 332.6 188.8 332.2 188.8 332.1C188.8 331.9 188.8 331.7 188.9 331.5C189.2 329.9 190.8 328 192 326.6C192.8 325.7 193.6 324.9 194.5 324.1C194.9 323.7 195.4 323.4 195.6 323.2C195.8 323 196.1 322.9 196.3 322.7C196.5 322.5 197.1 322.3 196.9 322.3C196.7 322.3 197.3 322.1 197.4 322.1C197.8 321.9 197.2 322.3 197.6 322C197.7 322 197.8 321.9 197.9 321.9C197.4 322 197.7 321.9 197.8 321.9C197.9 321.9 198 321.9 198.1 321.9C198 321.9 197.7 321.9 198 321.9C199.2 322 200.4 321.5 201.2 320.5C201.8 319.7 201.5 318.9 200.5 318.8C197.2 318.6 194.1 320.5 191.6 322.5C189 324.5 186.9 327 185.2 329.7C184.2 331.3 183 334.3 185.3 335.3C188.1 336.6 191.9 334.6 192.1 331.5C192.2 328.6 190.9 325.8 188.8 323.9C186.2 321.6 182.9 321.7 179.8 322.9C176.5 324.3 173.6 326.4 171.2 329C169.3 330.9 167.1 333.4 166.7 336.1C166.2 339.3 170.1 339.6 172.2 338.5C175.1 337 175.5 333.6 175 330.7C174.6 328.1 173.2 324.5 170.4 323.7C167.6 322.9 164.6 324.3 162.2 325.6C159.5 327.1 157 329 154.7 331.1C152.6 332.9 150.8 335.1 149.5 337.6C148.6 339.6 148.9 341.7 151.5 342C155.2 342.5 157.6 339 158.1 335.8C158.6 332.7 157.7 328.5 154.9 326.8C152.3 325.2 149 326.8 146.9 328.4C142.6 331.6 139.5 336.5 136.8 341C136.6 341.3 136.4 341.7 136.2 342C135.6 343 137 343.4 137.7 343.3C138.9 343.2 140 342.6 140.7 341.5L140.8 341.8Z" fill="#0C41E2"/>
<path d="M209.6 330.9C210.6 328.7 211.7 326.6 213 324.6C213.9 323 215.1 321.5 216.4 320.2C216.9 319.8 217.4 319.4 218 319.1L218.2 319C218.4 318.9 217.9 319.1 218.2 319L218.6 318.9C218.7 318.9 218.2 318.9 218.6 318.9C218.8 318.9 218.4 318.9 218.4 318.8C218.6 318.7 218.7 319.2 218.5 318.8L218.2 318.6C218.6 318.9 218 318.4 218.1 318.5C218.2 318.6 218.5 319.1 218.2 318.5L218.5 319C218.7 319.4 218.5 319 218.6 319.1C218.7 319.2 218.7 319.5 218.8 319.7C218.9 320.1 219 320.5 219.1 320.8L219.2 321.2C219.2 321.4 219.3 321.6 219.3 321.7C219.4 322.1 219.4 322.6 219.4 323C219.4 323.4 219.4 323.7 219.4 324.1C219.4 324.2 219.4 324.6 219.4 324.3C219.4 324.5 219.4 324.7 219.3 324.9C219.3 325.2 219.2 325.4 219.1 325.7C219.1 325.8 219 326 219 326.1C219.2 325.9 219 326.2 219 326.1C218.9 326.2 218.9 326.2 218.8 326.3C219 325.9 219.1 326.1 219 326.2C218.9 326.3 218.8 326.2 219.1 326.2C219.5 326.1 219.9 326.2 220.2 326.3C220.5 326.4 220.8 326.6 221.1 326.9C221.4 327.3 221.4 327.3 221.3 327.1C221.3 327.1 221.5 327.6 221.4 327.4C221.4 327.6 221.3 327.2 221.4 327.4C221.4 327.2 221.4 327.1 221.4 327C221.4 326.6 221.3 327.1 221.4 326.7C221.5 326 221.7 325.2 222 324.6C222.8 322.9 223.9 321.3 225.3 320C225.6 319.7 225.9 319.5 226.2 319.3C226.4 319.2 226.5 319.1 226.7 319C226.9 318.9 227.3 318.8 227 318.9C227.2 318.9 227.3 318.8 227.5 318.8C227.9 318.7 227.4 318.8 227.6 318.8C227.6 318.8 227.5 318.9 227.3 318.7C227.3 318.7 227.4 318.8 227.5 318.8C227.8 319 227 318.4 227.4 318.8C228.1 319.4 229.6 320 230.4 319.1C231.2 318.2 230.2 316.8 229.5 316.3C225.2 312.8 220.7 316.7 218.6 320.6C217.7 322.2 216.7 324.3 217 326.2C217.3 328.1 220 331.2 222.2 329.8C223.6 328.9 223.7 326.5 223.8 325C223.9 322.8 223.4 320.6 222.4 318.7C221.3 316.5 219 314.6 216.4 314.8C214.4 315 212.7 316.6 211.5 318C209 321.1 206.9 324.6 205.4 328.4C204.6 330.4 208.7 333.1 209.6 330.9Z" fill="#0C41E2"/>
<path d="M140.3 266.399C141.7 263.799 143.4 261.299 145.2 258.999C145.9 258.099 146.7 257.199 147.4 256.399C148 255.699 148.7 255.099 149.5 254.499L150.1 254.099C150.6 253.699 149.9 254.199 150.3 253.999C150.5 253.899 150.7 253.899 150.8 253.799C150.9 253.699 150.3 253.899 150.6 253.899L150.9 253.799C151 253.799 150.4 253.899 150.9 253.799C150.6 253.899 150.4 253.799 150.7 253.799C151 253.899 150.8 253.799 150.7 253.799C150.4 253.699 151.1 253.999 150.6 253.699C150.8 253.799 150.9 253.899 151.1 254.099C152.9 255.899 153.3 258.799 152.8 261.199C152.7 261.599 152.5 262.099 152.4 262.499C152.3 262.599 152.3 262.799 152.2 262.899C152 263.099 152 263.099 152 263.199C152.3 263.099 152 263.299 152 263.199C152.4 263.099 152 263.099 152.5 262.999C152.8 262.999 153.1 262.999 153.4 262.999C153.5 262.999 153.3 263.099 153.3 262.899C153.4 263.199 153.6 263.199 153.5 263.099C153.4 262.999 153.6 263.199 153.6 263.299C153.6 263.099 153.6 262.799 153.6 263.299C153.6 263.199 153.6 263.099 153.6 262.999C153.6 262.899 153.7 262.699 153.7 262.599C153.6 262.799 153.7 262.599 153.8 262.399C153.9 262.199 154.1 261.799 154.3 261.499C154.4 261.399 154.7 260.999 154.4 261.299C154.5 261.099 154.7 260.899 154.9 260.699C156.2 258.999 157.7 257.399 159.4 255.999C160.4 255.199 161.4 254.399 162.4 253.699C163.2 253.099 164 252.599 164.9 252.199C165.3 251.999 165.7 251.799 166.1 251.699C166.5 251.599 166.1 251.699 166 251.699L166.4 251.599C166.6 251.499 166.8 251.499 167.1 251.499C167.6 251.399 166.5 251.699 167.2 251.499C167.3 251.499 167.4 251.499 167.4 251.499C167.7 251.499 167.3 251.399 167.2 251.499C167.3 251.499 167.5 251.499 167.6 251.599C167.5 251.499 167.1 251.499 167.4 251.599C167.7 251.699 167.1 251.399 167.3 251.499C169.2 252.799 169.9 255.299 170.1 257.499C170.1 257.999 170.1 258.499 170.1 258.899C170.1 259.199 170 259.399 170 259.699C170 259.799 169.8 260.399 169.9 260.199C169.8 260.399 169.7 260.599 169.7 260.799C169.7 260.799 169.9 260.699 169.6 260.899C169.6 260.899 170 260.599 169.8 260.699L170.2 260.499C170.4 260.399 170.6 260.399 170.8 260.399C170.9 260.399 171.5 260.499 171.3 260.499C170.8 260.399 171.3 260.599 171.2 260.499C171.5 260.699 171.3 260.499 171.3 260.599C171.3 260.899 171.2 260.499 171.3 260.399C171.4 260.299 171.2 260.699 171.3 260.199C171.3 259.999 171.4 259.799 171.4 259.699C171.4 259.599 171.4 259.799 171.4 259.799C171.4 259.699 171.5 259.599 171.5 259.499C171.7 258.999 171.9 258.599 172.2 258.199C173.4 256.299 174.9 254.599 176.7 253.199C177.2 252.799 177.7 252.399 178.2 252.099L179 251.599C179.1 251.499 179.8 251.099 179.6 251.299C180.1 250.999 180.6 250.799 181.1 250.599L181.4 250.499C181.8 250.399 181 250.599 181.4 250.499L182.2 250.299C182.5 250.299 182.1 250.299 182 250.299H182.4C182.8 250.299 182 250.199 182.6 250.299C183 250.399 183.3 250.499 183.7 250.699C184.6 251.299 185.4 251.999 185.9 252.999C186.4 253.899 186.8 254.799 187 255.799C187.1 256.099 187.1 256.499 187.1 256.899C187.1 257.099 187.1 257.299 187 257.499C186.9 257.699 187 257.699 186.9 257.699C187 257.699 187 257.199 186.9 257.699C186.8 257.699 186.9 257.599 187.2 257.399C187 257.499 187 257.399 187.4 257.299C187.6 257.199 187.8 257.199 188 257.099C188.4 257.099 188.6 257.199 188.2 257.099C188.4 257.199 188.6 257.299 188.5 257.199C188.4 257.099 188.4 257.199 188.6 257.299L188.5 257.199C188.5 257.199 188.5 257.299 188.6 257.399C188.6 257.299 188.6 257.199 188.5 257.199C188.5 257.199 188.5 256.599 188.5 257.299C188.5 257.199 188.5 257.199 188.5 257.099C188.5 256.899 188.6 256.699 188.6 256.499C188.6 256.299 188.6 256.599 188.6 256.599C188.6 256.499 188.7 256.399 188.7 256.299C188.8 256.099 188.9 255.899 189 255.699C189.2 255.199 189.5 254.799 189.8 254.299C190.4 253.399 191.1 252.499 191.8 251.699C192.6 250.799 193.4 249.999 194.3 249.299C194.7 248.899 195.2 248.599 195.7 248.199C196.3 247.799 196.9 247.499 197.5 247.199C197.6 247.099 197.7 247.099 197.9 247.099C197.9 247.099 197.5 247.199 197.7 247.199C197.9 247.199 198.1 247.099 198.3 247.099C197.6 247.199 198.8 247.199 198 247.099C199.2 247.299 200.5 246.799 201.2 245.699C201.5 244.899 201.2 243.899 200.3 243.599C200.1 243.499 199.9 243.499 199.7 243.499C196.4 243.299 193.5 244.899 191 246.899C188.4 248.899 186.3 251.399 184.6 254.199C183.5 256.199 182.6 259.199 185.2 260.499C187.4 261.699 190.1 260.899 191.3 258.699C191.6 258.199 191.8 257.599 191.8 256.899C191.8 253.799 190.5 250.899 188.2 248.899C185.6 246.499 182 246.299 178.8 247.599C175.6 248.999 172.8 250.999 170.5 253.599C168.7 255.499 166.5 257.999 166.1 260.699C165.6 263.899 169.3 265.399 171.9 264.199C174.9 262.799 175 258.999 174.6 256.099C174.2 253.199 172.6 249.699 169.7 248.599C167.1 247.599 164 248.799 161.7 249.999C158.9 251.599 156.3 253.499 153.9 255.699C151.9 257.499 150.2 259.599 149 261.899C147.9 264.199 148.5 266.699 151.4 267.199C155.1 267.899 157.4 264.299 157.9 261.099C158.4 257.899 157.4 253.599 154.5 251.599C152 249.799 148.7 250.999 146.5 252.599C142.2 255.699 139.1 260.699 136.4 265.199C136.2 265.499 136 265.899 135.8 266.199C135.2 267.299 136.2 268.199 137.2 268.399C138.5 268.599 139.7 268.099 140.4 266.999L140.3 266.399Z" fill="#0C41E2"/>
<path d="M209.3 253.799C210.3 251.599 211.4 249.499 212.7 247.499C213.2 246.699 213.7 245.899 214.3 245.199C214.8 244.599 215.3 243.999 215.8 243.399C216.1 243.199 216.3 242.899 216.6 242.699C216.9 242.499 217.1 242.399 216.7 242.599C216.8 242.499 217.3 242.299 217 242.499C216.7 242.699 217.5 242.299 216.9 242.499C216.5 242.599 217.2 242.599 216.8 242.499C216.8 242.499 216.3 242.499 216.5 242.499C216.4 242.499 216.2 242.299 216.3 242.399C216.4 242.499 216.6 242.599 216.4 242.399C216.2 242.199 217 242.999 216.8 242.699C217 242.999 217.2 243.299 217.4 243.599C217.7 244.199 218 244.899 218.1 245.499C218.4 246.999 218.5 248.499 218.3 249.899C218.3 250.199 218.2 250.499 218.1 250.699C218.1 250.799 218 250.899 218 251.099C217.9 251.499 218 250.999 218 251.199C218 251.299 217.9 251.399 217.8 251.399C218.1 251.099 218.4 250.899 218.8 250.799C219.6 250.599 220.4 250.599 221.1 250.999C220.8 250.799 221.2 251.099 221 250.999C220.9 250.899 220.9 250.799 220.9 250.699C221 250.999 220.9 250.799 220.9 250.599C220.9 250.399 220.9 250.299 220.9 250.199C220.9 250.099 220.9 249.699 220.9 249.999C221 249.299 221.2 248.599 221.5 247.899C221.8 247.099 222.2 246.299 222.7 245.599C223 245.199 223.3 244.799 223.6 244.399C223.7 244.199 223.9 243.999 224.1 243.899C224.2 243.799 224.3 243.699 224.4 243.599C224.7 243.299 225.1 242.999 225.5 242.699C225.7 242.599 225.4 242.699 225.4 242.799L225.7 242.599C226.2 242.299 225.6 242.599 225.9 242.499C226 242.499 226 242.399 226.1 242.399C226.4 242.399 225.6 242.499 225.9 242.399C226.2 242.299 225.6 242.399 225.6 242.399C226.2 242.399 226.6 241.799 226.6 241.199C226.6 240.599 226 240.199 225.4 240.199C224.8 240.199 224.4 240.799 224.4 241.399C224.4 241.899 224.9 242.299 225.4 242.399C225.5 242.499 225.6 242.399 225.7 242.499C225.8 242.599 225.3 242.299 225.6 242.499C225.6 242.499 225.8 242.699 225.7 242.499L225.9 242.599C226.9 243.299 228.3 243.299 229.4 242.699C230.2 242.299 231 241.299 230 240.499C227.9 238.799 224.9 239.099 222.7 240.299C220.7 241.499 219.1 243.299 217.9 245.299C216.9 246.899 215.8 249.099 216.1 251.099C216.5 253.699 219.7 254.199 221.6 252.999C223.2 251.999 223.4 249.899 223.4 248.199C223.5 246.099 223.1 244.099 222.2 242.299C221.1 240.199 218.9 239.099 216.6 239.399C214.2 239.699 212.2 241.299 210.7 243.099C208.1 246.299 206.1 249.799 204.5 253.499C204 254.599 205.7 255.099 206.5 255.099C207.6 255.299 208.8 254.799 209.3 253.799Z" fill="#0C41E2"/>
<path d="M137.1 190C136.8 190.6 137.2 189.8 137.3 189.6C137.7 189 138 188.4 138.4 187.8C139.6 186 140.8 184.2 142.1 182.5C143.4 180.7 144.9 179.1 146.7 177.7C147.3 177.2 148 176.9 148.8 176.7C148.5 176.8 149.8 176.5 149.2 176.7C149.3 176.7 149.4 176.7 149.5 176.8C149.5 176.8 149.1 176.6 149.3 176.7C149.5 176.8 148.9 176.4 149.1 176.6C149.3 176.8 148.8 176.2 149 176.5C149.6 177.4 150 178.3 150.3 179.3C150.5 180.5 150.5 181.8 150.1 183C149.9 183.9 149.5 184.7 148.8 185.3C148.5 185.5 148.2 185.4 148.7 185.5C148.8 185.6 148.9 185.6 149 185.7C148.6 185.5 149.1 185.8 149.1 185.8C149.3 186 149.5 186.2 149.7 186.5C149.7 186.5 150 186.9 149.8 186.7C150 187 149.7 187 149.8 186.7C149.9 186.4 149.7 186.9 149.8 186.6C149.9 186.3 150 185.9 150.1 185.6C150.5 184.9 150.9 184.2 151.4 183.6C152.8 181.8 154.5 180.1 156.3 178.6C158 177.1 159.9 175.9 161.9 174.8C162.7 174.4 163.4 174.1 164.3 173.9C164.7 173.8 165 173.8 165.4 173.8C165.8 173.8 165.1 173.8 165.5 173.8C165.9 173.8 165.3 173.7 165.2 173.6C165.3 173.6 165.4 173.8 165.7 174.2C165.9 174.6 166.1 174.9 166.3 175.3C166.7 176.4 167 177.6 167 178.7C167.1 179.7 166.9 180.7 166.6 181.6C166.5 181.9 166.3 182.1 166.1 182.3C166.1 182.3 166.1 182.2 165.9 182.4C166 182.3 166.1 182.4 166 182.4C166.5 182.6 166.1 182.4 166 182.4C166.2 182.6 166.4 182.7 166.7 182.9C167 183.1 167.2 183.4 167.3 183.7C167.5 184.1 167.3 183.8 167.3 183.7C167.5 183.9 167.3 183.9 167.3 183.6C167.3 183.3 167.2 183.7 167.4 183.2C167.6 182.4 168 181.6 168.5 180.9C169.9 178.8 171.6 177 173.6 175.4C175.3 173.9 177.3 172.8 179.5 172.3C179.7 172.3 180 172.2 180.2 172.2C180.6 172.2 180.4 172.2 180.6 172.2C180.8 172.2 181.3 172.3 181.1 172.3C181.2 172.3 181.9 172.7 181.6 172.5C181.7 172.6 181.9 172.7 182 172.8C181.9 172.7 181.6 172.5 182 172.8C182.1 172.9 182.5 173.3 182.2 173C182.6 173.4 182.9 173.8 183.1 174.3C183.5 175.1 183.8 175.9 183.9 176.8C184 177.4 183.9 178 183.7 178.6C183.5 178.8 183.6 178.7 183.6 178.7C183.3 178.9 183.7 178.7 183.4 178.8C183.3 178.8 183.3 178.8 183.4 178.8C183.7 179 184 179.2 184.2 179.4C184.4 179.6 184.5 179.8 184.6 180C184.8 180.2 184.6 180.3 184.6 179.9C184.6 179.9 184.6 179.9 184.6 179.7C184.6 179.5 184.7 179.3 184.8 179.1C185.8 177.1 187.1 175.3 188.8 173.8C190.4 172 192.3 170.6 194.4 169.6C195.1 169.2 195.9 169 196.7 169.1C197.9 169.2 197.7 167.7 197.4 167C196.8 165.9 195.8 165.2 194.5 165.1C191.8 164.9 189.1 166.9 187.1 168.6C184.8 170.5 182.8 172.9 181.4 175.5C180.1 178.1 180.6 181.2 183.6 182.5C184.7 183 186.3 183.2 187.3 182.3C188.1 181.5 188.4 180.4 188.3 179.3C188 176 186.5 172.9 183.9 170.8C181.5 168.6 178.1 167.9 175 169.1C172 170.4 169.3 172.4 167.2 174.9C165.5 176.7 163.5 179.1 163.3 181.7C163.1 184.3 166.7 187.6 169.3 186.2C171.8 184.9 171.4 180.7 171 178.5C170.4 175.2 168.3 171.4 165 170.2C162.7 169.4 160.2 170.3 158.1 171.4C155.4 172.9 152.9 174.7 150.7 176.8C148.7 178.5 147.1 180.6 146 182.9C144.9 185.5 146.6 188.2 149.2 189C152.4 190 153.9 186.6 154.2 184C154.7 180.1 153.2 175.8 149.9 173.5C147.6 171.9 145.2 172.4 143 173.9C138.9 176.8 136 181.6 133.4 185.8C133.2 186.2 132.9 186.6 132.7 187C132.1 188.9 136 192 137.1 190Z" fill="#0C41E2"/>
<path d="M206.5 175.899C207.5 173.599 208.7 171.399 210 169.299C210.9 167.699 212.1 166.299 213.3 164.999C213.9 164.499 214.4 164.099 215.1 163.699C214.8 163.899 211.1 164.499 213.6 163.999L212.2 164.299H212.3C212.4 164.299 212.5 164.399 212.6 164.399C212.9 164.499 213.2 164.699 213.5 164.899C215.7 166.699 215.9 170.799 215.4 173.399C215.3 173.899 215.2 174.499 214.9 174.899C214.4 175.699 213.3 175.499 216.7 174.799C220.1 174.099 219.1 174.799 218.4 174.099C217.7 173.399 218.1 171.599 218.4 170.599C219 168.699 220.1 166.999 221.4 165.599C222 164.899 222.7 164.399 223.5 163.899C224 163.599 224 163.699 222.5 163.999C221.5 164.199 220.9 164.099 221.3 164.299C221.7 164.399 222.1 164.599 222.4 164.799C222.9 165.199 224.3 164.799 224.9 164.699C225.5 164.599 226.1 164.399 226.6 164.199C226.7 164.199 227.4 163.899 227.3 163.799C226.6 163.199 225.6 162.899 224.7 162.999C222.9 163.099 221.1 163.499 219.5 164.199C217.6 165.199 216 166.699 215 168.599C214.1 170.099 213 172.099 213.2 173.899C213.2 174.499 213.5 174.999 214.1 175.299C214.4 175.399 214.8 175.499 215.2 175.399C216.5 175.299 217.8 174.999 219 174.599C220.4 173.999 220.5 172.199 220.6 170.799C220.7 168.799 220.4 166.899 219.5 165.099C218.4 162.999 216.6 162.799 214.4 163.199C211.8 163.499 209.4 164.699 207.8 166.699C205.3 169.799 203.2 173.199 201.7 176.899C202.5 176.899 203.4 176.899 204.2 176.799C204.6 176.599 206.2 176.399 206.5 175.899Z" fill="#0C41E2"/>
<path d="M94.8999 197.099L98.1999 201.399C99.0999 202.599 100.1 204.099 101.8 204.199C103.5 204.299 104.5 202.699 105.4 201.599C106.3 200.499 107.3 198.999 108.3 197.699C112.1 192.299 115.4 186.699 118.4 180.799C118.8 179.699 118.6 178.399 117.7 177.599C117.2 176.999 115.6 176.099 115.1 177.199C112.5 182.299 109.6 187.299 106.4 191.999C104.8 194.299 103.2 196.599 101.4 198.899C101.2 199.099 101 199.299 100.8 199.599L100.5 199.799C101 200.199 101.2 200.199 100.9 199.899C100.5 199.299 100.1 198.699 99.5999 198.199L96.6999 194.499C96.0999 193.799 94.6999 193.199 94.0999 194.099C93.4999 194.999 94.1999 196.399 94.8999 197.099Z" fill="#6A90FF"/>
<path d="M94.4999 276.5L97.6999 280.8C98.4999 282.1 99.3999 283.3 100.5 284.4C102.2 285.7 104.5 284.9 105.8 283.4C106.7 282.1 107.6 280.8 108.4 279.4C112 273.8 116 268.6 120.4 263.7C121 262.9 120.9 261.8 120.2 261.2C120.1 261.1 119.9 261 119.8 260.9C118.6 260.4 117.2 260.7 116.4 261.7C113.6 264.8 111 268 108.5 271.4C107.3 273.1 106.1 274.7 105 276.5C104.4 277.4 103.9 278.3 103.3 279.2C103 279.7 102.7 280.1 102.5 280.6C102.4 280.8 102.3 281 102.1 281.2C101.6 281.8 102 281.7 103.3 281.1L104.3 281.6C103.5 281 102.5 279.3 101.8 278.4L98.9999 274.6C98.1999 273.6 96.7999 273.3 95.6999 273.9C94.5999 274.2 93.6999 275.5 94.4999 276.5Z" fill="#6A90FF"/>
<path d="M102.4 347.999C103.4 348.399 104.3 349.099 105 349.799C105.3 350.099 108 352.399 108.4 351.599C111.9 344.499 116.1 337.699 120.8 331.299C121.5 330.399 117.5 327.399 116.8 328.299C112.1 334.699 107.9 341.499 104.4 348.599L107.8 350.399C105.9 348.399 103.7 346.699 101.1 345.499C100.7 345.299 99.3999 344.799 99.7999 345.799C100.4 346.799 101.3 347.599 102.4 347.999Z" fill="#6A90FF"/>
<path d="M37.4 102.7H38C38.3 102.7 38.1 102.7 37.6 102.7L38.3 102.8C37.5 102.7 38 102.8 38.2 102.8L38.6 102.9C38.8 102.9 39.1 103.1 38.5 102.9C38.6 102.9 38.7 103 38.9 103C39.1 103 39.3 103.2 39.6 103.3L39.8 103.4C39.6 103.3 39.5 103.3 39.7 103.3L40 103.5C40.4 103.7 40.9 104 41.3 104.3C41.8 104.6 42.3 104.7 42.8 104.7C43.4 104.8 44.1 104.8 44.7 104.6C45 104.5 45.7 104.4 45.9 104.1C46.1 103.8 45.9 103.6 45.7 103.4C43.3 101.7 40.5 100.8 37.6 100.9C37 100.9 36.4 101 35.8 101.1C35.6 101.2 35 101.4 35.1 101.7C35.2 102 35.5 102.2 35.8 102.3C36.2 102.7 36.8 102.8 37.4 102.7Z" fill="#6A90FF"/>
<path d="M46.8 90.8996L51.8 98.0996C52.1 98.6996 52.6 99.0996 53.3 99.3996C53.8 99.5996 54.4 99.5996 55 99.3996C56 98.7996 56.4 97.5996 55.8 96.5996C55.8 96.4996 55.7 96.4996 55.7 96.3996L50.7 89.1996C50.3 88.6996 49.8 88.2996 49.3 87.9996C48.8 87.7996 48.2 87.7996 47.6 87.9996C46.6 88.5996 46.2 89.7996 46.8 90.7996C46.7 90.8996 46.8 90.8996 46.8 90.8996Z" fill="#6A90FF"/>
<path d="M195 87.0997C195 87.0997 195.7 116.3 194.2 116.6C192.7 116.9 126.6 130.4 124.1 129.7C121.6 129 103 90.6997 105.8 89.4997C108.6 88.2997 140.9 81.6997 140.9 81.6997C140.9 81.6997 123.3 61.5997 140.9 51.7997C158.5 41.9997 175.6 54.0997 169.7 74.4997C169.7 74.4997 197.8 63.7997 199.3 66.4997C200.8 69.1997 209.3 84.9997 209.3 84.9997L195 87.0997Z" fill="#6A90FF"/>
<path d="M192.6 86.4998C192.7 92.3998 192.8 98.1998 192.7 104.1C192.8 107.4 192.6 110.7 192.3 113.9C192.2 114.3 192.2 114.7 192.1 115.1C191.9 115.9 192 115 192.3 115.2C192.2 115.1 191.4 115.4 191.2 115.4C178.1 118.1 164.9 120.7 151.8 123.2C144.6 124.6 137.3 126 130 127.2H129.8L129.3 127.3L128.5 127.4L126.8 127.7C125.9 127.8 125 128 124.2 128.1L123.4 128.2C123.3 128.2 123.2 128.2 123.1 128.2C122.7 128.3 123.7 128.3 123.3 128.2C124 128.3 124.7 128.6 125.3 129C125.4 129 125.7 129.4 125.4 129.1C125.3 129 125.2 128.9 125.1 128.7C125 128.5 124.8 128.3 125.1 128.8L124.8 128.4C120.9 122.7 117.9 116.2 115 110C113.3 106.4 111.7 102.7 110.2 98.9998C109.2 96.6998 108.4 94.1998 107.9 91.6998C107.8 91.3998 107.8 90.9998 107.8 90.6998C107.8 90.9998 107.8 90.5998 107.8 90.5998C107.8 90.5998 107.8 90.4998 107.9 90.4998C107.2 90.8998 107.8 90.5998 107.8 90.5998C107.1 90.7998 108.1 90.4998 108.3 90.4998C108.8 90.2998 109.3 90.1998 109.8 90.0998C113.1 89.1998 116.5 88.4998 119.9 87.7998C127 86.1998 134.1 84.7998 141.3 83.2998L142.6 82.9998C143.5 82.7998 143.2 81.9998 142.8 81.4998C142.7 81.2998 142.5 81.1998 142.4 80.9998L141.9 80.3998L141.6 80.0998L141.5 79.8998C140.3 78.2998 139.3 76.5998 138.4 74.8998C136.2 70.6998 134.5 65.5998 136 60.8998C137.9 54.6998 144.6 51.2998 150.5 50.0998C153.2 49.4998 156 49.4998 158.6 50.1998C160.8 50.7998 162.7 51.9998 164.2 53.5998C169.2 58.8998 169.3 66.7998 167.4 73.3998C167 74.9998 170.4 76.0998 171.5 75.6998C177.7 73.2998 184 71.0998 190.3 69.2998C192.2 68.6998 194.2 68.1998 196.1 67.7998C196.7 67.5998 197.4 67.4998 198 67.4998C198.3 67.4998 198.6 67.3998 198.9 67.3998C199.5 67.3998 198.7 67.2998 199.2 67.3998C199.1 67.3998 198.6 67.2998 198.9 67.3998C198.3 67.2998 197.8 66.9998 197.3 66.5998C196.8 66.1998 196.9 66.1998 197.2 66.6998L198.3 68.6998C199.4 70.6998 200.5 72.6998 201.5 74.6998C203.3 77.9998 205.1 81.3998 206.9 84.7998L207.8 83.5998L193.5 85.6998C192.5 85.7998 192.2 86.4998 192.9 87.1998C193.8 88.0998 194.9 88.5998 196.2 88.4998L210.5 86.3998C211.2 86.2998 211.8 85.9998 211.4 85.1998C209.8 82.1998 208.2 79.0998 206.5 76.0998C205.3 73.8998 204.2 71.7998 203 69.5998C202.3 68.2998 201.7 66.5998 200.5 65.6998C197.5 63.3998 192.9 64.8998 189.6 65.6998C185.1 66.8998 180.6 68.3998 176.2 69.8998C173.4 70.8998 170.6 71.8998 167.8 72.9998L171.9 75.2998C173.8 68.5998 173.7 60.9998 169.4 55.1998C165.3 49.6998 158.5 46.7998 151.8 46.7998C148.2 46.8998 144.6 47.6998 141.3 49.1998C138 50.6998 134.8 52.6998 132.7 55.6998C129.4 60.5998 130.4 66.6998 132.5 71.7998C134 75.3998 136.1 78.7998 138.7 81.6998L138.9 80.1998C133.1 81.3998 127.4 82.5998 121.6 83.8998C117.6 84.7998 113.5 85.5998 109.5 86.5998C108.1 86.8998 106.8 87.1998 105.4 87.5998C104.7 87.6998 103.9 87.9998 103.3 88.3998C102.1 89.5998 103.6 92.7998 104 93.9998C105.2 97.4998 106.6 100.9 108.1 104.3C111.2 111.6 114.8 118.6 118.8 125.5C120 127.5 121.2 129.9 123.5 130.7C125.1 131.3 126.9 131 128.6 130.7C135.1 129.7 141.5 128.5 147.9 127.3C156.4 125.7 164.8 124.1 173.2 122.4C179.6 121.1 186 119.8 192.4 118.5C193.6 118.4 194.7 118.1 195.8 117.8C196.6 117.5 196.7 116.6 196.8 115.8C197 114.3 197.1 112.8 197.1 111.4C197.4 104 197.3 96.5998 197.1 89.0998C197.1 88.5998 197.1 87.9998 197.1 87.4998C197.3 86.0998 192.6 84.6998 192.6 86.4998Z" fill="#6A90FF"/>
<path d="M149.4 59.5C149.4 59.5 143.6 62 146.5 68C149.4 74 159.5 72 158.7 66.1C157.9 60.2 153.4 58.6 149.4 59.5Z" fill="#0C41E2"/>
<path d="M198.1 115.5C198.9 104.2 199.6 92.7997 199.7 81.3997C199.8 78.6997 199.7 75.8997 199.4 73.1997C199.2 71.8997 194.2 72.3997 194.4 73.5997C194.7 75.8997 194.8 78.1997 194.7 80.4997C194.7 83.9997 194.6 87.4997 194.5 91.0997C194.2 97.8997 193.9 104.7 193.4 111.4C193.3 112.9 193.2 114.4 193.1 115.8C193 117 198 116.9 198.1 115.5Z" fill="#0C41E2"/>
<path d="M307.8 198.001C307.8 198.001 296.3 186.101 285.8 191.901C275.3 197.701 252.9 252.901 260.3 253.401C267.6 253.901 287.5 245.801 292 239.801C296.5 233.801 296.3 218.701 296.3 218.701L301 230.001L354.4 190.001C354.4 190.001 344.6 171.701 344.4 156.701C344.2 143.601 329.6 132.201 325.8 156.701C324.8 163.301 324.9 169.901 326.1 176.501L327.8 186.401C327.8 186.301 305.2 172.501 307.8 198.001Z" fill="white"/>
<path d="M309.3 196.401C305.8 192.701 301.3 190.001 296.4 188.601C290.7 187.101 284.9 188.401 280.9 192.801C277.8 196.401 275.2 200.401 273 204.701C270.2 209.901 267.6 215.201 265.3 220.701C263 226.101 260.9 231.501 259.2 237.101C257.8 241.001 256.9 245.001 256.5 249.101C256.3 250.701 256.5 252.301 257.3 253.801C258.3 255.501 259.9 255.901 261.8 255.901C268.4 255.601 275.1 252.901 281.1 250.201C286.5 247.701 293 244.501 295.6 238.701C298.2 232.901 298.6 226.401 298.7 220.301C298.7 219.901 298.7 219.401 298.7 219.001L294.2 219.301L298.9 230.501C299.4 231.601 301.1 233.101 302.4 232.101L320.5 218.501L349.2 197.001L355.8 192.101C356.8 191.401 357.1 190.001 356.4 189.001C356.2 188.601 355.9 188.101 355.7 187.701L355.3 187.001C355 186.401 355.4 187.201 355.1 186.501C354.8 185.801 354.5 185.101 354.1 184.401C352.3 180.501 350.8 176.501 349.5 172.401C348 167.801 347 163.001 346.7 158.201C346.7 155.001 346.1 151.801 344.8 148.801C342.7 144.201 337.9 138.501 332.2 140.301C329.2 141.201 327.2 143.901 325.9 146.701C323.9 151.601 322.8 156.801 322.8 162.001C322.4 170.201 324 178.101 325.4 186.201L328.7 184.401C322.5 180.601 311.6 177.201 307.1 185.101C305 188.901 305.1 193.701 305.5 197.901C305.8 200.701 310.5 201.301 310.2 198.201C310 196.201 309.9 194.201 310.1 192.301C310.2 191.001 310.5 189.701 311 188.401C311.1 188.101 311.2 187.901 311.4 187.601C311.5 187.501 312 186.701 311.6 187.201C311.9 186.801 312.3 186.401 312.7 186.001C312.9 185.801 312.4 186.201 312.8 185.901C313 185.801 313.2 185.601 313.4 185.501L314 185.201C314.3 185.101 313.5 185.401 314 185.201C314.1 185.201 314.3 185.101 314.4 185.101C314.8 185.001 315.3 184.901 315.7 184.901C316.2 184.801 315.3 184.901 315.6 184.901H316H316.8C317.3 184.901 317.7 185.001 318.2 185.001C318.3 185.001 319.2 185.201 318.5 185.001L319.3 185.201C320.3 185.401 321.2 185.701 322.1 186.101L323.3 186.601L323.8 186.801C324.2 187.001 323.3 186.601 323.6 186.701L323.9 186.801C324.8 187.201 325.6 187.701 326.5 188.201C327.9 189.001 330.1 188.301 329.8 186.401C328.8 180.601 327.5 174.801 327.2 168.801C326.8 163.201 327.4 157.501 328.9 152.001C329.4 150.401 330 148.801 330.9 147.401C331.2 146.901 331.5 146.401 331.9 146.001L332.4 145.501L332.7 145.201C332.8 145.101 332.4 145.401 332.8 145.101L333.4 144.701C333.9 144.401 333.2 144.701 333.6 144.601L334.3 144.501C334.8 144.401 333.9 144.501 334.2 144.501H334.6C334.8 144.501 335.5 144.601 334.8 144.501C335 144.501 335.2 144.601 335.5 144.701C335.8 144.801 336.4 145.101 335.7 144.801C335.9 144.901 336.2 145.001 336.4 145.201L337.1 145.701C336.5 145.301 337.2 145.801 337.3 145.901L337.9 146.501C338 146.701 338.6 147.301 338.2 146.801C338.6 147.301 338.9 147.701 339.2 148.201C339.4 148.501 339.6 148.801 339.7 149.101L339.9 149.501C340.2 150.001 339.8 149.201 340 149.701C340.3 150.301 340.5 150.901 340.7 151.501C340.8 151.901 340.9 152.201 341 152.501C341 152.701 341.3 153.501 341.2 153.201C341.5 154.801 341.6 156.401 341.6 158.101C341.9 162.901 342.9 167.701 344.3 172.301C346.2 178.801 348.8 185.101 352 191.101L352.6 188.001L334.5 201.601L306.2 223.001L299.6 227.901L303.1 229.501L298.4 218.301C297.5 216.101 293.8 215.601 293.9 218.601C294 223.001 293.5 227.401 292.6 231.701C292.3 233.101 291.9 234.501 291.3 235.901C290.9 237.001 290.3 237.901 289.5 238.801C287.6 240.701 285.5 242.301 283.1 243.401C277.4 246.601 271.3 249.001 265 250.501C264.3 250.601 263.7 250.801 263 250.901L262.2 251.001C262.1 251.001 261.2 251.101 261.6 251.101C261.1 251.001 260.6 251.001 260.1 251.101C259.9 251.201 260.7 251.301 260.4 251.201C260.1 251.101 261.1 251.601 260.7 251.301C260.5 251.201 261.3 251.801 261 251.501C260.7 251.201 261.5 252.201 261.2 251.801C261.5 252.501 260.9 251.401 261.2 251.801C260.9 251.101 261.2 252.301 261.2 251.701C261.2 251.401 261.2 251.201 261.1 250.901C261 250.601 261.1 249.701 261.1 250.401C261.1 250.001 261.2 249.601 261.2 249.301C261.3 248.501 261.4 247.701 261.6 246.901C262 244.901 262.5 242.901 263.1 240.901C264.6 236.001 266.3 231.101 268.3 226.401C270.4 221.201 272.8 216.101 275.3 211.001C276.5 208.701 277.8 206.401 279.1 204.101C279.7 203.101 280.3 202.101 280.9 201.101C281.2 200.701 281.4 200.201 281.7 199.801L282.2 199.201C282.4 198.801 282.2 199.101 282.2 199.201C282.3 199.101 282.4 198.901 282.5 198.801C283.5 197.401 284.6 196.101 285.8 194.901C286 194.701 286.3 194.501 286.6 194.201C286.9 193.901 286.2 194.401 286.6 194.201C287 194.001 286.9 194.001 287.1 193.901C288.5 193.101 290 192.601 291.5 192.501C294.5 192.401 297.4 193.101 300 194.601C301.2 195.301 302.4 196.001 303.6 196.901L304 197.201C303.9 197.101 303.6 196.901 304 197.201L304.6 197.701C304.9 198.001 305.3 198.301 305.6 198.601C305.9 198.901 306.2 199.101 306.5 199.401C307.2 200.401 308.6 200.601 309.6 199.801C310.6 199.101 310.8 197.701 310 196.701C309.7 196.701 309.5 196.501 309.3 196.401Z" fill="#0C41E2"/>
<path d="M244.6 266.2C244.6 266.2 449.5 111.8 453.7 111.7C457.9 111.6 466.6 121.8 465.7 126.3C464.8 130.8 260.9 283 258.4 283.9C255.9 284.8 228.3 291.5 228.3 291.5L244.6 266.2Z" fill="#6A90FF"/>
<path d="M245.5 267.8L251.8 263L268.8 250.2C277.1 244 285.4 237.7 293.7 231.5C303.7 224 313.7 216.5 323.7 209C334.4 201 345.2 193 355.9 184.9C366.5 177 377.2 169.1 387.8 161.2C397.3 154.2 406.7 147.2 416.2 140.2C423.6 134.8 431.1 129.4 438.5 124C443 120.8 447.4 117.6 452 114.6C452.5 114.3 453.1 113.9 453.6 113.6C453.8 113.5 454 113.4 454.1 113.3C454.2 113.2 454.5 113.3 454.1 113.2C456.6 113.5 458.9 115.8 460.5 117.6C461.7 119 462.8 120.5 463.6 122.2C463.9 122.8 464.1 123.4 464.3 124C464.3 124.2 464.4 124.6 464.4 124.8C464.4 124.7 464.4 125.1 464.4 125.1C462.4 123.4 464.6 125 464.4 124.9C464.7 124.6 464.2 124.8 464.4 124.9C464.3 125 464.1 125.2 464 125.3C463.6 125.8 463.1 126.2 462.6 126.6C461 128.1 459.3 129.4 457.6 130.8C455.1 132.8 452.7 134.7 450.1 136.8C446.8 139.5 443.4 142.1 440.1 144.7C431.7 151.3 423.2 157.8 414.7 164.3C404.6 172.1 394.4 179.8 384.2 187.5C373.4 195.7 362.6 203.8 351.8 211.9C341.3 219.8 330.7 227.7 320.2 235.6C310.9 242.5 301.6 249.5 292.2 256.4C285.1 261.7 278 266.9 270.8 272.2C266.8 275.1 262.8 278.1 258.8 280.9C258.1 281.5 257.3 281.9 256.5 282.2C251 283.8 245.3 285.1 239.7 286.4C235.6 287.4 231.6 288.4 227.5 289.4L229.1 292.6L243.3 270.6L245.4 267.4C246.2 266.1 244.1 263.1 243.2 264.5L229 286.5L226.9 289.7C226.3 290.6 227.1 293.3 228.5 292.9C232.9 291.8 237.3 290.8 241.7 289.7C247.2 288.3 252.8 287.1 258.3 285.5C259.1 285.2 259.9 284.8 260.5 284.2C262.1 283.1 263.7 281.9 265.3 280.7C271.1 276.5 276.9 272.2 282.7 267.9C291.2 261.6 299.7 255.3 308.2 249C318.4 241.4 328.5 233.8 338.7 226.2C349.6 218 360.5 209.9 371.3 201.7C382 193.7 392.6 185.6 403.2 177.5C412.6 170.4 422 163.2 431.3 156C438.5 150.4 445.7 144.9 452.8 139.2C456.9 135.9 461.1 132.7 464.9 129.1C466.1 128 466.8 127.3 466.7 125.5C466.5 121.8 463.9 118.2 461.5 115.5C460.2 114 458.7 112.7 457.1 111.5C455.9 110.5 454.5 109.9 452.9 109.7C451.9 109.9 450.9 110.3 450.2 111C448.4 112.1 446.7 113.3 445 114.5C438.9 118.7 433 123.1 427 127.4C418.4 133.7 409.8 139.9 401.3 146.3C391.1 153.8 380.9 161.4 370.7 169C359.8 177.1 348.9 185.2 338 193.4C327.4 201.3 316.8 209.2 306.3 217.2C297 224.2 287.6 231.2 278.3 238.2L256.8 254.3L244.8 263.3L243.3 264.5C242.5 265.5 244.3 268.8 245.5 267.8Z" fill="#6A90FF"/>
<path d="M370.8 204.4C370.8 204.4 460 280 459.3 295.9C457.4 344 408.5 353.2 408.5 353.2C408.5 353.2 371.4 310.1 366.3 308.4C366.3 308.4 353.3 316 333.3 310.8C313.3 305.6 287.1 294.8 272.7 285.2C258.3 275.6 255.8 258.2 272.7 258.6C289.6 259 306.7 266.7 313.4 263.2C320.1 259.7 314.8 246.2 314.8 246.2" fill="white"/>
<path d="M368.5 205.2C370.4 206.8 372.3 208.4 374.2 210.1C379 214.3 383.9 218.5 388.6 222.7C395.1 228.5 401.6 234.3 407.9 240.2C414.7 246.5 421.5 253 428.1 259.6C434 265.5 439.8 271.5 445.3 277.8C449.1 282.2 453 286.8 455.6 292C456.4 293.5 456.9 295.2 456.9 296.9C456.7 302.6 455.7 308.3 453.9 313.8C450.9 322.8 445.6 330.8 438.5 337.1C435.5 339.8 432.3 342.2 428.8 344.3C427.3 345.2 425.8 346.1 424.2 346.9C423.4 347.3 422.7 347.7 421.9 348L420.8 348.5L420.5 348.6L419.9 348.8C418.6 349.4 417.2 349.9 415.8 350.4C415.8 350.4 416.2 350.3 415.7 350.4L415.3 350.5L414.4 350.8C413.9 351 413.3 351.2 412.8 351.3L412.1 351.5C412.9 351.3 412.2 351.5 411.9 351.5L410.7 351.8L409.7 352C409.2 352.1 410.4 351.9 409.9 352L409.6 352.1L409 352.2H410.9C403.3 343.4 395.6 334.6 387.7 326C382.9 320.9 378.1 315.6 372.9 310.8C371.7 309.7 370.3 308.1 368.7 307.5C367.6 307.1 365.9 307.6 364.9 308.1C364.7 308.2 363.6 308.8 364.4 308.3C364.3 308.4 364.2 308.4 364.1 308.4L363.1 308.9C362.6 309.1 363.4 308.8 362.8 309L361.8 309.4L361.3 309.6L361.1 309.7L359.9 310.1C359.2 310.3 360.4 310 359.7 310.2L359 310.4L357.9 310.7C355.5 311.2 353 311.5 350.5 311.6C343.9 311.8 337.5 310.5 331.1 308.6C318.4 304.9 306 300.3 294 294.7C288.6 292.2 283.4 289.5 278.3 286.5C273.8 283.8 269.6 280.7 266.6 276.3C264.4 273 262.6 268.8 263.4 264.8C263.7 263.2 264.5 261.7 265.8 260.6C266.3 260.2 266.9 259.8 267.5 259.5C268 259.4 267.1 259.6 267.5 259.5C268.3 259.3 267.1 259.5 267.9 259.4C268.4 259.3 269 259.3 269.5 259.3C276.4 259.1 283.5 260.7 290.1 262.1C295.6 263.3 301.3 264.9 307 264.8C311.2 264.8 316.8 263.6 318.4 259.1C319.6 255.5 318.8 251.3 317.8 247.8C317.6 247 317.3 246.2 317 245.4C316.7 244.6 312 246.1 312.2 246.7C313.6 250.4 314.7 254.8 314.1 258.7C313.9 260 313.4 261.2 312.6 262.2C312.2 262.6 311.8 262.9 311.4 263.2C311.1 263.4 311.5 263.2 311.7 263.1C311.9 263 311.7 263.1 311.6 263.1C308.4 263.4 305 262.7 301.8 262.1C292.9 260.3 284.1 258 274.9 257.7C269.5 257.5 261.2 258.7 259 264.5C257 269.6 259.9 275.4 263.1 279.4C267.6 285 274.2 288.5 280.4 291.8C295.7 299.8 311.8 306.2 328.4 310.7C336.4 313.1 344.9 313.8 353.3 312.6C358.2 311.9 363 310.5 367.4 308.4C367.7 308.3 368 308.1 368.3 307.9L363.8 308.9C364.8 309.3 365.6 309.9 366.4 310.7C367.9 312 369.3 313.3 370.6 314.7C374.5 318.6 378.3 322.6 382 326.7C389.2 334.6 396.3 342.6 403.3 350.7C404 351.5 404.8 352.4 405.5 353.2C406.2 354 406.9 353.7 407.9 353.6C410 353.2 412.1 352.6 414.1 352C422.7 349.4 430.8 345.3 438.1 340C448.1 332.7 455.5 322.3 459.1 310.4C460.1 306.8 460.9 303.1 461.2 299.4C461.4 297.4 461.8 295.3 461.3 293.4C460.4 290.6 459.1 288 457.3 285.8C451.8 277.8 444.9 270.7 438.2 263.7C429.6 255 420.8 246.5 411.8 238.1C403.7 230.6 395.5 223.2 387.2 215.9C382.7 211.9 378.1 208 373.6 204.1L373 203.5C372.4 203 370.5 203.7 369.9 203.9C369.8 204.1 368 204.7 368.5 205.2Z" fill="#0C41E2"/>
<path d="M312 199C309.7 197.1 307.3 195.2 304.9 193.5C304.2 193 303.5 192.5 302.7 192C301.8 191.4 300.8 190.9 299.8 190.6C299.5 190.4 299 190.4 298.7 190.5C298.4 190.5 298.2 190.8 298.3 191.1C298.4 191.6 298.6 192 298.9 192.4C299.3 193 299.7 193.6 300.2 194.1C301.5 195.5 302.9 196.8 304.5 198C305.7 199 307.1 199.7 308.5 200.3H308.6L307.5 199.8L307.7 199.9L306.4 199.1C306.6 199.2 306.9 199.4 307.1 199.5L305.6 198.5C307.2 199.6 308.7 200.8 310.2 202L308.6 200.8L309.7 201.7C311 202.9 312.5 203.9 314.1 204.7C314.6 205 315.1 205.2 315.7 205.3C316 205.4 316.4 205.4 316.7 205.2L316.8 204.7C316.6 204 316.3 203.4 315.9 202.8C314.7 201.4 313.4 200.1 312 199Z" fill="#0C41E2"/>
</svg>
