<svg width="500" height="500" viewBox="0 0 500 500" fill="none" xmlns="http://www.w3.org/2000/svg">
<path fill-rule="evenodd" clip-rule="evenodd" d="M274.264 1.4083C329.237 -5.41531 388.216 12.8189 428.734 50.432C467.37 86.2986 470.071 143.623 482.519 194.735C493.885 241.407 504.666 286.895 497.901 334.444C489.928 390.483 488.96 460.298 440.519 489.921C391.805 519.712 331.351 474.275 274.264 471.207C221.817 468.388 168.47 494.15 120.558 472.724C67.4233 448.961 16.6123 406.242 2.9435 349.869C-10.5037 294.41 24.9538 240.488 52.0599 190.222C74.7837 148.083 108.914 116.644 145.454 85.5945C185.501 51.5653 222.018 7.89339 274.264 1.4083Z" fill="#EDF1FE"/>
<path d="M369.6 275H349.5L346.8 250.9H372.3L369.6 275Z" fill="#0C41E2"/>
<path d="M370.7 274.2H350.6L351.9 274.7L349.5 253.7L349.1 250.7L345.5 251.9H371.1L369.8 251.4L367.4 272.4L367 275.4C366.9 276.2 371.8 276.1 372 274.7L374.4 253.7L374.7 250.7C374.7 250.3 373.6 250.2 373.4 250.2H347.8C347.2 250.2 344 250.3 344.2 251.4L346.6 272.4L347 275.4C347 275.9 348 275.9 348.3 275.9H368.4C369.4 275.9 371 275.9 371.8 275.1C372.6 274.3 371.3 274.2 370.7 274.2Z" fill="#0C41E2"/>
<g opacity="0.4">
<path d="M378.3 343V264.2H340.4V342.6C314.3 352.8 301.4 382.3 311.7 408.4C321.9 434.5 351.4 447.4 377.5 437.1C403.6 426.9 416.5 397.4 406.2 371.3C401.3 358.5 391.2 348.2 378.3 343Z" fill="#EDF1FE"/>
<path d="M380.8 343.4V264.7C380.8 263.5 378 263.3 377.2 263.3H339.4C339.2 263.3 338 263.3 338 263.8V342.2L338.4 341.8C312 352 299 381.7 309.2 408.1C313.1 418.1 320 426.6 328.9 432.4C344.6 442.8 365.9 444.7 383 436.5C408.6 424.4 419.4 393.8 407.3 368.2C402.8 358.6 395.4 350.7 386.2 345.5C384.1 344.3 381.9 343.2 379.7 342.3C378.8 341.9 377.2 341.5 376.3 342C375.4 342.5 376.4 343.1 377 343.3C394.3 350.5 406.1 367.6 407.3 386.2C408.4 404 400 421.1 385.2 431.2C371 440.9 352.2 442.5 336.9 434.3C321.4 425.8 311.5 409.8 310.8 392.2C310.2 373.3 320.1 355.5 336.6 346.2C338.6 345.1 340.6 344.2 342.7 343.3C342.9 343.3 343.1 343.1 343.1 342.9V264.5L341.8 265H379.6L376 263.6V342.3C375.9 343.9 380.8 344.4 380.8 343.4Z" fill="#0C41E2"/>
</g>
<path d="M399.1 388.7C399.1 410.6 381.3 428.4 359.4 428.4C337.5 428.4 319.7 410.6 319.7 388.7H399.1Z" fill="#6A90FF"/>
<path d="M396.8 387.8C396.7 403.8 387 418.1 372.1 424C364.6 426.9 356.5 427.3 348.7 425.3C341.6 423.4 335.3 419.3 330.6 413.6C325 406.8 322 398.3 321.9 389.6L320.7 390.5H400.1C400.7 390.6 401.2 390.1 401.3 389.5C401.3 389.2 401.3 388.9 401.1 388.7C400.4 387.6 399.3 387 398.1 386.9H318.8C318.3 386.9 317.5 387.1 317.5 387.8C317.9 411.5 337.4 430.5 361.1 430.1C364.5 430 367.9 429.6 371.1 428.8C379.2 426.6 386.4 422 391.8 415.7C397.9 408.4 401.3 399.2 401.3 389.7C401.4 387.7 396.8 385.8 396.8 387.8Z" fill="#6A90FF"/>
<path d="M347.3 408.8C344.9 410.1 343.2 412.4 342.8 415C342.6 415.8 342.7 416.7 343 417.5C343.4 418.4 344.1 419.2 345 419.7C346.3 420.4 347.7 420.8 349.2 420.9C352.1 421.3 355 420.5 357.1 418.5C359.2 416.6 359.8 413.6 358.6 411C356.9 407.6 352.7 406.1 349.2 407.7C348.2 408.2 347.8 409.4 348.3 410.4C348.3 410.5 348.4 410.6 348.4 410.7C349.2 411.8 350.6 412.1 351.8 411.6C351.9 411.6 352.1 411.4 352.1 411.5C352.1 411.6 351.7 411.6 352 411.6C352.1 411.6 352.2 411.6 352.4 411.5C352.7 411.4 352.2 411.5 352.2 411.5H352.9C352.9 411.5 352.4 411.4 352.7 411.5L353.1 411.6C353.5 411.7 353.2 411.6 353.1 411.6C352.7 411.5 353.1 411.6 353.2 411.7C353.3 411.7 353.4 411.8 353.4 411.8C353.3 411.9 353 411.5 353.3 411.8L353.6 412C353.4 411.7 353.6 412 353.7 412.1C353.8 412.2 353.8 412.3 353.9 412.4C354.1 412.6 353.8 412 353.9 412.3L354 412.5C354 412.6 354.2 413.3 354.1 412.8C354.1 413 354.1 413.2 354.2 413.4V413.6C354.2 413.8 354.1 414 354.1 414.1L354 414.4C354 414.4 354.2 414 354.1 414.2C354 414.4 353.6 415.2 353.4 415.2C353.4 415.2 353.7 414.9 353.4 415.1L353.2 415.3C353.1 415.4 352.9 415.6 352.7 415.7L352.5 415.8C352.5 415.8 353 415.5 352.6 415.7C352.4 415.8 352.2 415.9 352 416C351.8 416.1 351.6 416.1 352 416L351.7 416.1L351 416.2L350.6 416.3C350.6 416.3 350.2 416.3 350.5 416.3H349.8H349.1C349 416.3 348.9 416.3 348.8 416.3C348.9 416.4 349.2 416.4 348.9 416.3C348.6 416.2 348 416.1 347.6 416C347.2 415.9 348.1 416.2 347.8 416.1L347.6 416C347.2 415.8 348 416.3 347.5 416C347.3 415.8 347.8 416.4 347.6 416.1C347.4 415.8 347.7 416.2 347.7 416.2C347.7 416.1 347.5 415.9 347.7 416.2C347.7 416 347.7 415.9 347.7 415.7C347.7 415.5 347.7 415.8 347.7 415.8C347.7 415.7 347.8 415.5 347.8 415.4C347.8 415.3 347.9 415 348 414.7C348 414.6 348.1 414.3 348 414.6C347.9 414.9 348.1 414.4 348.1 414.4C348.2 414.2 348.3 414 348.5 413.8C348.6 413.6 348.8 413.4 348.9 413.2C348.6 413.6 349 413.1 349.1 413C349.3 412.8 349.5 412.7 349.7 412.5C349.7 412.5 349.9 412.3 349.9 412.4L349.8 412.5L350 412.4C351 411.9 351.4 410.7 350.9 409.7C350.9 409.6 350.8 409.5 350.8 409.4C349.9 408.7 348.5 408.3 347.3 408.8Z" fill="#EDF1FE"/>
<path d="M375.8 390.6C372.9 390.2 370.3 392.4 368.2 394.3C366.1 396.2 365 398.5 365.7 401.1C366.4 403.7 369.2 405.2 371.8 405.8C373.9 406.3 375.4 406.3 376.5 408.3C377 409.3 377.4 410.4 377.5 411.5C377.6 412.7 377.4 413.9 378 415C378.8 416.4 380.3 417.3 381.9 417.5C383.3 417.6 384.7 417.2 385.8 416.4C388 415.1 389.7 413.3 390.8 411C391.9 408.5 391.8 405.6 390.6 403.1C388.1 397.6 383.6 393.2 378 390.8C377.2 390.5 375.6 390.1 375.1 391.1C374.6 392.1 376.1 393.1 376.8 393.4C380.3 395 383.2 397.6 385.1 400.9C386.3 402.7 386.9 404.9 386.7 407.1C386.3 409 385.3 410.8 383.8 412.1C383.1 412.7 382.4 413.3 381.6 413.8C381.3 414 380.8 414 380.6 414.2L382.4 415.1V415C382.4 414.7 382.4 414.4 382.4 414.1C382.4 412.2 381.9 410.3 381.1 408.6C380.1 406.7 378.5 405.1 376.6 404.2C374.9 403.3 372.9 403.3 371.2 402.7C369.5 402.1 370.6 399.2 371.4 398.1C372.2 397.1 373.2 396.2 374.2 395.5C375 394.9 376.1 393.9 377.2 394C378.1 394.1 379.2 393.6 378.8 392.5C378.4 391.4 376.9 390.8 375.9 390.7L375.8 390.6Z" fill="#EDF1FE"/>
<path d="M325.9 388.6C324.9 391.8 324.4 395.2 326.6 398.1C328.4 400.6 332 401.3 334.9 401.7C338 402.1 341.2 401.6 343.2 398.9C344 397.8 344.4 396.6 344.4 395.3C344.3 393.5 343.4 391.9 342 390.8C340.7 389.7 339.2 388.9 337.6 388.2C336 387.5 334.3 386.9 332.6 386.4C331.5 386.2 330.5 386.9 330.3 388C330.3 388.1 330.3 388.3 330.3 388.4C330.4 389.7 331.3 390.8 332.6 391.1L333.3 391.3L333.8 391.5C334.3 391.7 334.8 391.9 335.4 392.1C336 392.3 336.4 392.5 336.9 392.8L337.7 393.2L338 393.4C338.4 393.6 337.8 393.3 338.1 393.5C338.4 393.7 339 394 339.4 394.4C339.8 394.8 339.2 394.2 339.6 394.6C339.6 394.6 339.9 394.9 339.7 394.7C339.5 394.5 339.8 394.8 339.8 394.9C340 395.2 339.7 394.5 339.8 394.8C339.9 395.1 339.8 394.7 339.8 394.7C339.8 394.9 339.8 395.1 339.8 395.2C339.8 394.8 339.8 395.2 339.7 395.4C339.7 395.5 339.6 395.8 339.7 395.4L339.5 395.7C339.4 395.9 339.3 396 339.2 396.2C339.2 396.2 339 396.5 339.1 396.3C339.2 396.1 339 396.4 338.9 396.4C338.8 396.5 338.6 396.7 338.4 396.8C338.2 397 338.4 396.8 338.5 396.8L338.1 397C337.3 397.4 336.3 397.5 335.4 397.4C334.3 397.3 333.1 397.1 332 396.8L331.2 396.6C330.8 396.5 331.3 396.7 330.9 396.5L330.3 396.3C330.2 396.3 329.9 396.1 330.3 396.3L329.9 396.1C329.9 396.1 329.6 395.8 329.8 396C330 396.2 329.7 395.9 329.7 395.8C329.5 395.6 329.7 395.8 329.8 395.9C329.9 396 329.5 395.3 329.6 395.6C329.7 395.9 329.6 395.5 329.6 395.5C329.6 395.5 329.5 395.2 329.5 395.1C329.5 395 329.4 394.7 329.5 395C329.6 395.3 329.5 394.8 329.5 394.7C329.5 393.4 329.8 392.2 330.2 391C331 388.4 326.7 386.2 325.8 389.1L325.9 388.6Z" fill="#EDF1FE"/>
<path d="M488.1 433.4L455.6 357.7V299.9H426.3V358.6L393.8 433.5C392.6 436.3 393.9 439.5 396.6 440.7C397.3 441 398 441.2 398.8 441.2H483C486 441.2 488.5 438.8 488.5 435.8C488.6 434.8 488.4 434.1 488.1 433.4Z" fill="#EDF1FE"/>
<path d="M490.6 432.701L482.2 413.101L466.6 376.801L460.6 362.801L458.8 358.601C458.5 358.101 458.2 357.501 458 357.001C457.9 356.301 457.9 355.701 458 355.001V299.201C457.9 299.101 457.8 299.101 457.6 299.101H428.4C427.8 299.101 424 299.801 424 300.501V357.201C424.1 357.901 424.1 358.501 424 359.201C423.6 360.501 423.1 361.701 422.4 362.901L411.7 387.601L398.4 418.201C396.1 423.501 393.7 428.701 391.5 434.001C390.3 436.801 391.6 440.101 394.5 441.301C394.6 441.301 394.6 441.301 394.7 441.401C395.7 441.701 396.7 441.801 397.7 441.801H477.9C480.5 441.901 483.1 441.601 485.6 440.901C487.5 440.301 489.3 439.501 490.3 437.701C491.1 436.301 491.2 434.401 490.6 432.701C490.4 432.101 485.7 433.701 485.8 434.101C486.6 435.901 486.3 438.001 485.1 439.501C484.8 439.801 484.6 440.101 484.2 440.401C484 440.501 483.8 440.601 483.7 440.801C483 441.401 486.4 440.401 485.3 440.301C485.2 440.301 485.1 440.301 485.1 440.301C484.6 440.301 484 440.301 483.5 440.301H403.4C400.6 440.301 397.9 440.301 396.4 437.201C395.2 434.701 396.4 432.501 397.4 430.201L401.4 421.001L414 391.901L425.7 364.901L428.5 358.401C428.8 357.401 428.9 356.301 428.7 355.301V299.301L424.3 300.701H453.6L453.2 300.601V346.801C453.2 350.501 453.1 354.301 453.2 358.001C453.2 359.301 454.2 360.701 454.7 361.901L460 374.301L475.5 410.401L482.1 425.801C483.2 428.401 484.2 431.201 485.5 433.801C485.6 433.901 485.6 434.001 485.7 434.201C486 434.801 490.7 433.001 490.6 432.701Z" fill="#0C41E2"/>
<path d="M424.7 391.601L406.3 432.001L474.9 432.401L458.1 391.601H424.7Z" fill="#6A90FF"/>
<path d="M475.6 432.901L405.5 432.501L424.4 391.101H458.5L458.6 391.401L475.6 432.901ZM407.1 431.501L474.1 431.801L457.8 392.101H425L407.1 431.501Z" fill="#6A90FF"/>
<path d="M436.8 310.6H458C458.4 310.6 459.8 310.5 459 310C458.2 309.5 456.6 309.5 455.6 309.5H434.4C434 309.5 432.6 309.6 433.4 310.1C434.2 310.6 435.8 310.6 436.8 310.6Z" fill="#0C41E2"/>
<path d="M427.7 402.4C427.2 403.1 427 403.9 427.2 404.7C427.3 404.9 427.4 405.2 427.5 405.4C427.6 405.5 427.7 405.6 427.8 405.8C428 406 428.2 406.1 428.4 406.3C428.6 406.4 428.8 406.5 429 406.6L429.2 406.7C429.7 406.8 430.2 406.9 430.7 406.9H430.9C431.2 406.9 431.5 406.9 431.7 406.8C432.2 406.7 432.8 406.6 433.2 406.4C433.4 406.3 433.6 406.2 433.8 406.1L434 406C434.2 405.8 434.4 405.7 434.6 405.5C434.8 405.3 434.9 405.1 435 404.9C435.1 404.6 435.1 404.2 435 403.9C434.9 403.7 434.8 403.4 434.7 403.2C434.5 403 434.4 402.8 434.2 402.7C434 402.5 433.7 402.4 433.5 402.3C433.3 402.2 433 402.2 432.8 402.1C432.5 402.1 432.3 402 432 402.1C431.4 402.1 430.7 402.2 430.1 402.5C429.9 402.6 429.6 402.7 429.4 402.9C429.2 403 429.1 403.2 429 403.4V403.7C429 403.9 429.2 404.1 429.4 404.3L429.8 404.5C430.2 404.6 430.5 404.7 430.9 404.7H431H430.4H430.5L430 404.6L430.2 404.7L429.8 404.5C429.9 404.5 430 404.6 430.1 404.7L429.8 404.4C430 404.5 430.1 404.7 430.2 404.9L430.1 404.6C430.2 404.8 430.2 405.1 430.2 405.3V405C430.2 405.2 430.1 405.3 430 405.4L430.2 405.1C430.1 405.2 430.1 405.3 430 405.4L430.4 405.1C430.3 405.2 430.3 405.2 430.2 405.2L430.7 404.9L430.5 405L431.1 404.8L430.9 404.9L431.6 404.8H431.4H432.1H431.9H432.5H432.3L432.8 404.9C432.7 404.9 432.6 404.8 432.5 404.8L432.9 405C432.8 404.9 432.7 404.9 432.5 404.8L432.8 405.1C432.6 404.9 432.5 404.8 432.4 404.5L432.5 404.8C432.4 404.5 432.3 404.1 432.4 403.8V404.1C432.4 403.8 432.5 403.5 432.7 403.3L432.5 403.6V403.5C432.6 403.4 432.7 403.2 432.7 403C432.8 402.8 432.7 402.7 432.6 402.5C432.5 402.3 432.3 402.2 432.1 402.1C431.9 402 431.6 401.9 431.4 401.9C430.8 401.8 430.1 401.9 429.5 402L428.9 402.2C428.2 402 427.9 402.2 427.7 402.4Z" fill="#EDF1FE"/>
<path d="M452.3 416.501C450.9 417.201 449.8 418.201 448.9 419.501C448.1 420.701 447.5 422.301 448.3 423.601C448.9 424.501 449.9 425.001 451 425.001C452.2 425.101 453.5 424.901 454.6 424.301C455.9 423.701 457 422.701 457.8 421.401C458.6 420.101 459 418.601 459 417.001C459 416.601 458.5 416.201 458.1 416.101C457.5 415.901 456.9 415.801 456.3 415.901C455.4 416.101 454 416.601 454 417.701C454 418.001 454 418.201 454 418.501V418.101C453.9 418.901 453.7 419.701 453.3 420.501L453.5 420.101C453.2 420.701 452.8 421.201 452.4 421.601L452.7 421.201C452.4 421.501 452 421.801 451.6 422.101L452.1 421.801C452 421.901 451.8 422.001 451.6 422.101H451.5L451.8 421.901L451.6 422.001C451.2 422.101 452.3 421.901 451.9 421.901C451.5 421.901 451.5 421.901 452.2 421.901C452.1 421.901 451.8 421.901 452.3 421.901C452.8 421.901 452.4 421.901 452.3 421.901L452.8 422.101L452.6 422.001L453 422.201C452.9 422.101 452.8 422.001 452.7 422.001L453 422.301C452.9 422.201 452.8 422.001 452.7 421.801L452.8 422.201C452.7 421.901 452.7 421.601 452.7 421.301V421.701C452.8 421.201 452.9 420.701 453.2 420.201L453 420.601C453.3 420.001 453.7 419.501 454.1 419.101L453.8 419.501C454.1 419.201 454.5 418.901 454.9 418.601L454.4 418.901C454.6 418.801 454.8 418.701 455 418.501C455.4 418.301 455.8 417.901 456 417.501C456.1 417.101 455.9 416.601 455.6 416.401C454.7 415.901 453.4 415.901 452.3 416.501Z" fill="#EDF1FE"/>
<path d="M427.4 423.4C428 424.3 429 425 430 425.4L430.4 425.5C430.7 425.6 431 425.6 431.3 425.6C431.5 425.6 431.7 425.6 431.9 425.6C432.1 425.6 432.3 425.6 432.6 425.5C433.5 425.3 434.2 424.8 434.8 424.2C435.1 423.9 435.3 423.5 435.5 423.1C435.7 422.7 435.8 422.3 435.8 421.8C435.8 421.5 435.8 421.1 435.8 420.8C435.8 420.5 435.7 420.1 435.6 419.8C435.5 419.6 435.4 419.3 435.3 419.1C435.2 418.9 435.1 418.6 434.9 418.4C434.7 418.1 434.5 417.9 434.2 417.7C434 417.5 433.7 417.3 433.3 417.2C432.7 417 432.1 417.1 431.6 417.3C431.1 417.6 430.7 418.1 430.6 418.7C430.5 419.3 430.6 419.9 431 420.5C431.1 420.6 431.2 420.7 431.2 420.9L430.9 420.3C431 420.5 431 420.7 431.1 420.8L431 420.2C431 420.4 431 420.6 431 420.8V420.2C431 420.4 430.9 420.7 430.9 420.9L431.1 420.4C431 420.6 430.9 420.8 430.8 421L431.1 420.5C431 420.7 430.8 420.8 430.7 421L431.2 420.6C431 420.7 430.8 420.8 430.7 420.9L431.2 420.7C431 420.8 430.8 420.8 430.6 420.8H431.2C431 420.8 430.8 420.8 430.6 420.8L431.2 420.9C431 420.9 430.8 420.8 430.6 420.7L431.2 421C431 420.9 430.9 420.8 430.7 420.7L431.2 421.1C431.1 421 431 420.9 430.9 420.8L431.3 421.3L431.2 421.2C430.8 420.6 430.3 420.2 429.7 420C429.1 419.8 428.5 419.9 428 420.1C427.5 420.4 427.1 420.9 427 421.5C426.9 422.3 427.1 422.9 427.4 423.4Z" fill="#EDF1FE"/>
<path d="M293.4 382.7H291.9V365.3H271.6V382.7H270.5C267.3 382.7 264.7 385.3 264.7 388.5V431.8C264.7 435 267.3 437.6 270.5 437.6H293.5C296.7 437.6 299.3 435 299.3 431.8V388.5C299.2 385.3 296.6 382.7 293.4 382.7Z" fill="#EDF1FE"/>
<path d="M294 381.8H292.5L294.4 382.4V365C294.4 364.4 292.8 364.4 292.5 364.4H272.1C271.5 364.4 269.1 364.6 269.1 365.6V383L272.1 381.8C268 381.8 263 383.1 262.2 387.8C262.1 388.9 262 390 262.1 391.1V430.7C262 432.3 262.3 433.9 263 435.3C264.7 438 267.7 438.5 270.7 438.5H278C282.9 438.5 287.8 438.6 292.8 438.5C296.9 438.4 301.5 436.3 301.7 431.7C301.7 430.8 301.7 429.8 301.7 428.9V389.4C302.2 385.7 299.6 382.3 295.9 381.9C295.5 381.8 295 381.8 294.6 381.9C293.6 381.9 292 381.9 291.2 382.6C290.4 383.3 291.6 383.6 292.2 383.6C295.1 383.7 296.7 386.5 296.7 389.1C296.7 390.4 296.7 391.7 296.7 393V430.9C296.9 432.5 296.5 434.1 295.6 435.4C294.4 437 293.5 436.7 291.8 436.7H284C279.7 436.7 275.3 436.9 271 436.7C271.6 436.7 270.7 436.6 270.6 436.6C270.1 436.4 269.7 436.2 269.3 435.9C268.5 435.3 267.8 434.4 267.4 433.4C267.2 432.7 267 431.9 267.1 431.2C267.1 430 267.1 428.7 267.1 427.5V389.5C266.9 387.9 267.3 386.4 268.1 385.1C268.5 384.4 269.1 383.9 269.8 383.6C270.2 383.6 270.6 383.6 270.9 383.6C271.4 383.6 273.9 383.4 273.9 382.4V365L270.9 366.2H291.2L289.3 365.6V383C289.3 383.6 290.9 383.6 291.2 383.6H292.7C293.4 383.6 295.3 383.5 295.7 382.6C296.1 381.7 294.3 381.8 294 381.8Z" fill="#0C41E2"/>
<path d="M277.7 371C277.7 371 276.9 407.5 277.7 409.2C278.5 410.9 278.8 410.5 279.2 412.1C279.6 413.7 279.1 418.3 280.7 417.5C282.3 416.7 281.9 411.5 281.9 411.5C283.4 410.5 284.3 408.8 284.3 407C284.3 403.9 285.8 371.6 285.8 371.6L277.7 371Z" fill="#6A90FF"/>
<path d="M280.4 418.1C280.2 418.1 280.1 418.1 279.9 418C279.1 417.6 279 416.3 278.9 414.3C278.9 413.6 278.8 413 278.7 412.3C278.6 411.8 278.4 411.3 278.1 410.8C277.8 410.4 277.5 409.9 277.3 409.4C276.4 407.7 277.1 377.1 277.3 370.9V370.4L286.4 371V371.5C286.4 371.8 284.9 403.8 284.9 406.9C284.9 408.8 284 410.6 282.5 411.7C282.6 413.1 282.6 417 281 417.9C280.8 418 280.6 418.1 280.4 418.1ZM278.2 371.5C277.9 386 277.6 407.6 278.2 409C278.4 409.4 278.7 409.8 278.9 410.2C279.3 410.7 279.6 411.3 279.7 412C279.8 412.7 279.9 413.5 279.9 414.2C279.9 415.1 280 416.9 280.4 417.1H280.5C281.4 416.6 281.6 413.6 281.5 411.6V411.3L281.8 411.1C283.2 410.2 284 408.6 284 407C284 404.1 285.2 376.3 285.4 372.1L278.2 371.5Z" fill="#6A90FF"/>
<path d="M266.9 370.701C266.9 370.701 266 356.701 266.9 355.301C267.8 353.901 273 346.101 283.4 348.301C293.8 350.501 295.5 357.701 295.5 359.301V372.301L266.9 370.701Z" fill="#0C41E2"/>
<path d="M276.9 357V336.9C276.9 336.9 269.1 328.5 274.7 321.3C280.3 314.1 293.7 318.5 290.9 327.7C288.1 336.9 285.9 337.3 285.9 337.3L287.6 358.6L276.9 357Z" fill="#6A90FF"/>
<path d="M287.9 359.101L276.5 357.3V337.001C275.6 336.001 269 328.001 274.3 321.001C277.6 316.701 283.3 316.501 287.1 318.401C290.6 320.001 292.4 324.101 291.1 327.701C288.8 335.201 286.9 337.001 286.1 337.501L287.9 359.101ZM277.3 356.701L287.1 358.201L285.4 337.001L285.7 336.901C285.7 336.901 287.8 336.201 290.4 327.501C291.6 324.201 290 320.501 286.7 319.001C283.2 317.201 277.9 317.401 274.8 321.401C269.5 328.301 276.9 336.501 277 336.501L277.1 336.601L277.3 356.701Z" fill="#6A90FF"/>
<g opacity="0.4">
<path d="M269.8 400.9H294.2V427C294.2 430 291.7 432.5 288.7 432.5H275.3C272.3 432.5 269.8 430 269.8 427V400.9Z" fill="#6A90FF"/>
<path d="M288.6 433H275.2C272 433 269.3 430.4 269.3 427.1V400.5H294.4V427C294.5 430.3 291.9 433 288.6 433ZM270.1 401.4V427.2C270.1 430 272.4 432.3 275.2 432.3H288.6C291.4 432.3 293.7 430 293.7 427.2V401.4H270.1Z" fill="#6A90FF"/>
</g>
<path d="M437.8 286.2C438.7 278.2 439.5 267.8 432.7 262C429.2 259 424.4 258 419.9 257.5C415.4 257 410.6 257.3 406.2 255.8C403.7 255.1 401.6 253.4 400.5 251C399.7 248.9 399.3 246.6 399.4 244.3C399.4 240.3 400.7 236.4 403.3 233.3C404.5 232 406.1 231 407.8 230.5C408.4 230.3 408.2 230.6 407.9 230.4C408.3 230.6 408.6 230.7 409 231C409.9 231.7 410.3 232.7 410.2 233.8C410.1 234.9 409.6 235.8 408.8 236.5C407.9 237.3 407.4 237.5 406.5 237.2C404.3 236.4 402.3 235 400.7 233.3C391.8 224.1 393.7 210.4 396.1 199C396.2 198.3 391.3 197.6 391.1 198.8C388.7 210.2 386.9 223.7 395.5 233C399.3 237.2 405.5 239.9 411.2 238.3C413.3 237.7 415.4 235.9 415.3 233.5C415.2 230.9 412.5 229.8 410.4 229.4C405.5 228.5 400.5 229.9 397.6 234.1C395.1 237.8 394.1 242.4 394.7 246.8C395 249.4 395.9 252.2 398 254C400.1 255.6 402.7 256.7 405.3 257.2C410.5 258.4 415.8 258 421.1 259C426.6 259.9 431.1 263.9 432.6 269.3C434.2 274.7 433.7 280.5 433.1 286C432.7 286.8 437.6 287.2 437.8 286.2Z" fill="#6A90FF"/>
<path d="M440.4 253.3C440.9 253.8 441.4 254.3 441.8 254.8C442.1 255.2 442.4 255.7 442.7 256.1C443 256.6 443.2 257 443.4 257.5C443.6 258.1 443.8 258.7 444 259.3C444.8 262.2 444.8 265.2 444.1 268.1C443.9 269 444.8 270.3 445.3 271C445.4 271.2 446.7 272.8 446.9 272.1C448.7 264.1 445.3 255.4 439.5 249.7C439.4 249.6 439 249.2 438.7 249.3C438.4 249.4 438.6 250 438.7 250.2C439 251.4 439.6 252.4 440.4 253.3Z" fill="#6A90FF"/>
<path d="M288.6 199.8C294.9 197.9 298.5 191.1 296.6 184.8V184.7L267.3 90.2998L244.3 97.3998L273.6 191.8C275.5 198.2 282.2 201.8 288.6 199.8Z" fill="#EDF1FE"/>
<path d="M288.7 201.3C296.2 199 301.1 191.2 298.8 183.5C298.5 182.5 298.2 181.4 297.8 180.4L291.5 160.1L282.3 130.6L273.8 103L270.9 93.6996C270.5 92.1996 270.1 90.6996 269.5 89.1996C269.5 89.0996 269.5 89.0996 269.4 88.9996C269.2 88.1996 267.6 88.4996 267.1 88.6996L247 94.9996L244.1 95.8996C243.1 96.1996 241.6 97.2996 242 98.5996L245.5 109.9L253.6 136.1L262.8 165.9L269.7 188.1C270.2 189.7 270.7 191.2 271.2 192.8C272.8 198 277.4 201.6 282.8 202C284.8 202.1 286.8 201.9 288.7 201.3C289.6 201 291 200 290.9 199C290.8 198 289.3 198.1 288.5 198.3C282.8 200 277.3 195.8 275.6 190.6C275.2 189.3 274.8 187.9 274.4 186.6L267.9 165.6L258.8 136.4L250.6 109.8L247.8 100.8C247.4 99.3996 247 97.7996 246.5 96.4996C246.5 96.3996 246.5 96.3996 246.4 96.2996L244.3 99.0996L264.4 92.8996L267.3 91.9996L265 91.5996L268.4 102.5L276.3 128L285.4 157.4L292.4 180L294.1 185.3C295.3 189.1 294.8 193.3 291.9 196.3C290.9 197.2 289.8 197.9 288.5 198.3C287.6 198.6 286.2 199.5 286.3 200.6C286.4 201.7 288 201.5 288.7 201.3Z" fill="#6A90FF"/>
<path d="M267.8 94.7995L238.7 104.1C237.9 104.3 237 104.9 237.8 105.7C238.6 106.5 240.3 106.4 241.2 106.1L270.3 96.7995C271.1 96.5995 272 95.9995 271.2 95.1995C270.4 94.3995 268.8 94.4995 267.8 94.7995Z" fill="#6A90FF"/>
<path d="M286.7 194.9C283.6 195.9 280.2 194.1 279.3 191L264.4 143L275.7 139.5L290.6 187.5C291.5 190.6 289.8 193.9 286.7 194.9Z" fill="#6A90FF"/>
<path d="M284.9 195.699C282.1 195.699 279.6 193.899 278.8 191.199L263.8 142.699L276 138.899L291 187.399C292.1 190.799 290.2 194.399 286.8 195.399C286.2 195.599 285.5 195.699 284.9 195.699ZM265 143.299L279.8 190.799C280.7 193.699 283.7 195.299 286.6 194.399C289.5 193.499 291.1 190.499 290.2 187.599L275.4 140.099L265 143.299Z" fill="#6A90FF"/>
<path d="M274.5 194.8C266.3 204.5 244.8 211.5 244.8 211.5C244.8 211.5 237.6 183.9 238.4 180.6C240.7 170.7 252.7 138.9 259.4 138.6C271.9 138.1 260.9 158.2 260.9 158.2" fill="#EDF1FE"/>
<path d="M272 194.099C268.4 198.299 263.4 201.399 258.5 203.899C254.2 206.199 249.7 208.099 245.1 209.799C244.2 210.099 243.3 210.499 242.4 210.799L247.1 212.199C245.6 206.299 244.1 200.399 242.8 194.399C242 190.899 241.2 187.399 240.8 183.799C240.5 181.199 241.3 178.899 242.1 176.399C244.8 167.499 248.3 158.899 252.5 150.599C254.1 147.199 256.1 144.099 258.5 141.299C259.2 140.399 260.1 139.799 261.2 139.399C261.5 139.299 261.8 139.299 262.1 139.299C262.3 139.299 262.6 139.399 262.8 139.399C262.1 139.399 259.9 138.199 260.7 138.799C261.3 139.199 261.8 139.699 262.1 140.299C263.8 143.399 262.4 147.799 261.3 150.799C260.5 153.199 259.5 155.399 258.3 157.599C258.3 157.599 262.8 159.599 263.1 158.899C264.1 156.999 265 154.999 265.8 152.899C266.9 149.799 268.2 145.899 267.3 142.599C266.9 141.199 265.9 140.099 264.5 139.499C262.1 138.299 259.4 137.799 256.7 137.899C254.1 138.199 252.1 141.499 250.8 143.499C248.3 147.499 246.2 151.599 244.4 155.899C242.4 160.499 240.5 165.199 238.8 169.999C238.1 171.999 237.5 173.999 236.8 175.999C236.3 177.399 235.9 178.799 235.7 180.199C235.6 181.299 235.7 182.399 236 183.599C236.3 185.399 236.6 187.199 237 188.899C238.5 196.099 240 203.399 242.1 210.399C242.1 210.499 242.2 210.699 242.2 210.799C242.3 211.199 243.9 211.599 244.2 211.599C244.9 211.799 246.2 212.399 246.9 212.099C254.9 209.599 262.6 205.999 269.6 201.299C272.2 199.599 274.5 197.599 276.6 195.299C275.9 194.899 275.1 194.599 274.3 194.399C274.1 194.499 272.3 193.799 272 194.099Z" fill="#0C41E2"/>
<path d="M280.1 121.799C280.1 121.799 283.2 111.199 291.1 111.399C299 111.599 287.5 136.599 287.5 136.599C287.5 136.599 302.8 128.199 296.3 147.499C296.3 147.499 309.2 147.899 295 173.299L291.1 162.899C291.1 162.899 286.9 168.499 280.7 166.799C274.5 165.099 285.7 153.799 285.7 153.799C285.7 153.799 269.4 157.299 285.1 137.299" fill="#EDF1FE"/>
<path d="M282.2 122.8C282.2 122.6 282.3 122.4 282.4 122.2C282.5 122 282.6 121.7 282.7 121.5C282.5 122.1 282.9 121.1 282.9 121C283.5 119.6 284.4 118.2 285.3 117C286.4 115.6 287.8 114.6 289.5 114C290.2 113.8 291 113.8 291.7 113.8C292.1 113.8 291.3 113.5 291.6 113.8C291.7 113.8 291.7 113.9 291.8 113.9C291.4 113.8 291.4 113.6 291.7 113.8C292 114 291.3 113.3 291.7 113.8C291.9 114.1 291.6 113.5 291.6 113.5C291.6 113.5 291.7 113.7 291.8 113.8C291.9 114.3 291.7 113.2 291.8 113.7C291.8 113.8 291.9 113.9 291.9 114C291.9 114.1 291.9 114.2 292 114.4C292.1 114.9 292 113.8 292 114.4C292 114.7 292 115.1 292 115.4C292 115.7 292 116.2 291.9 116.5C291.9 116.6 291.9 116.8 291.9 116.9C291.8 117.6 292 116.4 291.9 117.1C291.8 118 291.6 118.8 291.4 119.7C290.6 123.1 289.5 126.4 288.2 129.6L287.9 130.4C287.7 130.8 287.6 131.2 287.4 131.6C287.2 132.2 286.9 132.7 286.7 133.3C286.5 133.9 286.2 134.4 286 135C285.2 136.6 286.8 140 288.9 138.8C289.3 138.6 289.8 138.4 290.2 138.2C290.6 138 291.1 137.8 291.6 137.7C291.8 137.6 292.6 137.4 292 137.6L292.9 137.4C293.5 137.3 294 137.2 294.6 137.2C295.1 137.2 294.3 137.1 294.6 137.2H295C295.1 137.2 295.3 137.3 295.4 137.3C295.8 137.3 295.1 137.2 295.4 137.3C295.5 137.4 295.6 137.4 295.8 137.5C296.2 137.6 295.7 137.4 295.7 137.4C295.7 137.4 296 137.6 296 137.7C296 137.8 295.6 137.3 295.8 137.5C295.9 137.6 295.9 137.6 296 137.7C296.2 138.2 295.8 137.2 296 137.6C296 137.7 296.1 137.9 296.2 138C296.4 138.3 296.1 137.5 296.2 138C296.2 138.2 296.3 138.4 296.3 138.6C296.4 139 296.3 138.6 296.3 138.5C296.3 138.6 296.3 138.8 296.3 138.9C296.3 139.2 296.3 139.5 296.3 139.8C296.3 140.3 296.2 140.9 296.1 141.4C295.8 143.2 295.3 144.9 294.7 146.6C294.3 147.8 295.3 149.9 296.7 150C297.1 150 297.4 150.2 297.8 150.2C298.2 150.2 297.3 150 297.6 150.1C297.7 150.1 297.8 150.2 297.9 150.2C298.1 150.3 298.3 150.4 298.5 150.5C299 150.7 298.1 150.1 298.6 150.6C298.8 150.7 299 151 299.2 151.1C298.5 150.6 299.1 151.1 299.3 151.3C299.5 151.5 299.5 151.8 299.3 151.2C299.4 151.4 299.5 151.5 299.5 151.7C299.6 151.8 299.6 152 299.7 152.1C300 152.7 299.6 151.7 299.7 152.1C299.8 152.5 299.9 152.9 300 153.3C300 153.4 300 153.5 300 153.6C300 153.9 300 153.1 300 153.5C300 153.9 300 154 300 154.2C300 154.8 300 155.3 299.9 155.8C299.9 155.9 299.9 156.1 299.9 156.2C299.9 156.1 300 155.8 299.9 156.3C299.9 156.6 299.8 156.8 299.8 157.1C299.7 157.8 299.5 158.5 299.3 159.2C297.9 163.6 296.1 167.9 293.7 171.9L297.4 172.5L293.5 162.1C293.2 161 292 160.4 290.9 160.7C290.5 160.8 290.1 161.1 289.8 161.5C290 161.2 290.2 161 289.9 161.4C289.6 161.8 289.5 161.9 289.3 162.1C288.7 162.7 288 163.3 287.2 163.7C286.2 164.3 285 164.7 283.8 164.8C283.1 164.9 282.5 164.8 281.8 164.7C281.6 164.7 281.4 164.6 281.3 164.6H281.4C281 164.5 281.1 164.3 281.3 164.6C281.2 164.4 281.4 164.8 281.4 164.8C281.5 164.9 281.5 165 281.5 165.2C281.4 164.7 281.5 165.4 281.5 165.3C281.5 165.2 281.6 164.7 281.5 165.2C281.6 164.8 281.7 164.4 281.8 164.1C281.8 164 281.7 164.3 281.9 163.9C282.1 163.5 282.1 163.5 282.2 163.2C283.1 161.6 284.1 160.1 285.4 158.7C286.2 157.8 286.9 156.9 287.7 156.1C289.1 154.7 287.8 151.3 285.7 151.7C285.3 151.8 284.8 151.9 284.3 151.9C283.9 151.9 283.4 151.9 283 152C283.6 152 283 152 282.7 152C282.4 152 282.2 151.9 281.9 151.9C281.5 151.8 281.3 151.7 281.7 151.9C281.5 151.8 281.2 151.7 281 151.6C281.6 151.8 281.1 151.6 280.9 151.4C281.1 151.5 281.3 151.9 281 151.5C280.7 151.1 281.3 152 281.1 151.7C281.1 151.6 280.8 151.1 281 151.6C281.2 152.1 281 151.5 281 151.5C281 151.3 281 151.1 281 150.9C281 150.7 281.1 150.3 281 150.8C281 150.6 281 150.4 281.1 150.2C281.2 149.7 281.4 149.3 281.5 148.8C282.6 145.7 285.3 142.2 287.4 139.4C288.2 138.4 287.5 136.7 286.6 136C285.8 135.3 284.6 135.3 283.9 136.1C283.8 136.2 283.8 136.3 283.7 136.4C281.3 139.3 279.3 142.6 277.7 146C276.7 148 276.4 150.3 276.9 152.5C277.9 156 281.3 157.2 284.7 157.1C285.4 157.1 286 157 286.7 156.9L284.7 152.5C282 155 279.8 158 278.1 161.4C277.1 163.7 276.7 166.4 278.6 168.4C280.9 170.7 285.1 170.4 287.9 169.3C290.1 168.4 292.1 166.9 293.5 165L289.8 164.4L293.7 174.8C294.2 176.3 296.5 177 297.4 175.4C299.8 171.3 301.7 166.9 303.2 162.4C304.1 159.7 304.5 156.9 304.3 154C304 150.7 302.2 147.4 299 146.1C298.3 145.8 297.7 145.6 297 145.6L299 149C300.4 144.7 302.5 137.5 298.1 134.1C295.5 132.1 292.1 132.8 289.2 133.9C288.5 134.2 287.8 134.5 287.1 134.8L290 138.6C292.6 133.2 294.6 127.6 296 121.8C296.7 118.6 297.4 114.4 295.3 111.5C292.6 107.8 287 109.8 284.2 112.3C281.6 114.8 279.7 117.9 278.7 121.4C277.3 123.4 281.3 125.8 282.2 122.8Z" fill="#0C41E2"/>
<path d="M298.7 148.099C295.2 145.999 291.4 147.299 288.2 149.299C285.3 151.099 282.8 153.499 281 156.299C280 157.899 283.5 161.399 284.6 159.599C284.7 159.399 284.9 159.099 285.1 158.899L285.2 158.799L285.5 158.399C286 157.799 286.5 157.299 287 156.799C288.2 155.599 289.5 154.499 290.9 153.599C292.2 152.699 293.6 151.999 295.1 151.599C295.7 151.399 296.4 151.299 297 151.399L297.6 151.499C297.7 151.499 298.1 151.599 297.7 151.499L298.1 151.699L298.4 151.799C298.1 151.699 298.1 151.699 298.3 151.799C299.1 152.199 300.3 152.399 300.4 151.299C300.4 149.899 299.8 148.699 298.7 148.099Z" fill="#0C41E2"/>
<path d="M87.7998 401L106.6 291.8L216.7 264L247.2 389.4" fill="#EDF1FE"/>
<path d="M90.1998 401.299L92.0998 390.399L96.5998 364.299L102 332.699L106.7 305.399L108.3 296.399C108.7 294.999 108.9 293.599 109 292.099C109 291.999 109 291.999 109 291.899L107.6 292.899L118.5 290.099L144.8 283.499L176.7 275.499L204.2 268.599L213.3 266.299C214.7 265.899 216.2 265.699 217.6 265.199H217.8L214.2 263.999L217.2 276.499L224.5 306.499L233.3 342.699L241 373.999L243.5 384.399C243.9 385.999 244.1 387.699 244.7 389.299C244.7 389.399 244.7 389.399 244.8 389.499C245.2 391.099 250.1 391.299 249.7 389.399L246.7 376.899L239.4 346.899L230.6 310.699L223 279.399L220.5 268.999C220.1 267.399 219.9 265.699 219.3 264.099C219.3 263.999 219.3 263.999 219.2 263.899C218.9 262.699 216.5 262.499 215.6 262.699L204.7 265.499L178.4 272.099L146.5 280.099L119 287.099C114.5 288.199 110.1 289.299 105.6 290.499H105.4C104.9 290.599 104.2 290.799 104 291.499L102.1 302.399L97.5998 328.499L92.2998 359.999L87.5998 387.299L85.9998 396.299C85.7998 397.699 85.3998 399.199 85.2998 400.599V400.799C84.9998 402.499 89.8998 403.099 90.1998 401.299Z" fill="#0C41E2"/>
<path d="M135.2 115.899C135.2 115.899 151.2 123.099 162.5 117.599C173.8 112.099 193.9 97.7995 201.5 107.999C209.1 118.199 195.8 129.199 185.2 131.799C185.2 131.799 201.5 160.499 187.7 176.699C173.9 192.899 163.4 191.799 167.8 204.499C167.8 204.499 155.6 235.499 142.8 213.599C140.8 210.199 111.8 169.999 132.4 143.399C132.3 143.299 144.5 129.199 135.2 115.899Z" fill="#EDF1FE"/>
<path d="M133.9 117.5C138.7 119.6 143.8 120.9 149 121.4C153.1 121.9 157.3 121.5 161.3 120.2C164.5 119.1 167.5 117.2 170.5 115.6C176.8 112.1 183.4 108.2 190.4 106.7C191.7 106.4 193.1 106.2 194.5 106.3H195C194.9 106.3 194.6 106.2 195.1 106.3C195.4 106.3 195.7 106.4 196 106.5L196.4 106.6C196 106.5 196.4 106.6 196.5 106.6C196.8 106.7 197.2 106.9 197.5 107.1C197.2 106.9 197.9 107.4 198 107.4C198.3 107.6 198.5 107.8 198.7 108C199.2 108.6 199.7 109.2 200.1 109.9C200.9 111.3 201.3 112.9 201.2 114.5C201 118.3 198.4 121.6 195.6 123.9C192.4 126.7 188.6 128.7 184.5 129.8C183.1 130.2 182.2 131.2 183 132.6C183.3 133.1 182.8 132.2 183.1 132.7C183.4 133.2 183.7 133.8 183.9 134.3C184.8 136.1 185.6 138 186.4 139.9C188.6 145.2 190 150.9 190.6 156.6C191.1 162.9 190.2 169.5 186.3 174.6C181.7 180.7 175.5 185 169.7 189.9C167.7 191.6 165.6 193.5 164.7 196.1C163.7 199 164.3 202.1 165.3 204.9V203.9C164.5 205.9 163.5 207.9 162.5 209.7C162.2 210.3 161.7 211 161.2 211.8C160.7 212.6 160.1 213.5 159.4 214.3C158.8 215.1 158.1 215.8 157.5 216.5L157.1 216.9L156.7 217.2C156.3 217.5 155.9 217.8 155.5 218.1L155 218.4L154.7 218.6C155.1 218.4 154.8 218.6 154.7 218.6C154.3 218.8 153.9 219 153.5 219.1C153.3 219.2 153.7 219 153.7 219L153.4 219.1L152.8 219.2C152.2 219.3 153.1 219.2 152.7 219.2H152C151.6 219.2 152.4 219.3 151.9 219.2C151.7 219.1 151.5 219.1 151.3 219.1C151.9 219.2 151.1 219 151 219C150.9 219 150.5 218.8 150.3 218.6C150.6 218.8 150.1 218.5 150 218.4C149.9 218.3 149.6 218.1 149.4 217.9C149 217.6 148.6 217.2 148.2 216.8C146.2 214.3 144.4 211.7 142.8 208.9C137.6 200.9 133.5 192.2 130.5 183.1C127 171.8 126 159.1 131.8 148.4C133.7 145 136.3 142.1 138.2 138.7C141.2 133 142.4 126.3 140.3 120.2C139.6 118.3 138.7 116.6 137.6 114.9C136.3 113 131.6 114.3 133.2 116.7C136.3 121.2 137.2 126.9 135.6 132.2C134.6 135.6 133.1 138.7 130.9 141.5C125.5 148.2 122.5 156.7 122.7 165.3C122.5 181.7 130.2 197.7 138.8 211.3C142 216.3 145.4 222.7 152.1 223.1C158.8 223.5 163.8 217.1 166.8 211.8C168 209.8 169.1 207.7 170 205.5C170.1 205.3 170.2 205.1 170.2 204.9C170.3 204.1 170.2 203.4 169.9 202.7C169.6 201.9 169.5 201 169.4 200.2C169.4 199.8 169.4 199.5 169.4 199.1C169.4 198.9 169.4 198.7 169.4 198.5C169.4 198.3 169.5 197.7 169.5 198C169.8 196.6 170.5 195.4 171.5 194.4C172.7 193.1 174 192 175.4 191C180 187.5 184.4 183.6 188.4 179.4C192 175.7 194.4 171 195.4 166C196.2 161.4 196.1 156.7 195.2 152.1C193.9 145.2 191.6 138.5 188.4 132.3C188.1 131.8 187.9 131.3 187.6 130.9L186.1 133.7C193.7 131.7 202.2 126.8 205.5 119.2C208.1 113.2 205.3 106.2 199.3 103.6C198.5 103.2 197.6 103 196.7 102.8C189.3 101.6 181.7 105.3 175.3 108.6C171.9 110.4 168.6 112.3 165.2 114.1C161.8 115.9 158.8 117.5 155 117.8C150.8 118.1 146.5 117.6 142.4 116.4C140.5 115.9 138.6 115.2 136.7 114.4C135.5 113.9 134.2 114.1 133.3 115C132.7 115.7 132.8 116.8 133.5 117.4C133.5 117.3 133.7 117.4 133.9 117.5Z" fill="#0C41E2"/>
<path d="M121.3 194.4C121.3 194.4 110.4 208.4 102.5 202.7C94.5998 197 104.8 192.1 104.8 192.1C104.8 192.1 83.1998 184.7 94.9998 171.3C94.9998 171.3 74.6998 168.7 75.6998 151C76.6998 133.3 100.1 126.4 100.1 126.4C100.1 126.4 87.0998 110.3 102.8 101.6C118.5 92.8996 122.7 105.4 122.7 105.4C122.7 105.4 132.7 99.6996 137.3 105.2C141.9 110.7 136.8 118.1 136.8 118.1C136.8 118.1 146.6 136.3 132.4 143.3L136 172.7C136 172.7 145.9 176.9 147.1 188C148.3 199.1 128.7 205.4 121.3 194.4Z" fill="#0C41E2"/>
<path d="M119 194C116.6 197.1 113.6 199.8 110.3 201.8C109.2 202.5 108 203 106.7 203.2C106.4 203.3 105.3 203.3 106.2 203.3H106.1C105.8 203.2 105.5 203 105.2 202.9C102.8 201.4 101.1 198.7 102.9 196C103.6 195 104.5 194.2 105.5 193.5C105.9 193.2 106.3 193 106.7 192.8C106.9 192.7 107.3 192.5 107 192.6C107.6 192.3 107.2 191.9 106.7 191.7C104.5 191 102.5 190 100.6 188.7C97.3999 186.6 94.1999 183.6 93.9999 179.6C93.8999 176.6 95.4999 174 97.3999 171.8C97.9999 171.1 95.2999 170.7 95.0999 170.7C94.8999 170.7 95.7999 170.8 95.5999 170.8L95.1999 170.7L94.4999 170.6L94.0999 170.5C94.5999 170.6 94.3999 170.6 93.9999 170.5C93.2999 170.3 92.1999 170 91.8999 169.9L91.3999 169.7L90.7999 169.5C90.2999 169.3 89.7999 169.1 89.2999 168.9C84.7999 167.1 81.1999 163.5 79.2999 159.1C76.9999 153.4 78.1999 146.5 81.4999 141.4C84.5999 137 88.6999 133.4 93.4999 130.9C96.1999 129.3 99.0999 128.1 102.2 127.1C102.4 127 102.7 126.8 102.5 126.6C99.0999 122.4 96.5999 116.4 97.7999 111C98.9999 105.6 103.8 102.4 108.6 100.5C109.7 100.1 110.8 99.6997 112 99.4997C112.5 99.3997 112.9 99.3997 113.4 99.2997C114.2 99.2997 113 99.2997 113.8 99.2997C114 99.2997 114.1 99.2997 113.9 99.2997C114.5 99.3997 114 99.2997 114.6 99.4997C114.9 99.5997 115.2 99.6997 115.4 99.7997C116 100.1 116.5 100.5 117 100.9C118 101.7 118.8 102.7 119.4 103.8C119.6 104.1 119.8 104.5 120 104.9C120.1 105 120.2 105.5 120.1 105.2C120.5 106.5 124 106.4 125 105.9C125.3 105.7 125.4 105.7 126 105.4C126.9 105 127.9 104.6 128.8 104.3C129.9 103.9 131 103.7 132.1 103.6C132.1 103.6 132.8 103.6 132.5 103.6C132.2 103.6 132.8 103.7 132.6 103.6C133.1 103.8 133.6 104.1 134.1 104.4C138.1 107.7 136.8 114 134.3 117.7C134.2 117.8 134.2 117.9 134.3 118C137.2 123.4 138.9 131 136.2 136.8C134.9 139.4 132.8 141.5 130.2 142.8C130 142.8 129.9 142.9 129.8 143.1L133.2 171C133.2 171.5 133.3 172 133.4 172.5C133.5 172.9 133.8 173 134.1 173.2C134.5 173.4 134.3 173.3 134.1 173.2C136.1 174.2 138 175.6 139.5 177.3C144.1 182.2 147 190.7 141.3 195.9C138.7 198.2 135.5 199.5 132 199.6C131.4 199.6 130.8 199.5 130.2 199.4C129.5 199.2 128.8 199 128.2 198.6C126.4 197.7 124.9 196.3 123.8 194.6C123.3 193.8 121.6 193.8 120.8 193.8C120.5 193.8 118.5 193.8 119 194.5C124.2 202 136 202.8 143.5 198.6C146.7 196.8 149.4 193.7 149.6 189.9C149.8 185.4 147.5 180.7 144.5 177.5C142.6 175.4 140.3 173.7 137.8 172.6L138.5 173.2L135.4 147.4L135 143.8L134.6 144.1C139.2 141.9 142.3 137.4 142.6 132.4C142.7 128.4 142 124.5 140.4 120.8C140.1 120 139.7 119.1 139.3 118.3V118.7C141.7 115.2 142.9 110.3 140.7 106.5C137.6 101.3 130 101.6 125 103.2C123.5 103.7 122 104.3 120.6 105.1L125.5 105.8C123.4 99.2997 115.8 97.1997 109.7 97.9997C106.6 98.4997 103.7 99.4997 101 101.1C98.3999 102.4 96.1999 104.4 94.6999 106.8C92.2999 110.5 92.5999 115 93.9999 119C94.8999 121.6 96.2999 124.1 97.9999 126.3L98.2999 125.8C95.5999 126.7 92.9999 127.8 90.4999 129.1C85.5999 131.7 80.8999 135 77.5999 139.6C73.8999 144.8 72.3999 151.5 74.3999 157.6C76.0999 162.8 80.1999 166.5 84.9999 168.8C88.1999 170.4 91.6999 171.5 95.2999 172L92.9999 170.9C91.1999 172.9 89.5999 175.4 89.3999 178.1C89.1999 180.2 89.7999 182.3 90.9999 184C93.2999 187.4 96.9999 189.6 100.6 191.3C101.5 191.7 102.4 192.1 103.3 192.4L103 191.5C101.3 192.3 99.6999 193.5 98.4999 195C96.2999 198 97.8999 200.9 100.6 202.9C103.7 205.1 108.1 205.4 111.7 204.3C114.7 203.2 117.4 201.5 119.7 199.3C121.2 197.9 122.6 196.5 123.9 194.9C124.4 194.3 122.6 193.9 122.3 193.9C121.5 193.7 119.5 193.3 119 194Z" fill="#0C41E2"/>
<path d="M136.8 144.8C136.8 144.8 126.4 135.2 120.2 143.5C114 151.8 130 179.1 143.6 167.4" fill="#EDF1FE"/>
<path d="M138.3 143.399C135.4 140.699 131.7 138.399 127.7 137.899C122.4 137.099 117.4 140.699 116.6 145.999C116 150.599 117.6 155.399 119.7 159.499C122 163.799 125.4 167.999 129.7 170.399C132.1 171.799 134.8 172.499 137.5 172.499C140.3 172.299 143 171.099 145.1 169.199C147.2 167.499 143.8 163.799 141.7 165.499C141 166.099 140.1 166.699 139.3 167.099C138.5 167.499 137.7 167.799 136.8 167.799C136.5 167.799 135.8 167.899 135.7 167.899C135.8 167.899 135.3 167.899 135.2 167.899C135.1 167.899 134.7 167.799 134.5 167.799L133.9 167.699C133.6 167.599 133.9 167.699 134 167.699L133.6 167.599C133.2 167.499 132.7 167.299 132.3 167.099C132.1 166.999 131.8 166.899 131.6 166.799C131.2 166.599 131.8 166.899 131.4 166.699C131 166.499 130.5 166.099 130.1 165.799C129.7 165.499 129.4 165.199 129 164.999L128.7 164.799C129 165.099 128.4 164.499 128.7 164.799L128.1 164.199C127.4 163.499 126.7 162.699 126 161.899L125.5 161.199L125.3 160.899C125 160.399 124.7 159.899 124.4 159.499C123.4 157.899 122.5 156.099 121.9 154.299C121.6 153.399 121.3 152.399 121.1 151.399C121 150.999 121.1 151.599 121.1 151.199C121.1 150.999 121 150.799 121 150.599C120.9 150.099 120.9 149.699 120.9 149.199C120.9 148.799 120.9 148.399 120.9 148.099C120.9 148.599 120.9 147.999 120.9 147.899C120.9 147.799 121 147.499 121 147.299L121.1 146.799C121.1 146.699 121.3 146.199 121.2 146.399C121.1 146.599 121.3 146.199 121.3 146.099C121.3 145.999 121.5 145.799 121.6 145.599C122.7 143.799 124.6 142.699 126.7 142.599C127.7 142.599 128.7 142.799 129.7 143.199C130.6 143.499 131.6 143.999 132.4 144.499C133.2 144.999 133.9 145.499 134.6 146.099C134.8 146.299 135 146.499 135.2 146.599C135.6 146.899 134.7 146.099 135 146.399C135.9 147.199 137.2 147.799 138.2 146.899C139.2 145.699 139.2 144.299 138.3 143.399Z" fill="#0C41E2"/>
<path d="M170.8 147.999C172.8 149.899 175.2 151.399 177.8 152.399C182.7 154.399 188.3 153.599 192.6 150.399C194.5 148.999 191.7 146.899 190.2 148.099C188.4 149.599 186.3 150.399 184 150.599C182.2 150.699 180.4 150.299 178.7 149.599C177.4 148.999 176.1 148.299 175 147.399C174.9 147.299 175.2 147.599 174.9 147.299L174.6 146.999C174.4 146.899 174.3 146.799 174.2 146.599L173.8 146.199C173.1 145.499 172 145.399 171.2 145.899C170.6 146.299 170.4 146.999 170.8 147.599C170.7 147.799 170.7 147.899 170.8 147.999Z" fill="#0C41E2"/>
<path d="M152.8 129.5C152.8 129.5 155.3 128.7 155.9 131.2C156.5 133.7 153.4 134.4 152.3 132.4C151.6 131.6 151.8 130.3 152.6 129.7C152.6 129.6 152.7 129.5 152.8 129.5Z" fill="#0C41E2"/>
<path d="M68.3999 211.9C82.4999 203.7 98.2999 198.9 114.6 198C141.5 196.6 166.6 212.2 166.6 212.2C166.6 212.2 177.7 147.5 233 148.4L195.3 237.6L150.5 250L68.3999 211.9Z" fill="#EDF1FE"/>
<path d="M70.1999 213.599C72.8999 211.899 75.6999 210.499 78.4999 209.199C85.5999 205.899 93.0999 203.399 100.8 201.799C110.6 199.599 120.6 199.099 130.5 200.499C139.1 201.799 147.4 204.299 155.4 207.699C158.3 208.999 161.2 210.299 164 211.799L164.8 212.199C164.9 212.299 165.6 212.699 165.1 212.399L166.1 212.999L166.9 213.499C167.2 213.699 168.2 214.299 168.3 213.699C169.7 206.199 172.1 198.899 175.3 191.999C181.5 178.199 190.9 165.399 204.1 157.699C213.4 152.499 223.9 149.899 234.5 150.199L230.9 146.799L225.6 159.299L213.7 187.499L201 217.399L193.5 235.099C193.4 235.199 192.9 236.199 193.3 235.899C192.7 236.199 192 236.399 191.3 236.499L179.3 239.799L150.9 247.699C150.6 247.799 148.9 247.999 148.7 248.299C148.8 248.199 149.6 248.699 149.2 248.399C149 248.299 148.8 248.199 148.6 248.099L142.1 245.099L116.2 233.099L86.2999 219.199L68.0999 210.799L67.1999 210.399C66.3999 209.999 66.0999 210.399 66.4999 211.199C67.1999 212.199 68.0999 212.999 69.1999 213.499L82.2999 219.599L111 232.899L139.3 245.999L148.3 250.199L150.7 251.299C151.1 251.599 151.6 251.699 152.1 251.799C152.9 251.699 153.6 251.499 154.3 251.199L159.5 249.799L174.9 245.499L189.9 241.399L194.9 239.999C195.5 239.899 196.2 239.699 196.8 239.499C197.1 239.299 197.2 238.999 197.3 238.599L198.4 236.099L202.2 227.099L214.1 198.799L226.8 168.699L234.3 150.999L234.7 150.099C235.2 148.899 232.1 146.699 231.1 146.699C221.6 146.499 212.1 148.499 203.5 152.699C196.2 156.399 189.7 161.599 184.4 167.899C179.6 173.599 175.6 179.899 172.5 186.599C170 191.799 168 197.199 166.4 202.699C165.9 204.499 165.4 206.299 165 208.099C164.7 208.899 164.5 209.799 164.5 210.699V210.799L165.9 210.999C162.7 208.999 159.3 207.299 155.9 205.799C148.2 202.199 140.2 199.599 131.9 197.899C113.5 194.299 94.4999 197.499 77.2999 204.799C73.4999 206.299 69.8999 208.199 66.3999 210.299C65.8999 210.599 69.0999 214.299 70.1999 213.599Z" fill="#6A90FF"/>
<path d="M161.3 220.599L68.3999 211.899L83.3999 335.999L179.2 349.299L183.8 355.699L205.8 347.599L205.2 338.399L256 275.999L232.9 148.399L180.4 214.799L187.9 219.999L162.5 228.099L161.3 220.599Z" fill="#6A90FF"/>
<path d="M160.9 218.199L151.7 217.299L129.5 215.199L102.6 212.699L79.3998 210.499L71.7998 209.799C70.5998 209.699 69.3998 209.499 68.0998 209.499H67.8998C66.5998 209.399 65.9998 210.799 66.0998 211.899L67.5998 224.299L71.1998 253.799L75.4998 289.799L79.1998 320.799C79.7998 325.799 80.1998 330.899 80.9998 335.799C80.9998 335.899 80.9998 335.899 80.9998 335.999C81.1998 337.299 82.2998 338.199 83.5998 338.399L93.1998 339.699L116.1 342.899L143.7 346.699L167.7 349.999L175.6 351.099C176.8 351.299 178.1 351.499 179.4 351.599H179.6L177.5 350.399L182.1 356.799C182.7 357.699 183.7 358.099 184.7 357.899L203.9 350.799L206.6 349.799C207.5 349.399 208 348.499 207.8 347.499L207.2 338.299L207 339.999L215.3 329.899L233.3 307.799L250.9 286.299L256.3 279.699C257.2 278.599 258.4 277.599 258.2 276.099C257.8 272.899 257 269.699 256.4 266.499L252.3 244.099L247.1 215.099L241.7 185.499L237.4 161.499L235.2 149.099L235.1 148.499C234.8 146.799 232.4 145.099 231.1 146.899L213.3 169.399L185 204.999L178.5 213.199C177.5 214.499 178.6 216.199 179.6 216.899L187.1 222.099L186.9 217.799L164.7 224.899L161.5 225.899L164.6 228.199L163.4 220.699C163.3 219.299 162.2 218.299 160.9 218.199C159.8 218.299 159 219.199 159.1 220.199C159.1 220.299 159.1 220.399 159.2 220.599L160.4 228.099C160.6 229.399 162.1 230.799 163.5 230.399L185.7 223.299L188.9 222.299C191.1 221.599 190 218.899 188.7 217.999L181.2 212.799L182.3 216.499L200.1 193.899L228.3 158.199L234.8 149.999L230.8 148.399L233.1 161.099L238.6 191.599L245.3 228.499L251.1 260.399L253 270.899C253.3 272.499 253.5 274.299 253.9 275.899C253.9 275.999 253.9 275.999 253.9 276.099L254.2 274.499L248 282.099L233.6 299.799L217.3 319.799L205.5 333.999C204.8 334.899 204 335.699 203.4 336.599C202.8 337.499 203.1 339.099 203.2 340.199L203.6 346.199L203.7 347.499L204.9 345.199L185.7 352.299L183 353.299L185.6 354.399L182.3 349.999C181.3 348.699 180.6 347.199 178.8 346.999L174.9 346.499L153.8 343.599L124.1 339.499L96.8998 335.699L87.6998 334.399C86.2998 334.199 84.7998 333.899 83.2998 333.799H82.9998L85.5998 336.199L83.9998 323.599L80.3998 294.099L76.0998 258.099L72.2998 227.099L71.0998 216.899C70.8998 215.299 70.8998 213.699 70.4998 212.099C70.4998 211.999 70.4998 211.999 70.4998 211.899L68.6998 214.299L77.8998 215.199L100.1 217.299L127 219.799L150.2 221.999L157.8 222.699C159 222.799 160.2 222.999 161.5 222.999H161.7C163 223.099 163.6 221.699 163.5 220.599C163.2 219.299 162.2 218.299 160.9 218.199Z" fill="#6A90FF"/>
<path d="M185.6 223.899L187.3 235.199L191.4 262.399L196.4 295.199L200.7 323.599C201.4 328.199 202 332.799 202.8 337.399V337.599C203.1 338.699 204 339.499 205.2 339.799C205.8 339.999 207.7 340.199 207.5 338.999L205.8 327.699L201.7 300.499L196.7 267.699L192.4 239.299C191.7 234.699 191.1 230.099 190.3 225.499V225.299C190 224.199 189 223.399 187.9 223.099C187.3 222.999 185.4 222.799 185.6 223.899Z" fill="#EDF1FE"/>
<path d="M160.1 228.7C160 230.2 160.1 231.8 160.4 233.3C160.7 236.5 161.1 239.7 161.5 242.8C162.7 252.6 164.1 262.3 165.5 272.1C167.1 283.5 168.7 295 170.4 306.4C171.8 316.2 173.3 325.9 174.7 335.7C175.2 338.9 175.6 342.1 176.1 345.3L176.5 348.3C176.5 348.8 176.6 349.4 176.7 349.9C176.7 350 176.7 350 176.7 350.1C176.8 350.9 181.6 349.6 181.4 348.3L179.7 336.7C178.3 327.4 176.9 318.1 175.6 308.7C173.9 297.3 172.3 286 170.7 274.6C169.3 264.5 167.8 254.3 166.5 244.1C165.8 238.6 164.9 233.1 164.6 227.5C164.6 227.4 164.6 227.3 164.6 227.2C164.6 227.1 164.6 227.4 164.6 227.1C164.9 226.3 160.3 227.5 160.1 228.7Z" fill="#EDF1FE"/>
<path d="M206.8 240.599C210.8 237.299 213.2 232.399 213.3 227.199C213.3 226.299 213.5 224.599 212.8 223.899C211.8 222.799 209.4 222.899 208.1 222.999C207 222.899 205.9 223.499 205.4 224.499C204.9 225.799 204.5 227.199 204.4 228.599C204.1 231.099 204.5 233.799 206.6 235.399C208.7 236.999 211.9 237.299 214.5 237.199C220 237.099 223.5 232.799 224.4 227.599C224.9 224.399 224.8 221.099 224.1 217.999C223.6 215.199 222.2 212.599 220.1 210.699C219.6 210.299 215.4 209.699 215.2 210.399C213.6 216.799 216.7 225.399 223.4 227.699C225.5 228.499 227.9 228.699 230.1 228.099C231.5 227.599 232.6 226.299 232.8 224.699C233.5 221.899 233.9 217.799 231.2 215.899C230.7 215.499 226.5 214.799 226.3 215.599C225.6 218.799 227.1 222.699 230.2 223.999C231.3 224.399 232.5 224.599 233.7 224.599C234.7 224.699 235.6 224.599 236.5 224.299C238 223.399 238.5 220.499 238.6 218.999C238.7 218.399 233.7 217.999 233.6 218.599C233.5 219.599 233.3 220.599 233 221.499C232.9 221.899 232.7 222.299 232.5 222.699C232.4 222.899 232.3 223.099 232.1 223.299C231.5 223.699 231.5 223.799 232.4 223.699L234.8 223.999C233.3 223.699 232 221.799 231.5 220.499C230.9 219.099 230.8 217.499 231.2 215.999L226.3 215.699C228.5 217.299 228.3 220.499 228 222.899C227.9 224.199 227.5 225.399 226.8 226.499C226.5 226.699 226.3 226.999 226 227.199C225.4 227.399 225.6 227.499 226.6 227.399C227.7 227.599 227.8 227.499 227 227.299C226.3 226.899 225.7 226.499 225.1 225.999C220.6 222.299 218.7 216.299 220.1 210.699L215.2 210.399C218.1 212.799 219.1 216.599 219.4 220.299C219.8 224.399 219.6 228.899 217.3 232.399C216.3 233.899 214.9 235.199 213.2 235.899C212.8 236.099 212.3 236.199 211.9 236.299C211.9 236.099 213.9 236.799 212.5 236.199C211.7 235.899 211 235.399 210.5 234.799C209.3 233.199 208.8 231.199 209.2 229.199C209.3 228.199 209.5 227.299 209.8 226.299C209.9 225.799 210.1 225.399 210.2 224.899C211 223.299 212.1 224.499 208.4 223.799L207.3 223.499C208.4 224.099 208.1 226.599 208.1 227.699C207.8 232.499 205.5 236.999 201.8 240.099C201.4 240.499 203.4 240.699 203.5 240.699C204.4 240.699 206.2 241.099 206.8 240.599Z" fill="#0C41E2"/>
<path d="M103.5 310.3C103.5 310.3 158.4 311.7 159.1 305.3C159.8 298.9 137 297.8 137 297.8C137 297.8 166.2 283.2 163 277.5C159.8 271.8 133.4 282.5 133.4 282.5C133.4 282.5 153.7 269 152.3 264C150.9 259 130.9 268.6 125.6 275.8C125.6 275.8 132 256.2 126 258C120 259.8 111.4 276.9 101.8 284C92.1999 291.1 103.5 310.3 103.5 310.3Z" fill="#EDF1FE"/>
<path d="M103.6 311.799C114.8 312.099 125.9 311.999 137.1 311.499C143.7 311.199 150.6 310.899 157 308.999C158.6 308.499 161 307.699 161.6 305.999C162.6 303.199 159.3 301.1 157.2 300.2C153.2 298.6 149 297.6 144.8 297.2C142.2 296.9 139.7 296.599 137.1 296.499L138.9 298.999C142 297.499 145 295.799 148 294.099C153 291.199 158.2 288.099 162.5 284.099C163.9 282.799 165.5 281.099 165.8 279.099C166.1 277.099 164.4 275.699 162.6 275.099C160 274.199 157.1 274.499 154.4 274.899C151.3 275.399 148.2 276.099 145.2 276.999C140.8 278.299 136.5 279.699 132.2 281.499L135.3 283.799C137.6 282.299 139.8 280.699 142 278.999C145.8 276.099 149.6 273.099 152.6 269.499C153.6 268.199 154.8 266.699 154.9 264.999C155 263.299 153.6 262.2 152.1 261.7C149.9 261.2 147.7 261.299 145.5 261.999C142.9 262.699 140.4 263.699 138 264.799C135 266.199 132.2 267.8 129.5 269.7C127.2 271.2 125.1 273.099 123.3 275.299L127.9 276.299C129.4 272.099 130.4 267.799 130.9 263.299C131.1 261.199 131.2 258.399 129.2 257.099C126.4 255.299 123 257.3 120.8 259.2C118.1 261.7 115.7 264.599 113.6 267.599C110.9 271.099 108.2 274.699 105.3 278.099C103.9 279.699 102.4 281.199 100.8 282.499C99.3998 283.499 98.0998 284.8 97.0998 286.2C95.3998 288.9 95.1998 292.399 95.4998 295.499C96.2998 300.999 98.1998 306.199 101.1 310.999C102.1 312.699 107 311.899 105.9 310.099C103.8 306.499 102.2 302.7 101.2 298.7C100.4 295.9 100.2 292.899 100.7 289.999C101 288.599 101.6 287.399 102.5 286.299C103.7 285.099 105 283.999 106.4 282.899C112.3 277.499 116.6 270.499 121.7 264.399C122.7 263.199 123.8 261.999 124.9 260.999C125.3 260.599 125.7 260.299 126.2 259.999C126.4 259.899 126.6 259.699 126.9 259.599C126.8 259.599 126.6 259.799 126.9 259.599C127.2 259.399 127.1 259.699 126.9 259.599C127 259.599 127.1 259.599 127.2 259.499C126.9 259.499 126.6 259.499 126.4 259.499C126.8 259.499 126.1 259.399 126.1 259.399C125 258.999 126.3 259.4 125.8 259.2C125.6 259.1 125.9 259.399 125.9 259.299C125.9 259.199 126 259.6 126.1 259.7C126.3 260.6 126.4 261.399 126.3 262.299C126 266.799 125 271.299 123.4 275.599C122.7 277.699 127.1 277.799 128 276.599C130.8 272.999 134.9 270.399 138.9 268.299C141 267.099 143.2 266.099 145.4 265.299C146.3 264.999 147.1 264.699 148 264.499C148.4 264.399 148.9 264.299 149.3 264.299C149.5 264.299 148.9 264.299 149.4 264.299C149.6 264.299 149.8 264.299 150 264.299C150.5 264.299 149.5 264.299 149.9 264.299C150.3 264.499 149.8 264.199 149.8 264.299C150 264.599 149.6 264.099 149.8 264.299C150 264.499 150 264.499 149.8 264.299C149.9 264.399 149.9 264.5 150 264.7C150 264.8 150 264.4 150 264.7V265.099C150 265.399 150 265.199 150 265.299C150 265.399 149.9 265.6 149.9 265.7C149.8 266 149.6 266.299 149.5 266.599C149.1 267.199 148.7 267.799 148.2 268.399C145.4 271.499 142.3 274.299 138.9 276.799C136.6 278.599 134.2 280.299 131.8 281.899C131.2 282.099 131 282.799 131.2 283.399C131.3 283.599 131.5 283.799 131.7 283.899C132.7 284.499 133.9 284.6 134.9 284.2C138.1 282.9 141.4 281.7 144.8 280.7C147.4 279.8 150.1 279.099 152.8 278.499C154.1 278.199 155.5 277.999 156.8 277.799C156.2 277.899 157 277.799 157.2 277.799H158C158.3 277.799 158.6 277.799 158.9 277.799H159.3C159.5 277.799 158.7 277.699 159.3 277.799L159.9 277.899C160.4 277.899 159.5 277.699 160.1 277.899C160.3 277.999 160.8 278.199 160.2 277.899C160.4 277.999 160.8 278.399 160.4 277.999C160.5 278.099 160.6 278.199 160.7 278.299C160.8 278.499 160.5 278.099 160.8 278.399C160.9 278.599 160.9 278.799 160.9 278.499C160.9 278.699 160.9 278.799 160.9 278.999C160.9 279.299 160.9 279.3 160.9 279.2C160.9 279.3 160.8 279.499 160.8 279.599C160.8 279.699 160.4 280.499 160.3 280.499C159.7 281.299 159.1 281.999 158.4 282.599C154.7 286.199 149.9 289 145.3 291.7C142 293.6 138.7 295.5 135.3 297.2C134.7 297.4 134.5 298.1 134.7 298.7C134.7 298.8 134.8 298.799 134.8 298.899C135.4 299.499 136.2 299.799 137.1 299.799C137.6 299.799 137.2 299.599 136.9 299.799C137.1 299.699 137.9 299.899 138.1 299.899C139.4 299.999 140.7 300.099 142 300.299C143.7 300.499 145.4 300.699 147.1 300.999C148.7 301.299 150.4 301.7 152 302.2C152.6 302.4 153.6 302.699 153.9 302.899C154.5 303.199 155 303.499 155.6 303.799C155.3 303.599 155.9 304.1 156 304.2C156.1 304.3 156.1 304.299 156.2 304.399C156.5 304.699 156 304.099 156.3 304.499C156.4 304.699 156.5 304.899 156.6 305.099C156.5 304.899 156.6 305.4 156.6 305.7C156.6 305.8 156.5 306.1 156.6 305.7C156.6 305.8 156.5 305.799 156.5 305.899C156.5 306.099 156.8 305.599 156.6 305.799L156.4 306.099C156.1 306.399 156.8 305.899 156.3 306.099C156.2 306.199 156 306.299 155.8 306.399C155.6 306.499 156.3 306.199 155.7 306.399C155.1 306.599 154.8 306.799 154.3 306.899C154.1 306.899 153.4 307.099 154.1 306.999L153.2 307.2C152.6 307.3 152 307.499 151.3 307.599C149.9 307.899 148.5 308.1 147.1 308.2L146 308.299L145.5 308.399H145.3L142.6 308.599C140.9 308.699 139.1 308.799 137.4 308.899C130.2 309.299 123 309.399 115.8 309.399C111.7 309.399 107.5 309.399 103.4 309.299C102.5 309.299 100.9 309.699 100.9 310.799C100.9 311.899 102.7 311.699 103.6 311.799Z" fill="#0C41E2"/>
<path d="M68.1998 234.1C68.1998 234.1 5.99977 280.9 11.7998 316.3C17.5998 351.7 71.0998 356.6 110 323.8L102.5 276L77.6998 284.4" fill="#EDF1FE"/>
<path d="M66.4999 232.3C63.3999 234.7 60.3999 237.2 57.3999 239.7C50.2999 245.7 43.5999 252.1 37.2999 258.9C29.7999 266.6 23.2999 275.1 17.6999 284.3C12.7999 292.6 8.89989 302.1 9.09989 311.9C9.39989 322 14.1999 331.5 21.9999 337.9C30.2999 344.7 41.1999 347.5 51.7999 348C64.2999 348.5 76.9999 345.5 88.2999 340.4C94.7999 337.5 100.9 333.9 106.6 329.7C108.1 328.6 109.5 327.5 110.9 326.3C111.6 325.7 112.3 325.2 112.3 324.1C112.3 323.4 112.1 322.8 112 322.1L108.4 299.2L105 277.6L104.8 276.4C104.6 274.8 103.2 273.7 101.6 273.9C101.5 273.9 101.3 273.9 101.2 274L79.5999 281.4L76.4999 282.5C73.6999 283.4 76.5999 287.4 78.8999 286.6L100.6 279.2L103.7 278.2L100.1 275.8L102.6 291.9L106.6 317.6L107.5 323.5L108.2 322.1C93.4999 334.4 74.9999 342.9 55.6999 343.7C48.0999 344.1 40.3999 342.9 33.2999 340.1C27.1999 337.7 21.8999 333.5 18.2999 328C14.7999 322.3 13.1999 315.7 13.7999 309C14.3999 302.4 17.0999 295.6 20.2999 289.7C27.4999 276.3 37.8999 264.7 48.7999 254.2C55.3999 247.8 62.2999 241.9 69.4999 236.2L69.7999 236C72.0999 234.1 68.4999 230.7 66.4999 232.3Z" fill="#0C41E2"/>
<path d="M43.9998 297.499C44.6998 297.399 45.4998 297.299 46.1998 297.099C47.6998 296.699 49.1998 296.299 50.5998 295.899C54.6998 294.699 58.6998 293.399 62.7998 292.099C71.8998 289.199 80.8998 286.199 89.9998 283.099C92.4998 282.199 94.9998 281.499 97.4998 280.499C99.5998 279.699 96.3998 275.899 94.4998 276.599C88.4998 278.899 82.3998 280.799 76.2998 282.799C67.2998 285.799 58.2998 288.799 49.1998 291.599C47.4998 292.099 45.8998 292.599 44.1998 292.999L43.8998 293.099L43.5998 293.199L42.8998 293.399C42.5998 293.499 42.1998 293.499 41.8998 293.499C40.6998 293.499 40.6998 294.899 41.0998 295.699C41.5998 296.799 42.7998 297.499 43.9998 297.499Z" fill="#0C41E2"/>
<g opacity="0.5">
<path d="M152.9 148.699C161.35 148.699 168.2 141.581 168.2 132.799C168.2 124.018 161.35 116.899 152.9 116.899C144.45 116.899 137.6 124.018 137.6 132.799C137.6 141.581 144.45 148.699 152.9 148.699Z" fill="#6A90FF"/>
<path d="M152.9 149.099C144.2 149.099 137.1 141.799 137.1 132.699C137.1 123.599 144.2 116.399 152.9 116.399C161.6 116.399 168.7 123.699 168.7 132.699C168.7 141.699 161.6 149.099 152.9 149.099ZM152.9 117.399C144.7 117.399 138.1 124.299 138.1 132.799C138.1 141.299 144.7 148.199 152.9 148.199C161.1 148.199 167.7 141.299 167.7 132.799C167.7 124.299 161.1 117.399 152.9 117.399Z" fill="#6A90FF"/>
</g>
<path d="M160.1 357.1C159.7 357.3 159.4 357.5 159.1 357.8C158.8 358.1 158.6 358.4 158.4 358.8C158.2 359.2 158.1 359.5 158 359.9C157.9 360.3 157.9 360.7 157.9 361.1C158 361.7 158.1 362.3 158.4 362.8C158.6 363.2 158.8 363.5 159.2 363.8C159.9 364.5 160.8 365 161.8 365.1C162.3 365.2 162.9 365.1 163.4 364.9C163.6 364.9 163.8 364.8 164 364.7C164.3 364.5 164.6 364.3 164.9 364.1C165.1 363.9 165.2 363.7 165.4 363.5C165.5 363.3 165.6 363 165.7 362.8C165.8 362.4 165.9 362.1 165.8 361.7C165.8 361.4 165.7 361.2 165.7 360.9C165.6 360.6 165.5 360.4 165.4 360.1C165.1 359.6 164.7 359.1 164.2 358.8C164 358.6 163.7 358.5 163.5 358.4C163.4 358.4 163.3 358.3 163.2 358.3C162.8 358.2 162.5 358.1 162.1 358C161.6 358 161 358 160.5 358.2C160.2 358.3 159.9 358.5 159.6 358.7C159.2 359.1 158.9 359.6 158.8 360.1C158.7 360.4 158.7 360.7 158.8 361C158.8 361.3 158.9 361.6 159.1 361.9C159.3 362.2 159.5 362.5 159.7 362.7C159.9 362.9 160.2 363.1 160.5 363.2C161 363.4 161.6 363.5 162.2 363.3L162.7 363C163 362.8 163.2 362.4 163.2 362.1V362L163 362.5C163 362.4 163.1 362.3 163.1 362.3L162.7 362.7C162.8 362.6 162.8 362.5 162.9 362.5L162.4 362.8C162.5 362.7 162.6 362.7 162.7 362.7L162.2 362.8C162.3 362.8 162.5 362.8 162.6 362.8H162C162.1 362.8 162.3 362.8 162.4 362.9L161.8 362.7C161.9 362.7 162.1 362.8 162.2 362.8L161.6 362.5C161.7 362.6 161.8 362.6 161.9 362.7L161.4 362.2C161.5 362.3 161.5 362.3 161.6 362.4L161.2 361.9C161.2 362 161.3 362 161.3 362.1L161.1 361.5C161.1 361.6 161.2 361.7 161.2 361.7L161.1 361.1C161.1 361.2 161.1 361.3 161.1 361.4V360.8C161.1 360.9 161.1 361 161 361.1L161.2 360.6C161.2 360.7 161.1 360.8 161 361L161.4 360.6C161.3 360.7 161.1 360.9 161 361L161.5 360.7C161.3 360.8 161.1 360.9 160.9 360.9L161.4 360.8C161.2 360.9 161 360.9 160.9 360.9H161.5C161.4 360.9 161.2 360.9 161.1 360.8L161.7 361C161.6 361 161.5 360.9 161.4 360.9L162 361.2C161.9 361.1 161.8 361.1 161.7 361L162.2 361.5C162.1 361.4 162.1 361.3 162 361.3L162.4 361.8C162.3 361.7 162.3 361.6 162.2 361.5L162.4 362.1C162.3 362 162.3 361.8 162.3 361.7L162.4 362.3C162.4 362.1 162.4 361.9 162.4 361.8L162.3 362.4C162.3 362.2 162.4 362 162.4 361.7L162.2 362.2C162.3 362 162.4 361.8 162.6 361.6L162.2 362C162.3 361.8 162.5 361.7 162.7 361.6L162.2 361.9C162.5 361.8 162.7 361.6 162.8 361.4C163 361.2 163.1 360.9 163.2 360.7C163.3 360.4 163.3 360.1 163.2 359.8C163.2 359.5 163.1 359.2 162.9 358.9C162.6 358.3 162.1 357.9 161.5 357.6L160.9 357.4C160.5 357.3 160.1 357.4 159.8 357.5L160.1 357.1Z" fill="#0C41E2"/>
<path d="M159.8 385.199C159.3 385.499 159 385.899 158.8 386.499C158.7 386.799 158.7 387.099 158.7 387.299C158.7 387.899 158.9 388.399 159.3 388.899C159.6 389.299 160 389.699 160.4 389.999C161.1 390.499 162 390.699 162.9 390.699C163.4 390.699 163.9 390.499 164.3 390.299C164.6 390.199 164.8 389.999 165 389.699C165.2 389.499 165.4 389.199 165.5 388.899C165.6 388.799 165.6 388.599 165.7 388.499C165.9 387.899 165.9 387.299 165.7 386.599C165.5 385.999 165.1 385.399 164.6 384.899C164.3 384.599 164 384.399 163.7 384.199C163.4 383.999 163 383.799 162.6 383.699C161.8 383.499 161 383.399 160.2 383.399C159.6 383.399 159.1 383.699 158.7 384.099C158.4 384.499 158.3 385.099 158.4 385.599C158.6 386.199 159 386.599 159.5 386.999C160.1 387.399 160.7 387.499 161.4 387.499C161.6 387.499 161.7 387.499 161.9 387.499H161.3C161.5 387.499 161.7 387.599 161.9 387.599L161.3 387.399C161.5 387.399 161.6 387.499 161.8 387.599L161.2 387.299C161.3 387.399 161.5 387.499 161.6 387.599L161.1 387.199C161.2 387.299 161.3 387.399 161.4 387.499L161 386.999C161.1 387.099 161.1 387.199 161.2 387.299L161 386.799C161.1 386.899 161.1 387.099 161.1 387.199L161 386.699C161 386.899 161 387.099 161 387.199L161.1 386.699C161.1 386.899 161 387.099 160.9 387.299L161.2 386.899C161.1 386.999 161 387.099 160.9 387.199L161.3 386.899C161.2 386.999 161.1 386.999 161 387.099L161.5 386.899C161.4 386.899 161.3 386.999 161.3 386.999L161.9 386.899H161.7H162.3H162.1L162.7 387.099C162.6 387.099 162.6 387.099 162.5 386.999L163.1 387.299L163 387.199L163.5 387.599L163.3 387.399L163.7 387.899C163.6 387.799 163.6 387.699 163.5 387.599L163.7 388.099C163.7 387.999 163.6 387.899 163.6 387.799L163.7 388.299C163.7 388.199 163.7 388.099 163.7 387.999L163.6 388.499C163.6 388.399 163.7 388.299 163.7 388.199L163.4 388.599C163.4 388.499 163.5 388.499 163.5 388.399L163.1 388.699L163.2 388.599C163.7 388.299 163.9 387.799 164 387.299C164 386.699 163.7 386.199 163.3 385.799C162.8 385.299 162.2 384.999 161.6 384.899H161C160.5 384.899 160.1 384.999 159.8 385.199Z" fill="#0C41E2"/>
<path d="M177.6 352.5V394.1C177.6 395.7 182.4 396.6 182.4 395.5V353.9C182.4 352.3 177.6 351.4 177.6 352.5Z" fill="#0C41E2"/>
<path d="M196.2 354.1C197.4 368.6 199.5 383.1 202.3 397.5C202.6 399 207.4 399.9 207.1 398.1C204.3 383.8 202.2 369.3 201 354.7C200.9 353.2 196 352.2 196.2 354.1Z" fill="#0C41E2"/>
<path d="M108 363.099L133.2 360.399C133.9 360.299 135.8 360.199 136.1 359.299C136.4 358.399 134.5 358.599 134.2 358.599L109 361.299C108.3 361.399 106.4 361.499 106.1 362.399C105.8 363.299 107.6 363.099 108 363.099Z" fill="#0C41E2"/>
<path d="M256.9 83.0995C258.4 72.3995 267.6 63.7995 277.9 61.3995C288.7 58.9995 299.8 63.9995 306.7 72.2995C310.2 76.4995 313.7 81.9995 313.7 87.5995C313.7 89.7995 312.9 92.5995 310.6 93.3995C309.9 93.5995 309.2 93.6995 308.5 93.4995C308.1 93.4995 307.7 93.1995 307.5 92.8995C306.5 91.0995 308.8 88.7995 310.6 88.0995C313.2 87.2995 316.1 87.8995 318.2 89.5995C320.5 91.4995 322.4 93.8995 323.7 96.4995C325.3 99.4995 326.7 102.7 327.9 105.9C333.1 120.3 333.9 135.9 334.6 151C334.7 153.1 339.5 154.3 339.4 151.9C338.6 136.3 337.8 120.2 332.3 105.4C329.8 98.4995 326.4 90.6995 320 86.5995C316.8 84.4995 313 83.5995 309.2 84.1995C306 84.7995 302.5 87.1995 302.4 90.7995C302.2 96.6995 310.9 98.4995 315 95.8995C321.2 91.8995 317.9 82.6995 315.2 77.6995C308.8 65.8995 296 57.1995 282.3 57.0995C269.8 56.9995 257 65.2995 253.1 77.3995C252.6 78.8995 252.3 80.4995 252.1 82.0995C251.9 84.1995 256.6 85.4995 256.9 83.0995Z" fill="#6A90FF"/>
</svg>
