<svg width="500" height="500" viewBox="0 0 500 500" fill="none" xmlns="http://www.w3.org/2000/svg">
<path fill-rule="evenodd" clip-rule="evenodd" d="M239.165 499.787C330.124 503.08 423.86 468.079 473.976 398.513C520.327 334.173 495.563 252.327 470.427 178.77C448.448 114.452 411.788 54.2463 346 24.0053C278.893 -6.84205 198.344 -8.84359 131.88 23.1492C67.9344 53.9301 38.1975 117.31 19.4634 181.186C-0.526671 249.344 -14.6105 322.639 26.5413 382.315C73.033 449.736 152.139 496.637 239.165 499.787Z" fill="#EDF1FE"/>
<path d="M243.8 129.6C243.6 126 241.7 122.4 239.9 119.4C237.7 115.9 235.2 112.6 232.6 109.5C231 107.4 229.7 105.2 228.6 102.8C223.9 92.4999 222.7 78.4999 230.2 69.0999C234.6 63.5999 241.7 60.4999 248.6 59.5999C252.1 59.0999 255.6 59.1999 259.1 60.0999C261.6 60.7999 263.9 61.9999 265.8 63.8999C271 68.5999 273.7 75.4999 274 82.4999C274.4 90.1999 272.2 97.6999 268.7 104.5C267.3 107.2 265.7 109.8 264.1 112.3C263 113.9 261.9 115.6 261 117.3C259.9 119.5 260.7 122.3 261.3 124.6C261.7 126.1 262.1 127.5 262.5 129C262.7 129.9 263.2 131.2 262.8 132.1C262.4 133 260.4 132.8 259.5 132.8C257.1 132.9 254.8 132.8 252.4 132.6C249.8 132.5 247.2 132.2 244.6 131.9C243.5 131.8 242.4 131.6 241.3 131.4L240.2 131.2C240.1 131.2 239.5 131 240 131.2C239.7 131.1 239.6 131 240 131.2L240.3 131.3C240.7 131.5 241.1 131.7 241.5 132C241.4 131.9 241.9 132.3 241.8 132.3C241.7 132.3 241.8 132.2 241.7 132.2C241.6 132.2 241.7 132.1 241.8 132C242.2 131.7 242.7 131.5 243.2 131.5C245.1 131.2 247.1 131.1 249 131.2C251.6 131.3 254.2 131.5 256.8 131.9C258 132.1 259.1 132.3 260.3 132.6C260.8 132.7 261.2 132.8 261.5 133L262 133.2C261.7 133.1 262.1 133.2 262.1 133.3C262.4 133.4 261.6 133.1 262.1 133.3C262.6 133.5 262 133.3 262 133.2C262.1 133.3 262.4 133.4 261.9 133.1C262.2 133.3 261.7 132.9 262.1 133.2C262 133.1 262.4 133.5 262.5 133.6C262.8 134.1 262.9 134.7 262.7 135.2C262.1 136.8 260.1 137.4 258.6 137.7C253.8 138.9 248.5 138.6 243.7 137.9C242.7 137.8 241.8 137.6 240.9 137.4C240.7 137.4 240.5 137.3 240.3 137.3C239.9 137.2 240.3 137.4 240.1 137.3C239.7 137.1 240.2 137.3 240.2 137.3C240.7 137.5 241.4 138.1 242 138.3C242.1 138.4 241.9 138.4 242.1 138.3C242.2 138.2 242.2 138.2 242.3 138.1C242.8 137.9 243.3 137.7 243.8 137.7C248 137 252.3 137 256.5 137.6C257.6 137.7 258.6 137.9 259.7 138.2L260.5 138.4L260.8 138.5H260.9L261.4 138.7C261.1 138.6 261.5 138.7 261.5 138.8C261.8 138.9 261 138.5 261.4 138.8C261.4 138.8 260.9 138.6 261.2 138.7C261.2 138.7 260.8 138.4 261.1 138.6C261.4 138.8 260.9 138.4 261.2 138.7C261.2 138.7 261.2 138.7 261.4 138.9C261.6 139.1 261.6 139.1 261.7 139.2C262.1 139.7 262.2 140.4 262.2 141.1C261.9 143.5 259.6 145.8 257.5 146.7C255.1 147.8 252.5 148 249.9 147.4C249.6 147.3 249 147.1 249.7 147.4C250.3 147.7 251.1 147.5 251.4 146.9C251.7 146.3 251.5 145.5 250.9 145.2C250.3 144.9 249.5 145.1 249.2 145.7C248.9 146.3 249.1 147 249.6 147.3C249.5 147.2 249.3 147.1 249.2 146.9C248.5 146.2 248.1 145.4 248 144.4C247.9 143.7 246.5 143.1 245.9 142.9C245.7 142.8 243.4 141.9 243.4 142.3C243.7 145.2 246.5 146.9 248.9 148.1C251.8 149.6 255.2 150.3 258.5 150C261.5 149.6 264.2 147.9 265.9 145.3C266.9 143.6 267.1 141.9 265.7 140.4C263.8 138.3 260.8 137.2 258.1 136.4C255.6 135.7 253.1 135.3 250.5 135.1C248 134.9 245.4 134.9 242.9 135C241.3 135 239.7 135.2 238.1 135.8C236.2 136.7 240.3 138.4 240.9 138.7C243 139.5 245.2 140.1 247.5 140.3C250.3 140.7 253.2 140.8 256 140.8C258.7 140.9 261.3 140.5 263.9 139.8C265.3 139.4 267.3 138.4 267.4 136.7C267.4 134.6 264.5 133.2 262.9 132.5C257.7 130 251.7 129.2 246 129C243.7 128.8 241.5 128.9 239.2 129.3C238.3 129.5 236.6 129.9 237.7 131C239.5 132.8 242.5 133.5 245 133.9C247.6 134.4 250.3 134.7 253 134.9C255.8 135.1 258.6 135.3 261.5 135.3C263 135.3 265.2 135.6 266.6 134.9C268.3 134.1 266.6 130.1 266.3 128.9C265.5 126.2 264.2 122.7 265.3 119.9C266.2 118 267.4 116.2 268.6 114.5C270.5 111.6 272.2 108.7 273.7 105.6C277.4 97.8999 279.4 89.3999 277.9 80.8999C276.6 73.4999 272.4 66.9999 266.1 62.8999C259.3 58.3999 251.1 56.5999 243.1 57.9999C235.7 59.2999 228.3 62.9999 224.2 69.4999C220.7 74.9999 219.8 81.7999 220.5 88.1999C221.1 94.4999 223.2 100.7 226.6 106C228.8 109.3 231.7 112.2 233.9 115.5C235.8 118.3 237.4 121.4 238.5 124.6C238.9 125.7 239.2 126.8 239.3 127.9C239.4 128.6 240.8 129.2 241.4 129.4C241.5 129.1 243.9 130 243.8 129.6Z" fill="#6A90FF"/>
<path d="M251.3 122.1C251.4 114.8 246.4 109 243.3 102.7C241.8 99.6 240.2 95.6 241.6 92.2C242.7 89.7 246.1 88 248.7 89.2C251.3 90.4 252.9 94.7 253.1 97.5C253.2 98.2 253.1 98.9 252.9 99.6C252.8 100 252.6 100.3 252.4 100.6C252.2 100.9 251.6 100.9 251.5 101.2C251.4 101.5 251.7 101.3 251.7 101.3C251.7 101.3 251.3 100.5 251.2 100.3C251 99.5 250.9 98.6 251 97.7C251.3 94.2 253.4 91.1 256.5 89.4C257.3 89 258.2 88.7 259.2 88.5C259.3 88.5 259.5 88.5 259.6 88.5C259.5 88.5 259.2 88.3 259.5 88.5C259.8 88.8 260.1 89.1 260.3 89.5C261.2 91 261.7 92.6 261.7 94.3C262.1 103.8 252.9 111 254.5 120.8C254.7 121.9 255.9 122.6 256.9 122.9C257.4 123.1 259.3 123.4 259.1 122.4C257.4 112 268.6 103.9 266 93.4C264.8 88.5 260.1 84.2 254.8 85.8C250.5 87.1 247.4 90.7 246.6 95.1C246.2 97.3 246.6 99.5 247.9 101.3C249.5 103.4 252.1 104.5 254.7 104.2C259.5 103.3 257.6 96.5 256.3 93.6C254.3 89.1 250.1 86.1 245.2 85.7C240.8 85.4 237.1 88 236.7 92.5C236.3 97.6 239.4 102.6 241.9 106.7C244.4 110.8 247 115.3 246.9 120.4C246.7 122.1 251.3 123.9 251.3 122.1Z" fill="#6A90FF"/>
<path d="M219.6 62.3999L213 55.1999C212.6 54.6999 212.1 54.3999 211.4 54.1999C210.8 53.9999 210.1 53.9999 209.5 54.2999C208.6 54.5999 208.2 55.4999 208.4 56.3999C208.5 56.5999 208.6 56.7999 208.7 56.8999L215.3 64.0999C215.7 64.5999 216.2 64.8999 216.8 65.0999C217.4 65.2999 218.1 65.2999 218.7 64.9999C219.2 64.7999 219.6 64.3999 219.8 63.8999C220.1 63.4999 219.9 62.8999 219.6 62.3999Z" fill="#6A90FF"/>
<path d="M245.7 48.5001L245.2 41.7001C245.1 40.5001 243.7 39.8001 242.6 39.9001C241.5 40.0001 240.2 40.7001 240.2 42.0001L240.7 48.8001C240.8 50.0001 242.2 50.7001 243.3 50.6001C244.4 50.5001 245.8 49.8001 245.7 48.5001Z" fill="#6A90FF"/>
<path d="M269 51C269.2 50.7 269.4 50.3 269.6 50L269.3 50.5C269.9 49.6 270.6 48.8 271.3 48.1L270.9 48.5C271.6 47.9 272.3 47.3 273 46.7L272.5 47.1C272.6 47 272.8 46.9 273 46.8C273.5 46.5 274 46 274.3 45.5C274.5 45.1 274.6 44.5 274.4 44.1C273.8 43.1 272.3 43.2 271.4 43.8C268.7 45.5 266.5 47.8 265 50.6C264.8 51 264.7 51.6 265 52C265.3 52.4 265.7 52.7 266.2 52.7C267.2 52.7 268.4 52.1 269 51Z" fill="#6A90FF"/>
<path d="M283.1 71.6001L289.4 70.8001C289.7 70.8001 290.2 70.6001 290.4 70.2001C290.6 69.8001 290.2 69.4001 290 69.2001C289.1 68.4001 287.9 68.0001 286.6 68.1001L280.3 68.9001C280 68.9001 279.5 69.1001 279.3 69.5001C279.1 69.9001 279.5 70.3001 279.7 70.5001C280.6 71.3001 281.9 71.7001 283.1 71.6001Z" fill="#6A90FF"/>
<path d="M356.1 337.2L437.8 354.2L454.7 272.8L392.4 259.8L369.5 272.7L356.1 337.2Z" fill="#EDF1FE"/>
<path d="M355.2 339.399L383 345.199L426.9 354.299L437 356.399C438.5 356.699 439.9 355.699 440.2 354.199L445.9 326.599L455 282.699L457.1 272.699C457.2 271.699 456.5 270.799 455.5 270.599L425.8 264.399L404.7 259.999C400.9 259.199 397.2 258.299 393.4 257.599C391.8 257.299 390.5 258.299 389.2 259.099L380.6 263.999L371.5 269.099C369.9 269.999 367.4 270.899 367 272.899C364.8 282.899 362.8 292.899 360.8 302.899L353.8 336.699L353.7 337.299C353.4 338.499 354.8 339.499 355.9 339.399C357.2 339.299 358.3 338.399 358.5 337.099L363 315.199L370.2 280.599L371.8 272.599L370.4 274.599L390.5 263.299L393.4 261.699L391.5 261.999L412.5 266.399L446 273.399L453.7 274.999L452.1 272.899L446.4 300.499L437.3 344.399L435.2 354.399L438.4 352.099L410.7 346.299L366.8 337.099L356.7 334.999C354.1 334.399 352.1 338.699 355.2 339.399Z" fill="#6A90FF"/>
<path d="M378.1 272.699L399 276.999L432.2 283.899L439.8 285.499C440.7 285.599 441.5 285.599 442.4 285.399C442.6 285.399 443.8 284.999 443 284.899L422.1 280.599L388.9 273.699L381.3 272.199C380.4 272.099 379.6 272.099 378.7 272.299C378.5 272.199 377.4 272.499 378.1 272.699Z" fill="#6A90FF"/>
<path d="M376.4 280.799L397.3 285.099L430.5 291.999L438.1 293.599C439 293.699 439.8 293.699 440.7 293.499C440.9 293.499 442.1 293.099 441.3 292.999L420.4 288.699L387.2 281.799L379.6 280.199C378.7 280.099 377.9 280.099 377 280.299C376.8 280.299 375.6 280.699 376.4 280.799Z" fill="#6A90FF"/>
<path d="M375 288.4L395.9 292.7L429.1 299.6L436.7 301.2C437.6 301.3 438.4 301.3 439.3 301.1C439.5 301.1 440.7 300.7 439.9 300.6L419 296.3L385.8 289.4L378.2 287.8C377.3 287.7 376.5 287.7 375.6 287.9C375.4 287.9 374.3 288.3 375 288.4Z" fill="#6A90FF"/>
<path d="M373.3 296.599L394.2 300.899L427.4 307.799L435 309.399C435.9 309.499 436.7 309.499 437.6 309.299C437.8 309.299 439 308.899 438.2 308.799L417.3 304.499L384.1 297.599L376.5 295.999C375.6 295.899 374.8 295.899 373.9 296.099C373.7 296.099 372.5 296.399 373.3 296.599Z" fill="#6A90FF"/>
<path d="M371.5 304.199L392.4 308.499L425.6 315.399L433.2 316.999C434.1 317.099 434.9 317.099 435.8 316.899C436 316.899 437.2 316.499 436.4 316.399L415.5 311.999L382.3 305.099L374.7 303.499C373.8 303.399 373 303.399 372.1 303.599C371.9 303.699 370.7 303.999 371.5 304.199Z" fill="#6A90FF"/>
<path d="M369.7 312.4L390.6 316.7L423.8 323.6L431.4 325.2C432.3 325.3 433.1 325.3 434 325.1C434.2 325.1 435.4 324.7 434.6 324.6L413.7 320.3L380.5 313.4L372.9 311.8C372 311.7 371.2 311.7 370.3 311.9C370.1 311.9 369 312.2 369.7 312.4Z" fill="#6A90FF"/>
<path d="M368.1 320.9L389 325.2L422.2 332.1L429.8 333.7C430.7 333.8 431.5 333.8 432.4 333.6C432.6 333.6 433.8 333.2 433 333.1L412.1 328.8L378.9 321.9L371.3 320.3C370.4 320.2 369.6 320.2 368.7 320.4C368.5 320.4 367.4 320.8 368.1 320.9Z" fill="#6A90FF"/>
<path d="M366.4 329.099L387.3 333.399L420.5 340.299L428.1 341.899C429 341.999 429.8 341.999 430.7 341.799C430.9 341.799 432.1 341.399 431.3 341.299L410.4 336.999L377.2 330.099L369.6 328.499C368.7 328.399 367.9 328.399 367 328.599C366.8 328.599 365.6 328.999 366.4 329.099Z" fill="#6A90FF"/>
<path d="M392.4 259.8L389.7 276.4L369.5 272.7L392.4 259.8Z" fill="#6A90FF"/>
<path d="M390.8 260.199L388.1 276.699L390.8 274.899L373 271.699L370.5 271.199L370.1 273.499L390.2 262.199L393 260.599C393.6 260.299 394.4 259.299 393.9 258.599C393.4 257.899 392.3 258.399 391.7 258.699L371.6 269.999L368.8 271.599C368.1 271.999 367 273.699 368.4 273.899L386.1 277.099L388.6 277.599C389.8 277.699 391 276.999 391.3 275.799L394 259.299C394.4 257.499 391 258.799 390.8 260.199Z" fill="#6A90FF"/>
<path d="M427.1 272.2C426.4 272.6 425.7 273.1 425.1 273.6C425 273.7 424.8 273.8 424.8 274C424.7 274.1 424.7 274.3 424.8 274.5C424.8 274.7 424.9 274.9 425 275C425.1 275.2 425.2 275.4 425.4 275.5C425.8 275.8 426.2 276.1 426.7 276.2L427.1 276.3C427.3 276.3 427.6 276.3 427.8 276.2C428.4 275.7 429.1 275.2 429.8 274.8C430.1 274.6 430.2 274.3 430.1 274C430.1 273.8 430 273.6 429.9 273.5C429.8 273.3 429.7 273.1 429.5 273C429.1 272.7 428.7 272.4 428.2 272.3C427.8 272 427.4 272.1 427.1 272.2Z" fill="#0C41E2"/>
<path d="M428.9 266.999C430.7 265.499 433.9 266.499 436.1 269.099C438.3 271.699 437.4 273.499 436.3 275.499C435.1 277.899 431.8 277.099 429.6 274.399C427.4 271.699 427.1 268.399 428.9 266.999Z" fill="#0C41E2"/>
<path d="M430.1 267.9C430.5 267.8 430.3 267.8 430.1 267.9L430.2 267.8C430.2 267.8 430.5 267.8 430.1 267.8C430.2 267.8 430.3 267.7 430.4 267.7C430.6 267.7 430.8 267.7 430.3 267.7H430.6H430.7H430.9H431.2L431.8 267.9C432 268 432.2 268.1 432.4 268.2C432.1 268 432.4 268.2 432.5 268.2L432.9 268.5C433.1 268.6 433.3 268.8 433.5 269L433.8 269.3C433.8 269.3 434.1 269.6 433.9 269.4C434.4 269.9 434.7 270.4 435.1 270.9C435.1 270.9 435.3 271.3 435.2 271C435.2 271.1 435.3 271.2 435.3 271.3C435.4 271.5 435.4 271.7 435.5 271.9V272C435.5 272.2 435.5 272.1 435.5 271.9C435.5 272 435.5 272.1 435.5 272.2C435.5 272.3 435.5 272.8 435.4 272.9V272.7C435.4 272.8 435.4 272.8 435.4 272.9L435.3 273.2C435.2 273.4 435.2 273.6 435.1 273.8L434.8 274.4C434.7 274.5 434.6 275 434.4 275.1C434.4 275.2 434.2 275.3 434.2 275.3C434.4 275.1 434.3 275.1 434.2 275.3C434 275.5 433.9 275.3 434.3 275.2C434.2 275.2 434.1 275.3 434.1 275.3C434.5 275 434.5 275.2 434.2 275.2C433.9 275.2 433.9 275.2 434.3 275.2C434.2 275.2 434 275.2 433.9 275.2C434.3 275.1 434.2 275.2 434 275.2H433.7C433.6 275.2 433.5 275.1 433.4 275.1C433.2 275.1 433 275 432.8 275L432.4 274.7C432.2 274.6 432 274.4 431.8 274.2L431.5 273.9C431.7 274.1 431.4 273.8 431.4 273.8C431 273.4 430.6 272.9 430.3 272.3L430.1 271.9C430 271.7 430 271.7 430.1 271.9L430 271.7C429.9 271.4 429.8 271.1 429.7 270.9C429.6 270.6 429.5 270.4 429.5 270.1C429.5 270 429.4 269.6 429.5 270C429.5 269.9 429.5 269.7 429.5 269.5C429.5 269.3 429.5 269 429.5 268.7V268.6C429.5 268.4 429.5 268.5 429.5 268.7C429.5 268.6 429.6 268.4 429.6 268.3C429.6 268.2 429.7 268.1 429.7 268C429.8 267.7 429.5 268.3 429.7 267.9C429.9 268.1 430 268 430.1 267.9C430.1 267.8 429.8 268.2 430.1 267.9C430.6 267.5 430.8 266.7 430.4 266.1C430.3 266 430.3 265.9 430.2 265.8C429.4 265.3 428.3 265.4 427.6 266C425.5 267.8 425.5 270.8 426.7 273.1C427.9 275.6 430.2 277.9 433.1 278.3C434.5 278.5 436 278.1 437.1 277.1C438 276.2 438.6 275 439 273.8C439.4 272.6 439.4 271.4 439 270.2C438.4 268.8 437.4 267.5 436.2 266.6C433.8 264.7 430.2 263.9 427.6 266C427 266.4 426.8 267.2 427.2 267.8C427.3 267.9 427.4 268 427.5 268.1C428.3 268.7 429.4 268.6 430.1 267.9Z" fill="#0C41E2"/>
<path d="M437.5 265.1L432 268.3C431.8 269.5 432.1 270.6 432.9 271.5C434.3 273.5 434.9 273 434.9 273L440.7 268.2L437.5 265.1Z" fill="#EDF1FE"/>
<path d="M436.5 263.5L433 265.6L431.2 266.7C430.9 266.8 430.6 267.1 430.4 267.4C430.2 267.9 430.2 268.4 430.2 268.9C430.4 270.6 431.2 272.3 432.4 273.5C433.1 274.3 434.3 275.1 435.5 274.8C436 274.6 436.4 274.3 436.8 273.9L438.6 272.4L442.1 269.6C442.4 269.3 442.5 268.8 442.4 268.4C442.3 267.9 442.1 267.5 441.7 267.2L438.4 264.1C437.8 263.4 436.7 263.3 436 264C435.5 264.8 435.6 265.8 436.3 266.4L439.5 269.6L439.2 267.2L435.4 270.3L433.5 271.8L433.4 271.9C433.6 271.7 433.8 271.6 434 271.5C433.8 271.5 434.5 271.5 434.3 271.5C434.1 271.5 434.8 271.6 434.5 271.5C434.4 271.5 435 271.7 434.6 271.5C434.5 271.4 434.4 271.2 434.8 271.7L434.6 271.5C434.5 271.4 434.5 271.4 434.4 271.3C434.3 271.2 434.3 271.2 434.5 271.4L434.4 271.2C434.2 271 434 270.7 433.9 270.5C433.8 270.4 433.8 270.3 433.7 270.2C433.9 270.6 433.7 270.1 433.6 270C433.5 269.9 433.5 269.8 433.5 269.7C433.5 270 433.4 269.4 433.5 269.7C433.5 269.5 433.4 269.4 433.4 269.2C433.4 269 433.4 268.8 433.4 269.2C433.4 269.6 433.4 269.2 433.4 269.1C433.6 268.4 433.4 269 433.4 269.1L432.9 269.7L438.4 266.5C440.4 265.5 438.1 262.6 436.5 263.5Z" fill="#0C41E2"/>
<path d="M438.5 263.399C439.6 262.799 441.7 263.299 443.2 264.599C444.7 265.899 443.3 267.699 442.2 268.299C441.1 268.899 440.1 268.099 438.6 266.799C437.1 265.499 437.3 263.999 438.5 263.399Z" fill="#0C41E2"/>
<path d="M439.6 264.7L439.8 264.6L439.4 264.8C439.6 264.7 439.7 264.7 439.9 264.7L439.4 264.8C439.6 264.8 439.9 264.8 440.1 264.8L439.6 264.7C440 264.7 440.3 264.8 440.7 264.9L440.2 264.8C440.6 264.9 441 265.1 441.3 265.3L440.9 265.1C441.3 265.3 441.7 265.6 442 265.9L441.7 265.6C441.8 265.7 442 265.8 442.1 266L441.9 265.7C442 265.8 442.1 266 442.1 266.1L442 265.7C442 265.9 442.1 266 442.1 266.2V265.8C442.1 266 442 266.2 442 266.5L442.1 266.1C442 266.4 441.8 266.7 441.6 266.9L441.8 266.6C441.6 266.9 441.3 267.1 441 267.3L441.3 267.1C441.1 267.2 441 267.3 440.8 267.4L441.2 267.2C441.1 267.2 441 267.3 440.9 267.3L441.4 267.2C441.3 267.2 441.2 267.2 441.1 267.2H441.6C441.5 267.2 441.3 267.2 441.2 267.1L441.7 267.2C441.5 267.1 441.4 267.1 441.2 267L441.6 267.2C441 266.8 440.4 266.3 439.8 265.8L440.1 266.1C439.9 265.9 439.7 265.7 439.5 265.4L439.7 265.8C439.6 265.6 439.5 265.4 439.4 265.2L439.5 265.6C439.4 265.4 439.4 265.2 439.4 265V265.4C439.4 265.1 439.4 264.9 439.6 264.7L439.4 265.1C439.4 264.9 439.5 264.7 439.6 264.7L439.4 264.9C439.5 264.8 439.6 264.7 439.8 264.5L439.4 264.7H439.6C440 264.5 440.3 264.2 440.3 263.8C440.4 263.4 440.2 263 439.9 262.7C439.2 262 438.2 261.8 437.3 262.2C436.5 262.6 435.9 263.3 435.7 264.2C435.5 265 435.7 265.9 436.1 266.6C436.7 267.5 437.4 268.2 438.3 268.8C439 269.4 439.8 269.8 440.8 270C441.3 270.1 441.9 270.1 442.4 269.9C442.9 269.7 443.4 269.5 443.8 269.1C444.4 268.7 444.9 268.1 445.2 267.5C445.7 266.7 445.7 265.7 445.3 264.8C444.8 263.9 444.1 263.2 443.3 262.8C442.4 262.3 441.4 261.9 440.4 261.7C439.4 261.5 438.3 261.6 437.3 262.1C436.9 262.3 436.7 262.6 436.6 263C436.5 263.4 436.7 263.8 437 264.1C437.6 264.9 438.7 265.1 439.6 264.7Z" fill="#0C41E2"/>
<path d="M379.8 297.8C384.1 298.3 389.3 297.4 392.8 294.7C394.9 293.1 392.3 291.7 390.8 290.9C390 290.5 389.4 290.3 388.7 291C388 291.8 387.4 292.8 387 293.9C386.5 294.9 386.3 296 386.3 297.1C386.4 297.9 386.9 298.7 387.6 299.1C389.2 300.4 391.1 301.1 393.2 301.2C397.1 301.3 401 300.5 404.7 299C408.4 297.5 411.8 295.2 414.6 292.2C416 290.8 417.2 289.2 418.2 287.5C419 286.1 420.7 283.8 419.4 282.2C418.7 281.5 418 281 417.1 280.6C416.3 280.1 415.5 279.8 414.5 279.8C412.5 280 411.1 282.5 410.2 284.1C409.2 286.1 408.4 288.2 407.9 290.3C407.3 292.5 406.8 294.8 406.5 297C406.2 299.3 406.7 301.4 408.6 302.9C410.4 304.3 412.4 305.4 414.6 306C417.2 306.7 420 306.7 422.6 306.2C424.6 305.8 427.5 304.5 426.3 302C426.1 301.7 423.4 299.9 423.1 300.1C421.1 302.5 423.4 305.2 425.4 306.6C426.8 307.6 428.4 308.3 430 308.6C431.9 308.7 433.7 308.5 435.5 308C435.5 308 434.2 307 434 306.9C433.6 306.7 432.8 306 432.3 306.1C431 306.4 429.8 306.7 428.5 306.8C427.9 306.8 427.4 306.8 426.8 306.7C426.5 306.7 426.2 306.6 426 306.5C426.8 307.1 427 307.2 426.6 306.7C425.8 305.2 425.1 303.7 426.4 302.1L423.2 300.2C424 301.9 422.5 303.3 421 303.9C419.1 304.5 417.2 304.8 415.2 304.6C414.2 304.6 413.3 304.4 412.4 304.2C411.9 304.1 411.5 304 411 303.9C410.8 303.8 410.5 303.7 410.3 303.6C410.9 304 411.1 304 410.8 303.7C410.5 303.4 410.3 303 410.1 302.6C409.9 302.1 409.8 301.6 409.7 301.1C409.6 300.3 409.6 299.5 409.7 298.6C410.1 295.1 411 291.8 412.2 288.5C412.8 287 413.5 285.5 414.5 284.1C415.3 283 416.9 280.9 418.4 281.7L416.1 280.3C417.6 281.4 415.5 284.4 414.9 285.4C413.9 287 412.8 288.5 411.5 289.8C408.9 292.6 405.8 294.8 402.4 296.4C398.9 298 395.2 298.9 391.4 299C390.5 299 389.6 298.9 388.7 298.9C387.8 298.7 388.2 299 389.8 299.8C389.6 299.5 389.5 299.2 389.5 298.8C389.5 298.3 389.5 297.9 389.7 297.4C390 296 391.2 291.9 393.1 292.3L390.7 291C390.5 290.8 390.5 291.5 390.4 291.6C390.3 291.8 390.2 292 390 292.2C389.6 292.6 389.1 292.9 388.5 293.2C384.9 295.3 380.8 296.1 376.7 295.6C376.5 295.6 377.6 296.4 377.7 296.5C378.4 297.1 379.1 297.5 379.8 297.8Z" fill="#0C41E2"/>
<path d="M379.7 321.7C386.8 320.7 393.3 317.4 398.4 312.4C398.4 312.4 398.9 311.9 398.7 311.8C397.2 311 395.6 311.8 394.3 312.7C392.9 313.6 391.8 315 391.3 316.6C390.2 320.4 390.1 324.5 388.2 328.1C387.6 329.3 386.2 332.3 384.6 330.7C383 329.1 386.2 327.4 387.3 326.8C390.7 325.1 394.3 324.1 398 323.6C400.2 323.3 402.8 322.8 404.9 324C405.7 324.5 406.4 325.2 406.8 326.1C407 326.5 407 327 407 327.4C407 327.6 406.9 327.8 406.9 328C406.6 328.9 406.4 328.2 407.7 327.9H408C407.9 327.7 408.1 327.1 408.1 327C408.2 326.8 408.2 326.8 408 327C407.8 327.2 407.7 327.3 408.2 327.1C408.8 327.1 409.4 326.9 410.1 326.9C411.3 326.9 412.5 327 413.7 327.2C416.2 327.7 418.4 328.9 420.3 330.6C420.9 331.2 423.7 328.8 423.4 328.5C420.6 325.9 416.8 324.5 413 324.6C411.2 324.6 409.4 325.1 407.8 326.1C406.5 326.9 404.6 328.2 405 329.9C405.1 330 405.2 330 405.3 329.9C407.4 329.5 409.1 328.1 410.1 326.2C410.8 324.2 409.5 322.4 407.7 321.5C405.4 320.4 402.6 320.9 400.2 321.3C397.8 321.7 395.5 322.2 393.2 322.9C390.9 323.7 388.6 324.7 386.6 326C384.9 327.1 382.2 328.6 381.4 330.6C381 331.4 381.3 332.3 382.1 332.8H382.2C383.2 333.1 384.2 333 385.1 332.5C387.3 331.5 389.2 329.9 390.5 327.9C392 325.6 392.9 323 393.4 320.4C393.7 318.8 394 317.3 394.4 315.7C394.5 315.1 394.7 314.4 394.9 313.8C395 313.5 395.2 313.3 395.3 313C395.6 312.6 395.4 312.8 394.9 313.4C395.2 313.4 395.5 313.5 395.7 313.6L396 313C392.3 316.5 387.4 318.7 382.3 319.2C381.5 319.4 380.7 319.9 380.1 320.5C379.9 320.7 379.1 321.5 379.9 321.4L379.7 321.7Z" fill="#0C41E2"/>
<path d="M413.6 315C413.5 315.1 413.5 315.2 413.5 315.3C413.5 315.4 413.6 315.5 413.6 315.5V315.6L413.8 315.7C413.9 315.8 414 315.8 414.1 315.8C414.4 315.9 414.6 316 414.9 316.1L415.4 316.3L415.9 316.4L416.3 316.5C416.5 316.5 416.7 316.6 416.9 316.6H417.1H417.4H417.5C417.6 316.6 417.7 316.5 417.7 316.5L417.8 316.4C417.8 316.3 417.8 316.3 417.8 316.2V316.1C417.8 316 417.7 316 417.7 316C417.6 315.9 417.5 315.9 417.4 315.8C417.2 315.7 417.1 315.6 416.9 315.6L416.2 315.4C416 315.3 415.7 315.3 415.5 315.2L415.1 315.1C414.9 315 414.7 315 414.4 315H414.2C414.1 315 414.1 315 414.2 315.1L414.3 315.2V315.1C414.4 315.3 414.3 315.5 414.1 315.6H414.3H414.6L415 315.7L415.4 315.8L415.9 315.9L416.4 316L416.8 316.1L417.2 316.2L417.5 316.3L417.7 316.4L417.6 316.3V316.4C417.5 316.3 417.5 316.1 417.6 316C417.6 315.9 417.5 315.9 417.5 315.9C417.4 315.8 417.3 315.8 417.1 315.7C416.9 315.6 416.7 315.5 416.5 315.5L415.8 315.3L415.3 315.2C415 315.1 414.8 315.1 414.5 315H414C413.9 315 413.8 315 413.6 315Z" fill="#0C41E2"/>
<path d="M433.6 261.4L432.8 258.7C432.7 258.5 432.4 258.4 432.3 258.3C431.4 258 430.5 258 429.7 258C429.6 258 429.1 258.1 429.1 258.2L429.9 260.9C430 261.1 430.3 261.2 430.4 261.3C430.8 261.4 431.3 261.5 431.7 261.6C432.1 261.6 432.6 261.6 433 261.6C433.1 261.6 433.6 261.5 433.6 261.4Z" fill="#0C41E2"/>
<path d="M436.9 260.3L437.2 257.1C437.2 256.9 436.8 256.8 436.7 256.7C436.3 256.5 435.9 256.4 435.4 256.3C435 256.2 434.5 256.1 434.1 256.1C434 256.1 433.5 256.1 433.5 256.2L433.2 259.4C433.2 259.6 433.6 259.7 433.7 259.8C434.1 260 434.5 260.1 435 260.2C435.4 260.3 435.9 260.4 436.3 260.4C436.4 260.5 436.9 260.5 436.9 260.3Z" fill="#0C41E2"/>
<path d="M411.9 124.5H411.3C391.7 124.5 375.9 140.4 375.9 160C375.9 167.1 378 174 382 179.9L411.3 160L411.9 124.5Z" fill="#6A90FF"/>
<path d="M410.8 122.9C390.8 122.4 374.1 138.2 373.7 158.3C373.7 158.9 373.7 159.6 373.7 160.2C373.9 167.2 376.2 174 380.1 179.8C380.7 180.8 382.9 182 384.1 181.2L409.9 163.7C411.1 163 412.3 162.2 413.4 161.3C414.1 160.6 413.8 158.9 413.8 158L414.1 139.9L414.3 125.3C414.3 123.6 409.7 121.8 409.7 123.7L409.2 154.7L409.1 159.1L409.4 158.5L383.7 176L380 178.5L384 179.9C378 170.8 376.6 159.4 380.2 149.1C383.3 140.5 389.7 133.4 398 129.4C402.7 127.1 407.9 126 413.1 126.1C414.1 126.1 414.5 125.3 413.9 124.5C413.2 123.6 412 123 410.8 122.9Z" fill="#6A90FF"/>
<path d="M442.2 142.6C436 131.6 424.5 124.8 411.9 124.6L411.3 160L434.8 186.5C447.4 175.4 450.4 157.1 442.2 142.6Z" fill="#EDF1FE"/>
<path d="M444.5 141.4C438 130.2 426.2 123.2 413.2 123C412.2 123 409.7 124 409.7 125.3L409.2 156.5C409.1 157.9 409 159.3 409.1 160.7C409.2 161.6 410.4 162.4 410.9 163.1L422.9 176.7L432.6 187.6C433.5 188.6 435.6 187.5 436.4 186.8C442.4 181.5 446.6 174.4 448.3 166.6C450.1 157.9 448.7 149 444.5 141.4C443.7 140 439.3 142.3 440 143.6C447.7 157.5 445.3 175.4 433.4 186.1L437.2 185.3L416.6 162.1C415.7 160.9 414.8 159.9 413.7 158.9C413.5 158.8 413.7 159.3 413.7 159.1C413.7 158.9 413.7 158.8 413.7 158.6V156.3L414 138.1L414.2 123.7L410.7 126C422.9 126.4 434 133.1 440 143.6C440.8 145 445.2 142.8 444.5 141.4Z" fill="#6A90FF"/>
<path d="M417.4 153C420.1 150.4 422.9 148 425.8 145.6L434.4 138.2C434.7 137.9 434.8 137.1 434.7 136.7C434.6 136.1 434.3 135.4 433.9 134.9C433.2 134.1 432.2 133.5 431.3 134.3L422.7 141.7C419.9 144.1 417 146.5 414.3 149.1C413.5 149.9 414.2 151.6 414.8 152.3C415.4 153 416.5 153.8 417.4 153Z" fill="#6A90FF"/>
<path d="M415.4 141.6C418.9 137.3 422.9 133.5 427.2 130C427.5 129.8 427.1 129.2 427 129C426.7 128.5 426.2 128.1 425.8 127.7C425.2 127.3 424 126.4 423.2 127C418.9 130.4 414.9 134.3 411.4 138.5C411.2 138.8 411.4 139.3 411.6 139.5C411.9 140 412.4 140.4 412.8 140.8C413.3 141.2 413.8 141.4 414.4 141.6C414.7 141.8 415.2 141.9 415.4 141.6Z" fill="#6A90FF"/>
<path d="M418.7 166.6L442 146.8C443.2 145.8 440.6 141.6 439.7 142.4L416.4 162.2C415.3 163.1 417.9 167.3 418.7 166.6Z" fill="#6A90FF"/>
<path d="M425.6 173C426.9 171.3 428.4 169.7 430.1 168.3C431.9 166.8 433.9 165.6 435.7 164.3C439.3 161.6 442.6 158.6 445.7 155.2C446.3 154.6 443 150.9 442.7 151.2C439.6 154.5 436.3 157.5 432.7 160.2C430.9 161.5 428.9 162.7 427.2 164.1C425.5 165.5 423.9 167.1 422.6 168.9C422.3 169.3 423.5 170.8 423.8 171.1C423.8 171.4 425.3 173.3 425.6 173Z" fill="#6A90FF"/>
<path d="M431.4 178.4C437.8 175 441.9 168.8 447.3 164.3C447.4 164.2 446.5 163.9 446.7 163.9C446.1 163.7 445.6 163.5 445 163.4C444.4 163.2 443.9 163.1 443.3 163C443.1 163 442.7 162.9 442.5 163C437 167.5 433 173.8 426.6 177.1C426.5 177.2 427.4 177.6 427.2 177.5C427.8 177.7 428.3 177.9 428.9 178C429.5 178.1 430.7 178.7 431.4 178.4Z" fill="#6A90FF"/>
<path d="M385.1 188.3C394.3 201.9 412.7 205.4 426.3 196.2C427.4 195.5 428.4 194.7 429.4 193.8L409.7 171.6L385.1 188.3Z" fill="#EDF1FE"/>
<path d="M383.5 188.9C391.7 200.7 406.6 205.6 420.2 201.1C424.1 199.8 427.6 197.7 430.7 195C431.3 194.5 431.4 193.7 430.9 193.2L413.6 173.8L411.1 171.1C410.4 170.2 409.1 170 408.2 170.6L386.8 185L383.7 187.1C383.1 187.6 383.1 188.5 383.6 189.1C383.7 189.2 383.7 189.2 383.8 189.3C384.5 189.9 385.6 190 386.4 189.5L407.9 175L411 172.9L408.1 172.4L425.4 191.8L427.9 194.6L428.1 192.8C421.9 198.4 413.5 200.9 405.2 199.6C397.7 198.4 391 194.1 386.7 187.8C385.6 186 382.2 187 383.5 188.9Z" fill="#0C41E2"/>
<path d="M75.7001 285.1C75.7001 285.1 44.2001 308.5 45.3001 311.6C46.4001 314.7 52.1001 320.1 54.9001 316.4C57.7001 312.7 79.1001 288.1 79.1001 288.1L75.7001 285.1Z" fill="#0C41E2"/>
<path d="M73.8001 283.5C70.0001 286.3 66.2001 289.3 62.5001 292.2C56.8001 296.7 50.8001 301.2 45.8001 306.5C44.7001 307.6 42.9001 309.1 43.7001 310.8C45.0001 313.2 46.9001 315.2 49.1001 316.8C50.7001 318 53.1001 319.8 55.3001 319.2C56.5001 318.8 57.2001 317.7 57.9001 316.8C58.8001 315.7 59.7001 314.7 60.6001 313.6C63.1001 310.6 65.7001 307.6 68.3001 304.6C72.6001 299.7 76.8001 294.7 81.1001 289.8C81.3001 289.6 80.0001 288.4 79.9001 288.3L76.5001 285.2C76.1001 285 74.4001 283.3 73.8001 283.5C73.4001 283.7 74.8001 284.8 74.9001 284.9L78.3001 288L77.1001 286.5C69.2001 295.5 61.2001 304.4 53.6001 313.8C52.8001 314.8 52.1001 315.9 50.7001 316C50.3001 316 49.9001 316 49.5001 315.8C49.2001 315.7 48.7001 315.3 48.3001 315.3C48.6001 315.3 48.8001 315.9 48.4001 315.3C48.1001 314.8 47.7001 314.4 47.4001 314C46.9001 313.1 46.8001 312.9 47.3001 312.1C47.8001 311.3 48.4001 310.6 49.1001 309.9C53.8001 304.9 59.3001 300.7 64.7001 296.4C68.9001 293.1 73.1001 289.8 77.4001 286.6C77.8001 286.6 74.5001 283 73.8001 283.5Z" fill="#0C41E2"/>
<path d="M117.3 281.4C110.9 289.9 100.1 293.9 89.7001 291.5C84.4001 290.3 79.5001 287.4 75.9001 283.3C72.8001 279.8 71.7001 275 71.5001 270.4C71.0001 255.6 82.6001 243.3 97.4001 242.8C104.5 242.6 111.5 245.2 116.7 250.1C118.5 251.7 120 253.7 120.9 256C121.9 258.7 122.5 261.6 122.6 264.5C122.7 270.6 120.9 276.5 117.3 281.4C117 281.8 118.1 283.4 118.3 283.7C118.7 284.4 119.3 285.1 119.8 285.7C123.2 281.1 125.1 275.5 125.1 269.8C125.1 263.7 123 258 119.8 252.9C116.7 247.7 112.2 243.5 106.7 240.9C93.1001 234.9 77.2001 241 71.2001 254.6C70.0001 257.4 69.2001 260.3 69.0001 263.3C68.6001 269.1 70.0001 274.8 72.8001 279.9C75.8001 285.4 79.8001 290.3 85.4001 293.3C95.7001 298.8 108.4 297.1 116.9 289C118 288 118.9 286.9 119.8 285.7C120.1 285.3 119 283.7 118.8 283.4C118.4 282.7 117.9 282 117.3 281.4Z" fill="#6A90FF"/>
<path d="M99.9 253.399C101.3 253.199 102.7 253.099 104.1 253.299C104.6 253.399 105.1 253.499 105.6 253.699C105.6 253.699 106.1 253.899 105.9 253.799C105.7 253.699 105.6 253.599 105.4 253.499C105 253.199 104.6 252.899 104.2 252.499C103.9 252.199 104.3 252.599 104.3 252.699C104.6 253.099 105 253.399 105.4 253.699C105.9 254.099 106.4 254.499 106.9 254.899L107.3 255.199C107.5 255.299 107.7 255.399 107.9 255.499C108.1 255.499 108 255.299 107.9 255.099C107 253.899 105.9 252.899 104.7 252.099C103.8 251.399 102.7 250.799 101.6 250.499C99.9 250.099 98 250.099 96.3 250.399C96.1 250.399 96.2 250.599 96.3 250.799C96.6 251.199 97 251.499 97.4 251.899C97.9 252.299 98.4 252.699 98.9 253.099L99.3 253.399C99.4 253.199 99.7 253.299 99.9 253.399Z" fill="#6A90FF"/>
<path d="M112.6 262.299V263.499C112.6 263.799 112.7 264.099 112.9 264.399C113 264.699 113.2 264.999 113.5 265.199C113.7 265.399 114 265.599 114.3 265.699C114.6 265.899 114.9 265.899 115.2 265.899L115.8 265.799C116.2 265.699 116.5 265.499 116.8 265.199L117.1 264.699C117.3 264.299 117.3 263.899 117.3 263.499V262.299C117.3 261.999 117.2 261.699 117 261.399C116.9 261.099 116.7 260.799 116.4 260.599C116.2 260.399 115.9 260.199 115.6 260.099C115.3 259.999 115 259.899 114.7 259.899L114.1 259.999C113.7 260.099 113.4 260.299 113.1 260.599L112.8 261.099C112.6 261.499 112.5 261.899 112.6 262.299Z" fill="#6A90FF"/>
<path d="M172.1 413.799C172.1 413.799 161.8 307.999 164.7 307.399C167.6 306.799 342.6 302.799 343.7 307.399C344.8 311.999 337.5 411.599 334.2 413.799C330.9 415.999 172.4 416.099 172.1 413.799Z" fill="#EDF1FE"/>
<path d="M173.4 414.9C172.9 409.6 172.4 404.2 171.9 398.9C170.8 387 169.8 375.1 168.8 363.2C167.8 351.1 166.8 339 166.1 326.9C165.9 322.7 165.6 318.5 165.6 314.4C165.6 313.1 165.6 312 165.7 310.7C165.7 310.3 165.8 309.9 165.8 309.5C165.9 309.3 166 308.9 165.9 309C166 308.9 165.7 309 166 309H166.6L168.7 308.9C171.3 308.8 174 308.7 176.6 308.6C185.7 308.3 194.7 308.1 203.8 307.9C216 307.7 228.3 307.4 240.5 307.3C253.6 307.1 266.7 307 279.8 306.9C291.5 306.8 303.1 306.8 314.8 307C322.7 307.1 330.6 307.2 338.5 307.8C339.6 307.9 340.7 308 341.9 308.2C342.3 308.3 342.7 308.3 343.1 308.4L343.6 308.5C343.8 308.5 344.1 308.6 343.8 308.6C344.1 308.7 344.3 309 344.1 308.7C344 308.6 342.2 306.8 342.6 306.5C342.6 306.6 342.6 306.7 342.6 306.8C342.6 307.7 342.7 308.6 342.6 309.5C342.5 318.7 341.7 328 341.1 337.3C340.2 350.5 339.1 363.7 337.9 376.9C337 387 336.1 397.3 334.4 407.3C334.2 408.6 334 409.8 333.6 411.1C333.5 411.5 333.4 411.8 333.2 412.2C333.1 412.5 333.2 412.4 333 412.6C332.8 412.8 332.8 412.7 332.7 412.7C332.4 412.8 332.2 412.8 331.9 412.8C331 412.9 330 413 329.1 413C321.5 413.5 313.9 413.6 306.3 413.7C294.5 413.9 282.8 414 271 414.1C257.9 414.2 244.8 414.2 231.7 414.1C220.1 414.1 208.4 414 196.8 413.7C189.4 413.6 182 413.5 174.7 412.9C173.9 412.8 173.1 412.8 172.2 412.7C172 412.7 171.7 412.6 171.5 412.6H171.4C172.3 413.2 172.9 412.7 173.4 414.9C173.2 414.1 172.7 413.4 172 412.8C171.8 412.6 170.8 411.9 170.9 412.7C171.3 415.3 173.5 415.7 175.6 415.9C178.3 416.1 181.1 416.2 183.8 416.3C193.4 416.7 203.1 416.8 212.8 416.9C225.6 417 238.5 417.1 251.3 417.1C264.3 417.1 277.4 417 290.4 416.9C300.7 416.8 311 416.7 321.3 416.3C324.5 416.2 327.7 416.1 330.9 415.9C331.9 415.8 332.8 415.8 333.8 415.7C334.3 415.7 334.8 415.6 335.3 415.4C335.8 415.1 335.9 414.4 336.1 413.9C336.4 412.7 336.7 411.5 336.9 410.3C337.6 406.1 338.1 401.9 338.6 397.7C340.1 385 341.1 372.3 342.2 359.5C343.2 347.3 344.1 335 344.7 322.8C344.9 319 345.1 315.2 345.2 311.4C345.2 309.2 345.3 306.7 342.9 305.6C341.4 305 339.8 304.7 338.2 304.7C335.1 304.4 331.9 304.2 328.8 304.1C318.9 303.7 309 303.6 299 303.6C286.2 303.6 273.5 303.6 260.7 303.7C247.5 303.8 234.4 304 221.2 304.3C210 304.5 198.7 304.7 187.4 305C180.6 305.2 173.8 305.3 167 305.6C166.3 305.6 165.5 305.6 164.8 305.7C164.5 305.7 164.1 305.7 163.8 305.8C163.4 306.1 163.4 307.1 163.4 307.5C163.3 308.8 163.3 310.1 163.3 311.3C163.4 321.1 164.2 331 164.9 340.8C165.9 353.8 167 366.8 168.1 379.7C169 389.2 169.8 398.7 170.7 408.2C170.8 409.6 171 411 171.1 412.4C171.3 413.3 171.7 414 172.4 414.6C172.6 415.1 173.4 415.7 173.4 414.9Z" fill="#0C41E2"/>
<path d="M175.1 317.899H333.7L328.9 404.499L180.4 406.399L175.1 317.899Z" fill="#6A90FF"/>
<path d="M175.6 319.3H327.7C329.8 319.3 331.9 319.4 333.9 319.3H334.2L331.9 317.6L331.4 326.2L330.2 347L328.8 372L327.6 393.6L327.2 400.8C327 401.9 327 403.1 327 404.2V404.3L328.3 403.2L313.5 403.4L278 403.9L235.1 404.5L198 405L185.8 405.2C183.9 405.2 181.9 405.1 180 405.3H179.8L182.1 407L181.6 398.2L180.3 377.1L178.8 351.5L177.5 329.4C177.3 325.8 177.2 322.2 176.9 318.6C176.9 318.5 176.9 318.5 176.9 318.4C176.8 316.7 173.1 315.9 173.3 317.9L173.8 326.7L175.1 347.8L176.6 373.4L177.9 395.5C178.1 399.1 178.2 402.7 178.5 406.3C178.5 406.4 178.5 406.4 178.5 406.5C178.6 407.6 179.9 408.2 180.8 408.2L195.6 408L231.1 407.5L274 406.9L311.1 406.4C317.1 406.3 323.1 406.5 329.1 406.2H329.3C330 406.2 330.6 405.7 330.6 405.1L331.1 396.5L332.3 375.8L333.7 350.8L334.9 329.2L335.3 322C335.4 320.9 335.5 319.7 335.5 318.6V318.5C335.6 317.4 334 316.8 333.2 316.8H194.2C187.8 316.8 181.3 316.6 174.9 316.8H174.6C174 316.7 173.4 317.2 173.3 317.9C173.3 318 173.3 318.2 173.3 318.3C173.8 318.9 174.7 319.4 175.6 319.3Z" fill="#6A90FF"/>
<path d="M256.5 310.699C256.5 310.699 254.1 310.799 255.3 313.399C256.5 315.999 258.5 315.099 258.9 313.399C259.1 312.199 258.3 310.999 257.1 310.799C256.9 310.699 256.7 310.699 256.5 310.699Z" fill="#0C41E2"/>
<path d="M175.1 422.3C175.1 422.3 152.7 452.7 154.7 453.1C156.7 453.5 352.8 453.1 353.6 450.7C354.4 448.3 334.9 424.1 333.7 422.3C332.5 420.5 175.1 422.3 175.1 422.3Z" fill="#EDF1FE"/>
<path d="M173.5 421.3C169.2 427.1 165.1 433 161 438.9C158.6 442.4 156.2 445.8 154.1 449.5C153.1 451.2 151.7 454.6 155 454.9C157.7 455.2 160.4 455 163.1 455C169.1 455 175.1 455 181.1 455C189.5 455 198 455 206.4 455C216.3 455 226.2 455 236.1 454.9C246.5 454.9 256.9 454.8 267.3 454.7C277.4 454.6 287.4 454.5 297.5 454.4C306.2 454.3 314.9 454.1 323.6 454C330.1 453.9 336.6 453.7 343.1 453.5C346.6 453.5 350 453.3 353.4 452.8C355.2 452.5 355.7 451.2 355 449.5C354.3 447.9 353.5 446.5 352.5 445.1C351.2 443.1 349.7 441.1 348.3 439.1C345.2 434.9 342.1 430.8 338.9 426.7C337.9 425.4 336.8 424.1 335.8 422.7C335.2 422 334.8 421.1 333.9 420.8C332.8 420.5 331.7 420.4 330.6 420.4C328.5 420.3 326.4 420.2 324.3 420.2C317.3 420 310.4 420 303.4 420C294.1 420 284.7 420 275.4 420C265.1 420 254.7 420.1 244.4 420.2C234.5 420.3 224.6 420.3 214.7 420.4L190.7 420.6L176.8 420.7H175C172.6 420.7 173.1 424.2 175.2 424.2L182.5 424.1L201.7 423.9L228.5 423.7C238.6 423.6 248.8 423.6 258.9 423.5C268.8 423.4 278.7 423.4 288.6 423.4C297 423.4 305.4 423.4 313.7 423.5C319.1 423.5 324.6 423.6 330 423.8C331.2 423.8 332.3 424 333.5 424.1C333.7 424.1 332.9 424 333.3 424.1C333.7 424.2 333 424 333 423.9C333 423.8 332.2 423 332.4 423.3C332.5 423.4 332.6 423.6 332.7 423.7C333.6 424.9 334.5 426 335.4 427.2C338.5 431.2 341.5 435.1 344.5 439.2C347.1 442.6 349.6 446.2 351.7 449.9C351.9 450.3 351.8 450.1 351.7 449.9C351.7 450 351.8 450.1 351.9 450.3C352 450.5 351.9 450.5 352 450.6C352.1 450.9 352 450.2 352 450.5C352.1 450.1 352.3 449.6 352.6 449.4C352.6 449.4 353.1 449.3 352.7 449.4L352.2 449.5C350.9 449.7 349.6 449.8 348.4 449.8L347 449.9H346.3H345.9C345.5 449.9 346.1 449.9 345.8 449.9C344.6 450 343.4 450 342.2 450C339.3 450.1 336.4 450.2 333.5 450.3C325.8 450.5 318.1 450.7 310.5 450.8C301.1 450.9 291.7 451.1 282.3 451.2C272.1 451.3 262 451.4 251.8 451.5C241.6 451.6 231.5 451.6 221.4 451.7C212.3 451.7 203.1 451.8 194 451.8C186.7 451.8 179.3 451.8 172 451.8C167.4 451.8 162.8 451.8 158.1 451.8C157.1 451.8 156.1 451.7 155.1 451.8C155 451.8 154.9 451.8 154.8 451.8H154.7C155.4 451.5 156.3 453 156.4 453.5C156.4 453.2 156.4 454 156.4 453.7C156.4 453.3 156.4 453.6 156.4 453.6C156.5 453.4 156.6 453.1 156.7 452.9C157 452.3 157.3 451.7 157.7 451.1C162.3 443.3 167.7 436.1 173 428.8C174.2 427.1 175.5 425.3 176.8 423.6C178.1 421.9 174.8 419.5 173.5 421.3Z" fill="#0C41E2"/>
<path d="M157.2 456.7L154.7 453.2L353.6 450.8C353.6 450.8 352.9 455.4 349 456.8C345.1 458.2 162.4 459.3 157.2 456.7Z" fill="#0C41E2"/>
<path d="M159.3 455.399L156.8 451.799L153.6 454.699L158.9 454.599L173.4 454.399L194.9 454.099L220.9 453.799L249.6 453.399L278.5 452.999L305.4 452.699L328.2 452.399L344.6 452.199C347.1 452.199 349.8 452.399 352.4 452.099C352.5 452.099 352.6 452.099 352.7 452.099L351.6 451.399C351.6 451.099 351.6 451.299 351.6 451.499C351.5 451.899 351.4 452.299 351.2 452.699C350.9 453.499 350.4 454.199 349.8 454.799C349.5 454.799 350.3 454.799 350.2 454.699C350.1 454.699 349.9 454.699 349.8 454.699C348.8 454.799 347.8 454.799 346.8 454.899C342.6 455.099 338.3 455.199 334 455.299C327.4 455.399 320.8 455.599 314.3 455.599C306.1 455.699 297.9 455.799 289.7 455.899C280.6 455.999 271.5 455.999 262.4 456.099C253.1 456.099 243.7 456.199 234.3 456.199C225.5 456.199 216.7 456.199 207.9 456.099C200.3 456.099 192.8 455.999 185.2 455.899C180 455.799 174.1 455.699 168.6 455.499C165.6 455.499 162.6 455.299 159.7 454.899L159.3 454.799C159 454.799 159.7 454.999 159.4 454.799C157.9 454.099 154.1 457.099 155.6 457.799C156.4 458.099 157.2 458.299 158 458.299C159.5 458.499 161 458.499 162.6 458.599C167.7 458.799 172.9 458.999 178 459.099C185.4 459.199 192.9 459.299 200.3 459.399C209.1 459.499 217.8 459.499 226.5 459.499C235.9 459.499 245.4 459.499 254.8 459.499C264.2 459.499 273.6 459.399 282.9 459.299C291.4 459.199 300 459.099 308.5 458.999C315.5 458.899 322.5 458.799 329.4 458.699C334.1 458.599 338.7 458.499 343.4 458.299C344.6 458.299 345.9 458.199 347.1 458.099C349.9 457.799 352.4 456.299 354.1 454.099C355.1 452.699 355.8 451.099 356.1 449.399C356.2 448.799 355.3 448.699 355 448.699L349.7 448.799L335.2 448.999L313.7 449.299L287.7 449.599L259 449.999L230.1 450.399L203.2 450.699L180.5 450.999L164.1 451.199C161.5 451.199 158.9 451.199 156.3 451.299H156C155.1 451.299 151.9 452.899 152.8 454.199L155.1 457.799C156 459.399 160.2 456.699 159.3 455.399Z" fill="#0C41E2"/>
<path d="M190.3 430.799L203.2 430.699L233.8 430.499L270.9 430.299L303 429.999C308.2 429.999 313.4 429.999 318.6 429.899H318.8C319.7 429.899 320.5 429.299 320.5 428.399C320.5 427.499 319.9 426.699 319 426.699C318.9 426.699 318.8 426.699 318.8 426.699L305.9 426.799L275.3 426.999L238.2 427.199L206.1 427.399C200.9 427.399 195.7 427.399 190.5 427.499H190.3C189.4 427.499 188.6 428.099 188.6 428.999C188.6 429.899 189.2 430.699 190.1 430.699C190.2 430.799 190.2 430.799 190.3 430.799Z" fill="#0C41E2"/>
<path d="M187.4 438.2L201 438.1L233.5 437.9L272.8 437.7L306.9 437.5L318.1 437.4C319.9 437.4 321.7 437.5 323.4 437.4C323.5 437.4 323.6 437.4 323.6 437.4C325.1 437.4 323.7 434 322.3 434L308.7 434.1L276.2 434.3L236.9 434.5L202.8 434.7L191.7 434.8C189.9 434.8 188.1 434.7 186.4 434.8H186.2C184.6 434.8 186 438.2 187.4 438.2Z" fill="#0C41E2"/>
<path d="M181.4 444.6L195.9 444.5L230.7 444.3L272.6 444.1L308.8 443.9C314.7 443.9 320.6 443.9 326.4 443.8H326.6C327.5 443.9 328.3 443.6 329.1 443.1C329.6 442.5 328.7 442.5 328.3 442.5L313.8 442.6L279 442.8L237.1 443L200.9 443.2C195 443.2 189.2 443.2 183.3 443.3H183.1C182.2 443.2 181.3 443.5 180.6 444C180.1 444.6 181 444.6 181.4 444.6Z" fill="#0C41E2"/>
<path d="M231.4 424.399L223.1 445.799L221.9 448.799C221.3 450.299 225 450.199 225.6 448.799L233.9 427.399L235.1 424.399C235.6 422.899 231.9 422.999 231.4 424.399Z" fill="#0C41E2"/>
<path d="M253.1 423.7V447.8C253.1 449.6 256.7 450.6 256.7 448.5V424.4C256.8 422.6 253.1 421.6 253.1 423.7Z" fill="#0C41E2"/>
<path d="M274.7 424.499L282.7 445.299L283.8 448.299C284.5 450.199 287.9 448.699 287.2 446.799L279.2 425.999L278.1 422.999C277.4 421.099 274 422.599 274.7 424.499Z" fill="#0C41E2"/>
<path d="M200 425.599L187.6 445.599L185.8 448.399C185.4 449.099 186.3 449.099 186.8 448.999C187.7 448.899 188.5 448.499 189.1 447.899L201.5 427.899L203.3 425.099C203.7 424.399 202.8 424.399 202.3 424.499C201.4 424.499 200.6 424.899 200 425.599Z" fill="#0C41E2"/>
<path d="M302.2 425.299C302.3 425.399 301.9 424.999 302.2 425.299C302.3 425.499 302.5 425.699 302.6 425.899C303 426.399 303.4 426.999 303.7 427.499C304.9 429.199 306 430.899 307.1 432.699C309.5 436.399 311.9 440.199 314.3 443.999L315.9 446.599C316.4 447.399 317.2 447.899 318.1 447.999C318.6 448.099 319.7 447.899 319.2 447.099C315.2 440.699 311.2 434.199 306.9 427.899C306.3 426.699 305.5 425.599 304.5 424.699C303.8 424.099 302.9 423.799 302 423.999C301.4 424.199 301.7 424.999 302.2 425.299Z" fill="#0C41E2"/>
<path d="M222.1 354.4H193.4L194.8 355.7L193.8 334.8L191.5 336.6H221.2L219.8 335.3V356.2C219.8 358.3 223.5 357.7 223.5 355.8V334.9C223.4 334.2 222.9 333.6 222.1 333.6H192.4C191.4 333.6 190 334.1 190.1 335.4L191.1 356.3C191.2 357 191.8 357.6 192.5 357.6H221.2C222.2 357.7 223.1 357.1 223.4 356.2C223.6 355.5 223.1 354.7 222.4 354.5C222.4 354.4 222.3 354.4 222.1 354.4Z" fill="#EDF1FE"/>
<path d="M220.6 385.599H191.9L194.6 387.199V366.299L193.9 366.699H222.6L219.9 365.099V385.999C219.9 386.999 223.3 388.299 223.3 387.199V366.299C223.3 365.399 221.3 364.699 220.6 364.699H191.9C191.6 364.699 191.2 364.699 191.2 365.099V385.999C191.2 386.899 193.2 387.599 193.9 387.599H222.6C223.3 387.599 223.5 387.199 223 386.699C222.3 386.099 221.5 385.699 220.6 385.599Z" fill="#EDF1FE"/>
<path d="M237.5 350.2C242.1 348.2 246.1 345.2 249.5 341.6C250.2 340.7 250 339.5 249.1 338.8C248.9 338.6 248.6 338.5 248.3 338.4C245.6 338.1 243.2 340 242.9 342.7C242.9 343.1 242.9 343.6 242.9 344C243.3 347.4 246.3 349.6 249.5 350.2C252.8 350.7 256.1 350.2 259.2 348.9C262.3 347.7 265.2 346 267.7 343.7C269.8 341.8 271.5 338.9 270.4 336C269.9 334.6 268.7 333.6 267.2 333.4C265.6 333.2 264.2 334.4 263.4 335.7C260.3 340.4 260.6 348.2 267.1 349.6C270.9 350.2 274.8 349.9 278.4 348.5C281.3 347.5 285.9 345.2 284.4 341.4C284.1 340.3 283 339.7 282 339.9H281.9C280 340.6 279.3 342.8 279.7 344.7C280.3 347 282.3 348.7 284.6 349C286.9 349.4 289.2 349.3 291.4 348.7C293.6 348.4 295.5 347.1 296.7 345.2H294C296.5 348 300.3 349.3 304 348.7C306.3 348.3 305.1 344.9 303.1 345.2C300.7 345.7 298.2 344.8 296.5 343.1C295.8 342.3 294.4 342 293.8 343.1C292.5 345.4 289.3 345.5 287 345.6C286 345.6 284 345.8 283.3 344.7C283 344.2 283.1 343.6 283.5 343.2C283.6 343.2 283.6 343.1 283.7 343.1L281.2 341.7C281.8 343.3 278.7 344.4 277.6 344.8C275.4 345.6 273.2 346.1 270.9 346.2C269.3 346.3 266.6 346.5 265.6 345C264.8 343.8 265.1 341.9 265.5 340.5C265.7 339.7 265.9 339 266.3 338.3C266.5 337.9 266.7 337.5 267.1 337.2C267.2 337.1 267.4 337 267.4 336.9C267.5 336.8 267.6 336.8 267.6 336.8L267.3 336.6C267.8 338.2 266.5 339.8 265.4 340.8C262.2 343.7 258.3 345.6 254.1 346.5C252 346.9 249.2 347.1 247.5 345.7C246.8 345.1 246.4 344.2 246.5 343.3C246.7 342.4 247.5 341.7 248.5 341.8L247.1 338.7C244 342.2 240.1 344.9 235.9 346.8C233.8 347.8 235.6 351 237.5 350.2Z" fill="#EDF1FE"/>
<path d="M240.1 381.799C244.7 381.499 248.9 378.999 251.3 374.899C251.7 373.999 251.2 372.899 250.3 372.499C250.2 372.499 250.1 372.399 250.1 372.399C248.2 371.899 246.1 372.699 245.8 374.799C245.5 376.899 247.2 378.899 249.1 379.699C253.4 381.599 258.2 378.399 261.8 376.199C265.7 373.899 269.9 371.299 272.9 367.999C275.3 365.399 277.9 359.499 273 357.799C269.1 356.499 265.8 360.399 264.9 363.799C264 367.699 265.1 371.799 267.9 374.699C270.5 377.699 274.2 379.599 278.1 379.999C281.4 380.299 285.7 379.299 287.1 375.799C287.9 374.099 287.1 372.099 285.4 371.299C285.2 371.199 284.9 371.099 284.7 371.099C282.1 370.699 281 373.599 282.2 375.599C283.4 377.599 286.1 378.599 288.2 378.799C290.6 379.099 293.1 378.599 295.1 377.299C295.9 376.799 295.5 375.599 295 374.999C294.4 374.299 293.3 374.199 292.5 374.699C290.7 375.799 287.2 376.399 285.5 374.699C284.9 374.199 285.6 374.299 284.6 373.899C283.6 373.499 284.1 373.699 283.7 374.399C283.2 375.199 282.4 375.899 281.5 376.299C277.5 377.999 272.5 375.699 270 372.399C268.5 370.599 267.9 368.399 268.2 366.099C268.5 364.099 269.6 361.699 271.7 360.999C272 360.899 272.5 360.899 272.5 360.899C272.3 360.699 272.4 361.399 272.4 361.499C272.4 361.799 272.3 361.999 272.2 362.199C271.8 363.399 271.2 364.499 270.3 365.399C268.4 367.399 266.2 369.199 263.8 370.599C261.1 372.499 258.3 374.199 255.4 375.699C254.1 376.499 252.6 376.899 251.1 376.999C250.6 376.999 250 376.799 249.6 376.399C249.5 376.299 249.4 376.099 249.4 375.899C249.4 375.499 249.9 375.399 249.5 375.299L248.3 372.799C246.4 376.099 243 378.299 239.2 378.499C238.5 378.599 237.9 379.199 238 379.899C238 379.999 238 380.099 238.1 380.199C238.2 381.299 239.1 381.799 240.1 381.799Z" fill="#EDF1FE"/>
<path d="M119.1 399.701C112.4 401.901 105 399.001 100.6 393.701C98.1 390.701 96.1 386.601 96.7 382.501C96.9 380.801 97.6 379.301 98.7 378.001C99.2 377.401 99.8 376.901 100.5 376.501C100.9 376.301 101.4 376.101 101.8 376.001C101.9 376.001 102 376.001 102.1 376.001C101.7 376.001 102 375.901 102.1 376.101C103.4 379.001 100.8 381.901 98.1 382.701C94.7 383.801 91.1 381.501 89.1 378.801C86.5 375.301 85.8 370.701 85.2 366.501C84.9 364.001 84.6 361.601 84.5 359.101C84.4 358.001 84.4 356.801 84.4 355.701C84.4 355.101 84.4 354.401 84.4 353.701C84.5 353.301 84.5 352.801 84.5 352.401C84.5 352.501 84.2 352.601 84.2 352.601C84.3 352.701 84.4 352.701 84.6 352.701C84.9 352.901 85.1 353.101 85.3 353.401C85.6 353.901 85.8 354.501 85.9 355.101C86 356.701 85.3 358.301 83.9 359.201C82.5 360.101 80.7 360.401 79.1 360.001C79 359.901 78.8 359.901 78.7 359.901L78.4 359.801C78.9 360.801 79.1 360.901 79 360.401C79.1 359.701 79.1 359.001 79.1 358.301L79.3 354.001C79.4 351.301 74.9 349.901 74.8 353.101V357.901C74.7 359.701 74.6 361.401 75.9 362.901C77.6 364.901 81.1 365.301 83.5 364.801C88.2 364.001 91.3 359.501 90.5 354.901C90.4 354.301 90.2 353.701 90 353.201C89.1 350.701 86.9 348.401 84.2 348.101C82.6 347.901 81.1 348.701 80.5 350.201C80.1 351.701 79.9 353.301 80.1 354.901C80.2 361.401 80.6 368.301 82.6 374.501C84.4 380.101 87.9 385.301 93.8 387.201C99 388.901 104.9 386.501 106.8 381.101C107.7 378.401 107.2 375.501 105.4 373.301C103.1 370.701 99.9 371.101 97.2 372.901C92.4 376.301 91.3 383.001 93 388.301C96.6 399.801 109.6 408.101 121.4 404.201C124 403.301 121.6 398.901 119.1 399.701Z" fill="#0C41E2"/>
<path d="M69.2 234.9C68.5 228.8 69.3 222.6 71.4 216.8C73 212.4 75.4 208.4 78.3 204.8C78.8 204.2 79.3 203.6 79.9 203C80.5 202.4 81 201.7 81.6 201.5L79.8 201.8H80.1L78.3 201.7C79.1 201.8 79.2 203.3 79.2 203.9C79 205 79 206.1 79.1 207.2L80.9 206.5C80.1 206.6 78.1 205.5 77.2 205C76.1 204.4 74.3 203.6 73.7 202.3C73.4 201.8 73.5 201.1 73.8 200.6C73.9 200.4 74.4 200.2 74.5 200C74.4 200.2 72.6 199.9 73.9 200.1C75.8 200.4 77.7 200.4 79.6 199.9C80.2 199.8 81.2 199.5 80.4 199C79.6 198.5 77.7 198.8 77 199C77.4 198.9 78.1 199.1 77.3 198.9L76.4 198.8C75.8 198.8 75.2 198.7 74.6 198.7C73.3 198.7 72 198.9 70.7 199.4C69 200.1 68 201.6 69.3 203.3C70.6 205 72.9 205.9 74.7 206.7C77.1 207.7 79.8 208 82.4 207.6C82.6 207.6 84.3 207.4 84.2 206.9C83.8 205 85.1 202.7 83.4 201.2C81.9 199.9 78.4 200.4 76.9 201.5C75.3 202.8 73.9 204.3 72.7 206C71.4 207.7 70.3 209.4 69.3 211.2C65.2 218.5 63.5 226.9 64.4 235.3C64.4 236.2 69.4 235.8 69.2 234.9Z" fill="#0C41E2"/>
<path d="M160.5 98.2002C165.2 92.2002 171.8 87.9002 179.2 86.1002C182.9 85.1002 186.7 84.8002 190.5 85.2002C190.7 85.2002 191.3 85.4002 191.5 85.4002L190.8 84.4002C190.4 83.2002 190.2 83.0002 189.9 83.7002C189.8 83.8002 189.6 84.0002 189.5 84.2002C188.6 85.0002 187.7 85.8002 186.8 86.5002C186.6 86.7002 185.5 87.4002 185.4 87.7002C185.4 87.8002 185.8 88.9002 185.5 87.9002C185.2 87.1002 185 86.3002 184.9 85.4002C184.7 84.1002 184.5 82.8002 184.3 81.4002C184.2 80.7002 183.6 78.5002 184.1 78.1002C184.6 77.7002 186.6 78.1002 187.3 78.2002C188.5 78.4002 189.7 78.9002 190.7 79.5002C191.3 79.9002 192.4 80.4002 192.6 79.2002C192.5 78.0002 191.9 76.9002 190.9 76.2002C188.5 74.5002 185.7 73.7002 182.8 73.7002C181.6 73.7002 180.6 74.1002 180.4 75.5002C180.4 77.0002 180.6 78.4002 180.9 79.9002C181.3 82.7002 181.6 85.9002 183 88.4002C183.7 89.7002 184.7 90.8002 186 91.6002C187.5 92.4002 188.5 91.6002 189.7 90.6002C190.9 89.7002 192 88.8002 193 87.7002C193.9 86.5002 193.9 84.8002 193 83.6002C191.4 81.0002 188.7 80.9002 186 80.8002C180.8 80.7002 175.7 81.8002 171 83.9002C165.7 86.2002 161.1 89.7002 157.6 94.2002C156.4 95.7002 159.6 99.4002 160.5 98.2002Z" fill="#0C41E2"/>
<path d="M297.5 82.7002C302.1 81.0002 308.2 80.7002 312.7 83.1002C316.7 85.3002 319.4 90.1002 320.5 94.4002C321 96.5002 321.9 100.2 319.1 101C318.7 101.1 318.2 101.1 317.8 101.1C316.7 101.2 319.8 103 319.4 101.9C319.3 101.6 319.1 101.4 319 101.1C318.6 99.8002 318.8 98.5002 319.4 97.3002C320.6 94.9002 323.2 93.6002 325.6 92.8002C328 92.0002 330.6 91.6002 333.1 91.7002C335.6 91.7002 338.1 92.2002 340.5 93.1002C342.5 94.0002 344.3 95.3002 345.6 97.0002C349 100.9 350.9 105.8 351.1 111C351.2 112.1 351.1 113.2 350.8 114.3C350.6 114.8 350.3 115.3 349.8 115.6C349.6 115.7 349.3 115.7 349.2 115.8C348.6 115.8 348.8 116 349.9 116.4C350.9 117.2 351.1 117.3 350.7 116.7C350.3 115.6 350.4 114.3 351 113.3C351.7 112.2 352.6 111.4 353.8 110.8C356 109.7 358.5 109.4 360.9 110C363.1 110.5 364.4 111.7 365.8 113.4C367.6 115.7 369 118.3 370.1 121.1C370.9 123 372.7 127.1 369.2 127.4C369 127.4 368.9 127.4 368.7 127.4L368.3 127.3C369.9 128.6 370.5 128.9 370.1 128.3C369.8 127.7 369.7 127 369.6 126.4C369.7 125 370.2 123.7 371.1 122.7C373 120.4 376 119.3 378.3 117.7L374 115.4C375.1 116.9 375.8 118.7 376 120.6C376.1 121.3 377.4 121.9 377.9 122.2C378 122.3 380.3 123.3 380.3 123.1C380.2 121.1 379.5 119.2 378.3 117.6C377.7 116.9 376.9 116.3 376.1 115.9C375.7 115.7 374.5 114.9 374 115.2C371.2 117.1 367.6 118.3 365.9 121.5C365.2 122.8 365 124.4 365.6 125.8C366.3 127.2 367.9 128.2 369.2 128.9C371 129.8 374.9 131.2 375.6 128.2C376 126.5 374.9 124.7 374.3 123.2C373.6 121.6 372.8 120 372 118.5C368.5 112.6 362 107.5 355 107.2C352 107.1 348.6 108.1 346.9 110.8C344.6 114.3 348.2 116.8 351.1 118C352.3 118.5 353.9 118.9 354.9 117.7C355.9 116.5 355.7 114.5 355.6 113.1C355.4 109.8 354.6 106.6 353.1 103.7C349.8 97.3002 343.6 92.7002 336.9 90.4002C330.9 88.4002 323 88.3002 317.6 92.2002C315.1 94.0002 313.6 97.7002 315.8 100.3C317.2 101.7 318.9 102.8 320.8 103.4C322 103.9 323.3 103.8 324.4 103.2C327 101.5 325.2 96.5002 324.4 94.2002C323.2 91.2002 321.3 88.4002 318.9 86.2002C313.7 81.3002 306.2 78.0002 298.9 78.8002C297.2 79.0002 295.4 79.4002 293.8 80.0002C293.2 80.2002 294.9 81.2002 295 81.3002C295.3 81.7002 296.9 82.9002 297.5 82.7002Z" fill="#0C41E2"/>
<path d="M401 214.9C402.8 218.7 404 222.7 404.4 226.9C404.6 229 404.7 231.1 404.5 233.3C404.4 234.3 404.3 235.3 404.2 236.3C404.1 237.1 404.1 238.9 403.2 239.2C403 239.2 402.8 239.2 402.7 239.2C402 239.1 402.3 239.3 403.6 239.5C403.5 239.3 402.7 238.8 402.6 238.5C402 237.8 401.7 236.8 401.9 235.9C402.4 234.3 404.8 233.8 406.2 233.5C406.7 233.4 407.2 233.3 407.7 233.3H408.5C407.6 232.9 407.3 232.8 407.8 233.2C408.2 233.7 408.6 234.3 408.9 234.9C409.5 236.3 409.1 237.8 408 238.8C407.7 239 410.1 240 410.2 240C410.8 240.2 412.2 240.8 412.7 240.3C414.9 238.5 413.7 235.3 411.8 233.8C408.7 231.7 404.8 230.9 401.1 231.8C399.8 232.1 398.2 232.5 397.4 233.7C396.6 234.9 397.4 236.7 398.3 237.7C399.6 238.9 401.1 239.7 402.8 240.2C404.5 240.9 406.4 241 408.3 240.7L408.4 240.6C410.3 232.3 409.3 223.7 405.6 216C405.2 215.3 403.5 214.9 402.8 214.7C402.6 214.8 400.8 214.4 401 214.9Z" fill="#0C41E2"/>
<path d="M376.8 373.4C372.1 383.7 364 391.9 353.8 396.8L356.5 398.8C356.1 397.7 356.1 396.5 356.5 395.4C356.8 394.6 357.7 392.7 358.7 392.8C359.1 392.9 359.9 393.8 360.3 394.1C360.8 394.6 361.3 395 361.8 395.5C362.8 396.5 363.6 397.7 364.4 398.8C365.2 399.8 365.7 400.9 366.1 402.1C366.4 403.6 364.9 404.1 363.7 404.2C361.3 404.4 358.9 403.3 357.6 401.2C357.2 400.6 356.1 399.2 355.2 399.8C354.3 400.4 355.1 402 355.5 402.6C357.2 405.6 360.1 407.8 363.5 408.5C365 408.9 366.7 408.7 368.1 408C369.6 407 369.7 405.1 369.4 403.5C368.6 400 366.2 396.7 364 394C362.8 392.6 361.5 391.3 360.1 390.1C358.9 389.1 357.3 387.7 355.7 388.6C354.2 389.4 353.4 391.4 353.1 393C352.8 395 353 397 353.9 398.8C354.3 399.6 355.5 401.4 356.6 400.8C367 395.9 375.3 387.5 380.1 377C380.6 376 379.8 374.7 379.2 373.9C378.7 373.6 377.3 372.4 376.8 373.4Z" fill="#0C41E2"/>
<path d="M150.8 158.9L158.5 154.4L119.8 84.2998L150.8 158.9Z" fill="#EDF1FE"/>
<path d="M152.2 160.9L159.9 156.4C161 155.7 160.8 154.5 160.3 153.5L147.2 129.7L126.4 92L121.6 83.4C120.5 81.3 116.7 81.9 117.8 84.6L128.3 110L145 150.1L148.8 159.2C149.3 160.4 150.5 161.2 151.7 161.1C152.6 160.9 153.2 160 153 159.1C153 158.9 152.9 158.8 152.8 158.6L142.2 133.2L125.5 93.1L121.7 84L117.9 85.2L131 109L151.9 146.7L156.7 155.3L157.1 152.4L149.4 156.9C147.1 158.2 150.1 162.1 152.2 160.9Z" fill="#0C41E2"/>
<path d="M120.9 83.8002C119.5 82.4002 58.7 108.9 58.7 108.9L90.8 186.6L154.7 160.3L120.9 83.8002Z" fill="#EDF1FE"/>
<path d="M122.5 82.8C120.1 80.8 115.8 83 113.3 83.9C108.2 85.8 103.1 87.8 98.0999 89.9C86.8999 94.5 75.6999 99.2 64.5999 104.1L56.7999 107.5C56.1999 107.8 55.9999 108.5 56.2999 109L67.0999 135.2L84.4999 177L88.4999 186.6C89.0999 188.1 91.2999 188.5 92.5999 187.9L114.2 179L148.6 164.8L156.5 161.6C157.1 161.3 157.3 160.6 157 160.1L145.6 134.2L127.4 93L123.2 83.6C122.6 82.5 121.4 81.9 120.1 82C119.1 82 118.1 82.7 118.6 83.8L130 109.7L148.2 150.9L152.3 160.3L152.8 158.8L131.2 167.7L96.7999 181.8L88.9999 185L93.0999 186.3L82.1999 160.1L64.8999 118.3L60.8999 108.7L60.3999 110.2C67.0999 107.3 73.7999 104.4 80.4999 101.5C91.4999 96.9 102.3 92.2 113.3 88C115.3 87.2 117.2 86.5 119.3 85.8C119.9 85.6 120.5 85.4 121.1 85.3L121.4 85.2C121.8 85.1 120.8 85.3 121.2 85.2H121.4C120.6 85.2 119.8 85 119.2 84.5C120.2 85.3 121.5 85.5 122.6 85C123.8 84.5 123.3 83.4 122.5 82.8Z" fill="#0C41E2"/>
<path d="M66.5 121L86.6 112.5L118.6 99L125.9 95.9C127.7 95.1 124.2 91.7 122.5 92.4L102.4 100.9L70.4 114.4L63.1 117.5C61.2 118.3 64.8 121.7 66.5 121Z" fill="#0C41E2"/>
<path d="M113.8 84.6C113.5 82.2 110.4 81.2 108.3 81.5C106.4 81.8 104.7 83.1 104.1 85C103.4 87 104.2 89.2 105 91C105.7 92.7 106.4 94.6 107.8 95.8C108.9 96.7 110.3 97.3 111.7 97.3C112.9 97.4 114.1 97 115.1 96.3C117.1 94.4 112.8 92.3 111.3 93.7C111.2 93.8 111.1 93.9 110.9 94C111.1 93.9 111.1 93.9 111 93.9C110.9 93.9 110.9 93.9 111.2 93.9C111.2 94 110.4 94 111.2 93.9C111.7 94 110.7 93.9 111.2 93.9L111.5 94C111.3 93.9 111.3 93.9 111.7 94.1C111.4 93.9 111.8 94.3 111.6 94.1C111.4 93.9 111.2 93.7 111.3 93.8C111.4 93.9 111.2 93.6 111.1 93.6C110.3 92.2 109.6 90.7 109.2 89.2C108.9 88.5 108.8 87.8 108.8 87C108.8 86.8 108.9 86.6 108.9 86.4C108.9 86.3 109.1 85.9 108.9 86.2C109 85.9 109.2 85.6 109.4 85.4C109.5 85.3 109.7 85.2 109.5 85.3C109.6 85.2 109.8 85.1 109.9 85C109.5 85.2 110 84.9 110.1 84.9C109.8 85 109.8 85 109.9 84.9C110 84.8 110 84.9 109.7 84.9C110.2 84.9 109.1 84.7 109.7 84.9L109.4 84.8C109.6 84.9 109.6 84.9 109.2 84.7L109 84.5C109.1 84.6 109.1 84.6 109 84.5C108.9 84.4 108.9 84.4 109 84.5C108.9 84.3 108.9 84.3 109 84.4C109.2 85.6 110.7 86.2 111.7 86.2C112.7 86.2 114 85.9 113.8 84.6Z" fill="#0C41E2"/>
<path d="M94.9998 90.7003C93.4998 88.8003 91.0998 87.7003 88.6998 87.9003C86.6998 88.0003 85.0998 89.6003 84.9998 91.6003C84.8998 93.5003 85.2998 95.3003 85.9998 97.0003C86.6998 99.1003 87.9998 100.9 89.5998 102.4C91.6998 104.2 94.6998 104.9 97.1998 103.6C98.1998 103 97.1998 101.6 96.5998 101.1C95.7998 100.3 94.4998 100 93.3998 100.4C93.2998 100.5 93.1998 100.5 93.0998 100.5C92.9998 100.5 92.8998 100.6 92.6998 100.6C92.7998 100.6 92.7998 100.6 92.6998 100.6C92.5998 100.6 92.0998 100.6 92.2998 100.6C92.4998 100.6 91.4998 100.4 92.2998 100.6C91.8998 100.5 92.5998 100.8 92.1998 100.5C92.4998 100.7 92.3998 100.6 92.0998 100.4C91.5998 100 92.3998 100.7 91.9998 100.3L91.5998 99.9003C91.2998 99.5003 91.6998 100.1 91.4998 99.7003C91.3998 99.5003 91.2998 99.4003 91.1998 99.2003C90.8998 98.8003 90.6998 98.4003 90.4998 98.0003C90.1998 97.3003 89.9998 96.5003 89.7998 95.8003C89.5998 95.1003 89.5998 94.4003 89.5998 93.7003C89.5998 93.1003 89.7998 92.5003 90.0998 92.0003C89.9998 92.2003 90.2998 91.9003 90.2998 91.8003C90.2998 91.7003 90.5998 91.6003 90.5998 91.6003C90.8998 91.5003 91.1998 91.4003 91.4998 91.5003C91.0998 91.5003 91.5998 91.5003 91.6998 91.6003C91.3998 91.5003 91.3998 91.5003 91.5998 91.6003L91.2998 91.5003C91.4998 91.6003 91.4998 91.6003 91.1998 91.4003C91.3998 91.5003 91.3998 91.5003 91.1998 91.4003L91.3998 91.7003C92.1998 92.7003 93.3998 93.2003 94.5998 93.0003C95.7998 92.6003 95.3998 91.4003 94.9998 90.7003Z" fill="#0C41E2"/>
<path d="M91 97.6001C90.4 97.6001 89.9 97.9001 89.7 98.4001C89.5 99.1001 89.5 99.9001 89.9 100.6C90.1 101.3 90.5 102 90.9 102.6C91.2 103.1 91.6 103.6 92.1 104C92.7 104.7 93.5 105.2 94.3 105.6C94.9 105.9 95.6 105.8 96.1 105.5C96.5 105.2 96.9 104.8 97.1 104.4C97.3 103.9 97.4 103.4 97.4 102.9C97.2 101.9 96.8 101 96.1 100.2C95.6 99.6001 94.9 99.0001 94.3 98.5001C93.9 98.2001 93.4 97.9001 92.9 97.8001C92.3 97.6001 91.6 97.6001 91 97.9001C90.8 98.0001 91.1 98.7001 91.2 98.8001C91.5 99.3001 91.9 99.8001 92.3 100.2C92.7 100.6 93.2 101 93.7 101.3C94 101.4 94.3 101.6 94.6 101.5L94.9 101.4L94.7 101.5C95 101.4 95.4 101.4 95.7 101.5L95.4 101.4C95.5 101.4 95.7 101.5 95.8 101.5C95.9 101.5 95.4 101.3 95.6 101.4L95.7 101.5C95.7 101.5 95.2 101.2 95.4 101.3C95.6 101.4 94.9 100.9 95.1 101.1L94.9 100.9C94.8 100.8 94.6 100.6 94.5 100.5C94 99.9001 94.6 100.7 94.2 100.2C94 100 94 99.9001 94.1 100C94.2 100.1 94.1 100 94 99.9001C93.8 99.6001 93.9 99.7001 93.9 99.8001C93.9 99.9001 93.7 99.4001 93.8 99.6001C93.9 99.8001 93.8 99.7001 93.8 99.7001C93.8 99.8001 93.9 99.9001 93.9 100V99.7001C94 100.1 93.9 100.6 93.8 101L93.9 100.8C93.7 101.5 93.2 102 92.5 102.2L92.7 102.1C92.5 102.2 92.2 102.2 91.9 102.2L92.2 102.3C92 102.3 91.7 102.1 92.2 102.3C92 102.2 92.7 102.6 92.4 102.5L92.8 102.8C92.7 102.7 92.7 102.8 93 103C93.1 103.1 93.8 103.9 93.5 103.5C93.2 103.1 93.9 104.1 93.7 103.8C93.5 103.5 94 104.3 93.9 104L93.8 103.8C93.8 103.7 93.7 103.7 93.7 103.6C93.7 103.6 93.9 104 93.8 103.8C93.8 103.7 93.7 103.6 93.7 103.5C93.6 103.2 93.5 102.9 93.5 102.6L93.6 102.9C93.5 102.6 93.5 102.2 93.6 101.9L93.5 102.1C93.6 101.8 93.8 101.5 94.2 101.4L94 101.5C94.1 101.5 94.3 101.5 94.4 101.5C94.7 101.5 94.7 101.1 94.6 100.9C94.4 100.4 94.1 100 93.8 99.6001C93.4 99.1001 92.9 98.7001 92.4 98.3001C91.8 97.8001 91.4 97.6001 91 97.6001Z" fill="#0C41E2"/>
<path d="M113.8 90.7C112.5 90.5 111.2 90.7 109.9 91.1C109.5 91.3 109.1 91.5 108.8 91.9C108.5 92.5 108.4 93.1 108.6 93.7C108.8 94.8 109.5 95.8 110.5 96.3C111.2 96.5 111.9 96.6 112.6 96.5C113.6 96.5 114.6 96.3 115.6 95.9C116.3 95.6 116.9 95.2 117.3 94.6C117.9 93.7 117.9 92.5 117.1 91.6C116.6 91.1 115.9 90.8 115.2 90.7C114.4 90.6 113.6 90.6 112.8 90.7C111.9 90.8 111 91 110.2 91.5C110 91.6 109.8 91.9 110 92.1C110.2 92.3 110.9 92.4 111.2 92.4C112.4 92.5 113.5 92.3 114.6 91.8L114.4 91.9L114 92L113.5 92.1C113.2 92.2 112.8 92.2 112.5 92.2H112C111.6 92.2 111.8 92.2 111.9 92.2C112 92.2 111.5 92 111.7 92.2L112 92.4L111.7 92.3C112 92.5 112.3 92.7 112.5 93L112.4 92.8C112.7 93.4 112.8 94 112.5 94.6L112.6 94.4C112.4 94.8 112.2 95.2 111.8 95.5L112 95.3L111.7 95.5C111.6 95.6 111.3 95.7 111.8 95.5C111.5 95.6 112.3 95.4 112.3 95.4C112.6 95.3 112.8 95.3 113.1 95.3C113.4 95.3 113.8 95.3 114.1 95.3H114.5C114.4 95.3 114.4 95.3 114.6 95.3C114.9 95.4 114.6 95.3 114.5 95.2L114.8 95.3C114.5 95.1 114.2 94.8 114 94.5L114.1 94.7C113.9 94.3 113.7 93.9 113.6 93.5C113.4 93 113.3 92.4 113.5 91.9L113.4 92.1C113.5 91.9 113.6 91.7 113.8 91.5L113.6 91.7L113.7 91.6C113.8 91.6 113.7 91.6 113.6 91.6C112.6 92.1 111.5 92.3 110.4 92C111 92.1 111.6 92.1 112.2 92C112.8 92 113.4 91.8 113.9 91.6C114.1 91.5 114.7 91.3 114.6 91C114.5 90.7 114.1 90.8 113.8 90.7Z" fill="#0C41E2"/>
<path d="M73.9999 105.2C73.3999 105.1 72.6999 105.3 72.0999 105.6C71.7999 105.7 71.5999 105.9 71.3999 106.1C70.9999 106.4 70.6999 106.8 70.4999 107.3C70.0999 108.2 69.9999 109.2 70.2999 110.1C70.6999 111.5 71.2999 113 72.6999 113.7C73.1999 114 73.7999 114.1 74.3999 114.2C75.0999 114.2 75.7999 114.1 76.4999 113.8C76.8999 113.6 77.2999 113.4 77.5999 113.1C78.0999 112.7 78.3999 112.2 78.6999 111.7C78.9999 111.1 79.1999 110.4 79.1999 109.8C79.1999 109.4 79.1999 109 79.0999 108.6C78.8999 108 78.6999 107.5 78.2999 107C77.6999 106.3 76.9999 105.9 76.0999 105.6C74.9999 105.3 73.8999 105.4 72.7999 105.9C72.1999 106.2 71.7999 106.6 71.4999 107.2C71.1999 107.7 71.1999 108.4 71.4999 108.9C71.7999 109.4 72.2999 109.8 72.8999 110C73.4999 110.2 74.1999 110.1 74.7999 109.9L75.0999 109.8L74.4999 110C74.5999 110 74.7999 109.9 74.8999 109.9H74.1999C74.2999 109.9 74.4999 109.9 74.5999 109.9L73.9999 109.8C74.1999 109.8 74.2999 109.9 74.4999 110L73.8999 109.7C74.0999 109.8 74.1999 109.9 74.3999 110L73.8999 109.6C73.9999 109.7 74.1999 109.8 74.2999 110L73.9999 109.5C74.0999 109.7 74.1999 109.8 74.2999 110L74.0999 109.4C74.1999 109.6 74.1999 109.8 74.1999 110V109.4C74.1999 109.6 74.1999 109.9 74.0999 110.1L74.2999 109.5C74.1999 109.7 74.0999 110 73.9999 110.2L74.2999 109.7C74.1999 109.9 74.0999 110 73.8999 110.2L74.2999 109.8C74.1999 110 73.9999 110.1 73.8999 110.3L74.4999 110C74.3999 110.1 74.1999 110.1 74.0999 110.2L74.6999 110C74.5999 110 74.4999 110.1 74.2999 110.1L74.9999 110C74.8999 110 74.7999 110 74.6999 110L75.2999 110.1C75.1999 110.1 75.0999 110 74.9999 110L75.5999 110.2C75.4999 110.1 75.3999 110.1 75.2999 110L75.7999 110.4C75.6999 110.3 75.4999 110.1 75.3999 110L75.6999 110.5C75.4999 110.1 75.2999 109.8 75.0999 109.3L75.2999 109.9C75.0999 109.5 75.0999 109.1 74.9999 108.7V109.3C74.9999 109.1 74.9999 108.9 75.0999 108.8L74.9999 109C74.9999 108.9 75.0999 108.8 75.0999 108.7L74.7999 109.2C74.7999 109.1 74.8999 109 74.9999 109L74.5999 109.4L74.7999 109.2L74.1999 109.5L74.3999 109.4L73.7999 109.6H73.9999H73.2999H73.4999C74.1999 109.6 74.7999 109.4 75.2999 109C75.7999 108.6 76.0999 108.1 76.1999 107.5C76.2999 106.9 76.0999 106.3 75.5999 105.9C75.1999 105.5 74.5999 105.3 73.9999 105.2Z" fill="#0C41E2"/>
<path d="M75.0999 100.7C74.7999 99.9001 74.1999 99.1001 73.5999 98.5001C73.0999 98.1001 72.5999 97.7001 71.9999 97.5001C71.3999 97.3001 70.6999 97.3001 70.0999 97.5001C68.5999 97.7001 67.3999 98.6001 66.6999 99.9001C65.8999 101.5 65.8999 103.3 66.6999 104.9C67.6999 107 68.9999 108.9 70.6999 110.4C72.3999 112.1 74.7999 113.4 77.0999 112.1C77.3999 112 77.0999 111.3 77.0999 111.2C76.5999 110.1 75.7999 109.2 74.7999 108.5C74.4999 108.3 74.1999 108.2 73.8999 108.3C73.1999 108.7 72.3999 108.8 71.6999 108.6C71.5999 108.6 71.2999 108.4 71.4999 108.5L71.1999 108.3C71.3999 108.5 71.3999 108.5 71.1999 108.3C70.9999 108.1 70.9999 108.2 71.2999 108.4L71.0999 108.2L70.6999 107.7C70.9999 108.1 70.2999 107.3 70.6999 107.7L70.2999 107.1C70.1999 106.9 70.1999 106.9 70.2999 107.2C70.1999 107.1 70.1999 107 70.0999 106.9C69.8999 106.5 70.1999 107.2 69.9999 106.8L69.8999 106.5C69.8999 106.6 69.8999 106.6 69.8999 106.4C69.7999 106.1 69.7999 105.8 69.7999 105.5C69.7999 104.1 70.4999 102.7 71.5999 101.9C72.0999 101.6 72.5999 101.4 73.1999 101.3C73.4999 101.2 73.7999 101.2 74.0999 101.2H74.4999C74.9999 101.4 74.6999 101.1 73.4999 100.5L72.5999 99.5001L72.0999 98.7001C72.2999 99.3001 72.6999 99.8001 73.0999 100.2C73.4999 100.7 73.8999 101.1 74.3999 101.4C74.5999 101.5 75.0999 101.8 75.2999 101.6C75.4999 101.4 75.0999 100.9 75.0999 100.7Z" fill="#0C41E2"/>
<path d="M120.3 85.5001C121.5 88.1001 122.9 90.5001 124.4 92.9001C127.2 97.6001 130 102.3 132.8 107C139 117.3 145.2 127.5 151.6 137.7C153.4 140.6 155.1 143.5 157 146.3C157.7 147.4 159 147.8 160.3 147.5C161.5 147.1 161.4 145.8 160.8 144.9C156.3 138.1 152.2 131 147.9 124.1C141.7 113.9 135.4 103.8 129.4 93.5001C129.2 93.2001 129.1 92.9001 128.9 92.7001L128.7 92.4001C128.5 92.0001 128.9 92.7001 128.6 92.3001C128.3 91.9001 128 91.3001 127.7 90.8001C127.2 90.0001 126.7 89.1001 126.2 88.2001C125.6 87.2001 125.1 86.2001 124.6 85.2001C124.1 84.0001 122.9 83.3001 121.6 83.4001C120.8 83.4001 120.1 84.1001 120.1 84.9001C120.2 85.1001 120.2 85.3001 120.3 85.5001Z" fill="#0C41E2"/>
<path d="M91.2998 125.4L107.8 118.3L103 117.4L99.2998 137.7C99.1998 138.2 103.6 138.9 104.1 138.6C107.4 136.5 110.6 134.7 114.5 134.3C114.7 134.3 115.4 134.4 114.4 134.2C113.4 134 114 134.1 114.2 134.2C114.4 134.3 114.8 134.5 115.2 134.6C116 135 116.7 135.4 117.3 136C118.6 137.1 119.7 138.4 120.5 139.8C123.8 145.9 121.4 153.4 116.6 158C115.1 159.6 113.2 160.7 111.1 161.4C110.9 161.5 110.7 161.5 110.5 161.5L109.9 161.6C111.7 162.1 112.2 162.2 111.5 161.8C111.1 161.6 110.8 161.3 110.5 161.1C109.8 160.4 109.4 159.5 109.4 158.6C109.4 157.8 104.5 157.6 104.5 157.7C104.6 159.8 106.2 161.1 108.1 161.8C110.6 162.8 113.3 163 115.9 162.4C120.2 161.2 123.8 157.1 125.6 153.2C127.6 149.2 127.5 144.5 125.4 140.5C123.3 136.9 119.6 134.4 115.5 133.7C112.7 133 109.8 133 107 133.7C104.3 134.6 101.8 135.9 99.3998 137.6L104.2 138.5L107.9 118.2C108 117.7 103.6 117 103.1 117.3L86.5998 124.3C86.1998 124.5 88.0998 125 88.2998 125C89.0998 125.2 90.4998 125.7 91.2998 125.4Z" fill="#6A90FF"/>
</svg>
